<svg xmlns="http://www.w3.org/2000/svg" xmlns:xlink="http://www.w3.org/1999/xlink" id="Layer_1" x="0px" y="0px" viewBox="0 0 400 400" style="enable-background:new 0 0 400 400;" xml:space="preserve"><style type="text/css">	.st0{fill:#041C51;}	.st1{fill:#FFFFFF;}</style><g>	<path class="st0" d="M282.2,275.5h-30.9c-1.9,0-3.5,1.6-3.5,3.5s1.6,3.5,3.5,3.5h30.9c1.9,0,3.5-1.6,3.5-3.5   S284.1,275.5,282.2,275.5z"></path>	<path class="st0" d="M341.7,275.5h-30.9c-1.9,0-3.5,1.6-3.5,3.5s1.6,3.5,3.5,3.5h30.9c1.9,0,3.5-1.6,3.5-3.5   S343.7,275.5,341.7,275.5z"></path>	<path class="st0" d="M225.1,23c44.5,2.6,76.5,23.8,95.3,64.3c6.1,13.2,8.6,27.2,8.8,41.7c0.1,7,5.1,11.7,11.6,11.6   c6.5-0.1,11.2-5,11.3-12c0-1.3,0-2.6,0-4c-2.8-43.8-21.6-78.7-58.2-103.4C272.8,7.1,249.2,0.2,223.6,0c-7.9-0.1-13.2,6-12.1,13.3   C212.4,19.4,217.1,22.5,225.1,23z M226.5,7c56.7,0.8,107.9,45.1,116.7,101.1c0.8,5.3,1.4,10.7,2.1,16.1c-0.1,0-0.2,0-0.3,0   c0,1,0,2.1,0,3.1c0.1,3.2-0.3,6.2-4.3,6.3c-4,0.1-4.4-2.8-4.7-6c-0.9-8.4-1.4-17-3.4-25.2C320.9,52.9,277.3,17.7,226.3,16   c-3.4-0.1-7.9,0.6-7.7-4.6C218.7,6.1,223.1,7,226.5,7z"></path>	<path class="st0" d="M216.6,56.3c35.5,0.9,66.2,24.3,75.9,58.5c2,7.2,2.5,14.9,3.3,22.5c0.7,6.9,5.4,11.6,12,11.4   c6.4-0.2,10.9-5,11-11.8c0-1.2,0-2.3,0-3.5c-2-33-15.7-59.9-42.2-79.8c-18-13.5-38.4-20.2-60.9-20.3c-7.6,0-12.6,5.2-12.2,12.4   C203.9,52.2,208.7,56.1,216.6,56.3z M215.3,40.4c7.5,0.7,15.2,1.1,22.6,2.8c41.4,9.5,72.5,47.5,73.9,89.6c0,1.3,0,2.6,0,4   c0,2.9-1.2,4.9-4.3,4.9c-3.1,0.1-4.3-1.9-4.6-4.7c-0.5-5.5-0.7-11.1-1.7-16.5c-7.4-39.8-42.6-69.8-83.1-71c-1,0-2.1,0-3.1-0.1   c-2.7-0.2-4.4-1.6-4.5-4.4C210.5,41.7,212.4,40.1,215.3,40.4z"></path>	<path class="st0" d="M208,89.6c27.3,0.8,49.1,19.7,53.8,46.5c0.6,3.6,0.5,7.3,1.1,10.9c0.9,5.5,5,9.2,10.4,9.7   c5.2,0.4,10.2-2.5,11.6-7.5c0.7-2.5,0.7-5.2,0.9-7.3c-0.5-4-0.8-7.5-1.4-11c-6.1-36.3-39.7-64.6-76.4-64.2c-3.1,0-6.6,1.5-9.1,3.4   c-3.8,3-4.3,7.6-2.6,12C198.2,87.4,202.5,89.4,208,89.6z M202.9,76.3c0.9-1.3,2.9-2.5,4.5-2.6c10.1-0.3,19.8,1.9,28.9,6.2   c25.7,12.3,39.3,33,42.2,59.9c0,2.3,0,3.3,0,4.3c0.1,3-1,5.4-4.3,5.5c-3.3,0.1-4.5-2.1-4.8-5.1c-0.5-4.8-0.7-9.7-1.9-14.3   c-6.4-27.1-30.7-46.7-58.6-47.7c-1.9-0.1-4.1-0.7-5.5-1.8C202.7,79.9,202.3,77.3,202.9,76.3z"></path>	<path class="st0" d="M116.6,364.3c27.2,0,54.4,0,81.5,0c2.6,0,5.4-0.2,5.4-3.6c0-3.5-2.9-3.4-5.5-3.4c-13.4,0-26.9,0-40.3,0   c-13.7,0-27.5,0-41.2,0c-2.5,0-5.1,0.1-5.1,3.3C111.2,364,113.9,364.3,116.6,364.3z"></path>	<path class="st0" d="M204.5,237.1c-13.2-0.1-23.8,10.4-23.9,23.5c-0.1,13.1,10.4,23.8,23.5,24c13,0.1,23.9-10.6,24-23.6   C228.2,247.9,217.6,237.2,204.5,237.1z M204.3,277.5c-9.2,0-16.6-7.6-16.6-16.8c0-9.3,7.4-16.6,16.7-16.6c9.2,0,16.7,7.5,16.7,16.7   C221,270,213.4,277.5,204.3,277.5z"></path>	<path class="st0" d="M372.9,210.7c0-15.7-7.8-23.5-23.5-23.5c-33.2,0-66.5,0-99.7,0c-1.7,0-3.4,0-5.5,0c0-2.1,0-3.7,0-5.3   c0-13.5,0.1-26.9,0-40.4c-0.1-20.2-13.4-33.5-33.7-33.5c-35.3-0.1-70.6,0-105.9,0c-20.5,0-33.9,13.3-33.9,33.8   c0,38.2,0,76.3,0,114.5l7.1,0c0-37.3,0-74.5-0.4-111.8c-0.2-18.6,11.7-32.4,33.8-29.1c0,1.9-0.1,3.9,0,5.9   c0.4,6.9,5.4,12.3,12.4,12.3c22.5,0.1,45.1,0.1,67.6,0c7,0,11.9-5.4,12.3-12.4c0.1-1.9,0-3.7,0-5.5c22-4.2,34.3,11,33.6,26.3   c-0.6,13.4-0.1,26.9-0.1,40.4c0,1.4,0,2.9,0,4.7c-2,0-3.6,0-5.1,0c-19,0-38.1,0-57.1,0c-13.2,0-21.8,8.2-21.9,21.5   c-0.2,34.8-0.2,69.7,0,104.5c0.1,13.2,8.8,21.4,22.1,21.4c18.9,0,37.8,0,56.7,0c1.6,0,3.2,0,5.2,0c0,12.7,0.5,24.9-0.2,37   c-0.6,11-10.7,20.3-21.8,21.2c-3.1,0.3-6.1,0.2-9.2,0.2c-34,0-67.9,0-101.9,0c-13,0-22.7-7.4-25.4-19.2c-0.7-2.9-0.7-6.1-0.7-9.2   c0-7.8,0-15.6,0-23.4c-2.3,1.8-4.9,2.2-7,2.4c0,7.6,0,15.1,0,22.7c0,20.5,13.3,33.7,33.9,33.8c15.5,0.1,31,0,46.6,0   c19.9,0,39.8-0.1,59.7,0c11.5,0,20.8-4.3,27.5-13.7c4.2-5.8,5.8-12.3,5.8-19.4c-0.1-10.7,0-21.3,0-32.6c2.5,0,4.2,0,6,0   c33.1,0,66.2,0,99.3,0c15.7,0,23.5-7.8,23.5-23.4C372.9,277.5,372.9,244.1,372.9,210.7z M196.6,120.7c-0.2,3.8-2.3,5.9-6.2,5.9   c-21.9,0-43.9,0-65.8,0c-4.1,0-6.2-2.1-6.4-6.2c-0.1-1.6,0-3.2,0-5.1c26.2,0,52.1,0,78.4,0C196.6,117.2,196.7,119,196.6,120.7z    M365.9,311.2c0,11.2-4.8,16.1-16,16.1c-29.1,0-58.3,0-87.4,0c0-0.1,0-0.2,0-0.3c-29.3,0-58.6,0-87.8,0c-9.2,0-14.1-4.9-14.1-14   c0-34.8,0-69.7,0-104.5c0-8.3,4.8-13.4,13.1-14c1-0.1,2,0,3.1,0c57.7,0,115.4-0.1,173.1-0.1c11.4,0,16.2,4.9,16.2,16.4   C365.9,244.2,365.9,277.7,365.9,311.2z"></path>	<path class="st0" d="M31.1,305.6c13.8-0.1,27.6-0.1,41.4-0.1c13.2,0,26.4,0,39.7,0c6.5,0,6.5,0,6.4-6.5c0-4.9-0.1-4.9-5-4.9   c-26.3,0-52.6,0-79,0c-8.2,0-7.4-0.8-7.5,7.6C27.1,304.7,28.2,305.6,31.1,305.6z"></path>	<path class="st0" d="M31.8,277c13.6,0,27.2,0,40.7,0c14.1,0,28.3,0,42.4,0c2.6,0,3.8-0.9,3.6-3.6c-0.1-0.9,0-1.8,0-2.7   c0-5,0-5-5.2-5c-26.5,0-52.9,0-79.4,0c-7.3,0-6.9-0.9-6.9,6.8C27.2,276.9,27.2,276.9,31.8,277z"></path>	<path class="st0" d="M110.7,334.1c8.7-0.1,7.9,1.3,7.9-8.5c0-2.2-1-3.1-3.2-3c-2.7,0.1-5.4,0-8.3,0c0-1.5,0-2.7,0-3.8   c-0.1-8.4,1.5-7.7-8.3-7.7c-2.4,0-3.2,1.1-3.2,3.4c0.1,2.6,0,5.2,0,7.9c-1.3,0.1-2.3,0.1-3.3,0.2c-9,0.2-7.9-2-8,8.7   c0,2.1,1,2.8,2.9,2.8c2.7,0,5.4,0,8.2,0c0.1,1.5,0.1,2.5,0.2,3.5c0.1,8.9-1.4,7.7,8.5,7.9c2.2,0,3.1-0.9,3-3.1   c-0.1-2.7,0-5.4,0-8.2C108.6,334.1,109.7,334.1,110.7,334.1z"></path>	<path class="st0" d="M72.9,326c0-2.5-0.9-3.4-3.4-3.4c-6.4,0.1-12.8,0-19.1,0c-5.4,0-10.7,0-16.1,0c-7.5,0-7-1-7.2,7.2   c-0.1,3.3,1.1,4.4,4.4,4.3c11.2-0.1,22.3,0,33.5-0.1C74,334.1,72.7,335,72.9,326z"></path>	<path class="st0" d="M342.1,239.5h-90.6c-1.9,0-3.5,1.6-3.5,3.5c0,1.9,1.6,3.5,3.5,3.5h90.6c1.9,0,3.5-1.6,3.5-3.5   C345.7,241,344.1,239.5,342.1,239.5z"></path></g></svg>