<svg xmlns="http://www.w3.org/2000/svg" xmlns:xlink="http://www.w3.org/1999/xlink" id="Layer_1" x="0px" y="0px" viewBox="0 0 400 400" style="enable-background:new 0 0 400 400;" xml:space="preserve"><style type="text/css">	.st0{fill:#041C51;}	.st1{fill:#FFFFFF;}</style><g>	<path class="st0" d="M368.2,138.8c-8,0-16,0-24,0c-0.7,0-1.4,0-2,0c-0.1,0-0.1,0-0.2-0.1c-0.1-0.2-0.2-0.3-0.3-0.4   c-0.2-0.6-0.3-1.2-0.5-1.7c-3.5-14.4-9.1-27.8-16.8-40.4c-0.9-1.5-0.7-2.3,0.4-3.5c5.8-5.7,11.5-11.4,17.3-17.2   c2.2-2.2,2.2-4.2,0-6.4c-12.8-12.8-25.5-25.6-38.3-38.3c-2-2-4.1-2-6.1-0.1c-1.8,1.7-3.6,3.6-5.4,5.4c-4.5,4.5-8.9,9-13.3,13.5   c-0.1,0.1-0.1,0.1-0.2,0c-0.4-0.2-0.6-0.3-0.8-0.4C264.8,41,250.7,35,235.6,31.5c-1.4-0.3-1.4-1.1-1.4-2.2c0-8.3,0-16.5,0-24.8   c0-3-1.4-4.6-4.3-4.6c-18,0-36,0-54,0c-3.5,0-4.8,1.4-4.8,4.9c0,8.1,0,16.1,0,24.2c0,1.5-0.3,2.2-1.9,2.6   c-14.6,3.5-28.4,9.1-41.1,17.1c-1.3,0.8-1.9,0.5-2.8-0.4c-5.8-5.8-11.6-11.6-17.4-17.4c-2.4-2.4-4.3-2.3-6.7,0   c-2.4,2.4-4.8,4.8-7.2,7.2C83.7,48.4,73.5,58.6,63.3,68.9c-2.5,2.5-2.4,4.4,0,6.8c1.7,1.7,3.5,3.5,5.2,5.2   c4.4,4.4,8.8,8.8,13.3,13.2c0.1,0.1,0.1,0.2,0,0.2c-8.5,13.6-14.5,27.9-18.1,43.3c-0.3,1.3-1.2,1.2-2.1,1.2c-8.1,0-16.1,0-24.2,0   c-3.9,0-5.2,1.3-5.2,5.1c0,8.5,0,17.1,0,25.6c0,9.3,0,18.7,0,28c0,2.7,1.4,4.3,3.9,4.3c10.1,0.1,20.3,0.1,30.4,0   c1.1,0,2.6-0.8,3.1-1.7c0.6-1,0.6-2.7,0.3-3.9c-0.4-1.5-1.9-2.1-3.5-2.1c-7.1,0-14.3,0-21.4,0c-1.5,0-3,0-4.6,0   c-0.1,0-0.2-0.1-0.2-0.2v-47.1c0-0.1,0.1-0.2,0.2-0.2c0.8,0,1.4,0,2.1,0c7.7,0,15.3,0,23,0c3.3,0,4.3-0.9,5.1-4.1   c1.5-5.9,3-11.7,5-17.5c3.4-10.1,8.3-19.6,14.2-28.6c1.1-1.7,1.7-3.5,0.2-5.1c-2.4-2.6-5.1-5-7.5-7.4c-0.3-0.1-9.4-9.9-11-11.3   c-0.1-0.1-0.1-0.2,0-0.3c11.2-11.2,22.1-22.2,33.2-33.3c0.1-0.1,0.2-0.1,0.3,0c0.4,0.4,0.9,0.8,1.4,1.3   c5.6,5.6,11.1,11.1,16.7,16.7c1.9,1.9,3.5,2,5.7,0.5c14.2-9.4,29.7-15.8,46.4-19.3c2.9-0.6,3.9-1.8,3.9-4.9c0-7.7,0-15.5,0-23.2   c0-0.7,0-1.3,0-2.1c0-0.1,0.1-0.2,0.2-0.2c0.9-0.1,1.5-0.1,2.2-0.1c14.3,0,28.5,0,42.8-0.1c1.9,0,2.3,0.6,2.3,2.4   c-0.1,7.8,0,15.6,0,23.4c0,2.8,1,4.2,3.4,4.6c16.9,3.5,32.5,10,47,19.4c2.2,1.4,3.7,1.3,5.5-0.5c2.1-2,4.2-4.1,6.2-6.2   c4-4,7.9-8.1,11.8-12c0.1-0.1,0.2-0.1,0.3,0c11.2,11.2,22.3,22.3,33.3,33.3c0.1,0.1,0.1,0.2,0,0.3c-0.2,0.3-0.5,0.6-0.8,0.9   c-5.5,5.5-11,11-16.5,16.5c-2.5,2.5-2.7,3.9-0.8,6.8c9.2,14.2,15.6,29.5,19,46.1c0.6,2.7,1.8,3.7,4.6,3.7c7.7,0,15.3,0,23,0   c0.8,0,1.6,0,2.4,0c0.1,0,0.2,0.1,0.2,0.2v47.1c0,0.1-0.1,0.2-0.2,0.2c-8.7,0-17.1,0-25.6,0c-2.7,0-4.4,1.6-4.4,3.9   c0,2.3,1.8,3.9,4.4,3.9c9.6,0,19.2,0,28.8,0c3.8,0,5-1.2,5-5c0-17.7,0-35.5,0-53.2C373,140.1,371.7,138.8,368.2,138.8z"></path>	<path class="st0" d="M297.5,97.3c-20.4-21.4-45.2-34.9-74.3-40.1c-16.9-3-33.8-2.9-50.6,0.6c-16.4,3.4-31.5,9.7-45.7,18.4   c-7.6,4.6-14.8,9.7-20.7,16.5c-7.5,8.7-10.6,18.7-8.4,30c1.9,10.1,8.2,17.1,16.6,22.5c4.5,2.9,8.8,2.6,13.2-0.4   c10.4-7.3,20.9-14.6,31.3-21.8c4.7-3.3,6.2-6.9,5-12.6c-1-4.7-2.7-9.2-5.6-13.5c16.6-7.5,33.8-10.6,51.7-8.8   c12.8,1.3,25.1,4.5,36.5,11c-3.5,4.7-5.5,9.7-6.5,15.2c-0.9,4.8-0.1,9.3,4,12.4c10.4,7.9,20.9,15.7,31.3,23.6   c2.7,2,5.6,2.5,8.7,1.3c2.8-1.1,5.6-2.3,8-4C307.4,137,312.8,113.4,297.5,97.3z M281.6,145c-0.5,0.3-1.6-0.1-2.1-0.5   c-10.3-7.7-20.6-15.4-30.8-23.1c-1.4-1.1-1.9-2.6-1.7-4.2c0.4-4.8,2.1-9.1,4.8-13c0.4-0.6,0.9-1.2,1.3-1.8c2.1-3.3,1.6-6.7-1.9-8.6   c-4.5-2.5-9.1-4.8-13.9-6.6c-12-4.4-24.4-6.5-37.2-6.6c-15.6,0.1-30.4,3.4-44.5,9.9c-5.1,2.3-6.1,6.3-2.8,10.8   c2.5,3.6,3.9,7.7,4.6,12c0.3,1.8-0.9,2.8-2.2,3.7c-5.2,3.6-10.4,7.2-15.6,10.8c-5.2,3.6-10.4,7.3-15.5,10.9c-2.8,1.9-3.7,2-6.5,0.1   c-5.9-4-10.6-9-12.4-16.1c-2.5-9.9,0.4-18.5,7-26.1c4.9-5.6,11-9.8,17.3-13.8c13.8-8.6,28.4-15.1,44.5-18.3   c27.6-5.4,54.1-2.4,79.8,9.3c14.3,6.6,26.5,15.9,37.7,26.8c12.3,12,10.2,28.5-0.4,38.7C288.3,142.1,284.7,143.3,281.6,145z"></path>	<path class="st0" d="M281,331.6c0-7.2-0.1-14.2,0-21.2c0-2.2-0.7-3.6-2.4-4.9c-11.5-8.5-22.7-17.2-34.4-25.4c-4.2-2.9-5.8-6-5.6-11   c0.4-9.7,0.1-19.4,0.1-29.2c0-2.5-0.8-3.6-2.8-3.9c-2.5-0.3-4.1,1.1-4.2,3.8c0,12.3,0,24.7,0,37c0,2,0.8,3.2,2.3,4.3   c12.9,9.5,25.8,19.1,38.6,28.7c0.7,0.5,1.3,1.7,1.3,2.6c0.1,5.5,0,10.9,0.1,16.4c0.1,2-0.5,2.8-2.5,3.3   c-12.2,2.8-20.1,14.5-18.6,27c1.5,12.1,12,21.5,24.2,21.6c10,0.1,19.1-5.8,23-14.8c4-9.2,2.1-19.8-4.9-27.1   C291.5,334.9,286.8,332.5,281,331.6z M277.6,373.8c-9.8,0-17.8-8-17.7-17.8c0-9.7,8-17.6,17.7-17.6c9.9,0,17.8,7.9,17.8,17.7   C295.4,365.8,287.4,373.8,277.6,373.8z"></path>	<path class="st0" d="M75.5,295.5c16-11.1,32.1-22.2,48.1-33.4c1-0.7,2-2.2,2-3.3c0.2-10,0.1-20,0.1-30c0-2.3-1.8-3.6-4-3.2   c-2,0.4-2.9,1.6-3,4c0,8.7,0,17.3,0,26c0,0.8-0.5,2-1.2,2.4c-12.5,8.7-25.1,17.4-37.6,26c-3.3,2.3-6.7,4.6-10,6.8   c-11-10.8-25.8-9.6-34.8-1.5c-9,8-10.7,21.8-4,32.1c6.6,10,19.9,13.8,30.7,8.9c10.5-4.7,18.8-18.2,12.1-33.7   C74.5,296.3,75,295.9,75.5,295.5z M51.4,325.5c-9.9-0.2-17.7-8.2-17.5-18c0.2-9.9,8.3-17.6,18.3-17.4c9.6,0.1,17.4,8.4,17.2,18.1   C69.3,317.9,61.1,325.7,51.4,325.5z"></path>	<path class="st0" d="M233,211.8c0.1-7.1,0-14.1,0.1-21.2c0-0.7,0.1-1.4,0.1-2.7c4.5,0.4,8.9,0.3,13,1.3c6.7,1.7,9.4,7.7,12,13.3   c0.1,0.1,0.8,2,0.9,2.4c2.2,4.4,4.4,8.8,6.8,13.1c1.2,2.1,3.3,2.8,5.6,2.7c3.2-0.2,3.9-1.7,2.5-4.5c-2.2-4.3-4.3-8.6-6.4-12.9   c-0.8-1.6-1.5-3.2-2.3-4.9c-1.1-2.6-1.5-4.6-3.8-7.1c-2.2-1.8-4-3.3-5.9-5c0.9-0.2,1.6-0.4,2.3-0.6c4.1-1.2,7.8-3.2,10.4-6.7   c8.2-10.9,2.2-27.9-11.3-31.1c-3.4-0.8-7.1-0.8-10.7-1c-4.7-0.1-9.5-0.1-14.2,0c-4.6,0.1-6.8,2.1-7.5,6.7c-0.1,0.9-0.2,1.9-0.2,2.8   c0,19.8,0,39.6,0,59.4c0,0.8-0.1,4.4-0.1,4.4c1.5,0.1,8,0.4,8.4,0C232.6,220.2,232.9,213.1,233,211.8z M233,157.7   c0-2.6,0.8-3.4,3.3-3.4c4.7,0,9.5-0.1,14.2,0c9.8,0.3,13,7.9,12.3,14.8c-0.7,6.4-4.5,10.4-11.5,11.3c-5.7,0.7-11.4,0.4-17.1,0.5   c-0.4,0-1.1-1-1.1-1.6c-0.1-3.7-0.1-7.3-0.1-11C233,164.8,233,161.2,233,157.7z"></path>	<path class="st0" d="M166,274.5C166,274.5,166,274.5,166,274.5c0-1,0-2,0-3c-0.1-2.4-1.5-3.8-3.5-3.7c-2,0.1-3.3,1.5-3.3,3.7   c0,0.7-0.1,1.5,0,2.2c0.2,1.5-0.4,2.4-1.7,3.3c-13.8,9.5-27.6,19.1-41.4,28.7c-1.6,1.1-2.3,2.4-2.3,4.5c0.1,6.5,0,13.1,0.1,19.6   c0,1.3-0.3,2-1.8,2.2c-5.3,0.9-9.7,3.8-13.2,7.6c-9.5,10.3-8.3,26.3,2.7,35.6c10.1,8.6,26.2,7.1,34.7-3.4   c11.6-14.2,4.5-35.3-13.3-39.6c-1.9-0.5-2.4-1.2-2.3-3c0.1-5.4,0.1-10.8,0-16.2c0-1.5,0.5-2.4,1.7-3.2   c13.9-9.6,27.8-19.3,41.7-28.9c1.3-0.9,2-2.1,1.9-3.7C166,276.3,166,275.4,166,274.5z M134.8,355.8c0.1,10-7.7,17.9-17.7,18   c-9.8,0-17.7-8-17.7-17.8c0-9.8,7.9-17.6,17.9-17.7C126.8,338.3,134.7,346.2,134.8,355.8z"></path>	<path class="st0" d="M351.1,295c-7.9-2.6-15.4-1.3-22.2,3.2c-14-10.4-28-20.7-41.8-31.1c-0.7-0.5-1.1-1.6-1.1-2.5   c-0.1-3.3,0-6.5,0-9.8c0-2.4-1.3-3.8-3.4-3.8c-2.1,0-3.4,1.4-3.4,3.8c0,4.3-0.1,8.5,0.1,12.8c0.1,1.2,0.7,2.7,1.6,3.4   c9.2,7,18.6,13.9,27.9,20.8c5,3.7,10,7.5,15.2,11.3c-8.7,12-5.6,26.3,3.1,33.9c9.4,8.2,22.9,8.3,32.4,0.4   c9.1-7.6,11.4-21.1,5.1-31.6C361.2,300.5,356.8,296.8,351.1,295z M343.1,336.1c-9.8,0-17.7-8-17.7-17.9c0-9.7,8-17.7,17.7-17.7   c9.8,0,17.9,8,17.9,17.8C360.9,328.1,352.8,336.2,343.1,336.1z"></path>	<path class="st0" d="M205.2,351.3c-1.8-0.4-2.1-1.1-2.1-2.8c0-21,0-42,0-63c0-0.8,0.2-1.8-0.2-2.4c-0.7-1-1.6-2.2-2.6-2.6   c-1.4-0.6-2.8,0.1-3.5,1.5c-0.4,0.8-0.5,1.8-0.5,2.7c0,10.7,0,21.3,0,32c0,0,0,0,0,0c0,10.5-0.1,21.1,0.1,31.6c0,1.9-0.5,2.6-2.4,3   c-14,3.2-22.1,17.7-17.8,31.6c4.2,13.4,19.4,20.6,32.6,15.4c10.1-4,16.3-13.9,15.5-24.8C223.5,362.7,216,353.8,205.2,351.3z    M199.7,393c-9.7,0.1-17.7-7.8-17.9-17.5c-0.1-9.8,7.7-17.8,17.6-17.9c9.8-0.1,17.8,7.7,17.9,17.4   C217.5,384.9,209.7,392.9,199.7,393z"></path>	<path class="st0" d="M185.4,220.6c2.7-0.2,3.6-2.1,4.4-4.3c5.6-16.4,11.1-32.8,16.7-49.2c1.9-5.6,3.8-11.2,5.7-16.8   c0.5-1.3,0.5-2.5-0.9-3.3c-3-1.7-6.9-0.3-7.9,2.9c-4,12.1-7.9,24.3-11.9,36.5c-2.2,6.8-4.5,13.6-6.7,20.5c-0.2-0.3-0.3-0.6-0.4-0.9   c-5.5-16.9-10.9-33.8-16.4-50.7c-0.7-2.2-1.4-4.5-2.3-6.6c-0.9-2.1-4.2-3-6.8-2c-1.9,0.7-2.1,1.7-1.1,4.7c5.1,15,10.2,30,15.3,45   c2.3,6.7,4.6,13.5,6.9,20.2C181,220,182.3,220.9,185.4,220.6z"></path>	<path class="st0" d="M140.5,146.5c-3,0.1-4,1.3-4,4.7c0,21.5,0,43,0,64.6c0,0.7-0.1,1.5,0.2,2c0.6,1,1.2,2.2,2.1,2.6   c3.7,1.5,6.4-0.4,6.4-4.3c0-10.8,0-21.6,0-32.4c0-10.9,0-21.7,0-32.6C145.1,147.7,143.8,146.4,140.5,146.5z"></path>	<path class="st0" d="M165.9,247.8c0-1.7,0.1-3.5,0-5.2c-0.1-2.1-1.6-3.6-3.5-3.5c-2,0.1-3.3,1.5-3.4,3.7c0,3.4,0,6.8,0,10.2   c0,2.3,1.4,3.8,3.5,3.8c2,0,3.5-1.7,3.5-4C166,251.1,166,249.5,165.9,247.8C166,247.8,166,247.8,165.9,247.8z"></path>	<path class="st0" d="M199.6,229.1c-1.8,0-3.4,1.6-3.4,3.5c0,1.9,1.5,3.5,3.4,3.5c2,0,3.6-1.6,3.5-3.5   C203.1,230.7,201.5,229.1,199.6,229.1z"></path>	<path class="st0" d="M199.5,259.5c-1.8,0-3.3,1.7-3.3,3.6c0,1.9,1.5,3.4,3.4,3.4c2,0,3.5-1.6,3.4-3.6   C203,261.1,201.3,259.5,199.5,259.5z"></path>	<path class="st0" d="M279,232.9c-0.1,2,1.4,3.6,3.4,3.6c1.9,0,3.4-1.5,3.4-3.4c0-1.9-1.4-3.4-3.3-3.5   C280.6,229.6,279,231,279,232.9z"></path>	<path class="st0" d="M77.3,78.8c-0.8,1-1.7,1.8-2.1,2.7c-0.6,1.5,0.2,2.7,1.5,3.3c1.3,0.6,2.6,0.4,3.5-0.9c1-1.3,0.4-2.2-0.6-3.1   C78.9,80.2,78.2,79.6,77.3,78.8z"></path>	<path class="st0" d="M258.9,195.8c0,1.6,1.1,2.9,3,3.4c0.8-0.8,1.9-1.5,2.2-2.4c0.4-1.2-1.5-3.4-2.6-3.5"></path></g></svg>