<svg xmlns="http://www.w3.org/2000/svg" xmlns:xlink="http://www.w3.org/1999/xlink" id="Layer_1" x="0px" y="0px" viewBox="0 0 400 400" style="enable-background:new 0 0 400 400;" xml:space="preserve"><style type="text/css">	.st0{fill:#041C51;}	.st1{fill:#FFFFFF;}</style><g>	<path class="st0" d="M298.5,80c-65.7,0-131.3,0-197,0C88.3,80,80,88.2,80,101.5c0,47,0,94,0,141c0,13.2,8.3,21.4,21.6,21.5   c21.2,0,42.3,0,63.5,0c1.6,0,3.2,0,5.5,0c-2.8,9.4-5.6,18.1-7.9,26.9c-1,3.8-2.5,5.7-6.8,5.2c-3.3-0.4-6.7-0.1-10,0   c-5,0.1-6.5,1.8-5.7,6.9c1.3,9.3,9.3,16.9,18.8,17c27.3,0.2,54.7,0.2,82,0c10-0.1,18.2-8.3,19-17.9c0.3-3.9-1.2-6-5.3-6   c-4.2,0.1-8.3,0.1-12.5-0.1c-1.2-0.1-3.2-0.8-3.5-1.7c-3.2-9.8-6-19.7-9.1-29.8c1.2-0.3,1.5-0.4,1.9-0.4c22.3,0,44.7,0,67-0.1   c13.4,0,21.6-8.2,21.6-21.5c0-47,0-94,0-141C320,88.3,311.7,80,298.5,80z M100.8,88c66.2-0.1,132.3-0.1,198.5,0   c7.7,0,12.7,4.8,12.7,12.4c0.1,40.3,0,80.7,0,121c0,0.6-0.2,1.3-0.3,2.2c-74.4,0-148.6,0-223.3,0c0-15.6,0-31.3,0-47.3   c19.7,0,39.4,0,59.4,0c0.1,0.9,0.2,1.7,0.2,2.5c0.4,8.7,4.8,13.2,13.5,13.2c23.3,0.1,46.7,0.1,70,0c3.3,0,4.8,0.6,5.9,4.2   c3.9,13.2,16.5,21.3,29.9,19.7c12.7-1.5,23.2-12,24.6-24.7c1.5-13.5-6.7-25.8-19.8-30c-1.2-0.4-2.5-0.8-4-1.3c0-11.1,0-22.1,0-33.1   c0-10.5-4.3-14.9-14.8-14.9c-21.3,0-42.7,0.1-64-0.1c-2.7,0-5.6-0.8-8-1.9c-8.4-4-16.6-8.4-25.1-12.3c-2.2-1-5.3-1.5-7.5-0.7   c-18.6,7.1-38,7.8-57.5,7c-0.8,0-1.6-0.1-2.4-0.1C86.8,94.4,91.7,88,100.8,88z M156.2,140.3c34.4,0,68.7,0,103.5,0   c0,2.7,0,4.9,0,7.4c-34.6,0-68.9,0-103.5,0C156.2,145.2,156.2,142.9,156.2,140.3z M156.2,130.7c-0.7-10.5-0.4-10.7,9.9-10.7   c27.8,0,55.6,0,83.4,0c10.9,0,11.1,0.3,10.2,11.6c-34.3,0-68.7,0-103.3,0C156.2,131,156.2,130.9,156.2,130.7z M264.3,168   c10.9,0.1,19.8,9.3,19.7,20.3c-0.1,11-9.1,19.7-20.3,19.7c-10.7,0-19.7-9-19.7-19.8C244,176.9,253,167.9,264.3,168z M183.2,156.3   c25.4,0,50.7,0,76.1,0c0.8,3.6,0.8,3.7-2.3,4.6c-10.2,3-17,9.6-19.9,19.8c-0.7,2.7-2,3.3-4.5,3.3c-23.5-0.1-47,0-70.4-0.1   c-5.7,0-6.5-1.3-5.7-7.9c3.6,0,7.2,0,10.8,0C179.8,176,185.6,168.9,183.2,156.3z M88.3,112c5,0,10.1-0.3,15.2,0.1   c14,0.9,27.6-0.6,40.7-5.7c5.3-2.1,9.9-1.7,14.5,1.5c2,1.3,4.3,2.2,6.4,3.3c-0.1,0.3-0.2,0.6-0.3,0.9c-1.4,0-2.9,0-4.3,0   c-7.6,0.3-12.4,5-12.5,12.6c-0.1,7.6,0,15.2,0,23.1c-2.8,0.2-5.1,0.3-7.7,0.4c0,2.5,0,4.9,0,7.8c7.9,0,15.6,0,23.4,0   c1.7,0,3.3,0,5,0c4.1-0.1,7,1.6,7.1,5.9c0.1,4.3-2.8,6.1-6.9,6.1c-7.2,0-14.3,0-21.5,0c-18.3,0-36.7,0-55,0c-1.3,0-2.6,0-4.2,0   C88.3,149.3,88.3,131,88.3,112z M251,304.3c-2.3,5.3-6,7.6-11.1,7.6c-26.6,0.1-53.3,0.1-79.9,0c-5.1,0-8.7-2.5-11.2-7.6   C183,304.3,216.7,304.3,251,304.3z M230.5,295.8c-20.5,0-40.5,0-61,0c3-10.2,5.9-20.1,9-29.9c0.3-0.9,2.3-1.8,3.5-1.8   c12-0.1,24-0.2,36,0c1.2,0,3.2,0.9,3.5,1.8C224.6,275.7,227.5,285.6,230.5,295.8z M312,242.6c-0.1,8.6-4.8,13.3-13.3,13.3   c-20.8,0.1-41.6,0-62.5,0c-44.1,0-88.3,0-132.4,0c-12,0-15.8-3.9-15.8-15.8c0-2.5,0-5,0-7.8c74.7,0,149,0,224,0   C312,236,312.1,239.3,312,242.6z"></path>	<path class="st0" d="M195.6,164.2c-2.6,0-4.9,0-7.4,0c0,2.6,0,5,0,7.6c2.5,0,4.8,0,7.4,0C195.6,168.9,195.6,166.6,195.6,164.2z"></path>	<path class="st0" d="M211.6,164.2c-2.6,0-4.9,0-7.4,0c0,2.6,0,5,0,7.6c2.5,0,4.8,0,7.4,0C211.6,168.9,211.6,166.6,211.6,164.2z"></path>	<path class="st0" d="M227.8,164.2c-2.5,0-4.8,0-7.4,0c0,2.7,0,5.1,0,7.4c2.7,0,5.1,0,7.4,0C227.8,168.9,227.8,166.7,227.8,164.2z"></path>	<path class="st0" d="M257,198.4c1.5,0.9,4.8,1,6,0c5.5-4.7,10.6-10,16.3-15.5c-2.4-2-4.1-3.5-7-6.1c-4,4.5-8,9-12,13.5   c-2-1.9-3.6-3.3-5.3-4.8c-1.9,1.9-3.5,3.6-5.9,6.1C251.7,193.9,254.1,196.6,257,198.4z"></path></g></svg>