<svg xmlns="http://www.w3.org/2000/svg" xmlns:xlink="http://www.w3.org/1999/xlink" id="Layer_1" x="0px" y="0px" viewBox="0 0 400 400" style="enable-background:new 0 0 400 400;" xml:space="preserve"><style type="text/css">	.st0{fill:#041C51;}	.st1{fill:#FFFFFF;}</style><g>	<path class="st0" d="M182.9,187.8c0-1.2,0-2.3,0-3.6c-0.3-15.7-12-27.9-27.8-29.1c-0.7-0.1-1.4-0.1-2.1-0.1   c-14.4,0-26.7,10.8-28.8,25.1c-0.8,5.3-0.7,10.7-0.5,15.3c0.5,11.5,7.5,21.1,17.7,25.5c-3.1,0.6-6.1,1.4-9.1,2.4   c-12.6,4.1-25.2,8.6-37.3,13c-5,1.8-10.1,3.7-15.1,5.5c0-9.7,0-19.4,0-29l0-14.8l-0.1-14.2l0-0.3c0-0.4,0.1-1,0.1-1.7   c0-0.8,0-1.6,0-2.3c0-2.1,0-4.2,0-6.4c-0.2-8.8-7-15.8-15.7-16.2c-0.2,0-0.5,0-0.7,0c-8.6,0-15.7,6.7-16.3,15.4   c-0.2,2.6-0.1,5.2-0.1,7.7c0,1,0,2,0,3.1l0.2,13.8l0,0.2c-0.1,0.4-0.2,1.1-0.2,2c0,5.2,0,10.4,0,15.6c0,12.5-0.1,25.5,0.1,38.3   c0.1,14.9,12.4,26.9,27.4,26.9c2.6,0,5.2-0.4,7.7-1.1c4.7-1.4,9.3-2.8,13.8-4.3c1.8-0.6,3.6-1.2,5.4-1.7   c-0.1,6.2-0.2,12.5-0.2,18.7l-0.1,5.2c0,0.6,0,1.3,0,1.9l0,0.8l0.2,8.9l8.9,0.2h69.4l14.6,0.1h12.6l9.1-8.7c0-0.2,0-0.4,0-0.6   c0-0.5,0.1-1.1,0.1-1.7c0-2.6,0-5.1,0-7.7c0-6,0-12.3,0-18.5c-0.3-22.7-15.3-42.7-36.6-48.8c-4-1.1-8.1-2-12.2-2.5   c7.4-4.1,13.2-11.3,14.9-20c0.6-2.7,0.7-5.3,0.8-7.6c0-0.9,0.1-1.7,0.1-2.5l-0.6-0.7h0.4C182.9,188.8,182.9,188.3,182.9,187.8z    M56.2,172.8c0.3-4,3.8-7,7.5-6.8c3.9,0.2,6.9,3.3,7,7.3c0.1,2.8,0,5.7,0,8.5c0,0.3-0.1,0.6-0.1,1.1c-4.8,0-9.5,0-14.5,0   C56.1,179.5,55.9,176.1,56.2,172.8z M176.9,231.3c17.6,5,29.8,21.8,30,40.1c0.1,8.7,0,17.4,0,26.1c0,0.5,0,1.1-0.1,1.8   c-4.3,0-8.3,0-12.6,0c0-0.9,0-1.8,0-2.6c0-9.7,0-19.3,0-29c0-5-2.9-8.3-7.3-8.3c-4.3,0-7.3,3.4-7.3,8.3c0,9.6,0,19.2,0,28.7   c0,0.9,0,1.8,0,2.8c-23.1,0-46.1,0-69.4,0c0-0.9,0-1.7,0-2.6c0.1-8.4,0.2-16.7,0.3-25.1c0.1-6.7-4.3-10-10.7-8   c-6.7,2.1-13.4,4.4-20.2,6.3c-11.6,3.4-23.3-5.1-23.5-17.2c-0.2-17.9-0.1-35.9,0-53.8c0-0.2,0.1-0.5,0.1-0.9c4.7,0,9.5,0,14.5,0   c0,0.9,0,1.7,0,2.6c0,14.1,0,28.3,0,42.4c0,7.1,4.5,10.2,11.1,7.9c17.7-6.3,35.4-13,53.3-18.8C148.8,227.6,163,227.3,176.9,231.3z    M173.2,198.3c-2,9.9-11.4,17-21.1,16.2c-10.7-0.9-18.9-9-19.3-19.4c-0.2-4.5-0.3-9.1,0.4-13.6c1.5-10.4,11.1-18,21.1-17.3   c11.1,0.8,19.2,9.2,19.4,20.2c0,1.6,0,3.2,0,4.9c0.1,0,0.1,0,0.2,0C173.7,192.3,173.8,195.4,173.2,198.3z"></path>	<path class="st0" d="M276.9,138.1c0-12.9,0-26.5,0-41.7c0-9.3-6.3-15.6-15.5-15.6c-13.2,0-26.4,0-39.5,0c-12.8,0-25.7,0-38.5,0   c-9.3,0-15.6,6.2-15.7,15.4c0,13.2,0,26.9,0,41.7c0,9.4,6.2,15.5,15.8,15.6c1.7,0,3.4,0,5.1,0c0,0,8.4,0,8.4,0   c0,3.6,0.3,35.2,0.3,35.2s33.2-29.7,38.3-34.8c0.4-0.4,0.5-0.4,1-0.4c0,0,0,0,0,0c3.6,0,7.5,0.1,11.9,0.1c4.4,0,8.8,0,13.2,0   C270.5,153.5,276.9,147.2,276.9,138.1z M236.6,144.5c-3.1,0-5.5,1-7.6,3.1c-6.8,6.9-13.7,13.6-20.6,20.4c-0.6,0.6-1.3,1.2-2.4,2.3   c0-6.1,0-11.4,0-16.7c0-6.6-2.6-9.1-9.2-9.1c-4.5,0-8.9,0-13.4,0c-4.5,0-6.7-2.1-6.7-6.5c0-13.9,0-27.8,0-41.6   c0-4.3,2.2-6.3,6.6-6.3c26,0,52,0,78,0c4.2,0,6.4,2.2,6.4,6.5c0,13.9,0,27.8,0,41.6c0,4.1-2.2,6.3-6.3,6.4   C253.2,144.5,244.9,144.6,236.6,144.5z"></path>	<path class="st0" d="M209.8,110c-5.2-0.1-10.4,0-15.6,0c-4.5,0-7.8,3.2-7.7,7.3c0,4.1,3.3,7.2,7.8,7.3c2.5,0,5,0,7.5,0   c2.7,0,5.4,0.1,8,0c4.3-0.1,7.5-3.4,7.5-7.4C217.4,113.2,214.1,110,209.8,110z"></path>	<path class="st0" d="M250.8,110c-2.7-0.1-5.4,0-8,0c-2.8,0-5.5-0.1-8.3,0c-4.1,0.1-7.2,3.1-7.3,7c-0.1,4,2.8,7.4,6.9,7.6   c5.7,0.2,11.4,0.2,17,0c4-0.1,6.9-3.6,6.9-7.4C257.9,113.2,254.9,110.1,250.8,110z"></path>	<path class="st0" d="M168.3,344.9c-86.3,0-156.2-69.9-156.2-156.2S82,32.5,168.3,32.5c81.5,0,148.4,62.4,155.6,142.1   c5.5,4.6,9.9,10.4,12.7,17.1c0-1,0-2,0-3c0-93-75.4-168.3-168.3-168.3C75.4,20.4,0,95.7,0,188.7S75.4,357,168.3,357   c26.6,0,51.8-6.2,74.2-17.2c0-1.3,0-2.6,0-4c0-0.1,0-0.2,0-0.2c-1.3-2.8-2-5.6-2.3-8.2C218.7,338.6,194.3,344.9,168.3,344.9z"></path>	<path class="st0" d="M399.9,296.3c-0.6-7.9-0.8-15.8-1.8-23.7c-1.9-14.4-4.1-28.8-6.3-43.2c-0.8-5.3-3.8-9.4-9-11.5   c-7.7-3.1-17.9,0.4-22.4,7.9c-6.5,10.8-13.3,21.4-22.1,30.5c-2.8,2.9-5.8,5.7-8.7,8.6c-1.4-1.3-2.5-2.3-3.6-3.3   c-0.6-0.5-1.1-1.1-1.7-1.6c-9.2-9.1-16.9-19.4-23.4-30.5c-2.7-4.6-5.8-8.7-10.9-10.9c-9.6-4.1-20.8-1-23,11.6   c-0.8,4.5-1.7,9-2.4,13.6c-2.7,16.5-4.6,33-5.4,49.7c-0.2,3.7-0.6,7.6,1.2,11c1,1.9,1.1,3.7,1.1,5.8c-0.1,19.6-0.1,39.2,0,58.7   c0,1.2,0.1,2.4,0.4,3.6c1.3,4.7,5.8,7.5,11.2,7c5-0.5,8.5-4.1,8.9-9c0.1-1,0.1-2,0.1-3c0-17.5,0-35.1,0-52.6c0-1-0.1-2,1.2-2.5   c6.9-2.9,10.2-8.2,10.6-15.6c0.6-9.1,1.3-18.2,2.1-27.3c0.2-2.9,0.8-5.7,1.2-8.9c0.8,0.9,1.3,1.5,1.8,2c5.8,6,11.7,11.9,17.5,17.9   c1.6,1.6,3.3,3.1,4.4,5c3.3,5.8,13.8,5.7,17.2,0c1.1-1.9,2.8-3.5,4.4-5.1c3.7-3.7,7.6-7.2,11.2-10.9c2.7-2.8,5.2-5.7,8.1-8.9   c0.2,1.1,0.3,1.8,0.4,2.5c1,11.4,2,22.8,3,34.2c0.6,6.7,3.6,11.7,9.7,14.6c1.7,0.8,2.2,1.6,2.2,3.4c-0.1,18.2-0.1,36.5,0,54.7   c0,5.3,4.1,9.2,9.5,9.5c6,0.3,10.5-3.1,10.9-8.6c0.4-6.1,0.3-12.1,0.3-18.2c0-14.9-0.1-29.8-0.2-44.7c0-0.5,0.1-1.1,0.4-1.6   C399.7,303.3,400.2,299.9,399.9,296.3z M392.7,303.5c-1,1.7-1.2,3.5-1.2,4.7c0,6.1,0.1,12.2,0.1,18.3c0,8.7,0.1,17.6,0.1,26.4   c0,0.9,0,1.7,0,2.6c0,5,0,10.3-0.3,15.3c-0.2,2.6-2.7,3-4.2,3c0,0,0,0,0,0c-0.1,0-0.3,0-0.4,0c-1.8-0.1-3.8-1.1-3.8-3.6   c-0.1-17.5-0.1-35.4,0-54.7c0-4.2-1.8-7-5.6-8.8c-4-1.9-5.9-4.9-6.3-9.7c-0.7-9-1.5-18.1-2.3-27l-0.6-7.2c-0.1-0.7-0.2-1.3-0.3-1.9   c0-0.3-0.1-0.6-0.2-1l-10.3-3.1c-0.9,1-1.8,2-2.7,3c-1.8,2-3.5,4-5.2,5.7c-2,2-4.1,4-6.1,5.9c-1.7,1.6-3.4,3.3-5.1,4.9l-0.4,0.4   c-1.6,1.6-3.5,3.5-4.9,5.9c-0.5,0.8-1.9,1.4-3.5,1.4c-1.5,0-3-0.5-3.4-1.3c-1.3-2.2-2.9-3.9-4.4-5.4c-0.3-0.3-0.6-0.6-0.9-0.9   c-3.8-4-7.8-8-11.5-11.8c-2-2-4-4-5.9-6.1c-0.2-0.2-0.5-0.5-0.8-0.9c-0.2-0.3-0.5-0.6-0.8-0.9l-10.3,3.1c-0.1,1-0.3,2-0.4,3   c-0.3,2.1-0.6,4.2-0.8,6.3c-0.8,8.9-1.5,18.2-2.1,27.4c-0.3,5.5-2.4,8.7-7,10.5c-2.3,0.9-5,3.1-4.9,7.8l0,0.2c0,17.5,0,35.1,0,52.6   c0,0.9,0,1.7-0.1,2.5c-0.2,2-1.5,3.3-3.6,3.5c-0.2,0-0.5,0-0.7,0c-1,0-3.5-0.3-4.2-2.7c-0.1-0.4-0.2-1-0.2-2l0-4.1   c0-17.9-0.1-36.4,0-54.5c0-2.6-0.2-5.5-1.7-8.5c-0.9-1.8-0.8-4.3-0.6-7.1l0.1-0.9c0.8-16.2,2.6-32.7,5.4-49   c0.4-2.6,0.9-5.2,1.4-7.8c0.3-1.9,0.7-3.8,1-5.8c1.2-7,5.7-8.4,9.2-8.4c1.8,0,3.8,0.4,5.7,1.2c3,1.3,5.4,3.7,8.1,8.4   c7.1,12.3,15.1,22.7,24.4,31.8l0.4,0.4c0.4,0.4,0.9,0.9,1.4,1.3c0.8,0.7,1.5,1.4,2.4,2.2l1.2,1.1l8.2-0.2c0.9-0.9,1.8-1.8,2.7-2.7   c2-1.9,4.1-3.9,6.1-6c9.4-9.7,16.5-20.9,22.9-31.5c2.2-3.7,6.8-6.1,11.3-6.1c1.4,0,2.7,0.2,3.8,0.7c3.1,1.2,4.8,3.4,5.3,6.9   c2.2,13.8,4.5,28.5,6.3,43c0.7,5.4,1,10.7,1.3,16.4c0.1,2.3,0.3,4.6,0.4,7C394.2,299.5,393.8,301.6,392.7,303.5z"></path>	<path class="st0" d="M271.3,195.1c-0.3,10.8,8.4,19.7,19.4,19.9c10.6,0.2,19.6-8.5,19.7-19.4c0.2-10.8-8.4-19.6-19.4-19.9   C280.5,175.5,271.6,184.2,271.3,195.1z M304.5,195.5c-0.1,7.5-6.1,13.5-13.4,13.5c0,0-0.2,0-0.3,0c-7.7-0.2-13.8-6.4-13.6-13.8   c0.2-7.5,6.2-13.6,13.3-13.6c0.1,0,0.2,0,0.3,0C298.7,181.9,304.7,188,304.5,195.5z"></path>	<path class="st0" d="M368.2,215c10.7,0,19.7-9,19.6-19.8c-0.1-10.7-8.9-19.5-19.6-19.6c-10.7,0-19.7,9-19.6,19.8   C348.6,206.2,357.5,215,368.2,215z M358.5,185.8c2.6-2.6,6-4.1,9.6-4.1c7.5,0,13.6,6.1,13.7,13.7c0,3.6-1.4,7-4,9.6   c-2.6,2.7-6.1,4.1-9.7,4.1h0c-7.3,0-13.6-6.3-13.6-13.7C354.5,191.8,355.9,188.4,358.5,185.8z"></path>	<path class="st0" d="M107.7,143.8c0.2-0.1,0.4-0.2,0.5-0.3c0.9-0.9,1.8-1.8,2.7-2.7c3.7-3.7,7.4-7.4,11.1-11.1c6-6,12-12,17.9-17.9   c1.2-1.2,2.4-2.4,3.6-3.6c0.9-0.9,1.3-1.9,1.2-3.1c-0.1-1.2-0.5-2.2-1.2-3.2c-1.4-2.2-3.2-4-5.2-5.6c-1.2-0.9-2.6-1.7-4.1-2   c-1.5-0.3-2.8,0-4,1.1c-5.6,5.6-11.2,11.2-16.8,16.9c-6.3,6.3-12.6,12.7-19,19c-0.1,0.1-0.2,0.3-0.3,0.5c-0.6,1.7-1.2,3.5-1.8,5.2   c-0.9,2.6-1.8,5.1-2.7,7.7c-0.7,2-1.4,4-2.1,6.1c0.1,0,0.2,0,0.2-0.1C94.6,148.4,101.1,146.1,107.7,143.8z M130.6,98.8   c0.6-0.6,1.2-1.2,1.8-1.8c0.3-0.3,0.6-0.4,1-0.3c0.6,0.3,1.3,0.5,1.9,0.8c2.4,1.4,4.5,3.1,6.2,5.4c0.4,0.5,0.6,1.2,0.8,1.8   c0.2,0.5,0,0.9-0.4,1.3c-1.5,1.6-3.1,3.1-4.7,4.7c0,0-0.1,0.1-0.1,0.1c-3.1-3.1-6.2-6.2-9.3-9.3C128.7,100.7,129.7,99.8,130.6,98.8   z M126,103.6c3,3,6.1,6.1,9.2,9.2c-9.6,9.6-19.3,19.2-28.9,28.9c-3.1-3-6.2-6.1-9.4-9.1C106.6,122.9,116.3,113.2,126,103.6z    M95.8,135.2c2.5,2.5,5,4.9,7.6,7.4c-3.8,1.3-7.6,2.7-11.5,4C93.2,142.8,94.5,139,95.8,135.2z"></path>	<path class="st0" d="M56.9,108.7c-0.1,0.2-0.1,0.3-0.3,0.3c-0.9,0.1-1.8,0.2-2.6,0.3c-2.5,0.2-4.1,2-4.1,4.5c0,2.3,0,4.6,0,6.9   c0,2.1,1.7,3.9,3.7,4.1c1,0.1,2,0.2,3,0.4c0.1,0,0.3,0.2,0.3,0.3c0.6,1.4,1.2,2.9,1.8,4.3c0.1,0.2,0.1,0.4-0.1,0.6   c-0.7,0.8-1.3,1.6-1.9,2.5c-1.3,1.6-1.2,4,0.2,5.5c1.7,1.7,3.4,3.5,5.1,5.2c1.5,1.5,3.9,1.5,5.6,0.2c0.8-0.7,1.7-1.3,2.5-2   c0.2-0.2,0.3-0.2,0.6-0.1c1.4,0.6,2.9,1.2,4.3,1.7c0.3,0.1,0.4,0.3,0.4,0.5c0.1,1,0.2,2.1,0.3,3.1c0.2,1.9,1.7,3.6,3.6,3.8   c1.5,0.1,3,0.1,4.5,0.1c0.1,0,0.2-0.1,0.2-0.1c0.3-0.8,0.6-1.6,0.9-2.5c-0.3,0-0.5,0-0.7,0c-1.4,0-2.7,0-4.1,0   c-1.1,0-1.8-0.6-1.9-1.7c-0.2-1.6-0.4-3.2-0.5-4.8c0-0.3-0.1-0.4-0.4-0.4c-2.5-0.6-4.8-1.5-7-2.9c-0.2-0.1-0.3-0.1-0.5,0.1   c-1.3,1-2.6,2-3.8,3c-0.8,0.6-1.6,0.6-2.3-0.1c-1.6-1.6-3.2-3.2-4.7-4.8c-0.8-0.8-0.8-1.6-0.1-2.4c1-1.2,2-2.5,2.9-3.7   c0.1-0.2,0.2-0.3,0.1-0.5c-1.3-2.2-2.3-4.5-2.9-6.9c0-0.1-0.2-0.3-0.3-0.3c-1.5-0.2-3.1-0.4-4.6-0.5c-1.1-0.1-1.7-0.9-1.7-1.8   c0-2.3,0-4.5,0-6.8c0-0.9,0.6-1.5,1.5-1.6c1.5-0.2,3.1-0.4,4.6-0.5c0.3,0,0.4-0.2,0.5-0.5c0.6-2.4,1.5-4.6,2.8-6.7   c0.1-0.2,0.1-0.3,0-0.5c-0.9-1.2-1.9-2.3-2.8-3.5c-0.6-0.8-0.6-1.7,0.1-2.4c1.5-1.5,3.1-3.1,4.6-4.6c0.9-0.9,1.6-0.9,2.6-0.1   c1.1,0.9,2.2,1.8,3.3,2.7c0.2,0.2,0.3,0.2,0.5,0c2.2-1.4,4.5-2.3,7-2.9c0.4-0.1,0.4-0.3,0.5-0.6c0.2-1.4,0.3-2.9,0.5-4.3   c0.1-0.9,0.8-1.6,1.7-1.6c0.5,0,1.1,0,1.6,0c1.7,0,3.4,0,5.1,0c1.1,0,1.7,0.6,1.9,1.6c0.2,1.4,0.4,2.8,0.5,4.3   c0,0.4,0.2,0.5,0.5,0.6c1.3,0.4,2.6,0.8,3.9,1.3c1.2,0.5,2.4,1.2,3.6,1.8c1.2-1,2.5-2,3.8-3c0.8-0.6,1.6-0.6,2.3,0.1   c1.6,1.6,3.2,3.2,4.8,4.8c0.7,0.7,0.8,1.6,0.1,2.4c-1,1.2-2,2.5-3,3.7c-0.2,0.2-0.2,0.3,0,0.6c1.1,2,2,4.1,2.6,6.3   c0.2,0.8,0.2,0.8,1,0.9c0.1,0,0.2,0,0.3,0c0.1,0,0.2,0,0.3-0.1c0.7-0.7,1.5-1.4,2.3-2.2c-0.5-0.1-0.9-0.1-1.3-0.2   c-0.3,0-0.4-0.1-0.4-0.3c-0.5-1.4-1.1-2.8-1.7-4.3c-0.1-0.2-0.1-0.4,0.1-0.5c0.7-0.8,1.3-1.7,2-2.5c1.3-1.7,1.2-4-0.3-5.5   c-1.7-1.7-3.4-3.4-5.1-5.1c-1.5-1.5-3.9-1.6-5.6-0.3c-0.7,0.6-1.4,1.1-2.1,1.7c-0.3,0.2-0.5,0.3-0.8,0.1c-1.4-0.8-2.9-1.4-4.5-1.9   c-0.2-0.1-0.3-0.2-0.4-0.4c-0.1-0.9-0.2-1.8-0.3-2.7c-0.2-2.2-2-3.9-4.2-3.9c-2.4,0-4.8,0-7.2,0c-1.9,0-3.7,1.5-4,3.4   c-0.2,1-0.3,2.1-0.4,3.1c0,0.3-0.1,0.4-0.4,0.5c-1.5,0.6-3,1.2-4.5,1.9c-0.3,0.1-0.4,0.1-0.6-0.1c-0.7-0.6-1.4-1.1-2-1.6   c-1.8-1.4-4.1-1.3-5.8,0.3c-1.6,1.6-3.2,3.2-4.8,4.8c-1.6,1.6-1.7,4-0.3,5.8c0.6,0.7,1.1,1.5,1.7,2.2c0.1,0.2,0.1,0.3,0.1,0.5   C58.1,105.9,57.5,107.3,56.9,108.7z"></path>	<path class="st0" d="M96.9,117.1c-0.1-7.2-6.1-13.3-13.4-13.3c-7.1-0.1-13.9,5.7-13.6,14.1c0.2,7.2,6.2,13,13.5,13   C90.8,130.9,97.1,124.7,96.9,117.1z M83.3,128.2c-6.1,0-10.9-5-10.9-11.1c0-5.5,4.6-10.8,11-10.8c6.1,0,11.1,5.1,10.9,11.2   C94.2,123.5,89.3,128.2,83.3,128.2z"></path></g></svg>