<svg xmlns="http://www.w3.org/2000/svg" xmlns:xlink="http://www.w3.org/1999/xlink" id="Layer_1" x="0px" y="0px" viewBox="0 0 400 400" style="enable-background:new 0 0 400 400;" xml:space="preserve"><style type="text/css">	.st0{fill:#1D1A4E;}</style><path class="st0" d="M199.9,368.9c-4.9,0-9.7-1-14.8-3.1c-24.9-10.3-47.3-25.7-68.5-47.1c-22-22.2-38.4-48.4-48.7-77.9 c-8-22.7-11.9-46.9-11.9-74.1V97.4c0-5.6,0.5-6.3,5.6-7.7c46.6-13,91.6-32,133.6-56.6c0.7-0.4,1.3-0.7,2-1.1 c0.5-0.3,0.9-0.5,1.4-0.8h2.4c38.3,22.4,78.6,40.3,119.6,53.4c3.7,1.2,7.5,2.3,11.2,3.4c2.5,0.7,4.9,1.5,7.4,2.2 c3.6,1.1,4.4,2.1,4.4,5.6c0,9.4,0.1,19,0.2,28.3c0.2,19.3,0.4,39.3-0.6,58.9c-3.1,56.6-26.2,105.1-68.6,144 c-19,17.4-38.6,30.1-59.9,38.8C209.6,367.9,204.8,368.9,199.9,368.9z M199.7,41.5c-1.3,0-2.7,0.4-4.1,1.2 C156,65.6,113.7,83.6,69.9,96.3c-3.8,1.1-5.5,3.3-5.5,7.2c0,10.6,0,21.3,0,31.7c0,10.4,0,21.2,0.1,31.8c0.1,22.7,2.9,42.8,8.4,61.4 c9.7,33,27.3,62.2,52.1,86.6c17.2,16.9,35.9,30.1,55.6,39.5c8.4,4,13.6,6,19,6c5.2,0,10.2-1.8,18.7-5.7l0.1-0.1l0.1-0.1 c0.3-0.2,0.6-0.3,0.9-0.5c0.4-0.2,0.8-0.4,1.1-0.6c38.5-19.4,68.5-48.1,89.3-85.2c15.2-27.1,23.5-56.4,24.6-87.1 c0.6-17.4,0.6-35.1,0.6-52.3c0-8.6,0-17.4,0-26.1c0-1,0-2-0.1-2.9l-0.2-1.4l-1.5-0.9c-0.5-0.3-0.9-0.5-1.5-0.7 c-2.7-0.9-5.4-1.7-8.1-2.5c-2.7-0.9-5.5-1.7-8.2-2.6c-39-12.6-76.5-29.1-111.4-49.1C203,42.2,201.5,41.5,199.7,41.5z"></path><path class="st0" d="M176.7,265.6c-3.6,0-7.1-1-10.6-3c-1.6-0.9-3.1-2-4.7-3.6c-16.8-16.6-29.6-29.3-41.4-41.3 c-4.7-4.8-7.1-10.7-6.8-16.6c0.3-5.7,3.3-11.1,8.2-15.1c3.4-2.7,7.8-4.3,12.5-4.3c4.9,0,9.4,1.7,12.7,4.7c6.3,5.8,12.5,12,18.4,18 c2.2,2.2,4.4,4.4,6.5,6.6c0.3,0.4,0.6,1,1,1.7c0.2,0.3,0.3,0.6,0.5,0.9l1.1,1.9l4.8-1l0.7-0.9c0.3-0.4,0.6-0.8,0.9-1.3 c0.4-0.7,0.9-1.3,1.2-1.7c7.6-7.6,15.2-15.2,22.8-22.8c14.9-14.9,30.3-30.3,45.4-45.4c4.9-4.9,10-7.3,15.6-7.3c2.4,0,5,0.5,7.6,1.4 c6,2.1,10.5,7,12.4,13.4c1.9,6.3,0.7,13-3.1,18c-1,1.4-2,2.5-3,3.5l-87,87C187.7,263.1,182.3,265.6,176.7,265.6 C176.7,265.6,176.7,265.6,176.7,265.6z M133.6,190.3c-3.1,0-6,1.2-8.2,3.4c-2.3,2.3-3.6,5.4-3.5,8.7c0.1,3.2,1.5,6.3,4,8.8 c13.8,13.9,27.9,28,41.8,41.8c2.6,2.6,5.6,4,8.8,4c3.2,0,6.3-1.4,9-4.1c2.4-2.4,4.8-4.8,7.2-7.1c1.2-1.2,2.4-2.4,3.6-3.6 c6.4-6.4,12.8-12.8,19.3-19.3c18.8-18.8,38.2-38.2,57.2-57.4c1.5-1.5,2.5-3.2,3.3-4.5c0.3-0.6,0.8-1.3,1-1.5l0.8-0.9v-1.2 c0-9.8-5.8-12.6-9.2-13.4c-0.9-0.2-1.9-0.4-2.9-0.4c-4.3,0-7.3,2.5-9.7,4.9l-74.4,74.4c-2.1,2.1-3.8,3.2-5,3.2s-2.8-1-5-3.2 c-9.4-9.4-19.1-19.1-28.8-28.7C140.2,191.8,136.9,190.3,133.6,190.3z"></path><path class="st0" d="M88.8,148.4c-3.8,0-4.3-3.8-4.3-5.5c-0.1-2.8,0-5.7,0-8.4c0-1.4,0-2.9,0-4.3c0-1.5,0-2.9,0-4.4 c0-2.8,0-5.7,0-8.6c0.1-3.1,1-4.4,3.8-5.3c8-2.9,16-5.7,23.8-8.4c4.8-1.7,9.6-3.4,14.4-5.1c0.9-0.3,1.7-0.5,2.5-0.5 c1.3,0,3,0.4,3.8,2.5c1,2.5-0.3,4.8-3.4,6.1c-9.3,3.5-19.4,7.1-31.1,11.2c-2.7,0.9-5.5,2.5-5.3,7.3c0.2,4.2,0.2,8.6,0.1,12.8 c0,1.7,0,3.5,0,5.2c0,2-0.5,5.3-4.2,5.4L88.8,148.4z"></path><path class="st0" d="M238.4,318.2c-1,0-1.9-0.5-2.8-1.4c-0.8-1-1.2-2-1.1-3c0.1-1.4,1-2.8,2.6-4.1c9.4-7.7,20.3-17.2,29.7-28.9 c3.1-3.8,6-7.8,8.8-11.7l1.9-2.6c1.6-2.2,2.7-3,4.4-3c1.6,0,2.9,0.7,3.7,2c0.8,1.4,0.8,3.1-0.1,4.7c-1.2,2.2-2.8,4.3-4.4,6.4 l-0.9,1.2c-10.4,14.2-22.7,26.8-37.7,38.6C241.1,317.6,239.6,318.2,238.4,318.2z"></path><path class="st0" d="M220.9,330.5c-2.4,0-4.2-1.9-4.2-4.3c0.1-2.5,2-4.5,4.6-4.5l0.1,0c1.1,0,2.2,0.5,3,1.4c0.8,0.8,1.2,1.9,1.2,3 C225.5,328.3,223.2,330.5,220.9,330.5z"></path><path class="st0" d="M149.2,97.8c-2.1,0-4.2-2.2-4.2-4.4c0-2.1,2.2-4.2,4.4-4.3c0,0,0,0,0,0c2.2,0,4.3,2.1,4.3,4.3 c0,1.1-0.4,2.2-1.3,3C151.5,97.2,150.4,97.8,149.2,97.8z"></path></svg>