<svg xmlns="http://www.w3.org/2000/svg" xmlns:xlink="http://www.w3.org/1999/xlink" id="Layer_1" x="0px" y="0px" viewBox="0 0 400 400" style="enable-background:new 0 0 400 400;" xml:space="preserve"><style type="text/css">	.st0{fill:#24224B;}</style><g>	<g>		<path class="st0" d="M234.9,57.2h-66c-2.6,0-4.8,2.1-4.8,4.8c0,2.6,2.1,4.8,4.8,4.8h66c2.6,0,4.8-2.1,4.8-4.8   C239.6,59.3,237.5,57.2,234.9,57.2z"></path>		<path class="st0" d="M125.1,336.4H162c1.4,0,2.5-1.3,2.5-2.9s-1.1-2.9-2.5-2.9h-36.9c-1.4,0-2.5,1.3-2.5,2.9   S123.7,336.4,125.1,336.4z"></path>		<path class="st0" d="M238,336.4h36.9c1.4,0,2.5-1.3,2.5-2.9s-1.1-2.9-2.5-2.9H238c-1.4,0-2.5,1.3-2.5,2.9S236.6,336.4,238,336.4z"></path>		<path class="st0" d="M179,344.5h42c4.2,0,7.6-3.4,7.6-7.6s-3.4-7.6-7.6-7.6h-42c-4.2,0-7.6,3.4-7.6,7.6   C171.4,341.2,174.8,344.5,179,344.5z"></path>		<path class="st0" d="M281.9,37.9H118.1c-7.7,0-14,6.3-14,14v296.3c0,7.7,6.3,14,14,14h163.7c7.7,0,14-6.3,14-14V51.9   C295.9,44.1,289.6,37.9,281.9,37.9L281.9,37.9z M287.8,340.2c0,7.3-5.7,13.2-12.8,13.2H125c-7.1,0-12.8-5.9-12.8-13.2v-18.5h175.7   L287.8,340.2z M287.8,314H112.2V84.1h175.7V314H287.8z M287.8,76.3H112.2V59.8c0-7.3,5.7-13.2,12.8-13.2h150   c7.1,0,12.8,5.9,12.8,13.2V76.3z"></path>	</g>	<g>		<path class="st0" d="M219.5,269c-2.5-0.6-4.9-1-7.4-1.7c-9.3-2.6-17.7-7.1-25.5-12.7c-21-15.1-37.5-34.1-49.3-57.2   c-4.2-8.2-7.1-16.9-8.1-26.2c-0.1-1.4-0.3-2.8-0.4-4.3c0.1-2.3,0.3-4.5,0.4-6.8c0.6-2.2,1-4.5,1.7-6.7c2.6-8.5,8.1-15,15.1-20.2   c5.5-4.1,13.1-3.2,17.7,1.8c4.9,5.3,9.7,10.7,14.3,16.2c4.7,5.6,4.1,13.7-1.2,18.7c-1.7,1.6-3.5,3.1-5.3,4.7   c-3.4,3.1-4.1,7.2-1.7,11.2c9.3,15.7,21.2,29.1,35.6,40.2c3.7,2.8,7.8,2.7,11.3-0.3c1.6-1.4,3.3-2.9,4.9-4.3   c5.9-5.1,14.2-4.7,19.5,1.1c4.6,5.1,9.2,10.2,13.6,15.4c5.1,5.9,4.5,14-1.1,19.3c-6.3,6-13.5,10.4-22.3,11.7   c-1.8,0.3-3.6,0.4-5.4,0.6C223.9,269.2,221.7,269.1,219.5,269z M223.1,264.2c3.1-0.3,6.3-0.4,9.3-1c7-1.3,12.7-5.1,17.8-9.9   c3.7-3.4,4-8.5,0.7-12.3c-4.4-5-8.8-10-13.3-15c-3.4-3.8-8.5-4.1-12.4-0.8c-1.6,1.4-3.2,2.8-4.8,4.2c-5.4,4.8-12.4,5-18.1,0.6   c-14.9-11.6-27.1-25.4-36.8-41.6c-3.7-6.3-2.7-13.1,2.8-18c1.7-1.5,3.4-2.9,5-4.4c3.4-3.1,3.9-8.1,0.9-11.6   c-4.6-5.5-9.4-10.8-14.2-16.1c-1.9-2.1-4.4-2.8-7.3-2.5c-2.7,0.3-4.4,2.1-6.3,3.7c-9.6,8.4-13.2,19-11.8,31.4   c0.9,8.4,3.8,16.3,7.5,23.8c6.3,12.8,14.6,24.3,24.3,34.7c9.9,10.7,20.8,20.1,33.7,27C207.3,260.6,214.8,263.4,223.1,264.2z"></path>		<path class="st0" d="M233.6,199c10.4,0,20.8,0,31.2,0c4.2,0,6.2-2,6.2-6.1c0-14.4,0-28.9,0-43.3c0-4.1-2.1-6.1-6.2-6.1   c-20.9,0-41.8,0-62.7,0c-4.2,0-6.2,2.1-6.2,6.3c0,14.4,0,28.7,0,43.1c0,4.3,2,6.3,6.2,6.3C212.6,199,223.1,199,233.6,199z    M233.4,194.3c-10.4,0-20.7,0-31.1,0c-1.5,0-1.8-0.5-1.8-1.8c0-14.2,0-28.4,0-42.6c0-1.4,0.4-1.8,1.7-1.8c20.8,0,41.5,0,62.3,0   c1.4,0,1.7,0.5,1.7,1.8c0,14.2,0,28.4,0,42.6c0,1.4-0.4,1.8-1.8,1.8C254.1,194.2,243.8,194.3,233.4,194.3z"></path>		<path class="st0" d="M239.3,175.6c-4,0-7.9,0-11.5,0c0.4-1.9,1-3.8,1.1-5.7c0.1-5.6-4.6-10.1-10.2-10.2c-5.6,0-10.3,4.5-10.4,10.2   c-0.1,5.5,4.3,10.4,9.8,10.4c10.2,0.1,20.3,0.1,30.5,0c4.5,0,8.3-3.2,9.5-7.6c1.2-4.4-0.6-9-4.5-11.4c-3.8-2.4-8.6-2-12.1,0.9   c-3.4,2.8-4.6,7.7-2.8,11.8C238.8,174.5,239.1,174.9,239.3,175.6z M224.2,170c0,3.1-2.5,5.6-5.6,5.6c-3,0-5.5-2.5-5.6-5.5   c0-3.1,2.6-5.7,5.6-5.6C221.7,164.4,224.2,166.9,224.2,170z M248.2,175.6c-3,0-5.5-2.5-5.6-5.5c0-3.1,2.5-5.7,5.6-5.7   s5.7,2.6,5.6,5.7C253.7,173.1,251.2,175.6,248.2,175.6z"></path>	</g></g></svg>