<svg xmlns="http://www.w3.org/2000/svg" xmlns:xlink="http://www.w3.org/1999/xlink" id="Layer_1" x="0px" y="0px" viewBox="0 0 400 400" style="enable-background:new 0 0 400 400;" xml:space="preserve"><style type="text/css">	.st0{fill:#041C51;}	.st1{fill:#FFFFFF;}</style><g>	<path class="st0" d="M383.6,151.5c0-4.6-1.9-7.6-6.2-9.3c-25.2-10-50.4-20.2-75.7-30.1c-2.4-0.9-5.6-0.6-8.2,0   c-3.8,1-7.4,2.8-11.5,4.5c0-17.4-0.1-34.4,0.1-51.3c0-4.2-1.3-7.4-4.3-10.4C261.2,38.5,244.7,21.8,228,5.3   c-1.9-1.9-4.1-3.5-6.2-5.3c-66.7,0-133.3,0-200,0c-4.1,2.2-5.5,5.5-5.5,10.2c0.1,126.6,0.1,253.1,0.1,379.7   c0,7.5,2.6,10.1,10.1,10.1c81.8,0,163.5,0,245.3,0c7.7,0,10.2-2.6,10.2-10.4c0-35.9,0-71.9,0-107.8c0-1.4,0-2.8,0-4.6   c3.9,1.5,7.5,2.8,10.9,4.3c3.2,1.5,6.1,1.4,9.4,0.1c24.9-10.1,49.9-20.1,74.9-30c4.5-1.8,6.4-4.7,6.4-9.5   C383.6,211.9,383.6,181.7,383.6,151.5z M227.6,27.7c8.9,8.9,17.7,17.7,26.6,26.6c-8.6,0-17.5,0-26.6,0   C227.6,45.6,227.6,36.7,227.6,27.7z M266.2,384.1c-77.9,0-155.8,0-234,0c0-10.3,0-20.4,0-30.8c78.1,0,155.9,0,234,0   C266.2,363.6,266.2,373.7,266.2,384.1z M266.4,337.2c-78.1,0-156,0-234.2,0c0-107.2,0-214.2,0-321.4c59.7,0,119.3,0,179.5,0   c0,1.3,0,2.6,0,4c0,13.7,0,27.3,0,41c0,6.6,2.9,9.5,9.5,9.5c14.8,0,29.7,0,44.9,0c0.1,1.2,0.2,2.3,0.2,3.4   c0,15.2-0.1,30.5,0.1,45.7c0,2.7-0.9,3.8-3.3,4.8c-14.9,5.8-29.7,11.8-44.5,17.8c-5.6,2.2-6.9,4.1-6.9,9.9c0,30.1,0,60.1,0,90.2   c0,5.5,1.4,7.5,6.7,9.6c15,6,29.9,11.9,44.9,18c1.3,0.5,3,2.1,3,3.2C266.5,294.3,266.4,315.6,266.4,337.2z M289.8,261.3   c0,0.5-0.1,1-0.2,2.1c-17.4-7-34.4-13.7-51.4-20.5c-3.6-1.4-8.5-2.2-10.3-4.9c-1.8-2.7-0.6-7.5-0.6-11.4c0-21.5,0-42.9,0-64.8   c1.3,0.4,2.4,0.7,3.4,1.2c18.6,7.4,37.1,14.9,55.7,22.3c2.1,0.8,3.4,1.6,3.4,4.3C289.8,213.4,289.9,237.4,289.8,261.3z    M300.2,171.8c-1.3,0.5-3.1,0.7-4.4,0.2c-17.8-7-35.5-14.1-53.2-21.2c-0.3-0.1-0.6-0.4-1.3-1c3.3-1.3,6.2-2.6,9.2-3.7   c14.7-5.9,29.4-11.8,44.1-17.6c1.5-0.6,3.6-0.9,5.1-0.3c17.7,6.9,35.2,14,52.8,21.1c0.3,0.1,0.6,0.4,1.8,1   c-11.5,4.6-22.4,8.9-33.2,13.3C314.2,166.2,307.2,169.1,300.2,171.8z M365.3,239.6c-19.3,7.6-38.6,15.4-57.9,23.1   c-0.5,0.2-0.9,0.3-1.9,0.6c0-25.2,0-50,0.1-74.7c0-0.9,0.8-2.3,1.5-2.6c20.1-8.1,40.2-16.2,60.7-24.4c0.1,1.2,0.2,2.1,0.2,2.9   c0,23.6,0,47.1,0,70.7C368,237.4,367.7,238.7,365.3,239.6z"></path>	<path class="st0" d="M124.9,110.8c1.3,0.2,2.6,0.1,3.9,0.1c18.5,0,36.9,0,55.4,0c18.6,0,37.2,0,55.8,0c1.2,0,2.3,0.1,3.5-0.1   c4.2-0.4,7.3-3.7,7.3-7.8c0-4-3.1-7.3-7.3-7.7c-1-0.1-2.1,0-3.1,0c-37.3,0-74.6,0-112,0c-1.2,0-2.4-0.1-3.5,0.1   c-4,0.5-6.9,3.8-6.9,7.7C118,107,120.9,110.3,124.9,110.8z"></path>	<path class="st0" d="M241.8,306.3c-19.1,0-38.2,0-57.3,0c-12.5,0-25,0-37.5,0c-7,0-14-0.1-21.1,0c-4.7,0.1-8,3.6-7.9,7.9   c0.1,4.2,3.3,7.4,7.8,7.6c0.9,0.1,1.8,0,2.7,0c37.2,0,74.4,0,111.6,0c1.3,0,2.6,0.1,3.9-0.1c4.5-0.7,7.6-5.1,6.6-9.4   C249.7,308.5,246.6,306.3,241.8,306.3z"></path>	<path class="st0" d="M64.7,107.8c4.4,4.3,8.4,4.3,12.9-0.1c12.4-12.3,24.7-24.6,37-37c4.1-4.1,4.4-8.6,1.1-12   c-3.5-3.5-8-3.1-12.3,1.2C94,69.2,84.6,78.5,75.2,88c-1.3,1.3-2.2,2.9-3.7,5c-3.9-4.1-6.6-7-9.5-9.9c-4.1-4.1-8.6-4.5-12-1.1   c-3.4,3.4-3.2,7.9,0.8,12C55.5,98.6,60.1,103.2,64.7,107.8z"></path>	<path class="st0" d="M65,178.3c4,3.9,8.1,4.1,12,0.2c12.8-12.6,25.5-25.3,38.1-38.1c3.7-3.7,3.7-8.2,0.6-11.5   c-3.3-3.4-7.9-3.2-11.7,0.6c-8.3,8.2-16.6,16.5-24.9,24.8c-2.5,2.6-4.9,5.3-7.9,8.5c-3.7-3.8-6.6-7-9.6-10   c-3.7-3.6-8.2-3.8-11.5-0.6c-3.4,3.3-3.2,7.9,0.5,11.7C55.3,168.8,60.1,173.6,65,178.3z"></path>	<path class="st0" d="M65.3,248.9c3.7,3.6,7.9,3.8,11.5,0.2c13.1-12.9,26-25.9,38.9-39c3.3-3.3,3.1-7.8,0.1-10.9   c-3.1-3.2-7.7-3.3-11.2,0c-7.6,7.3-15,14.8-22.4,22.3c-3.6,3.6-7,7.3-11,11.6c-3.7-3.9-6.7-7.3-9.9-10.3c-3.6-3.4-8-3.5-11.2-0.4   c-3.3,3.2-3.3,7.8,0.2,11.5C55.2,239.1,60.2,244,65.3,248.9z"></path>	<path class="st0" d="M104.3,269.9c-2.2,2-4.3,4.2-6.4,6.3c-8.8,8.8-17.6,17.6-27,27.1c-3.3-3.4-6-6.5-9-9.5   c-3.9-3.9-8.4-4.2-11.7-1c-3.5,3.3-3.2,8,0.7,12c4.6,4.6,9.2,9.3,13.8,13.8c4.5,4.4,8.4,4.4,12.9,0c5.1-5,10.1-10.1,15.2-15.2   c7.5-7.6,15.2-15,22.6-22.7c3.5-3.6,3.4-8,0.4-11.2C112.6,266.3,108,266.4,104.3,269.9z"></path>	<path class="st0" d="M186.7,165.6c-9.7,0-19.5,0-29.2,0c-10,0-20,0-30,0c-5.9,0-9.5,3.1-9.4,8c0.1,4.7,3.7,7.6,9.4,7.6   c19.8,0,39.5,0,59.3,0c5.9,0,9.5-3.2,9.4-8C196,168.6,192.4,165.6,186.7,165.6z"></path>	<path class="st0" d="M186.7,235.9c-9.7,0-19.5,0-29.2,0c-10,0-20,0-30,0c-5.9,0-9.5,3.1-9.4,8c0.1,4.7,3.6,7.6,9.4,7.6   c19.8,0,39.5,0,59.3,0c5.9,0,9.5-3.1,9.4-8C196,238.9,192.4,236,186.7,235.9z"></path></g></svg>