<svg xmlns="http://www.w3.org/2000/svg" xmlns:xlink="http://www.w3.org/1999/xlink" id="Layer_1" x="0px" y="0px" viewBox="0 0 400 400" style="enable-background:new 0 0 400 400;" xml:space="preserve"><style type="text/css">	.st0{fill:#041C51;}	.st1{fill:#FFFFFF;}</style><g>	<path class="st0" d="M205.6,292.2c-26.5,0-53,0-79.6,0c-22,0-44.1,0-66.1,0c-6.6,0-14.3-2.7-16.4-10.1c-0.8-3.1-1.2-6.6-1.4-10.4   h167l-10.7-66.4H42.1l0-26.9c0-24.8,0-49.6,0-74.5c0-12,6.3-18.3,18.2-18.3c46.2,0,92.4,0,138.5,0c43.6,0,87.2,0,130.8,0   c11.6,0,18,6.4,18,18.1c0,7.4,0,14.8,0,22.2c0,8,0,16,0,24c0,13.1,8.9,22.6,21.1,22.6c12.3,0,20.9-9.3,20.9-22.6   c0-14.2,0-30.7,0-47c-0.1-33.7-25.4-59.1-59-59.1c-43.6,0-87.3,0-130.9,0c-46.6,0-93.2,0-139.8,0c-34.7,0-60,25.2-60,59.9   C0,160.4,0,217.2,0,274c0,34.8,25.4,60.2,60.3,60.2c17.9,0,35.7,0,53.6,0c30,0,60,0,89.9,0h0.2c2.2,0,4.8,0,7.5-0.6   c6.6-1.3,12.1-5.8,14.9-11.9c2.8-6.1,2.4-13.3-1-19.1C221.4,295.7,214.7,292.2,205.6,292.2z M209.9,325.1c-1.9,0.4-4,0.4-6,0.4   c-47.8,0-95.7,0-143.5,0C30.2,325.5,8.6,304,8.6,274c0-56.8,0-113.5,0-170.3c0-30,21.3-51.3,51.4-51.3c90.2,0,180.5,0,270.7,0   c28.8,0,50.3,21.6,50.4,50.5c0,15.7,0,31.3,0,47c0,8.6-4.8,14-12.3,14c-7.4,0-12.4-5.6-12.4-14c0-15.4,0-30.8,0-46.1   c0-16.4-10.2-26.7-26.6-26.7c-89.8,0-179.6,0-269.4,0c-16.7,0-26.8,10.2-26.8,26.9c0,35.1,0,70.1,0,105.2c0,1.4,0,2.8,0,4.8   c53.1,0,105.5,0,157.5,0c2.7,16.5,5.2,32.6,7.9,49.2c-54.7,0-109.8,0-166.1,0c0.8,7.6,0.5,14.7,2.4,21.3   c2.9,10.4,12.8,16.4,24.7,16.4c48.6,0,97.1,0,145.7,0c5.3,0,9.6,1.5,12.4,6.2C222.2,314.2,218.1,323.5,209.9,325.1z"></path>	<path class="st0" d="M306.5,192.7c0-0.1,0-0.2,0-0.2c-0.1,0-0.1,0.1-0.2,0.1c-0.1,0-0.1-0.1-0.2-0.1c0,0.1,0,0.2,0,0.2   c-19.5,13.4-40.6,20-63.8,20.4c0,0.9-0.1,1.5-0.1,2.1c1.2,19.2,4.3,38,11.6,56c8.5,21.2,21.4,38.9,41.1,51   c3.5,2.2,7.3,3.8,11.2,5.8c0,0.1,0,0.1,0,0.2c0.1,0,0.1-0.1,0.2-0.1c0.1,0,0.1,0.1,0.2,0.1c0-0.1,0-0.1,0-0.2   c3.9-2,7.7-3.6,11.2-5.8c19.7-12.1,32.6-29.9,41.1-51c7.2-17.9,10.3-36.8,11.6-56c0-0.6-0.1-1.2-0.1-2.1   C347.1,212.6,325.9,206,306.5,192.7z M299,315.9c-0.1,0-0.1-0.1-0.2-0.1c-17-10.4-29.4-26-38.1-47.5c-5.6-14-9.1-29.4-10.6-48.2   c17.6-1.3,33.7-6,48.9-14.3V315.9z M351.9,268.3c-8.7,21.5-21.1,37.1-38.1,47.5c-0.1,0-0.1,0.1-0.2,0.1V205.8   c15.2,8.3,31.4,13,48.9,14.3C360.9,238.9,357.5,254.3,351.9,268.3z"></path>	<path class="st0" d="M399.9,199.6c-0.5-9.9-8.3-17.7-17.9-17.7c-0.4,0-0.8,0-1.2,0c-3,0.2-6,0.3-8.9,0.3   c-21.1,0-38.3-6.1-52.4-18.7c-3.8-3.4-8.2-5.2-12.7-5.2c-4.5,0-8.8,1.7-12.9,5.2l-0.9,0.8c-2.5,2.1-4.9,4.2-7.4,5.8   c-13.1,8.4-28,12.5-45.5,12.5c-2.1,0-4.2-0.1-6.3-0.2c-0.5,0-1,0-1.4,0c-11.4,0-19,7.5-19,18.7c0,28.9,4.1,54,12.6,76.5   c12,31.7,30.2,54.1,55.6,68.6l2.7,1.5c9.5,5.5,14.8,8.5,21.4,8.5c0,0,0,0,0,0c6.8,0,12.5-3.2,24-9.5l0.8-0.4   c27.2-15,46.3-39.2,58.5-73.9c6.3-17.9,9.8-37.5,11-61.7l0-0.2v-0.2c0-1.1,0-2.1,0-3.2C400,204.8,400,202.3,399.9,199.6z    M392.5,210.4c-1,20.3-3.8,40.3-10.6,59.6c-10.3,29.6-27.2,54.4-55,69.8c-22.1,12.2-20.8,11.8-41.6,0c-25.7-14.6-42-37.4-52.3-64.8   c-9-23.8-12.2-48.6-12.2-73.9c0-7.5,4.9-11.6,12.6-11.2c20.1,1.1,39.1-2.5,56.3-13.5c3.2-2.1,6.1-4.6,9.1-7.1   c5.2-4.5,10.7-4.6,15.7-0.1c19.1,17.1,42,22.1,66.8,20.2c5.6-0.4,10.9,4.2,11.2,10.5C392.6,203.5,392.5,206.9,392.5,210.4z"></path>	<path class="st0" d="M85.9,100.1c-0.6,0-1.2,0-1.9,0c-0.7,0-1.5,0-2.2,0c-0.2,0-0.3,0-0.5,0h-1.4c-0.6,0-1.3,0-1.9,0   c-0.7,0-1.4,0-2.1,0c-1.1,0-2,0-2.8,0.1c-10.7,0.5-18.6,8.6-18.9,19.1c-0.3,10.8,7.5,19.4,18,20.2c2.5,0.2,5,0.3,7.6,0.3   c2.6,0,5.2-0.1,7.8-0.3c10-0.7,18.1-9.5,18-19.7c0-9.9-7.6-18.3-17.4-19.5v-0.2H85.9z M97.3,119.8c0,5.8-4.6,11.1-10.5,11.5   c-4.7,0.3-9.5,0.3-14.2,0c-6.3-0.4-10.6-5.6-10.4-11.9c0.1-6.2,4.7-10.9,11.1-11.2c2.2-0.1,4.3,0,6.5,0c0,0,0,0,0,0   c2.2,0,4.3-0.1,6.5,0C92.5,108.7,97.3,113.8,97.3,119.8z"></path>	<path class="st0" d="M141,100.1c-0.6,0-1.3,0-2,0c-0.7,0-1.5,0-2.2,0c-0.2,0-0.4,0-0.6,0h-1.3c-0.6,0-1.3,0-1.9,0   c-0.7,0-1.4,0-2.2,0c-1.1,0-2,0-2.8,0.1c-10.7,0.5-19,9.2-19,19.7c0,10.4,8.2,19.1,18.6,19.7c2.4,0.1,4.8,0.2,7.2,0.2c0,0,0,0,0,0   c2.4,0,4.8-0.1,7.1-0.2c10.6-0.6,18.5-9.1,18.5-19.7c0-10.1-7.4-18.3-17.3-19.5v-0.2H141z M152.3,119.8c0,6.2-4.5,11.2-10.8,11.6   c-4.5,0.3-8.9,0.3-13.4,0c-6.2-0.4-10.9-5.6-10.9-11.5c0-6.2,4.9-11.3,11.3-11.6c2.2-0.1,4.3,0,6.5,0c0,0,0,0,0,0   c2.2,0,4.3-0.1,6.5,0C147.7,108.7,152.2,113.6,152.3,119.8z"></path>	<path class="st0" d="M245,100c-2.4,0-4.9,0.1-7.3,0.2c-10.2,0.6-18.1,8.8-18.4,19.2c-0.3,10.5,7.5,19.2,17.9,20.1   c1,0.1,2.1,0.1,3.3,0.1c0.8,0,1.6,0,2.4,0c0.7,0,1.3,0,2,0h1.5c0.2,0,0.4,0,0.5,0c0.8,0,1.7,0,2.5,0c0.8,0,1.5,0,2.2-0.1h1.4v-0.1   c10-1,17.8-9.7,17.7-19.8c-0.1-10.3-8.2-18.8-18.3-19.4C250,100.1,247.5,100,245,100z M262.5,119.7c0.1,5.8-4.5,11-10.4,11.6   c-2.4,0.2-4.9,0-7.3,0c0,0,0,0,0,0c-2.3,0-4.6,0.2-6.9,0c-6.2-0.6-10.7-5.6-10.5-11.8c0.1-6.1,4.5-10.9,10.7-11.2   c4.6-0.3,9.2-0.3,13.8,0C257.8,108.7,262.5,113.9,262.5,119.7z"></path>	<path class="st0" d="M194.3,100.1c-0.8,0-1.6,0-2.4,0c-0.6,0-1.3,0-1.9,0h-0.1c-0.7,0-1.4,0-2,0c-0.8,0-1.6,0-2.4,0   c-1.3,0-2.4,0-3.5,0.1c-9.8,0.9-17.5,9.1-17.7,19c-0.3,10.5,7.4,19.4,17.5,20.1c2.7,0.2,5.4,0.3,8.1,0.3c0,0,0,0,0,0   c2.8,0,5.5-0.1,8.2-0.3c10.2-0.9,17.8-9.8,17.4-20.3c-0.4-9.9-8.1-18-17.9-18.9C196.6,100.1,195.6,100.1,194.3,100.1z M207.3,119.4   c0.2,5.9-4,11.4-10,11.9c-5,0.4-10,0.4-15,0c-5.9-0.5-10.2-5.8-10-11.8c0.2-5.9,4.5-10.6,10.3-11.1c2.4-0.2,4.9,0,7.3,0   c2.3,0,4.6-0.2,6.9,0C202.7,108.8,207.1,113.6,207.3,119.4z"></path></g></svg>