<svg xmlns="http://www.w3.org/2000/svg" xmlns:xlink="http://www.w3.org/1999/xlink" id="Layer_1" x="0px" y="0px" viewBox="0 0 400 400" style="enable-background:new 0 0 400 400;" xml:space="preserve"><style type="text/css">	.st0{fill:#041C51;}	.st1{fill:#FFFFFF;}</style><g>	<path class="st0" d="M351.3,305.4c-18.2-13.6-36.9-26.7-56-39.2c-18.7-12.2-41.4-7.8-55.1,9.8c-4.5,5.8-8.5,11.9-12.6,17.6   C194,276.1,124.9,207.1,106.9,173c6.5-4.8,12.8-8.9,18.5-13.5c16.4-13.3,20.9-35.3,9.5-53.1C122.1,86.5,108.5,67,94.2,48.2   C82.5,32.8,63.7,28.9,45.7,36.7C21.2,47.3,7.5,66.4,2.6,92.3c-4.6,24.4-1.5,48.4,7,71.2c37.4,101.4,107.6,173.1,204.6,218.4   c20.6,9.6,44.2,14.4,66.9,17.3c38.2,4.9,70.2-13.7,83-44.5C371.8,335.8,367.7,317.7,351.3,305.4z M347.4,351.4   c-12.9,25.2-35.4,32.2-62.1,33.8c-17-4-34.8-5.9-50.7-12.4c-98-40.3-167.2-110.1-207.4-208.2c-8.6-20.9-11.9-43.1-8.9-65.8   C21,77.8,31,61.7,50.6,52.5c13-6.1,24-3.7,32.5,7.9c12.4,17,24.4,34.3,36.1,51.8c9.2,13.8,6.5,26.6-6.9,36.6   c-3.9,2.9-7.9,5.6-11.8,8.3c-17.5,12.2-17.7,12.4-5.7,29.4c33.5,47.3,74.1,87.6,121.6,120.9c14.1,9.9,15.4,9.5,24.9-4.1   c24.1-34.3,28.7-35,63.6-10.7c11.5,8,23.1,15.9,34.4,24.2C351.8,326,354.5,337.5,347.4,351.4z"></path>	<path class="st0" d="M184.8,57.8c2.8,0,4.7-2.2,4.8-5.4c0-3.5,0-7,0-10.5c0-2.9,0.7-3.3,3.5-3.7c7.7-1,15.4-1.8,23-3.4   c18.9-4.2,36-12.7,51.9-23.8c2-1.4,3.5-1.5,5.6-0.1c5.8,3.8,11.7,7.5,17.8,10.8c17.6,9.5,36.4,15.1,56.4,16.5   c3.8,0.3,4.2,0.6,4.2,4.4c0,22.2,0,44.4,0,66.6c0,3.1-0.2,6.3-0.5,9.4c-0.3,3.4,1.2,5.8,4,6.2c2.9,0.4,5.2-1.7,5.5-5.1   c0.3-3.3,0.5-6.7,0.5-10.1c0.1-10.6,0-21.2,0-31.8c0,0,0,0,0,0c0-12.2,0-24.4,0-36.6c0-7.1-4.7-11.9-11.8-12.4   c-15.6-1-30.6-4.8-44.9-11.1c-9.5-4.2-18.4-9.4-27-15.3c-4.7-3.2-9.5-3.1-14.2,0.1c-1.4,1-2.8,2-4.2,2.9   c-20.5,13.6-42.9,22-67.6,23.5c-6.9,0.4-11.6,5.2-11.7,12.2c-0.1,3.8,0,7.6,0,11.4C180.1,55.7,182,57.8,184.8,57.8z"></path>	<path class="st0" d="M356.8,134.4c-23.6-0.1-43,19.2-43.1,43c-0.1,23.7,19.1,43.1,42.9,43.2c23.8,0.1,43-19,43-42.9   C399.7,153.8,380.5,134.5,356.8,134.4z M356.7,211c-18.5,0-33.4-15-33.4-33.5c0-18.6,14.9-33.5,33.4-33.5c18.5,0,33.4,15,33.4,33.6   C390,196,375.1,211,356.7,211z"></path>	<path class="st0" d="M189.6,72.6c0-2.6-1.4-4.4-3.7-5c-2-0.5-4.4,0.5-5.2,2.4c-0.4,1-0.6,2.2-0.6,3.3c0,12.3,0,24.5,0,36.8   c0,8.2,1.1,16.2,3.5,24.1c5.1,17.2,14.8,31.7,26.9,44.6c15.6,16.5,33.9,29.5,54,40.1c4.2,2.2,8.3,2.3,12.4,0.1   c5.7-3.2,11.4-6.4,17-9.9c4-2.5,7.8-5.2,11.6-7.9c2.3-1.7,2.7-4.6,1.2-6.7c-1.5-2.1-4.2-2.5-6.6-1.1c-0.5,0.3-1,0.7-1.5,1   c-8.5,5.3-17,10.5-25.5,15.8c-1.6,1-3.1,1.1-4.8,0c-7.3-4.5-14.9-8.6-21.9-13.4c-16.4-11.1-30.9-24.2-42-40.7   c-8.1-12-13.6-25.1-14.5-39.7c-0.5-7.6-0.1-15.2-0.1-22.9c-0.1,0-0.2,0-0.3,0C189.6,86.5,189.6,79.5,189.6,72.6z"></path>	<path class="st0" d="M246.9,72.7c0.3,12,9.4,21.9,21.4,23.1c11.8,1.3,23.2-6.4,25.4-18.1c1.1-5.7,1-11.8,0.6-17.6   c-0.9-11.4-10.2-20.6-21.2-21.4c-12.3-0.9-22.8,6.4-25.5,18.1c-0.8,3.4-0.7,6.9-1.1,10.4c0.1,0,0.2,0,0.3,0   C246.9,69.1,246.8,70.9,246.9,72.7z M256.7,60.2c0.8-7.3,7.4-12.4,14.8-12.1c7.2,0.3,13.1,6.3,13.4,13.6c0.1,1.9,0,3.7,0,5.6   c0.1,0,0.1,0,0.2,0c-0.2,2.6,0,5.3-0.5,7.8c-1.5,7.1-7.6,11.5-14.9,11.1c-6.7-0.3-12.4-5.5-13.1-12.5   C256.2,69.3,256.2,64.7,256.7,60.2z"></path>	<path class="st0" d="M313.6,128.9c-0.2-12.8-10.5-23-23.9-23.2c-12.6-0.2-25.2-0.2-37.8,0c-13.3,0.2-23.3,9.8-24.1,22.9   c-0.2,3.3,1.5,5.5,4.3,5.8c3,0.2,5-1.7,5.3-5.1c0.8-8.8,6.4-13.9,15.2-14c6,0,12.1,0,18.1,0c6.3,0,12.5,0,18.8,0   c8.4,0.1,14.1,5.6,14.7,14c0.2,3.2,2.2,5.1,5.1,5C312,134.2,313.7,132.1,313.6,128.9z"></path>	<path class="st0" d="M368.2,164.2c-0.7,0.7-1.4,1.4-2.1,2.1c-4.8,4.9-9.7,9.7-14.8,14.8c-2.2-2.3-4.2-4.5-6.3-6.6   c-2.2-2.2-5-2.3-7-0.4c-2,2-1.9,4.9,0.3,7.2c3.1,3.1,6.2,6.3,9.3,9.4c2.5,2.5,5.1,2.5,7.6,0c3-2.9,5.9-5.9,8.9-8.9   c3.6-3.6,7.2-7.2,10.7-10.8c2.1-2.1,2.1-4.9,0.2-6.8C373.2,162.1,370.4,162.1,368.2,164.2z"></path></g></svg>