<svg xmlns="http://www.w3.org/2000/svg" xmlns:xlink="http://www.w3.org/1999/xlink" id="Layer_1" x="0px" y="0px" viewBox="0 0 400 400" style="enable-background:new 0 0 400 400;" xml:space="preserve"><style type="text/css">	.st0{fill:#041C51;}</style><g>	<path class="st0" d="M387.6,298.3c-7.7-32.4-35.6-54.4-70.5-54.4c-55.6-0.2-110.9,0-166.5-0.2c-3.9,0-8.2-1.1-11.6-2.9   C94.6,215,38.1,233.4,17.7,280.4c-3.2,7.5-5,15.9-7.3,23.8c0,6.8,0,13.8,0,20.6c0.5,1.4,1.1,2.7,1.4,4.1   c10.7,59,75.8,89.4,127.2,59.4c3.2-1.8,7.3-2.9,10.9-2.9c34.5-0.2,68.7,0,103.2-0.2c9.1,0,14.5-4.1,14.5-11.1c0-7-5-11.1-14.3-11.1   c-26.3,0-52.6,0-78.7,0c-2.3,0-4.5,0-7.9,0c20-32.9,19.5-64.9,0.2-97.1c10.2,0,19.1,0,27.7,0c41.7,0,83.5-0.2,125.2,0.2   c25.2,0.2,45.6,19.5,47.4,43.5c2,26.3-14.3,47.9-40.1,52.4c-5.9,1.1-12.2,0.7-18.4,0.9c-7,0.5-11.3,4.5-11.3,10.9   c0,6.4,4.3,10.7,11.1,11.1c4.5,0.2,9.3,0.2,14.1,0C366.5,382.6,397.8,341.1,387.6,298.3z M95.9,377.7c-35.2,0-63.5-28.8-63.3-64   c0.2-34.7,28.8-63.1,63.7-62.8c34.7,0.2,63.1,28.6,63.1,63.5C159.2,349.3,130.6,377.7,95.9,377.7z"></path>	<path class="st0" d="M89.4,155.9c7.7-0.2,12.2-4.3,12.5-10.7c0.2-6.4-4.3-10.9-12-11.3c-3.9-0.2-7.9,0-11.8-0.2   c-24.3-1.1-44.5-21.3-45.4-45.8c-1.1-29,20.4-50.8,51.5-50.8c47.4-0.2,94.8,0,142.2,0c2,0,4.1,0.5,6.8,0.7   c-19.3,32.2-18.8,63.7,0.2,96.2c-3.6,0-6.4,0-8.8,0c-25.6,0-51,0-76.7,0c-3.2,0-7.3-0.5-9.3,1.1c-3.2,2.7-6.4,6.8-7,10.7   c-0.7,5.2,3.2,9.1,8.8,9.8c2.7,0.7,5.2,0.5,7.5,0.5c33.8,0,67.8,0,101.6,0.2c3.6,0,7.7,1.1,10.9,2.9c12.7,7,26.1,11.1,40.6,11.8   c34.5,1.4,66.7-18.4,81.2-50.6c14.3-31.5,7.5-69-16.8-94.1C341.1,1.3,303.2-7.6,271.9,7.2c-13.8,6.6-27.4,8.4-42.2,7.9   c-9.8-0.2-19.7,0-29.5,0c-41.1,0-82.3-0.5-123.6,0.5c-30.2,0.7-55.6,22-63.5,51.5c-0.9,2.9-1.8,6.1-2.7,9.1c0,6.4,0,12.7,0,19.1   c0.2,0.5,0.7,0.7,0.9,1.1C21.5,137.1,47.8,157.3,89.4,155.9z M241.1,84.7c0.7-35.2,29.3-63.1,64-62.4c35.4,0.7,63.3,29.5,62.4,64.6   c-0.9,35.2-29.5,62.6-64.2,61.9C268.3,148.2,240.2,119.2,241.1,84.7z"></path></g></svg>