<?xml version="1.0" encoding="utf-8"?>
<!-- Generator: Adobe Illustrator 16.0.0, SVG Export Plug-In . SVG Version: 6.00 Build 0)  -->
<!DOCTYPE svg PUBLIC "-//W3C//DTD SVG 1.1//EN" "http://www.w3.org/Graphics/SVG/1.1/DTD/svg11.dtd">
<svg version="1.1" id="Layer_1" xmlns="http://www.w3.org/2000/svg" xmlns:xlink="http://www.w3.org/1999/xlink" x="0px" y="0px"
	 width="700px" height="600px" viewBox="0 0 700 600" enable-background="new 0 0 700 600" xml:space="preserve">
<g>
	<g>
		<g>
			<path fill="#EDEEF8" d="M121.132,243.553c2.123,2.789,4.593,5.381,7.423,7.699c2.831,2.317,5.86,4.225,9.014,5.755l5.006-8.337
				c2.958,1.348,6.047,2.263,9.182,2.764l-0.445,9.726c7.107,0.96,14.36,0.237,21.137-2.109l-2.358-9.446
				c2.974-1.111,5.821-2.619,8.454-4.524l6.555,7.184c2.789-2.124,5.381-4.593,7.699-7.423c2.317-2.831,4.225-5.861,5.755-9.014
				l-8.337-5.006c1.348-2.958,2.263-6.047,2.765-9.182l9.726,0.445c0.96-7.106,0.237-14.36-2.109-21.137l-9.446,2.358
				c-1.111-2.974-2.619-5.821-4.525-8.455l7.184-6.554c-2.124-2.789-4.593-5.381-7.423-7.699c-2.831-2.317-5.861-4.225-9.014-5.756
				l-5.006,8.337c-2.958-1.348-6.047-2.263-9.182-2.765l0.445-9.726c-7.106-0.961-14.36-0.237-21.137,2.109l2.358,9.446
				c-2.974,1.111-5.822,2.619-8.455,4.524l-6.555-7.183c-2.789,2.124-5.381,4.593-7.698,7.423c-2.317,2.831-4.225,5.86-5.756,9.014
				l8.337,5.005c-1.348,2.958-2.263,6.047-2.765,9.183l-9.726-0.445c-0.961,7.107-0.237,14.36,2.109,21.137l9.446-2.358
				c1.111,2.974,2.619,5.822,4.524,8.455L121.132,243.553z M140.448,201.991c7.695-9.402,21.556-10.785,30.957-3.09
				c9.402,7.696,10.785,21.556,3.089,30.957c-7.695,9.402-21.555,10.785-30.957,3.09
				C134.136,225.252,132.753,211.393,140.448,201.991z M146.27,206.756c5.064-6.187,14.185-7.097,20.371-2.033
				c6.187,5.064,7.097,14.185,2.033,20.371s-14.184,7.097-20.371,2.033C142.116,222.063,141.206,212.942,146.27,206.756z"/>
			<path fill="#EDEEF8" d="M360.266,163.178c0.687,4.361,1.875,8.712,3.628,12.973c1.754,4.261,3.972,8.188,6.553,11.77l10.534-6.25
				c2.473,3.263,5.352,6.124,8.527,8.554l-6.308,10.517c7.306,5.313,15.78,8.847,24.696,10.297l3.032-11.882
				c3.962,0.546,8.021,0.576,12.079,0.038l2.973,11.882c4.36-0.687,8.712-1.875,12.973-3.628c4.262-1.753,8.188-3.972,11.77-6.553
				l-6.251-10.534c3.263-2.474,6.124-5.352,8.555-8.528l10.518,6.307c5.313-7.305,8.847-15.78,10.297-24.696l-11.883-3.032
				c0.546-3.961,0.576-8.021,0.038-12.079l11.882-2.973c-0.688-4.361-1.874-8.712-3.628-12.974
				c-1.754-4.261-3.972-8.188-6.553-11.77l-10.534,6.251c-2.474-3.262-5.352-6.124-8.527-8.554l6.308-10.517
				c-7.305-5.313-15.78-8.847-24.696-10.297l-3.032,11.883c-3.962-0.546-8.021-0.577-12.079-0.038l-2.973-11.883
				c-4.36,0.688-8.712,1.875-12.973,3.628s-8.188,3.972-11.771,6.553l6.252,10.534c-3.263,2.474-6.124,5.352-8.555,8.528
				l-10.517-6.308c-5.314,7.305-8.848,15.78-10.298,24.696l11.883,3.032c-0.546,3.962-0.576,8.021-0.038,12.079L360.266,163.178z
				 M406.527,128.645c14.152-5.824,30.347,0.929,36.17,15.081c5.823,14.152-0.929,30.346-15.081,36.169
				c-14.153,5.823-30.347-0.929-36.169-15.081C385.623,150.662,392.375,134.468,406.527,128.645z M410.133,137.408
				c9.313-3.832,19.97,0.611,23.802,9.924s-0.611,19.969-9.924,23.801c-9.313,3.832-19.97-0.611-23.802-9.924
				S400.82,141.239,410.133,137.408z"/>
			<path fill="#EDEEF8" d="M521.727,208.407c1.671,2.194,3.614,4.234,5.842,6.058c2.227,1.823,4.611,3.325,7.092,4.529l3.939-6.56
				c2.327,1.061,4.758,1.781,7.225,2.175l-0.35,7.653c5.592,0.756,11.3,0.187,16.632-1.66l-1.855-7.433
				c2.34-0.874,4.581-2.061,6.653-3.56l5.157,5.652c2.194-1.671,4.234-3.614,6.058-5.841s3.324-4.611,4.529-7.093l-6.561-3.938
				c1.061-2.328,1.781-4.759,2.176-7.225l7.652,0.35c0.756-5.592,0.187-11.3-1.659-16.632l-7.434,1.855
				c-0.874-2.34-2.061-4.581-3.56-6.653l5.652-5.158c-1.671-2.194-3.614-4.234-5.842-6.058s-4.611-3.325-7.093-4.529l-3.938,6.56
				c-2.327-1.061-4.759-1.781-7.226-2.175l0.351-7.653c-5.592-0.756-11.3-0.187-16.632,1.66l1.855,7.433
				c-2.341,0.875-4.581,2.061-6.653,3.561l-5.157-5.652c-2.194,1.671-4.234,3.614-6.058,5.841s-3.325,4.611-4.529,7.092l6.561,3.939
				c-1.061,2.328-1.781,4.758-2.176,7.225l-7.652-0.35c-0.757,5.592-0.187,11.3,1.659,16.632l7.433-1.855
				c0.875,2.34,2.061,4.581,3.561,6.653L521.727,208.407z M536.926,175.703c6.056-7.398,16.962-8.486,24.359-2.431
				c7.398,6.055,8.486,16.961,2.431,24.359c-6.055,7.398-16.961,8.486-24.358,2.431C531.959,194.006,530.87,183.101,536.926,175.703
				z M541.507,179.452c3.984-4.868,11.161-5.584,16.029-1.6s5.584,11.162,1.6,16.03s-11.161,5.584-16.029,1.6
				C538.238,191.497,537.521,184.32,541.507,179.452z"/>
			<path fill="#EDEEF8" d="M210.097,154.589c0.766-1.655,1.357-3.421,1.734-5.286s0.517-3.722,0.454-5.544l-5.051-0.274
				c-0.1-1.688-0.43-3.331-0.962-4.894l4.581-2.161c-1.287-3.501-3.384-6.661-6.111-9.206l-3.77,3.382
				c-1.234-1.097-2.621-2.04-4.137-2.787l1.708-4.761c-1.654-0.766-3.42-1.357-5.286-1.734s-3.723-0.517-5.544-0.454l-0.274,5.051
				c-1.688,0.1-3.331,0.43-4.895,0.962l-2.161-4.581c-3.501,1.287-6.661,3.384-9.206,6.111l3.382,3.77
				c-1.097,1.234-2.04,2.621-2.787,4.137l-4.761-1.708c-0.766,1.655-1.357,3.42-1.734,5.286s-0.517,3.723-0.454,5.544l5.051,0.274
				c0.1,1.688,0.43,3.331,0.962,4.895l-4.58,2.161c1.287,3.501,3.384,6.661,6.111,9.206l3.77-3.382
				c1.234,1.097,2.62,2.04,4.137,2.787l-1.709,4.761c1.655,0.766,3.421,1.357,5.286,1.734c1.865,0.377,3.722,0.518,5.544,0.455
				l0.274-5.051c1.688-0.1,3.331-0.431,4.895-0.962l2.161,4.58c3.501-1.287,6.661-3.384,9.206-6.111l-3.382-3.77
				c1.097-1.234,2.04-2.62,2.787-4.137L210.097,154.589z M186.288,155.817c-6.195-1.252-10.202-7.288-8.95-13.483
				c1.251-6.195,7.288-10.202,13.483-8.951s10.202,7.288,8.95,13.483S192.482,157.069,186.288,155.817z"/>
			<path fill="#EDEEF8" d="M610.066,246.429c1.066-1.252,2.009-2.644,2.789-4.173c0.78-1.529,1.353-3.109,1.739-4.708l-4.323-1.463
				c0.323-1.491,0.434-3,0.351-4.487l4.505-0.767c-0.269-3.355-1.325-6.609-3.078-9.483l-4.097,2.025
				c-0.807-1.253-1.782-2.408-2.919-3.426l2.64-3.723c-1.253-1.067-2.644-2.009-4.174-2.79c-1.529-0.78-3.109-1.352-4.708-1.739
				l-1.463,4.323c-1.491-0.323-3-0.434-4.487-0.351l-0.768-4.505c-3.355,0.269-6.609,1.326-9.483,3.079l2.025,4.096
				c-1.253,0.807-2.408,1.783-3.426,2.919l-3.724-2.64c-1.066,1.252-2.009,2.644-2.789,4.173c-0.779,1.53-1.353,3.109-1.739,4.708
				l4.323,1.463c-0.322,1.491-0.434,3-0.351,4.487l-4.505,0.767c0.27,3.355,1.325,6.609,3.078,9.483l4.097-2.025
				c0.807,1.253,1.782,2.409,2.92,3.426l-2.64,3.723c1.252,1.067,2.644,2.009,4.173,2.79c1.529,0.78,3.109,1.352,4.709,1.739
				l1.463-4.323c1.49,0.323,2.999,0.434,4.486,0.351l0.768,4.505c3.355-0.269,6.609-1.325,9.483-3.078l-2.025-4.097
				c1.253-0.807,2.408-1.782,3.426-2.919L610.066,246.429z M589.076,241.721c-5.08-2.59-7.099-8.809-4.509-13.889
				c2.591-5.081,8.809-7.099,13.889-4.509c5.081,2.59,7.099,8.809,4.509,13.889C600.375,242.293,594.156,244.312,589.076,241.721z"
				/>
			<path fill="#EDEEF8" d="M27.992,328.544h-3.364c-0.604,0-1.094-0.49-1.094-1.094v-3.365c0-0.604,0.49-1.094,1.094-1.094h3.364
				c0.604,0,1.094,0.49,1.094,1.094v3.365C29.086,328.054,28.597,328.544,27.992,328.544z"/>
			<path fill="#EDEEF8" d="M682.484,280.971h-3.364c-0.604,0-1.095-0.49-1.095-1.094v-3.365c0-0.604,0.49-1.094,1.095-1.094h3.364
				c0.604,0,1.094,0.49,1.094,1.094v3.365C683.578,280.481,683.089,280.971,682.484,280.971z"/>
			<path fill="#EDEEF8" d="M349.13,111.464h-3.365c-0.604,0-1.094-0.49-1.094-1.094v-3.364c0-0.604,0.49-1.094,1.094-1.094h3.365
				c0.604,0,1.094,0.49,1.094,1.094v3.364C350.224,110.975,349.734,111.464,349.13,111.464z"/>
			<path fill="#EDEEF8" d="M565.46,251.613h-3.365c-0.604,0-1.094-0.49-1.094-1.094v-3.364c0-0.604,0.49-1.094,1.094-1.094h3.365
				c0.604,0,1.094,0.49,1.094,1.094v3.364C566.554,251.123,566.063,251.613,565.46,251.613z"/>
			<path fill="#EDEEF8" d="M244.684,157.649h-3.364c-0.604,0-1.094-0.49-1.094-1.094v-3.365c0-0.604,0.49-1.094,1.094-1.094h3.364
				c0.604,0,1.094,0.49,1.094,1.094v3.365C245.778,157.16,245.288,157.649,244.684,157.649z"/>
		</g>
		<circle fill="none" stroke="#C6C7E5" stroke-linejoin="round" stroke-miterlimit="10" cx="183.646" cy="265.818" r="4.603"/>
		<circle fill="none" stroke="#C6C7E5" stroke-linejoin="round" stroke-miterlimit="10" cx="122.156" cy="158.874" r="4.603"/>
		<circle fill="none" stroke="#C6C7E5" stroke-linejoin="round" stroke-miterlimit="10" cx="641.445" cy="209.983" r="4.604"/>
		<circle fill="none" stroke="#C6C7E5" stroke-linejoin="round" stroke-miterlimit="10" cx="154.5" cy="154.006" r="2.387"/>
		<circle fill="none" stroke="#C6C7E5" stroke-linejoin="round" stroke-miterlimit="10" cx="38.181" cy="269.768" r="2.386"/>
		<circle fill="none" stroke="#C6C7E5" stroke-linejoin="round" stroke-miterlimit="10" cx="258.42" cy="145.233" r="2.386"/>
		<circle fill="none" stroke="#C6C7E5" stroke-linejoin="round" stroke-miterlimit="10" cx="600.348" cy="179.053" r="2.387"/>
		<circle fill="none" stroke="#C6C7E5" stroke-linejoin="round" stroke-miterlimit="10" cx="551.473" cy="332.997" r="2.386"/>
		
			<line fill="none" stroke="#C6C7E5" stroke-linejoin="round" stroke-miterlimit="10" x1="81.384" y1="198.606" x2="93.696" y2="198.606"/>
		
			<line fill="none" stroke="#C6C7E5" stroke-linejoin="round" stroke-miterlimit="10" x1="64.023" y1="192.53" x2="87.54" y2="192.53"/>
		
			<line fill="none" stroke="#C6C7E5" stroke-linejoin="round" stroke-miterlimit="10" x1="290.228" y1="118.854" x2="307.539" y2="118.854"/>
		
			<line fill="none" stroke="#C6C7E5" stroke-linejoin="round" stroke-miterlimit="10" x1="306.424" y1="124.928" x2="318.735" y2="124.928"/>
		
			<line fill="none" stroke="#C6C7E5" stroke-linejoin="round" stroke-miterlimit="10" x1="645.531" y1="253.163" x2="661.116" y2="253.163"/>
		
			<line fill="none" stroke="#C6C7E5" stroke-linejoin="round" stroke-miterlimit="10" x1="665.878" y1="253.163" x2="673.498" y2="253.163"/>
		
			<line fill="none" stroke="#C6C7E5" stroke-linejoin="round" stroke-miterlimit="10" x1="284.688" y1="167.859" x2="296.999" y2="167.859"/>
		<g>
			
				<line fill="none" stroke="#C6C7E5" stroke-linecap="round" stroke-linejoin="round" stroke-miterlimit="10" x1="86.519" y1="232.495" x2="86.519" y2="237.452"/>
			
				<line fill="none" stroke="#C6C7E5" stroke-linecap="round" stroke-linejoin="round" stroke-miterlimit="10" x1="88.998" y1="234.974" x2="84.041" y2="234.974"/>
		</g>
		<g>
			
				<line fill="none" stroke="#C6C7E5" stroke-linecap="round" stroke-linejoin="round" stroke-miterlimit="10" x1="497.571" y1="153.914" x2="497.571" y2="158.871"/>
			
				<line fill="none" stroke="#C6C7E5" stroke-linecap="round" stroke-linejoin="round" stroke-miterlimit="10" x1="500.05" y1="156.393" x2="495.093" y2="156.393"/>
		</g>
		<g>
			
				<line fill="none" stroke="#C6C7E5" stroke-linecap="round" stroke-linejoin="round" stroke-miterlimit="10" x1="329.675" y1="149.733" x2="329.675" y2="154.69"/>
			
				<line fill="none" stroke="#C6C7E5" stroke-linecap="round" stroke-linejoin="round" stroke-miterlimit="10" x1="332.153" y1="152.212" x2="327.196" y2="152.212"/>
		</g>
		<g>
			
				<line fill="none" stroke="#C6C7E5" stroke-linecap="round" stroke-linejoin="round" stroke-miterlimit="10" x1="673.498" y1="363.587" x2="673.498" y2="368.544"/>
			
				<line fill="none" stroke="#C6C7E5" stroke-linecap="round" stroke-linejoin="round" stroke-miterlimit="10" x1="675.977" y1="366.065" x2="671.02" y2="366.065"/>
		</g>
	</g>
	<g>
		
			<rect x="198.771" y="167.667" fill="#FFFFFF" stroke="#808BC5" stroke-linejoin="round" stroke-miterlimit="10" width="308.457" height="205.676"/>
		
			<rect x="208.771" y="177.667" fill="none" stroke="#808BC5" stroke-linejoin="round" stroke-miterlimit="10" width="288.458" height="185.676"/>
		<g>
			<g>
				<path fill="#FFFFFF" stroke="#808BC5" stroke-linejoin="round" stroke-miterlimit="10" d="M310.515,270.593
					c0-23.464,19.021-42.485,42.485-42.485s42.485,19.021,42.485,42.485c0,9.353-3.025,17.998-8.146,25.016l0,0
					c-6.064,9.139-21.821,19.456-21.821,25.637v7.063c0,1.409-1.144,2.552-2.553,2.552h-6.827h-6.275h-6.828
					c-1.41,0-2.552-1.143-2.552-2.552v-7.063c0-6.181-15.757-16.498-21.821-25.637l0,0
					C313.54,288.591,310.515,279.946,310.515,270.593z"/>
			</g>
			<g>
				<path fill="#808BC5" d="M357.824,330.156c-0.05-1.064-0.81-18.119,0.556-33.065c-1.674,0.198-3.465,0.304-5.38,0.304
					s-3.706-0.105-5.379-0.304c1.365,14.946,0.604,32.001,0.555,33.065l-0.749-0.035c0.012-0.263,0.8-17.902-0.596-33.132
					c-12.601-1.752-18.241-8.891-19.254-15.628c-0.592-3.938,0.753-7.856,3.198-9.318c1.483-0.887,3.275-1.066,5.182-0.519
					c3.001,0.861,5.853,3.447,7.629,6.917c2.051,4.008,3.263,10.662,3.962,17.885c1.69,0.208,3.504,0.318,5.452,0.318
					s3.762-0.111,5.451-0.318c0.699-7.224,1.912-13.877,3.963-17.885c1.776-3.47,4.629-6.056,7.63-6.917
					c1.906-0.547,3.699-0.368,5.182,0.519c2.444,1.462,3.79,5.381,3.197,9.318c-1.013,6.737-6.652,13.875-19.254,15.628
					c-1.396,15.229-0.607,32.869-0.596,33.132L357.824,330.156z M372.146,271.965c-0.608,0-1.243,0.093-1.896,0.28
					c-2.805,0.805-5.484,3.249-7.168,6.538c-1.973,3.854-3.151,10.345-3.84,17.438c12.07-1.74,17.474-8.545,18.439-14.971
					c0.54-3.591-0.682-7.272-2.841-8.563C374.038,272.207,373.126,271.965,372.146,271.965z M333.855,271.965
					c-0.981,0-1.893,0.242-2.696,0.722c-2.159,1.291-3.38,4.972-2.841,8.563c0.966,6.425,6.369,13.23,18.439,14.971
					c-0.688-7.093-1.867-13.584-3.84-17.438c-1.684-3.289-4.363-5.733-7.168-6.538C335.098,272.058,334.463,271.965,333.855,271.965
					z"/>
			</g>
			<g>
				<path fill="#EDEEF8" d="M388.412,273.031c-1.347,0-2.438-1.091-2.438-2.438c0-15.117-10.22-28.263-24.854-31.968
					c-1.306-0.33-2.096-1.656-1.765-2.961c0.33-1.305,1.655-2.096,2.961-1.765c16.8,4.253,28.533,19.342,28.533,36.694
					C390.85,271.939,389.758,273.031,388.412,273.031z"/>
			</g>
			<g>
				<circle fill="#EDEEF8" cx="354.619" cy="235.115" r="2.438"/>
			</g>
			<g>
				<path fill="#FFFFFF" stroke="#808BC5" stroke-linejoin="round" stroke-miterlimit="10" d="M366.521,324.262h-27.042v12.889
					c0,2.104,0.599,4.165,1.727,5.942l0,0c2.132,3.358,5.834,5.394,9.812,5.394h3.965c3.979,0,7.68-2.035,9.813-5.394l0,0
					c1.127-1.777,1.727-3.838,1.727-5.942V324.262z"/>
			</g>
			<g>
				<g>
					<path fill="#FFFFFF" stroke="#808BC5" stroke-linejoin="round" stroke-miterlimit="10" d="M365.443,344.69
						c-0.077,0.004-0.155,0.003-0.233-0.004l-25.633-2.209c-0.923-0.08-1.567-0.897-1.44-1.828c0.128-0.93,0.983-1.62,1.903-1.539
						l25.632,2.209c0.923,0.079,1.568,0.897,1.44,1.828C366.996,343.998,366.272,344.647,365.443,344.69z"/>
				</g>
			</g>
			<g>
				<g>
					<path fill="#FFFFFF" stroke="#808BC5" stroke-linejoin="round" stroke-miterlimit="10" d="M366.523,333.188
						c-0.077,0.004-0.155,0.003-0.234-0.004l-27.042-2.331c-0.923-0.079-1.567-0.897-1.439-1.827c0.128-0.931,0.982-1.62,1.903-1.54
						l27.042,2.331c0.923,0.079,1.568,0.897,1.439,1.827C368.076,332.494,367.353,333.144,366.523,333.188z"/>
				</g>
			</g>
			<g>
				<g>
					<path fill="#FFFFFF" stroke="#808BC5" stroke-linejoin="round" stroke-miterlimit="10" d="M366.523,339.086
						c-0.077,0.004-0.155,0.003-0.234-0.004l-27.042-2.33c-0.923-0.08-1.567-0.898-1.439-1.828s0.982-1.618,1.903-1.539l27.042,2.33
						c0.923,0.079,1.568,0.897,1.439,1.827C368.076,338.394,367.353,339.043,366.523,339.086z"/>
				</g>
			</g>
			<g>
				
					<line fill="none" stroke="#808BC5" stroke-linejoin="round" stroke-miterlimit="10" x1="353.076" y1="206.925" x2="353.076" y2="221.573"/>
				
					<line fill="none" stroke="#808BC5" stroke-linejoin="round" stroke-miterlimit="10" x1="398.306" y1="225.723" x2="387.947" y2="236.081"/>
				
					<line fill="none" stroke="#808BC5" stroke-linejoin="round" stroke-miterlimit="10" x1="307.803" y1="225.614" x2="318.161" y2="235.973"/>
				
					<line fill="none" stroke="#808BC5" stroke-linejoin="round" stroke-miterlimit="10" x1="328.581" y1="211.767" x2="334.187" y2="225.3"/>
				
					<line fill="none" stroke="#808BC5" stroke-linejoin="round" stroke-miterlimit="10" x1="377.561" y1="211.825" x2="371.955" y2="225.359"/>
				
					<line fill="none" stroke="#808BC5" stroke-linejoin="round" stroke-miterlimit="10" x1="412.153" y1="246.5" x2="398.619" y2="252.106"/>
				
					<line fill="none" stroke="#808BC5" stroke-linejoin="round" stroke-miterlimit="10" x1="293.905" y1="246.359" x2="307.439" y2="251.965"/>
			</g>
		</g>
		<g>
			<g>
				<g>
					<rect x="224.791" y="223.334" opacity="0.35" fill="#ADB2DA" width="18.789" height="15.135"/>
					
						<line opacity="0.35" fill="none" stroke="#ADB2DA" stroke-miterlimit="10" x1="252.214" y1="223.334" x2="265.204" y2="223.334"/>
					
						<line opacity="0.35" fill="none" stroke="#ADB2DA" stroke-miterlimit="10" x1="252.214" y1="238.469" x2="278.483" y2="238.469"/>
					<line opacity="0.35" fill="none" stroke="#ADB2DA" stroke-miterlimit="10" x1="252.214" y1="233.6" x2="278.483" y2="233.6"/>
					
						<line opacity="0.35" fill="none" stroke="#ADB2DA" stroke-miterlimit="10" x1="252.214" y1="228.856" x2="278.483" y2="228.856"/>
				</g>
				<g>
					<rect x="224.791" y="253.466" opacity="0.35" fill="#ADB2DA" width="18.789" height="15.135"/>
					
						<line opacity="0.35" fill="none" stroke="#ADB2DA" stroke-miterlimit="10" x1="252.214" y1="253.466" x2="265.204" y2="253.466"/>
					
						<line opacity="0.35" fill="none" stroke="#ADB2DA" stroke-miterlimit="10" x1="252.214" y1="268.602" x2="278.483" y2="268.602"/>
					
						<line opacity="0.35" fill="none" stroke="#ADB2DA" stroke-miterlimit="10" x1="252.214" y1="263.732" x2="278.483" y2="263.732"/>
					
						<line opacity="0.35" fill="none" stroke="#ADB2DA" stroke-miterlimit="10" x1="252.214" y1="258.989" x2="278.483" y2="258.989"/>
				</g>
				<g>
					<rect x="224.791" y="283.599" opacity="0.35" fill="#ADB2DA" width="18.789" height="15.135"/>
					
						<line opacity="0.35" fill="none" stroke="#ADB2DA" stroke-miterlimit="10" x1="252.214" y1="283.599" x2="265.204" y2="283.599"/>
					
						<line opacity="0.35" fill="none" stroke="#ADB2DA" stroke-miterlimit="10" x1="252.214" y1="298.734" x2="278.483" y2="298.734"/>
					
						<line opacity="0.35" fill="none" stroke="#ADB2DA" stroke-miterlimit="10" x1="252.214" y1="293.864" x2="278.483" y2="293.864"/>
					
						<line opacity="0.35" fill="none" stroke="#ADB2DA" stroke-miterlimit="10" x1="252.214" y1="289.121" x2="278.483" y2="289.121"/>
				</g>
				<g>
					<rect x="224.791" y="313.731" opacity="0.35" fill="#ADB2DA" width="18.789" height="15.135"/>
					
						<line opacity="0.35" fill="none" stroke="#ADB2DA" stroke-miterlimit="10" x1="252.214" y1="313.731" x2="265.204" y2="313.731"/>
					
						<line opacity="0.35" fill="none" stroke="#ADB2DA" stroke-miterlimit="10" x1="252.214" y1="328.866" x2="278.483" y2="328.866"/>
					
						<line opacity="0.35" fill="none" stroke="#ADB2DA" stroke-miterlimit="10" x1="252.214" y1="323.997" x2="278.483" y2="323.997"/>
					
						<line opacity="0.35" fill="none" stroke="#ADB2DA" stroke-miterlimit="10" x1="252.214" y1="319.254" x2="278.483" y2="319.254"/>
				</g>
			</g>
			<g>
				<g>
					<rect x="427.517" y="223.334" opacity="0.35" fill="#ADB2DA" width="18.79" height="15.135"/>
					
						<line opacity="0.35" fill="none" stroke="#ADB2DA" stroke-miterlimit="10" x1="454.939" y1="223.334" x2="467.93" y2="223.334"/>
					
						<line opacity="0.35" fill="none" stroke="#ADB2DA" stroke-miterlimit="10" x1="454.939" y1="238.469" x2="481.209" y2="238.469"/>
					<line opacity="0.35" fill="none" stroke="#ADB2DA" stroke-miterlimit="10" x1="454.939" y1="233.6" x2="481.209" y2="233.6"/>
					
						<line opacity="0.35" fill="none" stroke="#ADB2DA" stroke-miterlimit="10" x1="454.939" y1="228.856" x2="481.209" y2="228.856"/>
				</g>
				<g>
					<rect x="427.517" y="253.466" opacity="0.35" fill="#ADB2DA" width="18.79" height="15.135"/>
					
						<line opacity="0.35" fill="none" stroke="#ADB2DA" stroke-miterlimit="10" x1="454.939" y1="253.466" x2="467.93" y2="253.466"/>
					
						<line opacity="0.35" fill="none" stroke="#ADB2DA" stroke-miterlimit="10" x1="454.939" y1="268.602" x2="481.209" y2="268.602"/>
					
						<line opacity="0.35" fill="none" stroke="#ADB2DA" stroke-miterlimit="10" x1="454.939" y1="263.732" x2="481.209" y2="263.732"/>
					
						<line opacity="0.35" fill="none" stroke="#ADB2DA" stroke-miterlimit="10" x1="454.939" y1="258.989" x2="481.209" y2="258.989"/>
				</g>
				<g>
					<rect x="427.517" y="283.599" opacity="0.35" fill="#ADB2DA" width="18.79" height="15.135"/>
					
						<line opacity="0.35" fill="none" stroke="#ADB2DA" stroke-miterlimit="10" x1="454.939" y1="283.599" x2="467.93" y2="283.599"/>
					
						<line opacity="0.35" fill="none" stroke="#ADB2DA" stroke-miterlimit="10" x1="454.939" y1="298.734" x2="481.209" y2="298.734"/>
					
						<line opacity="0.35" fill="none" stroke="#ADB2DA" stroke-miterlimit="10" x1="454.939" y1="293.864" x2="481.209" y2="293.864"/>
					
						<line opacity="0.35" fill="none" stroke="#ADB2DA" stroke-miterlimit="10" x1="454.939" y1="289.121" x2="481.209" y2="289.121"/>
				</g>
				<g>
					<rect x="427.517" y="313.731" opacity="0.35" fill="#ADB2DA" width="18.79" height="15.135"/>
					
						<line opacity="0.35" fill="none" stroke="#ADB2DA" stroke-miterlimit="10" x1="454.939" y1="313.731" x2="467.93" y2="313.731"/>
					
						<line opacity="0.35" fill="none" stroke="#ADB2DA" stroke-miterlimit="10" x1="454.939" y1="328.866" x2="481.209" y2="328.866"/>
					
						<line opacity="0.35" fill="none" stroke="#ADB2DA" stroke-miterlimit="10" x1="454.939" y1="323.997" x2="481.209" y2="323.997"/>
					
						<line opacity="0.35" fill="none" stroke="#ADB2DA" stroke-miterlimit="10" x1="454.939" y1="319.254" x2="481.209" y2="319.254"/>
				</g>
			</g>
		</g>
		<g>
			
				<line fill="none" stroke="#808BC5" stroke-linejoin="round" stroke-miterlimit="10" x1="479.927" y1="167.667" x2="479.927" y2="132.08"/>
			<circle fill="none" stroke="#808BC5" stroke-linejoin="round" stroke-miterlimit="10" cx="479.926" cy="129.244" r="2.835"/>
			
				<line fill="none" stroke="#808BC5" stroke-linejoin="round" stroke-miterlimit="10" x1="226.074" y1="167.667" x2="226.074" y2="132.08"/>
			<circle fill="none" stroke="#808BC5" stroke-linejoin="round" stroke-miterlimit="10" cx="226.074" cy="129.244" r="2.836"/>
		</g>
		
			<line opacity="0.35" fill="none" stroke="#ADB2DA" stroke-width="2" stroke-linecap="round" stroke-linejoin="round" stroke-miterlimit="10" x1="311.201" y1="187.279" x2="394.799" y2="187.279"/>
		
			<line opacity="0.35" fill="none" stroke="#ADB2DA" stroke-width="2" stroke-linecap="round" stroke-linejoin="round" stroke-miterlimit="10" x1="287.182" y1="196.379" x2="418.818" y2="196.379"/>
	</g>
	<g>
		<g>
			<g>
				<g>
					<path fill="#FFFFFF" stroke="#C6C7E5" stroke-linejoin="round" stroke-miterlimit="10" d="M567.298,432.104
						c-5.829-16.202-20.229-51.187-7.052-101.806c22.868,28.273,24.332,69.108,21.986,105.976"/>
					<path fill="none" stroke="#C6C7E5" stroke-linejoin="round" stroke-miterlimit="10" d="M560.246,330.299
						c0,0,4.935,64.438,13.945,105.111"/>
					<path fill="none" stroke="#C6C7E5" stroke-linejoin="round" stroke-miterlimit="10" d="M560.246,330.299
						c0,0-5.299,46.011,9.777,104.286"/>
					<path fill="none" stroke="#C6C7E5" stroke-linejoin="round" stroke-miterlimit="10" d="M576.873,434.89
						c0,0-6.71-80.794-16.627-104.591"/>
					<path fill="none" stroke="#C6C7E5" stroke-linejoin="round" stroke-miterlimit="10" d="M579.366,435.001
						c0,0,0.938-76.021-19.12-104.702"/>
				</g>
				<g>
					<path fill="#FFFFFF" stroke="#C6C7E5" stroke-linejoin="round" stroke-miterlimit="10" d="M555.489,439.841
						c-8.705-11.541-29.291-36.203-25.532-76.72c27.714,18.336,36.608,49.303,41.021,77.781"/>
					<path fill="none" stroke="#C6C7E5" stroke-linejoin="round" stroke-miterlimit="10" d="M529.957,363.121
						c0,0,9.477,48.397,29.032,76.627"/>
					<path fill="none" stroke="#C6C7E5" stroke-linejoin="round" stroke-miterlimit="10" d="M562.724,440.902
						c0,0-24.651-66.833-32.767-77.781"/>
					<path fill="none" stroke="#C6C7E5" stroke-linejoin="round" stroke-miterlimit="10" d="M567.338,440.902
						c0,0-14.721-60.179-37.381-77.781"/>
				</g>
				<g>
					<path fill="#FFFFFF" stroke="#C6C7E5" stroke-linejoin="round" stroke-miterlimit="10" d="M595.721,431.272
						c7.444-16.732,25.55-52.785,13.668-106.394c-27.206,28.659-31.161,71.393-30.624,110.129"/>
					<path fill="none" stroke="#C6C7E5" stroke-linejoin="round" stroke-miterlimit="10" d="M609.389,324.879
						c0,0-9.179,67.322-21.573,109.565"/>
					<path fill="none" stroke="#C6C7E5" stroke-linejoin="round" stroke-miterlimit="10" d="M609.389,324.879
						c0,0,3.324,48.445-16.859,108.877"/>
					<path fill="none" stroke="#C6C7E5" stroke-linejoin="round" stroke-miterlimit="10" d="M584.844,433.785
						c0,0,12.093-84.389,24.545-108.906"/>
					<path fill="none" stroke="#C6C7E5" stroke-linejoin="round" stroke-miterlimit="10" d="M582.045,433.796
						c0,0,3.261-79.711,27.344-108.917"/>
				</g>
				<g>
					<path fill="#FFFFFF" stroke="#C6C7E5" stroke-linejoin="round" stroke-miterlimit="10" d="M600.32,451.502
						c9.11-13.361,30.365-41.753,31.434-91.448c-26.979,20.1-38.396,57.127-45.502,91.484"/>
					<path fill="none" stroke="#C6C7E5" stroke-linejoin="round" stroke-miterlimit="10" d="M631.754,360.054
						c0,0-13.857,58.228-34.575,91.051"/>
					<path fill="none" stroke="#C6C7E5" stroke-linejoin="round" stroke-miterlimit="10" d="M593.688,452.208
						c0,0,29.553-79.468,38.066-92.154"/>
					<path fill="none" stroke="#C6C7E5" stroke-linejoin="round" stroke-miterlimit="10" d="M589.53,451.834
						c0,0,19.878-72.164,42.224-91.78"/>
				</g>
				<g id="XMLID_15_">
					<path fill="#E6E9F6" d="M615.71,431.17v15.314c0,33.903-13.806,55.722-13.806,55.722h-42.75c0,0-13.805-21.818-13.805-55.722
						V431.17H615.71z"/>
				</g>
			</g>
		</g>
		<g>
			<g>
				<g>
					<path fill="#FFFFFF" stroke="#C6C7E5" stroke-linejoin="round" stroke-miterlimit="10" d="M57.229,430.823
						c-5.141-22.768-18.068-71.86-2.513-144.189c21.761,39.247,21.394,97.135,17.368,149.537"/>
					<path fill="none" stroke="#C6C7E5" stroke-linejoin="round" stroke-miterlimit="10" d="M54.716,286.634
						c0,0,2.065,91.247,9.308,148.618"/>
					<path fill="none" stroke="#C6C7E5" stroke-linejoin="round" stroke-miterlimit="10" d="M54.716,286.634
						c0,0-7.412,65.49,5.146,147.605"/>
					<path fill="none" stroke="#C6C7E5" stroke-linejoin="round" stroke-miterlimit="10" d="M66.748,434.411
						c0,0-3.115-114.389-12.032-147.777"/>
					<path fill="none" stroke="#C6C7E5" stroke-linejoin="round" stroke-miterlimit="10" d="M69.254,434.475
						c0,0,4.373-107.907-14.539-147.84"/>
				</g>
				<g>
					<path fill="#FFFFFF" stroke="#C6C7E5" stroke-linejoin="round" stroke-miterlimit="10" d="M46.321,439.588
						c-8.705-14.291-29.291-44.831-25.532-95.003c27.713,22.704,36.608,61.052,41.021,96.317"/>
					<path fill="none" stroke="#C6C7E5" stroke-linejoin="round" stroke-miterlimit="10" d="M20.789,344.585
						c0,0,9.477,59.931,29.032,94.888"/>
					<path fill="none" stroke="#C6C7E5" stroke-linejoin="round" stroke-miterlimit="10" d="M53.556,440.902
						c0,0-24.651-82.761-32.767-96.317"/>
					<path fill="none" stroke="#C6C7E5" stroke-linejoin="round" stroke-miterlimit="10" d="M58.17,440.902
						c0,0-14.721-74.521-37.381-96.317"/>
				</g>
				<g>
					<path fill="#FFFFFF" stroke="#C6C7E5" stroke-linejoin="round" stroke-miterlimit="10" d="M87.951,430.54
						c7.026-20.034,24.139-63.192,12.48-127.543c-25.857,34.248-29.401,85.484-28.673,131.945"/>
					<path fill="none" stroke="#C6C7E5" stroke-linejoin="round" stroke-miterlimit="10" d="M100.431,302.997
						c0,0-8.404,80.702-20.021,131.312"/>
					<path fill="none" stroke="#C6C7E5" stroke-linejoin="round" stroke-miterlimit="10" d="M100.431,302.997
						c0,0,3.447,58.118-15.518,130.507"/>
					<path fill="none" stroke="#C6C7E5" stroke-linejoin="round" stroke-miterlimit="10" d="M77.564,433.504
						c0,0,11.096-101.158,22.867-130.507"/>
					<path fill="none" stroke="#C6C7E5" stroke-linejoin="round" stroke-miterlimit="10" d="M74.889,433.504
						c0,0,2.675-95.588,25.542-130.507"/>
				</g>
				<g>
					<path fill="#FFFFFF" stroke="#C6C7E5" stroke-linejoin="round" stroke-miterlimit="10" d="M93.152,451.502
						c9.11-13.361,30.365-41.753,31.434-91.448c-26.979,20.1-38.396,57.127-45.503,91.484"/>
					<path fill="none" stroke="#C6C7E5" stroke-linejoin="round" stroke-miterlimit="10" d="M124.586,360.054
						c0,0-13.858,58.228-34.576,91.051"/>
					<path fill="none" stroke="#C6C7E5" stroke-linejoin="round" stroke-miterlimit="10" d="M86.519,452.208
						c0,0,29.553-79.468,38.067-92.154"/>
					<path fill="none" stroke="#C6C7E5" stroke-linejoin="round" stroke-miterlimit="10" d="M82.363,451.834
						c0,0,19.877-72.164,42.224-91.78"/>
				</g>
				<g id="XMLID_14_">
					<path fill="#E6E9F6" d="M108.542,431.17v15.314c0,33.903-13.806,55.722-13.806,55.722h-42.75c0,0-13.806-21.818-13.806-55.722
						V431.17H108.542z"/>
				</g>
			</g>
		</g>
		<g>
			<g>
				<g>
					<path fill="#FFFFFF" stroke="#C6C7E5" stroke-linejoin="round" stroke-miterlimit="10" d="M450.29,451.893
						c-3.494-11.79-12.522-37.477,2.263-70.38c16.816,23.972,14.467,50.226,9.635,75.098"/>
					<path fill="none" stroke="#C6C7E5" stroke-linejoin="round" stroke-miterlimit="10" d="M452.553,381.513
						c0,0-5.71,31.12,2.033,72.79"/>
					<path fill="none" stroke="#C6C7E5" stroke-linejoin="round" stroke-miterlimit="10" d="M455.647,454.619
						c0,0,3.146-55.62-3.095-73.106"/>
					<path fill="none" stroke="#C6C7E5" stroke-linejoin="round" stroke-miterlimit="10" d="M457.681,455.007
						c0,0,9.03-51.402-5.128-73.494"/>
				</g>
				<g>
					<path fill="#FFFFFF" stroke="#C6C7E5" stroke-linejoin="round" stroke-miterlimit="10" d="M438.653,459.71
						c-7.016-6.271-23.311-19.302-25.378-47.747c20.272,7.362,29.589,26.899,35.68,45.572"/>
					<path fill="none" stroke="#C6C7E5" stroke-linejoin="round" stroke-miterlimit="10" d="M413.275,411.963
						c0,0,7.103,23.973,28.611,48.19"/>
					<path fill="none" stroke="#C6C7E5" stroke-linejoin="round" stroke-miterlimit="10" d="M445.281,458.37
						c0,0-23.705-34.339-32.006-46.407"/>
					<path fill="none" stroke="#C6C7E5" stroke-linejoin="round" stroke-miterlimit="10" d="M446.881,457.722
						c0,0-16.396-34.508-33.605-45.759"/>
				</g>
				<g>
					<path fill="#FFFFFF" stroke="#C6C7E5" stroke-linejoin="round" stroke-miterlimit="10" d="M445.315,452.682
						c-5.565-8.189-21.811-32.838-16.846-59.005c18.756,14.058,26.299,41.94,27.846,60.864"/>
					<path fill="none" stroke="#C6C7E5" stroke-linejoin="round" stroke-miterlimit="10" d="M428.47,393.677
						c0,0,6.978,39.306,19.351,59.208"/>
					<path fill="none" stroke="#C6C7E5" stroke-linejoin="round" stroke-miterlimit="10" d="M450.422,453.92
						c0,0-16.773-52.484-21.952-60.243"/>
					<path fill="none" stroke="#C6C7E5" stroke-linejoin="round" stroke-miterlimit="10" d="M453.717,454.268
						c0,0-10.059-47.393-25.247-60.591"/>
				</g>
				<g>
					<path fill="#FFFFFF" stroke="#C6C7E5" stroke-linejoin="round" stroke-miterlimit="10" d="M472.126,452.219
						c4.762-10.609,16.359-33.466,8.458-67.545c-17.523,18.138-19.926,45.271-19.433,69.877"/>
					<path fill="none" stroke="#C6C7E5" stroke-linejoin="round" stroke-miterlimit="10" d="M480.584,384.674
						c0,0-8.281,39.436-14.468,68.772"/>
					<path fill="none" stroke="#C6C7E5" stroke-linejoin="round" stroke-miterlimit="10" d="M480.584,384.674
						c0,0,1.883,30.779-10.97,69.114"/>
					<path fill="none" stroke="#C6C7E5" stroke-linejoin="round" stroke-miterlimit="10" d="M463.273,453.788
						c0,0,3.578-46.229,17.311-69.114"/>
				</g>
				<g>
					<path fill="#FFFFFF" stroke="#C6C7E5" stroke-linejoin="round" stroke-miterlimit="10" d="M472.651,463.32
						c6.174-7.076,22.033-24.738,23.303-48.43c-18.284,10.645-26.021,30.253-30.838,48.448"/>
					<path fill="none" stroke="#C6C7E5" stroke-linejoin="round" stroke-miterlimit="10" d="M495.954,414.891
						c0,0-11.353,30-25.395,47.383"/>
					<path fill="none" stroke="#C6C7E5" stroke-linejoin="round" stroke-miterlimit="10" d="M467.156,462.273
						c0,0,17.082-35.979,28.798-47.383"/>
				</g>
				<g id="XMLID_13_">
					<path fill="#E6E9F6" d="M486.478,450.257v11.199c0,24.794-12.044,40.75-12.044,40.75h-37.292c0,0-12.043-15.956-12.043-40.75
						v-11.199H486.478z"/>
				</g>
			</g>
		</g>
	</g>
	
		<line fill="none" stroke="#808BC5" stroke-linejoin="round" stroke-miterlimit="10" x1="25.198" y1="502.838" x2="680.802" y2="502.838"/>
	<g>
		<g>
			<path fill="#FBCBC3" d="M630.839,254.805l1.393,11.942c0,0-4.46,4.819-11.206,4.819c-6.747,0-6.747-4.498-6.747-4.498
				l1.285-10.28l10.373-10.885L630.839,254.805"/>
			<g>
				<path fill="#F8BBAF" d="M612.243,246.907c-0.027-0.432-0.556-0.663-0.985-0.605c-0.61,0.083-1.121,0.546-1.398,1.096
					s-0.353,1.18-0.37,1.796c-0.017,0.572,0.019,1.167,0.282,1.676c0.469,0.904,1.691,1.327,2.618,0.905"/>
			</g>
			<path fill="#FBCBC3" d="M612.772,238.798c0,0-3.565,13.596-1.606,16.384c2.935,4.176,9.914,4.498,12.855,2.57
				c2.467-1.617,4.493-10.28,4.493-12.529C628.515,239.119,615.985,235.585,612.772,238.798z"/>
			<g>
				<path fill="#222237" d="M632.988,249.039c0.108-0.45,0.232-0.896,0.394-1.346c0.383-1.065,0.967-2.007,1.385-3.055
					c0.836-2.094,0.142-4.698-1.626-6.098c-0.313-0.249-0.657-0.463-0.936-0.751c-0.626-0.647-0.844-1.572-1.206-2.396
					c-0.296-0.673-0.729-1.324-1.379-1.669c-1.49-0.795-3.476,0.282-4.966-0.513c-0.322-0.172-0.596-0.422-0.887-0.643
					c-2.138-1.616-4.563-1.239-6.892-0.397c-1.09,0.394-1.447,0.824-2.354,1.53c-0.991,0.771-2.363,0.72-3.36,1.475
					c-1.046,0.792-1.31,2.248-1.32,3.56c-0.004,0.476,0.019,0.966,0.22,1.397c0.259,0.554,0.784,0.941,1.341,1.194
					c1.336,0.608,2.837,0.374,4.254,0.267c1.384-0.104,2.99-1.079,4.344-0.574c1.32,0.493,1.658,2.112,3.283,2.238
					c0.641,0.05,1.42-0.067,1.803,0.449c0.433,0.583,0.205,1.542,0.546,2.216c0.322,0.636,0.886,1.209,1.299,1.796
					c0.821,1.166,1.985,1.966,1.569,3.487c-0.289,1.058-1.465,2.756-0.979,3.876c0.32,0.738,1.945,0.726,3.175-0.21
					c1.267-0.964,1.644-2.801,1.954-4.265C632.762,250.072,632.865,249.553,632.988,249.039z"/>
			</g>
			<path fill="none" stroke="#F8A895" stroke-width="0.75" stroke-miterlimit="10" d="M615.35,258.497c0,0,4.681,0.923,7.905-0.808
				c2.543-1.364,3.459-4.526,3.459-4.526"/>
			<g>
				<path fill="#FBCBC3" d="M625.126,248.722c0.296-0.501,1.287-1.152,1.83-1.094c0.544,0.059,1.042,0.385,1.422,0.813
					c1.785,2.008-0.157,5.841-2.894,5.417c-1.004-0.155-0.729-1.484-0.729-1.484"/>
			</g>
			<path fill="none" stroke="#F8A895" stroke-width="0.5" stroke-miterlimit="10" d="M615.059,245.903c0,0-2.08,3.202-1.883,4.092
				c0.196,0.891,2.315,0.995,2.315,0.995"/>
			<path fill="#FFFFFF" d="M613.17,252.087l5.782,0.807c0,0-1.103,2.984-4.247,2.323C612.463,254.746,613.17,252.087,613.17,252.087
				z"/>
			<g>
				<g>
					<path fill="#222237" d="M612.704,244.906c-0.102,0.241-0.186,0.486-0.259,0.737c-0.142,0.49,0.631,0.701,0.762,0.21
						c0.066-0.252,0.121-0.506,0.159-0.764C613.432,244.647,612.875,244.496,612.704,244.906L612.704,244.906z"/>
				</g>
			</g>
			
				<path fill="none" stroke="#222237" stroke-width="0.5" stroke-linecap="round" stroke-linejoin="round" stroke-miterlimit="10" d="
				M614.561,243.535c0,0-0.889-1.193-2.171-0.255"/>
			<g>
				<g>
					<path fill="#222237" d="M619.287,246.443c-0.087,0.246-0.156,0.494-0.216,0.748c-0.114,0.497,0.659,0.706,0.762,0.21
						c0.059-0.287,0.103-0.575,0.129-0.867C619.999,246.126,619.408,246.099,619.287,246.443L619.287,246.443z"/>
				</g>
			</g>
			
				<path fill="none" stroke="#222237" stroke-width="0.5" stroke-linecap="round" stroke-linejoin="round" stroke-miterlimit="10" d="
				M619.005,244.198c0,0,1.414-0.484,2.883,1.186"/>
		</g>
		<g>
			<g>
				<g>
					<g>
						<path fill="#FBCBC3" d="M610.014,462.959l-2.749,27.586l0.232,8.676l-34.017-0.174c-0.831-0.004-1.5-0.682-1.496-1.512l0,0
							c0.003-0.622,0.389-1.178,0.971-1.398l14.671-6.746l1.407-28.702"/>
						<path fill="#06203A" d="M570.496,498.681c0.348-1.09,0.986-2.313,1.629-2.59l15.556-6.7
							c8.574,3.476,19.674,0.819,19.674,0.819l1.979,11.712c-0.002,0.388-0.318,0.7-0.706,0.698h-37.871
							C569.994,502.616,570.485,498.715,570.496,498.681z"/>
						<path fill="none" stroke="#4774BA" stroke-width="0.75" stroke-miterlimit="10" d="M584.314,490.062
							c0.871,1.136,1.608,2.375,2.192,3.683"/>
						<path fill="none" stroke="#4774BA" stroke-width="0.75" stroke-miterlimit="10" d="M582.355,491.232
							c0.903,1.25,1.264,1.972,1.803,3.131"/>
						<path fill="none" stroke="#4774BA" stroke-width="0.75" stroke-miterlimit="10" d="M580.7,492.087
							c0.613,0.824,1.215,1.964,1.69,2.873"/>
					</g>
					
						<line fill="none" stroke="#4774BA" stroke-width="0.75" stroke-miterlimit="10" x1="609.134" y1="500.092" x2="570.336" y2="499.893"/>
					<path fill="none" stroke="#4774BA" stroke-width="0.75" stroke-miterlimit="10" d="M608.056,494.363
						c0,0-9.114,0.186-9.897,5.677"/>
					<path fill="none" stroke="#4774BA" stroke-width="0.75" stroke-miterlimit="10" d="M575.313,494.717
						c0,0,2.513,3.571,3.009,5.219"/>
				</g>
			</g>
			<path fill="#2C2F74" d="M594.099,344.496c-5.848,42.011-11.087,141.252-11.087,141.252h29.287c0,0,6.041-62.04,11.172-106.92
				c12.888-21.327,11.885-44.428,13.339-47.497"/>
			<path fill="none" stroke="#485BA9" stroke-width="0.75" stroke-miterlimit="10" d="M608.299,485.748
				c0,0,7.241-68.524,12.372-113.405"/>
			<g>
				<g>
					<g>
						<path fill="#FBCBC3" d="M657.058,462.959l1.251,27.586l0.232,8.676l-34.017-0.174c-0.83-0.004-1.5-0.682-1.496-1.512l0,0
							c0.004-0.622,0.39-1.178,0.972-1.398l14.671-6.746l-2.593-28.702"/>
						<path fill="#06203A" d="M621.54,498.681c0.348-1.09,0.986-2.313,1.63-2.59l15.556-6.7c8.574,3.476,19.673,0.819,19.673,0.819
							l1.979,11.712c-0.002,0.388-0.317,0.7-0.705,0.698h-37.872C621.039,502.616,621.529,498.715,621.54,498.681z"/>
						<path fill="none" stroke="#4774BA" stroke-width="0.75" stroke-miterlimit="10" d="M635.358,490.062
							c0.872,1.136,1.609,2.375,2.193,3.683"/>
						<path fill="none" stroke="#4774BA" stroke-width="0.75" stroke-miterlimit="10" d="M633.4,491.232
							c0.902,1.25,1.263,1.972,1.803,3.131"/>
						<path fill="none" stroke="#4774BA" stroke-width="0.75" stroke-miterlimit="10" d="M631.744,492.087
							c0.613,0.824,1.215,1.964,1.691,2.873"/>
					</g>
					
						<line fill="none" stroke="#4774BA" stroke-width="0.75" stroke-miterlimit="10" x1="660.178" y1="500.092" x2="621.381" y2="499.893"/>
					<path fill="none" stroke="#4774BA" stroke-width="0.75" stroke-miterlimit="10" d="M659.101,494.363
						c0,0-9.114,0.186-9.898,5.677"/>
					<path fill="none" stroke="#4774BA" stroke-width="0.75" stroke-miterlimit="10" d="M626.357,494.717
						c0,0,2.514,3.571,3.009,5.219"/>
				</g>
			</g>
			<path fill="#2C2F74" d="M656.16,340.607c0.786,9.538,0.722,21.32-0.729,32.829c2.5,50.584,5.958,112.312,5.958,112.312h-29.28
				c0,0-14.102-112.026-14.76-145.98"/>
			<path fill="none" stroke="#485BA9" stroke-width="0.75" stroke-miterlimit="10" d="M651.16,340.607
				c0.786,9.538,0.722,21.32-0.729,32.829c2.5,50.584,5.958,112.312,5.958,112.312"/>
			<path fill="none" stroke="#485BA9" stroke-width="0.75" stroke-miterlimit="10" d="M621.683,394.804
				c0,0-4.066-35.131-4.419-48.026"/>
			
				<line fill="none" stroke="#485BA9" stroke-width="0.75" stroke-miterlimit="10" x1="661.067" y1="479.954" x2="631.39" y2="479.954"/>
			
				<line fill="none" stroke="#485BA9" stroke-width="0.75" stroke-miterlimit="10" x1="612.876" y1="479.871" x2="583.391" y2="479.871"/>
			<path fill="none" stroke="#485BA9" stroke-width="0.75" stroke-miterlimit="10" d="M651.486,360.943
				c0,0-8.417,0.654-13.064-11.277"/>
			<path fill="none" stroke="#485BA9" stroke-width="0.75" stroke-miterlimit="10" d="M618.56,360.949c0,0-2.936-0.834-3.21-1.752
				c-0.273-0.918-1.071-11.788-1.071-11.788"/>
			<path fill="none" stroke="#485BA9" stroke-width="0.75" stroke-miterlimit="10" d="M603.533,349.666
				c0,0-0.664,9.798-11.413,11.283"/>
		</g>
		<g>
			<g>
				<path fill="#FBCBC3" d="M563.857,284.637c0,0-13.916-14.726-14.772-14.59s1.034,2.865,0.31,2.845
					c-0.724-0.02-5.095-6.082-5.914-5.718c-1.11,0.493,3.009,5.848,3.009,5.848s-1.09-0.975-1.93-0.268
					c-0.595,0.5,0.229,2.188,0.229,2.188s-1.086-0.521-1.692,0.011c-0.602,0.528,0.166,1.974,0.166,1.974s-1.115-1.133-1.732-0.067
					c-0.578,0.998,3.507,9.375,10.177,18.354"/>
			</g>
			<path fill="#B6CFEC" d="M614.61,264.418c-6.968,0.626-14.483,4.017-19.089,9.966c-7.756,10.015-17.591,22.69-17.591,22.69
				l-16.124-16.48l-15.178,12.646c0,0,21.013,29.632,31.432,29.702c9.367,0.063,25.189-13.379,29.774-20.617
				C617.059,287.765,614.61,264.418,614.61,264.418z"/>
			<path fill="#F2643C" d="M631.784,262.959c0,0-1.94,2.858-9.79,3.667c-5.933,0.611-7.384-2.209-7.384-2.209
				s-14.323,7.63-18.571,39.234c-4.249,31.605-4.663,48.15-4.663,48.15h67.246c0,0,0.227-24.042-1.74-44.712
				C654.859,285.84,650.395,267.88,631.784,262.959z"/>
			<path fill="none" stroke="#F6968C" stroke-width="0.5" stroke-miterlimit="10" d="M550.356,274.245c0,0,0.745,3.121,1.891,5.614"
				/>
			<g>
				<path fill="#F6968C" d="M541.979,278.835c0.583,0.67,1.187,1.324,1.826,1.937c0.318,0.307,0.648,0.603,0.997,0.865
					c0.173,0.132,0.356,0.253,0.54,0.344c0.185,0.117,0.389,0.115,0.442,0.054c0.063-0.094,0.021-0.339-0.034-0.53
					c-0.058-0.202-0.139-0.404-0.226-0.604c-0.178-0.398-0.385-0.787-0.601-1.17c-0.433-0.768-0.916-1.512-1.398-2.248l0.353-0.244
					c0.589,0.8,1.207,1.588,1.863,2.331c0.329,0.369,0.669,0.732,1.034,1.044c0.18,0.151,0.377,0.304,0.555,0.375
					c0.093,0.043,0.151,0.025,0.134,0.029c-0.021,0.027,0.021-0.039,0.012-0.141c-0.102-0.864-0.58-1.826-0.987-2.707
					c-0.434-0.896-0.903-1.779-1.395-2.645l0.381-0.233c0.55,0.856,1.143,1.694,1.756,2.506c0.31,0.402,0.63,0.8,0.981,1.155
					c0.176,0.175,0.362,0.344,0.557,0.46c0.096,0.053,0.199,0.085,0.246,0.07c0.036-0.001,0.066-0.05,0.078-0.163
					c0.012-0.448-0.177-0.958-0.34-1.429c-0.174-0.478-0.365-0.953-0.571-1.422c-0.41-0.939-0.858-1.864-1.33-2.777
					c0.522,0.885,1.021,1.784,1.486,2.704c0.436,0.937,0.964,1.819,1.057,2.947c0.001,0.133-0.063,0.38-0.294,0.444
					c-0.205,0.051-0.358-0.026-0.487-0.086c-0.252-0.139-0.452-0.315-0.646-0.496c-0.383-0.363-0.721-0.758-1.05-1.159
					c-0.657-0.803-1.244-1.65-1.818-2.512l0.381-0.233c0.508,0.873,0.988,1.755,1.438,2.66c0.224,0.453,0.438,0.911,0.633,1.383
					c0.184,0.481,0.387,0.938,0.415,1.534c-0.005,0.139,0.004,0.359-0.227,0.542c-0.234,0.146-0.458,0.071-0.588,0.018
					c-0.287-0.123-0.484-0.294-0.687-0.463c-0.393-0.344-0.734-0.72-1.069-1.102c-0.663-0.767-1.275-1.564-1.866-2.385l0.353-0.244
					c0.492,0.75,0.937,1.523,1.357,2.314c0.207,0.396,0.406,0.8,0.577,1.219c0.084,0.21,0.163,0.424,0.221,0.651
					c0.037,0.228,0.141,0.463-0.029,0.767c-0.269,0.265-0.605,0.118-0.78,0.013c-0.212-0.11-0.391-0.253-0.563-0.398
					c-0.346-0.292-0.661-0.608-0.965-0.935C543.091,280.224,542.524,279.537,541.979,278.835z"/>
			</g>
			<path fill="#B6CFEC" d="M614.61,264.418c-13.784,26.488-14.701,91.755-14.701,91.755h-10.544c0,0,0.492-42.309,8.462-69.902
				C601.213,274.547,609.91,265.254,614.61,264.418"/>
			<path fill="none" stroke="#4254A4" stroke-width="0.75" stroke-linejoin="round" stroke-miterlimit="10" d="M592.015,317.301
				c0,0,2.343-25.607,6.934-34.353"/>
			<path fill="none" stroke="#4254A4" stroke-width="0.75" stroke-linejoin="round" stroke-miterlimit="10" d="M604.65,300.124
				l-2.105-20.266l3.533-1.902l-3.533-2.219c0,0,3.075-5.926,5.754-10.014"/>
			<path fill="#B6CFEC" d="M631.53,262.955c-8.275,17.829-0.938,93.218-0.938,93.218h32.014c0,0-1.516-27.618-2.842-38.339
				c-1.325-10.72-10.039-45.102-10.039-45.102L631.53,262.955z"/>
			<g>
				<path fill="#DCDDEF" d="M651.566,334.345l-30.896,0.434l0.026,1.891l32.627-0.458l0,0
					C653.309,335.167,652.522,334.332,651.566,334.345z"/>
				<path fill="#DCDDEF" d="M583.046,337.196l43.409-0.608l-8.709-29.015c-0.446-1.488-1.727-2.487-3.158-2.468l-39.246,0.551
					c-0.871,0.012-1.479,0.942-1.208,1.848L583.046,337.196z"/>
				<path fill="#F2F5FA" d="M581.096,337.224l43.409-0.608l-8.708-29.015c-0.447-1.488-1.727-2.487-3.159-2.468l-39.246,0.551
					c-0.871,0.012-1.479,0.942-1.208,1.848L581.096,337.224z"/>
				<path fill="#DCDDEF" d="M593.687,321.698c0.273,1.356,1.798,2.438,3.404,2.415c1.605-0.022,2.687-1.141,2.413-2.496
					c-0.273-1.356-1.798-2.437-3.403-2.414C594.494,319.226,593.413,320.343,593.687,321.698z"/>
			</g>
			<g>
				<path fill="#FBCBC3" d="M643.153,301.019c0,0,8.488,14.874,7.992,18.309c-0.374,2.591-23.512,8.53-23.512,8.53l1.045,14.571
					c0,0,38.709-3.29,43.207-11.054c6.156-10.626-10.892-38.134-10.892-38.134"/>
				<g>
					<g>
						<g>
							<path fill="#FBCBC3" d="M632.127,326.982c-3.175,0.558-19.888,3.949-19.688,4.795c0.193,0.814,5.101,0.655,4.954,1.119
								c-0.207,0.658-3.839,1.538-5.92,1.844c-1.856,0.272-4.793,1.015-4.778,1.838c0.026,1.565,10.191-0.061,10.191-0.061
								s-11.258-0.296-11.37,1.017c-0.163,1.891,11.764,1.757,12.183,2.169c0,0-10.373-2.754-10.494-1.354
								c-0.119,1.4,9.081,4.09,11.924,3.892c-2.362-0.276-9.571-3.786-9.625-2.496c-0.055,1.289,6.187,3.109,7.186,3.185
								c8.204,0.62,15.646-1.159,15.646-1.159"/>
						</g>
					</g>
				</g>
				<g>
					<path fill="#F6968C" d="M607.835,337.181c1.324-0.246,2.651-0.354,3.98-0.442c1.33-0.071,2.657-0.115,4.003-0.063
						c-0.652,0.176-1.315,0.279-1.979,0.371c-0.662,0.096-1.329,0.145-1.995,0.19C610.512,337.306,609.175,337.324,607.835,337.181z
						"/>
				</g>
				<g>
					<path fill="#F6968C" d="M609.033,338.922c2.922-0.014,5.767,0.306,8.668,0.425c-0.711,0.181-1.444,0.235-2.173,0.268
						c-0.729,0.037-1.458,0.008-2.185-0.033C611.894,339.479,610.448,339.291,609.033,338.922z"/>
				</g>
				<g>
					<path fill="#F6968C" d="M610.888,340.583c1.305,0.025,2.584,0.173,3.861,0.325c1.277,0.168,2.541,0.353,3.825,0.576
						c-0.648,0.093-1.301,0.094-1.95,0.076c-0.65-0.013-1.295-0.082-1.938-0.156C613.403,341.23,612.128,340.992,610.888,340.583z"
						/>
				</g>
			</g>
			<path fill="#B6CFEC" d="M631.53,262.955c9.045,1.463,20.288,4.285,24.859,10.246c7.014,9.146,25.729,47.437,18.799,56.826
				c-5.894,7.984-38.592,14.033-38.592,14.033l-8.813-18.031l22.352-8.339l-13.905-30.333"/>
			<polyline fill="none" stroke="#4254A4" stroke-width="0.75" stroke-miterlimit="10" points="627.784,326.028 650.136,317.689 
				638.928,293.241 			"/>
			
				<line fill="none" stroke="#4254A4" stroke-width="0.75" stroke-miterlimit="10" x1="636.597" y1="344.06" x2="661.39" y2="338.011"/>
			
				<line fill="none" stroke="#4254A4" stroke-width="0.75" stroke-miterlimit="10" x1="630.679" y1="324.948" x2="639.97" y2="343.236"/>
			<path fill="none" stroke="#4254A4" stroke-width="0.75" stroke-linejoin="round" stroke-miterlimit="10" d="M627.634,301
				c1.433-9.402,7.485-17.062,7.485-17.062l-3.742-4.08l5.22-1.902c0,0,2.415-9.966,4.146-13.061"/>
		</g>
	</g>
	<g>
		<g>
			<path fill="#FBCBC3" d="M533.476,288.21c0,0,5.195,11.804,6.536,20.649s-10.949,33.816-10.949,33.816l-10.521-6.179
				c0,0,3.204-18.613,3.204-25.238c0-6.626-6.032-15.843-6.032-15.843"/>
			<g>
				<path fill="#FBCBC3" d="M519.06,335.103c-1.353,4.092-7.216,15.307-6.615,15.953c0.602,0.646,2.716-3.271,3.11-2.648
					s-2.451,6.871-1.678,7.356c1.047,0.658,3.618-5.896,3.618-5.896s-2.458,7.319-1.385,7.627c0.761,0.219,2.894-5.282,3.973-7.282
					c-0.894,2.316-1.896,6.24-1.103,6.45c0.788,0.208,2.32-3.505,3.646-6.288c-0.665,1.814-1.696,5.18-0.972,5.408
					c0.723,0.228,5.078-8.544,8.854-16.962"/>
			</g>
		</g>
		<g>
			<g>
				<path fill="#FBCBC3" d="M512.005,387.761c-1.274,29.616,6.875,103.722,6.875,103.722l-9.149,5.824
					c0,0,28.146,1.309,28.963,0.485c0.817-0.824-1.032-6.464-1.032-6.464s0.818-87.538,1.636-100.503
					C540.113,377.861,513.279,358.145,512.005,387.761z"/>
				<path fill="#06203A" d="M531.688,497.721l6.744-3.682l-0.53-1.934l-8.754,5.624l-2.771,0.011l-9.759-4.818l-10.596,6.633
					c-1.225,0.766-0.678,2.657,0.767,2.651l14.241-0.052l4.545-3.161l1.291-0.005l0.011,3.145l12.274-0.033l-0.016-4.396
					L531.688,497.721z"/>
			</g>
			<g>
				<path fill="#FBCBC3" d="M474.441,392.816c-2.033,41.617-1.282,98.624-1.282,98.624l-9.129,5.856c0,0,28.149,1.221,28.964,0.395
					s-1.054-6.46-1.054-6.46s7.823-72.246,10.635-99.265C505.386,364.948,476.475,351.199,474.441,392.816z"/>
				<path fill="#06203A" d="M485.989,497.634l6.73-3.694l-0.536-1.932l-8.734,5.645l-2.77,0.02l-9.776-4.784l-10.572,6.669
					c-1.222,0.771-0.669,2.66,0.775,2.649l14.241-0.101l4.534-3.178l1.29-0.01l0.022,3.146l12.274-0.065l-0.031-4.396
					L485.989,497.634z"/>
			</g>
			<path fill="#224A9F" d="M525.414,324.879c2.419,1.673,7.844,9.365,10.09,16.933c5.278,17.786,5.357,57.097,5.357,57.097h-67.883
				c0,0,0.398-37.774,3.037-54.232c1.405-8.766,5.264-16.387,7.63-19.728"/>
			<path fill="none" stroke="#161F48" stroke-width="0.75" stroke-miterlimit="10" d="M487.451,324.39
				c-2.035,1.714-5.458,8.085-6.427,15.303c-3.274,24.388-2.583,59.216-2.583,59.216"/>
		</g>
		<g>
			<path fill="#4774BA" d="M508.85,263.341c20.31,1.291,27.03,26.66,27.03,26.66l-14.347,9.904"/>
			
				<line fill="none" stroke="#161F48" stroke-width="0.75" stroke-miterlimit="10" x1="527.666" y1="291.504" x2="534.791" y2="286.742"/>
			<path fill="#FBCBC3" d="M471.878,275.508c0,0-15.153,11.681-17.58,11.736c-2.511,0.057-22.063-18.176-22.063-18.176
				l-10.282,11.997c0,0,20.621,28.113,31.677,28.113c14.677,0,30.297-16.106,30.297-16.106"/>
			<path fill="#4774BA" d="M493.895,263.384c0,0,2.349,1.788,6.898,1.253s8.217-1.51,8.217-1.51
				c0.045,0.116,18.318,8.489,18.903,19.062c0.652,11.798,0.612,18.811-2.465,42.759c-7.817,0-43.043,0-41.803,0
				c0,0-6.498-29.31-6.498-40.535S493.895,263.384,493.895,263.384z"/>
			<path fill="#4774BA" d="M493.895,263.384c0,0-6.213-0.257-11.544,2.742c-9.162,5.155-16.854,13.378-16.854,13.378L477.668,301
				l12.784-9.042"/>
			<path fill="none" stroke="#161F48" stroke-width="0.75" stroke-miterlimit="10" d="M528.25,295.268
				c0.306-9.883-1.201-16.647-1.201-16.647"/>
			
				<line fill="none" stroke="#161F48" stroke-width="0.75" stroke-miterlimit="10" x1="468.573" y1="276.482" x2="481.024" y2="299.149"/>
			
				<line fill="none" stroke="#161F48" stroke-width="0.75" stroke-miterlimit="10" x1="478.947" y1="300.623" x2="489.64" y2="293.035"/>
			<g>
				<path fill="#FBCBC3" d="M439.705,275.846c0,0-17.289-15.982-18.359-15.61c-1.071,0.373,1.993,3.446,1.057,3.588
					c-0.936,0.142-7.801-7.121-8.771-6.463c-1.314,0.892,4.606,6.909,4.606,6.909s-1.564-1.058-2.481,0.045
					c-0.649,0.782,1.194,3.212,1.194,3.212s-1.801-1.195-2.458-0.37c-0.651,0.819,0.954,3.276,0.954,3.276s-1.281-0.947-1.706-0.069
					c-0.677,1.399,7.873,11.388,15.819,20.178"/>
			</g>
		</g>
		<g>
			<path fill="#FBCBC3" d="M507.979,252.597l1.552,11.634c0,0-7.576,7.807-15.637-0.847l-0.451-6.524L507.979,252.597z"/>
			<path fill="#FBCBC3" d="M495.271,237.375c0,0-10.939,12.373-6.939,17.484c2.08,2.657,11.052,5.913,14.285,3.893
				c2.399-1.499,6.91-11.974,5.885-14.019C504.585,236.917,495.271,237.375,495.271,237.375z"/>
			<path fill="#06203A" d="M495.764,239.618c-0.68,7.205,1.449,10.873,1.449,10.873s-4.764,15.071-3.723,16.508
				s16.448,3.668,23.948,0.464c0,0,1.191-22.768-5.691-28.548c-6.547-5.498-15.016-5.004-19.638-2.131c0,0,0.412,1.366,2.078,2.099
				c0.818,0.36,1.736,0.768,1.736,0.768"/>
			<path fill="#FBCBC3" d="M495.731,248.66c1.336-1.694,2.418-1.424,3.009-0.495c0.787,1.241-0.792,3.818-1.527,4.259
				c-1.489,0.891-2.696,0.798-2.811-0.413"/>
			<path fill="none" stroke="#E88872" stroke-width="0.5" stroke-linejoin="round" stroke-miterlimit="10" d="M493.49,257.979
				c1.575,0,2.081-1.321,2.081-1.321"/>
			<g>
				<g>
					<path fill="#28364C" d="M492.394,244.372c-0.458,0.381-0.888,1.074-0.635,1.582c0.072,0.144,0.211,0.213,0.368,0.197
						C493.154,246.05,493.351,243.575,492.394,244.372z"/>
				</g>
			</g>
			<path fill="none" stroke="#28364C" stroke-width="0.75" stroke-miterlimit="10" d="M492.521,242.489
				c0.642,0.228,1.682,0.81,2.062,1.62"/>
			<path fill="#FFFFFF" d="M491.169,249.972l-2.252-1.205c0,0-1.479,2.767-0.431,3.35
				C489.646,252.763,491.169,249.972,491.169,249.972z"/>
			<g>
				<path fill="#06203A" d="M507.91,236.773c-0.965-0.246-1.639-1.254-1.611-2.25c0.027-0.996,0.683-1.918,1.562-2.387
					c0.88-0.468,1.947-0.513,2.907-0.246c0.366,0.102,0.724,0.249,1.029,0.475c1.246,0.922,1.214,2.914,0.331,4.188
					c-0.361,0.521-0.863,0.978-1.48,1.123s-1.349-0.098-1.631-0.666"/>
			</g>
		</g>
	</g>
	<g>
		<g>
			<path fill="#FFFFFF" stroke="#ADB2DA" stroke-linejoin="round" stroke-miterlimit="10" d="M351.861,469.304
				c-18.566-5.609-30.859-11.958-41.006-22.063c-10.782-10.737-14.596-21.171-17.519-35.778
				c-4.075-20.361-8.495-52.843-30.534-60.614c-20.49-7.227-38.732,9.066-49.182,25.785c-13.432,21.493-17.498,43.01-17.52,68.265
				c-0.018,20.437,5.24,57.94,69.847,57.94c0,0,44.111,0,76.769,0C385.138,502.838,378.529,477.362,351.861,469.304z"/>
			<g>
				<path fill="#EDEEF8" d="M346.145,467.932c-3.803-7.807-19.945-5.462-37.367-23.718c-10.09-10.573-14.285-19.709-17.146-33.467
					c-2.419-11.636-11.48-50.511-27.591-52.041c-6.49-0.617-13.124,0.198-18.836,3.334c-7.924,4.351-14.081,11.464-18.438,19.377
					s-7.033,16.636-9.204,25.402c-3.014,12.17-5.121,20.782-3.592,33.227c2.596,21.129,15.866,39.771,36.512,44.712
					c20.81,4.979,39.613,3.256,64.229,3.025C324.129,487.695,354.004,484.061,346.145,467.932z"/>
			</g>
			<g>
				<g>
					<path fill="#ADB2DA" d="M238.756,366.109c-13.123,11.343-20.606,28.575-24.132,45.238c-3.622,17.115-3.157,36.33,5.54,51.915
						c7.277,13.04,19.997,19.821,34.139,23.217c19.607,4.707,40.508,3.346,60.411,1.633c0.411-0.035,0.424-0.662,0-0.65
						c-13.769,0.375-27.498,1.338-41.272,0.479c-12.859-0.802-26.622-3.144-37.756-10.005c-15.952-9.83-21.914-28.988-22.085-46.809
						c-0.12-12.369,2.392-24.768,6.854-36.281c4.09-10.555,10.157-20.787,18.706-28.334
						C239.434,366.268,239.031,365.871,238.756,366.109L238.756,366.109z"/>
				</g>
			</g>
		</g>
		<g>
			<g>
				<g>
					<g>
						<path fill="#995138" d="M354.019,471.981l26.176,19.515l4.919,7.551l28.108-19.16c0.686-0.468,0.862-1.403,0.395-2.089l0,0
							c-0.351-0.515-0.981-0.76-1.587-0.617l-15.936,2.607l-25.949-21.418"/>
						<path fill="#FEE0CD" d="M415.491,477.915c-0.897-0.709-2.111-1.366-2.799-1.236l-16.644,3.141
							c-5.167,7.675-15.854,11.677-15.854,11.677l4.905,10.817c0.219,0.32,0.655,0.402,0.976,0.185l31.402-21.171
							C418.106,480.897,415.52,477.938,415.491,477.915z"/>
						<path fill="none" stroke="#A5644D" stroke-width="0.75" stroke-miterlimit="10" d="M399.215,478.493
							c-0.087,1.429-0.006,2.868,0.24,4.279"/>
						<path fill="none" stroke="#A5644D" stroke-width="0.75" stroke-miterlimit="10" d="M401.494,478.369
							c-0.051,1.541,0.054,2.341,0.255,3.604"/>
						<path fill="none" stroke="#A5644D" stroke-width="0.75" stroke-miterlimit="10" d="M403.344,478.152
							c-0.047,1.025,0.091,2.307,0.205,3.327"/>
					</g>
					
						<line fill="none" stroke="#A5644D" stroke-width="0.75" stroke-miterlimit="10" x1="384.243" y1="500.685" x2="416.301" y2="478.831"/>
					<path fill="none" stroke="#A5644D" stroke-width="0.75" stroke-miterlimit="10" d="M381.935,495.332
						c0,0,7.66-4.941,11.38-0.827"/>
					<path fill="none" stroke="#A5644D" stroke-width="0.75" stroke-miterlimit="10" d="M409.281,477.322
						c0,0-0.088,4.365,0.422,6.008"/>
				</g>
			</g>
			<g>
				<g>
					<g>
						<path fill="#995138" d="M316.173,462.959l11.192,27.251l-0.143,9.011l34.017-0.174c0.83-0.004,1.5-0.682,1.495-1.512l0,0
							c-0.003-0.622-0.389-1.178-0.971-1.398l-14.67-6.746l-9.94-28.702"/>
						<path fill="#FEE0CD" d="M364.224,498.681c-0.349-1.09-0.986-2.313-1.63-2.59l-15.556-6.7
							c-8.574,3.476-19.673,0.819-19.673,0.819l-1.98,11.712c0.002,0.388,0.318,0.7,0.706,0.698h37.872
							C364.725,502.616,364.234,498.715,364.224,498.681z"/>
						<path fill="none" stroke="#A5644D" stroke-width="0.75" stroke-miterlimit="10" d="M350.405,490.062
							c-0.871,1.136-1.609,2.375-2.193,3.683"/>
						<path fill="none" stroke="#A5644D" stroke-width="0.75" stroke-miterlimit="10" d="M352.363,491.232
							c-0.902,1.25-1.264,1.972-1.803,3.131"/>
						<path fill="none" stroke="#A5644D" stroke-width="0.75" stroke-miterlimit="10" d="M354.019,492.087
							c-0.612,0.824-1.214,1.964-1.69,2.873"/>
					</g>
					
						<line fill="none" stroke="#A5644D" stroke-width="0.75" stroke-miterlimit="10" x1="325.585" y1="500.092" x2="364.383" y2="499.893"/>
					<path fill="none" stroke="#A5644D" stroke-width="0.75" stroke-miterlimit="10" d="M326.663,494.363
						c0,0,9.114,0.186,9.898,5.677"/>
					<path fill="none" stroke="#A5644D" stroke-width="0.75" stroke-miterlimit="10" d="M359.405,494.717
						c0,0-2.513,3.571-3.008,5.219"/>
				</g>
			</g>
			<g>
				<g>
					<path fill="#995138" d="M267.643,348.643c0,0,7.413,11.692,4.25,16.73c-1.645,2.619-7.825,4.387-10.964,2.851
						c-2.33-1.14-7.432-10.263-6.691-12.224C257.067,348.504,267.643,348.643,267.643,348.643z"/>
					<path fill="#995138" d="M253.653,365.059l-0.701,9.06c0,0,5.768,14.405,16.199,1.428l-0.461-9.999L253.653,365.059z"/>
					<g>
						<path fill="#2C140E" d="M250.469,362.347c-1.073-2.607-1.971-3.964-2.417-7.146c-0.467-3.325,2.244-4.296,2.244-4.296
							s-0.462,0.375,0.999-2.51c1.38-2.724,6.01-2.601,8.796-3.046c3.659-0.585,9.071-3.837,11.234-2.395
							c0.943,0.629,0.94,6.278-2.04,7.938c-1.704,0.949-4.5,0.413-6.468,0.724c-3.668,0.58-4.522,1.354-4.973,3.694
							c-0.25,1.298-2.665,1.064-1.297,3.729c0.212,0.414,0.259,0.784,0.332,1.094l-1.457,1.043
							c-1.857,1.259,2.186,4.507,1.886,6.065c-0.158,0.816-1.8,1.169-3.252,0.501C252.604,367.073,251.636,365.182,250.469,362.347z
							"/>
					</g>
					<path fill="#995138" d="M256.359,361.321c-1.652-1.698-2.803-1.282-3.343-0.198c-0.72,1.444,1.298,4.082,2.152,4.479
						c1.729,0.806,3.037,0.566,3.025-0.769"/>
					<path fill="none" stroke="#6E231D" stroke-width="0.75" stroke-linejoin="round" stroke-miterlimit="10" d="M268.816,368.2
						c-5.589,1.242-8.474-0.382-8.474-0.382"/>
					<path fill="none" stroke="#6E231D" stroke-width="0.75" stroke-miterlimit="10" d="M266.928,355.662
						c0,0,2.677,2.895,2.633,3.835c-0.044,0.941-2.183,1.418-2.183,1.418"/>
					<path fill="#FFFFFF" d="M270.606,361.281l-5.744,1.833c0,0,1.645,2.845,4.729,1.621
						C271.792,363.863,270.606,361.281,270.606,361.281z"/>
					<g>
						<g>
							<path fill="#222237" d="M268.498,354.479c0.093,0.284,0.207,0.563,0.334,0.835c0.217,0.46,0.896,0.06,0.682-0.398
								c-0.114-0.242-0.244-0.477-0.388-0.702C268.922,353.896,268.373,354.095,268.498,354.479L268.498,354.479z"/>
						</g>
					</g>
					
						<path fill="none" stroke="#222237" stroke-width="0.5" stroke-linecap="round" stroke-linejoin="round" stroke-miterlimit="10" d="
						M267.021,353.164c0,0,0.695-1.369,2.164-0.64"/>
					<g>
						<g>
							<path fill="#222237" d="M262.067,357.194c0.068,0.258,0.153,0.512,0.253,0.759c0.188,0.466,0.951,0.263,0.761-0.209
								c-0.112-0.279-0.238-0.553-0.385-0.815C262.502,356.585,261.968,356.819,262.067,357.194L262.067,357.194z"/>
						</g>
					</g>
					
						<path fill="none" stroke="#222237" stroke-width="0.5" stroke-linecap="round" stroke-linejoin="round" stroke-miterlimit="10" d="
						M262.614,354.617c0,0-1.524-0.245-2.727,1.712"/>
				</g>
				<g>
					<path fill="#995138" d="M295.979,393.864c0,0,8.88,17.134,11.46,17.464c3.116,0.398,27.687-17.763,27.687-17.763l9.923,12.021
						c0,0-22.999,27.918-38.475,27.918s-29.86-27.925-29.86-27.925"/>
					<path fill="#FEE0CD" d="M252.952,374.118c0,0,2.252,4.06,8.876,3.759c5.051-0.229,7.322-2.331,7.322-2.331
						s15.121,3.936,18.072,23.841c2.749,18.542,6.202,50.221,6.202,50.221l-57.426,3.857c0,0-1.399-20.832,0.717-45.038
						C238.3,390.313,252.952,374.118,252.952,374.118z"/>
					<g>
						<path fill="#DCDDEF" d="M251.604,436.719l30.897,0.433l-0.026,1.891l-32.627-0.458l0,0
							C249.861,437.54,250.648,436.705,251.604,436.719z"/>
						<path fill="#DCDDEF" d="M320.124,439.57l-43.409-0.609l8.708-29.015c0.447-1.487,1.727-2.487,3.159-2.468l39.246,0.551
							c0.871,0.013,1.479,0.943,1.208,1.848L320.124,439.57z"/>
						<path fill="#F2F5FA" d="M322.074,439.598l-43.409-0.609l8.709-29.015c0.447-1.487,1.727-2.487,3.159-2.468l39.246,0.551
							c0.871,0.013,1.479,0.943,1.208,1.848L322.074,439.598z"/>
						<path fill="#DCDDEF" d="M309.483,422.256c-0.273,1.355-1.797,2.437-3.403,2.414c-1.606-0.022-2.687-1.14-2.414-2.496
							c0.273-1.355,1.797-2.437,3.404-2.414S309.757,420.9,309.483,422.256z"/>
					</g>
					<path fill="#FEE0CD" d="M269.15,375.546c5.715-0.384,13.062,1.047,17.11,3.676c10.732,6.971,15.235,21.897,15.235,21.897
						l-14.792,3.764"/>
					<g>
						<g>
							<path fill="#995138" d="M247.824,408.021c0,0-4.342,15.249-3.338,18.57c0.756,2.506,22.692,5.65,22.692,5.65l1.143,14.563
								c0,0-38.766,2.528-44.373-4.476c-7.675-9.589,1.056-38.728,1.056-38.728"/>
							<g>
								<g>
									<g>
										<path fill="#995138" d="M262.605,432.048c3.222,0.077,20.254,0.935,20.184,1.801c-0.069,0.834-4.945,1.41-4.731,1.846
											c0.303,0.62,4.026,0.948,6.129,0.939c1.876-0.007,4.89,0.288,5,1.104c0.208,1.552-10.087,1.463-10.087,1.463
											s11.087-1.974,11.395-0.693c0.444,1.846-11.369,3.494-11.722,3.965c0,0,9.846-4.272,10.174-2.907
											c0.328,1.366-8.369,5.4-11.209,5.629c2.295-0.626,8.899-5.173,9.145-3.906c0.246,1.268-5.653,3.999-6.63,4.223
											c-8.019,1.838-15.643,1.19-15.643,1.19"/>
									</g>
								</g>
							</g>
							<g>
								<path fill="#6E231D" d="M288.147,438.504c-1.303,0.342-2.628,0.522-3.957,0.654c-0.666,0.055-1.332,0.106-2.001,0.11
									c-0.669,0.009-1.34,0.005-2.011-0.071c1.322-0.254,2.641-0.408,3.967-0.536C285.472,438.55,286.801,438.459,288.147,438.504
									z"/>
							</g>
							<g>
								<path fill="#6E231D" d="M287.222,440.404c-1.344,0.576-2.744,0.978-4.164,1.296c-0.712,0.149-1.428,0.286-2.155,0.359
									c-0.725,0.076-1.458,0.132-2.188,0.06C281.566,441.568,284.331,440.827,287.222,440.404z"/>
							</g>
							<g>
								<path fill="#6E231D" d="M285.637,442.324c-1.165,0.59-2.39,1.016-3.633,1.379c-0.625,0.17-1.252,0.335-1.893,0.444
									c-0.639,0.114-1.285,0.211-1.939,0.216c1.236-0.413,2.458-0.784,3.696-1.141
									C283.108,442.881,284.35,442.544,285.637,442.324z"/>
							</g>
						</g>
					</g>
					<path fill="#FEE0CD" d="M252.952,374.118c0,0-11.618,0.78-16.039,4.108c-11.834,8.909-14.546,26.336-14.546,26.336
						l25.956,6.766l4.664-14.327"/>
					<path fill="none" stroke="#A5644D" stroke-width="0.75" stroke-miterlimit="10" d="M247.273,411.398
						c1.357-6.641,3.55-12.012,3.55-12.012"/>
					<path fill="none" stroke="#A5644D" stroke-width="0.75" stroke-miterlimit="10" d="M288.052,404.442
						c-1.887-9.949-4.279-16.047-4.279-16.047"/>
					
						<line fill="none" stroke="#A5644D" stroke-width="0.75" stroke-miterlimit="10" x1="223.285" y1="400.516" x2="248.099" y2="407.846"/>
					
						<line fill="none" stroke="#A5644D" stroke-width="0.75" stroke-miterlimit="10" x1="300.19" y1="397.605" x2="287.361" y2="401.056"/>
					<path fill="none" stroke="#A5644D" stroke-width="0.75" stroke-miterlimit="10" d="M250.475,374.359
						c0,0,3.109,6.083,12.182,5.474c9.072-0.609,9.455-4.339,9.455-4.339"/>
					<g>
						<path fill="#995138" d="M328.56,398.597c0,0,17.135-13.31,17.996-13.039c0.861,0.271-1.504,2.791-0.755,2.882
							c0.749,0.09,6.178-5.48,6.965-4.98c1.068,0.678-4.516,5.99-4.516,5.99s6.493-5.455,7.249-4.599
							c0.536,0.606-5.833,6.697-5.833,6.697s6.439-4.702,6.982-4.062c0.538,0.637-5.151,6.047-5.151,6.047s4.468-3.922,5.188-3.264
							c0.719,0.657-8.777,12.8-17.022,21.022"/>
					</g>
					<path fill="none" stroke="#6E231D" stroke-width="0.75" stroke-linejoin="round" stroke-miterlimit="10" d="M344.589,389.184
						c0,0-1.245,3.099-2.807,5.49"/>
					<path fill="none" stroke="#6E231D" stroke-width="0.75" stroke-linejoin="round" stroke-miterlimit="10" d="M343.878,396.126
						c1.827-1.866,4.256-2.192,6.536-2.086"/>
				</g>
			</g>
			<g>
				<path fill="#0F1326" d="M261.081,475.6c0,0-1.55,9.295,7.893,8.66c22.958-1.542,59.552-28.894,59.552-28.894l44.477,34.426
					l18.295-19.518c0,0-30.107-25.129-38.96-31.921c-3.691-2.832-11.334-9.238-19.898-8.663
					c-8.564,0.575-57.006,19.447-57.006,19.447"/>
				<path fill="none" stroke="#202658" stroke-width="0.75" stroke-miterlimit="10" d="M268.639,479.271
					c19.795-1.33,49.66-22.872,57.586-27.683c1.195-0.726,2.708-0.637,3.814,0.219l45.363,35.424"/>
				<path fill="#24255C" d="M237.992,453.333c0,0-3.855,33.993,24.441,32.092c19.944-1.34,45.006-29.727,45.006-29.727
					l15.401,34.849l26.194-7.763c0,0-12.882-32.354-17.299-43.339c-3.759-9.349-10.545-16.694-17.314-17.579
					c-6.768-0.885-13.913,2.211-22.363,7.111c-6.815,3.952-28.03,22.606-28.03,22.606"/>
				<path fill="none" stroke="#33449C" stroke-width="0.75" stroke-miterlimit="10" d="M245.492,452.829
					c0,0-1.68,28.099,18.563,26.739c12.132-0.815,35.979-24.912,42.737-30.743c0.898-0.774,2.287-0.456,2.764,0.63l17.507,39.841"/>
				<path fill="none" stroke="#33449C" stroke-width="0.75" stroke-miterlimit="10" d="M245.723,459.85c0,0,8.031-0.988,8.65-7.617"
					/>
				
					<line fill="none" stroke="#33449C" stroke-width="0.75" stroke-miterlimit="10" x1="320.7" y1="485.706" x2="347.042" y2="477.783"/>
				
					<line fill="none" stroke="#202658" stroke-width="0.75" stroke-miterlimit="10" x1="368.744" y1="486.496" x2="387.106" y2="466.782"/>
			</g>
		</g>
	</g>
	<g>
		<g>
			<g>
				<path fill="#F8BBAF" d="M149.335,246.907c0.027-0.432,0.556-0.663,0.985-0.605c0.611,0.083,1.121,0.546,1.398,1.096
					s0.353,1.18,0.37,1.796c0.017,0.572-0.018,1.167-0.282,1.676c-0.469,0.904-1.691,1.327-2.619,0.905"/>
			</g>
			<path fill="#FBCBC3" d="M148.806,238.798c0,0,3.565,13.596,1.606,16.384c-2.934,4.176-9.914,4.498-12.855,2.57
				c-2.467-1.617-4.493-10.28-4.493-12.529C133.064,239.119,145.593,235.585,148.806,238.798z"/>
			<path fill="#FBCBC3" d="M130.74,254.805l-1.394,11.942c0,0,4.46,4.819,11.207,4.819c6.747,0,6.747-4.498,6.747-4.498
				l-1.285-10.28l-10.372-10.885L130.74,254.805"/>
			<g>
				<path fill="#4A1B1B" d="M137.018,244.83c-0.013-0.781-0.03-1.563-0.052-2.344c-0.004-0.156-0.077-1.831-0.235-1.862
					c3.333,0.667,6.753,0.896,10.146,0.681c1.08-0.068,2.204-0.197,3.112-0.785c0.825-0.534,0.652-8.315-9.248-8.691
					c-1.891-0.072-3.857-0.017-5.526,0.875c-1.669,0.892-4.23,2.604-4.272,4.497c-2.427,0.814-5.017,5.622-3.613,10.713
					c0.79,2.862,1.306,5.818,3.411,6.892c2.676-1.092,4.504-4.099,4.97-4.749C136.709,248.662,137.046,246.497,137.018,244.83z"/>
			</g>
			<path fill="none" stroke="#F8A895" stroke-width="0.75" stroke-miterlimit="10" d="M146.229,258.497c0,0-4.681,0.923-7.905-0.808
				c-2.543-1.364-3.458-4.526-3.458-4.526"/>
			<g>
				<path fill="#FBCBC3" d="M136.452,248.722c-0.295-0.501-1.286-1.152-1.83-1.094c-0.543,0.059-1.042,0.385-1.422,0.813
					c-1.785,2.008,0.158,5.841,2.894,5.417c1.004-0.155,0.73-1.484,0.73-1.484"/>
			</g>
			<path fill="none" stroke="#F8A895" stroke-width="0.5" stroke-miterlimit="10" d="M146.52,245.903c0,0,2.08,3.202,1.883,4.092
				c-0.197,0.891-2.316,0.995-2.316,0.995"/>
			<path fill="#FFFFFF" d="M148.409,252.087l-5.782,0.807c0,0,1.103,2.984,4.247,2.323
				C149.116,254.746,148.409,252.087,148.409,252.087z"/>
			<g>
				<g>
					<path fill="#222237" d="M148.212,245.089c0.038,0.258,0.093,0.512,0.16,0.764c0.13,0.491,0.903,0.28,0.761-0.21
						c-0.073-0.25-0.157-0.496-0.257-0.737C148.704,244.496,148.147,244.647,148.212,245.089L148.212,245.089z"/>
				</g>
			</g>
			
				<path fill="none" stroke="#222237" stroke-width="0.5" stroke-linecap="round" stroke-linejoin="round" stroke-miterlimit="10" d="
				M147.018,243.535c0,0,0.889-1.193,2.17-0.255"/>
			<g>
				<g>
					<path fill="#222237" d="M141.617,246.535c0.026,0.292,0.07,0.58,0.129,0.867c0.102,0.496,0.875,0.287,0.761-0.21
						c-0.058-0.254-0.128-0.502-0.214-0.748C142.17,246.099,141.58,246.126,141.617,246.535L141.617,246.535z"/>
				</g>
			</g>
			
				<path fill="none" stroke="#222237" stroke-width="0.5" stroke-linecap="round" stroke-linejoin="round" stroke-miterlimit="10" d="
				M142.574,244.198c0,0-1.414-0.484-2.883,1.186"/>
		</g>
		<g>
			<g>
				<g>
					<g>
						<path fill="#FBCBC3" d="M151.565,462.959l2.749,27.586l-0.232,8.676l34.017-0.174c0.83-0.004,1.5-0.682,1.496-1.512l0,0
							c-0.003-0.622-0.389-1.178-0.971-1.398l-14.671-6.746l-1.408-28.702"/>
						<path fill="#06203A" d="M191.083,498.681c-0.348-1.09-0.986-2.313-1.629-2.59l-15.556-6.7
							c-8.574,3.476-19.673,0.819-19.673,0.819l-1.98,11.712c0.002,0.388,0.318,0.7,0.706,0.698h37.872
							C191.584,502.616,191.093,498.715,191.083,498.681z"/>
						<path fill="none" stroke="#4774BA" stroke-width="0.75" stroke-miterlimit="10" d="M177.264,490.062
							c-0.871,1.136-1.609,2.375-2.193,3.683"/>
						<path fill="none" stroke="#4774BA" stroke-width="0.75" stroke-miterlimit="10" d="M179.223,491.232
							c-0.903,1.25-1.264,1.972-1.803,3.131"/>
						<path fill="none" stroke="#4774BA" stroke-width="0.75" stroke-miterlimit="10" d="M180.878,492.087
							c-0.613,0.824-1.215,1.964-1.69,2.873"/>
					</g>
					
						<line fill="none" stroke="#4774BA" stroke-width="0.75" stroke-miterlimit="10" x1="152.445" y1="500.092" x2="191.243" y2="499.893"/>
					<path fill="none" stroke="#4774BA" stroke-width="0.75" stroke-miterlimit="10" d="M153.522,494.363
						c0,0,9.114,0.186,9.898,5.677"/>
					<path fill="none" stroke="#4774BA" stroke-width="0.75" stroke-miterlimit="10" d="M186.265,494.717
						c0,0-2.513,3.571-3.008,5.219"/>
				</g>
			</g>
			<path fill="#4774BA" d="M167.48,344.496c5.848,42.011,11.087,141.252,11.087,141.252h-29.288c0,0-6.041-62.04-11.171-106.92
				c-12.888-21.327-11.885-44.428-13.339-47.497"/>
			<path fill="none" stroke="#161F48" stroke-width="0.75" stroke-miterlimit="10" d="M153.279,485.748
				c0,0-7.241-68.524-12.372-113.405"/>
			<g>
				<g>
					<g>
						<path fill="#FBCBC3" d="M104.521,462.959l-1.251,27.586l-0.232,8.676l34.017-0.174c0.83-0.004,1.5-0.682,1.496-1.512l0,0
							c-0.003-0.622-0.389-1.178-0.971-1.398l-14.67-6.746l2.592-28.702"/>
						<path fill="#06203A" d="M140.038,498.681c-0.348-1.09-0.986-2.313-1.629-2.59l-15.556-6.7
							c-8.574,3.476-19.673,0.819-19.673,0.819l-1.98,11.712c0.002,0.388,0.318,0.7,0.706,0.698h37.872
							C140.54,502.616,140.049,498.715,140.038,498.681z"/>
						<path fill="none" stroke="#4774BA" stroke-width="0.75" stroke-miterlimit="10" d="M126.22,490.062
							c-0.871,1.136-1.609,2.375-2.193,3.683"/>
						<path fill="none" stroke="#4774BA" stroke-width="0.75" stroke-miterlimit="10" d="M128.179,491.232
							c-0.903,1.25-1.264,1.972-1.803,3.131"/>
						<path fill="none" stroke="#4774BA" stroke-width="0.75" stroke-miterlimit="10" d="M129.834,492.087
							c-0.613,0.824-1.215,1.964-1.69,2.873"/>
					</g>
					
						<line fill="none" stroke="#4774BA" stroke-width="0.75" stroke-miterlimit="10" x1="101.4" y1="500.092" x2="140.198" y2="499.893"/>
					<path fill="none" stroke="#4774BA" stroke-width="0.75" stroke-miterlimit="10" d="M102.478,494.363
						c0,0,9.114,0.186,9.898,5.677"/>
					<path fill="none" stroke="#4774BA" stroke-width="0.75" stroke-miterlimit="10" d="M135.221,494.717
						c0,0-2.513,3.571-3.009,5.219"/>
				</g>
			</g>
			<path fill="#4774BA" d="M105.418,340.607c-0.786,9.538-0.722,21.32,0.729,32.829c-2.5,50.584-5.958,112.312-5.958,112.312h29.28
				c0,0,14.102-112.026,14.76-145.98"/>
			<path fill="none" stroke="#161F48" stroke-width="0.75" stroke-miterlimit="10" d="M110.418,340.607
				c-0.786,9.538-0.722,21.32,0.729,32.829c-2.5,50.584-5.958,112.312-5.958,112.312"/>
			<path fill="none" stroke="#161F48" stroke-width="0.75" stroke-miterlimit="10" d="M139.896,394.804
				c0,0,4.066-35.131,4.418-48.026"/>
			
				<line fill="none" stroke="#161F48" stroke-width="0.75" stroke-miterlimit="10" x1="100.511" y1="479.954" x2="130.188" y2="479.954"/>
			
				<line fill="none" stroke="#161F48" stroke-width="0.75" stroke-miterlimit="10" x1="148.703" y1="479.871" x2="178.188" y2="479.871"/>
			<path fill="none" stroke="#161F48" stroke-width="0.75" stroke-miterlimit="10" d="M110.092,360.943
				c0,0,8.417,0.654,13.064-11.277"/>
			<path fill="none" stroke="#161F48" stroke-width="0.75" stroke-miterlimit="10" d="M143.019,360.949c0,0,2.935-0.834,3.209-1.752
				s1.071-11.788,1.071-11.788"/>
			<path fill="none" stroke="#161F48" stroke-width="0.75" stroke-miterlimit="10" d="M158.045,349.666
				c0,0,0.664,9.798,11.413,11.283"/>
		</g>
		<g>
			<path fill="#FBCBC3" d="M174.523,288.167c0,0,6.791,9.524,8.977,9.954c2.186,0.431,21.112-20.702,21.112-20.702l11.528,8.899
				c0,0-17.16,34.682-33.272,35.611C168.963,322.731,155.5,301,155.5,301"/>
			<path fill="#F2643C" d="M129.794,262.959c0,0,1.94,2.858,9.79,3.667c5.932,0.611,7.384-2.209,7.384-2.209
				s14.323,7.63,18.571,39.234c4.249,31.605,4.663,48.15,4.663,48.15h-67.247c0,0-0.226-24.042,1.741-44.712
				C106.719,285.84,111.184,267.88,129.794,262.959z"/>
			<g>
				<polygon fill="#EDEEF8" points="151.641,358.008 120.689,352.05 119.689,351.05 130.769,305.173 163.72,313.131 164.72,314.131 
									"/>
				<polygon fill="#CDD3EB" points="151.641,358.008 120.689,352.05 119.689,351.05 130.769,305.173 131.769,306.173 				"/>
				
					<rect x="125.755" y="309.492" transform="matrix(0.9721 0.2348 -0.2348 0.9721 82.1843 -24.1926)" fill="#B9C4E4" width="33.899" height="47.196"/>
				<g>
					<path fill="#FFFFFF" d="M153.955,360.949l-32.951-7.957c0,0,7.085-29.904,8.336-34.521c0,0,2.115-5.26,6.025-7.217
						c2.216-1.109,5.129-1.736,7.654-1.499l22.015,5.317L153.955,360.949z"/>
					<g>
						<line fill="none" stroke="#EDEEF8" stroke-miterlimit="10" x1="150.735" y1="356.04" x2="126.125" y2="350.355"/>
						<line fill="none" stroke="#EDEEF8" stroke-miterlimit="10" x1="151.403" y1="353.356" x2="126.793" y2="347.672"/>
						<line fill="none" stroke="#EDEEF8" stroke-miterlimit="10" x1="152.072" y1="350.673" x2="127.462" y2="344.988"/>
						<line fill="none" stroke="#EDEEF8" stroke-miterlimit="10" x1="152.741" y1="347.989" x2="128.131" y2="342.305"/>
						<line fill="none" stroke="#EDEEF8" stroke-miterlimit="10" x1="153.41" y1="345.305" x2="128.8" y2="339.621"/>
						<line fill="none" stroke="#EDEEF8" stroke-miterlimit="10" x1="154.078" y1="342.621" x2="129.468" y2="336.937"/>
						<line fill="none" stroke="#EDEEF8" stroke-miterlimit="10" x1="154.747" y1="339.938" x2="130.137" y2="334.253"/>
						<line fill="none" stroke="#EDEEF8" stroke-miterlimit="10" x1="155.416" y1="337.254" x2="130.806" y2="331.569"/>
						<line fill="none" stroke="#EDEEF8" stroke-miterlimit="10" x1="156.084" y1="334.57" x2="131.474" y2="328.886"/>
						<line fill="none" stroke="#EDEEF8" stroke-miterlimit="10" x1="156.753" y1="331.886" x2="132.143" y2="326.201"/>
						<line fill="none" stroke="#EDEEF8" stroke-miterlimit="10" x1="157.421" y1="329.202" x2="132.812" y2="323.518"/>
						<line fill="none" stroke="#EDEEF8" stroke-miterlimit="10" x1="158.09" y1="326.519" x2="133.48" y2="320.834"/>
						<line fill="none" stroke="#EDEEF8" stroke-miterlimit="10" x1="158.759" y1="323.835" x2="134.149" y2="318.15"/>
						<line fill="none" stroke="#EDEEF8" stroke-miterlimit="10" x1="159.428" y1="321.151" x2="134.818" y2="315.467"/>
						<line fill="none" stroke="#EDEEF8" stroke-miterlimit="10" x1="155.539" y1="316.031" x2="142.113" y2="313"/>
					</g>
					<g>
						<path fill="#EDEEF8" d="M135.366,311.255c-3.91,1.957-6.025,7.217-6.025,7.217s4.923-5.005,9.773-4.665
							c0.085-2.552,3.906-4.051,3.906-4.051C140.495,309.519,137.582,310.146,135.366,311.255z"/>
					</g>
				</g>
			</g>
			<path fill="#F2643C" d="M146.968,264.418c6.968,0.626,14.669,3.282,18.677,8.314c7.891,9.908,13.922,21.03,13.922,21.03
				l-18.884,13.329L146.968,264.418z"/>
			<path fill="none" stroke="#AA2A23" stroke-width="0.75" stroke-miterlimit="10" d="M165.645,303.442
				c-1.113-8.854-3.529-20.191-3.529-20.191"/>
			
				<line fill="none" stroke="#AA2A23" stroke-width="0.75" stroke-miterlimit="10" x1="165.031" y1="299.089" x2="177.783" y2="290.258"/>
			<g>
				<g>
					<path fill="#FBCBC3" d="M114.529,305.368c0,0-6.57,14.429-6.075,17.863c0.374,2.591,21.594,8.976,21.594,8.976l-1.044,14.57
						c0,0-38.709-3.289-43.207-11.053c-6.156-10.627,6.828-38.135,6.828-38.135"/>
					<g>
						<g>
							<g>
								<path fill="#FBCBC3" d="M125.556,331.331c3.174,0.559,19.888,3.95,19.688,4.796c-0.193,0.814-5.101,0.655-4.954,1.118
									c0.208,0.658,3.839,1.539,5.92,1.845c1.856,0.272,4.792,1.015,4.778,1.838c-0.027,1.565-10.192-0.061-10.192-0.061
									s11.257-0.296,11.37,1.016c0.163,1.892-11.763,1.757-12.183,2.17c0,0,10.374-2.754,10.494-1.354
									c0.12,1.4-9.081,4.089-11.923,3.892c2.362-0.276,9.571-3.786,9.625-2.496c0.054,1.289-6.188,3.108-7.186,3.185
									c-8.204,0.62-15.645-1.159-15.645-1.159"/>
							</g>
						</g>
					</g>
					<g>
						<path fill="#F6968C" d="M149.848,341.53c-1.34,0.143-2.677,0.124-4.01,0.056c-0.666-0.045-1.333-0.094-1.996-0.189
							c-0.663-0.092-1.326-0.195-1.978-0.371c1.346-0.053,2.672-0.009,4.002,0.063C147.195,341.176,148.523,341.284,149.848,341.53z
							"/>
					</g>
					<g>
						<path fill="#F6968C" d="M148.648,343.271c-1.415,0.37-2.859,0.558-4.31,0.66c-0.726,0.041-1.455,0.07-2.185,0.033
							c-0.728-0.032-1.461-0.087-2.173-0.268C142.882,343.577,145.727,343.258,148.648,343.271z"/>
					</g>
					<g>
						<path fill="#F6968C" d="M146.794,344.933c-1.24,0.409-2.515,0.647-3.798,0.82c-0.643,0.075-1.288,0.145-1.938,0.157
							c-0.649,0.018-1.302,0.017-1.95-0.076c1.284-0.224,2.548-0.408,3.825-0.576C144.211,345.105,145.489,344.958,146.794,344.933z
							"/>
					</g>
				</g>
			</g>
			<path fill="#F2643C" d="M130.048,262.955c-7.929-0.127-15.659,1.358-20.607,5.034c-9.252,6.874-18.095,29.601-18.095,29.601
				l25.699,9.948l11.191-21.776"/>
			
				<line fill="none" stroke="#AA2A23" stroke-width="0.75" stroke-miterlimit="10" x1="115.261" y1="307.091" x2="123.922" y2="292.083"/>
			
				<line fill="none" stroke="#AA2A23" stroke-width="0.75" stroke-miterlimit="10" x1="117.705" y1="302.856" x2="93.599" y2="292.839"/>
			<path fill="none" stroke="#AA2A23" stroke-width="0.75" stroke-miterlimit="10" d="M126.626,262.974
				c0,0,4.348,5.688,13.065,5.688s9.659-3.952,9.659-3.952"/>
			<g>
				<path fill="#FBCBC3" d="M199.771,282.999c0,0,12.627-15.844,13.492-15.781c0.865,0.063-0.79,2.942-0.07,2.861
					s4.565-6.489,5.412-6.195c1.148,0.398-2.505,6.08-2.505,6.08s1.004-1.063,1.9-0.429c0.635,0.449-0.043,2.199-0.043,2.199
					s1.038-0.611,1.687-0.132c0.644,0.476,0.001,1.981,0.001,1.981s1.016-1.223,1.72-0.212c0.66,0.946-2.706,9.636-8.597,19.146"/>
			</g>
			<path fill="none" stroke="#F6968C" stroke-width="0.5" stroke-miterlimit="10" d="M212.35,271.507c0,0-0.479,3.172-1.412,5.752"
				/>
			<g>
				<path fill="#F6968C" d="M221.084,275.376c-0.485,0.745-0.991,1.477-1.543,2.178c-0.275,0.351-0.563,0.693-0.883,1.013
					c-0.16,0.159-0.326,0.316-0.527,0.444c-0.165,0.119-0.489,0.294-0.779,0.053c-0.195-0.288-0.111-0.532-0.093-0.762
					c0.039-0.23,0.099-0.45,0.165-0.667c0.136-0.432,0.299-0.85,0.473-1.263c0.353-0.823,0.73-1.631,1.157-2.419l0.372,0.213
					c-0.52,0.868-1.063,1.713-1.659,2.534c-0.301,0.408-0.61,0.811-0.973,1.188c-0.187,0.185-0.37,0.372-0.645,0.519
					c-0.125,0.064-0.341,0.158-0.587,0.032c-0.246-0.163-0.255-0.382-0.272-0.521c-0.021-0.596,0.143-1.068,0.285-1.564
					c0.154-0.486,0.329-0.961,0.514-1.431c0.372-0.939,0.777-1.858,1.209-2.771l0.399,0.201c-0.5,0.907-1.013,1.8-1.6,2.656
					c-0.294,0.427-0.598,0.849-0.949,1.243c-0.178,0.196-0.362,0.388-0.602,0.548c-0.124,0.07-0.27,0.16-0.479,0.127
					c-0.235-0.045-0.319-0.286-0.33-0.418c-0.003-1.131,0.45-2.055,0.805-3.025c0.386-0.955,0.808-1.893,1.253-2.819
					c-0.393,0.949-0.761,1.909-1.092,2.879c-0.166,0.485-0.316,0.975-0.449,1.466c-0.123,0.482-0.268,1.007-0.218,1.452
					c0.021,0.112,0.055,0.158,0.091,0.156c0.049,0.011,0.149-0.03,0.239-0.091c0.185-0.132,0.356-0.316,0.516-0.505
					c0.321-0.383,0.606-0.806,0.881-1.233c0.542-0.86,1.063-1.745,1.539-2.645l0.399,0.201c-0.417,0.903-0.811,1.824-1.167,2.752
					c-0.332,0.912-0.728,1.911-0.756,2.78c-0.001,0.103,0.046,0.165,0.023,0.139c-0.018-0.002,0.042,0.011,0.131-0.041
					c0.171-0.085,0.355-0.254,0.521-0.42c0.337-0.342,0.645-0.732,0.942-1.127c0.591-0.795,1.141-1.633,1.66-2.479l0.372,0.213
					c-0.419,0.774-0.838,1.557-1.204,2.357c-0.184,0.401-0.356,0.806-0.5,1.217c-0.07,0.206-0.133,0.414-0.175,0.621
					c-0.039,0.194-0.061,0.442,0.012,0.53c0.058,0.056,0.262,0.041,0.436-0.091c0.175-0.105,0.348-0.242,0.509-0.388
					c0.326-0.291,0.63-0.613,0.921-0.946C220.013,276.795,220.559,276.093,221.084,275.376z"/>
			</g>
		</g>
	</g>
</g>
</svg>
