<svg xmlns="http://www.w3.org/2000/svg" xmlns:xlink="http://www.w3.org/1999/xlink" id="Layer_1" x="0px" y="0px" viewBox="0 0 400 400" style="enable-background:new 0 0 400 400;" xml:space="preserve"><style type="text/css">	.st0{fill:#041C51;}</style><g>	<path class="st0" d="M343.6,226.4c-7.9-12.9-15.1-26.2-22.5-39.4c-1-1.8-1.4-4-1.6-6c-0.9-9.3-0.8-18.7-2.4-27.9   c-6.3-35.7-24.2-64.3-54.2-84.8c-21.3-14.6-45.4-21.6-71-23.9c-23.1-2-45.6,0.6-67.2,9.2C97.6,64.5,77,82.5,64.9,109.3   c-9.7,21.4-12.8,44.2-11.7,67.4c0.8,18,6.8,34.4,17.6,48.8c5.3,7.1,11,13.8,16.6,20.7c5,6.2,9.7,12.8,10,21.1   c0.3,6.8,0,13.6-0.7,20.4c-2,18.5-6.8,36.4-13.1,53.9c-2.6,7.4-1.4,10.6,5.4,14.6c43.9,0,87.9,0,131.8,0c4.3-2,6.3-5.5,7.1-10.2   c1-5.6,2.6-11.1,3.9-16.8c5.4,2.4,10.1,4.6,15,6.6c11.1,4.4,22.5,7.6,34.4,8.5c12.3,0.9,20.5-3.7,25.6-14.9c1.2-2.7,2.2-5.4,3-8.3   c4.9-17.2,6.7-35,9.1-52.7c0.9-7,0.7-7.2,7.9-8C344.2,258.2,352,240.2,343.6,226.4z M323.5,242.1c-2.5,0.3-5,0.6-7.5,1.1   c-8.8,1.7-13.8,7.3-14.7,16.2c-0.6,5.9-1.5,11.9-2.3,18c-9,0.5-17.2-1.4-25.2-4.9c-2.3-1-5.1-1.6-7.5-1.3c-3.8,0.4-6.6,3.9-7,7.4   c-0.5,4.3,1.3,7.8,5.2,9.8c8.8,4.4,18.1,7.1,28,7.4c0.9,0,1.8,0.1,2.7,0.1c0.2,0,0.4,0.1,1,0.3c-1.6,9.2-2.7,18.5-7.1,27   c-0.9,1.8-2.3,2.5-4.4,2.5c-11.4-0.2-22,3.5-32.3-7.8c-6.4-2.7-12.6-6.1-18.7-9.4c-6.1-3.3-11.7-2.3-14.5,4.1   c-3.2,7.4-5.5,15.2-8,22.9c-0.5,1.6-1.1,2.3-2.9,2.3c-34.1,0-68.1,0-102.2,0c-0.3,0-0.6-0.1-1.3-0.2c1.5-5.7,3.1-11.1,4.5-16.5   c4-15.3,6.3-30.8,6.9-46.6c0.6-14.2-3.8-26.6-12.6-37.5c-4.7-5.9-9.6-11.6-14.4-17.4c-11.7-14-17.7-30.2-17.7-48.4   c0-17.8,2.3-35.3,9.2-51.8c10.7-25.3,29.9-42,55.7-50.1c39.7-12.6,78.2-8.9,113.8,13.2c27.3,16.9,43,42.5,48.6,74.1   c1.4,7.8,1.6,15.9,1.9,23.9c0.2,5.6,1.3,10.8,4.1,15.7C312.3,209,319.7,222,327,235C329.6,239.4,328.6,241.4,323.5,242.1z"></path>	<path class="st0" d="M165.9,95.2c-33.6,9.4-55.6,40.9-52.4,75.6c1.9,20.6,11.3,37.4,27.6,50.3c0.9,0.7,2,1.9,2.1,3   c1.1,15.2,2.2,30.4,3.1,45.6c0.4,7.7,3.7,11.1,11.4,11.1c9,0,18.1,0,27.1,0c9.6,0,19.1,0.1,28.7,0c5.8-0.1,9.2-3.1,9.8-8.8   c0.5-4.9,0.8-9.9,1.1-14.9c0.7-10.6,1.4-21.3,2.3-31.9c0.1-1.5,1.2-3.2,2.3-4.2c21.8-18,31.1-41,26.5-68.9   C248.7,110.4,206.5,83.8,165.9,95.2z M205.5,262.1c-13.6,0-27.2,0-41,0c-0.8-11.6-1.6-23.2-2.4-35.1c15.3,0,30.4,0,45.8,0   C207.1,238.7,206.3,250.3,205.5,262.1z M217.6,206.3c-1.4,1.1-3.4,1.7-5.2,1.8c-5.9,0.2-11.7,0.1-17.8,0.1c0-9.6,0-18.8,0-28.5   c2,1.1,3.6,2.1,5.3,2.9c4.7,2.5,10.2,0.9,12.7-3.5c2.4-4.3,1-9.6-3.5-12.5c-1.6-1-3.3-2-5.4-3.2c2.1-1.2,3.7-2.1,5.2-3.1   c4.6-2.9,6.1-8.3,3.6-12.7c-2.6-4.5-8.1-5.9-13-3.3c-1.6,0.9-3.1,1.7-5.2,2.9c0-2.2,0.1-3.9,0-5.6c-0.2-6-4.2-10.1-9.6-9.9   c-5.2,0.2-8.9,4.4-9,10.3c0,1.6,0,3.2,0,5.2c-2.1-1.2-3.7-2.1-5.4-3c-4.7-2.5-10.2-1-12.7,3.3c-2.6,4.5-1.1,9.8,3.5,12.7   c1.6,1,3.3,1.9,5.4,3.1c-2,1.2-3.7,2.1-5.3,3.1c-4.6,2.8-6.2,8.1-3.6,12.6c2.5,4.4,8,5.9,12.7,3.5c1.7-0.9,3.3-1.8,5.3-3   c0,9.7,0,19,0,28.5c-6.7,0-13.3,0.1-19.9-0.1c-1.1,0-2.2-0.9-3.1-1.7c-17.3-14.2-24.3-32.5-19.1-54.2c5.3-22.1,19.8-35.8,42.2-40.1   c29.8-5.8,58.4,15.1,62.1,45.3C240.1,177.2,233.3,193.8,217.6,206.3z"></path></g></svg>