<svg xmlns="http://www.w3.org/2000/svg" xmlns:xlink="http://www.w3.org/1999/xlink" id="Layer_1" x="0px" y="0px" viewBox="0 0 400 400" style="enable-background:new 0 0 400 400;" xml:space="preserve"><style type="text/css">	.st0{fill:#041C51;}</style><g>	<path class="st0" d="M346.5,187.8c-0.7-10.5-2.9-20.8-5.9-30.9c-0.8-2.8-2.5-5-5.5-5.7c-5.9-1.4-10.5,3.8-8.7,10   c3,10.1,5.1,20.4,5.6,30.9c1.5,28.5-5.2,55-20.6,79.1c-29.3,46-83,68.6-135.5,58.9c-25.7-4.7-48.4-16-67.1-34.3   c-33.7-33-46.7-73.3-38.9-119.7c4.8-28.4,18.3-52.5,39.3-72.3c23.9-22.5,52.5-34.3,85.3-35.9c15.2-0.7,30.1,1.3,44.7,5.7   c4.5,1.3,8.4-0.8,9.6-4.8c1.2-4.1-0.9-8.1-5.4-9.3c-5.7-1.6-11.4-3-17.2-4.2c-5.2-1-10.5-1.6-15.8-2.4c-7.1,0-14.2,0-21.2,0   c-3.8,0.6-7.7,1.1-11.5,1.7c-28.8,4.6-54.1,16.5-75.8,35.9c-24.6,22-39.8,49.5-46.2,81.8c-1,4.8-1.3,9.6-2,14.5   c-0.1,0.9-0.4,1.8-0.6,2.8c0,7.1,0,14.2,0,21.2c0.6,3.7,1,7.5,1.7,11.2c10.3,56.4,42,95.2,95.5,116.1c12,4.7,24.5,7.2,37.3,8.2   c0.7,0.1,1.5,0.4,2.2,0.5c6.9,0,13.8,0,20.7,0c5.1-0.7,10.2-1.3,15.2-2.3c44-8.4,77.8-31.7,101-70c11.6-19.2,18.1-40.3,19.9-62.7   c0.1-0.7,0.3-1.5,0.5-2.2c0-6.5,0-13,0-19.5C346.8,189.4,346.5,188.6,346.5,187.8z"></path>	<path class="st0" d="M214.4,105.8c0.3-4.7-3-8.2-8-8.6c-9.1-0.7-18.2,0-27.1,1.9C118.5,111.9,83,175.6,104,234.3   c16.2,45.3,62.3,73.3,110,66.9c21.5-2.9,40.3-11.6,56.1-26.4c21.3-19.9,32.1-44.7,33.1-74.5c-0.1-2.2-0.2-5.2-0.5-8.1   c-0.3-3-1.9-5.2-4.7-6.4c-5.3-2.1-10,1.9-10.1,7.9c-0.1,7.7,0.1,15.6-1.3,23.1c-9,47.1-55.1,78-102.6,68.9   c-51.2-9.8-82.6-62-67.4-111.8c11.7-38.4,49.1-64.9,89.2-61.8C210.7,112.4,214.1,109.9,214.4,105.8z"></path>	<path class="st0" d="M244.3,120.7c0.1,7.3,0,14.5,0.1,21.8c0,2-0.6,3.4-2,4.7c-15.2,15.1-30.3,30.3-45.5,45.4   c-0.8,0.8-1.7,1.6-2.3,2.5c-1.8,2.5-2.0,5.2-0.6,7.8c1.4,2.6,3.8,4.4,6.8,3.7c2.2-0.5,4.5-1.7,6.1-3.2c15.5-15.3,30.8-30.6,46.1-46   c1.3-1.3,2.6-1.9,4.5-1.8c7.2,0.1,14.4-0.1,21.5,0.1c3.5,0.1,6.2-1.1,8.7-3.6c13.7-13.8,27.4-27.5,41.2-41.2   c0.9-0.9,1.8-1.8,2.4-2.8c2.4-3.8,0.8-9-3.4-10.5c-1.5-0.6-3.2-0.7-4.8-0.7c-6.5-0.1-13,0-19.9,0c0-7.1,0-13.8,0-20.5   c0-3.6-1-6.7-4.6-8.2c-3.5-1.4-6.4-0.1-9,2.5c-14,14-28,28-42,42C245.2,115,244.2,117.5,244.3,120.7z M259.2,122.8   c0-0.6,0.5-1.2,0.9-1.6c9-9.1,18.1-18.1,27.1-27.2c0.2-0.2,0.5-0.3,1.1-0.6c0,3.7,0,7,0,10.4c0.1,5,2.8,7.8,7.8,7.9   c3.3,0.1,6.7,0,10.8,0c-1,1.1-1.5,1.7-2.1,2.3c-8.4,8.4-16.7,16.8-25.2,25.1c-1,1-2.7,1.7-4.2,1.8c-5.3,0.2-10.7,0.1-16.4,0.1   C259.1,134.7,259.1,128.7,259.2,122.8z"></path>	<path class="st0" d="M184.6,158.8c4.9-1.8,10.4-2.3,15.6-3c4.5-0.6,7.8-3.6,7.7-7.7c-0.1-4.2-3.5-7.3-8.1-7.2   c-3,0.1-5.9,0.2-8.8,0.7c-30.8,5.2-52.1,33.2-48.9,64.1c3.1,29.7,28.4,52.4,58.4,52.6c2.9-0.3,5.9-0.5,8.8-0.8   c27.5-3.6,49.7-28.8,49.8-56.6c0-5.3-2.9-8.8-7.3-8.8c-4.3,0-7.3,3.5-7.5,8.4c-0.8,27.3-24.9,46.8-51.8,42.1   c-18.6-3.3-33.7-19.2-35.6-37.5C154.8,184.5,165.7,165.8,184.6,158.8z"></path></g></svg>
