<svg xmlns="http://www.w3.org/2000/svg" xmlns:xlink="http://www.w3.org/1999/xlink" id="Layer_1" x="0px" y="0px" viewBox="0 0 400 400" style="enable-background:new 0 0 400 400;" xml:space="preserve"><style type="text/css">	.st0{fill:#322B6A;}</style><g>	<path class="st0" d="M280.2,67.85c-29.4,0-53.2,23.8-53.2,53.2c0,29.4,23.9,53.3,53.3,53.3c29.4-0.1,53.2-23.8,53.2-53.2  C333.5,91.75,309.6,67.85,280.2,67.85z M300.8,124.05c-8.6,6.2-17.1,12.4-25.6,18.6c-1.2,0.9-2.4,1.3-3.8,0.6  c-1.4-0.8-1.7-2-1.7-3.5c0-6.2,0-12.4,0-18.6s0-12.4,0-18.6c0-1.6,0.3-2.9,1.8-3.6c1.4-0.7,2.7-0.2,3.9,0.7  c8.5,6.2,17,12.3,25.5,18.5C303.3,119.95,303.3,122.25,300.8,124.05z"></path>	<path class="st0" d="M187.2,200.35c-7-2.5-14.7-0.5-19.4,5.2c-4.8,5.8-5.5,13.8-1.7,20.3c3.8,6.4,11,9.7,18.3,8.4  c8.9-1.6,14.5-8.7,14.5-18.6c0-24.1,0-48.1,0-72.2c0-5.3-2.2-6.9-7.4-5.4c-19.4,5.6-38.9,11.1-58.3,16.7c-4.2,1.2-4.9,2.1-4.9,6.3  c0,18.4,0,36.7,0,55.1c0,0.9,0,1.8,0,3c-1.2-0.5-2.1-0.8-3-1.1c-6.8-2.4-14.1-0.7-18.9,4.7c-5,5.6-6.1,12.1-3.1,19  s8.6,10.4,16.1,10.5c9.8,0.1,17.6-7.8,17.6-17.8c0.1-16.9,0-33.8,0-50.7c0-1,0-2,0-3.1c17.7-5,35.2-10,52.8-15.1c0,12.2,0,24,0,36  C188.9,201.05,188,200.65,187.2,200.35z"></path>	<path class="st0" d="M269.9,228.35c-2.9-0.8-5.8-1.3-8.9-1.9v-34.5c-3-0.8-5.9-1.9-8.8-3.1c0,11.6,0,23.3,0,34.9  c0,2.1-0.4,2.9-2.7,3.2c-27.7,3.7-47.7,28-45.8,55.9c1,15.4,7.8,28,19.8,37.8c1,0.8,2,1.6,3.4,2.6H75.6v-193.9h3  c14.5,0,29,0,43.5,0c5.1,0,6.4-1.3,6.4-6.4c0-14.5,0-29,0-43.5v-3h93.6c2.4-3.2,5.1-6.2,7.9-8.9H122.8c-1.1,0.9-2.3,1.7-3.4,2.8  c-16.6,16.7-33.3,33.4-50.1,50c-1.9,1.9-2.8,3.9-2.8,6.6c0,66.4,0,132.8,0,199.2c0,4.9,1.3,6.3,6.3,6.3c60.8,0,121.6,0,182.4,0  c3,0,6-0.2,9-0.6c24.8-3.9,43.4-24.7,44.7-50C310.3,257.35,293.8,234.75,269.9,228.35z M278.3,274.85c-2,1.9-4.5,1.6-7-0.9  c-3.3-3.2-6.5-6.5-9.7-9.8c-0.2,0.1-0.4,0.2-0.6,0.3c0,0.9,0,1.8,0,2.7c0,12.3,0,24.6,0,36.9c0,0.9,0.1,1.8-0.1,2.6  c-0.4,2.3-2.3,3.7-4.6,3.6c-2.4-0.1-4-1.7-4.1-4.2c-0.1-3,0-6,0-9c0-10,0-20.1,0-30.2c0-0.8-0.1-1.7-0.2-3.3  c-2.6,2.7-4.8,4.9-6.9,7.1c-1.3,1.4-2.6,2.7-4,4c-2.1,1.9-4.5,1.9-6.3,0.2c-1.8-1.8-1.8-4.4,0.1-6.5c0.1-0.1,0.3-0.3,0.5-0.5  c5.7-5.8,11.5-11.5,17.2-17.2c2.9-2.8,5-2.8,7.8,0c5.7,5.7,11.4,11.4,17.2,17.2C280.1,270.35,280.3,272.85,278.3,274.85z"></path></g></svg>