<svg xmlns="http://www.w3.org/2000/svg" xmlns:xlink="http://www.w3.org/1999/xlink" id="Layer_1" x="0px" y="0px" viewBox="0 0 400 400" style="enable-background:new 0 0 400 400;" xml:space="preserve"><style type="text/css">	.st0{fill:#322B6A;}</style><g>	<path class="st0" d="M269,202.5c-7.6-0.1-13.8,5.9-13.9,13.4c-0.1,7.4,6,13.6,13.4,13.7c7.7,0.1,14.1-6.1,14-13.6  C282.5,208.5,276.5,202.6,269,202.5z"></path>	<path class="st0" d="M130.4,202c-7.6-0.1-13.8,6-13.9,13.5c0,7.2,6.1,13.5,13.3,13.6c8,0.1,14.1-5.8,14-13.5  C143.9,208.1,137.9,202.1,130.4,202z"></path>	<path class="st0" d="M199.7,121.9c7.7,0.1,13.7-5.7,13.8-13.2c0.1-7.9-5.6-13.9-13.3-14c-7.6-0.1-13.8,5.7-13.8,13.2  C186.3,115.7,192.1,121.8,199.7,121.9z"></path>	<path class="st0" d="M336.5,109.7c-8.6-5-17.2-9.9-25.7-14.9l-26.9-15.7c-24.1-14-48.3-28.1-72.4-42.2c-3.5-2.1-7.1-3.1-10.8-3.1  c-3.6,0-7.1,1-10.5,2.9c-41.9,24.1-83.9,48.1-125.9,72c-6.8,3.9-10.5,10.4-10.6,18.3c-0.1,48.2-0.3,96.5-0.6,144.7  c0,8,3.8,14.6,10.7,18.6c7.8,4.5,15.6,9,23.4,13.5l0.8,0.5c33.7,19.7,67.5,39.3,101.2,59c3.2,1.9,6.6,2.8,10.1,2.9  c3.6,0,7-1,10.3-2.9c4.9-2.9,9.9-5.7,14.9-8.6l26-14.8c28.3-16.2,56.7-32.4,85-48.6c6.9-4,10.8-10.5,10.8-18.5  c0-19.1,0.1-38.2,0.2-57.4l0.1-29.4c0.1-19.4,0.1-38.8,0.3-58.1C347,120.2,343.2,113.6,336.5,109.7z M168.5,144.2  c0.5-9.6,5.6-16.4,14.2-20.6c-10.6-13.4-4.8-27.4,3-33.4c9-7,21.9-6.3,30,1.8c8.6,8.6,9,21.2,0.8,31.6c1.8,1.2,3.7,2,5.4,3.3  c5.7,4.5,8.5,10.5,8.8,17.5c0.3,6.3,0.1,12.6,0,18.9c-0.1,4.3-3.6,6.5-6.9,4.6c-1.3-0.7-1.9-1.8-2.2-3.2c-0.5-2.7-0.2-5.5-0.2-8.3  c-0.1-3.5,0-7,0-10.5c0-8.4-4.4-14-12.8-14.8c-6.5-0.6-13.1-0.9-19.6,0.2c-6.1,1-10.7,6.2-11,12.3c-0.2,6.2-0.1,12.4-0.2,18.6  c0,0.9-0.1,1.9-0.3,2.9c-0.5,2.2-2.1,3.2-4.1,3.3c-2.1,0.2-3.6-0.9-4.4-2.9c-0.3-0.7-0.4-1.5-0.6-2.4  C168.4,156.8,168.2,150.5,168.5,144.2z M161,270.6c0,3.2-1.7,5.3-4.3,5.4c-2.7,0.1-4.8-2.1-4.8-5.4c-0.1-5.9,0-11.9,0-17.8  c0-8.4-6-14.5-14.4-14.5c-5.7,0-11.5-0.7-17.2,0.2c-7.7,1.2-12.1,6.8-12.2,14.7c-0.1,5.9,0,11.9-0.1,17.8c0,2.6-1.9,4.6-4.2,4.8  c-2.3,0.1-4.8-1.8-4.8-4.2c0-7.5-0.5-15.1,0.4-22.6c1.1-8.5,6.1-14.4,13.9-18.1c-6.9-9.2-7.8-18.7-2.6-27.2  c6.7-10.9,21.2-14.3,31.8-7.4c11,7.1,13.9,21.5,6.4,32.1c-1.6,2.3-1.3,2.8,1,4.2c7.2,4.4,11.3,10.9,11.2,19.6  C161,258.4,161,264.5,161,270.6z M232.4,226.2c-0.3,2-1.8,3.1-3.6,3.6s-3.1-0.5-4.5-1.4c-7.5-4.7-15.1-9.4-22.6-14.2  c-1.5-1-2.6-1.1-4.1-0.1c-7.6,4.8-15.2,9.5-22.9,14.2c-1.4,0.9-2.7,1.8-4.5,1.2c-1.9-0.6-3.1-1.9-3.4-3.8c-0.3-2,0.6-3.6,2.4-4.7  c7.8-4.8,15.5-9.7,23.4-14.4c1.9-1.1,2.4-2.4,2.4-4.5c-0.1-7.3,0-14.6,0-21.9c0-0.5,0-1.1,0-1.6c0.1-3.8,1.9-6,4.8-5.9  c2.9,0.1,4.6,2.3,4.6,6.1c0.1,4,0,8.1,0,12.1c0,3.9,0,7.7-0.1,11.6c-0.1,1.8,0.5,2.9,2.1,3.9c7.8,4.8,15.6,9.8,23.5,14.7  C231.9,222.3,232.7,224,232.4,226.2z M299.7,271.3c0,3.2-1.9,5.4-4.6,5.5c-2.6,0.1-4.5-2.3-4.5-5.6c0.1-5.7,0.1-11.3,0.1-17  c0-9-5.9-15.1-14.9-15.1c-4.6-0.1-9.3-0.1-14-0.1c-8.8,0-14.8,5.9-14.8,14.6c0,6,0,12.1-0.1,18.1c0,2.2-1.1,3.9-3.4,4.6  c-2.1,0.7-3.6-0.3-4.9-1.8c-0.8-0.9-0.8-2-0.8-3.1c0-3.5,0-6.9,0-11.1c0.3-3.6-0.5-8,0.5-12.4c1.6-6.8,5.4-11.9,11.5-15.2  c2-1.1,1.9-1.7,0.6-3.4c-10-13.5-1.8-33.2,14.8-35.8c9.4-1.5,18.3,2.8,23.4,11.1c4.5,7.4,4,17.5-1.5,24.8c-1.4,1.9-0.9,2.4,0.8,3.4  c7.9,4.6,11.8,11.5,11.9,21C299.8,259.6,299.7,265.5,299.7,271.3z"></path></g></svg>