<svg xmlns="http://www.w3.org/2000/svg" xmlns:xlink="http://www.w3.org/1999/xlink" id="Layer_1" x="0px" y="0px" viewBox="0 0 400 400" style="enable-background:new 0 0 400 400;" xml:space="preserve"><style type="text/css">	.st0{fill:#322B6A;}</style><g>	<path class="st0" d="M333.04,272.77c-17.58-12.64-35.95-24.04-55.45-33.48c-11.87-5.75-13.8-5.17-22.53,4.86  c-5.03,5.78-10.2,11.44-15.25,17.2c-1.27,1.46-2.5,1.67-4.39,1.15c-19.36-5.36-36.42-15.07-51.67-27.91  c-22.24-18.7-37.95-41.85-46.37-69.8c-0.62-2.07-0.43-3.51,1.24-4.96c6.02-5.24,11.96-10.56,17.92-15.87  c9.05-8.05,9.57-9.91,4.4-20.8c-9.56-20.17-21.5-38.93-34.38-57.11c-1.26-1.78-2.85-3.38-4.5-4.82c-3.57-3.12-6.32-3.29-10.25-0.67  c-2,1.33-3.95,2.8-5.72,4.43C89.54,80.23,75.54,97.61,62.7,116.02c-3.73,5.35-4.36,10.7-3.23,16.93  c3.44,18.99,10.18,36.76,19.19,53.71c20.7,38.93,48.94,71.67,82.78,99.69c24.42,20.22,50.89,37.04,81.01,47.57  c10.33,3.61,20.89,6.27,32.94,7.35c1.38-0.64,3.78-1.42,5.83-2.75c19.84-12.84,37.96-27.78,53.94-45.2  C343.51,284.22,343.11,280.01,333.04,272.77z"></path>	<path class="st0" d="M257.18,203.72c32.12-1.49,57.56-28.99,56.15-62.35c-1.32-31.79-29.32-57.8-61.11-56.48  c-33.36,1.32-59.13,28.74-57.89,61.6C195.57,179.77,223.32,205.29,257.18,203.72z M254.12,95.21  c27.42,0.33,49.22,22.63,48.89,50.04c-0.33,27-22.79,48.64-50.21,48.31c-26.51-0.33-48.39-22.79-48.14-49.55  C204.9,116.93,227.28,94.88,254.12,95.21z"></path>	<path class="st0" d="M254.04,175.06c17.01-0.17,30.55-13.87,30.47-30.88s-13.71-30.55-30.8-30.47  c-16.93,0.08-30.47,13.79-30.39,30.8C223.32,161.52,237.11,175.23,254.04,175.06z"></path></g></svg>