<svg xmlns="http://www.w3.org/2000/svg" xmlns:xlink="http://www.w3.org/1999/xlink" id="Layer_1" x="0px" y="0px" viewBox="0 0 400 400" style="enable-background:new 0 0 400 400;" xml:space="preserve"><style type="text/css">	.st0{fill:#322B6A;}</style><g>	<path class="st0" d="M232.64,119.43c25.21,0,50.53,0,75.74,0c0.93,0,1.97-0.23,3.7-0.46c-30.18-26.25-59.78-52.03-90.19-78.4  c-0.12,2.2-0.23,3.24-0.23,4.28c0,21.28,0,42.55,0.12,63.83C221.77,117.35,223.85,119.43,232.64,119.43z"></path>	<path class="st0" d="M172.81,211.19c-3.09,0-6.1,0-9.19,0c-2.73,0-3.55,0.95-3.55,4.12c0,9.4,0,18.8,0,28.2c0,9.61,0,19.23,0,28.84  c0,2.64,0.91,3.8,3.28,3.8c3.19,0,6.37,0,9.47,0c2.28,0,3.28-1.16,3.28-3.8c0-19.12,0-38.24,0-57.36  C176.08,212.36,175.08,211.19,172.81,211.19z"></path>	<path class="st0" d="M215.59,223.55c-3.19,0-6.46,0-9.65,0c-2.18,0-3.19,1.16-3.19,3.7c0,15.11,0,30.11,0,45.21  c0,2.54,1,3.7,3.19,3.7c3.09,0,6.19,0,9.28,0c2.64,0,3.46-1.06,3.46-4.01c0-7.39,0-14.79,0-22.18c0-7.5,0-15.11,0-22.61  C218.68,224.71,217.68,223.55,215.59,223.55z"></path>	<path class="st0" d="M240.07,272.25c0-5.92,0-11.73,0-17.64c0-6.02,0-11.94,0-17.96c-0.09-2.64-1-3.8-3.28-3.8  c-3.19,0-6.37,0-9.47,0c-2.28,0-3.28,1.06-3.28,3.8c0,11.94,0,23.87,0,35.7c0,2.64,0.91,3.8,3.28,3.8c3.09,0,6.19,0,9.28,0  C239.07,276.16,239.98,275.1,240.07,272.25z"></path>	<path class="st0" d="M194.01,239.08c-3.09,0-6.1,0-9.19,0c-2.55,0-3.46,1.06-3.46,3.91c0,4.86,0,9.61,0,14.47  c0,4.96,0,9.93,0,14.89c0,2.64,0.91,3.8,3.19,3.8c3.19,0,6.37,0,9.47,0c2.28,0,3.28-1.06,3.28-3.7c0-9.82,0-19.75,0-29.58  C197.38,240.14,196.47,239.08,194.01,239.08z"></path>	<path class="st0" d="M324.57,134.12c-2.08,0-3.82,0-5.43,0c-29.14,0-58.16,0.12-87.3,0c-16.42-0.12-24.98-8.67-24.98-24.98  c0-24.17,0-48.45,0-72.62c0-1.5,0-3.01,0-4.86c-1.39-0.12-1.97-0.23-2.54-0.23c-40.24,0-80.6,0-120.84,0  c-6.24,0-8.67,2.89-8.67,9.71c0,103.95,0,207.79,0,311.63c0,7.17,2.54,9.71,9.6,9.71c76.9,0,153.79,0,230.69,0  c7.4,0,9.83-2.43,9.71-9.94c0-71.34,0-142.81,0-214.15C324.8,137.01,324.68,135.73,324.57,134.12z M266.47,240.83  c4.49-0.38,11.89-0.56,18.96,1.36c0.04,0.93,0.06,1.87,0.06,2.81c0,13.76-3.16,26.78-8.77,38.38c-6.98-3.01-14.68-3.82-19.26-4.02  c5.82-10.12,9.14-21.86,9.14-34.36C266.6,243.6,266.56,242.21,266.47,240.83z M219.49,159.71c39.66,9.89,62.99,43.55,65.99,75.54  c-3.22,0-6.44,0-9.67,0c-3.22,0-6.44,0-9.55,0c-6.22-29.77-23.22-49.55-52.99-56.88c-24.77-6.11-53.1,3.33-69.88,26.11  c-4.55-4.55-9.11-9.22-13.66-13.78C147.51,166.82,182.72,150.6,219.49,159.71z M140.62,310.91  c-31.33-26.33-40.88-76.43-15.33-114.2c4.67,4.67,9.33,9.33,13.89,13.89c-15.89,32.44-11,61.43,14.89,86.87  C149.73,301.8,145.17,306.35,140.62,310.91z M188.61,332.24c-15.66-1.78-29.88-7.44-42.77-17c4.55-4.44,8.89-8.78,13.22-13.22  c1-1,1.56-0.22,2.22,0.22c7.67,4.89,15.89,8.22,24.88,9.89c12.78,2.33,25.22,1.11,37.22-3.55c0.56-0.22,1.11-0.44,2.11-0.78  c-1.56,7-1.33,13.66,0.89,20.33C214.05,332.35,201.39,333.79,188.61,332.24z M228.05,299.13c-37.44,20.55-84.1-2.22-90.87-44.33  c-5.44-33.77,17.77-65.99,51.55-71.21c3.22-0.44,6.44-0.67,8.11-0.78c32.66,0,58.88,23.11,62.88,54.1  c2.11,16.66-2,31.77-11.89,45.1c-0.56,0.78-1.56,1.56-2.44,2c-6.22,3-11.33,7.33-15.11,13.11  C229.71,297.91,228.94,298.69,228.05,299.13z M237.27,334.79c-6.78-9.44-8.33-19.33-3.78-29.88c4.33-10.11,12.33-15.66,23.33-17.44  c0.11,0.78,0.11,1.22,0.11,1.78c0,8.22,0,16.33,0,24.55c0,0.78-0.33,1.78-0.89,2.33c-5.89,6-11.89,12-17.89,18  C237.94,334.35,237.71,334.46,237.27,334.79z M273.71,342.57c-10.11,5.33-23.33,4-31.66-3.22c3.67-3.67,7.22-7.22,10.66-10.66  c2.67-2.67,5.22-5.22,7.89-7.78c0.44-0.44,1.22-1,1.78-1c8.89-0.11,17.66,0,26.55,0C289.7,327.24,282.48,338.02,273.71,342.57z   M263.43,314.25c0-8.44,0-16.89,0-25.44c11.22,0.44,24.33,11,25.55,25.44C280.43,314.25,271.99,314.25,263.43,314.25z"></path></g></svg>