<svg xmlns="http://www.w3.org/2000/svg" xmlns:xlink="http://www.w3.org/1999/xlink" id="Layer_1" x="0px" y="0px" viewBox="0 0 400 400" style="enable-background:new 0 0 400 400;" xml:space="preserve"><style type="text/css">	.st0{fill:#322B6A;}</style><g>	<path class="st0" d="M306.2,157.75c0.4-0.3,0.7-0.7,1.1-1.1c6.8-6.8,13.6-13.7,20.4-20.4c1.7-1.7,2.6-3.5,2.2-5.9  c-0.7-0.7-1.5-1.5-2.2-2.2c-1.6,0.4-3.7,0.3-4.7,1.2c-7.7,7.4-15.2,15-22.7,22.6c-1.7,1.8-1.6,4.2,0,5.8  C302,159.45,304.4,159.45,306.2,157.75z"></path>	<path class="st0" d="M306.9,269.55c-2.2-2.1-4.7-2.2-6.4-0.5c-1.7,1.8-1.5,4.2,0.7,6.4c3.6,3.6,7.2,7.2,10.8,10.8  s7.2,7.2,10.8,10.7c2.2,2.2,4.5,2.3,6.3,0.5c1.7-1.8,1.6-4.1-0.4-6.2C321.4,283.95,314.2,276.75,306.9,269.55z"></path>	<path class="st0" d="M359.1,209.25c-10.3,0-20.6,0-30.9,0.1c-1.2,0-2.4,0.5-4.1,1c-0.1,1.7-0.6,3.2-0.3,4.5c0.4,2,2.2,2.7,4.2,2.7  c10.4,0,20.8,0,31.2,0c2.8,0,4.6-1.8,4.6-4.1C363.7,210.85,362,209.25,359.1,209.25z"></path>	<path class="st0" d="M149.2,229.72c0,25.84,0,51.08,0,76.18c6.4,0.15,12.9,0.15,19.2,0.15c0-25.39-0.1-51.08-0.1-76.92  C162.1,229.28,155.5,229.57,149.2,229.72z"></path>	<path class="st0" d="M172.6,269.05c5.9-1.6,12.1-9.6,12.1-16.3c-4.1,0.3-8.3,0.5-12.1,0.7C172.6,258.85,172.6,264.05,172.6,269.05z  "></path>	<path class="st0" d="M222,180.65c-13.8,3.8-27.8,2.3-41.5,1.7c0.1,20.9,0.1,41.6,0.1,62.5c13.8-0.7,27.8-2.2,41.6,1.6  c13.7,3.7,25.9,10.7,38,17.3c0-33.5-0.1-66.9-0.1-100.4C247.8,170.05,235.6,176.85,222,180.65z"></path>	<path class="st0" d="M283.4,158.55c-0.1-2.3-1-4.5-1.2-5.7c-3.8-3.7-8.2-3.7-11-1c-2.1,2-2.3,4.5-2.3,7.1c0,32.3,0.1,64.7,0.1,97  c0,4.7-0.1,9.5,0.1,14.2c0.2,3.5,2.3,6,5.4,6.8c3,0.8,6.3-0.3,7.8-3.1c0.8-1.6,1.2-3.6,1.2-5.4c0.1-17.6,0-35.1,0-52.6  C283.5,196.75,283.5,177.65,283.4,158.55z"></path>	<path class="st0" d="M174.8,159.05c-0.1-7.2-3.2-10.8-10.4-12c-6.3-1-9.1-8-5.3-13.1c4.4-6,4.1-10.9-1.1-16.1c-2.3-2.3-4.6-4.7-7-7  c-4.8-4.6-9.9-4.9-15.2-0.9c-4.9,3.6-13.1,0.1-13.9-6c-0.9-6.2-4.9-9.7-11.2-9.9c-3.3-0.1-6.6-0.1-9.9-0.1c-7.5,0-11,3.1-12.2,10.5  c-0.9,5.4-8.9,8.6-13.3,5.4c-5.5-4.1-10.5-3.7-15.5,1.1c-2.4,2.3-4.7,4.6-7,7c-4.7,4.8-5.1,10.1-1,15.5c3.6,4.9,0.7,11.9-5.3,12.8  c-6.8,1.1-10.2,4.9-10.3,11.7c0,3,0,6.1,0,9.1c0,8.1,3.3,12.1,11.4,12.6c4.9,0.3,3.9,4.6,5.7,7c1.3,1.8,0.9,3.3-0.5,5.1  c-1.8,2.4-3,5.3-4.5,8c1.1,2.8,1.6,5.2,2.9,6.9c2.3,3,5.2,5.7,7.9,8.4c5.5,5.5,11,6.2,16.7,1.1c4.2-3.8,7,0,10.4,0.7  c3,0.6,2.6,3.1,2.8,5.2c0.6,6.5,4.8,10.5,11.4,10.6c2.9,0.1,5.8,0,8.7,0c9.3,0.1,12.6-2.9,13.8-12.1c0.1-1.2,0.3-2.6,1-3.4  c2.7-2.8,8-2.8,11.6-0.1c5.4,4.1,10.7,3.7,15.5-1.1c2.2-2.1,4.3-4.2,6.5-6.4c5.5-5.6,6.2-10.9,1-16.7c-3-3.4-1.3-5.8-0.3-8.9  c1-3.2,3.3-3.1,5.8-3.4c7-0.6,10.7-4.7,10.8-11.6C174.9,165.65,174.8,162.35,174.8,159.05z M104.9,189.95  c-14.7,0-26.8-12-26.8-26.7c0-15.1,11.9-27.1,26.9-27.1c15.1,0,26.9,11.9,26.9,26.9C131.9,178.15,120,189.95,104.9,189.95z"></path></g></svg>