<svg xmlns="http://www.w3.org/2000/svg" width="48" height="48" viewBox="0 0 48 48" fill="none"><g><path d="M46 20.5372C44.6481 19.3477 42.82 18.8567 40.9859 19.1903C39.4396 19.4715 38.3172 20.8167 38.3172 22.3888V24.7021C38.3172 26.1278 39.2402 27.367 40.5653 27.7954C39.1818 33.8694 34.5663 38.7063 28.562 40.3753C28.0792 39.1639 26.8908 38.3212 25.5399 38.3212H22.4845C20.8666 38.3212 19.4817 39.5302 19.2632 41.1332C19.143 42.0149 19.1941 42.868 19.4028 43.6616C18.7345 43.5809 18.0978 43.4646 17.478 43.3089C8.01516 40.9321 1.40625 32.4485 1.40625 22.678C1.40625 10.9488 10.9477 1.40625 22.6757 1.40625C31.8342 1.40625 39.8885 7.24153 42.8033 15.7845C42.5159 15.7337 42.2156 15.8659 42.0661 16.1355C41.8778 16.4752 42.0006 16.903 42.3401 17.0914L43.5923 17.7856C43.6253 17.8056 43.6601 17.8224 43.6961 17.8367C43.6969 17.837 43.6976 17.8372 43.6983 17.8375C43.7521 17.8588 43.8084 17.8735 43.8667 17.881C43.8693 17.8814 43.8719 17.8815 43.8745 17.8818C43.8984 17.8846 43.9226 17.8861 43.947 17.8864C43.9504 17.8865 43.9538 17.887 43.9572 17.887C43.9603 17.887 43.9634 17.8865 43.9665 17.8864C43.9921 17.886 44.0178 17.8843 44.0436 17.881C44.0483 17.8805 44.053 17.8803 44.0578 17.8795C44.0822 17.876 44.1067 17.8712 44.1311 17.8649C44.1345 17.8641 44.1376 17.8628 44.1409 17.8619C44.1442 17.861 44.1477 17.8607 44.1511 17.8597C44.163 17.8564 44.1744 17.8519 44.1861 17.8478C44.1922 17.8458 44.1984 17.8438 44.2045 17.8416C44.2216 17.8352 44.2381 17.8279 44.2545 17.8202C44.2589 17.8181 44.2635 17.8162 44.2679 17.8141C44.2856 17.8054 44.3028 17.7957 44.3197 17.7856C44.3222 17.784 44.3248 17.7827 44.3273 17.7811C44.346 17.7695 44.3641 17.757 44.3816 17.7438C44.3819 17.7436 44.3823 17.7433 44.3826 17.7431C44.4594 17.6846 44.5245 17.6108 44.5723 17.5247L45.2797 16.2482C45.4678 15.9085 45.345 15.4806 45.0053 15.2924C44.7226 15.1358 44.3789 15.1952 44.163 15.4155C41.08 6.26053 32.4701 0 22.6757 0C16.6188 0 10.9244 2.35894 6.64153 6.64228C2.35866 10.9256 0 16.6206 0 22.678C0 27.8338 1.68609 32.6923 4.87594 36.7284C7.96969 40.6429 12.3236 43.4642 17.1355 44.6729C18.0521 44.9031 18.9984 45.0551 20.0163 45.1362C20.2231 45.4864 20.4666 45.817 20.7488 46.1223C21.862 47.3265 23.4151 48 25.0531 48C25.1669 48 25.2812 47.9967 25.3957 47.9902C31.2976 47.6526 36.8493 45.1552 41.028 40.9579C45.2092 36.758 47.6824 31.1896 47.9917 25.2788C48.0867 23.4629 47.3607 21.7347 46 20.5372V20.5372ZM46.5874 25.2052C45.9841 36.7352 36.8391 45.927 25.3153 46.5863C23.9733 46.6614 22.6856 46.1458 21.7812 45.1676C20.8546 44.1653 20.4552 42.8001 20.6566 41.3232C20.7806 40.4135 21.5665 39.7274 22.4846 39.7274H25.54C26.4463 39.7274 27.2226 40.3963 27.3618 41.2888V41.604C27.3618 41.9924 27.6765 42.3071 28.0649 42.3071C28.3915 42.3071 28.6654 42.0841 28.7443 41.7822C31.998 40.9154 34.9452 39.1708 37.2947 36.7136C39.6456 34.2551 41.2555 31.2309 41.9736 27.9381C42.2714 27.8563 42.4905 27.5844 42.4905 27.2606C42.4905 26.8722 42.1758 26.5575 41.7874 26.5575H41.4574L41.2386 26.5177C40.3607 26.3581 39.7235 25.5944 39.7235 24.702V22.3887C39.7235 21.4966 40.3602 20.7333 41.2374 20.5738C42.6675 20.3142 44.0287 20.6758 45.071 21.593C46.1071 22.5048 46.6598 23.8213 46.5874 25.2052V25.2052Z" fill="#B2C4DC"></path><path d="M35.637 7.34784C35.3625 7.07334 34.9173 7.07324 34.6427 7.34793L7.44077 34.5527C7.16618 34.8273 7.16627 35.2725 7.44077 35.547C7.57812 35.6842 7.75802 35.7529 7.93793 35.7529C8.11784 35.7529 8.29784 35.6842 8.43518 35.5469L35.6371 8.34224C35.9116 8.06765 35.9116 7.62243 35.637 7.34784V7.34784Z" fill="#B2C4DC"></path><path d="M10.0791 16.2448L6.19428 19.6397C5.70631 20.0661 6.00893 20.8731 6.65721 20.8731H11.3471C11.7356 20.8731 12.0506 20.5545 12.0506 20.1658C12.0506 19.7772 11.7356 19.4623 11.3471 19.4623H8.53812L11.007 17.3075C13.12 15.4631 11.8167 11.9576 9.00218 11.9576C6.11815 11.9576 5.13828 15.7118 6.65899 15.7118C7.04731 15.7118 7.36249 15.397 7.36249 15.0082C7.36249 14.104 8.09806 13.3684 9.00218 13.3684C10.5104 13.3684 11.2189 15.249 10.0791 16.2448V16.2448Z" fill="#B2C4DC"></path><path d="M13.8707 13.745L12.3715 18.0626C12.213 18.5195 12.5528 18.9969 13.0361 18.9969H16.5517C16.5515 20.2016 16.4912 20.3998 16.7586 20.667C17.2011 21.1099 17.9624 20.7925 17.9624 20.1677V18.9969H19.1314C19.52 18.9969 19.8349 18.682 19.8349 18.2933C19.8349 17.8906 19.5109 17.5862 19.1314 17.5862H17.9624L17.9588 12.6623C17.9584 12.274 17.6436 11.9594 17.2553 11.9594C16.8669 11.9594 16.5518 12.2742 16.5518 12.6629V17.5861H14.0283C14.0428 17.5443 15.192 14.2441 15.2034 14.2013C15.4527 13.2521 14.1592 12.9138 13.8707 13.745V13.745Z" fill="#B2C4DC"></path><path d="M25.9002 32.0532C26.001 32.1036 26.1081 32.1275 26.2135 32.1275C26.4714 32.1275 26.7198 31.9849 26.8429 31.7384L30.5912 24.2287C30.6999 24.0108 30.6882 23.7521 30.5601 23.545C30.432 23.3379 30.2059 23.2119 29.9624 23.2119H25.654C25.2659 23.2119 24.9513 23.5266 24.9513 23.9148C24.9513 24.303 25.2659 24.6176 25.654 24.6176H28.8262L25.5854 31.1107C25.412 31.4578 25.553 31.8799 25.9002 32.0532V32.0532Z" fill="#B2C4DC"></path></g><defs><rect width="48" height="48" fill="white"></rect></defs></svg>