<svg xmlns="http://www.w3.org/2000/svg" xmlns:xlink="http://www.w3.org/1999/xlink" id="Layer_1" x="0px" y="0px" viewBox="0 0 400 400" style="enable-background:new 0 0 400 400;" xml:space="preserve"><style type="text/css">	.st0{fill:#322B6A;}</style><g>	<path class="st0" d="M82.53,104.36h-0.45c-5.06,0-9.22,4.27-9.22,9.33v9.44h9.66V104.36z"></path>	<rect x="72.86" y="128.41" class="st0" width="9.66" height="138.57"></rect>	<path class="st0" d="M82.08,290.92h3.71c-2.02-2.47-3.26-5.62-3.26-8.99v-9.67h-9.66v9.33C72.86,286.76,77.02,290.92,82.08,290.92z  "></path>	<path class="st0" d="M67.58,223.26c-2.81,1.8-5.39,3.93-7.75,6.29l7.75,5.96V223.26z"></path>	<path class="st0" d="M66.34,241.02l-10.11-7.75c-2.36,2.7-4.38,5.73-6.18,8.77l11.24,5.96C62.75,245.4,64.43,243.16,66.34,241.02z"></path>	<path class="st0" d="M58.7,252.71l-11.24-5.96c-1.35,2.81-2.58,5.84-3.71,8.99l12.25,3.6C56.79,257.09,57.69,254.84,58.7,252.71z"></path>	<path class="st0" d="M54.65,264.4l-12.25-3.6c-0.79,3.26-1.46,6.63-1.8,10l12.7,0.56C53.64,269,54.09,266.64,54.65,264.4z"></path>	<path class="st0" d="M52.86,276.53l-12.7-0.45c-0.22,3.15-0.22,6.29,0.11,9.44l12.59-1.69C52.74,281.48,52.74,279.01,52.86,276.53z  "></path>	<polygon class="st0" points="53.31,289.12 40.72,290.81 42.85,300.81 54.77,296.42  "></polygon>	<path class="st0" d="M56.23,301.48l-11.91,4.27c1.24,3.37,2.58,6.41,4.27,9.44l10.79-6.74C58.14,306.2,57.13,303.95,56.23,301.48z"></path>	<path class="st0" d="M62.18,312.72l-10.79,6.74c2.25,3.15,4.72,5.96,7.42,8.32l7.87-10C65.11,316.32,63.53,314.63,62.18,312.72z"></path>	<path class="st0" d="M70.95,321.04l-7.98,10c2.81,2.47,6.18,4.16,10.23,5.06l4.05-12.03c-2.25-0.79-4.27-1.8-6.18-2.92  L70.95,321.04z"></path>	<path class="st0" d="M82.3,325.42l-4.05,12.14c3.6,0.9,7.3,1.35,11.13,1.35l-0.34-12.7C86.8,326.09,84.55,325.87,82.3,325.42z"></path>	<path class="st0" d="M116.24,296.31H82.08c-7.98,0-14.5-6.52-14.5-14.5v-33.94c-7.75,10.68-11.24,26.41-9.1,41.24  c1.91,12.59,7.42,22.7,15.28,27.53c9.33,5.73,24.61,6.63,34.05-1.69C112.53,310.7,115.57,303.84,116.24,296.31z"></path>	<path class="st0" d="M94.21,326.09l0.34,12.7c3.15-0.22,6.74-0.9,10.34-1.91l-3.37-12.36C99.16,325.31,96.69,325.87,94.21,326.09z"></path>	<path class="st0" d="M106.35,322.27l3.37,12.59c4.27-1.91,7.87-4.38,10.68-7.3l-8.88-9.1L106.35,322.27z"></path>	<path class="st0" d="M115,314.63l8.99,9.1c2.81-3.37,4.94-7.19,6.63-11.24l-12.36-3.48C117.36,311.03,116.24,312.95,115,314.63z"></path>	<path class="st0" d="M121.41,296.31c-0.22,2.7-0.67,5.28-1.35,7.75l12.25,3.37c1.69-3.71,2.47-7.42,1.8-11.13H121.41z"></path>	<path class="st0" d="M205.58,80.54c0.67-3.93,4.05-6.74,7.98-6.74h41.36c3.93,0,7.3,2.81,7.98,6.74l2.92,18.66h12.92L273.8,69.3  c-0.79-4.72-4.83-8.2-9.67-8.2h-59.9c-4.83,0-8.88,3.37-9.66,8.2l-5.06,29.89h12.92L205.58,80.54z"></path>	<path class="st0" d="M255.03,78.96h-41.36c-1.46,0-2.58,1.01-2.81,2.36l-2.92,17.87h52.82l-2.92-17.87  C257.62,79.97,256.38,78.96,255.03,78.96z"></path>	<path class="st0" d="M153.44,272.37v9.66c0,3.37-1.24,6.52-3.26,8.99h200.49c5.06,0,9.22-4.27,9.22-9.33l0.11-9.33H153.44z"></path>	<path class="st0" d="M359.89,113.8c0-5.17-4.16-9.33-9.22-9.33H153.33v18.77h206.56V113.8z"></path>	<ellipse class="st0" cx="255.15" cy="212.81" rx="9.33" ry="6.41"></ellipse>	<ellipse class="st0" cx="183.56" cy="242.71" rx="9.33" ry="6.41"></ellipse>	<ellipse class="st0" cx="183.56" cy="182.81" rx="9.33" ry="6.41"></ellipse>	<ellipse class="st0" cx="255.15" cy="242.71" rx="9.33" ry="6.41"></ellipse>	<ellipse class="st0" cx="255.15" cy="182.81" rx="9.33" ry="6.41"></ellipse>	<ellipse class="st0" cx="219.41" cy="152.8" rx="9.33" ry="6.41"></ellipse>	<ellipse class="st0" cx="183.56" cy="212.81" rx="9.33" ry="6.41"></ellipse>	<ellipse class="st0" cx="219.41" cy="212.81" rx="9.33" ry="6.41"></ellipse>	<ellipse class="st0" cx="219.41" cy="242.71" rx="9.33" ry="6.41"></ellipse>	<ellipse class="st0" cx="219.41" cy="182.81" rx="9.33" ry="6.41"></ellipse>	<ellipse class="st0" cx="183.56" cy="152.8" rx="9.33" ry="6.41"></ellipse>	<rect x="308.53" y="239.33" class="st0" width="36.52" height="6.74"></rect>	<rect x="308.53" y="179.43" class="st0" width="36.52" height="6.74"></rect>	<rect x="308.53" y="149.43" class="st0" width="36.52" height="6.74"></rect>	<rect x="308.53" y="209.33" class="st0" width="36.52" height="6.74"></rect>	<ellipse class="st0" cx="255.15" cy="152.8" rx="9.33" ry="6.41"></ellipse>	<path class="st0" d="M359.89,128.41H153.33v138.68h206.56V128.41z M183.56,254.28c-8.09,0-14.61-5.17-14.61-11.58  c0-6.41,6.63-11.58,14.61-11.58c7.98,0,14.5,5.17,14.5,11.58C198.06,249.11,191.54,254.28,183.56,254.28z M183.56,224.39  c-7.98,0-14.61-5.28-14.61-11.58c0-6.41,6.63-11.58,14.61-11.58c7.98,0,14.5,5.17,14.5,11.58S191.54,224.39,183.56,224.39z   M183.56,194.38c-7.98,0-14.61-5.17-14.61-11.58s6.63-11.58,14.61-11.58c7.98,0,14.5,5.17,14.5,11.58S191.54,194.38,183.56,194.38z   M183.56,164.37c-7.98,0-14.61-5.17-14.61-11.58c0-6.41,6.63-11.58,14.61-11.58c7.98,0,14.5,5.17,14.5,11.58  C198.06,159.2,191.54,164.37,183.56,164.37z M219.41,254.28c-8.09,0-14.61-5.17-14.61-11.58c0-6.41,6.63-11.58,14.61-11.58  c8.09,0,14.61,5.17,14.61,11.58C234.02,249.11,227.39,254.28,219.41,254.28z M219.41,224.39c-8.09,0-14.61-5.28-14.61-11.58  c0-6.41,6.63-11.58,14.61-11.58c8.09,0,14.61,5.17,14.61,11.58S227.39,224.39,219.41,224.39z M219.41,194.38  c-8.09,0-14.61-5.17-14.61-11.58s6.63-11.58,14.61-11.58c8.09,0,14.61,5.17,14.61,11.58S227.39,194.38,219.41,194.38z   M219.41,164.37c-8.09,0-14.61-5.17-14.61-11.58c0-6.41,6.63-11.58,14.61-11.58c8.09,0,14.61,5.17,14.61,11.58  C234.02,159.2,227.39,164.37,219.41,164.37z M255.15,254.28c-7.98,0-14.5-5.17-14.61-11.58c0-6.41,6.63-11.58,14.61-11.58  c8.09,0,14.61,5.17,14.61,11.58C269.76,249.11,263.13,254.28,255.15,254.28z M255.15,224.39c-7.98,0-14.5-5.28-14.61-11.58  c0-6.41,6.63-11.58,14.61-11.58c8.09,0,14.61,5.17,14.61,11.58S263.13,224.39,255.15,224.39z M255.15,194.38  c-7.98,0-14.5-5.17-14.61-11.58c0-6.41,6.63-11.58,14.61-11.58c8.09,0,14.61,5.17,14.61,11.58S263.13,194.38,255.15,194.38z   M255.15,164.37c-7.98,0-14.5-5.17-14.61-11.58c0-6.41,6.63-11.58,14.61-11.58c8.09,0,14.61,5.17,14.61,11.58  C269.76,159.2,263.13,164.37,255.15,164.37z M350.22,248.77c0,1.46-1.12,2.58-2.58,2.58h-41.81c-1.46,0-2.58-1.24-2.58-2.58v-12.03  c0-1.46,1.12-2.58,2.58-2.58h41.81c1.46,0,2.58,1.12,2.58,2.58V248.77z M350.22,218.77c0,1.46-1.12,2.58-2.58,2.58h-41.81  c-1.46,0-2.58-1.24-2.58-2.58v-12.03c0-1.46,1.12-2.58,2.58-2.58h41.81c1.46,0,2.58,1.12,2.58,2.58V218.77z M350.22,188.76  c0,1.46-1.12,2.58-2.58,2.58h-41.81c-1.46,0-2.58-1.12-2.58-2.58v-12.02c0-1.46,1.12-2.58,2.58-2.58h41.81  c1.46,0,2.58,1.12,2.58,2.58V188.76z M350.22,158.87c0,1.46-1.12,2.58-2.58,2.58h-41.81c-1.46,0-2.58-1.24-2.58-2.58v-12.03  c0-1.46,1.12-2.58,2.58-2.58h41.81c1.46,0,2.58,1.12,2.58,2.58V158.87z"></path>	<path class="st0" d="M139.17,86.61H96.8c-4.95,0-8.99,4.05-8.99,8.99v186.44c0,4.94,4.05,8.99,8.99,8.99h42.37  c4.94,0,8.99-4.05,8.99-8.99V95.6C148.16,90.65,144.11,86.61,139.17,86.61z M106.19,214.9h-9.14c-1.06,0-1.88-0.83-1.88-1.88v-9.14  c0-1.06,0.83-1.88,1.88-1.88c1.06,0,1.88,0.83,1.88,1.88v7.25h7.26c1.06,0,1.88,0.83,1.88,1.88S107.24,214.9,106.19,214.9z   M103,192.79v-1.3c0-1.06,0.83-1.88,1.88-1.88c1.06,0,1.88,0.83,1.88,1.88v1.3c0,1.06-0.83,1.88-1.88,1.88  C103.83,194.67,103,193.84,103,192.79z M106.19,173.13h-7.26v7.26c0,1.06-0.83,1.88-1.88,1.88c-1.06,0-1.88-0.83-1.88-1.88v-9.14  c0-1.06,0.83-1.88,1.88-1.88h9.14c1.06,0,1.88,0.83,1.88,1.88C108.07,172.3,107.24,173.13,106.19,173.13z M113.29,196.7  c0,1.06-0.83,1.88-1.88,1.88c-1.05,0-1.88-0.83-1.88-1.88v-9.14c0-1.06,0.83-1.88,1.88-1.88c1.06,0,1.88,0.83,1.88,1.88V196.7z   M119.82,203.23c0,1.06-0.83,1.88-1.88,1.88c-1.06,0-1.88-0.83-1.88-1.88v-22.19c0-1.06,0.83-1.88,1.88-1.88  c1.05,0,1.88,0.83,1.88,1.88V203.23z M126.34,196.7c0,1.06-0.83,1.88-1.88,1.88c-1.06,0-1.88-0.83-1.88-1.88v-9.14  c0-1.06,0.83-1.88,1.88-1.88c1.05,0,1.88,0.83,1.88,1.88V196.7z M140.8,213.02c0,1.06-0.83,1.88-1.88,1.88h-9.14  c-1.06,0-1.88-0.83-1.88-1.88s0.83-1.88,1.88-1.88h7.26v-7.25c0-1.06,0.83-1.88,1.88-1.88c1.06,0,1.88,0.83,1.88,1.88V213.02z   M129.11,192.79v-1.3c0-1.06,0.83-1.88,1.88-1.88s1.88,0.83,1.88,1.88v1.3c0,1.06-0.83,1.88-1.88,1.88S129.11,193.84,129.11,192.79  z M140.8,180.38c0,1.06-0.83,1.88-1.88,1.88c-1.06,0-1.88-0.83-1.88-1.88v-7.26h-7.26c-1.06,0-1.88-0.83-1.88-1.88  c0-1.06,0.83-1.88,1.88-1.88h9.14c1.06,0,1.88,0.83,1.88,1.88V180.38z"></path></g></svg>