<svg xmlns="http://www.w3.org/2000/svg" xmlns:xlink="http://www.w3.org/1999/xlink" id="Layer_1" x="0px" y="0px" viewBox="0 0 400 400" style="enable-background:new 0 0 400 400;" xml:space="preserve"><style type="text/css">	.st0{fill:#322B6A;}</style><g>	<path class="st0" d="M301.3,287.22c0-4.49-1.46-8.25-5.95-10.03c-2.51-0.94-5.01-1.98-7.63-2.51c-16.09-3.24-32.07-6.27-48.15-9.4  c-4.39-0.84-5.75-2.3-5.75-6.58c0-11.8,0-23.5,0-35.31c0-1.88-0.1-3.76-0.52-5.64c-1.25-5.95-7.73-9.71-12.64-8.57  c-6.27,1.57-9.82,5.64-9.82,12.01c0,21.94,0,43.77,0,65.6c0,5.75,0,11.59,0,17.76c-3.55,0-6.69-0.1-9.82,0.1  c-2.92,0.21-4.81-1.15-6.37-3.24c-3.45-4.7-6.79-9.51-10.55-13.89c-2.82-3.34-5.64-7.1-10.34-8.36c-5.22-1.36-8.88,1.67-7.83,7  c0.63,2.72,1.25,5.54,2.61,7.83c11.18,18.38,22.46,36.66,33.74,54.84c0.52,0.73,1.88,1.15,2.82,1.15c27.47,0,55.05,0,82.52,0  c5.54,0,5.64,0,8.04-5.01c2.82-5.85,5.64-11.8,5.75-18.49C301.61,313.44,301.51,300.38,301.3,287.22z"></path>	<path class="st0" d="M110.14,78.2c41.26,0,82.42,0,123.57,0c4.6,0,8.15-2.09,10.03-6.27c2.3-5.01,2.19-10.24,0.31-15.25  c-1.78-4.39-5.33-6.69-10.24-6.69c-20.68,0-41.47,0-62.15,0s-41.26,0-61.94,0c-5.12,0-9.82,3.24-10.76,8.15  c-0.63,3.45-0.63,7.21-0.1,10.76C99.7,74.76,104.29,78.2,110.14,78.2z"></path>	<path class="st0" d="M200.08,168.66c0,12.64,9.82,22.46,22.46,22.46c12.22-0.1,22.35-9.19,22.35-22.25  c0-13.06-9.61-22.35-22.77-22.56C210,146.1,200.08,156.44,200.08,168.66z"></path>	<path class="st0" d="M121.53,196.97c-12.43-0.42-22.67,9.61-22.77,22.14c-0.21,12.12,9.61,22.46,21.41,22.77  c12.85,0.42,23.5-9.4,23.4-22.56C143.47,206.69,134.17,197.49,121.53,196.97z"></path>	<path class="st0" d="M194.13,219.64c0.1-13.47-10.24-22.77-22.56-22.67c-12.74,0.1-22.25,10.24-22.14,22.14  c0,12.53,9.71,22.56,21.73,22.67C183.79,241.99,194.02,232.59,194.13,219.64z"></path>	<path class="st0" d="M121.32,146.31c-12.43-0.21-22.46,9.92-22.56,22.35c-0.1,11.8,9.82,22.14,21.2,22.56  c13.16,0.42,23.71-9.51,23.71-22.35C143.47,155.5,133.44,146.52,121.32,146.31z"></path>	<path class="st0" d="M170.41,191.12c13.27,0.42,23.71-9.09,23.71-22.25c0.1-12.85-9.3-22.25-22.35-22.67  c-12.22-0.31-22.25,9.82-22.46,22.25C149.21,180.36,159.03,190.81,170.41,191.12z"></path>	<path class="st0" d="M222.12,94.08c-12.12-0.21-22.04,10.13-22.04,22.35c0,12.64,9.82,22.46,22.46,22.46  c12.22-0.1,22.35-9.19,22.35-22.25C244.89,103.48,235.28,94.29,222.12,94.08z"></path>	<path class="st0" d="M121.32,94.08c-12.43-0.21-22.46,9.92-22.56,22.35c-0.1,11.8,9.82,22.14,21.2,22.56  c13.16,0.42,23.71-9.51,23.71-22.35C143.47,103.27,133.44,94.29,121.32,94.08z"></path>	<path class="st0" d="M149.42,116.23c-0.21,11.8,9.71,22.25,21,22.67c13.27,0.42,23.71-9.09,23.71-22.25  c0.1-12.85-9.3-22.25-22.35-22.67C159.66,93.66,149.63,103.8,149.42,116.23z"></path></g></svg>