<svg xmlns="http://www.w3.org/2000/svg" xmlns:xlink="http://www.w3.org/1999/xlink" id="Layer_1" x="0px" y="0px" viewBox="0 0 400 400" style="enable-background:new 0 0 400 400;" xml:space="preserve"><style type="text/css">	.st0{fill:#322B6A;}</style><g>	<path class="st0" d="M148,190.32c-2.1,2-2,4.9,0.4,7.6c16.6,18.6,16.6,42.7,0.1,61.3c-0.7,0.7-1.4,1.6-1.7,2.5  c-0.7,2.3-0.2,4.3,1.9,5.6c2.4,1.5,4.7,1,6.6-1.1c10-10.5,15.1-23.1,15.3-37.7c-0.3-14.4-5.2-26.9-15.1-37.4  C153,188.52,150.2,188.22,148,190.32z"></path>	<path class="st0" d="M134.6,245.92c-2.3,2.7-2.4,5.4-0.3,7.3c2.1,1.9,5.3,1.6,7.6-0.9c6.2-6.6,9.3-14.5,9.3-23.6  c-0.1-9.2-3.3-17.1-9.6-23.8c-2.3-2.5-5.1-2.8-7.3-0.9c-2.2,2-2.2,4.9,0.2,7.6C143.9,222.42,143.9,235.02,134.6,245.92z"></path>	<path class="st0" d="M119.6,224.52c2.4,2.8,2.5,5.3,0.2,8.2c-1.7,2-1.2,4.8,0.7,6.5c2,1.7,4.8,1.5,6.9-0.5c2.7-2.8,3.9-6.1,4-9.1  c0-4.8-1.7-9-4.5-11.5c-2.2-2-4.9-2.1-6.9-0.2C118.1,219.72,117.8,222.42,119.6,224.52z"></path>	<path class="st0" d="M308,312.02c9.7,0,19.2,0,28.9,0c0-3.2,0-6.4,0-9.6c-9.7,0-19.3,0-28.9,0C308,305.82,308,308.92,308,312.02z"></path>	<path class="st0" d="M308,282.82c0,3.3,0,6.4,0,9.5c3.3,0,6.3,0,9.4,0c0-3.3,0-6.4,0-9.5C314.1,282.82,311,282.82,308,282.82z"></path>	<path class="st0" d="M337,282.62c-3.2,0-6.2,0-9.4,0c0,3.4,0,6.5,0,9.5c3.3,0,6.4,0,9.4,0C337,288.82,337,285.72,337,282.62z"></path>	<path class="st0" d="M278.3,302.32c-3.4,0-6.4,0-9.5,0c0,3.2,0,6.3,0,9.4c3.3,0,6.4,0,9.5,0  C278.3,308.52,278.3,305.52,278.3,302.32z"></path>	<path class="st0" d="M278.1,282.72c-3.2,0-6.3,0-9.4,0c0,3.2,0,6.2,0,9.4c3.3,0,6.4,0,9.4,0  C278.1,288.82,278.1,285.72,278.1,282.72z"></path>	<path class="st0" d="M249.2,311.82c3.3,0,6.3,0,9.4,0c0-3.2,0-6.3,0-9.5c-3.2,0-6.2,0-9.4,0  C249.2,305.72,249.2,308.82,249.2,311.82z"></path>	<path class="st0" d="M249.2,282.82c0,3.3,0,6.3,0,9.5c3.2,0,6.1,0,9.3,0c0-3.1,0-6.3,0-9.5C255.3,282.82,252.2,282.82,249.2,282.82  z"></path>	<path class="st0" d="M229.6,311.72c3.3,0,6.4,0,9.5,0c0-3.2,0-6.2,0-9.4c-3.4,0-6.4,0-9.5,0  C229.6,305.62,229.6,308.72,229.6,311.72z"></path>	<path class="st0" d="M229.6,282.82c0,3.3,0,6.3,0,9.5c3.2,0,6.1,0,9.3,0c0-3.1,0-6.3,0-9.5C235.7,282.82,232.6,282.82,229.6,282.82  z"></path>	<path class="st0" d="M219.3,302.42c-3.2,0-6.3,0-9.3,0c0,3.3,0,6.4,0,9.5c3.2,0,6.1,0,9.3,0  C219.3,308.82,219.3,305.62,219.3,302.42z"></path>	<path class="st0" d="M190.4,311.82c3.3,0,6.3,0,9.5,0c0-3.2,0-6.3,0-9.4c-3.3,0-6.4,0-9.5,0  C190.4,305.62,190.4,308.62,190.4,311.82z"></path>	<path class="st0" d="M190.4,292.12c3.4,0,6.5,0,9.5,0c0-3.3,0-6.3,0-9.4c-3.2,0-6.3,0-9.5,0  C190.4,285.92,190.4,288.92,190.4,292.12z"></path>	<path class="st0" d="M210,331.42c3.3,0,6.4,0,9.4,0c0-3.3,0-6.4,0-9.5c-3.2,0-6.2,0-9.4,0C210,325.22,210,328.32,210,331.42z"></path>	<path class="st0" d="M210.1,292.22c3.2,0,6.3,0,9.3,0c0-3.3,0-6.4,0-9.5c-3.2,0-6.1,0-9.3,0  C210.1,285.82,210.1,289.02,210.1,292.22z"></path>	<path class="st0" d="M229.6,331.42c22.9,0,45.6,0,68.2,0c0-3.3,0-6.4,0-9.5c-22.8,0-45.4,0-68.2,0  C229.6,325.12,229.6,328.12,229.6,331.42z"></path>	<path class="st0" d="M288.4,311.82c3.3,0,6.4,0,9.5,0c0-3.3,0-6.3,0-9.4c-3.4,0-6.4,0-9.5,0  C288.4,305.62,288.4,308.72,288.4,311.82z"></path>	<path class="st0" d="M288.4,292.22c3.3,0,6.3,0,9.5,0c0-3.3,0-6.3,0-9.5c-3.3,0-6.4,0-9.5,0  C288.4,286.02,288.4,289.12,288.4,292.22z"></path>	<path class="st0" d="M308,331.42c3.3,0,6.4,0,9.4,0c0-3.3,0-6.4,0-9.4c-3.2,0-6.3,0-9.4,0C308,325.22,308,328.22,308,331.42z"></path>	<path class="st0" d="M327.6,322.02c0,3.3,0,6.4,0,9.4c3.3,0,6.4,0,9.5,0c0-3.2,0-6.2,0-9.4C333.7,322.02,330.7,322.02,327.6,322.02  z"></path>	<path class="st0" d="M201.5,115.12c4.9-0.9,8.3-4.8,8.3-9.8c0-2.7,0-5.5,0-8.2c0-3,0.1-5.9,0-8.8c-0.1-5-4.4-9.1-9.4-9.2  c-5.7-0.2-10.1,4.1-10.1,9.8c0,5.2,0,10.4,0,15.6c0,0.6,0,1.1,0,1.7C190.6,111.72,196,116.02,201.5,115.12z"></path>	<path class="st0" d="M152.1,146.52c16.3,0,32.7,0,49,0c4.8,0,5.7,0.6,7.4,5.2c3.2,8.8,6.5,17.6,9.7,26.4c0.4,0.9,0.8,1.8,1.4,3.3  c1.8-4.3,3.3-8.1,4.8-11.8c2.5-6.3,5-12.5,7.4-18.8c1.2-3.1,3.2-4.6,6.5-4.4c3.3,0.1,6.5,0,9.8,0c4-0.1,5.8-1.9,5.8-5.9  c0-4.35,0-8.66,0-12.98h-0.1V96.32c0-3.05,0-6.07,0-9.1c0-4.22,0-8.45,0-12.7c0-4.7-1.7-6.4-6.2-6.4c-31.8,0-63.7,0-95.5,0  c-4.4,0-6.1,1.7-6.1,6.1c0,22,0,44.1,0,66.2C146,144.82,147.7,146.52,152.1,146.52z M227.6,90.92c0-0.9,0.7-1.6,1.5-1.8  c0.9-0.2,1.8,0.2,2.1,0.9c0.1,0.2,0.2,0.3,0.3,0.5c0,2.3,0,4.6,0,6.9c-0.4,0.8-0.9,1.5-1.9,1.5c-1.1,0-2-0.8-2-1.9  C227.6,95.02,227.6,92.92,227.6,90.92z M218.8,94.02c0-1.9,0-3.7,0-5.5c0-1.2,0.7-2.1,1.9-2.1s2,0.8,2,2.1c0,3.7,0,7.4,0.1,11.1  c0,1-0.7,1.9-1.7,2c-1,0.2-1.9-0.4-2.2-1.3c-0.1-0.2-0.1-0.5-0.1-0.8C218.8,97.62,218.8,95.92,218.8,94.02z M186.2,88.92  c0-6.6,4.4-12,10.8-13.5c7.7-1.8,15.5,3.6,16.5,11.4c0.2,1.6,0.2,3.2,0.2,4.8c0.1,1.8,0,3.7-0.1,5.5c0,2.9,0.1,5.8,0,8.7  c-0.2,6.9-5.7,12.8-12.5,13.2c-7.2,0.5-13.5-4.3-14.7-11.3c-0.2-0.8-0.2-1.7-0.2-2.5C186.2,99.82,186.2,94.32,186.2,88.92z   M177.4,88.42c0-1,0.7-1.8,1.6-2c1-0.2,1.9,0.3,2.2,1.3c0.1,0.2,0.1,0.5,0.1,0.8c0,1.9,0,3.6,0,5.5c0,1.9,0,3.7,0,5.5  c0,1.2-0.8,2.1-1.9,2.1c-1.2,0-2-0.8-2-2.1C177.4,95.82,177.4,92.12,177.4,88.42z M178.9,107.22c1.1-0.2,2.1,0.5,2.4,1.6  c0.3,1.3,0.6,2.6,1.1,3.8c2.9,6.7,8,10.7,15.2,11.7c10.3,1.4,19.4-5.5,21.2-15.4c0.2-1.1,1.1-1.8,2.1-1.7s1.8,0.9,1.8,1.9  c-0.1,0.5-0.2,1-0.3,1.5c-2.6,9.6-8.8,15.5-18.6,17.5c-0.3,0-0.6,0.1-0.9,0.1s-0.6,0-0.9,0.2c0,1.9,0,3.8,0,5.8c0.2,0,0.4,0,0.6,0  c4.1,0,8.1,0,12.1,0c1,0,1.8,0.7,2,1.6c0.2,0.9-0.3,1.8-1.2,2.2c-0.1,0-0.2,0.1-0.3,0.1c-10.2,0-20.4,0-30.6,0  c-0.1-0.1-0.2-0.1-0.3-0.2c-0.9-0.4-1.3-1.3-1.1-2.2c0.2-0.9,1-1.5,2-1.5c2.8,0,5.5,0,8.3,0c1.5,0,3,0,4.5,0c0-2,0-3.8,0-5.8  c-0.7-0.1-1.4-0.2-2.1-0.3c-9.5-1.9-16.7-9.1-18.5-18.5C177.2,108.42,177.8,107.42,178.9,107.22z M168.5,90.62  c0.4-0.8,0.9-1.5,1.9-1.5c1.1-0.1,2,0.7,2,1.9c0,2,0,4.1,0,6.1c0,0.9-0.7,1.6-1.5,1.8c-0.9,0.2-1.8-0.2-2.2-1  c-0.1-0.1-0.1-0.3-0.2-0.4C168.5,95.22,168.5,92.92,168.5,90.62z"></path>	<path class="st0" d="M337,174.62h-89.3c-1,0-1.9,0.1-2.8,0h-16.19c-1.31,3.36-2.62,6.72-3.91,10.1c-1,2.4-2.2,4.5-5.1,4.5  c-3.1,0.1-4.3-2.1-5.2-4.7c-1.2-3.31-2.41-6.6-3.63-9.9H194.8c-1.4,0.1-2.8,0-4.4,0v98H337V174.62z M224.5,245.12  c1.7,0,3.3-0.1,4.9,0c2.8,0.2,4.8,2.3,4.7,5c-0.1,2.5-2,4.7-4.7,4.7c-6.6,0.1-13.3,0.1-19.9,0c-2.8-0.1-4.8-2.3-4.7-5  c0.1-2.5,2-4.5,4.7-4.7c1.6-0.1,3.2,0,4.9,0c0.1-0.7,0.2-1.1,0.2-1.5c0-9.2,0-18.4,0-28c-1.6,0-3.1,0.1-4.6,0  c-3.1-0.2-5.2-2.1-5.2-4.9s2.1-4.9,5.2-4.9c6.4-0.1,12.7-0.1,19,0c3.1,0,5.2,2,5.2,4.8c0.1,2.7-2,4.8-5.1,4.9c-1.4,0-2.8,0-4.7,0.1  c0,9.4,0,18.4,0,27.4C224.4,243.62,224.5,244.22,224.5,245.12z M282.2,214.62c-4.5,11.8-8.9,23.6-13.3,35.5c-1,2.5-2.2,4.7-5.3,4.6  c-2.9-0.1-4.1-2.1-5.1-4.5c-4.5-12.3-9.1-24.5-13.7-36.7c-1.3-3.6-0.4-6.3,2.5-7.4c2.8-1.1,5.3,0.4,6.7,4  c3.2,8.3,6.3,16.6,9.4,24.9c0.2,0,0.5,0,0.7,0c3-7.9,5.9-15.8,8.9-23.7c1.7-4.6,4-6.4,7.1-5.2  C283.2,207.22,283.9,210.02,282.2,214.62z M322.2,250.92c-0.1,2.4-2.3,3.9-4.9,3.7c-2.7-0.2-4.4-1.8-4.6-4.5s-0.1-5.3-0.1-8  c0-5.7-1.5-7.1-7.3-7.1c-0.7,0-1.4,0-2.5,0c0,4.8,0,9.4,0,14.1c0,2.6-1.1,4.5-3.7,5.3c-2.9,0.9-6-1.3-6-4.7  c-0.1-13.1-0.1-26.1,0-39.2c0-3,2-4.8,5.1-4.9c3.1-0.1,6.1,0,9.2,0c5.9,0.1,10.5,2.6,13.3,7.8c2.8,5.3,2.3,10.4-0.9,15.3  c-0.3,0.4-0.6,0.8-1,1.4C324,236.52,322.5,243.92,322.2,250.92z"></path>	<path class="st0" d="M303,215.62c0,3.2,0,6.2,0,9.6c3.4-0.1,7.1,1.2,8.9-2.5c0.7-1.4,0.6-3.8-0.3-5.1  C309.6,214.42,306.2,215.62,303,215.62z"></path>	<path class="st0" d="M195.1,321.88h-80.38v-29.75c0.03,0,0.05,0,0.08,0c4.2,0,6.8-2.6,6.9-6.9c0.1-3.4,0.1-6.9,0-10.4  c0-4.4-2.6-7-7-7.1c-3.7,0-7.3,0.1-11,0c-9.1-0.2-16.1-7.1-16.2-16.2c-0.1-15.3-0.1-30.7,0-46c0-9.1,7.1-16.1,16.1-16.3  c3.6,0,7.3,0.1,11,0c4.5-0.1,7-2.6,7.1-7.1c0.1-3.5,0.1-7.1,0-10.7c-0.1-3.5-2.4-6.4-5.7-6.5c-8.1-0.1-16.3-0.8-24.3,1.7  c-16.9,5.3-28.6,20.9-28.8,38.6c0,1.12,0.01,2.24,0.02,3.36h0.01v1.71c0.01,1.91,0.02,3.83,0,5.74v23.01  c0.02,0.26,0.06,0.51,0.07,0.79c0.3,7.1-0.1,14.4,1.4,21.3c3.8,17.8,20.3,30.7,38.5,31c0.6,0.02,1.22,0.01,1.82,0.02v39.73h90.38  v-0.25c1.55,0,3.1,0,4.7,0c0-3.4,0-6.5,0-9.5c-1.61,0-3.17,0-4.7,0V321.88z"></path></g></svg>