<svg xmlns="http://www.w3.org/2000/svg" xmlns:xlink="http://www.w3.org/1999/xlink" id="Layer_1" x="0px" y="0px" viewBox="0 0 400 400" style="enable-background:new 0 0 400 400;" xml:space="preserve"><style type="text/css">	.st0{fill:#322B6A;}</style><g>			<ellipse transform="matrix(0.9239 -0.3827 0.3827 0.9239 -83.3566 137.7382)" class="st0" cx="304.55" cy="278.4" rx="22.9" ry="22.9"></ellipse>	<path class="st0" d="M304.55,307.8c-18.7,0-34.1,14.4-35.8,32.7h71.6C338.65,322.2,323.25,307.8,304.55,307.8z"></path>			<ellipse transform="matrix(0.3827 -0.9239 0.9239 0.3827 -198.2853 260.0461)" class="st0" cx="95.45" cy="278.4" rx="22.9" ry="22.9"></ellipse>	<path class="st0" d="M95.45,307.8c-18.7,0-34.1,14.4-35.8,32.7h71.6C129.55,322.2,114.15,307.8,95.45,307.8z"></path>	<path class="st0" d="M245.25,164.2l6.3-6.3c1.3-1.3,1.3-3.3,0-4.6c-1.3-1.3-3.3-1.3-4.6,0l-6.3,6.3c-10.9-9.4-25.1-15.2-40.6-15.2  s-29.7,5.7-40.5,15.2l-6.3-6.3c-1.3-1.3-3.3-1.3-4.6,0c-1.3,1.3-1.3,3.3,0,4.6l6.3,6.3c-10.4,11.1-16.8,26-16.8,42.4  c0,16,6.1,30.5,16.1,41.6l-5.5,5.5c-1.3,1.3-1.3,3.3,0,4.6c0.6,0.6,1.5,1,2.3,1s1.7-0.3,2.3-1l5.5-5.5c11,9.8,25.5,15.9,41.3,15.9  c15.9,0,30.4-6.1,41.3-15.9l5.5,5.5c0.6,0.6,1.5,1,2.3,1c0.8,0,1.7-0.3,2.3-1c1.3-1.3,1.3-3.3,0-4.6l-5.6-5.6  c10-11,16.1-25.6,16.1-41.6C262.05,190.1,255.65,175.3,245.25,164.2z M233.65,234.4c-2.7,5.2-7.3,6.6-12.8,7  c-3.5-0.8-7.2-1.2-10.5-2.6c-20.2-8.3-34.5-22.7-42.7-42.9c-1.8-4.3-2.4-8.9-1.8-13.6c0.6-4.3,2.6-7.6,6.7-9.5  c2.7-1.3,5-0.8,6.7,1.6c2.6,3.5,5,7.1,7.4,10.7c1.9,2.8,1.3,5.5-1.4,7.5c-0.8,0.6-1.6,1.1-2.4,1.7c-3.6,2.5-3.7,2.5-1.2,6.1  c6.9,9.7,15.3,18.1,25.1,24.9c2.9,2,3.2,2,5.1-0.8c5-7.1,5.9-7.2,13.1-2.2c2.4,1.7,4.8,3.3,7.1,5  C234.55,229.1,235.05,231.5,233.65,234.4z"></path>			<ellipse transform="matrix(0.8507 -0.5257 0.5257 0.8507 2.1641 172.418)" class="st0" cx="304.55" cy="82.4" rx="22.9" ry="22.9"></ellipse>	<path class="st0" d="M304.55,111.8c-18.7,0-34.1,14.4-35.8,32.7h71.6C338.65,126.2,323.25,111.8,304.55,111.8z"></path>			<ellipse transform="matrix(0.9665 -0.2567 0.2567 0.9665 -17.9518 27.2593)" class="st0" cx="95.45" cy="82.4" rx="22.9" ry="22.9"></ellipse>	<path class="st0" d="M95.45,111.8c-18.7,0-34.1,14.4-35.8,32.7h71.6C129.55,126.2,114.15,111.8,95.45,111.8z"></path></g></svg>