<svg xmlns="http://www.w3.org/2000/svg" xmlns:xlink="http://www.w3.org/1999/xlink" id="Layer_1" x="0px" y="0px" viewBox="0 0 400 400" style="enable-background:new 0 0 400 400;" xml:space="preserve"><style type="text/css">	.st0{fill:#322B6A;}	.st1{fill-rule:evenodd;clip-rule:evenodd;fill:#322B6A;}</style><g>	<path class="st0" d="M199.7,170.5c-43.1,0.1-43.3,65.3,0.1,65.5C243.1,235.1,242.7,171.3,199.7,170.5z"></path>	<path class="st0" d="M340.4,153.8c-8.2-5-17.2-9.1-26-13c-4.4-2-8.9-4-13.4-6.2c-1.6-0.6-3.2-1.3-4.8-2c-3.2-1.4-6.5-2.9-9.4-2.9  c-0.5,0-1,0-1.5,0.1c-3.8,1.6-5.8,4.3-6,8.1c-0.3,6.1,4.6,8.4,12.7,11.8c3.4,1.4,6.9,2.9,9.8,5l6.1,4.3l-7,2.7  c-18.5,7.1-33.8,12.6-48.1,17.3l-0.1,0c-0.8,0.2-1.6,0.4-2.3,0.4c-2.3,0-4.3-1.1-5.9-3.3c-2.8-3.7-6-8-9.5-11.3  c-6-5.7-13.3-9.7-21.7-11.9c-3.1-0.8-4.7-2.9-4.7-6.3c0.1-6.6,0-13.4,0-19.9c-0.1-10.7-0.1-21.7,0.3-32.6l0.4-10.2l6.6,7.8  c3.7,4.3,7.6,7.8,11.8,11.5c1.3,1.2,2.7,2.4,4.1,3.6c1.2,1,2.5,1.4,3.9,1.4c3.3,0,6.8-2.6,8.2-6c0.9-2.1,1.2-5.2-1.8-8.2  c-4.1-4-8.1-8.2-12-12.2c-3.3-3.4-6.7-6.9-10.1-10.3c-5.4-5.4-10.8-10.4-16-15l-0.2-0.2c-1.1-1.1-2.3-1.7-3.6-1.7  c-1.9,0-4.3,1.2-6.7,3.4c-4.9,5.2-10.2,10.3-15.4,15.2c-7.8,7.4-15.9,15.1-22.6,23.4c-0.7,2.4-0.3,5.1,1.3,7.4  c1.8,2.6,4.6,4.2,7.3,4.2c1.7,0,3.3-0.7,4.8-2l0.1-0.1l0.1-0.1c3.3-2.7,6.4-5.5,9.6-8.6c1.7-1.6,3.5-3.3,5.3-4.9l6.6-6l0.1,8.9  c0.1,12.2,0.2,21.4,0.4,28.8c0.4,24.7,0.5,27.3-8.1,29.5c-4.3,1.1-12.3,3.2-27.6,21.8c-1.5,2.3-3.7,3.5-6.3,3.5  c-1.7,0-3.2-0.5-4.6-1l-0.1,0c-5.7-2.1-11.6-4.2-17.3-6.2c-9.4-3.3-19.1-6.6-28.5-10.6l-7.5-3.2l7-4c3.2-1.8,6.4-3.3,9.5-4.7  c2.8-1.3,5.5-2.5,8.2-4l0.2-0.1c4-2,4.6-6,3.9-9.1c-0.8-3.4-3.4-6.8-7.4-6.8c-1,0-2,0.2-3,0.6c-7.1,2.7-14.2,6-21.1,9.1  c-2.3,1.1-4.7,2.1-7,3.2c-4.3,2.3-8.1,4-11.5,5.5c-6.9,3.2-11.5,5.3-12.6,8.3c-1.1,3.2,0.9,9.5,6.2,19.7l0.1,0.1  c3.1,6.7,6.4,13.4,9.5,19.9c2.2,4.5,4.3,8.9,6.4,13.4c1.9,3.4,4.8,4.2,7,4.2c3.2,0,6.3-1.6,8-4.1c1.5-2.1,1.7-4.6,0.7-7.4L94,199  c-2.1-4.8-4.1-9.3-6.3-14.4l-3.3-8l8.2,2.6c10.3,3.3,20.6,7,30.5,10.6c6,2.2,12.2,4.4,18.5,6.6c5,1.8,6.1,3.2,6.3,8.4l0,0.3  c0.5,9,2.8,16.8,7,23.8c7.6,12.6,18.7,21,33,25l0.1,0c3.3,1,4.9,3.2,4.9,6.7c-0.1,7.1-0.1,14.4,0,21.5c0,3-1.3,5.1-4,6.3l-0.2,0.1  c-15.9,6.6-19.3,20.9-17,32.2c2.3,11.8,12,24.4,27.7,24.4c2.2,0,4.5-0.2,6.8-0.7l0.2,0c13.9-2.3,21.4-14.6,22.7-25.7  c1.2-10.5-2.5-23.9-16.8-29.8c-2.7-1.1-4.2-3.3-4.2-6.2c0.1-7.3,0.1-14.8,0-22.1c0-4.5,3.2-5.9,4.4-6.4l0.1-0.1  c1.2-0.5,2.3-0.9,3.5-1.3c3.7-1.3,7.2-2.6,10.2-4.6c16.9-10.5,25.4-25.1,26.1-44.6c0-1.3,0.1-5,4.5-6.4c7.1-2.4,14.3-5,21.2-7.6  c9.5-3.5,19.4-7,29.3-10.2l7.6-2.5l-2.6,7.6c-0.9,2.5-2.1,5.1-3.4,7.9c-5.5,11.7-7.1,17.3,0.7,21.1c1,0.4,2,0.6,3.1,0.6  c3.6,0,6.8-2.3,7.8-4.4c3.7-8,7.5-16.2,11.3-24c2.8-5.9,5.7-12,8.4-17.9C344.4,158.1,342.8,155.3,340.4,153.8z M199.9,243.9h-0.2  c-26.5-0.1-40.3-20.6-40.3-40.7c0-20.1,13.9-40.5,40.2-40.6h0.2c26.4,0.6,40.1,21,40.1,40.8C240,223.1,226.2,243.3,199.9,243.9z"></path></g></svg>
