<svg xmlns="http://www.w3.org/2000/svg" xmlns:xlink="http://www.w3.org/1999/xlink" id="Layer_1" x="0px" y="0px" viewBox="0 0 400 400" style="enable-background:new 0 0 400 400;" xml:space="preserve"><style type="text/css">	.st0{fill:#322B6A;}	.st1{fill-rule:evenodd;clip-rule:evenodd;fill:#322B6A;}</style><path class="st0" d="M346.6,95.8c0-5-1.7-7-6.5-8.5c-6.2-1.9-12.4-3.6-18.6-5.6c-41.9-13.3-81.8-31.3-119.7-53.5c-1.3,0-2.7,0-4,0 c-1.4,0.8-2.7,1.5-4.1,2.3c-41.9,24.5-86.2,43.4-132.9,56.3c-6.4,1.8-7.8,3.7-7.8,10.6c0,23.1,0,46.2,0,69.3 c0,25.7,3.5,50.8,12.1,75.1c10.5,30,27,56.4,49.4,79c20.1,20.3,42.9,36.8,69.5,47.8c10.8,4.4,21.1,4.4,31.8,0 c22.8-9.4,42.7-22.9,60.8-39.4c42.8-39.3,66.4-88.2,69.6-146.1C347.6,154.1,346.5,124.8,346.6,95.8z M149.3,86.1 c3.8-0.1,7.3,3.3,7.4,7.2c0.1,4-3.4,7.4-7.5,7.5c-3.7,0-7.2-3.5-7.2-7.4C142,89.6,145.5,86.1,149.3,86.1z M99.3,120.4 c-2.4,0.8-3.4,1.7-3.3,4.4c0.3,6,0.1,12.1,0.1,18.1c0,5.1-2.8,8.3-7.1,8.4c-4.4,0.1-7.4-3.1-7.5-8.4c-0.1-4.3,0-8.5,0-12.8 c0-4.4-0.1-8.7,0-13.1c0.1-4.3,1.8-6.7,5.8-8.1c12.8-4.6,25.5-9,38.2-13.5c4.6-1.6,8.6-0.1,10.1,3.8c1.6,4-0.3,8-5.1,10 C120.1,113.1,109.7,116.8,99.3,120.4z M198.4,244.3c-1.2,1.2-2.4,2.4-3.5,3.6c-2.4,2.4-4.8,4.8-7.2,7.2c-3.3,3.2-7.1,4.9-11.1,4.9 c-4,0-7.7-1.7-10.9-4.9c-13.9-13.8-28-27.9-41.8-41.8c-6.3-6.3-6.5-15.6-0.5-21.7c2.8-2.8,6.4-4.3,10.3-4.3c4.2,0,8.2,1.7,11.4,4.9 c9.6,9.5,19.4,19.3,28.8,28.7c1.7,1.7,2.6,2.2,2.9,2.3c0.3-0.1,1.1-0.6,2.9-2.3l74.4-74.4c2.7-2.7,6.4-5.8,11.8-5.8 c1.2,0,2.4,0.2,3.7,0.5c7.3,1.7,11.5,7.7,11.5,16.3v2.3l-1.5,1.7c-0.1,0.2-0.5,0.7-0.7,1.1c-0.9,1.4-2.1,3.4-3.8,5.1 c-19,19.2-38.5,38.7-57.4,57.5C211.1,231.5,204.8,237.9,198.4,244.3z M220.9,333.4c-4.1,0-7.2-3.3-7.2-7.3c0.1-4.3,3.5-7.6,7.8-7.5 c3.9,0.1,7.2,3.5,7.1,7.4C228.5,329.9,224.8,333.4,220.9,333.4z M288.2,271.7c-1.6,2.8-3.6,5.4-5.5,8 c-10.9,14.9-23.8,27.8-38.3,39.2c-4.1,3.2-8.2,3.2-11,0c-3-3.5-2.4-7.9,1.9-11.4c10.6-8.7,20.7-17.8,29.3-28.5 c3.7-4.6,7.1-9.4,10.6-14.2c1.7-2.4,3.6-4.2,6.8-4.2C287.7,260.6,291.1,266.3,288.2,271.7z"></path></svg>