<svg xmlns="http://www.w3.org/2000/svg" xmlns:xlink="http://www.w3.org/1999/xlink" id="Layer_1" x="0px" y="0px" viewBox="0 0 400 400" style="enable-background:new 0 0 400 400;" xml:space="preserve"><style type="text/css">	.st0{fill:#322B6A;}	.st1{fill-rule:evenodd;clip-rule:evenodd;fill:#322B6A;}</style><g>	<path class="st0" d="M81.3,247.4c-0.6,0.9-1.1,1.9-1.7,2.8c7.2,5.6,14.4,11.2,21.2,16.5c-14.7,15-27.8,28.2-40.6,41.7  c-12.4,13-8,32.5,8.5,37.5c9.2,2.8,16.7-0.4,23.2-6.9c13.1-13.1,26.3-26.1,41.7-41.3c6.5,7.7,12.2,14.5,18.9,22.4  c8.8-33.5,17.1-65.1,25.9-98.4C144.7,230.7,113,239,81.3,247.4z"></path>	<path class="st0" d="M344.2,64.8c-4.5-8.3-13.7-13.5-23-11.2c-5.3,1.3-10.5,4.8-14.6,8.5c-13.1,12.1-25.7,24.9-40.7,39.6  c-5.8-7-11.5-13.9-18.2-21.9c-8.9,33.9-17.2,65.6-25.8,98.6c33.5-8.9,65.2-17.2,100.1-26.4c-9-7.3-16-13-25.2-20.5  c5-3.5,8.1-5.2,10.4-7.5c11.3-11.1,22.7-22.3,33.6-33.8C347.8,82.8,348.7,73,344.2,64.8z"></path>	<path class="st0" d="M106.1,218.2c0-2.3,0.1-3.5,0-4.7c-7.5-53.8,32.1-100.4,86.2-101.6c8.3-0.2,19.5,1.9,24.2-2.5  c5.3-5.1,4.9-16.3,7.1-25.6C114.2,66.5,60.4,158.1,78.6,225.5C87.8,223,97,220.6,106.1,218.2z"></path>	<path class="st0" d="M293.8,181.9c0.1,2.6,0.1,3.8,0.3,5c6.6,46.1-22.3,89-67.5,98.7c-11.8,2.5-24.3,1.7-36.4,2.7  c-2.6,0.2-6.9,1.2-7.4,2.9c-2.7,8.2-4.4,16.7-6.5,25.2c91.1,15.3,171.3-63.3,145-141.6C312.2,177.1,303.2,179.5,293.8,181.9z"></path></g></svg>
