<svg xmlns="http://www.w3.org/2000/svg" xmlns:xlink="http://www.w3.org/1999/xlink" id="Layer_1" x="0px" y="0px" viewBox="0 0 400 400" style="enable-background:new 0 0 400 400;" xml:space="preserve">
  <style type="text/css">
    .st0{fill:#322B6A;}
    .st1{fill-rule:evenodd;clip-rule:evenodd;fill:#322B6A;}
  </style>
  <g>
    <path class="st0" d="M228.1,78.5c-2.1,4.2-4.2,8.5-6.3,12.9c5.2,0,10.7,0,16.2,0C237.9,85,233.4,79.4,228.1,78.5z"></path>
    <path class="st0" d="M171.5,78.4c-5.6,1.5-9.4,6.4-10,13c5.6,0,11,0,16.3,0C175.8,87,173.7,82.7,171.5,78.4z"></path>
    <path class="st0" d="M250.4,330.6c-5.3-0.1-10.8,0-16.2,0c-11.7,0-23.4,0.1-35-0.2c-2.6,0-4.8-0.9-5.3-3.7c-0.7-3.1,1.3-5.4,4.9-5.5
      c8.7-0.2,17.5-0.1,26.1-0.2c1.1,0,2.1-0.1,3.5-0.2c-2.1-7.3-4-14.1-6.1-20.9c-0.2-0.7-1.5-1.4-2.3-1.4c-13.4-0.1-26.8,0-40.1-0.1
      c-1.7,0-2.2,1-2.6,2.4c-1.5,5.7-3.1,11.3-4.7,16.8c-0.4,1.2-0.5,2.4-1,3.9c2.9,0,5.6-0.1,8.1,0c2.6,0.1,4.2,1.7,4.3,4.3
      c0.1,2.6-1.4,4.4-3.9,4.9c-1.1,0.2-2.1,0.2-3.1,0.2c-9.5,0-19.1-0.1-28.6,0.1c-8.6,0.2-15.6,7.3-15.8,15.4c44.8,0,89.6,0,134.4,0
      C267.2,337.9,259.6,330.8,250.4,330.6z"></path>
    <path class="st0" d="M340.9,100.8c-46.8,0-93.8,0-140.6,0c-47.3,0-94.4,0-141.6,0c-7,0-8.7,1.7-8.7,8.9c0,56.9,0,114,0,170.9
      c0,6.7,1.7,8.6,8.3,8.6c94.3,0,188.9,0,283.2,0c6.5,0,8.3-1.8,8.3-8.6c0-56.8,0-113.6,0.1-170.5C350,102.4,348.4,100.8,340.9,100.8z
       M107.1,268.6c-0.1-4.7,1.8-7.8,5.6-10c10.4-5.7,20.7-5.7,31.1,0.1c3.8,2.2,5.5,5.3,5.5,9.9C135.3,268.6,121.3,268.6,107.1,268.6z
       M120.1,230.7c1.4-4.6,6-7.2,10.5-5.7c4,1.2,6,4.3,6,9.8c0,7.2-4.8,11.3-10.7,9.5C120.7,242.9,118.3,237.1,120.1,230.7z
       M195.1,268.7c-12.1,0-24,0-36.1,0c-0.2-5.1-1.1-10.1-4.9-13.4c-3.4-3.1-7.6-5.4-11.6-8.1c5.4-11,4.3-21.9-3.4-28.2
      c-6.1-4.9-15.7-4.9-21.7-0.1c-7.8,6.3-9.1,17.1-3.3,28.9c-9,4-16.8,9-16.4,20.9c-3.3,0-6.4,0-9.6,0c-4.4,0-8.9,0-13.3,0
      c-3.3,0-4.4-1.2-4.4-4.3c0-20.7,0-41.2,0-61.9c0-0.4,0.1-0.8,0.2-1.4c41.4,0,82.8,0,124.5,0C195.1,223.7,195.1,245.9,195.1,268.7z
       M143.9,181.7c3.7,2.2,5.7,5.2,5.4,9.9c-14.1,0-28,0-42.1,0c-0.2-4.6,1.4-7.6,5.1-9.6C122.9,175.9,133.4,175.7,143.9,181.7z
       M119.7,158.2c-0.2-5.3,1.5-8.8,5.4-10.1c5.3-2,12,1.4,11.5,9.5c0,7.3-5,11.5-11.1,9.4C121.9,165.8,119.8,162.8,119.7,158.2z
       M195.1,191.5c-12.1,0-24.2,0-36.2,0C158.7,180,152,174,142,170.8c6-11.5,4.7-22.7-3-28.8c-6.1-5-15.8-4.9-21.9,0.1
      c-7.6,6.3-8.8,17.5-2.9,28.7c-9.2,4-17.1,8.9-16.4,20.8c-9.2,0-18.2,0-27.3,0c-0.1-1.1-0.1-2.1-0.1-2.9c0-20.7,0-41.3,0-61.9
      c0-4.3,1-5.3,5.3-5.3c12.6,0,25.2,0,37.6,0c1.3,0,2.7,0,4.1,0h21c0.7,0,1.4,0,2.2,0c16.9,0,33.8,0,50.7,0c1.2,0,2.4,0,3.8,0
      C195.1,145,195.1,168.2,195.1,191.5z M204.5,188.5c0-21.3,0-42.5-0.1-63.9c0-2.5,0.7-3.4,3.4-3.4c38.7,0.1,77.4,0.1,116.1,0.1
      c4.6,0,5.4,1,5.4,5.4c0,20.6,0,41.1,0,61.6c0,0.9,0,1.8,0,3c-28.3,0-56.3,0-84,0c1.4-1.4,3.1-2.6,4.3-4.1c2-2.2,4-4.3,5.3-6.8
      c2.6-4.6,6.3-5.7,11.3-5.4c7.2,0.4,14.3,0.2,21.5,0.1c11.2-0.1,18.5-7.3,18.8-18.4c0.1-3.4,0.1-6.6-0.1-10
      c-0.7-9.2-7.8-16.2-16.9-16.3c-16-0.2-32.2-0.2-48.2,0c-9.6,0.1-16.9,7.8-17.1,17.3c-0.1,3.3-0.1,6.4,0,9.6c0.2,7.6,3.8,13,10.7,16
      c1.8,0.9,2.5,1.7,2.4,3.7c-0.1,2-0.1,3.9-0.1,6c0,3.6,1,6.7,4.8,8.2c-12.3,0-24.6,0-37.2,0C204.7,190.4,204.5,189.4,204.5,188.5z
       M240.1,165.6c-3.9-1-6.3-3.9-6.5-8c-0.1-2.7,0-5.3,0-8.1c0-6.5,3.3-9.6,9.9-9.6c12.7,0,25.4,0,37.9,0c2,0,3.9,0,6,0
      c7.2,0,10.2,3,10.2,10.2c0,2.2,0,4.3,0,6.5c-0.2,6.1-3.4,9.2-9.3,9.2c-8.6,0.1-17.2,0.3-25.8-0.1c-5.2-0.3-9.1,1.1-11.7,5.6
      c-0.9,1.5-2.3,2.9-3.9,5c-0.1-1.4-0.2-2.2-0.2-2.7C246.2,167.2,246.1,167.1,240.1,165.6z M254.2,268.5c-0.2-4.4,1.6-7.6,5.4-9.8
      c10.4-5.9,20.8-5.9,31.3,0.1c3.7,2.1,5.4,5.3,5.3,9.8C282.3,268.5,268.4,268.5,254.2,268.5z M267.1,230.8c1.3-4.7,5.9-7.3,10.4-5.9
      c4.1,1.2,6.2,4.4,6.2,10c-0.1,7-5,11.2-11,9.3C267.6,242.9,265.2,237.1,267.1,230.8z M329.4,208.1c0,18.4,0,37,0,55.4
      c0,4.3-0.9,5.3-5.2,5.3c-5.7,0-11.4,0-17.1,0c-0.3,0-0.5-0.1-1.3-0.2c0-11.2-6.5-17.5-16.9-20.8c4.1-6.1,5-12.5,3.3-19.2
      c-1.1-4.1-3.3-7.6-6.6-10.2c-6.3-4.7-15.9-4.2-21.7,0.9c-7.3,6.4-8.3,17.6-2.5,28.5c-9.8,3.4-16.6,9.2-16.6,20.7
      c-13.3,0-26.6,0-39.9,0c0-22.6,0-44.9,0-67.3c41.5,0,82.8,0,124.7,0C329.4,203.6,329.4,205.9,329.4,208.1z"></path>
    <path class="st0" d="M199.7,91.4c10.4,0.1,19-8.3,19-18.9c0-10.5-8.3-18.9-18.9-18.9c-10.4,0-18.8,8.3-18.9,18.5
      C180.9,82.7,189.2,91.3,199.7,91.4z M195.4,64.5c0.3-2.9,2.6-3.7,4.7-3.8c6.5,0.1,12.1,6.1,11.7,12.1c-0.2,2.7-1.7,4.1-4.1,4.3
      c-2.5,0.1-4.4-0.9-4.9-3.4c-0.5-2.6-1.5-3.7-4.1-4.1C196.2,69.3,195,67.1,195.4,64.5z"></path>
  </g>
</svg>
