<svg xmlns="http://www.w3.org/2000/svg" xmlns:xlink="http://www.w3.org/1999/xlink" id="Layer_1" x="0px" y="0px" viewBox="0 0 400 400" style="enable-background:new 0 0 400 400;" xml:space="preserve">
  <style type="text/css">
    .st0{fill:#322B6A;}
    .st1{fill-rule:evenodd;clip-rule:evenodd;fill:#322B6A;}
  </style>
  <g>
    <path class="st0" d="M194.2,174.8c1.3,0.9,2.6,1.6,4,2.3c8.1,4.2,16.3,8.4,24.5,12.6c8.8,4.5,17.7,9,26.5,13.7c3.7,2,7.6,3,9.9,3
      c6.3-0.1,9.4-0.8,13.7-3c6.4-3.4,12.8-6.7,19.3-10c5.1-2.6,10.2-5.2,15.3-7.8c5.7-2.9,11.4-5.8,17-8.8c1.2-0.6,2.3-1.4,3.4-2.1
      c0.5-0.3,0.5-0.8,0-1.2c-0.6-0.4-1.2-1-1.9-1.3c-6.4-3.3-12.9-6.6-19.3-9.9c-0.3-0.2-0.8-0.1-1.1,0c-1.9,0.9-3.8,1.9-5.7,2.9
      c-7.3,3.8-14.7,7.5-22,11.3c-3.6,1.9-7.3,3.4-11.4,4c-4.4,0.6-8.8,0.5-13.2-0.4c-3.4-0.7-6.4-2.2-9.4-3.8
      c-9.1-4.7-18.3-9.4-27.4-14.1c-0.5-0.2-0.8-0.3-1.3,0c-5.5,2.9-11.1,5.7-16.7,8.6c-1.4,0.7-2.9,1.6-4.2,2.5
      C193.3,173.9,193.3,174.2,194.2,174.8z"></path>
    <path class="st0" d="M193.9,139.5c0.6,0.4,1.2,1,1.8,1.3c5.3,2.8,10.7,5.5,16,8.2c6.5,3.3,12.9,6.7,19.4,10
      c5.7,2.9,11.4,5.8,17,8.8c4,2.2,8.1,3.6,11.6,3.5c4.6,0,8.2-0.7,10.8-1.9c2.3-1.1,4.6-2.3,6.9-3.5c4.8-2.5,9.7-5,14.5-7.5
      c5.1-2.6,10.1-5.2,15.2-7.8c5.6-2.9,11.1-5.7,16.7-8.6c1.4-0.7,2.7-1.6,4-2.4c0.5-0.3,0.6-0.8,0-1.2c-0.5-0.4-1.1-0.9-1.6-1.2
      c-6.4-3.3-12.9-6.7-19.4-10c-0.4-0.2-0.9-0.2-1.3,0c-2.1,1-4.1,2.1-6.1,3.1c-7,3.6-14.1,7.2-21.1,10.9c-3.5,1.8-7,3.5-10.9,4.1
      c-3.5,0.6-7,0.7-10.5,0.3c-2.8-0.3-5.6-0.9-8.3-2c-2.5-1.1-5-2.4-7.5-3.7c-8.2-4.2-16.4-8.4-24.5-12.7c-0.6-0.3-1-0.3-1.6-0.1
      c-5.7,2.9-11.4,5.8-17,8.8c-1.4,0.7-2.7,1.6-4,2.5C193.4,138.8,193.5,139.2,193.9,139.5z"></path>
    <path class="st0" d="M194,104.6c0.6,0.5,1.3,0.9,2,1.3c4.1,2.1,8.2,4.2,12.3,6.3c6.6,3.4,13.2,6.8,19.8,10.2
      c5.1,2.6,10.3,5.3,15.4,7.9c2.6,1.3,5.1,2.7,7.7,4c2.8,1.4,5.9,1.8,8.9,1.9c3.6,0.1,7.2-0.3,10.4-2c5.9-3,11.8-6,17.6-9.1
      c4.9-2.5,9.7-5,14.6-7.5c7.3-3.7,14.6-7.5,21.9-11.2c1.1-0.6,2.1-1.3,3.1-2c0.5-0.3,0.5-0.8,0-1.1c-0.7-0.5-1.4-1-2.2-1.4
      c-4.2-2.2-8.5-4.4-12.8-6.6c-6.8-3.5-13.6-7-20.3-10.5c-6.6-3.4-13.2-6.7-19.7-10.1c-3.7-2-7.5-3.1-10.4-3.1c-4.7,0-8.2,0.4-11.3,2
      c-5.7,2.9-11.4,5.8-17.1,8.7c-6.4,3.3-12.7,6.5-19.1,9.8c-6,3.1-12,6.1-17.9,9.2c-1.1,0.6-2.1,1.2-3.1,1.9
      C193.4,103.7,193.4,104.2,194,104.6z"></path>
    <path class="st0" d="M333.6,276.5c-17.6-13.2-36-25.1-55.6-35c-11.9-6.1-13.9-5.5-22.9,4.5c-5.2,5.8-10.6,11.4-15.8,17.1
      c-1.3,1.5-2.6,1.6-4.5,1.1c-19.5-5.8-36.6-16-51.8-29.3c-22.2-19.4-37.6-43.2-45.6-71.7c-0.6-2.1-0.4-3.6,1.4-5
      c6.2-5.2,12.3-10.5,18.5-15.7c9.3-8,9.9-9.9,4.9-21c-9.3-20.6-21-39.9-33.7-58.6c-1.2-1.8-2.8-3.5-4.5-5c-3.6-3.2-6.3-3.5-10.4-0.9
      c-2.1,1.3-4.1,2.8-5.9,4.4c-17.1,15.1-31.6,32.5-45,50.9c-3.9,5.4-4.6,10.8-3.6,17.1c3.1,19.3,9.6,37.5,18.4,54.8
      c20.2,39.9,48.2,73.6,81.9,102.7c24.4,21,50.9,38.6,81.2,49.8c10.4,3.9,21.1,6.8,33.3,8.1c1.4-0.6,3.9-1.4,6-2.7
      c20.4-12.6,39-27.4,55.6-44.8C343.9,288.3,343.6,284,333.6,276.5z"></path>
  </g>
</svg>
