<svg xmlns="http://www.w3.org/2000/svg" xmlns:xlink="http://www.w3.org/1999/xlink" id="Layer_1" x="0px" y="0px" viewBox="0 0 400 400" style="enable-background:new 0 0 400 400;" xml:space="preserve">
  <style type="text/css">
    .st0{fill:#322B6A;}
    .st1{fill-rule:evenodd;clip-rule:evenodd;fill:#322B6A;}
  </style>
  <g>
    <path class="st0" d="M192.8,168.4c-4.8,0-9.8,3.4-9.8,10.4s4.9,10.4,9.8,10.4c4.9,0,9.8-3.4,9.8-10.4S197.7,168.4,192.8,168.4z"></path>
    <path class="st0" d="M359.8,156.5c-0.2-11.9-9.3-22.2-21.1-23.4c-4.8-0.5-9.7-0.5-14.6-0.5v-0.1h-35.9v0.1c-2.9,0-5.9,0-8.8,0
      c-70.9,0-141.8,0-212.7,0c-7.8,0-14.5,2.2-20,7.9c-3.6,3.7-5.3,8.4-6.7,13.2c0,17.5,0,35.1,0,52.6c0.1,0.2,0.3,0.3,0.4,0.5
      c3.8,13.9,12.3,20.6,26.3,20.6c34.6,0,69.1,0.1,103.7-0.1c3,0,4.3,1,5.5,3.6c4.1,9.5,8.5,18.8,12.7,28.2c2.2,5.1,5.7,8.3,11.4,8.3
      c5.6,0,9.2-3.2,11.4-8.2c4.2-9.6,8.8-19.1,12.9-28.8c1.1-2.4,2.4-3.1,4.9-3.1c34.3,0.1,68.5,0.1,102.8,0c2,0,4-0.1,5.9-0.3
      c12.2-1.3,21.8-11.4,22-23.7C360.1,187.8,360.1,172.1,359.8,156.5z M89.6,169H75.9v7.7h12.2v5.6H76v12.2h-6.1v-31.3h19.8V169z
       M108.7,195.2c-8.5,0-16.1-6.2-16.1-16.3c0-10.1,7.6-16.4,16.1-16.4c8.5,0,16.1,6.2,16.1,16.4C124.8,189,117.2,195.2,108.7,195.2z
       M150.2,194.5h-20.1v-31.3h6.1v25.5h14V194.5z M174.9,194.5h-20.1v-31.3h6.1v25.5h14V194.5z M192.8,195.2
      c-8.5,0-16.1-6.2-16.1-16.3c0-10.1,7.6-16.4,16.1-16.4c8.5,0,16.1,6.2,16.1,16.4C208.9,189,201.3,195.2,192.8,195.2z M245.8,194.5
      h-6.3l-7.2-22.3l-7.2,22.3h-6.4l-8.7-31.3h6.5l5.7,21.6l6.9-21.6h6.3l7,21.7l5.7-21.7h6.2L245.8,194.5z M304.5,194.5h-6v-22l-9,22
      h-5.1l-9-21.8v21.8h-5.8v-31.3h8l9.4,22.6l9.2-22.6h8.3V194.5z M331.3,169h-13.5v7.2H330v5.4h-12.2v7.2h13.5v5.7h-19.6v-31.3h19.6
      V169z"></path>
    <path class="st0" d="M108.7,168.4c-4.8,0-9.8,3.4-9.8,10.4s4.9,10.4,9.8,10.4c4.9,0,9.8-3.4,9.8-10.4S113.5,168.4,108.7,168.4z"></path>
  </g>
</svg>
