<svg xmlns="http://www.w3.org/2000/svg" xmlns:xlink="http://www.w3.org/1999/xlink" id="Layer_1" x="0px" y="0px" viewBox="0 0 400 400" style="enable-background:new 0 0 400 400;" xml:space="preserve"><style type="text/css">	.st0{fill:#322B6A;}	.st1{fill-rule:evenodd;clip-rule:evenodd;fill:#322B6A;}</style><g>	<path class="st0" d="M225.9,307c-17.4-0.1-34.7-0.1-52.1,0c-1.5,0-3.7,0.4-4.4,1.5c-5.3,7.6-10.3,15.4-15.8,23.7  c31.1,0,61.2,0,92.4,0c-5.5-8.4-10.5-16-15.8-23.4C229.4,307.7,227.4,307,225.9,307z"></path>	<path class="st0" d="M341.2,281.5c-94.5,0-188.1,0-282.5,0c0,3.4,0,6,0,8.7c0,8.8,1.2,9.9,9.9,9.9c68,0,136.1,0,204.2,0  c20.3,0,40.5,0,60.8,0c3.5,0,7-0.5,7.4-4.6C341.5,290.8,341,286.1,341.2,281.5z"></path>	<path class="st0" d="M193.9,200.1c36.5-0.1,65.7-29.7,65.7-66.3c0-36.9-29.4-66.1-66.4-66s-66.1,29.4-66,66.4  C127.2,171,156.9,200.3,193.9,200.1z M171,182.2c-2.1-1.1-3.6-1.8-6-3.1c2.6-4.6,5.1-9.1,7.9-13.8c2,1.2,3.6,2.1,5.9,3.4  C176,173.3,173.5,177.7,171,182.2z M196,187.2c-2.1,0-3.9,0-6.1,0c0-5.1,0-10.1,0-15.4c2.1,0,3.9,0,6.1,0  C196,176.9,196,181.9,196,187.2z M215.5,182.4c-2.8-4.7-5.2-8.9-7.9-13.6c2.3-1.2,3.9-2.2,5.9-3.4c2.6,4.5,5.1,8.7,7.9,13.5  C219.4,180.1,217.6,181.1,215.5,182.4z M241,134.1c-8.6,5.5-16.1,10.2-23.5,14.9c-0.4-0.3-0.9-0.5-1.3-0.8  c4.9-9.2,5.6-18.5,0.2-27.7c0.4-0.4,0.8-0.9,1.2-1.3C225,123.9,232.4,128.6,241,134.1z M215.5,85.4c2.3,1.4,3.9,2.3,5.9,3.5  c-2.7,4.7-5.2,9-7.9,13.5c-2-1.1-3.6-2-5.9-3.3C210.2,94.6,212.7,90.3,215.5,85.4z M189.9,80.7c2.1-0.1,4-0.2,6.3-0.3  c0,5.3,0,10.2,0,15.4c-2.1,0-3.9,0-6.3,0C189.9,90.4,189.9,85.9,189.9,80.7z M193,113.8c10.9-0.2,20.7,9.3,20.8,20.2  c0.1,11-9.4,20.7-20.2,20.7c-11.1,0-20.6-9.4-20.7-20.3C172.8,123,181.7,113.9,193,113.8z M170.9,85.5c2.6,4.6,5.1,8.9,7.8,13.5  c-2.1,1.3-3.6,2.3-5.8,3.6c-2.6-4.5-5.1-8.8-7.9-13.7C167.1,87.6,168.7,86.7,170.9,85.5z M168.7,119.1c0.4,0.3,0.8,0.6,1.2,0.8  c-4.6,9.4-5.1,18.6-0.1,27.9c-0.3,0.4-0.7,0.8-1,1.1c-7.4-4.6-14.8-9.2-23.8-14.9C154,128.3,161.5,123.7,168.7,119.1z"></path>	<path class="st0" d="M341.1,272.1c0-50.7,0-101.4,0.2-152.2c0-6.2-1.4-7.5-8.1-7.5c-21.7,0-43.3,0-64.9,0c-1.4,0-2.9,0.3-2.8,0.3  c0,11.2,1.3,22.1-0.4,32.4c-1.7,10.5-6.3,20.5-10,32c1.2,1.1,3.5,3.4,6.1,5.4c0.9,0.7,2.9,1.3,3.8,0.8c6.7-3.4,11.6-0.8,16.3,4  c9.8,10.1,19.8,20.2,29.8,30.2c10.8,10.9,11.5,25.6,1.6,35.7c-10.3,10.5-24.8,9.9-36.1-1.3c-10-10-20-20-30-30  c-6.5-6.5-7.2-10.1-3.5-18.1c-3-3.2-6-6.4-8.8-9.5c-27.2,16.5-57.3,17.1-81.1,0.7c-29-20-37.7-48-30.4-82.2  c-1.8-0.1-3.5-0.3-5.2-0.3c-16.5,0-32.9,0-49.4,0c-8.6,0-9.6,0.9-9.6,9.5c0,48.8,0,97.6,0,146.4c0,2,0,4.1,0,5.9  c94.7,0,188.5,0,282.3,0C341,273.2,341.1,272.7,341.1,272.1z M169.2,266.4c-34,0-68.1,0-102.5,0c0-1.8,0-3.6,0-5.9  c3.2-0.2,6.3-0.5,10-0.8c0-5.5,0-10.7,0-16.5c2.7,0,4.3,0,6.8,0c0,5.6,0,11,0,16.6c4.3,0,7.9,0,12.1,0c0-9,0-17.8,0-26.5  c0-5.5,0.1-5.5,6.6-4.8c0,10.2,0,20.4,0,31.1c4.3,0,8,0,12.4,0c0-7,0-14.2,0-21.6c2.5,0,4.4,0,6.9,0c0,7.2,0,14.4,0,21.7  c4.3,0,7.8,0,12,0c0-12.4,0-24.6,0-37.2c2.4-0.2,4.2-0.3,6.8-0.5c0,12.7,0,25,0,37.7c4.3,0,7.9,0,12.2,0c0-15.9,0-31.8,0-48  c2.5,0,4.4,0,6.9,0c0,16,0,31.9,0,47.4C163.2,261.6,171.2,256.6,169.2,266.4z"></path>	</g></svg>