<svg xmlns="http://www.w3.org/2000/svg" xmlns:xlink="http://www.w3.org/1999/xlink" id="Layer_1" x="0px" y="0px" viewBox="0 0 400 400" style="enable-background:new 0 0 400 400;" xml:space="preserve"><style type="text/css">	.st0{fill:#322B6A;}	.st1{fill-rule:evenodd;clip-rule:evenodd;fill:#322B6A;}</style><g>	<path class="st0" d="M194.9,216c0,5.2,0,10.2,0,15.3c3.6,0,6.9,0,10.1,0c0-5.2,0-10.3,0-15.3C201.5,216,198.2,216,194.9,216z"></path>	<path class="st0" d="M199.9,309.3c42.6,0.1,70.7-34.3,72.2-67c-48.2,0-96.2,0-144.1,0C129.4,274.7,157.2,309.1,199.9,309.3z"></path>	<path class="st0" d="M202.8,319.7c-19.7,0.6-37.6-5-53.2-17.1c-19.7-15.3-30.3-35.7-32.5-60.4c-12.7,0-25.2,0-37.8,0  c0.5,4.5,0.9,8.8,1.4,13.3c1,0.1,1.6,0.1,2.3,0.2c9.9,0.3,15.2,4.3,18.5,13.6c1.9,5.2,4.2,10.3,6.5,15.4c2.6,5.7,2.7,11.2-0.5,16.6  c-1.4,2.3-3.3,4.3-5.1,6.5c7.4,10.2,16.2,19,26.6,26.5c0.7-0.6,1.3-1.1,1.8-1.6c6.9-6.6,13.5-7.5,22.1-3.5c5.2,2.4,10.6,4.5,16,6.6  c6.6,2.5,10.6,7.2,11.8,14.1c0.3,1.9,0.2,3.9,0.3,6c12.6,2,25.1,2.1,37.9-0.1c0-1.3,0-2.5,0-3.6c0.2-7.5,4.6-13.6,11.6-16.3  c6-2.3,11.9-4.8,17.8-7.4c7.2-3.1,13.6-2.1,19.5,3c1,0.9,2,1.9,3,2.8c10.5-7.7,19.3-16.4,26.7-26.8c-1.1-1.2-2.1-2.1-2.9-3.1  c-4.9-5.8-6-12.2-3-19.2c2.6-6,5.1-12.1,7.5-18.1c2.8-7,8.8-11.3,16.4-11.4c1.2,0,2.3,0,3.6,0c0.5-4.8,0.9-9.1,1.4-13.5  c-12.8,0-25.3,0-37.8,0C279.3,287.5,242.9,318.6,202.8,319.7z"></path>	<path class="st0" d="M82,160c3.4,1.8,6.8,3.6,10.3,5.1c2.1,0.9,2.8,2.1,2.8,4.4C95,180.2,95,190.9,95,201.6c0,1.2,0,2.3,0,3.5  c3.7,0,6.9,0,10.2,0c0.1-0.4,0.3-0.7,0.3-1c0-13.4,0-26.9,0-40.3c0-2.8-1.4-4.5-3.8-5.6c-5.1-2.5-10.2-5-15.2-7.7  c-1-0.5-1.9-2-2-3.1c-0.5-7.8-5.4-13.7-12.9-15.3c-6.7-1.4-13.8,2.2-17,8.4c-3.2,6.4-1.7,14.1,3.6,18.8c5.5,4.9,13.3,5.4,19.6,0.9  C79.5,159.1,80.6,159.2,82,160z"></path>	<path class="st0" d="M345.3,140.5c-3.2-6.4-10.4-9.9-17.2-8.4c-7.4,1.6-12.4,7.6-12.5,15.1c0,1.9-0.8,2.7-2.3,3.4  c-4.8,2.3-9.5,4.9-14.4,7.1c-3.2,1.5-4.5,3.6-4.5,7.2c0.1,12.5,0,24.9,0.1,37.4c0,0.9,0.1,1.9,0.2,2.8c3.5,0,6.8,0,10.3,0  c0-1.3,0-2.5,0-3.7c0-10.7,0-21.4,0-32.1c0-2,0.4-3.2,2.4-4c3.6-1.6,7.1-3.4,10.5-5.3c1.6-0.8,2.7-0.9,4.4,0.3  c6.1,4.4,13.9,3.9,19.4-0.9C347,154.6,348.5,146.9,345.3,140.5z"></path>	<path class="st0" d="M122.6,105.2c5.6-1.6,8,1,10.9,4.2c0.4,0.5,0.9,1,1.4,1.4c1.7,1.3,2.2,3,2.2,5.1c-0.1,5,0,10,0,15.1  c0,5.4,0,10.8,0,16.4c3.6,0,6.8,0,10.5,0c0-8.6-0.7-17,0.2-25.2c1-9.8-1.6-17.5-9.7-23.2c-2.1-1.4-2.2-3.2-1.5-5.6  c1.9-6.5-1-13.4-6.8-17c-5.8-3.7-13.4-3.1-18.6,1.4c-5.3,4.6-6.9,11.8-4.2,18.2C109.5,102.2,116.3,107,122.6,105.2z"></path>	<path class="st0" d="M252.8,147.4c3.4,0,6.7,0,10.2,0c0-9.3,0.3-18.5-0.1-27.6c-0.2-4.9,1.1-8.4,4.8-11.6c2.7-2.4,4.9-4.9,8.8-2.8  c0.4,0.2,1.1,0.1,1.6,0.2c6.8,0.3,12.9-3.8,15.3-10.2c2.5-6.5,0.5-13.6-5-17.9c-5.3-4.2-12.7-4.5-18.4-0.7  c-5.6,3.8-8.3,10.6-6.4,17.2c0.6,2.1,0.4,3.4-1.2,4.8c-2.8,2.5-5.4,5.1-7.8,7.9c-1.1,1.3-2,3.2-2,4.9c-0.2,11.5-0.1,22.9-0.1,34.4  C252.5,146.4,252.7,146.9,252.8,147.4z"></path>	<path class="st0" d="M192.7,72c1.8,1,2.1,2.1,2.1,3.8c-0.1,10.4,0,20.8,0,31.2c0,1.2,0,2.3,0,3.6c3.6,0,6.8,0,10.5,0  c0-11.9,0-23.5,0-35c0-1.7,0.4-2.7,2-3.5c6.7-3.6,9.8-10.6,8-17.7c-1.8-7.1-8-11.9-15.4-11.9c-7.2,0-13.3,4.8-15.1,11.8  C183,61.4,186,68.5,192.7,72z"></path>	<path class="st0" d="M95.2,226.1c3.6,0,6.8,0,10.2,0c0-3.5,0-6.8,0-10.1c-3.5,0-6.8,0-10.2,0C95.2,219.5,95.2,222.7,95.2,226.1z"></path>	<path class="st0" d="M294.7,216c0,3.5,0,6.8,0,10.1c3.5,0,6.7,0,10.1,0c0-3.6,0-6.8,0-10.1C301.4,216,298,216,294.7,216z"></path>	<path class="st0" d="M262.9,167.2c-8.6-2.4-17.2-4.9-25.9-7.4c0,24.1,0,47.8,0,71.4c8.8,0,17.4,0,25.9,0  C262.9,209.8,262.9,188.6,262.9,167.2z M242.2,173.9c5.1,0,10.1,0,15.3,0c0,3.2,0,6.5,0,10.1c-5,0-10,0-15.3,0  C242.2,180.6,242.2,177.4,242.2,173.9z M257.6,205.1c-5.1,0-10.1,0-15.3,0c0-3.3,0-6.6,0-10.1c5,0,10.1,0,15.3,0  C257.6,198.3,257.6,201.5,257.6,205.1z"></path>	<path class="st0" d="M137.3,231.3c8.7,0,17.2,0,25.8,0c0-23.7,0-47.3,0-71.6c-8.8,2.5-17.5,5-25.8,7.4  C137.3,188.9,137.3,210.1,137.3,231.3z M142.5,174c5,0,10.1,0,15.3,0c0,3.3,0,6.5,0,10.1c-5.1,0-10.1,0-15.3,0  C142.5,180.8,142.5,177.5,142.5,174z M142.4,195c5,0,10.1,0,15.3,0c0,3.2,0,6.5,0,10.1c-5.2,0-10.2,0-15.3,0  C142.4,201.7,142.4,198.5,142.4,195z"></path>	<path class="st0" d="M184.3,212.1c0-5,1.8-6.8,6.7-6.8c5.8,0,11.6,0,17.4,0c5.9,0,7.4,1.6,7.4,7.3c0,6.2,0,12.4,0,18.8  c3.5,0,6.8,0,10.3,0c0-35,0-69.8,0-104.7c-17.5,0-34.7,0-52.1,0c0,35,0,69.8,0,104.6c3.5,0,6.8,0,10.3,0  C184.3,224.7,184.3,218.4,184.3,212.1z M215.6,194.6c-10.3,0-20.6,0-31,0c0-3.3,0-6.6,0-10.2c10.4,0,20.6,0,31,0  C215.6,187.8,215.6,191.1,215.6,194.6z M215.6,173.6c-10.4,0-20.7,0-31.2,0c0-3.4,0-6.6,0-10.1c10.3,0,20.6,0,31.2,0  C215.6,166.9,215.6,170.2,215.6,173.6z M184.4,142.4c10.5,0,20.7,0,31.1,0c0,3.4,0,6.7,0,10.2c-10.4,0-20.7,0-31.1,0  C184.4,149.2,184.4,146,184.4,142.4z"></path></g></svg>