<svg xmlns="http://www.w3.org/2000/svg" xmlns:xlink="http://www.w3.org/1999/xlink" id="Layer_1" x="0px" y="0px" viewBox="0 0 400 400" style="enable-background:new 0 0 400 400;" xml:space="preserve">
  <style type="text/css">
    .st0{fill:#322B6A;}
    .st1{fill-rule:evenodd;clip-rule:evenodd;fill:#322B6A;}
  </style>
  <g>
    <path class="st0" d="M347.7,127.2c-0.6-0.8-1.3-1.6-2-2.4c-12.6-13.9-25.1-27.8-37.7-41.6c-1.2-1.3-2.5-2.7-4.1-3.6
      c-6.8-4.1-15.8,0.3-16.7,8.4c-0.4,3.7-0.2,7.5-0.3,11.4c-4.4,0.4-8.3,0.7-12.1,1.1c-5.2,0.5-10.4,1.1-15.5,1.7
      c-13,1.7-28.9,11.8-31.7,13.8c-29.1,21.1-42.2,49.7-39.6,85.6c0.1,0.7,0.1,1.4,0.2,2.1c0.6,0.7,1.2,1.3,1.8,1.9
      c4.2,0.5,5.3-0.2,6.3-4.5c8.4-38,52.5-55.5,84.6-33.5c1.6,1.1,2.4,2.3,2.2,4.3c-0.3,3-0.4,6.1-0.5,9.1c-0.2,5.1,2.1,8.8,6.7,10.8
      c4.4,2,8.7,1.4,12.4-2c14.7-13.3,29.5-26.6,44.1-40C352.3,143.8,353.1,134.4,347.7,127.2z"></path>
    <path class="st0" d="M323.7,276.5c-17.6-13.2-36-25.1-55.6-35c-11.9-6.1-13.9-5.5-22.9,4.5c-5.2,5.8-10.6,11.4-15.8,17.1
      c-1.3,1.5-2.6,1.6-4.5,1.1c-19.5-5.8-36.6-16-51.8-29.3c-22.2-19.4-37.6-43.2-45.6-71.7c-0.6-2.1-0.4-3.6,1.4-5
      c6.2-5.2,12.3-10.5,18.5-15.7c9.3-8,9.9-9.9,4.9-21c-9.3-20.6-21-39.9-33.7-58.6c-1.2-1.8-2.8-3.5-4.5-5c-3.6-3.2-6.3-3.5-10.4-0.9
      c-2.1,1.3-4.1,2.8-5.9,4.4c-17.1,15.1-31.6,32.5-45,50.9c-3.9,5.4-4.6,10.8-3.6,17.1c3.1,19.3,9.6,37.5,18.4,54.8
      c20.2,39.9,48.2,73.6,81.9,102.7c24.4,21,50.9,38.6,81.2,49.8c10.4,3.9,21.1,6.8,33.2,8.1c1.4-0.6,3.9-1.4,6-2.7
      c20.4-12.6,39-27.4,55.6-44.8C334.1,288.3,333.8,284,323.7,276.5z"></path>
  </g>
</svg>
