<svg xmlns="http://www.w3.org/2000/svg" xmlns:xlink="http://www.w3.org/1999/xlink" id="Layer_1" x="0px" y="0px" viewBox="0 0 400 400" style="enable-background:new 0 0 400 400;" xml:space="preserve"><style type="text/css">	.st0{fill:#322B6A;}	.st1{fill-rule:evenodd;clip-rule:evenodd;fill:#322B6A;}</style><g>	<path class="st0" d="M251.1,218.1c-10.6,0-21.2,0-31.8,0c-10.7,0-21.4,0-32.2,0c-2,0-2.9,0.8-2.9,2.7c0,9.8,0,19.7,0,29.5  c0,1.8,0.9,2.7,2.8,2.7c2,0,4,0,6.1,0c2,0,2.8,0.8,2.8,2.8c0,2.9,0,5.9,0,8.8c0,0.6,0.3,1.4,0.8,1.8c0.7,0.6,1.4,0,2-0.5  c5.2-4,10.5-8,15.7-12c0.9-0.7,1.8-1,2.9-1c11.3,0,22.6,0,33.9,0c2.2,0,3-0.8,3-3c0-9.6,0-19.2,0-28.9  C254.2,218.9,253.4,218.1,251.1,218.1z M205.1,228.3c-1.5,5.3-3,10.6-4.5,15.8c-0.4,1.2-1.2,1.9-2.3,1.9c-1.1,0-1.9-0.7-2.3-2  c-1.5-5.2-3-10.5-4.5-15.7c-0.4-1.5,0.2-2.8,1.5-3.2c1.3-0.4,2.5,0.4,2.9,1.9c0.7,2.5,1.5,5.1,2.2,7.6c0.1,0,0.2,0,0.3,0  c0.7-2.6,1.5-5.2,2.2-7.8c0.3-1.1,1.1-1.8,2.3-1.8c1,0,2,0.7,2.2,1.7C205.2,227.3,205.2,227.8,205.1,228.3z M221.6,239.1  c-0.1,4-3.1,6.9-7,6.9c-3.9,0-6.9-2.9-7-6.9c0-1.2,0-2.4,0-3.6c0-1.2,0-2.3,0-3.5c0.1-3.8,3.2-6.9,6.9-6.9c3.8,0,6.9,3,7,6.8  C221.6,234.3,221.6,236.7,221.6,239.1z M229.7,243.4c0,1.7-0.9,2.7-2.4,2.7c-1.4,0-2.3-1-2.3-2.7c0-2.6,0-5.2,0-7.8  c0-2.6,0-5.2,0-7.8c0-1.7,1-2.7,2.4-2.7c1.4,0,2.3,1.1,2.3,2.7C229.7,233,229.7,238.2,229.7,243.4z M247.2,232.4  c-0.2,3.7-2.9,6.4-6.7,6.6c-0.8,0-1.6,0-2.6,0c0,1.6,0,2.9,0,4.3c0,1.6-0.9,2.6-2.3,2.6c-1.4,0-2.3-1-2.3-2.6c0-5.2,0-10.5,0-15.7  c0-1.7,0.9-2.6,2.6-2.6c1.9,0,3.8-0.1,5.6,0.2C245.1,225.9,247.4,228.9,247.2,232.4z"></path>	<path class="st0" d="M237.9,229.8c0,1.6,0,3,0,4.7c1.5-0.2,3.2,0.5,4.2-1.1c0.5-0.8,0.5-1.7,0-2.5  C241,229.3,239.4,229.9,237.9,229.8z"></path>	<path class="st0" d="M216.9,232.2c0-1.5-1-2.5-2.4-2.4c-1.3,0-2.2,1-2.3,2.4c0,2.2,0,4.5,0,6.7c0,1.5,0.9,2.4,2.3,2.4  c1.4,0,2.3-0.9,2.4-2.4c0-1.1,0-2.2,0-3.4C216.9,234.5,216.9,233.3,216.9,232.2z"></path>	<path class="st0" d="M233.2,312.9c-7.3-5.6-14.9-10.7-23.1-15c-5-2.6-5.8-2.4-9.6,1.7c-2.2,2.4-4.5,4.7-6.7,7.1  c-0.6,0.6-1.1,0.7-1.9,0.4c-8.1-2.6-15.2-6.9-21.5-12.6c-9.2-8.3-15.5-18.3-18.7-30.3c-0.2-0.9-0.1-1.5,0.6-2.1  c2.6-2.1,5.2-4.3,7.8-6.5c4-3.3,4.2-4.1,2.2-8.8c-3.8-8.7-8.6-16.8-13.8-24.7c-0.5-0.8-1.2-1.5-1.8-2.1c-1.5-1.4-2.6-1.5-4.3-0.4  c-0.9,0.5-1.7,1.1-2.5,1.8c-7.2,6.2-13.4,13.4-19.2,21c-1.7,2.2-2,4.5-1.6,7.1c1.2,8.1,3.8,15.7,7.4,23.1  c8.2,16.8,19.7,31.1,33.7,43.5c10.1,8.9,21.1,16.5,33.7,21.4c4.3,1.7,8.8,3,13.9,3.6c0.6-0.3,1.6-0.5,2.5-1.1  c8.6-5.2,16.5-11.2,23.5-18.4C237.5,318,237.4,316.2,233.2,312.9z"></path>	<path class="st0" d="M316.7,211.3c-2.5-0.5-5-0.7-7.4-1v-47.4c24.4-3.6,39.3-24.5,37.6-45.8c-1.7-21.4-19.5-38.6-40.5-39.3  c-21.7-0.8-40.5,14.4-44.2,35.1c-3.8,21.5,10.1,46.1,37.1,50.1v43.1c-15.3-32.7-56-44.1-86-22.3c-8.6-9.1-8.6-9.1-8.6-20.9v-18.8  c26.3-4,39.9-26.6,37.7-46.7c-2.3-21.5-19.7-37.9-40.5-38.6c-21.6-0.7-40.4,14.2-44,35c-1.8,10.5-0.1,20.5,5.5,29.6  c7.2,11.8,18,18.5,31.6,20.5v21.3c-16-10.4-33-14-51.4-10.2c-18.4,3.9-32.6,14.2-43,30.3V163c26.3-4,39.7-26.7,37.6-46.6  c-2.3-21.6-19.9-38.1-40.8-38.6c-21.5-0.6-40.1,14.3-43.7,34.9c-1.8,10.5-0.1,20.5,5.5,29.6c7.2,11.8,18,18.5,31.6,20.5v38.4  c-0.7,0.1-1.3,0.2-1.9,0.3c-19.9,3.1-35.4,20.6-35.9,40.5c-0.6,24.6,18.4,44.1,43,44.2c13.4,0,7.7,0,11.9,0v0.3h18.2  c-2.2-3.6-4.2-7.2-6-10.9c-4.2-8.5-6.8-16.7-8-25.1c-0.7-4.8,0.3-8.8,2.9-12.3c6.9-9.2,13.3-16.2,20.2-22.2c1-0.8,2.1-1.6,3.4-2.4  c2-1.2,3.9-1.8,5.8-1.8c2.5,0,4.9,1.1,7,3c1.2,1.1,2.2,2.2,2.9,3.4c6.3,9.6,10.9,17.8,14.3,25.8c3.3,7.5,2.3,11.6-4.1,16.9l-1.3,1  c-1.3,1.1-2.7,2.2-4,3.3c2.6,8,6.9,15.1,13,21.3H277v-0.3c10.8,0,21.6,0,32.5-0.1c19.5-0.1,35.6-15.2,37.4-34.7  C348.6,232.8,335.4,215.1,316.7,211.3z M95.8,96.2c5.1,0.1,9.4,4.3,9.4,9.5c0,5.1-4.3,9.4-9.4,9.4c-5.3,0-9.6-4.4-9.5-9.6  C86.3,100.4,90.6,96.2,95.8,96.2z M75.3,136.3c4.9-7.7,11.7-11.7,20.7-11.6c8.7,0.1,15.3,4.1,20,11.5  C106.6,145.1,87.9,146.8,75.3,136.3z M165.8,182.6c-22.9-2.6-38.2,6.6-45.8,28.8c-2.7-0.6-5.7-1.2-8.6-1.9  c4.8-26.7,33.8-41.9,56.3-35.5C167.1,176.9,166.5,179.8,165.8,182.6z M200.1,77.2c5.1,0.1,9.4,4.3,9.4,9.5c0,5.1-4.3,9.4-9.4,9.4  c-5.3,0-9.6-4.4-9.5-9.6C190.7,81.4,195,77.2,200.1,77.2z M179.7,117.3c4.9-7.7,11.8-11.7,20.7-11.6c8.7,0.1,15.4,4.1,20,11.5  C210.9,126.1,192.2,127.8,179.7,117.3z M258.9,251.9c-0.1,0.1-0.1,0.2-0.2,0.3c-1.1,3.7-3.5,5.5-7.3,5.5c-10.9,0-21.8,0-32.8,0  c-0.9,0-1.7,0.2-2.4,0.8c-4.9,3.8-9.9,7.5-14.8,11.3c-2.1,1.6-4.3,2.1-6.7,0.9c-2.4-1.2-3.4-3.2-3.4-5.9c0-2.3,0-4.6,0-7.1  c-1.4,0-2.8,0-4.1,0c-4.6,0-7.5-2.9-7.5-7.6c0-9.7,0-19.4,0-29.1c0-4.7,2.9-7.6,7.7-7.6h62.9c5.2,0,6.9,1.1,8.7,5.8V251.9z   M303.8,96.2c5.1,0.1,9.4,4.3,9.4,9.5c0,5.1-4.3,9.4-9.4,9.4c-5.3,0-9.6-4.4-9.5-9.6C294.3,100.4,298.6,96.2,303.8,96.2z   M283.3,136.3c4.9-7.7,11.7-11.7,20.7-11.6c8.7,0.1,15.3,4.1,20,11.5C314.6,145.1,295.9,146.8,283.3,136.3z"></path></g></svg>