<svg xmlns="http://www.w3.org/2000/svg" xmlns:xlink="http://www.w3.org/1999/xlink" id="Layer_1" x="0px" y="0px" viewBox="0 0 400 400" style="enable-background:new 0 0 400 400;" xml:space="preserve"><style type="text/css">	.st0{fill:#322B6A;}	.st1{fill-rule:evenodd;clip-rule:evenodd;fill:#322B6A;}</style><g>	<path class="st0" d="M327.2,120c-0.1-25.2-21.6-46.8-46.8-47.1c-33.7-0.3-67.3-0.3-101,0c-21.1,0.2-38.9,13.8-45.5,33.8  c-0.5,1.6-0.8,3.2-1.3,5.2c1.8,0,3.1,0,4.4,0c26.9,0,53.8-0.1,80.7,0.1c6.2,0.1,12.5,0.6,18.5,2.1c31.2,7.6,52,34.7,52.2,67.3  c0.1,16.5,0,32.9,0,49.4c0,2,0.4,3.3,2.4,4.2c6.9,3.3,12.6,8.2,17.2,14.3c4.2,5.5,8.4,10.9,12.3,16.5c1.8,2.6,3.8,3.5,6.9,2.5  c0.1-0.7,0.2-1.4,0.2-2.1C327.3,217.4,327.4,168.7,327.2,120z"></path>	<path class="st0" d="M267.5,170.5c-5-23.1-24.1-38.8-47.8-38.9c-32.8-0.2-65.6-0.1-98.4,0c-2.1,0-4.3,0.1-6.4,0.4  c-25.4,4.1-42.1,23.8-42.2,49.6c0,47.4,0,94.9,0,142.3c0,1.1,0,2.1,0,3.1c3.7,1.2,5.7-0.3,7.5-2.9c3.4-4.9,7.1-9.5,10.6-14.2  c10.7-14.6,25-21.7,43.1-21.6c25.8,0.1,51.6,0.1,77.5,0c4.6,0,9.3,0,13.9-0.4c19.1-1.5,37.7-17.3,41.6-35.6c1-4.7,1.6-9.6,1.6-14.4  c0.2-20,0.1-40,0-60C268.4,175.4,268,172.9,267.5,170.5z M180.3,239c-19.4,0-38.7,0-58.4,0c0-6.4,0-12.7,0-19.2  c19.5,0,38.8,0,58.4,0C180.3,226.2,180.3,232.5,180.3,239z M219.5,199.9c-32.6,0-65,0-97.6,0c0-6.4,0-12.6,0-19.1  c32.5,0,64.9,0,97.6,0C219.5,187.3,219.5,193.5,219.5,199.9z"></path></g></svg>