<svg xmlns="http://www.w3.org/2000/svg" xmlns:xlink="http://www.w3.org/1999/xlink" id="Layer_1" x="0px" y="0px" viewBox="0 0 400 400" style="enable-background:new 0 0 400 400;" xml:space="preserve">
  <style type="text/css">
    .st0{fill:#322B6A;}
    .st1{fill-rule:evenodd;clip-rule:evenodd;fill:#322B6A;}
  </style>
  <g>
    <path class="st0" d="M212.2,158.6c31.5-0.3,57.7-27,57.4-58.5c-0.3-31.6-26.8-57.9-58.2-57.6c-31.8,0.3-57.9,26.4-58,58
      C153.4,132.4,180.3,159,212.2,158.6z M219.8,78.6c0-4.6,3.7-8.3,8.3-8.3c4.6,0,8.3,3.7,8.3,8.3v44.1c0,4.6-3.7,8.3-8.3,8.3
      c-4.6,0-8.3-3.7-8.3-8.3V78.6z M186.7,78.6c0-4.6,3.7-8.3,8.3-8.3c4.6,0,8.3,3.7,8.3,8.3v44.1c0,4.6-3.7,8.3-8.3,8.3
      c-4.6,0-8.3-3.7-8.3-8.3V78.6z"></path>
    <path class="st0" d="M302.4,133.5c-31.8,0.3-57.9,26.4-58,58c0,31.9,26.9,58.5,58.8,58.1c31.5-0.3,57.7-27,57.4-58.5
      C360.3,159.5,333.8,133.2,302.4,133.5z M330.8,196.2c-13,8.7-25.9,17.3-38.9,26c-1.9,1.2-3.8,1.6-5.8,0.5c-1.9-1.1-2.7-2.8-2.7-5
      c0-8.7,0-17.4,0-26.1c0-8.7,0-17.4,0-26.1c0-3.1,1.6-5.1,4.4-5.6c1.6-0.3,3,0.4,4.3,1.3c9.7,6.5,19.4,12.9,29,19.4
      c3.2,2.1,6.4,4.3,9.6,6.4C334.6,189.5,334.6,193.7,330.8,196.2z"></path>
    <path class="st0" d="M309.6,290.5c-17.2-13.1-35.3-25-54.6-34.9c-11.7-6.1-13.7-5.5-22.6,4.3c-5.2,5.6-10.5,11.2-15.7,16.8
      c-1.3,1.4-2.5,1.6-4.4,1c-19.2-5.9-36-16-50.9-29.2c-21.7-19.3-36.8-42.8-44.5-71c-0.6-2.1-0.3-3.5,1.4-4.9
      c6.2-5.1,12.2-10.2,18.3-15.4c9.3-7.8,9.8-9.7,4.9-20.7c-9-20.4-20.5-39.5-32.9-58c-1.2-1.8-2.8-3.5-4.4-4.9
      c-3.5-3.2-6.2-3.5-10.2-0.9c-2,1.3-4,2.7-5.8,4.3c-16.9,14.8-31.4,31.8-44.7,49.9c-3.9,5.3-4.6,10.6-3.7,16.8
      c2.9,19.1,9.2,37,17.8,54.2c19.7,39.5,47.1,72.9,80.2,101.8c23.9,20.8,49.9,38.4,79.7,49.7c10.2,3.9,20.7,6.8,32.7,8.2
      c1.4-0.6,3.8-1.3,5.9-2.6c20.2-12.3,38.7-26.8,55.1-43.8C319.8,302.2,319.5,298,309.6,290.5z"></path>
  </g>
</svg>
