<svg xmlns="http://www.w3.org/2000/svg" xmlns:xlink="http://www.w3.org/1999/xlink" id="Layer_1" x="0px" y="0px" viewBox="0 0 400 400" style="enable-background:new 0 0 400 400;" xml:space="preserve">
  <style type="text/css">
    .st0{fill:#322B6A;}
    .st1{fill-rule:evenodd;clip-rule:evenodd;fill:#322B6A;}
  </style>
  <g>
    <path class="st0" d="M116.8,308.3l-0.3-0.1l-0.3,0.1l-0.1,0l-0.5-0.1c-0.6-0.2-1.2-0.3-2-0.3c-0.1,0-0.3,0-0.4,0c-1,0-1.8,0.5-2.3,0.9l-0.3,0.2l-0.1,0.1l-0.1,0l-1.8,0.9c-1.6,0.8-3,1.6-4.6,2.4l-2.3,1.2c-4,2.1-8.1,4.2-12.2,6.1c-7,3.2-15.4,6.5-24.7,7c-0.4,0-0.9,0-1.3,0c-4,0-6.1-0.9-7.4-3.2c-1.1-1.8-2.8-5.4-1.9-9.2c1.4-6.3,3-13,5.4-19c5.1-12.8,12.3-24,20.7-35.9c0.5,0.9,1.2,1.5,1.8,2l0,0l0.1,0.1c0,0,0.1,0.1,0.1,0.1c0.1,0.1,0.2,0.2,0.4,0.3l1.8,2.2l1.9-2.3c0.1-0.1,0.3-0.3,0.3-0.3l0.1-0.1l0.1-0.1c0.9-0.8,1.9-1.8,2.1-3.2l0-0.1c0.2-2.4,0.2-5,0.1-7.9v-3.1c0-2.9-1.9-4.8-4.9-4.9h-2.2c-0.6,0-1.3,0-1.9,0c-0.7,0-1.4,0-2,0c-1.7,0-3,0-4.2,0.1c-1.9,0.2-4.3,2.1-4.6,4.3c-0.2,1.3,0.2,2.5,1,3.3c0.9,0.9,2.2,1.4,3.6,1.4c0.2,0,0.3,0,0.5,0c0.2,0,0.3,0,0.5,0c-0.3,0.5-0.6,0.9-0.9,1.3c-7.7,10.2-14.4,21.1-19.9,32.3c-4.7,9.9-9.7,21.5-8.8,34.3c0.5,7.5,5,16.4,16,16.7h1.6c4.3,0,8.6-0.5,12.5-1.4c13.9-3.1,26.5-9.8,37.2-15.8l0.1,0l0.1,0c0.2-0.1,0.5-0.3,0.8-0.4l0.1-0.1c0.2-0.1,0.5-0.3,0.7-0.4c0.9-0.5,2-1.1,2.9-2c1-1,1.3-2.2,1.4-3.2c0.1-0.2,0.1-0.4,0.1-0.6c0-0.1,0-0.1,0-0.1c0,0,0,0,0,0l0.9-2.8L116.8,308.3z"></path>
    <path class="st0" d="M179.6,161.3c0.1,0,0.2,0,0.3,0c1,0,1.7-0.4,2.1-0.7l0.1-0.1c0.1-0.1,0.3-0.2,0.5-0.3c2.1-1,4.2-2.1,6.3-3.2c4-2.1,9.3-4.8,14.5-7c4.6-2,10.8-4.2,17.5-4.2c1.2,0,2.5,0.1,3.6,0.2c4.4,0.6,7,2.9,8,7c1.3,5,0.2,10.1-0.8,14c-3.4,13-10.1,24.6-15.5,33.3c-2.4,3.9-5,7.8-7.6,11.5l-0.9,1.4c-0.1,0.2-0.2,0.3-0.3,0.5c-0.6-2-2.2-3.2-4.4-3.2c-2.8,0-4.6,1.9-4.6,4.9v10.2c0,1.6,0.5,2.9,1.4,3.9c0.9,0.9,2.2,1.4,4,1.4h9.5c1.6,0,3-0.5,3.9-1.4c0.9-0.8,1.3-2,1.3-3.2c0-1.4-0.5-2.5-1.4-3.3c-0.9-0.9-2.3-1.3-3.9-1.3h-0.2c0,0,0-0.1,0.1-0.1c0.7-0.9,1.3-1.8,1.9-2.7c8.2-11.6,17.3-25.6,23.4-42.1c3.1-8.7,4.3-15.6,3.9-22.3c-0.6-9.2-6.3-15.9-14.9-17.4c-2-0.4-4.2-0.6-6.4-0.6c-2,0-4,0.2-6,0.5c-14.6,2.3-27.2,9.2-37.9,15.5l-0.1,0.1c-0.5,0.2-1.6,0.8-1.9,2.2l0,0.1c0,0.1,0,0.2-0.1,0.3c-0.3,0.9-0.7,2.5,0.2,3.8C176.4,160.7,178.6,161.2,179.6,161.3z"></path>
    <path class="st0" d="M257.6,253.5c-10.6-7.8-12.6-7.6-23,0.7c-6,4.8-12.1,9.4-18.1,14.1c-1.5,1.2-2.8,1.2-4.5,0.3c-18.1-8.8-33.1-21.5-45.7-36.9c-18.5-22.4-29.7-48.1-32.9-77.1c-0.2-2.1,0.2-3.5,2.1-4.7c6.9-4.1,13.7-8.2,20.5-12.3c10.4-6.3,11.2-8,8.1-19.7c-5.7-21.6-14-42.2-23.4-62.4c-0.9-2-2.2-3.8-3.5-5.6c-2.9-3.7-5.6-4.4-10-2.5c-2.2,0.9-4.4,2-6.4,3.3c-19.1,12-36,26.5-52,42.3c-4.6,4.6-6.2,9.7-6.3,16.1c-0.1,19.3,3.3,38,9.1,56.3c13.3,42.1,35.1,79.4,63.2,113.1c20.3,24.3,43.3,45.7,71,61.5c9.5,5.4,19.4,10,31,13.2c1.5-0.4,4-0.7,6.2-1.6c21.8-9,42.4-20.4,61.3-34.6c9.9-7.4,10.2-11.6,1.7-20.6C291,280.9,275.1,266.4,257.6,253.5z"></path>
    <path class="st0" d="M270,234.5c0.1,0,0.2,0,0.2,0c0.2,0,0.4,0.1,0.6,0.1h5.3c0-24.1,0-48.2,0-72.3c0-0.9-0.1-1.8-0.3-2.6c-0.8-2.3-3.2-3.8-5.5-3.4c-2.4,0.3-4.3,2.3-4.5,4.8c-0.1,0.4-0.1,0.7-0.1,1.1c0,22.6,0,45.3,0,67.9C265.8,233,267,234.4,270,234.5z"></path>
    <path class="st0" d="M293.7,179c0.7-1.1,0.7-2.5-0.1-3.5c-1.1-1.4-2.7-0.6-4.2-0.8c0,1.8,0,3.5,0,5.3C291,179.6,292.7,180.6,293.7,179z"></path>
    <path class="st0" d="M340,168.9c-0.9,0.2-1.6,0.5-1.7,1.5c-0.1,1.1,0.7,1.5,1.7,1.8C340,171,340,169.9,340,168.9z"></path>
    <path class="st0" d="M343,177.9c0-1-0.5-1.6-1.7-2c0,1.2,0,2.4,0,3.6C342.5,179.3,342.9,178.9,343,177.9z"></path>
    <path class="st0" d="M349.2,156.1c-23.5,0-47.1,0-70.6,0c-0.2,0-0.5,0.1-0.9,0.1c1.5,2,1.7,4,1.7,6.3c0,31,0,62.1,0,93.2c0,0.5,0,1,0,1.5c1.1,0.3,2.2,0.4,3.3,0.8c2.1,0.8,4.1,0.8,6.1,0c3.3-1.2,6.5-1.1,9.7,0.1c2.1,0.8,4,0.6,6.1-0.1c2.8-0.9,5.6-1.4,8.5-0.3c2.7,1.1,5.4,1.1,8.2,0.1c2.6-0.9,5.1-0.9,7.7,0c0.2,0.1,0.5,0.1,0.7,0.2c2.1,0.8,4.1,0.9,6.2,0.2c1.2-0.4,2.4-0.7,3.7-0.9c0.8-0.1,1.7-0.2,2.5,0c2,0.4,4,0.9,6,1.4c0.3,0.1,0.7,0.2,0.9,0.1c2-0.4,3.9-0.9,5.9-1.4c0-0.3,0-0.4,0.1-0.8c0-31.6,0-63.2,0-94.8C354.9,158.4,352.5,156.1,349.2,156.1z"></path>
  </g>
</svg>
