<svg xmlns="http://www.w3.org/2000/svg" xmlns:xlink="http://www.w3.org/1999/xlink" id="Layer_1" x="0px" y="0px" viewBox="0 0 400 400" style="enable-background:new 0 0 400 400;" xml:space="preserve">
  <style type="text/css">
    .st0{fill:#322B6A;}
    .st1{fill-rule:evenodd;clip-rule:evenodd;fill:#322B6A;}
  </style>
  <g>
    <g>
      <path class="st0" d="M60,200c0-37.8,0-75.6,0-113.4c0-21.6,9.9-31.5,31.5-31.5c32.9-0.1,65.9-0.1,98.8,0c20.4,0,30.7,10.2,30.7,30.6
        c0.1,76.2,0.1,152.4,0,228.6c0,20.4-10.3,30.6-30.7,30.6c-33.2,0.1-66.5,0.1-99.7,0c-20.5,0-30.6-10.2-30.6-30.6
        C60,276.2,60,238.1,60,200z M71.3,98.5c0,60.9,0,121.3,0,181.8c46.4,0,92.1,0,138.1,0c0-60.9,0-121.3,0-181.8
        C163,98.5,117.3,98.5,71.3,98.5z M140,323.6c3.7,0,7.5,0.3,11.2-0.1c6.1-0.6,10.3-3.8,10.6-10.3c0.3-6.5-3.6-10.5-9.7-11
        c-7.7-0.6-15.5-0.6-23.1,0c-6.2,0.5-10.1,4.6-9.8,10.9c0.3,6.2,4.4,9.8,10.6,10.3C133.1,323.8,136.6,323.6,140,323.6z"></path>
      <path class="st0" d="M285.9,215.6c7.2,0,13.5,0,19.6,0c3.4-10.1,13.1-14.6,27.9-9.9c11.7,3.8,3.7,15.4,5.5,23.2
        c1.1,4.7-0.8,8.1-6.6,8.8c-19.5,2.1-23.5,0.7-26.5-10.3c-6.4,0-12.8,0-19.8,0c0,13.9,0,27.5,0,41.8c6.3,0,12.8,0,19.3,0
        c3.9-9.7,15-14.8,28.3-9.7c11.6,4.4,3.3,16.1,5.2,24.3c1.1,4.7-1.8,7.1-6.9,7.4c-21.4,1.5-23.1,1-26.3-10.6c-6.4,0-13,0-19.5,0
        c-10.9,0-11.3-0.4-11.3-11c0-43,0-86,0-128.9c0-3.1,0-6.2,0-10.2c-3.6-0.2-6.6-0.3-9.4-0.4c-3.4,11.1-9.9,14.6-27,10.5
        c-13-3.2-4.4-15.4-6.4-23.3c-1.1-4.6,0.5-8.1,6.6-8.6c20.8-1.7,23.7-0.8,26.4,10.2c2.1,0.1,4.3,0.4,6.5,0.4c14,0.1,14,0.1,14,14.5
        c0,9.1,0,18.2,0,27.9c7,0,13.5,0,20,0c3.4-9.5,14.5-14.6,28.4-9.4c10.9,4,3.4,15.5,5,23.5c1.1,5.2-1.8,7.7-7.2,8.2
        c-19.9,1.8-23.1,0.7-25.7-10.4c-6.5,0-13.1,0-20.2,0C285.9,187.7,285.9,201.3,285.9,215.6z M318.7,216.4c0,3.9,0,7,0,10.6
        c3.7-0.2,6.6-0.3,9.3-0.4c0-3.9,0-6.9,0-10.2C324.8,216.4,322.1,216.4,318.7,216.4z M318.2,172.4c3.8,0,6.8,0,9.7,0
        c0-3.6,0-6.6,0-9.5c-3.5,0-6.5,0-9.7,0C318.2,166.2,318.2,169,318.2,172.4z"></path>
      <path class="st0" d="M199.6,124.4c0,16.6,0,16.6-17.1,16.6c-15.4,0-15.4,0-15.3-18.4c0-13.8,0-13.8,18.9-13.8
        C199.6,108.8,199.6,108.8,199.6,124.4z"></path>
      <path class="st0" d="M113.6,125.7c0,2.6-0.1,5.2,0,7.7c0.2,7.1-4.8,8.6-9.8,7.3c-7.6-1.9-18.4,6.5-22.6-6.7c-0.1-0.3,0-0.6,0-0.9
        c-1.9-23.7,2.5-28,26.2-24.2c2.3,0.4,5.1,3.9,5.9,6.5C114.4,118.6,113.6,122.3,113.6,125.7z M92.8,119.7c0,3.7,0,6.7,0,9.7
        c3.6,0,6.5,0,9.6,0c0-3.5,0-6.5,0-9.7C99.1,119.7,96.3,119.7,92.8,119.7z"></path>
      <path class="st0" d="M156.6,124.9c0,16.1,0,16.1-16.7,16.1c-15.7,0-15.7,0-15.7-18.1c0-14.2,0-14.2,19.4-14.2
        C156.6,108.8,156.6,108.8,156.6,124.9z M145.8,120.1c-3.3,0-6.5,0-10.1,0c0,3.1,0,6.1,0,9.1c3.7,0,6.8,0,10.1,0
        C145.8,125.9,145.8,123.3,145.8,120.1z"></path>
      <path class="st0" d="M113.6,167.9c0,16.1,0,16.1-16.7,16.1c-15.7,0-15.7,0-15.7-18.1c0-14.2,0-14.2,19.4-14.2
        C113.6,151.7,113.6,151.7,113.6,167.9z M102.6,162.7c-3.8,0-6.5,0-9.6,0c0,3.5,0,6.7,0,10.3c3.7-0.2,6.7-0.4,9.6-0.6
        C102.6,168.8,102.6,166,102.6,162.7z"></path>
      <path class="st0" d="M140.6,151.7c18.1-0.2,16-0.6,16,18.3c0,14,0,14-17.9,14c-14.4,0-14.4,0-14.4-18.5
        C124.2,151.7,124.2,151.7,140.6,151.7z M135.8,162.6c0,3.8,0,6.8,0,9.7c3.6,0,6.6,0,9.6,0c0-3.6,0-6.5,0-9.7
        C142,162.6,139.3,162.6,135.8,162.6z"></path>
      <path class="st0" d="M199.6,167.9c0,16.1,0,16.1-16.8,16.1c-15.6,0-15.6,0-15.6-18.1c0-14.1,0-14.1,19.4-14.1
        C199.6,151.7,199.6,151.7,199.6,167.9z M188.4,172.6c0-3.7,0-6.6,0-9.7c-3.5,0-6.5,0-9.7,0c0,3.5,0,6.4,0,9.7
        C182,172.6,184.8,172.6,188.4,172.6z"></path>
      <path class="st0" d="M113.6,210.7c0,16.3,0,16.3-16.5,16.3c-15.8,0-15.8,0-15.8-17.9c0-14.4,0-14.4,19.2-14.3
        C113.6,194.7,113.6,194.7,113.6,210.7z M92.1,205.7c0.2,3.9,0.3,6.9,0.5,10.3c3.9-0.2,6.9-0.4,10.3-0.6c-0.2-3.9-0.3-6.8-0.5-9.8
        C98.8,205.7,96.1,205.7,92.1,205.7z"></path>
      <path class="st0" d="M140.5,194.7c18.1-0.1,16.1-0.6,16.1,18.2c0,14.1,0,14.1-17.9,14.1c-14.5,0-14.5,0-14.5-18.4
        C124.2,194.7,124.2,194.7,140.5,194.7z M145.5,205.7c-11.3-0.7-11.9,0.1-8.7,10.2c2.9-0.2,5.8-0.4,8.7-0.6
        C145.5,211.7,145.5,209,145.5,205.7z"></path>
      <path class="st0" d="M199.6,210.6c0,16.4,0,16.4-17.3,16.4c-15.1,0-14.9,0-15.1-17.9c-0.1-17.9,1.8-14.2,19.2-14.4
        C199.6,194.6,199.6,194.7,199.6,210.6z M188.8,206c-3.3,0-6.5,0-10.1,0c0,3.1,0,6.1,0,9.1c3.7,0,6.8,0,10.1,0
        C188.8,211.8,188.8,209.3,188.8,206z"></path>
      <path class="st0" d="M140.2,237.7c18.1-0.1,16.4-0.9,16.4,17.9c0,14.4,0,14.4-17.6,14.4c-14.8,0-14.8,0-14.8-19
        C124.2,237.7,124.2,237.7,140.2,237.7z M135.1,258.1c3.8,0,7.2,0,10.9,0c-0.2-3.6-0.4-6.3-0.6-9.4c-3.5,0-6.5,0-10,0
        C135.4,252,135.3,254.7,135.1,258.1z"></path>
    </g>
  </g>
</svg>
