<svg xmlns="http://www.w3.org/2000/svg" xmlns:xlink="http://www.w3.org/1999/xlink" id="Layer_1" x="0px" y="0px" viewBox="0 0 400 400" style="enable-background:new 0 0 400 400;" xml:space="preserve">
<style type="text/css">
	.st0{fill:#322B6A;}
	.st1{fill-rule:evenodd;clip-rule:evenodd;fill:#322B6A;}
</style>
<path class="st1" d="M341.3,24.8H114H58.7c-3.2,0-5.7,2.6-5.7,5.7v337c0,2.3,1.4,4.3,3.4,5.2c1,1.5,2.7,2.5,4.7,2.5h246.4
	c0.2,0,0.4-0.1,0.7-0.1c11.9-0.7,21.1-4.2,27.7-10.4c6.6-6.3,10.2-15,11-26.2c0.1-0.3,0.1-0.6,0.1-0.9V30.5
	C347,27.3,344.4,24.8,341.3,24.8z M241.1,75.1l7.3,49.7l25.1,43.5c-7.6,4.4-16.3,6.7-25.1,6.7c-27.7,0-50.2-22.5-50.2-50.2
	C198.2,99.9,216.5,78.7,241.1,75.1z M301.5,245.8h-92.7c-3.1,0-5.6-2.5-5.6-5.7c0-3.1,2.5-5.7,5.6-5.7h92.7c3.1,0,5.6,2.5,5.6,5.7
	C307.1,243.2,304.6,245.8,301.5,245.8z M307.1,281.7c0,3.1-2.5,5.7-5.6,5.7H101.9c-3.1,0-5.6-2.5-5.6-5.7c0-3.1,2.5-5.7,5.6-5.7
	h199.6C304.6,276,307.1,278.5,307.1,281.7z M291.7,160.4c-2.1,2.1-4.4,3.9-6.8,5.6l-26.1-39l46.9,0.2
	C305.6,139.7,300.6,151.7,291.7,160.4z M152.8,125.7c0-0.7,0.6-1.4,1.4-1.4h14.3c0.8,0,1.4,0.6,1.4,1.4v28.1c0,0.8-0.6,1.4-1.4,1.4
	h-14.3c-0.8,0-1.4-0.6-1.4-1.4V125.7z M101,53.1h42.3c3.1,0,5.6,2.5,5.6,5.7c0,3.2-2.5,5.7-5.6,5.7H101c-3.1,0-5.6-2.5-5.6-5.7
	C95.4,55.6,97.9,53.1,101,53.1z M143.3,98.9v55c0,0.8-0.6,1.4-1.4,1.4h-14.3c-0.8,0-1.4-0.6-1.4-1.4v-55c0-0.8,0.7-1.4,1.4-1.4h14.3
	C142.7,97.5,143.3,98.1,143.3,98.9z M116.7,108.5v45.3c0,0.8-0.6,1.4-1.4,1.4H101c-0.8,0-1.4-0.6-1.4-1.4v-45.3
	c0-0.7,0.7-1.4,1.4-1.4h14.3C116.1,107.1,116.7,107.7,116.7,108.5z M101,197.4h70.8c3.1,0,5.6,2.5,5.6,5.7c0,3.1-2.5,5.7-5.6,5.7
	H101c-3.1,0-5.6-2.5-5.6-5.7C95.4,200,97.9,197.4,101,197.4z M101,234.4h85.9c3.1,0,5.6,2.5,5.6,5.7c0,3.1-2.5,5.7-5.6,5.7H101
	c-3.1,0-5.6-2.5-5.6-5.7C95.4,237,97.9,234.4,101,234.4z M302,328.9H101c-3.1,0-5.6-2.5-5.6-5.7c0-3.1,2.5-5.7,5.6-5.7h201
	c3.1,0,5.6,2.5,5.6,5.7C307.6,326.3,305.1,328.9,302,328.9z M306,115.9l-50.1,3.6c-1,0.1-1.9-0.7-1.9-1.7c0-0.1,0-0.1,0-0.1
	l-2.5-50.1c-0.1-1,0.7-1.8,1.7-1.9c0.3,0,0.6,0,1,0c0.3,0,0.7,0,1,0c13.8-0.1,26.4,5.1,35.8,13.7c9.4,8.7,15.7,20.8,16.7,34.6
	C307.8,115,307,115.9,306,115.9z"></path>
</svg>
