<svg xmlns="http://www.w3.org/2000/svg" xmlns:xlink="http://www.w3.org/1999/xlink" id="Layer_1" viewBox="0 0 400 400" xml:space="preserve" role="img" aria-labelledby="iconTitle iconDesc">
  <title id="iconTitle">Custom Icon</title>
  <desc id="iconDesc">Complex vector icon with circular and abstract shapes, filled in #322B6A.</desc>
  <style type="text/css">
    .st0 { fill:#322B6A; }
    .st1 { fill-rule:evenodd; clip-rule:evenodd; fill:#322B6A; }
  </style>
  <path class="st0" d="M296,245.2c-24.8,0-44.8,19.9-44.8,44.8c0,24.8,20,44.9,44.8,44.9c24.6,0,44.6-20.1,44.7-44.7
    C340.7,265.4,320.7,245.3,296,245.2z M320.3,281.2c-4.7,4.9-9.6,9.6-14.4,14.5c-4,4-7.9,8-11.9,11.9c-3.4,3.4-6.8,3.4-10.2,0
    c-4.2-4.1-8.4-8.3-12.5-12.5c-3-3-3.1-7-0.4-9.6c2.6-2.5,6.4-2.4,9.3,0.5c2.8,2.8,5.5,5.7,8.4,8.8c6.8-6.8,13.3-13.3,19.8-19.9
    c0.9-0.9,1.8-1.9,2.8-2.8c3-2.8,6.8-2.8,9.4-0.1C323.1,274.7,323.1,278.4,320.3,281.2z"></path>
  <path class="st0" d="M179.5,153.2c9.5,0.5,17.4-5.3,19.4-14.5c0.7-3.3,0.5-6.7,0.7-10.1c-0.1,0-0.2,0-0.2,0c0-2.4,0.1-4.9,0-7.3
    c-0.4-9.6-8.1-17.3-17.5-17.7c-9.6-0.4-18.2,6.2-19.2,15.7c-0.6,5.8-0.6,11.8-0.1,17.7C163.4,146.1,170.8,152.8,179.5,153.2z"></path>
  <path class="st0" d="M180.7,266.7c-1.7,0-2.8,1.2-2.8,2.9c0,1.7,1.2,2.8,2.9,2.8c1.7,0,2.8-1.2,2.8-2.9
    C183.6,267.9,182.4,266.7,180.7,266.7z"></path>
  <path class="st0" d="M160.7,246.5c13.4,0,26.8,0,40.2,0c0-0.2,0.1-0.4,0.1-0.6c0-4,0.1-7.9,0-11.9c-0.4-12.4-12.2-21.5-24.4-18.7
    c-9.5,2.1-15.7,9.9-15.9,19.7c0,3.5,0,7.1,0,10.6C160.6,246,160.7,246.3,160.7,246.5z"></path>
  <path class="st0" d="M206.1,252.4c-8.4,0-16.9,0-25.3,0c-8.4,0-16.8,0-25.2,0c-2.7,0-3.6,0.9-3.6,3.6c0,12.1,0,24.1,0,36.2
    c0,2.6,1,3.5,3.5,3.5c16.9,0,33.7,0,50.6,0c2.6,0,3.5-0.9,3.5-3.5c0-12.1,0-24.2,0-36.2C209.6,253.3,208.6,252.4,206.1,252.4z
     M184.3,277.4c-0.5,0.2-0.6,0.5-0.6,1c0,1.8,0,3.6,0,5.4c0,1.9-1.1,3-2.8,3c-1.8,0-2.9-1.1-2.9-3.1c0-0.9,0-1.7,0-2.6
    c0-0.9,0-1.8,0-2.7c0-0.7-0.2-1-0.8-1.2c-3.3-1.5-5.1-4.6-4.9-8.4c0.2-3.4,2.4-6.3,5.7-7.5c4.5-1.5,9.3,0.6,10.9,4.8
    C190.6,270.7,188.6,275.5,184.3,277.4z"></path>
  <path class="st0" d="M296.1,232.3c0.5,0,1,0,1.5,0c0-0.1,0.1-0.3,0.1-0.4c1.8-6,3-12.2,3.8-18.3c0.1-0.3,0.1-0.7,0.1-1
    c0-0.1,0-0.1,0-0.2c0.5-4.2,0.7-8.4,0.7-12.7v-8.3c0-11.6,0-23.3,0-34.9c0,0,0,0,0,0V155h0v-37h0c0-3.6,0-7.2,0-10.7
    c0-0.3,0-0.7-0.1-1c0-0.2,0-0.4,0-0.6c0-0.5-0.1-0.9-0.2-1.4c0-0.1,0-0.2,0-0.3c-1.3-7.6-7.1-12.7-15.3-13.2
    c-1.4-0.1-2.8-0.2-4.2-0.3c-19.5-1.7-38.1-6.7-56-14.6C214,70.5,202.3,63.6,191,56c-0.2-0.1-0.4-0.3-0.6-0.4
    c-0.4-0.3-0.8-0.5-1.2-0.8c-2.6-1.6-5.3-2.4-7.9-2.5c-2.6,0.1-5.3,0.9-7.9,2.5c-0.4,0.2-0.8,0.5-1.2,0.8c-0.2,0.1-0.4,0.3-0.6,0.4
    c-11.2,7.6-22.9,14.5-35.4,20c-17.9,7.9-36.6,12.9-56,14.6c-1.4,0.1-2.8,0.2-4.2,0.3c-8.2,0.5-14,5.5-15.3,13.2
    c-0.1,0.5-0.1,0.9-0.2,1.4c0,0.2,0,0.4,0,0.6c0,0.3,0,0.7,0,1c0,3.6,0,7.2,0,10.7v37c0,11.6,0,23.3,0,34.9c0,2.8,0,5.5,0,8.3
    c0,4.3,0.2,8.5,0.7,12.7c0.8,6.2,2,12.3,3.8,18.3c6.9,23,19.8,42.5,36.1,59.7c21,22.1,45.5,39.5,72.3,53.7c2.4,1.2,4.8,1.8,7.2,1.8
    h0.3c2.4,0,4.8-0.6,7.2-1.8c18.9-10,36.6-21.5,52.7-35.2c-2.4-6.3-3.7-13.2-3.6-20.4C238.4,258.1,264.4,232.2,296.1,232.3z
     M150.8,114.9c3.6-15.3,17.2-24.8,33.2-23.6c14.2,1.1,26.4,13,27.5,27.8c0.6,7.6,0.7,15.5-0.8,22.9c-3,15.2-17.7,25.2-33,23.5
    c-15.6-1.7-27.4-14.4-27.8-30.1c-0.1-2.3,0-4.7,0-7c-0.1,0-0.3,0-0.4,0C149.8,124,149.8,119.3,150.8,114.9z M215.4,292.3
    c0,3.7-1.5,6.6-4.9,8.2c-1.1,0.5-2.5,0.8-3.8,0.8c-17.3,0.1-34.6,0.1-51.8,0c-5,0-8.6-3.7-8.7-8.9c0-5,0-10.1,0-15.1
    c0-7.3,0-14.5,0-21.8c0-4.3,2.4-7.5,6.2-8.6c0.7-0.2,1.5-0.3,2.4-0.4c0-0.4,0-0.7,0-1.1c0-4-0.1-7.9,0.1-11.9
    c0.6-11.8,9-21.5,20.6-23.8c14.5-3,28.5,6.6,30.9,21.2c0.3,1.6,0.3,3.2,0.3,4.9c0.1,3.3,0,6.5,0,9.8c0,0.3,0,0.7,0,1
    c1.1,0.3,2.2,0.4,3.2,0.8c3.5,1.3,5.5,4.4,5.5,8.4c0,4.3,0,8.6,0,12.9C215.4,276.4,215.4,284.3,215.4,292.3z M230.9,215.7
    c-3.8,0.2-6.4-2.3-6.6-6.5c-0.7-10.9-8.2-18.1-19.1-18.2c-8.1-0.1-16.3,0-24.4,0c-7.9,0-15.7,0-23.6,0c-11.5,0-18.7,6.7-19.7,18.1
    c-0.4,4.4-3,6.9-6.9,6.6c-3.6-0.3-5.8-3.3-5.6-7.5c1.1-17,14-29.5,31.3-29.7c16.4-0.2,32.8-0.2,49.1,0c17.4,0.3,30.8,13.5,31.1,30.1
    C236.6,212.8,234.5,215.4,230.9,215.7z"></path>
</svg>
