<svg xmlns="http://www.w3.org/2000/svg" xmlns:xlink="http://www.w3.org/1999/xlink" id="Layer_1" x="0px" y="0px" viewBox="0 0 400 400" style="enable-background:new 0 0 400 400;" xml:space="preserve">
  <style type="text/css">
    .st0{fill:#322B6A;}
    .st1{fill-rule:evenodd;clip-rule:evenodd;fill:#322B6A;}
  </style>
  <g>
    <path class="st0" d="M288.8,60c-31.8,0.3-57.9,26.4-58,58c0,31.9,26.9,58.5,58.8,58.1c31.5-0.3,57.7-27,57.4-58.5
      C346.7,86.1,320.2,59.7,288.8,60z M280.7,140.2c0,4.6-3.7,8.3-8.3,8.3c-4.6,0-8.3-3.7-8.3-8.3V96.1c0-4.6,3.7-8.3,8.3-8.3
      c4.6,0,8.3,3.7,8.3,8.3V140.2z M313.8,140.2c0,4.6-3.7,8.3-8.3,8.3c-4.6,0-8.3-3.7-8.3-8.3V96.1c0-4.6,3.7-8.3,8.3-8.3
      c4.6,0,8.3,3.7,8.3,8.3V140.2z"></path>
    <path class="st0" d="M230,149.2c-29.3,7.4-58.6,14.9-88,22.3v-32.8c26.7-6.8,53.4-13.5,80.1-20.3V118c0-5.3,0.7-10.5,1.9-15.5
      c-31.4,8-62.8,15.9-94.3,23.8c-2.2,0.6-2.9,1.4-2.9,3.8c0.1,42.9,0.1,85.8,0.1,128.7v3.3c-1-0.8-1.7-1.3-2.3-1.7
      c-10.8-8.2-23-11.2-36.2-8.4c-23.4,5-38.1,26.1-35,49.8c4.3,32.6,43.2,49.3,69.7,29.8c12.6-9.3,18.7-21.8,18.7-37.5
      c0-34.8,0-69.6-0.1-104.4c0-2.3,0.7-3.1,2.8-3.6c31.6-7.9,63.1-15.9,94.6-23.9C235.6,158.2,232.5,153.9,230,149.2z"></path>
    <path class="st0" d="M274,183.1v42.8c-0.2,0-0.3,0.1-0.4,0c-0.6-0.4-1.2-0.9-1.8-1.3c-11.1-8.4-23.6-11.4-37.2-8.2
      c-23.2,5.5-37.2,26.4-34,50c2.9,21.3,22.5,38,44.1,37.7c24.5-0.3,44.1-19.6,44.2-44.2c0.1-25,0.1-50,0.1-75.1h-0.2
      C283.8,184.8,278.8,184.2,274,183.1z"></path>
  </g>
</svg>
