<svg xmlns="http://www.w3.org/2000/svg" xmlns:xlink="http://www.w3.org/1999/xlink" id="Layer_1" x="0px" y="0px" viewBox="0 0 400 400" style="enable-background:new 0 0 400 400;" xml:space="preserve"><style type="text/css">	.st0{fill:#322B6A;}	.st1{fill-rule:evenodd;clip-rule:evenodd;fill:#322B6A;}</style><g>	<path class="st0" d="M45,311.6c7.4,0,14.5,0,22,0c0-20.5,0-40.8,0-61.2c-7.4,0-14.7,0-22,0C45,270.9,45,291.1,45,311.6z"></path>	<path class="st0" d="M177.8,252c-0.9-0.1-1.7-0.1-2.6-0.1c-11.6,0-23.2,0-34.8,0c-6.3,0-11.1-4-11.7-10.2c-0.2-2.4,0.6-5.2,1.6-7.5  c2.6-5.3,5.8-10.3,8.4-15.6c3.8-8,2.1-15.9-4.2-19.9c-0.6,1-1.3,2-1.9,3c-7,11.4-14.1,22.6-20.9,34.2c-5.9,10-14.4,14.6-25.8,14.3  c-1.8-0.1-3.6,0-5.4,0c0,20.8,0,41.1,0,61.6c8.2,0.4,14.5,4.6,20.5,9.5c2.3,1.9,4.5,4,7.1,5.3c4.4,2.2,9.1,5.2,13.8,5.5  c13.4,0.9,26.9,0.6,40.4,0.6c3,0,5-2.3,5-5.1c0-2.9-1.8-4.7-5.2-5.2c-4.3-0.7-6.5-3.1-6.3-6.9c0.2-3.8,2.8-6.1,7.1-6.2  c3-0.1,5.9,0.1,8.9-0.1c2.8-0.2,4.4-1.9,4.6-4.6c0.2-2.7-1.1-4.6-3.8-5.3c-0.6-0.2-1.3-0.3-1.9-0.4c-3.8-0.8-5.8-3.2-5.7-6.8  c0.2-3.5,2.4-5.7,6.1-6.1c1.6-0.2,3.3,0,4.9-0.2c2.6-0.3,4.2-1.8,4.5-4.5c0.3-2.8-1.3-4.5-3.8-5.5c-0.7-0.3-1.5-0.2-2.3-0.4  c-3.8-0.9-5.7-3.3-5.4-7.1c0.3-3.4,2.6-5.6,6.3-5.8c0.9-0.1,1.8,0,2.6-0.1c2.8-0.4,4.6-2,4.9-4.9C182.9,255,180.4,252.4,177.8,252z  "></path>	<path class="st0" d="M241.6,181.4c1.7-2.8,1.3-5.7-0.7-8.3c-3.6-4.5-8.5-3.5-13.3-3.3c0,5.5,0,10.6,0,16.1  C233,186.1,238.3,186.9,241.6,181.4z"></path>	<path class="st0" d="M159.3,118.8c2.6,0,4.7,0,7.1,0c-1.2-3.1-2.2-5.9-3.6-9.5C161.5,113,160.4,115.8,159.3,118.8z"></path>	<path class="st0" d="M355,98c0-18.4-12.3-30.6-30.7-30.6c-71.1,0-142.2,0-213.2,0c-18.4,0-30.6,12.3-30.7,30.7c0,10.3,0,20.7,0,31  h0.5v67.5h-0.6c0,8.3-0.3,16.6,0.2,24.9c0.2,4.6,1.9,9.1,3.2,13.6c0.2,0.8,1.7,1.8,2.6,1.9c5.7,0.5,10.2-1.6,13.3-6.6  c8.6-14.1,17.3-28.2,25.9-42.2c3.6-5.9,6.4-6.3,12.4-3.1c18.4,9.8,18.7,28.9,11.6,41.7c-2.2,3.9-4.3,7.8-6.7,12.2  c5.3,0,10.1,0,14.8,0c6.2,0,12.5,0.1,18.7,0c7.5-0.1,13.1,3.3,16.9,9.5c1.2,1.9,2.4,2.4,4.4,2.4c17.1,0,34.2,0,51.3,0  c7,0,8.9,2,8.9,9c0,9.4,0,18.8,0,28.3c0.5,0,0.9,0.1,1.1-0.1c10.1-7.8,17.6-17.3,19.7-30.3c0.8-5.2,3-6.9,8.2-6.9  c12.6,0,25.2,0.1,37.8,0c18.3-0.1,30.4-12.2,30.4-30.5C355,179.5,355,138.7,355,98z M133.6,132.9c0,4.4-1.9,6.6-5.5,6.7  c-3.6,0.1-5.7-2.4-5.7-6.8c0-4.2,0-8.5,0-13c-4.7,0-9,0-13.7,0c0,3.4,0,6.6,0,9.8c0,1.7,0.1,3.5-0.1,5.2c-0.3,2.9-2.1,4.5-5,4.8  c-2.8,0.2-4.9-1-5.7-3.8c-0.3-1.2-0.4-2.6-0.4-3.9c0-11.5,0-23,0-34.5c0-1.1,0-2.2,0.2-3.3c0.6-2.9,3.2-4.8,6-4.4  c3,0.4,4.8,2.2,4.9,5.2c0.1,4.3,0,8.7,0,13.3c4.7,0,9,0,13.8,0c0-3.9,0-7.8,0-11.7c0-4.4,2.2-6.9,5.8-6.8c3.5,0.1,5.4,2.5,5.4,6.8  C133.6,108.6,133.6,120.8,133.6,132.9z M307,95.8c0-3.8,2.1-5.9,5.9-6c4.4-0.1,8.8-0.1,13.1,0c3.6,0.1,6,2.5,5.9,5.7  c-0.1,3.3-2.4,5.3-6.1,5.4c-2.3,0.1-4.6,0.1-6.9,0.1c-0.1,0-0.2,0.1-0.6,0.3c0,2.5,0,5,0,7.8c2.5,0,4.7-0.1,7,0  c3.2,0.2,5.2,2.2,5.4,5.1c0.2,3-1.7,5.4-5,5.8c-2.4,0.3-4.8,0-7.3,0c0,2.9,0,5.4,0,8.2c2.5,0,5-0.1,7.5,0c3.7,0.1,6,2.3,6.1,5.5  c0,3.2-2.3,5.6-6,5.6c-4.4,0.1-8.8,0.1-13.1,0c-3.7-0.1-5.8-2.2-5.8-6C306.9,120.9,306.9,108.3,307,95.8z M190.6,124.5  c2.3-2.3,5.3-2.3,8.2,0.3c3,2.7,6.5,4.4,10.5,3.5c1.8-0.4,3.3-2.4,4.9-3.6c-1.2-1.3-2.1-3.1-3.5-3.9c-3.6-1.8-7.5-3.1-11.2-4.7  c-9.8-4.3-11.2-16.8-2.7-23.2c7-5.3,19.8-4.1,25.8,2.4c1.9,2.1,2.1,5,0.3,7.2c-1.7,2.2-4.5,2.8-7.1,1.4c-1.5-0.8-3-1.9-4.6-2.4  c-1.7-0.5-3.7-0.8-5.4-0.5c-1.2,0.2-2.2,1.7-3.3,2.6c0.9,0.9,1.6,2.1,2.7,2.7c2.7,1.3,5.6,2.3,8.5,3.5c8.7,3.6,12.9,9.7,11.5,16.9  c-1.6,8-8.4,13-19.1,12.9c-4.9-0.2-10.4-2.2-14.9-6.7C188.3,130,188.2,126.9,190.6,124.5z M173.8,137.5c-0.4-0.5-0.8-1.1-0.9-1.7  c-0.7-5.4-4.3-6.3-8.9-5.6c-0.9,0.1-1.8,0.1-2.6,0c-4.5-0.6-7.6,0.4-8.7,5.5c-0.8,3.5-4.3,4.8-7.3,3.6c-3-1.2-4.2-4.2-2.9-7.7  c4.7-12.5,9.4-24.9,14.2-37.4c1.1-2.8,3-4.6,6.1-4.6c3.1,0,5.2,1.6,6.2,4.4c4.7,12.5,9.4,24.9,14.1,37.4c0.3,0.8,0.4,1.7,0.6,2.5  c0.2,0.2,0.4,0.5,0.6,0.7c-1.4,1.6-2.6,3.6-4.4,4.5C177.8,140.4,175.5,139.5,173.8,137.5z M200.7,170.3c-4.3,0.2-8.5,0-13.2,0  c0,4.9,0,9.5,0,14.6c3.6,0,7.3-0.1,10.9,0c3.7,0.1,5.8,2,6,5.1c0.2,3.4-1.9,5.8-5.5,6c-3.7,0.1-7.4,0-11.7,0c0,1.3,0,2.5,0,3.6  c0,5.8,0.1,11.6,0,17.4c-0.1,3.6-2.6,5.9-5.8,5.8c-3.1-0.1-5.3-2.4-5.3-5.9c-0.1-17.3-0.1-34.6,0-51.9c0-3.8,2.1-5.9,5.9-5.9  c6.1-0.1,12.3-0.1,18.4,0c3.5,0.1,5.7,2.3,5.8,5.4C206.4,167.8,204.2,170.2,200.7,170.3z M252.8,220.1c-1.5,2.3-3.9,3-6.3,2.1  c-1.3-0.5-2.6-1.6-3.6-2.7c-5-5.5-9.8-11.1-15.4-17.5c0,5.4,0.1,9.9,0,14.5c-0.1,3.6-1.8,5.7-4.8,6c-3.8,0.5-6.3-1.9-6.3-6.1  c-0.1-8.3,0-16.6,0-25c0-8.8,0-17.5,0-26.3c0-4.7,1.9-6.7,6.6-6.6c5.1,0,10.4-0.3,15.4,0.6c9.1,1.6,15,8.9,15.4,17.9  c0.5,8.4-4.7,15.8-13.1,18.9c-0.8,0.3-1.6,0.6-2.7,1c4.9,5.5,9.6,10.8,14.2,16.2C254,215.3,254.4,217.7,252.8,220.1z M256.8,138.5  c-2.3,0.7-4.7,1-6,1.2c-7.6-0.3-13.3-2.4-17.8-7.2c-2.3-2.5-2.4-5.7-0.2-7.9c2.2-2.2,5.4-2.4,7.9,0c3,2.8,6.4,4.5,10.4,3.8  c1.9-0.3,4.3-1.8,5-3.4c1.1-2.4-1.6-3.5-3.5-4.3c-3.5-1.6-7.1-2.8-10.6-4.3c-5.7-2.4-8.7-6.8-8.6-12.3c0.1-5.8,3.7-11,9.3-13.1  c7.9-2.9,15.1-0.9,21.6,4c2.4,1.8,2.7,5,1.1,7.4c-1.7,2.5-4.7,3.1-7.6,1.6c-1.8-1-3.6-2.3-5.6-2.6c-1.9-0.4-4.1,0-6,0.4  c-0.7,0.1-1.5,1.5-1.5,2.2c0,0.7,0.9,1.7,1.7,2c4.3,1.9,8.8,3.4,12.9,5.6c5.5,2.9,8.9,7.6,8.1,14.1  C266.8,132.2,263,136.4,256.8,138.5z M286,186.2c4,0,6.4,2.1,6.4,5.4c0.1,3.3-2.3,5.6-6.3,5.7c-3.4,0.1-6.7,0-10.3,0  c0,5.1,0,9.8,0,15.1c3.9,0,7.7,0,11.5,0c4.4,0,6.6,1.9,6.7,5.5c0,3.6-2.2,5.6-6.5,5.7c-5.5,0.1-11,0.1-16.4,0  c-4.3-0.1-6.5-2.2-6.5-6.5c-0.1-16.9-0.1-33.7,0-50.6c0-4.6,2.1-6.5,6.7-6.6c5.6,0,11.2-0.1,16.8,0c3.8,0,6,2.1,6,5.5  c0,3.4-2.1,5.5-5.9,5.7c-4,0.1-8,0-12.3,0c0,5.1,0,9.9,0,15.1C279.3,186.2,282.6,186.1,286,186.2z M293.8,139.6c-4,0-8.1,0-12.1,0  c-4.3-0.1-6.2-2-6.3-6.2c0-12.5,0-24.9,0-37.4c0-4,2.2-6.3,5.5-6.3c3.3,0,5.5,2.5,5.6,6.4c0.1,9.5,0,19,0,28.6c0,1.2,0,2.4,0,3.9  c2.7,0,4.9,0,7.1,0c3.9,0.1,6.3,2.2,6.4,5.5C300,137.4,297.7,139.6,293.8,139.6z M327.9,223.6c-5.7,0.1-11.4,0.1-17.1,0  c-4.3-0.1-6.4-2.2-6.4-6.6c0-16.9,0-33.7,0-50.6c0-4.5,2-6.5,6.3-6.5c5.8-0.1,11.6-0.1,17.4,0c3.8,0,6.1,2,6.2,5.3  c0.1,3.4-2.2,5.7-6.1,5.8c-4,0.1-8.1,0-12.5,0c0,5.1,0,9.9,0,15.1c3.6,0,7.2,0,10.8,0c3.9,0.1,6.1,1.9,6.2,5.3  c0.1,3.5-2.1,5.7-6.1,5.8c-3.6,0.1-7.2,0-10.9,0c0,5.1,0,9.9,0,15.1c4.1,0,8.1,0,12.1,0c4.1,0,6.4,2,6.5,5.3  C334.5,221.2,332,223.5,327.9,223.6z"></path></g></svg>