<svg xmlns="http://www.w3.org/2000/svg" xmlns:xlink="http://www.w3.org/1999/xlink" id="Layer_1" x="0px" y="0px" viewBox="0 0 400 400" style="enable-background:new 0 0 400 400;" xml:space="preserve"><style type="text/css">	.st0{fill:#322B6A;}	.st1{fill-rule:evenodd;clip-rule:evenodd;fill:#322B6A;}</style><g>	<path class="st0" d="M143.3,141.4c39,0,77,0,114.9,0c0.1-0.4,0.2-0.7,0.2-0.9c0-9.1,0-18.2,0-27.2c0-2.1,0.1-4.3-0.2-6.3  c-1.8-10.4-12.9-16.3-22.7-11.6c-12,5.7-23.8,11.8-35.7,17.7C181.4,122.3,162.8,131.6,143.3,141.4z"></path>	<path class="st0" d="M117.8,141.5c0.9,0,1.9-0.4,2.8-0.9C149.8,126,179,111.4,208.2,97c1.8-0.9,2.2-1.9,2.2-3.8  c0-6.5,0-13.1,0-19.6c0-7.3-3.1-12.7-9.8-15.7c-6.4-2.9-12.2-1.2-17.4,3.4c-24.6,21.6-49.2,43.2-73.9,64.8  c-5.6,4.9-11.2,10-17.7,15.5C101,141.5,109.4,141.6,117.8,141.5z"></path>	<path class="st0" d="M290.2,237.3c-5.7,0-10.5,4.7-10.5,10.5c0,5.7,4.8,10.5,10.5,10.7c5.9,0.1,10.8-4.8,10.6-10.7  C300.9,242,295.9,237.3,290.2,237.3z"></path>	<path class="st0" d="M337.7,221.4c-21,0-41.8,0-62.8,0c-8.4,0-12.9,3.2-14.8,11.4c-2.4,10.1-2.4,20.2,0,30.3  c1.9,8.2,6.3,11.4,14.7,11.4c10.2,0,20.5,0,30.8,0c10.6,0,21.2,0,31.9,0c9.8-0.1,16.5-6.8,16.6-16.5c0.1-6.8,0.1-13.6,0.2-20.2  C354.2,228.1,347.5,221.4,337.7,221.4z M290.2,269.2c-11.8-0.1-21.2-9.8-21.1-21.5c0.1-11.6,9.8-21,21.3-21  c11.7,0,21.2,9.6,21.3,21.4C311.6,259.8,302,269.3,290.2,269.2z"></path>	<path class="st0" d="M327.2,285c-1.5,0-2.6,0-3.8,0c-16.4,0-32.7,0.1-49.1,0c-12.3-0.1-20.4-5.7-24-17.6  c-3.9-13.2-3.9-26.7,0.2-39.9c3.5-11.2,11.7-16.8,23.4-16.9c5.8,0,11.8,0,17.6,0c11.8,0,23.7,0,35.7,0c0.1-0.7,0.2-1,0.2-1.4  c0-10.2,0.1-20.4,0-30.6c-0.1-14.9-11.8-26.5-26.7-26.5c-76,0-152.2,0-228.2,0c-15.1,0-26.8,11.6-26.8,26.7c-0.1,46-0.1,92,0,137.9  c0,15.1,11.7,26.8,26.8,26.8c76,0.1,152.2,0.1,228.2,0c15.1,0,26.7-11.7,26.8-26.8c0.1-9.8,0-19.4-0.1-29.3  C327.4,286.7,327.3,285.9,327.2,285z M223.8,258.9c-6.8,7.2-14,14.2-21.1,21.2c-2.5,2.4-6.3,2.2-8.6-0.2c-2.5-2.5-2.4-6.2,0.1-8.8  c6.6-6.6,13.1-13.1,19.7-19.7c0.9-0.9,1.7-1.9,0.7-3c-0.4-0.6-1.5-0.9-2.2-0.9c-5.8,0-11.7,0-17.5,0c-5.1,0-7.3-2.4-7.3-7.4  c0-19.2,0-38.3,0-57.5c0-0.6,0-1.2,0-1.9c-25.7,0-51.2,0-77,0c0,0.6,0,1.2,0,1.8c0,19.3,0,38.6,0,57.9c0,4.8-2.3,7.2-7.2,7.2  c-6.4,0-12.7,0-19.1,0c-1.2,0-2.2,0.1-2.7,1.4c-0.4,1.2,0.2,1.9,1,2.7c20.5,20.2,40.9,40.5,61.3,60.7c3,3,6.6,2.9,9.6-0.1  c6.5-6.4,12.9-12.9,19.3-19.3c1.8-1.8,4-2.5,6.5-1.6c2.5,0.9,3.8,2.7,4.1,5.2c0.2,2.1-0.7,3.9-2.2,5.5  c-5.5,5.6-11.1,11.1-16.6,16.7c-0.9,0.9-1.9,1.9-2.9,2.9c-2.7,2.7-6.1,4.4-9.9,5c-0.2,0-0.4,0.1-0.7,0.2c-1.5,0-3,0-4.6,0  c-0.2-0.1-0.3-0.2-0.4-0.2c-4.4-0.7-8.1-2.8-11.2-5.9c-19.6-19.4-39.1-38.8-58.8-58.2c-3.1-3.1-6.1-6.4-6.9-11c0-1.4,0-2.7,0-4  c0.1-0.3,0.2-0.7,0.3-1c1.5-5.6,4.9-9.4,10.7-10.9c2-0.4,4.1-0.4,6.3-0.4c3.9,0,7.8,0,11.9,0c0-0.8,0-1.5,0-2  c0-19.1,0.1-38.2,0-57.4c0-3.7,1.5-6.3,5.1-7.5c30.7,0,61.3,0,91.9,0c3.7,1.2,5.1,3.8,5.1,7.6c0,19.2,0,38.2,0,57.4  c0,0.6,0,1.2,0,2c0.7,0,1.4,0,2,0c4.5,0.1,9.1-0.2,13.6,0.3c5.5,0.7,9.2,4.1,10.5,9.3C228.4,249.9,227.6,254.9,223.8,258.9z   M154.9,271c-0.1,3.6-2.8,6.2-6.3,6.2c-3.4,0-5.9-2.7-6.1-6.2c0-1,0-2.1,0-3.1c-1.9-0.6-3.7-0.9-5.5-1.6c-5.6-2.2-9.3-7.7-9.3-13.8  c0-3.4,2.6-6.1,5.9-6.3c3.1-0.1,6.1,2.4,6.4,5.7c0.3,2.5,1.1,3.2,3.6,3.2c2.7,0,5.5,0,8.2,0c3.8-0.1,5.6-1.8,5.6-5.6  c0-0.8,0-1.7,0-2.6c0-3-2-5.1-5.1-5.2c-2.8-0.1-5.6,0.1-8.3-0.3c-8.1-1.1-14.1-8-14.7-16.1c-0.3-5.8,0.7-11.2,4.9-15.6  c2.2-2.4,5.1-3.8,8.3-4.7c0-1.4,0-2.8,0-4.1c0-3.5,2.7-6.2,6.2-6.2s6.1,2.7,6.2,6.3c0,1.4,0,2.6,0,3.9c3.6,0.8,6.5,2.4,8.9,4.9  c2.6,2.8,3.9,6.2,3.9,10c0,3.2-2.6,5.9-5.7,6.2c-3.4,0.2-6.3-2.2-6.6-5.6c-0.3-2.5-1.2-3.4-3.8-3.4c-1.7,0-3.2-0.1-4.9,0  c-2.9,0.1-4.8,2-4.9,4.9c0,0.8,0,1.6,0,2.4c0.1,3,2.2,5.1,5.3,5.2c3.4,0.1,6.7,0,9.9,0.7c7.4,1.6,12.8,8.5,12.9,16.1  c0,3,0,6.3-0.8,9.2c-2,6.8-6.9,10.7-14.1,11.9C154.9,268.6,154.9,269.8,154.9,271z"></path></g></svg>