<svg xmlns="http://www.w3.org/2000/svg" xmlns:xlink="http://www.w3.org/1999/xlink" id="Layer_1" x="0px" y="0px" viewBox="0 0 400 400" style="enable-background:new 0 0 400 400;" xml:space="preserve">
  <style type="text/css">
    .st0{fill:#322B6A;}
    .st1{fill-rule:evenodd;clip-rule:evenodd;fill:#322B6A;}
  </style>
  <g>
    <path class="st0" d="M311.4,116.1c-2.8-2-18.6-12.1-31.7-13.8c-5.2-0.7-10.3-1.2-15.5-1.7c-3.9-0.4-7.7-0.7-12.1-1.1  
      c-0.1-3.9,0.2-7.7-0.3-11.4c-0.9-8.1-9.8-12.5-16.7-8.4c-1.5,0.9-2.9,2.3-4.1,3.6c-12.6,13.9-25.2,27.7-37.7,41.6  
      c-0.7,0.8-1.4,1.6-2,2.4c-5.4,7.2-4.6,16.6,2,22.6c14.7,13.4,29.4,26.7,44.1,40c3.7,3.3,7.9,4,12.4,2c4.6-2,6.9-5.7,6.7-10.8  
      c-0.1-3-0.2-6.1-0.5-9.1c-0.2-2,0.6-3.2,2.2-4.3c32.1-21.9,76.2-4.4,84.6,33.5c0.9,4.3,2,5,6.3,4.5c0.6-0.7,1.2-1.3,1.8-1.9  
      c0.1-0.7,0.1-1.4,0.2-2.1C353.6,165.8,340.4,137.2,311.4,116.1z"></path>
    <path class="st0" d="M323.7,276.5c-17.6-13.2-36-25.1-55.6-35c-11.9-6.1-13.9-5.5-22.9,4.5c-5.2,5.8-10.6,11.4-15.8,17.1  
      c-1.3,1.5-2.6,1.6-4.5,1.1c-19.5-5.8-36.6-16-51.8-29.3c-22.2-19.4-37.6-43.2-45.6-71.7c-0.6-2.1-0.4-3.6,1.4-5  
      c6.2-5.2,12.3-10.5,18.5-15.7c9.3-8,9.9-9.9,4.9-21c-9.3-20.6-21-39.9-33.7-58.6c-1.2-1.8-2.8-3.5-4.5-5c-3.6-3.2-6.3-3.5-10.4-0.9  
      c-2.1,1.3-4.1,2.8-5.9,4.4c-17.1,15.1-31.6,32.5-45,50.9c-3.9,5.4-4.6,10.8-3.6,17.1c3.1,19.3,9.6,37.5,18.4,54.8  
      c20.2,39.9,48.2,73.6,81.9,102.7c24.4,21,50.9,38.6,81.2,49.8c10.4,3.9,21.1,6.8,33.3,8.1c1.4-0.6,3.9-1.4,6-2.7  
      c20.4-12.6,39-27.4,55.6-44.8C334.1,288.3,333.8,284,323.7,276.5z"></path>
  </g>
</svg>
