<svg xmlns="http://www.w3.org/2000/svg" xmlns:xlink="http://www.w3.org/1999/xlink" id="Layer_1" x="0px" y="0px" viewBox="0 0 400 400" style="enable-background:new 0 0 400 400;" xml:space="preserve"><style type="text/css">	.st0{fill:#322B6A;}	.st1{fill-rule:evenodd;clip-rule:evenodd;fill:#322B6A;}</style><g>	<path class="st0" d="M343.5,283.6c-5.7-9.2-13.7-15.5-24-18.7c-14.6-4.5-28-1.5-39.4,6.9c-3.3-3.2-6.2-6.1-9.2-9  c3.6,0,7.4,0,11.2,0c0-3.3,0-6.3,0-9.4c-9.7,0-19.2,0-28.7,0c0,9.7,0,19.1,0,28.6c3.2,0,6.3,0,9.6,0c0-4,0-7.7,0-11.8  c3.1,3.3,6,6.3,9,9.5c-14.9,19.9-10.4,45,5.5,59.2c15.9,14.3,40.3,14.8,56.8,1C351,325.9,354.9,302,343.5,283.6z M306,282.7  c5.2,0,9.6,4.4,9.6,9.6c0,5.2-4.3,9.6-9.6,9.7c-5.4,0.1-9.8-4.4-9.8-9.8C296.3,287,300.7,282.7,306,282.7z M322.3,326.9  c-5.2,2.7-10.6,4.2-16.5,4.2c-5.7-0.1-11.1-1.5-16.2-4.2c-1.6-0.9-2.1-1.6-1.3-3.5c3-6.9,10.1-11.6,17.6-11.6  c7.5,0,14.6,4.8,17.6,11.6C324.3,325.2,324,326,322.3,326.9z"></path>	<path class="st0" d="M118,263c4,0,7.8,0,12.2,0c-2.8,2.8-5.2,5.1-7.5,7.4c-0.6,0.6-1.3,1.2-1.9,1.8c-22.9-16.8-49.2-8.7-61.7,7.6  c-13.3,17.4-11.9,41.6,3.5,57.1c15.5,15.7,39.8,17.3,57.3,4.1c16.1-12.1,25-38.4,8.4-61.1c3.1-3.1,6-6,8.9-8.9c0,3.3,0,7.1,0,10.9  c3.3,0,6.3,0,9.4,0c0-9.7,0-19.1,0-28.6c-9.7,0-19.2,0-28.7,0C118,256.6,118,259.7,118,263z M92.2,282.7c5.3,0,9.6,4.4,9.6,9.6  c0,5.2-4.3,9.6-9.6,9.7c-5.4,0.1-9.8-4.4-9.8-9.8C82.6,287,86.9,282.7,92.2,282.7z M108.5,326.9c-5.2,2.7-10.6,4.2-16.5,4.2  c-5.7-0.1-11.1-1.5-16.2-4.2c-1.6-0.9-2.1-1.6-1.3-3.5c3-6.9,10.1-11.6,17.6-11.6c7.5,0,14.6,4.8,17.6,11.6  C110.5,325.2,110.2,326,108.5,326.9z"></path>	<path class="st0" d="M120.1,128.2c3.1,3,6.1,6,9.1,8.9c-3.6,0-7.4,0-11.3,0c0,3.3,0,6.3,0,9.3c9.7,0,19.2,0,28.7,0  c0-9.7,0-19.1,0-28.6c-3.2,0-6.3,0-9.6,0c0,4,0,7.7,0,11.8c-3.1-3.3-6-6.3-9-9.5c15.2-20.4,10.2-45.9-6.4-60  c-16.7-14.2-41.8-13.6-57.7,1.4c-16.5,15.5-18.5,40.2-5,58.2C71.6,136.8,98,144.5,120.1,128.2z M92.2,68.4c5.3,0,9.6,4.4,9.6,9.6  c0,5.2-4.3,9.6-9.6,9.7c-5.4,0.1-9.8-4.4-9.8-9.8C82.6,72.7,86.9,68.4,92.2,68.4z M74.5,109.1c3-6.9,10.1-11.6,17.6-11.6  c7.5,0,14.6,4.8,17.6,11.6c0.8,1.8,0.4,2.6-1.3,3.5c-5.2,2.7-10.6,4.2-16.5,4.2c-5.7-0.1-11.1-1.5-16.2-4.2  C74.3,111.8,73.7,111,74.5,109.1z"></path>	<path class="st0" d="M282,136.9c-4,0-7.8,0-11.3,0c3-3,5.9-6,8.8-9c21.7,16,47.5,9.3,60.6-6.9c13.8-17,12.9-41.5-2-57.2  C323,47.8,298.7,45.4,281,58.3c-8.7,6.4-14.5,14.8-16.9,25.3c-3.2,13.6,0,25.9,7.9,36.6c-3,3.2-5.9,6.2-9.1,9.6c0-4.2,0-8.1,0-11.9  c-3.4,0-6.5,0-9.6,0c0,9.6,0,19,0,28.6c9.8,0,19.3,0,28.7,0C282,143.3,282,140.2,282,136.9z M306,68.4c5.2,0,9.6,4.4,9.6,9.6  c0,5.2-4.3,9.6-9.6,9.7c-5.4,0.1-9.8-4.4-9.8-9.8C296.3,72.7,300.7,68.4,306,68.4z M288.3,109.1c3-6.9,10.1-11.6,17.6-11.6  c7.5,0,14.6,4.8,17.6,11.6c0.8,1.8,0.4,2.6-1.3,3.5c-5.2,2.7-10.6,4.2-16.5,4.2c-5.7-0.1-11.1-1.5-16.2-4.2  C288,111.8,287.5,111,288.3,109.1z"></path>	<path class="st0" d="M86.8,191.8c-4.2-8.9-14.3-13.2-23.5-10.1c-9.4,3.2-14.9,12.8-12.7,22.5c1.8,8.2,8.8,14.4,17.1,15.1  c8.3,0.7,16.1-3.9,19.3-11.7c0.9-2.3,2.1-3,4.4-2.8c2.3,0.2,4.6,0,6.8,0c0-3.4,0-6.5,0-9.7c-3.4,0-6.6,0-10,0  C87.6,193.8,87.3,192.8,86.8,191.8z M69.3,209.7c-5.4,0-9.8-4.6-9.6-9.9c0.1-5.2,4.6-9.5,9.9-9.4c5.2,0.1,9.5,4.5,9.5,9.8  C79,205.4,74.6,209.7,69.3,209.7z"></path>	<path class="st0" d="M192.3,86.9c2.5,1,3.1,2.3,2.9,4.7c-0.2,2.2,0,4.4,0,6.7c3.3,0,6.3,0,9.7,0c0-2.5,0.2-4.8,0-7.1  c-0.2-2.3,0.6-3.3,2.7-4.1c8.4-3.4,13.2-12.4,11.5-21c-1.9-9.4-9.6-15.9-18.9-16c-9.2,0-17.1,6.3-19,15.5  C179.2,74.4,183.7,83.4,192.3,86.9z M200.1,59.7c5.2,0.1,9.6,4.4,9.6,9.7c0,5.2-4.4,9.6-9.6,9.6c-5.4,0-9.8-4.5-9.7-9.8  C190.4,63.9,194.8,59.7,200.1,59.7z"></path>	<path class="st0" d="M207.1,312.8c-1.9-0.7-2.4-1.6-2.3-3.5c0.2-2.5,0-5,0-7.6c-3.3,0-6.3,0-9.7,0c0,2.8-0.1,5.3,0,7.8  c0.1,1.8-0.6,2.5-2.2,3.2c-7.4,3.1-11.7,8.7-12.2,16.8c-0.6,10.1,6.5,18.6,16.5,20.2c9.2,1.5,18.8-4.7,21.4-13.9  C221.3,326.3,216.5,316.5,207.1,312.8z M199.7,340.3c-5.2-0.2-9.5-4.7-9.3-9.9c0.1-5.2,4.6-9.5,9.8-9.4c5.2,0.1,9.5,4.5,9.5,9.8  C209.6,336.1,205,340.4,199.7,340.3z"></path>	<path class="st0" d="M334.3,181c-8.8-1.8-17.8,2.9-21.3,11.5c-0.9,2.2-1.9,2.9-4.2,2.7c-2.3-0.2-4.7,0-7.2,0c0,3.4,0,6.3,0,9.7  c2.4,0,4.6,0.1,6.8,0c2.4-0.2,3.6,0.4,4.6,2.9c3.5,8.5,12.5,13.1,21.4,11.2c9.1-2,15.5-9.8,15.4-19  C349.9,190.7,343.5,182.9,334.3,181z M330.7,209.7c-5.4,0-9.8-4.5-9.7-9.8c0.1-5.3,4.5-9.5,9.7-9.5c5.2,0,9.6,4.4,9.6,9.7  C340.3,205.2,335.9,209.6,330.7,209.7z"></path>	<path class="st0" d="M291.7,204.7c0-3.4,0-6.5,0-9.7c-6.6,0-12.9,0-19.3,0c-1.6-18.1-8.5-33.6-21.3-46.4  c-12.7-12.7-28.3-19.5-46.4-21.1c0-6.7,0-13,0-19.3c-3.3,0-6.4,0-9.6,0c0,6.5,0,12.7,0,18.9c-39.5,6.2-62,28.7-68,68.1  c-6.2,0-12.5,0-18.9,0c0,3.3,0,6.4,0,9.6c3.3,0,6.4,0,9.5,0c3.2,0,6.4,0,9.4,0c6.1,39.4,28.6,61.9,68.1,68c0,6.2,0,12.6,0,18.9  c3.3,0,6.3,0,9.5,0c0-6.5,0-12.8,0-18.9c39.4-6,61.9-28.5,68-68C279,204.7,285.4,204.7,291.7,204.7z M243.5,211.7  c0,0.6-0.8,1.5-1.5,1.8c-1.4,0.7-3,1.2-4.4,1.7c-0.1,0.3-0.2,0.6-0.1,0.7c3.3,4.4,1.3,7.3-2.2,10.4c-4.7,4.2-9,8.9-13.6,13.6  c-2.1-0.9-4.1-1.8-6-2.6c-0.3,0.3-0.5,0.4-0.5,0.5c-0.7,5.4-4.1,6-8.7,5.7c-5.4-0.4-10.9-0.3-16.3,0c-2.6,0.1-3.9-0.7-4.4-3.2  c-0.2-1-0.7-1.9-1.1-2.8c-0.4,0-0.7-0.1-0.9,0c-5.5,2.2-5.5,2.2-9.6-1.9c-3.9-3.9-7.7-8-11.8-11.7c-2-1.8-2.5-3.4-1-5.6  c0.5-0.8,0.8-1.8,1.2-2.6c-0.2-0.3-0.3-0.6-0.4-0.6c-5.2-0.7-6.2-3.9-5.8-8.7c0.5-5.5,0.2-11.1,0-16.6c-0.1-2.3,0.5-3.6,2.8-4  c1.1-0.2,2.2-0.9,3.5-1.4c-0.9-2.1-1.8-4-2.7-6.1c5.8-5.8,11.6-11.7,17.5-17.4c0.5-0.4,1.6-0.5,2.3-0.3c1.5,0.5,2.9,1.3,4.7,2.1  c0.8-2.1,1.6-4.1,2.4-6.2c8.6,0,17.2,0,26,0c0.8,1.9,1.6,3.9,2.4,5.9c0.3,0,0.6,0.1,0.7,0c4.2-3.2,7.1-1.5,10.2,2.1  c3.6,4.2,7.7,8,11.7,11.8c1.7,1.6,2.1,2.9,0.8,4.8c-0.6,1-1,2.2-1.5,3.4c2.1,0.8,4.1,1.6,6.2,2.5  C243.5,195.2,243.6,203.5,243.5,211.7z"></path>	<path class="st0" d="M233.9,196c0.2-1.9-0.6-2.8-2.3-3.2c-2.5-0.5-4.1-1.8-5.1-4.4c-1-2.4,0.4-4,0.9-6c0.3-1,0.4-2.4-0.1-3.1  c-2.3-2.8-4.9-5.3-7.4-7.9c-1.6,0.7-2.8,1.3-4,1.8c-3,1.4-7.2,0.1-7.9-3c-1-4-3.3-4.7-6.7-4.2c-1,0.1-2,0.2-3,0  c-3.5-0.6-5.3,0.8-6.1,4.2c-0.6,2.5-5,4.7-7,3.3c-3.9-2.7-6.3-1.1-8.7,2c-0.5,0.6-1.1,1.2-1.7,1.7c-2.7,1.9-3.3,4-1.4,7  c1.5,2.5,0.1,6.9-2.6,7.5c-4.4,1-5.1,3.7-4.6,7.4c0.1,0.8,0.1,1.6,0,2.4c-0.6,3.4,0.6,5.3,4.1,6.2c2.6,0.6,4.7,5.1,3.3,7.2  c-2.4,3.6-1.2,6,1.8,8.2c0.7,0.5,1.4,1.2,1.9,1.9c2,2.9,4.3,3.2,7.3,1.4c2.3-1.4,6.7,0.1,7.3,2.6c1,4.6,3.9,5.2,7.7,4.7  c1.1-0.1,2.2-0.2,3.3,0c2.6,0.4,3.9-0.6,4.7-3.2c1.2-4.2,5-5.6,8.9-3.7c1,0.5,2,0.9,3.4,1.6c1.7-1.9,3.3-4.1,5.3-5.7  c2.6-2.2,3.4-4.2,1.4-7.3c-1.4-2.3,0-6.7,2.5-7.3c4.8-1,5.2-4.1,4.7-7.9C233.7,198.9,233.7,197.4,233.9,196z M199.9,214.5  c-7.9,0-14.4-6.5-14.4-14.4c0-8,6.6-14.6,14.6-14.6c7.9,0,14.4,6.5,14.4,14.4C214.5,207.9,207.9,214.5,199.9,214.5z"></path></g></svg>