<svg xmlns="http://www.w3.org/2000/svg" xmlns:xlink="http://www.w3.org/1999/xlink" viewBox="0 0 400 400" id="Layer_1" xml:space="preserve" role="img" aria-labelledby="iconTitle iconDesc">
  <title id="iconTitle">Custom Icon</title>
  <desc id="iconDesc">Decorative icon composed of layered shapes filled with color #322B6A.</desc>
  <style type="text/css">
    .st0{fill:#322B6A;}
    .st1{fill-rule:evenodd;clip-rule:evenodd;fill:#322B6A;}
  </style>
  <g>
    <path class="st0" d="M349.9,104.2c0-15.7,0-30.9,0-46c0-5.4-3-8-8.1-8.2c-2.3-0.1-4.8-0.1-7.2-0.1c-62.1-0.1-124.3,0-186.4-0.2
      c-0.6,0-2.4,0.1-4.4,0H85.6c-0.8,0-1.5,0.1-2.2,0.1c-8.2,0.6-16.4,0.1-24.6,0.2c-4.4,0.1-8.5,1.7-8.6,6.8
      c-0.3,15.8-0.1,31.6-0.1,47.5C150.5,104.2,250,104.2,349.9,104.2z M322.8,71.4c3.2,0,5.8,2.6,5.8,5.8s-2.6,5.8-5.8,5.8
      s-5.8-2.6-5.8-5.8S319.6,71.4,322.8,71.4z M287.4,71.4c3.2,0,5.8,2.6,5.8,5.8s-2.6,5.8-5.8,5.8s-5.8-2.6-5.8-5.8
      S284.2,71.4,287.4,71.4z M249.7,71.4c3.2,0,5.8,2.6,5.8,5.8s-2.6,5.8-5.8,5.8s-5.8-2.6-5.8-5.8S246.6,71.4,249.7,71.4z M86.1,71
      c29.1,0,58.3-0.1,87.4,0.1c3.1,0.1,7,1.2,8.9,3.3c3.4,4.1-0.6,8.9-7.6,9c-14.9,0.1-29.9,0-44.8,0c-14.6,0-29.3,0.1-44,0
      c-4.4,0-9.4,0-9.3-6.3C76.7,70.9,81.6,71.1,86.1,71z"></path>
    <path class="st0" d="M349.9,117c-100.3,0-199.5,0-299.9,0c0,3,0,5.4,0,7.7c0,71.2,0,142.2,0,213.2c0,11,1.4,12.4,12.6,12.4
      c91.6,0,183.1,0,274.7,0c11.2,0,12.7-1.5,12.7-12.4c0-71.2,0-142.2,0-213.2C350,122.2,350,119.8,349.9,117z M151,182.7
      c-22.1,0-44.2,0-66.3,0c-4.3,0-8.3-1.1-8.2-5.9c0.2-5.1,4.2-6.3,8.9-6.2c11,0.1,22,0,33.1,0c10.8,0,21.7-0.4,32.4,0.2
      c2.9,0.2,7.5,3.4,8,5.9C159.7,181.4,155.2,182.7,151,182.7z M83.8,135.7c22.6,0.1,45.1-0.1,67.7,0.3c2.7,0,6.9,3.2,7.3,5.5
      c0.8,4.1-2.8,5.9-7.1,5.9c-11.3-0.1-22.6,0-33.9,0c-11.3,0-22.6-0.1-33.9,0c-4.1,0-7.3-1.3-7.5-5.8
      C76.4,137.1,79.5,135.7,83.8,135.7z M151.7,323.8c-11.6-0.1-23.1,0-34.6,0c-11.1,0-22.1-0.1-33.2,0c-4.2,0-7.4-1.4-7.3-5.9
      c0-4.4,3.2-5.9,7.4-5.9c22.6,0.1,45.1-0.1,67.7,0.3c2.5,0.1,6.8,3.4,7.2,5.6C159.6,322.2,155.9,323.8,151.7,323.8z M151.5,288.7
      c-11.5,0.6-23,0.2-34.5,0.2c-10.8,0-21.6-0.1-32.4,0c-4.5,0-8-1.5-8.1-6.1c-0.1-4.5,3.4-5.9,7.5-5.9c22.6,0.1,45.1-0.1,67.7,0.3
      c2.5,0,5,3.8,7.5,5.8C156.7,285.1,154.1,288.6,151.5,288.7z M76.6,247.1c0-4.4,3.2-5.9,7.4-5.9c22.6,0.1,45.1-0.1,67.7,0.3
      c2.5,0.1,6.8,3.4,7.2,5.6c0.7,4.1-3,5.8-7.2,5.8c-11.6-0.1-23.1,0-34.6,0c-11.1,0-22.1-0.1-33.2,0C79.7,253,76.4,251.6,76.6,247.1z
       M151.5,217.8c-11.5,0.6-23,0.2-34.5,0.2c-10.8,0-21.6-0.1-32.4,0c-4.5,0.1-8-1.4-8.1-6.1c-0.1-4.5,3.4-5.9,7.5-5.9
      c22.6,0.1,45.1-0.1,67.7,0.3c2.5,0,5,3.8,7.5,5.8C156.7,214.2,154.1,217.7,151.5,217.8z M310.6,236.7c-11.4,0.3-22.8,0.7-34.2,1
      c-0.6,0-1.1,0-2,0c0.2,0.9,0.4,1.4,0.7,2.1c7.4,20,14.8,39.9,22.2,60c1.8,4.6,0.3,7.7-4.3,9.3c-9.6,3.2-19.1,6.4-28.8,9.6
      c-4.8,1.5-7.4,0.2-9.2-4.4c-7.4-20.1-14.9-40.2-22.4-60.3c-0.2-0.6-0.4-1.1-0.8-1.9c-0.6,0.3-1,0.6-1.4,0.9
      c-9.3,6.5-18.5,13.2-27.8,19.7c-4,2.9-9.1,1.4-9.8-3.1c-0.3-1.8,0-3.8,0.3-5.5c3.2-18.4,6.5-36.8,9.7-55.2
      c2.9-16.2,5.8-32.4,8.6-48.7c0.8-4.2,1.5-8.5,2.2-12.8c0.4-3.2,1.7-5.8,4.9-7c1,0,2.1,0,3.1,0c1.7,1.2,3.3,2.3,4.8,3.7
      c29.2,27.1,58.3,54.3,87.4,81.6c1.3,1.2,2.5,2.5,2.7,4.5C316.8,233.9,314.4,236.6,310.6,236.7z"></path>
  </g>
</svg>
