<svg xmlns="http://www.w3.org/2000/svg" xmlns:xlink="http://www.w3.org/1999/xlink" id="Layer_1" x="0px" y="0px" viewBox="0 0 400 400" style="enable-background:new 0 0 400 400;" xml:space="preserve"><style type="text/css">	.st0{fill:#322B6A;}	.st1{fill-rule:evenodd;clip-rule:evenodd;fill:#322B6A;}</style><g>	<path class="st0" d="M195.3,276.9c0.6,0.3,0.9,0.6,0.9,1.3c0.1,2.1,1.7,3.7,3.7,3.7c2,0,3.6-1.6,3.6-3.6c0-0.8,0.4-1.1,1-1.4  c4.2-2.1,6.5-5.5,6.4-10.2c0-5.1-2.7-8.5-7.4-10.5c0-0.4,0-0.9,0-1.3c0-4.5,0-8.9,0-13.4c0-2.5-1.5-4.2-3.7-4.2  c-2.2,0-3.7,1.7-3.7,4.2c0,4.6,0,9.2,0,13.8c0,0.8-0.2,1.1-0.9,1.5c-4.3,2-6.5,5.5-6.5,10.1C188.9,271.4,191.1,274.9,195.3,276.9z   M200,263c2,0,3.7,1.7,3.7,3.7c0,2-1.6,3.7-3.7,3.8c-2.1,0-3.8-1.7-3.8-3.8C196.3,264.7,198,263,200,263z"></path>	<path class="st0" d="M75.6,189.8c4,3.1,8.1,6,12.1,9.2c1.3,1,2.4,1,3.4,0.2c0.7-0.6,1.5-1.5,1.6-2.4c0.8-5,1.5-10,2.2-15  c0.1-0.5,0.7-1.4,1.1-1.5c6.8-1,13.7-2.1,20.6-2.7c8.3-0.6,16.5,1,24.7,2.6c0.6,0.1,1.3,1,1.4,1.7c0.8,4.9,1.5,9.8,2.1,14.8  c0.2,1.3,0.6,2.1,2,2.7c3.4,1.3,6.7,2.7,9.9,4.3c1.4,0.7,2.4,0.5,3.7-0.3c9.8-6.2,20.5-9.9,32-11c17.1-1.6,33,2.2,47.6,11.3  c0.6,0.4,1.8,0.5,2.5,0.2c3.5-1.4,7-3.1,10.5-4.5c1.4-0.5,1.8-1.3,2-2.7c0.7-5.4,1.5-10.7,2.3-16.6c6.9-0.8,13.9-2,20.9-2.4  c8.5-0.6,17,0.6,25.3,2.6c0.6,0.1,1.3,0.9,1.3,1.5c0.8,5,1.5,10,2.2,15c0.4,2.7,2.9,3.8,5.1,2.2c4.2-3.1,8.3-6.2,12.5-9.4  c0.5-0.4,0.9-0.9,1-1.5c0.3-1.5,0.5-3,0.5-4.5c-0.5-13.3-0.9-26.6-1.8-39.8c-0.8-10.5-4.6-14.7-14.8-17.4  c-3.9-1.1-7.9-1.5-11.9-2.3c-4.8-1-6.1-5.2-3-8.9c1.2-1.4,2.4-2.9,3.2-4.6c4.8-8.8,4.8-18.2,2.1-27.5c-2.5-8.6-8.3-13-17.2-13.5  c-10.8-0.6-18.1,4.4-20.8,14.4c-0.6,2.2-1,4.5-1.2,6.8c-0.9,9.1,0.7,17.6,7,24.6c1.4,1.6,1.9,3.4,1.2,5.4c-0.8,2.3-2.8,3.2-5,3.5  c-6.5,1-13.1,1.8-19.1,5.2c-0.2-0.5-0.3-0.8-0.4-1.2c-1.4-6.7-5.3-11.2-11.9-13c-4.8-1.3-9.7-2.2-14.6-3.1  c-2.4-0.4-4.5-1.2-5.5-3.6c-0.9-2.5,0-4.4,1.7-6.3c1.3-1.6,2.6-3.3,3.5-5.2c4.2-7.9,4.3-16.3,2.8-24.9  c-2.1-11.6-8.5-17.4-20.2-17.9c-7.1-0.3-13.3,1.7-17.6,7.8c-3,4.3-4.1,9.2-4.6,14.3c-1,9.8,0.7,18.9,7.5,26.5  c1.5,1.7,1.9,3.6,1.2,5.6c-0.8,2.1-2.5,3.2-4.8,3.6c-3.5,0.5-7,1.1-10.4,1.8c-8.6,1.8-15.6,5.6-16.9,15.3c-3.2-1.1-6.1-2.4-9.2-3.1  c-3.7-0.9-7.5-1.3-11.3-2.2c-4.1-0.9-5.5-5-3-8.3c0.9-1.2,2-2.3,2.8-3.6c5.4-8.6,5.7-17.9,3.5-27.4c-3.3-14-18.9-20-30.9-12.1  c-1.5,1-2.8,2.3-3.9,3.7c-3.7,4.7-4.6,10.3-5,16.1c-0.6,8.6,1.4,16.5,7.2,23.1c2.9,3.2,1.4,7.5-2.9,8.4c-3.7,0.8-7.4,1.4-11.1,2.1  c-10.1,2-14.2,6.2-15.7,16.3c-0.8,5.3-1.3,10.6-1.5,15.9c-0.3,9.7-0.3,19.4-0.2,29C74.2,188.1,74.9,189.3,75.6,189.8z"></path>	<path class="st0" d="M358.6,252.6c-5-0.7-10-1.4-14.9-2.1c-1.5-0.2-2.3-0.7-2.8-2.3c-1.2-3.6-2.8-7.1-4.4-10.6  c-0.5-1-0.6-1.7,0.2-2.7c2.9-3.7,5.8-7.6,8.6-11.4c0.4-0.5,0.5-1.7,0.2-2.2c-5.3-7.7-11.9-14.1-19.6-19.4  c-4.3,3.2-8.5,6.3-12.7,9.6c-0.9,0.7-1.5,0.7-2.5,0.2c-2.6-1.3-5.1-2.9-7.9-3.5c-4.4-0.9-5.4-3.4-5.6-7.3c-0.2-3.9-1-7.7-1.6-11.5  c-9.3-1.7-18.3-1.8-27.4-0.3c-1.2,0.2-1.6,0.7-1.7,1.8c-0.6,4.5-1.2,9-1.8,13.5c-0.2,1.4-0.6,2.2-2.2,2.7c-3.9,1.3-7.7,3-11.3,4.5  c4.6,5.7,9,11,13.4,16.5c18.4-7.7,38.3-1.7,49.6,12.5c11.3,14.4,13.1,35,0.6,51.9c-9.8,13.2-29.1,21.8-50.2,13.3  c-4.4,5.4-8.8,10.8-13.4,16.4c3.7,1.5,7.4,3.1,11.3,4.5c1.6,0.5,2.1,1.4,2.3,2.9c0.6,4.5,1.2,9,1.9,13.5c0.1,0.6,0.9,1.4,1.5,1.5  c8.5,1.5,17.1,1.5,25.7,0.1c1.5-0.2,1.9-0.9,2.1-2.1c0.6-4.5,1.2-9,1.8-13.5c0.2-1.2,0.7-1.8,1.9-2.3c3.7-1.4,7.4-2.9,11-4.6  c1.2-0.5,1.9-0.4,2.8,0.3c4.1,3.2,8.3,6.2,12.5,9.4c7.7-5.4,14.3-11.8,19.7-19.5c0.3-0.4,0.1-1.6-0.3-2.2  c-2.7-3.8-5.5-7.6-8.4-11.3c-0.7-0.9-0.8-1.6-0.3-2.6c1.3-2.5,2.9-5,3.4-7.7c0.8-4.3,3.3-5.5,7.2-5.8c3.9-0.2,7.7-1,11.6-1.6  C360.5,271.7,360.5,262.2,358.6,252.6z"></path>	<path class="st0" d="M85.7,293.1c-11-13.7-12.1-34-2.2-49c5.1-7.9,12.1-13.5,21-16.7c10.6-3.8,21.1-3.3,31,0.8  c4.5-5.5,8.9-10.9,13.3-16.4c-2.5-1.1-5.1-2.4-7.8-3.4c-5.4-2-5.4-1.9-6.1-7.6c-0.5-3.8-1.1-7.5-1.6-11.3c-9.6-1.9-19.1-1.9-28.8,0  c-0.7,5-1.4,10.1-2.1,15.1c-0.2,1.4-0.6,2.1-2,2.6c-3.7,1.3-7.2,2.8-10.8,4.5c-1.2,0.5-1.8,0.5-2.8-0.3c-4.1-3.2-8.3-6.3-12.5-9.4  c-7.7,5.3-14.3,11.8-19.6,19.4c-0.3,0.5-0.1,1.6,0.2,2.2c2.7,3.8,5.6,7.6,8.5,11.3c0.8,1,0.8,1.7,0.3,2.8  c-1.6,3.4-3.2,6.9-4.4,10.5c-0.6,1.6-1.4,2.1-2.9,2.3c-4.4,0.6-8.9,1.2-13.3,1.8c-1,0.1-1.7,0.5-1.9,1.8c-1.5,9-1.4,18,0.3,27.3  c5.1,0.7,10.2,1.4,15.3,2.1c1.2,0.2,1.9,0.6,2.3,1.8c1.4,3.8,3,7.5,4.6,11.2c0.5,1.1,0.4,1.7-0.3,2.6c-2.9,3.7-5.6,7.5-8.5,11.2  c-0.7,0.9-0.9,1.7-0.1,2.6c3,3.5,5.8,7.2,9.1,10.4c3.2,3.2,6.8,5.9,10.2,8.8c4.5-3.4,8.6-6.4,12.7-9.5c1-0.8,1.7-0.8,2.8-0.3  c3.5,1.6,7.1,3.2,10.8,4.5c1.4,0.5,1.9,1.2,2,2.6c0.6,4.5,1.2,9,1.8,13.5c0.1,1.1,0.5,1.7,1.8,1.9c8.6,1.4,17.1,1.4,25.7,0  c1.3-0.2,1.7-0.6,1.9-1.8c0.6-4.5,1.2-9,1.8-13.5c0.2-1.4,0.7-2.1,2.2-2.7c3.9-1.3,7.6-3,11.2-4.5c-4.6-5.7-9-11-13.4-16.4  C116.7,313.6,97.1,307.3,85.7,293.1z"></path>	<path class="st0" d="M102.3,255.4c-5.4,7.7-4.6,18.5,1.7,25.2c6.1,6.5,16.6,8.5,23.2,4.3c-2.9-12-2.9-24.1,0-36.2  C118,244.7,107.8,247.5,102.3,255.4z"></path>	<path class="st0" d="M273,285.3c3.5,1.7,7.4,2.2,11.2,1.5c8.1-1.4,13.7-6,16.1-13.9c2.3-7.7,0.7-14.6-5.1-20.3  c-5.8-5.7-12.9-7-20.6-4.7c-1.7,0.5-1.8,1.3-1.5,2.8c1.6,6.9,2.3,13.8,1.6,20.9C274.2,276.1,273.6,280.6,273,285.3z"></path>	<path class="st0" d="M214.3,289.3c-4.8,0-9.5,0-14.3,0c-4.9,0-9.8,0-14.6,0c-2.6,0-4.1,1.5-4.1,4.1c0,4.7,0,9.4,0,14.1  c0,2.6,1.5,4.1,4.1,4.1c9.7,0,19.4,0,29,0c2.6,0,4.1-1.5,4.1-4.2c0-4.6,0-9.3,0-13.9C218.6,290.8,217.2,289.4,214.3,289.3z   M211.1,304.2c-7.4,0-14.7,0-22.2,0c0-2.4,0-4.8,0-7.3c7.4,0,14.8,0,22.2,0C211.1,299.3,211.1,301.7,211.1,304.2z"></path>	<path class="st0" d="M263.6,271c0-2.6,0-5.3,0-7.9c-0.3-2.3-0.5-4.7-1-7c-5.3-25.8-20.6-42.6-45.7-50.3c-3.8-1.2-7.9-1.4-11.9-2.1  c-0.3-0.1-0.6-0.1-1-0.2c-2.6,0-5.3,0-7.9,0c-2.4,0.3-4.7,0.6-7.1,1c-24.8,4.1-45.9,24.2-51,48.8c-4.1,19.9,0,38,12.8,53.8  c9.9,12.3,22.8,19.9,38.4,22.5c21.2,3.5,39.8-2.3,55.4-17.2c10.2-9.8,16.3-21.9,18.4-36C263.1,274.6,263.3,272.8,263.6,271z   M203.8,211c12.6,0.9,23.5,5.5,33,13.6c-2.7,2.7-5.4,5.4-8.1,8.1c-3.4-2.8-7.3-5.2-11.5-7c-4.2-1.8-8.6-2.8-13.3-3.2  C203.8,218.6,203.8,214.9,203.8,211z M196.2,211.1c0,3.7,0,7.5,0,11.3c-4.5,0.5-9,1.5-13.2,3.3c-4.3,1.8-8.1,4.2-11.6,7  c-2.8-2.8-5.4-5.4-8-8C168.8,218.2,186,211,196.2,211.1z M157.7,230.2c2.8,2.8,5.4,5.4,8.1,8.1c-5.9,7.2-9.4,15.4-10.3,24.9  c-3.7,0-7.5,0-11.4,0C144.9,250.6,149.5,239.7,157.7,230.2z M144,270.8c3.9,0,7.6,0,11.4,0c0.9,9.4,4.3,17.8,10.3,24.9  c-2.7,2.7-5.3,5.3-8.1,8.1C149.5,294.4,145,283.4,144,270.8z M163.1,309.1c3.3-3.3,6.5-6.5,9.7-9.7c2.5-2.5,2.6-4.2,0.1-6.8  c-7-7.5-10.4-16.3-10.2-26.5c0.2-17.3,13.2-32.6,30.2-35.7c19.6-3.6,38.3,8.2,43.1,27.4c3.2,12.9,0.1,24.4-8.7,34.4  c-0.2,0.2-0.5,0.5-0.7,0.7c-2,2.2-2,4,0.1,6.2c3,3,6.1,6.1,9.1,9.1c0.3,0.3,0.6,0.6,0.8,0.9C217.2,327.3,184.1,328.1,163.1,309.1z   M242.4,303.6c-2.6-2.6-5.3-5.3-8-8c5.9-7,9.3-15.4,10.2-24.8c3.8,0,7.6,0,11.3,0C256.4,279.8,249.4,296.7,242.4,303.6z   M244.5,263.2c-0.9-9.4-4.3-17.7-10.2-24.8c2.7-2.7,5.3-5.3,8.1-8.1c8,9.3,12.6,20.3,13.6,32.9  C252.1,263.2,248.4,263.2,244.5,263.2z"></path></g></svg>