<svg xmlns="http://www.w3.org/2000/svg" xmlns:xlink="http://www.w3.org/1999/xlink" id="Layer_1" x="0px" y="0px" viewBox="0 0 400 400" style="enable-background:new 0 0 400 400;" xml:space="preserve"><style type="text/css">	.st0{fill:#322B6A;}	.st1{fill-rule:evenodd;clip-rule:evenodd;fill:#322B6A;}</style><g>	<path class="st0" d="M254.3,236c0.8,10.9,1.5,20.9,2.2,31.1c8.6,0,16.9,0,25.7,0C277.7,252.5,266.5,244.2,254.3,236z"></path>	<path class="st0" d="M215.4,111.1c-5.2-5.9-10.2-11.9-15.5-17.6c-2.9-3.1-7.3-2.9-10.4,0.2c-3.2,3.2-6.2,6.6-9.1,10.1  c-2.1,2.5-4,5.2-6.2,8.1c14,0,27.3,0,40.6,0C215,111.7,215.2,111.4,215.4,111.1z"></path>	<path class="st0" d="M107.4,267.2c8.7,0,17,0,25.7,0c0.7-10.4,1.5-20.5,2.2-31.2C123.1,244.4,111.9,252.5,107.4,267.2z"></path>	<path class="st0" d="M165.9,285.2c0.2,2.4-3,4.7,0.9,6.5c13.2,6,26.8,8.4,41.2,5.2c6-1.3,11.7-3.2,17.1-6.4  c-0.5-1.9-0.9-3.5-1.3-5.2C204.3,288.8,185.2,288.8,165.9,285.2z"></path>	<path class="st0" d="M144.6,259.4c-0.3,0.5-0.5,0.6-0.5,0.8c-0.1,1.8-0.1,3.7-0.4,5.5c-0.5,2.5,0.4,3.5,2.9,4.2  c20.5,6.1,41.4,9.5,62.8,6.8c11.7-1.5,23.2-4.6,34.7-7.1c0.8-0.2,2.1-1.2,2.1-1.8c0.1-2.7-0.3-5.5-0.5-8.5  C211.6,269.8,178,269.8,144.6,259.4z"></path>	<path class="st0" d="M62.6,70.7c0.2-0.1,0.5-0.3,0.7-0.4c17.5,17.5,35,35,52.3,52.4c2.5-2.3,4.8-4.5,7.8-7.3  c-17.6-17.6-35.1-35.1-52.9-52.9c4.3,0,8.3,0,12.4,0c0-3.5,0-6.8,0-10c-10.4,0-20.6,0-30.6,0c0,10.4,0,20.4,0,30.6  c3.5,0,6.7,0,10.2,0C62.6,78.7,62.6,74.7,62.6,70.7z"></path>	<path class="st0" d="M344.7,324.5c0,4.3,0,8.3,0,13.2c-18.1-18.1-35.5-35.6-53.1-53.2c-2.4,2.4-4.6,4.7-7.4,7.6  c17.6,17.6,35,35,52.9,52.9c-4.5,0-8.6,0-12.8,0c0,3.6,0,6.8,0,10.1c10.3,0,20.5,0,30.7,0c0-10.4,0-20.5,0-30.6  C351.5,324.5,348.2,324.5,344.7,324.5z"></path>	<path class="st0" d="M138.7,100.1c-9-9-17.9-17.8-27.4-27.3c4.9,0,9,0,13.1,0c0-3.7,0-6.9,0-10.2c-12.6,0-24.9,0-36.7,0  c14.6,14.6,29.4,29.4,43.9,43.9C133.6,104.7,136,102.5,138.7,100.1z"></path>	<path class="st0" d="M268.5,307.6c9,9,17.9,17.9,27.1,27c-4.4,0-8.4,0-12.6,0c0,3.5,0,6.8,0,10.1c12.6,0,25,0,36.7,0  c-14.6-14.6-29.4-29.3-44.1-44C273.7,302.6,271.4,304.8,268.5,307.6z"></path>	<path class="st0" d="M62.8,119.3c3.4,0,6.6,0,10.1,0c0-2.5,0-4.8,0-7.1c0.3-0.2,0.6-0.4,0.9-0.5c8.8,8.9,17.6,17.8,26.1,26.4  c2.6-2.3,5-4.5,6.7-6C91.7,117.1,77,102.4,62.8,88.2C62.8,97.9,62.8,108.6,62.8,119.3z"></path>	<path class="st0" d="M333.3,296.1c-8.8-9-17.5-18-26.1-26.7c-2.4,2.2-4.7,4.4-6.4,6c14.9,14.9,29.6,29.6,43.8,43.8  c0-9.7,0-20.5,0-31.1c-3.5,0-6.7,0-10.1,0c0,2.5,0,4.8,0,7.1C334.1,295.6,333.7,295.8,333.3,296.1z"></path>	<path class="st0" d="M344.6,45c-48.3,0-96.3,0-144.6,0c0,1.2,0,2.2,0,3.3c0,9.8,0.1,19.6-0.1,29.4c0,2.8,0.1,4.9,3.4,5.8  c1.5,0.4,2.8,1.6,3.9,2.7c23,23.3,37,51.1,41.8,83.4c1,6.6,1.4,13.2,2.1,19.9c31.2,0,62.2,0,93.4,0  C344.6,141.2,344.6,93.1,344.6,45z M293.3,65.5c0-3.5,0-6.7,0-10.2c13.6,0,27.2,0,41.1,0c0,6.9,0,13.5,0,20.3c-3.3,0-6.5,0-10.1,0  c0-3.3,0-6.5,0-10.1C313.8,65.5,303.6,65.5,293.3,65.5z M324.4,107c3.3,0,6.5,0,9.9,0c0,3.2,0,6.5,0,10c-3.2,0-6.5,0-9.9,0  C324.4,113.7,324.4,110.5,324.4,107z M334.4,137.7c-3.2,0-6.5,0-10,0c0-3.2,0-6.5,0-9.9c3.3,0,6.5,0,10,0  C334.4,131.1,334.4,134.3,334.4,137.7z M334.5,96.3c-3.3,0-6.6,0-10.1,0c0-3.2,0-6.4,0-9.9c3.3,0,6.5,0,10.1,0  C334.5,89.8,334.5,92.9,334.5,96.3z"></path>	<path class="st0" d="M155.6,297.4c-2.4-1.4-3-2.8-2.1-5.4c1-2.8,1.5-5.7,2.2-8.6c-10.6-3-20.6-6.7-31.6-5.8  c-8.1,0.7-16.4,0.1-24.6,0.1c-0.9,0-1.9-0.1-2.8-0.2c-0.8-8.1,0.5-15,4.1-21.7c6.1-11.4,15.2-20.1,26.1-26.3  c7.5-4.3,10.8-9.4,10.2-17.8c-0.3-3.8,0.4-7.6,0.6-11.5c-31.2,0-61.9,0-92.9,0c0,48.2,0,96.2,0,144.5c48.3,0,96.4,0,144.5,0  c0-12.2,0-24.1,0-36.1c-1.1-0.2-2.1-0.3-3-0.5C175.4,306.7,165.2,303.1,155.6,297.4z M55.4,252c3.3,0,6.5,0,9.9,0c0,3.3,0,6.5,0,10  c-3.4,0-6.5,0-9.9,0C55.4,258.7,55.4,255.4,55.4,252z M55.4,272.7c3.2,0,6.4,0,9.9,0c0,3.2,0,6.4,0,9.9c-3.4,0-6.6,0-9.9,0  C55.4,279.3,55.4,276.2,55.4,272.7z M55.3,293.3c3.3,0,6.5,0,9.9,0c0,3.2,0,6.5,0,10c-3.2,0-6.5,0-9.9,0  C55.3,299.8,55.3,296.6,55.3,293.3z M96.4,334.4c-0.5,0.1-1,0.2-1.4,0.2c-13.1,0-26.3,0-39.6,0c0-6.9,0-13.6,0-20.5  c3.3,0,6.5,0,10,0c0,3.3,0,6.5,0,10c10.4,0,20.6,0,31,0C96.4,327.8,96.4,331,96.4,334.4z"></path>	<path class="st0" d="M147.8,249.7c30.2,9.1,60.4,9.7,90.7,0.9c6.5-1.9,6.4-1.9,5.9-8.6c-1.5-19.7-3-39.3-4.3-59  c-1.4-20.6-6.9-40-16.7-58.2c-1-1.9-2.2-2.5-4.3-2.5c-8.1,0.1-16.2,0-24.2,0c-8.3,0-16.6,0.1-24.9,0c-1.9,0-2.9,0.6-3.8,2.3  c-8.4,15.5-14.2,31.9-15.9,49.5c-2.2,23.8-3.6,47.7-5.4,71.5C144.8,248,145.5,249,147.8,249.7z M188.2,163.9  c0.4-0.1,0.8-0.1,1.4-0.2c0-3.3,0-6.5,0-9.9c3.5,0,6.7,0,10.3,0c0,3.3,0,6.5,0,9.8c10.3,2.1,15.4,7.3,15.4,15.7c-3.2,0-6.4,0-9.9,0  c-0.9-4.5-4.3-5.4-8.4-5c-1.9,0.2-3.9,0-5.8,0c-4.3,0-6.7,1.9-6.7,5.3c0.1,3.2,2.4,5.1,6.5,5.1c2.7,0,5.4,0,8.1,0  c8.9,0.1,15.7,5.9,16.4,14.2c0.7,8.4-5.1,15.4-14,16.8c-0.4,0.1-0.8,0.1-1.4,0.2c0,3.3,0,6.5,0,9.9c-3.5,0-6.7,0-10.3,0  c0-3.3,0-6.5,0-9.8c-10.3-2.2-15.4-7.4-15.4-15.7c3.2,0,6.4,0,9.9,0c0.9,4.5,4.3,5.4,8.4,5c2-0.2,4.1,0,6.1,0c4,0,6.4-2,6.4-5.3  c-0.1-3.1-2.4-5-6.2-5.1c-2.8,0-5.6,0-8.4,0c-8.9-0.1-15.7-6-16.4-14.2C173.5,172.2,179.3,165.3,188.2,163.9z"></path></g></svg>