<svg xmlns="http://www.w3.org/2000/svg" xmlns:xlink="http://www.w3.org/1999/xlink" id="Layer_1" x="0px" y="0px" viewBox="0 0 400 400" style="enable-background:new 0 0 400 400;" xml:space="preserve"><style type="text/css">	.st0{fill:#322B6A;}	.st1{fill-rule:evenodd;clip-rule:evenodd;fill:#322B6A;}</style><g>	<path class="st0" d="M111.8,52.9c-14.5,0-29.1,0-43.6,0c-9.6,0-15.2,5.6-15.2,15.1c0,29.8,0,59.5,0,89.3c0,9.4,5.6,15,15,15  c14.4,0,28.9,0,43.3,0c9.6,0,15.2-5.6,15.2-15.1c0-14.8,0-29.7,0-44.5c0-15,0-30,0-45.1C126.5,58.7,120.8,53,111.8,52.9z   M89.7,66.8c2.4,0,4.6,2,4.6,4.5c0.1,2.4-2,4.6-4.5,4.6c-2.4,0.1-4.6-2-4.6-4.5C85.2,68.9,87.2,66.8,89.7,66.8z M94.6,158.5  c-3.2,0.2-6.5,0.2-9.7,0c-2.6-0.1-4.3-2.1-4.3-4.5c0-2.4,1.7-4.2,4.3-4.6c0.2,0,0.4,0,0.6,0c1.5,0,3.1,0,4.6,0c0,0,0,0,0,0  c1.5,0,3.1-0.1,4.6,0c2.6,0.2,4.3,2.1,4.3,4.5C98.9,156.4,97.2,158.4,94.6,158.5z"></path>	<path class="st0" d="M120.8,278c-6.7,0-13.4,0-20.1,0c-4.7,0-6.3-1.7-6.3-6.4c0-17.6,0-35.2,0-52.8c0-4.7,0-9.3,0-14.6  c0.9,0.8,1.3,1.2,1.7,1.5c1.9,1.4,4,1.5,5.8-0.1c1.7-1.5,2.3-3.4,1.2-5.4c-3.1-5.6-6.2-11.2-9.5-16.7c-1.7-2.8-5.6-2.9-7.3-0.3  c-3.5,5.7-6.8,11.5-9.9,17.4c-1,1.9-0.3,4.1,1.6,5c1.4,0.7,3.4,0.5,5.1,0.3c0.7-0.1,1.3-0.9,2.2-1.7c0,1.4,0,2.4,0,3.5  c0,21.6,0,43.2,0,64.8c0,8.5,5.9,14.4,14.4,14.5c7.1,0.1,14.2,0,21.2,0c3.7,0,5.7-1.7,5.7-4.6C126.5,279.7,124.4,278.1,120.8,278z"></path>	<path class="st0" d="M314.3,184c-2-3.3-6-3.4-8-0.1c-3.2,5.3-6.2,10.7-9.3,16.2c-1.2,2.1-0.7,4.1,1.1,5.7c1.9,1.5,3.9,1.4,5.8,0  c0.4-0.3,0.8-0.7,1.7-1.5c0,1.2,0,1.9,0,2.6c0,21.6,0,43.2,0,64.8c0,4.7-1.7,6.4-6.4,6.4c-6.7,0-13.4,0-20.1,0  c-3.6,0-5.7,1.7-5.7,4.6c0,2.9,2,4.5,5.7,4.6c6.8,0,13.6,0,20.4,0c9.5,0,15.2-5.8,15.2-15.2c0-21.4,0-42.8,0-64.3c0-1,0-2,0-3.5  c0.8,0.7,1.2,1.1,1.6,1.4c1.9,1.5,3.9,1.6,5.8,0.1c2-1.6,2.4-3.7,1.1-5.9C320.4,194.6,317.4,189.2,314.3,184z"></path>	<path class="st0" d="M231.1,226.3c-0.6-0.3-1.1-0.6-1.7-0.9c0,0-0.1,0-0.1-0.1c-2.7-1.4-5.6-2.6-8.6-3.6  c-5.1-1.7-10.5-2.6-15.9-3.9c0-4.2,0-8.6,0-13.3c1.5,1.4,3,2.4,4.8,2.1c0.9,0,1.7-0.4,2.6-1.1c2.1-1.7,2.1-3.9,0.2-7.2  c-2.8-4.8-5.4-9.7-8.3-14.4c-1.1-1.8-2.6-2.6-4.2-2.6c-1.6,0-3.1,0.8-4.2,2.6c-2.9,4.7-5.5,9.6-8.3,14.4c-1.9,3.3-1.8,5.5,0.2,7.2  c0.8,0.7,1.7,1,2.6,1.1c1.7,0.3,3.3-0.7,4.8-2.1c0,4.6,0,9,0,13.3c-5.3,1.3-10.7,2.2-15.9,3.9c-3,1-5.9,2.2-8.6,3.6  c0,0-0.1,0-0.1,0.1c-0.6,0.3-1.1,0.6-1.7,0.9c-7.3,3.9-13.6,9-18.7,15.5c-9.3,11.5-14.5,26-14.6,40.8c-0.2,7.5,1.1,14.8,3.7,21.7  c1.3,3.7,3,7.4,5.2,10.9c0.5,0.8,1,1.5,1.6,2.1c2.4,3.5,5.1,7,8.3,10.3c5.7,6,12.6,10.7,19.9,14c0.2,0.1,0.3,0.2,0.5,0.3  c7.8,3.4,16.1,5.1,24.5,5.2c0.2,0,0.5,0,0.7,0c0.2,0,0.5,0,0.7,0c8.4-0.1,16.7-1.8,24.5-5.2c0.2-0.1,0.4-0.2,0.5-0.3  c7.4-3.3,14.2-7.9,19.9-14c3.2-3.3,5.9-6.8,8.3-10.3c0.6-0.6,1.1-1.3,1.6-2.1c2.1-3.5,3.8-7.2,5.2-10.9c2.6-6.9,3.9-14.2,3.7-21.7  c-0.1-14.8-5.3-29.3-14.6-40.8C244.6,235.3,238.4,230.2,231.1,226.3z M173.6,252.8c8.9,0,17.8,0,26.7,0c8.7,0,17.4,0,26.1,0  c3.6,0,5.7,1.7,5.8,4.5c0,2.9-2.1,4.6-5.6,4.6c-17.7,0-35.3,0-53,0c-3.5,0-5.7-1.8-5.6-4.7C167.9,254.4,170,252.8,173.6,252.8z   M226.5,317.1c-8.9,0-17.8,0-26.7,0c-8.8,0-17.6,0-26.4,0c-3.6,0-5.7-1.8-5.6-4.7c0-2.8,2.1-4.5,5.5-4.5c17.8,0,35.6,0,53.3,0  c3.4,0,5.4,1.7,5.5,4.5C232.2,315.3,230.1,317.1,226.5,317.1z M226.5,298.7c-17.7,0-35.4,0-53,0c-3.6,0-5.7-1.8-5.6-4.7  c0.1-2.8,2.1-4.5,5.5-4.5c9,0,18,0,26.9,0c8.7,0,17.4,0,26.1,0c3.6,0,5.7,1.7,5.7,4.5C232.2,296.9,230.1,298.7,226.5,298.7z   M231.7,277.7c-1,2.1-2.8,2.6-5,2.6c-8.9,0-17.8,0-26.7,0c-8.8,0-17.6,0-26.4,0c-3.6,0-5.7-1.6-5.8-4.5c-0.1-2.9,2-4.7,5.6-4.7  c17.8,0,35.5,0,53.3,0C230.9,271.2,233.3,274.4,231.7,277.7z"></path>	<path class="st0" d="M178.2,172.4c14.4,0,28.9,0,43.3,0c9.6,0,15.2-5.6,15.2-15.1c0-14.8,0-29.7,0-44.5c0-14.9,0-29.9,0-44.8  c0-9.4-5.6-15-15-15.1c-14.4,0-28.9,0-43.3,0c-9.6,0-15.2,5.6-15.2,15.1c0,29.8,0,59.5,0,89.3C163.3,166.7,168.9,172.4,178.2,172.4  z M200.1,66.8c2.4,0,4.5,2.2,4.5,4.6c0,2.4-2.2,4.5-4.6,4.5c-2.4,0-4.5-2.2-4.5-4.6C195.5,68.8,197.6,66.7,200.1,66.8z   M195.3,149.5c3.1-0.1,6.3-0.1,9.4,0c2.6,0.1,4.3,2,4.4,4.4c0.1,2.5-1.7,4.5-4.4,4.7c-1.6,0.1-3.2,0-4.9,0c-1.5,0-3.1,0.1-4.6,0  c-2.7-0.2-4.5-2.2-4.4-4.7C190.9,151.5,192.7,149.6,195.3,149.5z"></path>	<path class="st0" d="M347,67.7c0-9-5.7-14.8-14.6-14.8c-14.7,0-29.5,0-44.2,0c-8.8,0-14.6,5.8-14.6,14.5c0,30.1,0,60.3,0,90.4  c0,8.7,5.8,14.5,14.6,14.5c14.6,0,29.3,0,43.9,0c9.3,0,14.9-5.7,14.9-15.1c0-14.8,0-29.7,0-44.5C347,97.8,347,82.8,347,67.7z   M310.2,66.8c2.5-0.1,4.6,2,4.6,4.5c0.1,2.5-2,4.6-4.5,4.7c-2.4,0.1-4.6-2-4.6-4.5C305.6,69,307.7,66.8,310.2,66.8z M315,158.5  c-3.1,0.2-6.3,0.2-9.4,0c-2.7-0.1-4.5-2.1-4.5-4.6c0-2.5,1.9-4.3,4.6-4.5c1.5-0.1,3,0,4.6,0c0,0,0,0,0,0c1.5,0,3.1-0.1,4.6,0  c2.7,0.2,4.5,2.2,4.5,4.6C319.3,156.5,317.6,158.4,315,158.5z"></path></g></svg>