<svg xmlns="http://www.w3.org/2000/svg" xmlns:xlink="http://www.w3.org/1999/xlink" id="Layer_1" x="0px" y="0px" viewBox="0 0 400 400" style="enable-background:new 0 0 400 400;" xml:space="preserve"><style type="text/css">	.st0{fill:#322B6A;}	.st1{fill-rule:evenodd;clip-rule:evenodd;fill:#322B6A;}</style><g>	<path class="st0" d="M154.4,254.2c-2.4-0.1-3.9,1.2-4.4,3.4c-0.2,1-0.1,1.9-0.1,2.9c0,4.8,0,9.7,0,14.7c-9.6,0-18.7,0-27.9,0  c-4.4,0-5.8,1.4-5.8,5.8c0,6.8,0,13.6,0,20.3c-16.1,4.4-25.6,16.8-23.7,30.6c2,15.1,13.5,25.4,27.9,25.4c14.3,0,25.9-10.2,28-25  c2-14.2-7.3-26.5-23.6-31.1c0-5.8,0-11.5,0-17.7c1.4,0,2.5,0,3.7,0c8.3,0,16.7,0,25,0c2.7,0,4.7-1,4.8-4c0.1-7.2,0-14.4,0-21.7  C158.2,255.5,156.7,254.3,154.4,254.2z"></path>	<path class="st0" d="M283.3,301.5c0-7,0-13.8,0-20.7c0-4-1.5-5.5-5.5-5.5c-8.1,0-16.1,0-24.3,0c-1.3,0-2.5,0-4,0c0-5.7,0-11,0-16.3  c0-2.8-1.1-4.6-4-4.8c-2.6-0.2-4.3,1.7-4.4,4.8c0,6.4,0,12.7,0,19.2c0,3.8,1.4,5.2,5.3,5.3c5.3,0.1,10.5,0,15.8,0  c4.1,0,8.2,0,12.4,0c0,6.2,0,12.2,0,18.1c-16.3,4.4-25.6,16.9-23.7,31.1c2,14.6,13.7,25,28,25c14.6,0,26-10.5,28-25.7  C308.8,317.9,299.2,305.6,283.3,301.5z"></path>	<path class="st0" d="M204.1,301.5c0-9,0-17.8,0-26.5c0-5.1-1.2-7-4.3-6.9c-3,0.1-4.3,2.2-4.3,7c0,8.7,0,17.4,0,26.4  c-15,2.9-25.3,15.4-23.6,31.8c1.4,12.5,12.7,23.2,25.7,24.1c13.8,1,26.2-8.1,29.3-21.4c1.6-6.8,1-13.3-2.3-19.5  C220.4,308.2,213.3,303.4,204.1,301.5z"></path>	<path class="st0" d="M344,148.2c-12.3-20.7-39.6-28.7-62.8-18.5c-2.2,1-4.3,1.8-6.2-0.2c-1.9-2-1.2-4.1,0-6.2  c3.3-5.9,4.2-12.4,2.8-19.1c-5.1-23-32.1-31.1-49.7-21.7c-5,2.6-6,1.8-7.6-3.4c-1.6-5-3.3-10.1-6.1-14.4  c-11.4-17.8-34.3-26-56.1-20.6c-25.7,6.4-42.5,31.4-34.9,55.9c1.1,3.2-1.2,5.4-4.7,5.1c-16.5-1.6-31.9,1.8-45.3,11.6  c-16.1,11.7-24.9,27.6-23,47.8c2.6,29.3,27.9,48.1,52.7,49.9c10.1,0.8,20.3,0.4,30.5,0.5c2.9,0,5.9,0,8.9,0  c-6.4-28.4,1.2-51.8,25.5-67.7c20.9-13.7,43.2-13.7,63.9,0c24,15.8,31.6,38.9,25.5,67.2c15.3,0,30.5,0.2,45.5-0.1  c5.2-0.1,10.5-1,15.5-2.6C346,202.9,358.3,172.2,344,148.2z M109.4,203.3c-1.2,0.1-2.4,0-4.1,0c-20.2-0.8-38.1-14.1-43.2-32.7  c-0.9-3-1.2-6.1-1.4-9.3c-0.3-3.1,1.4-5.1,4-5.3c2.6-0.1,4.4,1.5,4.4,4.8c-0.2,16.7,14.6,33.3,37.6,34.6c1,0.1,2.2-0.2,2.8,0.2  c1.4,1.1,3.1,2.5,3.4,4C113.5,201.9,111.6,203.1,109.4,203.3z M205.9,88.1c-1.9,0.4-3.1-1.1-3.7-3.2c-2.8-11.4-10.3-18.1-21.3-21.1  c-3.1-0.8-6.4-0.9-9.6-1.3c-2.8-0.3-4.5-2.2-4.3-4.6c0.2-2.8,1.9-3.9,4.6-3.8c0.6,0,1.3,0,1.9,0c16.5,0.6,31.2,11.6,35.5,26.4  c0.3,1,0.5,2,0.6,3.1C209.9,86.3,207.9,87.7,205.9,88.1z M335.2,174.3c-2.4,0.2-4.3-1.7-4.3-4.6c0.1-10.5-8.7-21.4-22.3-24.1  c-2.2-0.3-4.3-0.4-6.5-0.6c-2.8-0.2-4.6-2-4.4-4.5c0.2-2.7,1.8-3.8,4.5-3.9c16.7-0.3,32,11.1,35.8,26.6c0.4,1.9,0.6,4,0.9,5.7  C338.7,171.6,338.4,174,335.2,174.3z"></path>	<path class="st0" d="M196.4,197.3c0,2.3,1.4,3.7,3.4,3.2c1.4-0.2,2.6-1.7,4-2.7c0-0.5,0-1,0-1.5c-1.4-1-2.6-2.5-4-2.7  C197.7,193.4,196.3,194.9,196.4,197.3z"></path>	<path class="st0" d="M250.7,201.1c-3.1-0.6-8.3,1.4-8.4-4.3c0-5.9,5.5-3.7,8.6-4.6c-1.1-22.9-22.3-45.2-46.7-46.2  c-0.6,3.1,1,8-4.4,8.1c-5.7,0-3.7-5.2-4.6-8.3c-29.2,2.3-46.6,28.5-46.4,46.5c3.2,0.5,8.2-1.2,8.4,4.1c0.3,6.4-5.4,3.8-8.6,4.8  c0.9,23.2,21.4,46.4,46.8,47.3c0.5-3.3-1-8.3,4.7-8.1c5.4,0.2,3.4,5,4.3,8.2C226.9,248.8,254,221.1,250.7,201.1z M207.3,205.7  c-4.8,4.3-12.3,3.8-16.5-1.3c-4.1-5.1-3.3-12.5,2-16.3c2-1.4,2.7-2.9,2.6-5.3c-0.1-4.5-0.1-9,0-13.6c0.1-3.4,1.6-5.3,4.3-5.4  c2.7-0.1,4.2,1.7,4.3,5.3c0,2.5,0,5,0,7.4c0,1.1,0.1,2.2,0,3.2c-0.2,3.7,0.1,6.7,3.7,9.4C212.9,193.3,212.3,201.3,207.3,205.7z"></path></g></svg>
