<svg xmlns="http://www.w3.org/2000/svg" xmlns:xlink="http://www.w3.org/1999/xlink" id="Layer_1" x="0px" y="0px" viewBox="0 0 400 400" style="enable-background:new 0 0 400 400;" xml:space="preserve">
  <style type="text/css">
    .st0{fill:#322B6A;}
    .st1{fill-rule:evenodd;clip-rule:evenodd;fill:#322B6A;}
  </style>
  <g>
    <path class="st0" d="M265.3,161.6c-14.5-0.2-26.8,12-27,26.6c-0.1,14.6,11.9,26.8,26.6,26.9c14.7,0.1,26.7-11.8,27-26.6
      C292.2,174.2,280.1,161.9,265.3,161.6z"></path>
    <path class="st0" d="M136.1,161.8c-13.7-1.2-27.4,9.4-28.5,25.5c-0.9,13.3,10.1,26.3,24.1,27.7c14.8,1.5,27.8-9.3,29.3-24.3
      C162.4,176.5,151.4,162.6,136.1,161.8z"></path>
    <path class="st0" d="M346.9,100.8c0-17.8-13.9-31.8-31.8-31.8c-76.9-0.1-153.9-0.1-230.8,0.1c-3.9,0-8,1-11.7,2.3
      C62.4,74.8,52.8,86.9,53,99.7c0.5,29.5,0.2,59,0.2,88.6c0,30.4,0,60.8,0.1,91.1c0,2.5,0.5,5.2,1.3,7.6c4.7,13.2,16.5,21,31.5,21
      c28.1,0,56.2,0,84.2,0c2.1,0,3.6,0.6,5,2.1c5.6,5.8,11.3,11.4,17,17.1c5.3,5.3,9.7,5.2,15-0.1c5.6-5.6,11.2-11.1,16.6-16.7
      c1.7-1.7,3.3-2.4,5.8-2.4c28,0.1,56,0.1,83.9,0c19.1,0,33.2-13.4,33.3-31.8C347,217.7,347,159.2,346.9,100.8z M266.6,234.1
      c-44.4,0.4-88.8,0.3-133.3,0c-24.8-0.2-44.3-20.3-44.8-45.3c-0.5-23.8,18.6-44.6,42.8-45.9c18.2-1,32.6,6.4,42,21.9
      c9.5,15.6,9,31.6,0,47.4c-0.5,0.9-1,1.8-1.6,2.9c18.7,0,37.1,0,55.8,0c-1.5-3-3.2-5.8-4.4-8.8c-6.9-17.4-4.7-33.7,7.6-47.8
      c12.6-14.4,28.9-19.2,47.3-13.8c18.1,5.3,29,18,32.3,36.6C315.1,208.2,294.1,233.9,266.6,234.1z"></path>
  </g>
</svg>
