<svg xmlns="http://www.w3.org/2000/svg" xmlns:xlink="http://www.w3.org/1999/xlink" id="Layer_1" x="0px" y="0px" viewBox="0 0 400 400" style="enable-background:new 0 0 400 400;" xml:space="preserve"><style type="text/css">	.st0{fill:#322B6A;}	.st1{fill-rule:evenodd;clip-rule:evenodd;fill:#322B6A;}</style><g>	<path class="st0" d="M325.1,287c-16.1-14.4-33.2-27.7-51.6-39.2c-11.2-7-13.2-6.6-22.9,2.4c-5.6,5.2-11.4,10.3-17,15.5  c-1.4,1.3-2.7,1.4-4.5,0.7c-18.7-7.4-34.6-18.9-48.4-33.3c-20.1-21-33.3-45.7-38.6-74.4c-0.4-2.1-0.1-3.5,1.8-4.8  c6.5-4.6,13-9.2,19.5-13.9c9.9-7,10.6-8.8,6.6-20.2c-7.3-21.1-17.2-41-28.1-60.5c-1.1-1.9-2.5-3.7-4-5.3c-3.2-3.5-5.9-3.9-10.1-1.8  c-2.1,1.1-4.2,2.4-6.2,3.8c-18.1,13.4-33.9,29.2-48.6,46.1c-4.3,4.9-5.5,10.2-5,16.5c1.4,19.2,6.2,37.6,13.3,55.5  c16.4,40.9,41,76.5,71.6,108c22.1,22.7,46.6,42.3,75.5,56c9.9,4.7,20.1,8.5,32,10.8c1.4-0.5,3.9-1,6.1-2.1  c21.1-10.6,40.7-23.6,58.5-39.2C334.3,299.5,334.4,295.3,325.1,287z"></path>	<path class="st0" d="M217.7,176.9c-0.5,3.3-1.2,6.6-1.9,9.9c-0.8,4.1,1.5,6.3,5.5,5.5c3.4-0.7,6.7-1.4,10.1-2  c0.7-0.2,1.7,0,2.3,0.4c12.3,8.1,25.6,11.4,40.2,10.2c24.6-2.2,46.1-19.9,52.7-43.7c1.2-4,1.7-8.3,2.5-12.4c0-3.1,0-6.1-0.1-9.1  c-0.8-4-1.3-8.1-2.4-12C320,99.5,299.1,82,274.2,79.4c-0.5,0-1-0.2-1.5-0.3c-3.1,0-6.3,0-9.5,0c-0.5,0.2-1,0.3-1.5,0.4  c-13,1.4-24.4,6.4-34.2,15.1c-23,20.6-27.2,53.7-10.3,79.6C217.7,174.9,217.8,176,217.7,176.9z M232.6,125.3  c0.3-1.9,1.4-2.9,3.2-3.3c0.7-0.1,1.5-0.1,2.2-0.1c16.7,0,33.4,0,50,0.1c0.7,0,1.4,0,2.1,0c0.1-0.2,0.2-0.4,0.3-0.5  c-1.5-1.5-3.1-2.9-4.6-4.4c-1.9-1.9-2-4.1-0.4-5.8c1.6-1.7,4.1-1.6,6,0.3c3.8,3.8,7.6,7.6,11.4,11.4c1.9,2,2,4.1,0,6.1  c-3.8,3.9-7.6,7.7-11.5,11.5c-1.9,1.8-4.2,1.8-5.8,0.1c-1.6-1.7-1.6-3.9,0.3-5.8c1.5-1.5,3-2.9,4.6-4.4c-0.1-0.2-0.1-0.3-0.2-0.5  c-0.7,0-1.3,0-2,0c-16.8,0-33.6,0-50.4-0.1c-1,0-2-0.1-2.9-0.4C233.1,128.8,232.4,127.2,232.6,125.3z M234,150.8  c3.7-3.8,7.5-7.5,11.2-11.2c2-1.9,4.3-2,6-0.4c1.7,1.7,1.6,3.9-0.4,6c-1.4,1.5-2.9,2.8-4.3,4.8c0.7,0,1.3,0,2,0  c16.9,0,33.9,0,50.8,0.1c3.1,0,4.9,1.4,4.9,4c0,2.1-1.4,3.7-3.4,3.9c-0.7,0.1-1.3,0-2,0c-16.7,0-33.3,0-50-0.1c-0.7,0-1.4,0-2.1,0  c-0.2,0.1-0.3,0.3-0.4,0.5c1.5,1.5,3.1,2.9,4.6,4.4c1.9,2,2,4.3,0.3,6c-1.6,1.6-4,1.5-5.8-0.3c-3.8-3.8-7.6-7.5-11.4-11.4  C231.9,155.1,231.9,152.9,234,150.8z"></path></g></svg>
