<svg xmlns="http://www.w3.org/2000/svg" xmlns:xlink="http://www.w3.org/1999/xlink" id="Layer_1" x="0px" y="0px" viewBox="0 0 400 400" style="enable-background:new 0 0 400 400;" xml:space="preserve">
  <style type="text/css">
    .st0{fill:#322B6A;}
    .st1{fill-rule:evenodd;clip-rule:evenodd;fill:#322B6A;}
  </style>
  <g>
    <path class="st0" d="M231.5,184.3c-3.2,2.9-6.4,5.9-9.7,9c1.1,1.2,2,2.2,3,3.3c10.4,11.2,20.8,22.4,31.2,33.6
      c2,2.1,4.3,3.4,7.2,3.1c3.4-0.3,5.8-2.1,7.1-5.3c1.3-3.4,0.5-6.4-2-9c-10.7-11.5-21.3-23-32-34.5
      C234.9,183.1,233.1,182.9,231.5,184.3z"></path>
    <path class="st0" d="M230.2,174.7c0.9,1,1.7,1.2,2.9,0.9c13.3-3.2,26.6-6.3,39.8-9.4c1.5-0.4,3.1-0.8,4.6-1.2
      c-27.3-14.2-46.9-35.2-58.8-63.4c-0.1,0.2-0.3,0.5-0.4,0.8c-4.5,14.4-9,28.8-13.6,43.2c-0.4,1.2,0.1,1.8,0.8,2.6
      C213.8,157,222,165.8,230.2,174.7z"></path>
    <path class="st0" d="M208.9,194.2c5.5-4.3,10.5-9.3,15.7-14.1c-8.4-9-16.5-17.8-24.8-26.7c-4.8,4.5-9.6,8.8-14.2,13.3
      c-6.5,6.4-6.8,16.6-0.8,23.6C191.4,198.1,201.4,199.9,208.9,194.2z"></path>
    <path class="st0" d="M305.3,91.6c0.4-0.3,1.3-0.7,2.1-1.4c7.6-6.8,15.2-13.7,22.9-20.5c2.2-2,2.5-4.4,0.8-6.2
      c-1.7-1.7-4-1.6-6.1,0.3c-4.4,3.9-8.7,7.9-13.1,11.8c-3.4,3.1-6.9,6.2-10.3,9.3c-1.5,1.4-1.9,3.3-1,4.8
      C301.5,91.3,302.9,92,305.3,91.6z"></path>
    <path class="st0" d="M346.2,109.4c-5-0.1-10.1-0.2-15.1-0.4c-5.7-0.1-11.4-0.3-16.7-0.4c-2.5,0.3-4,1.9-4,4c0,2.1,1.7,3.8,4.2,3.8
      c10.5,0.3,21,0.6,31.5,0.8c2.6,0.1,4.4-1.8,4.3-4.2C350.5,110.9,348.7,109.4,346.2,109.4z"></path>
    <path class="st0" d="M282,77c2.3-0.1,3.8-1.8,3.7-4.2c-0.1-1.9-0.2-3.8-0.3-5.7c-0.4-7.9-0.8-15.8-1.2-23.8c-0.3-2.2-1.9-3.7-4-3.6
      c-2.2,0.1-3.9,1.7-3.8,4c0.5,9.8,1,19.7,1.5,29.5C278.1,75.6,279.8,77.1,282,77z"></path>
    <path class="st0" d="M226.2,98.2c0.5,1.6,1.1,3.1,1.8,4.6c10.1,22.1,25.9,39.1,46.7,51.5c5.8,3.4,12,5.9,18.8,6.4
      c3.6,0.3,6.3-1.3,8.4-4c1.7-2.2,2.4-4.9,2.5-7.6c0.2-5.1-1-10-2.9-14.7c-3.7-9.8-9.6-18.2-16.3-26.1c-9-10.6-19.2-20-31.5-26.7
      c-5.5-3-11.3-5.5-17.7-6C228.6,75,224.2,79,224,86.4c0,1.8,0.2,3.6,0.3,5.3C225,93.9,225.5,96.1,226.2,98.2z M244.2,108
      c3.1-2.7,6.6-4.3,9-4.7c10.9-1.7,19.7,2.8,24,10.9c4.2,8,2.8,17.8-3.4,24.3c-0.8,0.8-1.8,1.6-2.9,1.9c-1.7,0.6-3.2-0.1-4.1-1.6
      c-0.9-1.5-0.9-3,0.2-4.5c0.4-0.5,0.9-1,1.3-1.5c4.5-5.2,4.5-12.9-0.2-17.9c-4.7-5.1-12.5-5.8-18-1.6c-0.3,0.2-0.6,0.5-0.9,0.7
      c-2.1,1.6-4.3,1.5-5.8-0.3C241.9,112,242.3,109.7,244.2,108z"></path>
    <path class="st0" d="M306.6,298.3c-16.1-14.4-33.2-27.7-51.6-39.2c-11.2-7-13.2-6.6-22.9,2.4c-5.6,5.2-11.4,10.3-17,15.5
      c-1.4,1.3-2.7,1.4-4.5,0.7c-18.7-7.4-34.6-18.9-48.4-33.3c-20.1-21-33.3-45.7-38.6-74.4c-0.4-2.1-0.1-3.5,1.8-4.8
      c6.5-4.6,13-9.2,19.5-13.9c9.9-7,10.6-8.8,6.6-20.2c-7.3-21.1-17.2-41-28.1-60.5c-1.1-1.9-2.5-3.7-4-5.3c-3.2-3.5-5.9-3.9-10.1-1.8
      c-2.1,1.1-4.2,2.4-6.2,3.8c-18.1,13.4-33.9,29.2-48.6,46.1c-4.3,4.9-5.5,10.2-5,16.5c1.4,19.2,6.2,37.6,13.3,55.5
      c16.4,40.9,41,76.5,71.6,108c22.1,22.7,46.6,42.3,75.5,56c9.9,4.7,20.1,8.5,32,10.8c1.4-0.5,3.9-1,6.1-2.1
      c21.1-10.6,40.7-23.6,58.5-39.2C315.8,310.8,315.8,306.6,306.6,298.3z"></path>
  </g>
</svg>
