<svg xmlns="http://www.w3.org/2000/svg" xmlns:xlink="http://www.w3.org/1999/xlink" id="Layer_1" x="0px" y="0px" viewBox="0 0 400 400" style="enable-background:new 0 0 400 400;" xml:space="preserve"><style type="text/css">	.st0{fill:#322B6A;}	.st1{fill-rule:evenodd;clip-rule:evenodd;fill:#322B6A;}</style><g>	<path class="st0" d="M236.8,143.6c1.1,0,2.2,0,3.2,0.1l2.3-7.4l-12.3-7.5c11.9-5.7,23.9-8.7,35.9-8.7c20.1,0,40,8.3,59.1,24.6  c1.1,1,2.5,1.5,4.2,1.5c1.8,0,3.6-0.9,4.8-2.2c1.1-1.2,1.6-2.9,1.5-4.6c-0.1-1.7-1-3.2-2.2-4.3c-21.5-18.3-44.2-27.5-67.4-27.5  h-1.6c-14.6,0.3-29.1,4.2-43.1,11.5l-10.4-30.9l-2.8,15.2c-2.6,14.1-10.9,31.3-17.3,41.9l-5.6,9.2l10.2-3.3  C206.3,147.5,223.1,143.6,236.8,143.6z"></path>	<path class="st0" d="M203.2,170.6c-1.1-1-2.6-1.5-4.1-1.5c-1.9,0-3.6,0.8-4.8,2.3c-1.1,1.2-1.6,2.9-1.4,4.6c0.1,1.7,1,3.2,2.2,4.3  c21.5,18.3,44.2,27.5,67.4,27.5h1.6c14.6-0.3,29-4.1,43.1-11.5l10.4,30.9l2.8-15.2c2.6-14.1,10.9-31.3,17.3-41.8l5.6-9.2l-10.3,3.4  c-11,3.6-27.7,7.5-41.8,7.5c-1,0-2,0-2.9-0.1l-15.5-0.7l25.5,15.6c-11.9,5.7-24,8.6-35.9,8.6C242.2,195.2,222.3,186.9,203.2,170.6z  "></path>	<path class="st0" d="M331.8,276.5c-17.6-13.2-36-25.1-55.6-35.1c-11.9-6.1-13.9-5.5-22.9,4.5c-5.2,5.8-10.6,11.4-15.8,17.1  c-1.3,1.5-2.6,1.6-4.5,1.1c-19.5-5.8-36.6-16-51.8-29.3c-22.2-19.4-37.6-43.2-45.6-71.7c-0.6-2.1-0.4-3.6,1.4-5.0  c6.2-5.2,12.3-10.5,18.5-15.7c9.3-8,9.9-9.9,4.9-21c-9.3-20.6-21-39.9-33.7-58.6c-1.2-1.8-2.8-3.5-4.5-5c-3.6-3.2-6.3-3.5-10.4-0.9  c-2.1,1.3-4.1,2.8-5.9,4.4c-17.1,15.1-31.6,32.5-45,50.9c-3.9,5.3-4.6,10.8-3.6,17.1c3.1,19.3,9.6,37.5,18.4,54.8  c20.2,39.9,48.2,73.6,82,102.7c24.4,21,50.9,38.6,81.2,49.8c10.4,3.9,21.1,6.8,33.3,8.1c1.4-0.6,3.9-1.4,6-2.7  c20.4-12.6,39-27.4,55.6-44.8C342.2,288.3,341.9,284,331.8,276.5z"></path></g></svg>
