<svg xmlns="http://www.w3.org/2000/svg" xmlns:xlink="http://www.w3.org/1999/xlink" id="Layer_1" x="0px" y="0px" viewBox="0 0 400 400" style="enable-background:new 0 0 400 400;" xml:space="preserve"><style type="text/css">	.st0{fill:#1D1A4E;}</style><path class="st0" d="M231.9,162.3c-3.1,0.2-6.2,0.2-9.3,0c-1.2,0-2.5,0.2-3.7,0.1c-2.1-0.3-3.2,0.4-2.9,2.7c0,3.1,0,6.2,0,9.4 c0,3.1,0,6.2,0,9.3s0,6.2,0,9.4c0,3.1,0,6.2,0,9.3c0,5.1,0.1,10.3,0.1,15.4c0,1.4,0.4,1.9,1.8,1.8c2.7-0.1,5.4-0.1,8.2,0 c1.2,0,1.9-0.2,1.8-1.6c-0.1-2.1,0-4.2,0.1-6.3c-0.2-3.1-0.2-6.2,0-9.3c-0.2-3.1-0.2-3.1,4-2.8c3.1,0,6.2,0,9.3-0.1 c3.2-0.5,6.3-1.2,9.3-2.4c1.9-1.3,3.8-2.5,5.4-4.2c1.7-2.4,3-4.9,3.6-7.8c0.1-0.5,0.2-0.9,0.3-1.4c0-2.6-0.1-5.2-0.8-7.8 c-1.3-4.9-4.5-8.2-8.5-10.8l0,0c-3-1.2-6.1-2.2-9.3-2.5C238.2,162.5,235.1,162.4,231.9,162.3z M247.5,183.8c-0.6,3.3-2.4,5-6.1,5.8 c-3.1,0.7-6.3,0.3-9.4,0.3c-4.1,0.3-4.1,0.3-4.1-3.7c0-0.8,0.1-1.5,0.1-2.3c0-3.4-0.1-6.8-0.1-10.3c0-0.8,0.1-1.4,1.1-1.4 c3.8,0.1,7.6-0.3,11.4,0.3C245.9,173.3,248.9,178.2,247.5,183.8z"></path><path class="st0" d="M193.3,218.1c0,1.2,0.4,1.6,1.6,1.6c3-0.1,5.9-0.1,8.9,0c1.3,0,1.6-0.4,1.6-1.6c-0.1-2.1,0-4.2,0.1-6.3 c0-3.1,0-6.2,0-9.3s0-6.2,0-9.4c0-3.1,0-6.2,0-9.3s0-6.2,0-9.4c0-3.1,0-6.2,0-9.3c-0.3-1,0.7-2.7-1.5-2.8c-3.1,0.2-6.2,0.2-9.4,0 c-1.9,0.2-1,1.8-1.3,2.8c0.2,3.1,0.2,6.2,0,9.4c0,3.1,0,6.2,0,9.3c0.2,3.1,0.2,6.2,0,9.4c0,3.1,0,6.2,0,9.3c0.2,3.1,0.2,6.2,0,9.4 C193.2,213.9,193.3,216,193.3,218.1z"></path><path class="st0" d="M166.5,210.8c-3.2,0.3-6.4,0.5-9.4-1.3c-3-1.4-4.1-3.9-4.1-7c-0.4-1.4-1.6-0.8-2.5-0.9 c-0.9-0.1-1.8-0.1-2.7-0.1c-1.7,0-3.4,0.1-5.1,0.1c-0.7,0-1.6-0.2-1.9,0.9c0.4,3.3,1.2,6.5,3.1,9.3c1.3,1.3,2.6,2.6,3.9,4 c8.9,5.6,18.2,5.9,27.9,2.6c3-1.6,5.6-3.7,7.5-6.6c2.8-6.9,1.9-13.1-3.2-18.7c-1.4-1-2.9-2.1-4.3-3.1c-3.1-1.3-6.2-2.6-9.3-3.9 c-2.2-0.5-4.3-1.1-6.2-2.2c-1.2-0.3-2.3-0.9-3.2-1.8c-3.6-2.9-3.2-7.4,0.8-9.5c3.5-1.8,7.2-1.8,10.8-0.3c2,0.9,3.6,2.4,3.8,4.7 c0.3,2.2,1.3,2.9,3.3,2.6c2.9,0,5.9-0.1,8.8-0.1c0.5-5.8-2.3-10.1-6.5-13.7c-0.8-0.5-1.6-1-2.3-1.5c-3-1.3-6.1-2.1-9.3-2.6 c-3.1,0-6.2,0-9.3,0.5c-2.2,0.8-4.4,1.4-6.4,2.5c-4.1,2.3-6.8,5.7-7.9,10.3c-0.3,3,0,5.8,1,8.6c1,2,2.5,3.6,3.9,5.2 c2.2,1.4,4.4,2.8,6.6,4.2c0.9,0.4,1.8,0.7,2.7,1.1c3.1,1.1,6.4,2,9.4,3.4c2.5,1,5.1,1.9,5.9,4.9 C173.9,206.9,171.7,209.9,166.5,210.8z"></path><path class="st0" d="M206.9,147.3c1.3,0.1,2.5,0,3.4-1c0.6-1.5,0.3-2.8-0.8-4c-1.4-1.7-2.6-3.4-3.9-5.2c-0.8-0.6-1.3-1.4-1.8-2.3 c-0.7-0.9-1.5-1.8-2.2-2.6c-1.6-1.7-3-1.7-4.5,0.1c-0.9,1-1.7,2-2.5,3c-0.5,0.6-0.9,1.2-1.4,1.8c-1.3,1.8-2.6,3.6-4,5.3 c-1,1.2-1.4,2.5-0.7,4c1,0.9,2.2,1.1,3.4,1s1.7,0.3,1.6,1.5c-0.1,2.3-0.1,4.6-0.1,6.9c0.6,0.9-0.8,2.5,1.1,2.9c3.1,0,6.2,0,9.3,0 c2.4,0,1-1.9,1.5-2.9c0-2.3,0-4.6-0.1-6.9C205.2,147.5,205.7,147.2,206.9,147.3z"></path><path class="st0" d="M297.6,264c3.3,0,6.7-0.4,10-1c25.9-5,43.5-30.9,38.5-56.7c-3.6-18.6-14.6-31.2-32.4-37.8 c-1.3-0.5-2.3-1-2.7-2.6c-3.2-14-13.5-23.4-27.8-25c-2.6-0.3-3.8-1.2-4.7-3.7c-13.2-33.6-50.1-52.3-85.1-43.4 c-14.7,3.8-27.1,11.4-37.2,22.7c-0.7,0.8-1.9,1.5-2.9,1.5c-11.9-0.2-22.2,2.5-30.8,8.2v-9.4c0-0.9,0.4-1.9,1-2.5l5.1-5.1 c3.1,1.5,6.7,1.4,9.7-0.2s5.1-4.5,5.6-7.9s-0.6-6.8-3-9.2c-2.4-2.4-5.8-3.5-9.2-3s-6.3,2.6-7.9,5.6s-1.7,6.6-0.2,9.7l-5.1,5.1 c-2,2-3.1,4.7-3.1,7.6v15.2c-2.6,2.6-5,5.5-7.1,8.8V99c3.2-1.1,5.7-3.7,6.7-7c1-3.2,0.4-6.8-1.6-9.5s-5.2-4.3-8.6-4.3 s-6.6,1.6-8.6,4.3c-2,2.7-2.6,6.2-1.6,9.5c1,3.2,3.5,5.8,6.7,7v50.1c-1.1,0.6-2.4,1-3.9,1.4c-1.1,0.3-2.2,0.6-3.3,0.9v-34.6 c0-2.8-1.1-5.6-3.1-7.6l-5.1-5.1c1.5-3.1,1.4-6.7-0.2-9.7s-4.5-5.1-7.9-5.6s-6.8,0.6-9.2,3c-2.4,2.4-3.5,5.8-3,9.2 c0.5,3.4,2.6,6.3,5.6,7.9s6.6,1.7,9.7,0.2l5.1,5.1c0.7,0.7,1,1.6,1,2.5V154c-23,10.1-36.7,33.9-33.5,60.1c3.4,28.1,28.2,50,56.5,50 c20.7,0,41.5,0.2,62.2-0.1c9-0.1,16.1,6.2,15.6,15.4c-0.4,7.4-0.1,14.8-0.1,22.2c0,0.8,0,1.6,0,2.5c-0.9,0.1-1.5,0-2,0.2 c-1.2,0.5-2.9,0.8-3.3,1.7c-0.4,0.9,0.1,2.6,0.8,3.6c2.7,3.7,5.5,7.2,8.4,10.8c1.5,1.8,3.2,2,4.7,0.3c3.2-3.9,6.3-7.9,9.3-11.9 c1.3-1.7,0.4-3.8-1.8-4.2c-1-0.2-2.1-0.2-3.5-0.4c0-1,0-1.9,0-2.8c0-7.8,0-15.7,0-23.5c0-14.8-11.5-26.2-26.3-26.2 c-20.7,0-41.5,0-62.2,0c-3.5,0-7.1-0.4-10.5-1c-23.7-4.7-39.7-29.1-34.8-52.6c4.5-21.6,22.4-36.2,44.5-36.4c1.5,0,2.4-0.3,2.8-2 c5-19.9,24-32,44.3-28.2c2.1,0.4,3.1-0.1,4.3-1.8c13.3-17.8,31-26.7,53.3-25c24.2,1.9,41.3,14.7,51.1,36.8c2,4.4,3,9.2,4.5,13.9 c7.4-3.3,14.7-2.9,21.1,2.5c6.4,5.3,8.2,12.4,6.3,20.5c1.9,0.2,3.7,0.4,5.4,0.7c18.4,3.2,32,20.4,30.4,38.6 c-1.7,19.5-17.3,34.1-36.6,34.1c-21.7,0-43.4,0-65,0c-11.5,0-21.4-7-25-17.9c-0.9-2.7-1.3-5.7-1.9-8.6c-3.8,0-7.8,0-12.3,0 c0.3,2.9,0.4,5.5,0.9,8c3.7,18.2,19.5,31,38.1,31c4.7,0,9.5,0,14.2,0v6.4c0,1.2-0.5,2.4-1.4,3.3l-6.7,6.7c-4-1.9-8.8-1.8-12.7,0.3 c-4,2.1-6.7,6-7.4,10.4s0.8,8.9,4,12.1s7.7,4.7,12.1,4c4.4-0.7,8.3-3.4,10.4-7.4c2.1-4,2.2-8.7,0.3-12.7l6.7-6.7l0,0 c2.7-2.6,4.1-6.2,4.1-10v-6.4c3.1,0,6.3,0,9.4,0v29.9c-4.2,1.5-7.5,4.9-8.8,9.2c-1.3,4.3-0.5,8.9,2.1,12.5c2.7,3.6,6.9,5.7,11.3,5.7 c4.5,0,8.7-2.1,11.3-5.7c2.7-3.6,3.5-8.2,2.1-12.5c-1.3-4.3-4.6-7.7-8.8-9.2v-29.9c3.1,0,6.3,0,9.4,0v6.4c0,3.7,1.5,7.3,4.1,10 l6.7,6.7c-1.9,4-1.8,8.8,0.3,12.7c2.1,4,6,6.7,10.4,7.4c4.4,0.7,8.9-0.8,12.1-4s4.7-7.7,4-12.1s-3.4-8.3-7.4-10.4s-8.7-2.2-12.7-0.3 l-6.7-6.7c-0.9-0.9-1.4-2.1-1.4-3.3v-6.4C295,264,296.3,264,297.6,264z M133.3,96L133.3,96c1.4,0,2.7,0.9,3.3,2.2 c0.6,1.3,0.2,2.9-0.8,3.9s-2.6,1.3-3.9,0.8s-2.2-1.9-2.2-3.3C129.7,97.6,131.3,96,133.3,96z M76.2,103.2L76.2,103.2 c-1.4,0-2.7-0.9-3.3-2.2c-0.6-1.3-0.2-2.9,0.8-3.9s2.6-1.3,3.9-0.8c1.3,0.6,2.2,1.9,2.2,3.3C79.8,101.6,78.2,103.2,76.2,103.2z  M104.8,85.3L104.8,85.3c1.4,0,2.7,0.9,3.3,2.2c0.6,1.3,0.2,2.9-0.8,3.9s-2.6,1.3-3.9,0.8c-1.3-0.6-2.2-1.9-2.2-3.3 C101.2,86.9,102.8,85.3,104.8,85.3z M232.7,297.8L232.7,297.8c-1.9,0-3.6-1.1-4.3-2.9s-0.3-3.8,1-5.1c1.3-1.3,3.4-1.7,5.1-1 c1.8,0.7,2.9,2.4,2.9,4.3C237.4,295.7,235.3,297.8,232.7,297.8z M270.3,311.9c-1.9,0-3.6-1.1-4.3-2.9c-0.7-1.8-0.3-3.8,1-5.1 c1.3-1.3,3.4-1.7,5.1-1c1.8,0.7,2.9,2.4,2.9,4.3C275,309.8,272.9,311.9,270.3,311.9z M307.9,288.4L307.9,288.4 c1.9,0,3.6,1.1,4.3,2.9c0.7,1.8,0.3,3.8-1,5.1c-1.3,1.3-3.4,1.7-5.1,1c-1.8-0.7-2.9-2.4-2.9-4.3 C303.2,290.5,305.3,288.4,307.9,288.4z"></path></svg>