<svg xmlns="http://www.w3.org/2000/svg" xmlns:xlink="http://www.w3.org/1999/xlink" id="Layer_1" x="0px" y="0px" viewBox="0 0 400 400" style="enable-background:new 0 0 400 400;" xml:space="preserve"><style type="text/css">	.st0{fill-rule:evenodd;clip-rule:evenodd;fill:#1D1A4E;}</style><g>	<path class="st0" d="M287.2,343.9c-3.1,0-6.2-0.2-9.3-0.6c-14-1.8-34.7-5.3-52.6-13.6c-78.9-36.9-133.4-95.1-162.2-173.1  c-7-18.8-8.9-37.4-5.5-55.3c4-20.7,14.7-34.5,32.8-42.3c4.4-1.9,8.9-2.9,13.3-2.9c8.7,0,16.5,4,21.8,11.1  c11.5,15.2,22.4,30.8,32.4,46.4c8.1,12.7,5.3,28.6-7,38.6c-2.9,2.4-6,4.6-9.3,6.9c-1.7,1.2-3.5,2.5-5.3,3.8l-2.1,1.5l1.2,2.3  c14.6,27.7,70.5,83.5,98,97.9l2.3,1.2l1.5-2.1c1.1-1.6,2.2-3.1,3.3-4.7c2.1-3.1,4.4-6.3,6.7-9.3c6-7.8,14.7-12.3,23.8-12.3  c5.6,0,11.3,1.7,16.3,5c15.3,10,30.3,20.6,44.6,31.3c11.8,8.8,15,21.6,9.1,35.8C332.3,330.8,311.7,343.9,287.2,343.9  C287.2,343.9,287.2,343.9,287.2,343.9z M103.5,63.3c-3.7,0-7.6,1-11.7,2.9C76,73.5,66.7,86.7,64.2,105.5  c-2.3,18.2,0.2,36.4,7.4,54.1c32.5,79.2,88.9,135.8,167.6,168.2c9.1,3.8,19,5.7,28.5,7.5c4.2,0.8,8.4,1.6,12.6,2.6l0.4,0.1l0.4,0  c19.2-1.3,40.4-5.7,52.2-28.7c6.3-12.4,3.8-23.2-7.4-31.4c-6.6-4.8-13.4-9.5-20-14c-2.6-1.8-5.1-3.5-7.7-5.3  c-13.6-9.5-21.3-14-28.4-14c-9.6,0-16.5,8.8-26.7,23.3c-3.1,4.4-5.4,7.5-7,7.5c-1.7,0-5-2.2-8.8-4.9  c-37.6-26.4-70.1-58.8-96.6-96.1c-3.6-5.1-6.5-9-6.1-10.8c0.3-1.8,4.1-4.4,9.8-8.4l0.1-0.1c1.3-1,2.7-1.9,4-2.8  c1.8-1.3,3.7-2.5,5.5-3.9c12.2-9.1,14.4-21.3,6.3-33.4c-9.9-14.8-19.4-28.3-29-41.5C116.6,66.7,110.5,63.3,103.5,63.3z"></path>	<path class="st0" d="M260.3,186.2c-24.7,0-45.6-17.3-49.7-41c-4.4-25.3,10.3-49.3,34.8-57.1c1.9-0.5,2.8-1.8,2.8-3.8  c-0.1-1.8,0-3.4,0-5.1c0-0.9,0-1.7,0-2.6c0-0.1,0-0.2,0-0.3c0.1,0,23.4,0,23.4,0c0,0,0,0.1,0,0.1c0,0.9,0,1.8,0,2.7  c0,1.8,0,3.4,0,5.1c0,2.6,1.5,3.5,2.8,4c16,5.2,27,15.8,32.9,31.6c0.4,1,0.5,2,0.5,2.7c-0.1,1-1.1,1.8-2.2,1.9l-0.1,0  c-1.2,0-2.1-0.7-2.5-1.9c-1.9-5.6-4.7-10.7-8.3-15.1l-0.1-0.1l-0.1-0.1c-0.1-0.1-0.2-0.3-0.3-0.4c-0.2-0.2-0.4-0.4-0.6-0.6  c-0.2-0.2-0.5-0.4-0.7-0.5c-0.1,0-0.2-0.1-0.2-0.2l-1.4-0.9l-1.2,1.2c-0.8,0.8-1.5,1.5-2.3,2.3c-0.7,0.8-1.5,1.5-2.2,2.3  c-0.3,0.3-0.5,0.4-0.6,0.4c0,0,0,0-0.1,0c-0.1-0.1-0.1-0.1-0.1-0.1c0,0,0.1-0.2,0.4-0.4l0.1-0.1c0.9-0.9,1.7-1.8,2.7-2.7  c0.7-0.6,1.3-1.2,2-1.9l1.5-1.5l-1.6-1.4c-8.2-7.2-17.4-11.1-28.1-11.7l-2.1-0.1V93c0,0.6,0,1.2,0,1.8c0,1.7,0,3.3-0.1,4.8  c0,0.1-0.1,0.2-0.2,0.4c-0.1-0.2-0.1-0.4-0.1-0.5c-0.1-1.4,0-2.8,0-4.2c0-0.8,0-1.5,0-2.3v-2.1l-2.1,0.1  c-10.6,0.6-19.8,4.4-28,11.6l-1.6,1.4l1.5,1.5c0.8,0.8,1.6,1.6,2.4,2.3c0.7,0.7,1.5,1.4,2.2,2.2c0.4,0.4,0.5,0.6,0.6,0.7  c0,0,0,0-0.1,0.1c0,0,0,0,0,0c-0.1,0-0.3-0.1-0.7-0.5c-1.4-1.5-2.8-2.9-4.4-4.5l-1.5-1.5l-1.4,1.6c-7.1,8-10.9,17.2-11.6,28  l-0.1,2.1h9c0.1,0,0.2,0,0.3,0.1c0,0,0,0.1,0,0.2c0,0.1,0,0.1,0,0.1c0,0,0,0,0,0c0,0-0.1,0-0.2,0h-9.1l0.1,2.1  c0.5,10.6,4.3,19.8,11.6,28.1l1.5,1.7l1.8-1.9c1.5-1.6,2.8-3,4.3-4.3l0.1-0.1l0.1-0.1c0.1-0.1,0.2-0.2,0.3-0.3c0,0,0.1,0,0.1,0.1  c0,0.1,0,0.2-0.1,0.3l0,0c-0.9,1.1-2,2.1-3.1,3.1c-0.6,0.6-1.2,1.1-1.7,1.7l-1.5,1.5l1.6,1.4c8,7.1,17.2,10.9,28,11.6l2.1,0.1v-8.2  c0-0.3,0-0.8,0.1-1l0-0.1c0-0.1,0-0.1,0.1-0.2c0,0,0.2,0,0.2,0c0,0,0,0.1,0,0.1v9.1l2.1-0.1c5.1-0.2,9.9-1.2,14.1-3.1  c2.9-1.2,5.7-2.8,8.3-4.3c0.8-0.4,1.5-0.7,2.2-0.7c0.8,0,1.4,0.3,1.9,1.1c1.1,1.8-0.3,3.2-1.2,3.8  C279.5,183.3,270.1,186.2,260.3,186.2C260.4,186.2,260.4,186.2,260.3,186.2z"></path>	<path class="st0" d="M263.6,157.5c0-13.7,0-27.2,0-40.9c-1.3,0-2.6,0-3.9,0c-0.8,0-1.6-0.1-2.2,0.3c-1.7,1.1-3.3,2.4-5,3.6  c-0.2,0.2-0.5,0.5-0.5,0.7c0,1.9,0,3.7,0,5.8c2-1.5,3.8-2.8,5.9-4.3c0,11.8,0,23.3,0,34.7C259.9,157.5,261.7,157.5,263.6,157.5z"></path>	<path class="st0" d="M309.2,143.4c-0.1-1.5-0.1-2.8-0.4-4.1c-0.3-1.6-1.4-2.6-3-3c-3.9-1-6.6,1-6.7,5.1c-0.1,3.7,0,7.4,0,11.1  c0,0.7,0.1,1.4,0.3,2.1c0.5,2,2.2,3.2,4.5,3.2c2.4,0.1,4.3-1,4.8-3.1c0.4-1.6,0.4-3.3,0.5-5c-1.3,0-2.2,0-3.3,0c0,1.1,0,2.1,0,3.1  c0,1.1-0.4,1.8-1.6,1.9c-1.2,0.1-1.8-0.7-1.9-1.8c-0.1-1,0-2.1,0-3.1c0-3,0-6,0-8.9c0-1.1,0.5-1.9,1.8-1.9s1.7,0.8,1.7,1.9  c0,0.8,0,1.5,0,2.3C307,143.4,308,143.4,309.2,143.4z"></path>	<path class="st0" d="M281.1,154.7c-0.5,0-1.2-0.8-1.5-1.4c-0.3-0.6-0.2-1.4-0.2-2c-1.1,0-2,0-3.1,0c0.1,1.1,0.1,2,0.3,2.9  c0.5,2.4,2.2,3.7,4.9,3.7c2.6-0.1,4.2-1.4,4.7-3.8c0.5-2.8-0.4-5.2-2.4-7.1c-1-1-2.2-1.8-2.9-3c-0.6-1-0.9-2.3-0.9-3.6  c0-0.4,1-1.2,1.5-1.2s1.1,0.8,1.5,1.3c0.2,0.4,0.2,1,0.2,1.5c1,0,1.9,0,2.8,0c0.6-3.1-0.9-5.5-3.8-5.9c-3.2-0.5-5.4,1.2-5.7,4.3  c-0.2,2.4,0.4,4.5,2.1,6.2c1,1,2.1,2,3.1,3c1,1.1,1.7,2.4,1.1,3.8C282.6,154,281.7,154.7,281.1,154.7z"></path>	<path class="st0" d="M297.2,139.3c0-1,0-1.9,0-2.9c-3,0-5.8,0-8.8,0c0,7.1,0,14.1,0,21.1c3,0,5.9,0,8.8,0c0-1,0-1.9,0-2.9  c-1.9,0-3.7,0-5.5,0c0-2.1,0-4.1,0-6.2c1.5,0,2.9,0,4.4,0c0-1.1,0-2,0-3.1c-1.6,0-3,0-4.3,0c0-2,0-3.9,0-5.9  C293.6,139.3,295.4,139.3,297.2,139.3z"></path>	<path class="st0" d="M213.5,194c7.4,7.4,8.6,18.7,8.6,30.4h7.8c0-11.7-1-26-10.9-35.9s-24.3-10.9-35.9-10.9v7.8  C194.8,185.3,206,186.5,213.5,194z"></path>	<path class="st0" d="M206.3,224.4h7.8c0-0.7,0-1.4,0-2.1l0,0c0.1-6.9,0.2-15.2-6.8-22.1c-7-7-15.2-6.9-22.1-6.8c-0.7,0-1.4,0-2.1,0  v7.8c0.7,0,1.3,0,1.9,0c7.3,0,12.2-0.1,16.8,4.5s4.5,9.5,4.5,16.8C206.3,223.1,206.3,223.7,206.3,224.4z"></path></g></svg>