<svg xmlns="http://www.w3.org/2000/svg" xmlns:xlink="http://www.w3.org/1999/xlink" id="Layer_1" x="0px" y="0px" viewBox="0 0 400 400" style="enable-background:new 0 0 400 400;" xml:space="preserve"><style type="text/css">	.st0{fill:#1D1A4E;}</style><g>	<path class="st0" d="M200.1,162.1L200.1,162.1h-0.2c-26.6,0.1-40.6,20.7-40.6,41s14,41,40.7,41.1h0.2c26.5-0.6,40.4-21,40.4-40.9  C240.6,183.3,226.7,162.7,200.1,162.1z M200.1,236.3c-43.8-0.2-43.6-66-0.1-66.1C243.3,171,243.7,235.3,200.1,236.3z"></path>	<path class="st0" d="M342.7,150.4c-12.6-7.7-26.6-13-39.9-19.5c-5.8-2-12.1-6.3-18.4-4.8c-5.2,2.1-8.5,6.1-8.8,11.7  c-0.6,13.1,15.7,14.2,24.2,20.2c-15.9,6.1-31.7,11.9-47.9,17.2c-1.7,0.5-2.8,0-3.9-1.5c-3.1-4.1-6.3-8.3-10-11.8  c-6.6-6.2-14.6-10.5-23.4-12.8c-1.5-0.4-1.7-1.1-1.7-2.4c0.2-17.5-0.4-34.9,0.3-52.4c5.1,6,10.6,10.4,16.3,15.6  c10.2,8.6,26.7-7.5,15.8-18.6c-7.5-7.4-14.6-15.1-22-22.5c-5.2-5.2-10.6-10.3-16.2-15.2c-5.1-5-11.2-2.6-15.9,1.8  c-12.6,13.4-27.4,25.2-38.7,39.5c-4.3,11.3,10,23.3,19.6,14.5c5.3-4.3,9.9-9,15-13.6c0.5,88.4,6.1,28.1-34.6,77.7  c-1.6,2.7-3.9,1.9-6.3,1.1c-15.2-5.7-30.7-10.4-45.6-16.7c5.8-3.3,11.8-5.5,17.6-8.7c12.7-6.3,4.8-28-9.8-22.7  c-9.6,3.7-19,8.2-28.4,12.4c-23.6,12.5-34.9,9.8-19.6,39c5.3,11.2,10.7,22.3,16,33.4c7,13.1,28.5,4.2,23-10.6  c-2.7-6.1-5.1-11.4-7.7-17.7c16.5,5.3,32.4,11.5,48.8,17.2c3.6,1.3,3.5,1.3,3.7,5.1c0.5,9.1,2.8,17.7,7.6,25.6  c8.2,13.6,20.1,22.5,35.3,26.8c1.6,0.5,2.1,1.2,2.1,2.8c-0.1,7.2-0.1,14.4,0,21.6c0,1.4-0.4,2.1-1.7,2.7  c-36.7,15.1-19.1,71.8,19.8,63.5c29.7-4.9,37.2-50.5,6.8-63.2c-1.2-0.5-1.7-1.2-1.7-2.5c0.1-7.4,0.1-14.8,0-22.2  c0-1.6,0.6-2.1,2-2.7c4.9-1.9,10-3.4,14.4-6.2c17.7-11,27.3-26.9,28-47.9c0-1.3,0.1-2.2,1.7-2.7c17-5.8,33.4-12.3,50.5-17.8  c-3.8,11-16.2,26.4-0.6,33.9c6.7,2.9,14.1-1.1,16.2-5.8c6.4-14,13.2-28,19.7-42C346.9,163.1,349.6,154.7,342.7,150.4z M336.8,165.5  l-0.1,0.1c-2.6,5.6-5.2,11.1-7.8,16.6c-3.9,8.3-8,16.9-11.9,25.4c-0.3,0.6-2.1,2.1-4.2,2.1c-0.5,0-1-0.1-1.5-0.3  c-3.5-1.7-4.8-2.6,1.3-15.6c1.3-2.7,2.6-5.6,3.6-8.3l5.2-15.1l-15.2,4.9c-10.2,3.3-20.4,7-30.1,10.5c-6.7,2.4-13.7,5-20.5,7.3  c-3.1,1.1-6.8,3.7-7.1,10c-0.7,18.1-8.6,31.7-24.2,41.4c-2.6,1.6-5.9,2.8-9.4,4.1c-1.2,0.5-2.5,0.9-3.7,1.4  c-6.3,2.4-7.1,7.5-7.1,10.2c0.1,6.6,0.1,13.6,0,22.1c0,4.5,2.2,8,6.4,9.9l0.2,0.1c12.2,5.1,15.4,16.6,14.3,25.7  c-1.1,9.7-7.6,20.3-19.4,22.3h-0.2h-0.2c-2,0.4-4,0.6-5.9,0.6c-13.6,0-21.7-10.7-23.8-21.2c-1.9-9.7,0.9-22.1,14.6-27.7  c4.4-1.9,6.7-5.5,6.7-10.2c-0.1-8.2-0.1-15,0-21.4c0.1-5.3-2.8-9.2-7.9-10.6c-13.5-3.8-23.5-11.4-30.7-23.3  c-3.9-6.5-6-13.6-6.4-21.9c-0.4-7-2.5-9.9-9-12.2c-6.3-2.2-12.6-4.5-18.7-6.7c-9.8-3.6-20-7.3-30.3-10.6l-16.5-5.3l6.7,16  c2.2,5.3,4.3,10,6.5,14.9l1.2,2.7c0.7,1.9,0.2,3-0.3,3.7c-1,1.4-2.9,2.3-4.7,2.3c-2,0-2.9-1.1-3.4-2l-1.5-3.1  c-4.8-9.9-9.7-20.1-14.4-30.2l-0.1-0.1l-0.1-0.1c-6.5-12.4-6.2-15.8-6-16.5c0.5-1.4,6-3.9,10.4-5.9c3.4-1.6,7.3-3.3,11.6-5.6  c2.2-1,4.4-2,6.5-3c6.9-3.1,14.1-6.4,21.2-9.1c0.6-0.2,1.2-0.3,1.7-0.3c2.1,0,3.3,2.4,3.6,3.7c0.3,1.3,0.5,3.5-1.7,4.6l-0.2,0.1  l-0.2,0.1c-2.6,1.4-5.3,2.7-8.1,4c-3.1,1.4-6.3,2.9-9.6,4.7l-14.2,8l15,6.4c9.3,3.9,18.9,7.3,28.2,10.5c5.8,2,11.9,4.1,17.7,6.3  l0.3,0.1c1.5,0.5,3.5,1.2,5.9,1.2c3.8,0,7.3-1.9,9.5-5.2c14.4-17.5,21.6-19.3,25.4-20.3c11.6-3,11.5-8.2,11.1-33.3  c-0.1-7.4-0.3-16.6-0.4-28.8l-0.1-18.1l-13.3,12.2c-1.6,1.5-3.1,2.9-4.6,4.3c-3.4,3.2-6.5,6.2-10,9l-0.2,0.1l-0.2,0.2  c-0.9,0.8-1.6,0.9-2.1,0.9c-1.3,0-3-1-4-2.5c-0.5-0.8-1.1-2-0.9-3.3c6.4-7.8,13.8-14.9,21.7-22.4c5.1-4.9,10.4-9.9,15.4-15.2  c2-1.8,3.4-2.3,3.9-2.3c0.2,0,0.6,0.4,0.8,0.5l0.2,0.2l0.2,0.1c5.2,4.6,10.5,9.6,15.8,14.9c3.4,3.4,6.9,7,10.2,10.5  c3.8,4,7.7,8,11.8,12c1.3,1.3,1.5,2.4,0.9,3.9c-0.9,2.1-3.1,3.5-4.6,3.5c-0.3,0-0.7-0.1-1.2-0.5c-1.4-1.3-2.8-2.5-4.1-3.7  c-4-3.6-7.8-7-11.4-11.1l-13.3-15.4L205,94c-0.4,10.6-0.3,21.3-0.3,31.6c0,6.9,0.1,14,0,21c0,7.4,5.3,9.6,7.6,10.2  c7.8,2.1,14.5,5.8,20,10.9c3.2,3,6,6.7,9,10.6l0.2,0.2c3.1,4,6.6,4.9,9.1,4.9c1.2,0,2.4-0.2,3.6-0.6c14.4-4.7,29.3-10,48.3-17.3  l14-5.4l-12.3-8.6c-3.3-2.3-7-3.8-10.6-5.3c-8.5-3.5-10.3-4.9-10.2-7.8c0.1-1.5,0.6-3.2,3.2-4.5c0.1,0,0.2,0,0.3,0  c2,0,4.9,1.3,7.7,2.5c1.6,0.7,3.2,1.4,4.9,2c4.2,2,8.5,3.9,12.6,5.8c9.2,4.1,17.9,8.1,26.1,13C340.2,158.3,337.3,164.3,336.8,165.5  z"></path></g></svg>