<svg xmlns="http://www.w3.org/2000/svg" xmlns:xlink="http://www.w3.org/1999/xlink" id="Layer_1" x="0px" y="0px" viewBox="0 0 400 400" style="enable-background:new 0 0 400 400;" xml:space="preserve"><style type="text/css">	.st0{fill:#1D1A4E;}</style><g>	<path class="st0" d="M68.8,346c-7.3-2.1-12.2-7-14.8-14.9V68.7c0-8.7,7.4-14.6,14.3-14.6l30.3,0c0.6,0,1,0.2,1.3,0.7  c1.2,1.8,0.8,6,0.4,7c-0.4,1-2.4,1.1-4.3,1.2c-0.5,0-1,0-1.5,0.1c-2.6,0.2-5.4,0.3-8.9,0.3c-1.8,0-3.5,0-5.3,0c-1.8,0-3.5,0-5.3,0  c-0.9,0-1.8,0-2.7,0c-5.6,0.1-8.7,2.7-8.8,7.1C63.4,80.6,63.4,91,63.5,101c0,4.1,0,8.2,0,12.3v1h272.9V71.7c0-5.2-2.9-8.2-8.3-8.4  c-2.1-0.1-4.4-0.1-6.5-0.1c-22.4,0-44.9,0-67.4-0.1c-33.1,0-67.4,0-101-0.1c-0.1,0-0.3,0-0.6,0c-0.4,0-1,0-1.7,0  c-4.3,0-6.7-0.8-6.7-2.2c0-0.8,0-1.5-0.1-2.2c-0.1-1.7-0.2-3.2,0.5-3.9c0.4-0.4,1.3-0.7,2.5-0.7h184.1c7.2,2.2,12.1,7.1,14.8,14.9  v262.3c-2.6,7.9-7.5,12.7-14.8,14.9H68.8z M63.4,324.6c0,10.5,1.7,12.2,12.4,12.2H324c10.6,0,12.5-1.8,12.5-12.2V131.9  c0-2.3,0-4.5-0.1-7l0-1h-273V324.6z"></path>	<path class="st0" d="M88.4,88.8c-0.1,5.7,4.4,5.7,8.4,5.7c13.3,0.1,26.6,0,39.8,0c13.5,0,27,0.1,40.5,0c6.4-0.1,10-4.4,6.9-8.1  c-1.7-1.9-5.2-2.9-8-3c-26.3-0.2-52.7-0.1-79-0.1C93,83.4,88.5,83.2,88.4,88.8z"></path>	<path class="st0" d="M163.6,93.5c-4.5,0-9,0-13.5,0c-4.5,0-9,0-13.5,0c-4.4,0-8.8,0-13.2,0c-4.4,0-8.9,0-13.3,0c0,0,0,0,0,0  c-4.4,0-8.9,0-13.3,0c-2.5,0-5.1,0-6.4-1.3c-0.7-0.7-1-1.8-1-3.3c0.1-4.1,2.7-4.4,7-4.5l0.6,0c0.2,0,0.3,0,0.5,0  c6.4,0,12.8,0,19.2,0c6.6,0,13.2,0,19.7,0c16,0,28.2,0,39.5,0.1c2.4,0.1,5.7,1,7.3,2.7c0.9,1.1,1.1,2.2,0.6,3.3  c-0.7,1.5-3.1,3.1-6.8,3.2C172.6,93.5,168.1,93.5,163.6,93.5z"></path>	<path class="st0" d="M244.5,83.5c-1.7,1.9-4.6,3.6-4.8,5.6c-0.2,1.9,2.6,4,5,7.3c2.5-3.4,5.3-5.6,5.1-7.5  C249.5,86.9,246.4,85.3,244.5,83.5z"></path>	<path class="st0" d="M244.7,94.8c-0.6-0.7-1.2-1.4-1.7-2c-1.2-1.4-2.4-2.7-2.3-3.6c0.1-1,1.4-2.1,2.6-3.2c0.4-0.4,0.9-0.8,1.3-1.1  c0.4,0.4,0.9,0.7,1.3,1c1.4,1.1,2.8,2.2,3,3.1c0.1,0.8-1.1,2.2-2.4,3.7C245.9,93.4,245.3,94,244.7,94.8z"></path>	<path class="st0" d="M314.2,89.3c-3.6-2.8-5.6-5.6-7.4-5.5c-2,0.2-5,3-5.1,4.8s2.7,4.9,4.7,5.3C308.1,94.3,310.4,91.7,314.2,89.3z"></path>	<path class="st0" d="M306.8,92.9c0,0-0.1,0-0.1,0c-1.7-0.3-4-3.1-3.9-4.3c0.1-1.2,2.6-3.7,4.2-3.9c0.7,0,2,1.1,3.4,2.4  c0.7,0.6,1.4,1.3,2.3,2c-0.9,0.6-1.6,1.2-2.3,1.7C308.8,92,307.5,92.9,306.8,92.9z"></path>	<path class="st0" d="M280.3,89.4c0.2-2.1-2.1-4.4-4.3-8.1c-2.7,3.5-5.7,5.6-5.5,7.5c0.1,1.9,2.9,4.6,5.1,5.2  C276.7,94.3,280.2,91.1,280.3,89.4z"></path>	<path class="st0" d="M275.8,93c-1.8-0.5-4.2-2.9-4.3-4.3c-0.1-0.8,1.1-2.2,2.5-3.6c0.6-0.6,1.3-1.4,1.9-2.1  c0.4,0.7,0.9,1.3,1.3,1.9c1.3,1.8,2.2,3.3,2.1,4.4C279.2,90.5,276.6,92.9,275.8,93z"></path>	<path class="st0" d="M95.8,184.3c20,0,39.9,0,59.9,0c3.8,0,7.8-1.2,7.1-5.4c-0.4-2.2-4.6-5.1-7.2-5.3c-9.7-0.6-19.5-0.2-29.3-0.2  c-10,0-20,0.1-29.9,0c-4.2-0.1-7.8,1-8,5.6C88.3,183.3,91.9,184.3,95.8,184.3z"></path>	<path class="st0" d="M95.8,183.3c-2.7,0-4.5-0.5-5.5-1.5c-0.6-0.7-0.9-1.6-0.9-2.8c0.1-2.1,0.9-4.6,6.5-4.6c0.2,0,0.3,0,0.5,0  c3.3,0,6.6,0,10,0c3.3,0,6.6,0,10,0c3.3,0,6.7,0,10,0c2.8,0,5.6,0,8.4-0.1c2.8,0,5.6-0.1,8.4-0.1c4.9,0,8.8,0.1,12.5,0.3  c2.2,0.2,6,2.9,6.3,4.5c0.2,1.1,0,1.9-0.5,2.5c-0.9,1.1-2.9,1.7-5.6,1.7H95.8z"></path>	<path class="st0" d="M95.1,152.4c10.2-0.1,20.4,0,30.6,0s20.4-0.1,30.6,0c3.9,0,7.1-1.6,6.4-5.3c-0.4-2.1-4.2-5-6.6-5  c-20.4-0.4-40.8-0.2-61.2-0.3c-3.8,0-6.6,1.3-6.6,5.4C88.5,151.2,91.4,152.4,95.1,152.4z"></path>	<path class="st0" d="M95.1,151.4c-4.9,0-5.7-2.3-5.8-4.2c0-2,0.6-4.4,5.6-4.4c6.8,0,13.6,0,20.4,0c13.4,0,27.2,0,40.8,0.3  c2.1,0,5.3,2.7,5.6,4.2c0.2,1,0,1.9-0.5,2.5c-0.8,1-2.6,1.6-4.9,1.6c-3.4,0-6.8,0-10.2,0c-3.4,0-6.8,0-10.2,0c-3.4,0-6.8,0-10.2,0  c-3.4,0-6.8,0-10.2,0c-3.4,0-6.8,0-10.2,0C101.9,151.4,98.5,151.4,95.1,151.4z"></path>	<path class="st0" d="M156.3,237.5c-20.4-0.4-40.8-0.2-61.2-0.3c-3.8,0-6.7,1.3-6.7,5.3c-0.1,4,2.8,5.3,6.6,5.3c10-0.1,20,0,30,0  c10.4,0,20.8-0.1,31.3,0c3.8,0,7.1-1.5,6.5-5.2C162.4,240.6,158.6,237.6,156.3,237.5z"></path>	<path class="st0" d="M95,246.8c-2.2,0-3.8-0.5-4.7-1.4c-0.7-0.7-1-1.6-0.9-2.9c0-1.9,0.6-4.3,5.7-4.3c6.5,0,12.9,0,19.4,0h1.9  c12.3,0,26.3,0,39.8,0.3c1.9,0.1,5.2,2.9,5.5,4.3c0.2,1,0,1.8-0.6,2.4c-0.9,1-2.7,1.6-5,1.6c-3.5,0-7,0-10.5,0c-3.5,0-7,0-10.4,0  c-3.5,0-6.9,0-10.4,0c-3.3,0-6.7,0-10,0c-3.3,0-6.7,0-10,0C101.7,246.8,98.3,246.8,95,246.8z"></path>	<path class="st0" d="M95.6,216.2c9.8-0.1,19.5,0,29.3,0c10.4,0,20.8,0.3,31.2-0.2c2.4-0.1,4.7-3.3,7-5.1c-2.3-1.8-4.5-5.2-6.8-5.2  c-20.4-0.4-40.8-0.2-61.2-0.3c-3.7,0-6.9,1.2-6.8,5.3C88.4,214.9,91.5,216.3,95.6,216.2z"></path>	<path class="st0" d="M141.9,215.3c-2.8,0-5.7,0-8.5,0c-2.8,0-5.7,0-8.5,0c-3.3,0-6.5,0-9.8,0c-3.2,0-6.5,0-9.7,0  c-3.3,0-6.5,0-9.8,0l-0.4,0c-5.8,0-5.9-3.4-5.9-4.5c0-1.2,0.3-2.2,0.9-2.9c0.9-0.9,2.6-1.4,4.9-1.4c6.5,0,12.9,0,19.4,0h1.9  c12.3,0,26.3,0,39.8,0.3c1.1,0,2.5,1.4,3.9,2.8c0.5,0.5,0.9,1,1.4,1.4c-0.4,0.4-0.8,0.8-1.3,1.2c-1.5,1.4-3,2.9-4.2,2.9  C152,215.2,147.5,215.3,141.9,215.3z"></path>	<path class="st0" d="M156.3,301.5c-20.4-0.4-40.8-0.2-61.2-0.3c-3.8,0-6.7,1.3-6.7,5.3c-0.1,4,2.8,5.3,6.6,5.3c10-0.1,20,0,30,0  c10.4,0,20.8-0.1,31.3,0c3.8,0,7.1-1.5,6.5-5.2C162.4,304.6,158.6,301.6,156.3,301.5z"></path>	<path class="st0" d="M95,310.8c-2.2,0-3.8-0.5-4.7-1.4c-0.7-0.7-1-1.6-0.9-2.9c0-1.9,0.6-4.3,5.7-4.3c6.5,0,12.9,0,19.4,0h1.9  c12.3,0,26.3,0,39.8,0.3c1.9,0.1,5.2,2.9,5.5,4.3c0.2,1,0,1.8-0.6,2.4c-0.9,1-2.7,1.6-5,1.6c-3.5,0-7,0-10.5,0c-3.5,0-7,0-10.4,0  c-3.5,0-6.9,0-10.4,0c-3.3,0-6.7,0-10,0c-3.3,0-6.7,0-10,0C101.7,310.8,98.3,310.8,95,310.8z"></path>	<path class="st0" d="M95.6,280.3c9.8-0.1,19.5,0,29.3,0c10.4,0,20.8,0.3,31.2-0.2c2.4-0.1,4.7-3.3,7-5.1c-2.3-1.8-4.5-5.2-6.8-5.2  c-20.4-0.4-40.8-0.2-61.2-0.3c-3.7,0-6.9,1.2-6.8,5.3C88.4,278.9,91.5,280.3,95.6,280.3z"></path>	<path class="st0" d="M141.9,279.4c-2.8,0-5.7,0-8.5,0c-2.8,0-5.7,0-8.5,0c-3.3,0-6.5,0-9.8,0c-3.2,0-6.5,0-9.7,0  c-3.3,0-6.5,0-9.8,0c-5.5,0-6.2-2.6-6.3-4.5c0-1.2,0.3-2.2,0.9-2.8c0.9-0.9,2.6-1.4,4.9-1.4c6.8,0,13.6,0,20.4,0  c13.4,0,27.2,0,40.8,0.3c1.1,0,2.5,1.4,3.9,2.8c0.5,0.5,0.9,1,1.4,1.4c-0.4,0.4-0.8,0.8-1.3,1.2c-1.5,1.4-3,2.9-4.2,2.9  C152,279.3,147.5,279.4,141.9,279.4z"></path>	<path class="st0" d="M255,306.8c-1.4,0-3-0.5-4.3-3.9c-3.3-9.1-6.7-18.2-10.1-27.2c-3.4-9.1-6.7-18.1-10.1-27.2  c-0.2-0.5-0.4-1-0.7-1.7l-0.5-1.1l-1,0.6l-0.4,0.2c-0.3,0.2-0.6,0.4-1,0.6c-4.2,2.9-8.3,5.9-12.5,8.9c-4.2,3-8.4,6-12.6,8.9  c-1.1,0.8-2.2,1.2-3.4,1.2c0,0,0,0,0,0c-2.1,0-3.6-1.3-4-3.3c-0.3-1.4,0-3.1,0.3-4.6c1.4-8.3,2.9-16.5,4.4-24.8  c1.5-8.4,3-16.8,4.4-25.1c2.5-13.9,5-27.9,7.4-42l0.4-2c0.7-3.7,1.4-7.7,2-11.6c0.4-3,1.5-4.6,3.6-5.5h2.3c0.3,0.2,0.5,0.4,0.8,0.5  c1.1,0.8,2.2,1.6,3.2,2.5c26.3,24.4,52.9,49.3,78.6,73.3l0.4,0.4c1.2,1.1,2,2.1,2.1,3.4c0.1,1.4-0.3,2.7-1.1,3.6  c-0.8,0.9-1.9,1.4-3.3,1.4L269,233h-3.1l0.3,1.2c0.2,0.6,0.3,1.1,0.5,1.6l0.1,0.4c3.4,9.1,6.7,18.1,10.1,27.1  c3.4,9,6.7,18.1,10.1,27.1c0.7,1.8,0.8,3.4,0.2,4.5c-0.5,1.1-1.7,2-3.5,2.6c-4.4,1.5-8.7,2.9-13,4.4c-4.3,1.4-8.6,2.9-13,4.3  C256.6,306.6,255.8,306.8,255,306.8z M232,233.5c1.8,0,3.3,1.3,4.2,3.6c2.4,6.5,4.8,13,7.2,19.6c2.4,6.6,4.9,13.1,7.3,19.7  c1.7,4.5,3.3,8.9,5,13.4l2.5,6.7l0.9-0.3c5.8-1.9,11.5-3.8,17.4-5.8l1-0.3l-0.4-1c-0.3-0.7-0.5-1.3-0.7-1.8l-0.1-0.2  c-6.8-18.3-13.8-37.3-20.7-55.9c-0.7-1.8-0.5-3.4,0.3-4.7c0.9-1.3,2.5-2.1,4.2-2.1c5.3,0,10.7-0.2,16-0.4c2.6-0.1,5.2-0.2,7.9-0.2  c0,0,0.1,0,0.1,0c0.7,0,1.3,0,2.4-0.1l2.2-0.2l-1.6-1.5c-23-21.4-45.6-42.5-64.6-60.3l-1.3-1.3l-3.4,19.6c-4,22.6-8.1,45.9-12,69.1  l-0.4,2.4l2.7-1.9c0.3-0.2,0.5-0.4,0.7-0.5c4.2-2.9,8.4-5.9,12.5-8.8c2.4-1.7,4.8-3.4,7.2-5.1c0.7-0.5,1.5-1.1,2.4-1.4  C231.1,233.6,231.5,233.5,232,233.5z"></path>	<circle class="st0" cx="120.9" cy="58.2" r="5.2"></circle>	<path class="st0" d="M120.9,62.4c-2.3,0-4.2-1.9-4.2-4.2s1.9-4.2,4.2-4.2s4.2,1.9,4.2,4.2S123.2,62.4,120.9,62.4z"></path></g></svg>