<svg xmlns="http://www.w3.org/2000/svg" xmlns:xlink="http://www.w3.org/1999/xlink" id="Layer_1" x="0px" y="0px" viewBox="0 0 400 400" style="enable-background:new 0 0 400 400;" xml:space="preserve"><style type="text/css">	.st0{fill:#1D1A4E;}</style><g>	<path class="st0" d="M345.9,74.5C342.4,61.7,331,53,317.8,53c-78.5,0-156.9,0-235.4,0C66,53,53,66,53,82.3c0,78.4,0,156.8,0,235.2  c0,14.1,9.4,25.8,23.2,28.9c0.5,0.1,1,0.4,1.5,0.6c81.5,0,163.1,0,244.6,0c2-0.7,4.2-1.2,6.1-2c9.5-4,15.5-11.1,18-21.1  c0.1-0.5,0.4-1,0.6-1.5c0-81.6,0-163.1,0-244.7C346.6,76.6,346.2,75.6,345.9,74.5z M62.9,83.1c0.1-11.8,8.5-20.3,20.3-20.3  c77.5,0,155,0,232.5,0c10.3,0,17.9,5.4,20.4,14.3C336.6,79,337,81,337,83c0.1,8.8,0,17.6,0,26.4c0,0.5-0.1,0.9-0.2,1.8  c-91.3,0-182.4,0-273.9,0c0-0.9,0-1.8,0-2.7C62.9,100.2,62.8,91.7,62.9,83.1z M337.2,125.1c0,63.6,0,127.3,0,190.9  c0,12.9-8.2,21.2-21.1,21.2c-77.5,0-155,0-232.5,0c-12.4,0-20.7-8.4-20.7-20.7c0-63.9,0-127.9,0-191.8c0-0.9,0-1.9,0-2.9  c91.6,0,182.8,0,274.4,0C337.2,123,337.2,124,337.2,125.1z"></path>	<path class="st0" d="M89.7,210.5c-2.4,1.6-3,4.4-1.6,6.8c1.4,2.2,4,2.9,6.5,1.7c0.8-0.4,1.5-0.8,2.2-1.3  c15.1-9,30.1-18.1,45.2-27.1c5.6-3.3,5.6-7.2,0-10.5c-12.5-7.5-25.1-15-37.6-22.5c-3.2-1.9-6.3-4.1-9.6-5.6  c-1.5-0.7-4.1-0.5-5.5,0.4c-1.1,0.7-1.9,3.2-1.7,4.7c0.2,1.4,1.8,2.9,3.1,3.7c9.9,6.1,19.9,12,29.9,18c3.5,2.1,7,4.2,10.9,6.6  c-11.6,7-22.7,13.7-33.9,20.3C95.1,207.3,92.3,208.8,89.7,210.5z"></path>	<path class="st0" d="M87.7,263.7c0.7,0,1.3,0,2,0c34.3,0,68.7,0,103,0c1,0,1.9,0.1,2.9-0.1c2.5-0.3,4.4-2.4,4.4-4.8  c0-3-2.1-4.9-5.8-4.9c-17.6,0-35.2,0-52.8,0c-17.9,0-35.8,0-53.6,0c-3.2,0-5.3,1.9-5.5,4.7C82.2,261.4,84.5,263.6,87.7,263.7z"></path>	<path class="st0" d="M258.4,302.9c-0.5,0-1,0-1.4,0c-29.8,0-59.7,0-89.5,0c-1.1,0-2.3,0.1-3.4,0.4c-3.4,1.2-4.5,5.6-1.8,7.9  c1.2,1,3.1,1.4,4.7,1.5c15.1,0.1,30.2,0.1,45.3,0.1c15.3,0,30.6,0,45.9,0c3.4,0,5.5-2,5.5-4.9S261.5,303,258.4,302.9z"></path>	<path class="st0" d="M244.2,284.1c0.4,2.6,2.5,4.2,6,4.2c20.5,0,41,0,61.4,0c0.8,0,1.7-0.1,2.5-0.4c2.3-0.7,3.5-2.4,3.4-4.7  c-0.1-2.4-1.4-4.2-3.9-4.6c-1.1-0.2-2.3-0.2-3.4-0.2c-9.8,0-19.5,0-29.3,0c-4.9,0-9.8,0-14.6,0c-5.5,0-11.1-0.1-16.6,0  C245.9,278.5,243.7,280.8,244.2,284.1z"></path>	<path class="st0" d="M173.5,278.4c-0.8,0-1.5,0-2.3,0c-3.4,0.2-5.6,2.2-5.5,5c0.1,2.7,2.2,4.8,5.4,4.9c5.6,0.1,11.3,0,16.9,0  c12.9,0,25.8,0,38.7,0c0.8,0,1.5,0,2.3,0c3.2-0.2,5.3-2.1,5.4-4.9c0.1-2.8-2.1-4.9-5.5-5c-9.6-0.1-19.1,0-28.7,0l0,0  C191.2,278.4,182.3,278.4,173.5,278.4z"></path>	<path class="st0" d="M145.1,302.8c-18.8,0-37.7,0-56.5,0c-3.8,0-6.2,1.9-6.2,4.9s2.3,4.9,6.1,4.9c9.4,0,18.8,0,28.1,0  c9.5,0,18.9,0,28.4,0c1.3,0,2.8-0.2,3.8-0.8c1.8-1.1,2.6-3,2-5.2C150,303.7,147.8,302.8,145.1,302.8z"></path>	<path class="st0" d="M161.8,219.6c9.5,0,18.9,0,28.4,0c9.4,0,18.8,0,28.1,0c3.8,0,6.2-1.9,6.2-4.9s-2.4-4.9-6.1-5  c-18.8,0-37.7,0-56.5,0c-3.7,0-6.1,2.1-6,5C155.9,217.7,158.2,219.6,161.8,219.6z"></path>	<path class="st0" d="M264.6,256.2c-0.8,1.2-0.9,3.6-0.2,4.7c0.9,1.3,2.9,2.6,4.5,2.7c7.2,0.3,14.3,0.1,21.5,0.1  c7.3,0,14.5,0,21.8,0c3.1,0,5.3-2.1,5.4-4.8c0.1-2.7-2.2-4.9-5.2-4.9c-14.5,0-29.1-0.1-43.6,0.1  C267.4,254.1,265.4,255.1,264.6,256.2z"></path>	<path class="st0" d="M312.1,302.9c-11,0-22,0-32.9,0c-3.5,0-5.7,2.2-5.6,5.1s2.1,4.7,5.7,4.7c5.4,0,10.9,0,16.3,0  c5.5,0,11.1,0,16.6,0c3.3,0,5.6-2.1,5.5-4.9C317.6,305,315.4,302.9,312.1,302.9z"></path>	<path class="st0" d="M215.6,253.9c-3.6,0-5.8,1.9-5.8,4.8s2.3,5,5.8,5c10.9,0,21.8,0,32.7,0c3.5,0,5.8-2.1,5.7-5  c-0.1-2.8-2.3-4.7-5.7-4.8c-5.4,0-10.9,0-16.3,0C226.5,253.9,221.1,253.9,215.6,253.9z"></path>	<path class="st0" d="M87.9,288.3c4.7,0.1,9.4,0,14.1,0l0,0c4.8,0,9.6,0.1,14.3,0c3.2-0.1,5.2-2.1,5.2-5c0-2.8-2-4.8-5.2-4.9  c-9.6-0.1-19.1-0.1-28.7,0.1c-1.5,0-3.6,1.2-4.5,2.4C80.9,284.2,83.5,288.2,87.9,288.3z"></path>	<path class="st0" d="M150.6,278.4c-4.7-0.1-9.3-0.1-14,0c-3.2,0.1-5.2,2.1-5.2,4.9s2,4.8,5.2,4.9c2.3,0.1,4.6,0,6.9,0  c2.4,0,4.8,0.1,7.2,0c3.2-0.2,5.2-2.1,5.1-5C155.8,280.4,154,278.5,150.6,278.4z"></path>	<path class="st0" d="M263.3,102c8.3,0.2,16.6,0,25,0l0,0c8,0,16.1,0,24.1,0c0.4,0,0.8,0,1.1-0.1c8-0.5,14.2-7,14.1-14.9  c-0.1-7.7-6.6-14.6-14.4-14.6c-16.7-0.1-33.5-0.2-50.2,0c-9,0.1-15.6,8.8-13.8,17.6C250.6,97.1,256.1,101.8,263.3,102z M259.4,86.5  c0.4-1.4,1.9-2.5,3.2-3.5c0.6-0.4,1.7-0.3,2.5-0.3c15.4,0,30.8,0,46.2,0c4,0,5.7,1.4,5.8,4.4c0.1,3-1.8,4.7-5.2,4.7  c-7.9,0-15.9,0-23.8,0s-15.9,0-23.8,0C260.8,91.8,258.6,89.6,259.4,86.5z"></path>	<path class="st0" d="M126.6,102c8.2,0,14.8-6.7,14.8-14.8c0-8-6.8-14.8-14.8-14.8c-8.2,0-15.1,6.9-14.9,15  C111.7,95.5,118.4,102,126.6,102z M126.5,82.7c2.7,0,4.6,2,4.5,4.8c-0.1,2.6-2,4.4-4.6,4.4c-2.7,0-4.6-2.1-4.5-4.8  C122,84.5,123.9,82.7,126.5,82.7z"></path>	<path class="st0" d="M87.3,102c8.3,0,14.7-6.4,14.7-14.7c0-8.2-6.5-14.8-14.6-14.9c-8,0-14.9,6.6-14.9,14.6  C72.4,95.4,79,102,87.3,102z M87.3,82.8c2.6,0,4.6,1.9,4.6,4.5c0,2.5-2.1,4.5-4.5,4.6c-2.5,0-4.5-2-4.5-4.5  C82.8,84.6,84.6,82.8,87.3,82.8z"></path>	<path class="st0" d="M165.7,102c8.2,0,14.8-6.5,14.9-14.6c0-8.2-6.8-15-14.9-14.9c-8.2,0-14.6,6.6-14.6,14.9  C151,95.6,157.4,102,165.7,102z M165.7,82.7c2.6,0,4.6,1.9,4.6,4.5c0,2.5-2.1,4.5-4.5,4.6c-2.5,0-4.5-2-4.5-4.5  C161.2,84.5,163,82.7,165.7,82.7z"></path>	<path class="st0" d="M239.1,166.4c0.4-0.3,0.7-0.6,1.1-0.9c11-8.8,23.6-13.2,37.3-13.4c13.1,0.1,24.8,3.8,35.2,11.2  c1.2,0.9,2.4,1.9,3.6,2.7c1.1,0.8,2.4,0.7,3.2-0.2c0.8-0.9,0.7-2.2-0.3-3.1c-0.5-0.4-1-0.9-1.5-1.2c-21.3-15.7-44.1-18.1-68.2-7.1  c-4.8,2.2-9.1,5.2-13.1,8.6c-1.1,0.9-1.2,2.3-0.4,3.2C236.7,167.3,237.9,167.3,239.1,166.4z"></path>	<path class="st0" d="M277.4,165.7c-9.4,0.2-17.5,3.9-24.5,10.5c-1.7,1.6-1.9,2.9-0.9,4c1.1,1.1,2.2,0.9,4-0.8  c7.8-7.4,16.9-10.7,27.7-8.6c6.2,1.2,11.5,4.4,16,8.8c1.2,1.2,2.5,1.2,3.5,0.2c0.9-1,0.8-2.3-0.3-3.4  C295.8,169.7,287.5,165.9,277.4,165.7z"></path>	<path class="st0" d="M304.7,203.3c-0.6-0.1-1.6,0.2-2,0.6c-1.1,1.2-1.9,2.5-2.9,3.8c-1,1.4-2.1,2.8-3.2,4.3c-2-2.7-4-5.3-5.9-7.9  c-0.5-0.7-1.2-1.4-2.2-1s-1.2,1.2-1.2,2.2c0,4.7,0,9.4,0,14c0,0.4-0.1,0.9,0.1,1.1c0.4,0.6,1.1,1.4,1.6,1.4c0.7,0,1.3-0.8,1.8-1.3  c0.2-0.3,0.1-0.9,0.1-1.4c0-2.9,0-5.8,0-8.6c1.5,1.6,2.6,3.2,3.8,4.9c1.2,1.7,2.2,1.7,3.6,0.1c1.3-1.7,2.7-3.4,4-5  c0.1,0,0.2,0.1,0.3,0.1c0,0.5,0,0.9,0,1.4c0,2.8,0,5.5,0,8.3c0,1.1,0.5,1.8,1.7,1.8c1.1,0,1.5-0.8,1.5-1.8c0-5.1,0-10.2,0-15.3  C305.7,204.3,305.1,203.4,304.7,203.3z"></path>	<path class="st0" d="M251.9,219.8c3.3,3,9.8,3.2,13.2,0.3c0.5-0.4,0.9-1.3,1-2c0.1-1.6,0.1-3.3,0-4.9c0-1.4-0.6-2.1-2-2.1  c-1.7,0-3.4,0-5.1,0c-1.1,0-1.8,0.5-1.9,1.6c0,1.2,0.8,1.6,1.8,1.6c1.3,0,2.5,0,3.9,0c0,1,0.1,1.9,0,2.8c0,0.3-0.3,0.8-0.6,1  c-2.8,1.6-8.2,1.3-9.5-3.7c-0.7-2.9,0.3-5.7,2.6-7.3c2.4-1.6,4.8-1.5,7.4,0.5c1,0.7,1.8,0.7,2.6-0.2c0.7-0.9,0.5-1.8-0.3-2.5  c-0.7-0.6-1.4-1.1-2.2-1.4c-4.3-1.9-9.7-0.3-12.2,3.6C248,211.1,248.7,216.9,251.9,219.8z"></path>	<path class="st0" d="M279.8,218.2c-0.7,0.5-1.6,1-2.4,0.9c-1.8-0.2-3.5-0.8-5.2-1.4c-0.9-0.4-1.7-0.6-2.4,0.2  c-0.7,0.8-0.4,2.1,0.6,2.8c1.8,1.3,3.9,1.6,6.9,1.8c0.8-0.3,2.6-0.6,4.2-1.4c1.9-1,2.6-2.8,2.5-5c-0.1-2.1-1.2-3.4-3-4.2  c-0.8-0.3-1.6-0.6-2.4-0.9c-1.3-0.4-2.7-0.8-4-1.3c-0.9-0.4-1.6-1-1.5-2.1c0.1-1.2,0.9-2,2-2c1.6,0,3.3,0.3,4.9,0.8  c1,0.3,1.8,0.7,2.5-0.3c0.6-0.8,0.2-1.8-1-2.6c-2.7-1.7-7-1.7-9.6,0.1c-3.2,2.2-3,6.8,0.4,8.6c1.3,0.7,2.7,1,4.1,1.5  c1,0.4,2.2,0.7,3.1,1.2C280.8,215.8,280.9,217.3,279.8,218.2z"></path>	<path class="st0" d="M291,192.8c1-1,0.9-2.3-0.3-3.5c-3.6-3.4-7.9-5.4-13.3-5.4c-4.9,0.1-9.3,2.1-12.9,5.8  c-0.5,0.5-0.7,1.6-0.6,2.4c0.1,0.6,0.9,1.3,1.5,1.4c0.8,0.1,1.8-0.3,2.3-0.8c2.4-2.2,5.1-3.8,8.4-4.2c4.6-0.5,8.3,1.1,11.6,4.2  C288.8,193.7,290.1,193.8,291,192.8z"></path></g></svg>