<svg xmlns="http://www.w3.org/2000/svg" xmlns:xlink="http://www.w3.org/1999/xlink" id="Layer_1" x="0px" y="0px" viewBox="0 0 400 400" style="enable-background:new 0 0 400 400;" xml:space="preserve"><style type="text/css">	.st0{fill:#1D1A4E;}</style><g>	<path class="st0" d="M346.1,167.3c-5.7-25.9-31.2-43.3-57.6-39.2c-3.1,0.5-6.2,1-9.4,1.6c2.9-15.6-1.6-28.2-14-37.5  c-12.2-9.1-25.8-9.8-39.4-5.5c-2.9-5.2-5.1-10.5-8.4-14.8c-13.1-16.8-30.6-23.5-51.6-21.3c-28.2,3-51.2,28.2-45.9,57.6  c-0.2,0.1-0.4,0.2-0.6,0.2c-1.5,0-3,0.1-4.5,0.1c-10.1-0.1-19.7,2.3-28.7,6.7c-32.6,16.1-43.2,55.2-22.2,83.8  c12.8,17.5,30.6,25.5,52,26.1c10.2,0.3,20.5,0.1,30.7,0c2.3,0,3.5,0.6,4.7,2.7c11,18.7,27.6,28.9,49.2,28.5  c21.4-0.3,37.5-10.8,48-29.5c0.9-1.6,1.9-2.2,3.7-2.2c14.4,0.1,28.9,0.1,43.3,0c10.6-0.1,20.3-3,29.2-8.9  C341.3,204.7,350,185.1,346.1,167.3z M203.8,248.6c-0.8-3,1-7.4-4-7.6c-5.3-0.2-3.9,4.4-4.4,7.5c-23.6-0.8-42.7-22.3-43.5-43.9  c3-1,8.3,1.4,8-4.5c-0.2-4.9-4.8-3.3-7.8-3.8c-0.2-16.7,16-41.1,43.1-43.2c0.9,2.9-1,7.7,4.3,7.7c5-0.1,3.5-4.6,4.1-7.5  c22.7,0.9,42.4,21.6,43.4,42.9c-2.9,0.9-8-1.2-8,4.3c0.1,5.3,4.9,3.4,7.8,4C249.9,223.1,224.7,248.9,203.8,248.6z M309.7,214.3  c-4.6,1.5-9.6,2.3-14.4,2.4c-14,0.3-28.1,0.1-42.3,0.1c5.7-26.3-1.4-47.7-23.7-62.4c-19.3-12.7-40-12.7-59.4,0  c-22.6,14.8-29.6,36.5-23.7,62.9c-2.8,0-5.6,0-8.3,0c-9.4-0.1-18.9,0.2-28.3-0.5c-23.1-1.7-46.6-19.2-49-46.4  C58.9,151.6,67,136.9,82,126c12.5-9.1,26.8-12.3,42.1-10.8c3.3,0.3,5.4-1.7,4.4-4.7c-7.1-22.7,8.5-46,32.4-51.9  c20.2-5.1,41.5,2.6,52.1,19.1c2.6,4,4.2,8.8,5.7,13.4c1.5,4.9,2.5,5.6,7.1,3.2c16.4-8.7,41.5-1.2,46.2,20.2  c1.3,6.2,0.5,12.2-2.6,17.7c-1.1,2-1.8,3.9,0,5.8c1.8,1.9,3.8,1.1,5.8,0.2c21.5-9.5,46.9-2,58.3,17.2  C346.8,177.7,335.4,206.2,309.7,214.3z"></path>	<path class="st0" d="M157.4,253.9c-2.2-0.1-3.6,1.1-4.1,3.2c-0.2,0.9-0.1,1.8-0.1,2.7c0,4.5,0,9,0,13.7c-8.9,0-17.4,0-25.9,0  c-4.1,0-5.4,1.3-5.4,5.4c0,6.3,0,12.6,0,18.9c-15,4.1-23.8,15.6-22,28.4c1.9,14,12.5,23.6,25.9,23.6c13.3,0,24.1-9.5,26-23.2  c1.9-13.2-6.8-24.6-21.9-28.9c0-5.4,0-10.7,0-16.4c1.3,0,2.3,0,3.4,0c7.7,0,15.5,0,23.2,0c2.5,0,4.4-0.9,4.5-3.7  c0.1-6.7,0-13.4,0-20.2C160.9,255.1,159.5,254,157.4,253.9z M144.5,323.9c-0.2,10.2-8.6,18.6-18.7,18.6s-18.7-8.7-18.7-18.9  c0.1-10.4,8.1-18.3,18.6-18.3C136.1,305.2,144.7,313.8,144.5,323.9z"></path>	<path class="st0" d="M277.1,297.8c0-6.5,0-12.8,0-19.2c0-3.7-1.4-5.1-5.1-5.1c-7.5,0-15,0-22.6,0c-1.2,0-2.3,0-3.7,0  c0-5.3,0-10.2,0-15.1c0-2.6-1-4.3-3.7-4.5c-2.4-0.2-4,1.6-4.1,4.5c0,5.9,0,11.8,0,17.8c0,3.5,1.3,4.8,4.9,4.9c4.9,0.1,9.8,0,14.7,0  c3.8,0,7.6,0,11.5,0c0,5.8,0,11.3,0,16.8c-15.1,4.1-23.8,15.7-22,28.9c1.9,13.6,12.7,23.2,26,23.2c13.6,0,24.2-9.8,26-23.9  C300.8,313.1,291.9,301.6,277.1,297.8z M273.1,342.5c-10-0.1-18.6-8.8-18.6-18.7c0-10.3,8.3-18.5,18.8-18.5  c10.4,0,18.5,8,18.5,18.4C291.9,333.8,283.2,342.6,273.1,342.5z"></path>	<path class="st0" d="M203.5,297.8c0-8.4,0-16.5,0-24.6c0-4.7-1.1-6.5-4-6.4c-2.8,0.1-4,2-4,6.5c0,8.1,0,16.2,0,24.5  c-13.9,2.7-23.5,14.3-21.9,29.5c1.3,11.6,11.8,21.6,23.9,22.4c12.8,0.9,24.3-7.5,27.2-19.9c1.5-6.3,0.9-12.4-2.1-18.1  C218.7,304,212.1,299.6,203.5,297.8z M199.5,342.4c-10.1,0-18.7-8.8-18.6-18.9c0-10,8.7-19,19.5-18.4c9.8,0.5,18,8.6,17.9,18.8  C218.1,333.8,209.4,342.5,199.5,342.4z"></path>	<path class="st0" d="M115.7,199.5c-0.6-0.4-1.7-0.1-2.6-0.2c-21.3-1.2-35.1-16.6-34.9-32.1c0-3.1-1.7-4.6-4.1-4.5  c-2.4,0.2-4,2-3.7,4.9c0.2,2.9,0.5,5.8,1.3,8.6c4.7,17.3,21.3,29.7,40.1,30.4c1.6,0,2.7,0.1,3.8,0c2-0.2,3.8-1.3,3.3-3.4  C118.6,201.8,117,200.5,115.7,199.5z"></path>	<path class="st0" d="M294.7,144.5c-2.5,0.1-4,1.1-4.2,3.6c-0.2,2.3,1.5,4,4.1,4.2c2,0.2,4,0.3,6,0.6c12.6,2.5,20.8,12.6,20.7,22.4  c0,2.7,1.8,4.5,4,4.3c3-0.2,3.3-2.5,3.5-5.1c-0.2-1.6-0.4-3.5-0.8-5.3C324.4,154.8,310.2,144.2,294.7,144.5z"></path>	<path class="st0" d="M175.2,68c-0.6,0-1.2,0-1.8,0c-2.5-0.1-4.1,0.9-4.3,3.5c-0.2,2.3,1.4,4,4,4.3c3,0.4,6,0.5,8.9,1.2  c10.2,2.8,17.2,9,19.8,19.6c0.5,2,1.6,3.4,3.4,3c1.9-0.4,3.7-1.7,3.6-4.2c-0.1-1-0.3-2-0.6-2.9C204.2,78.8,190.5,68.6,175.2,68z"></path>	<path class="st0" d="M206.9,193.5c-3.3-2.5-3.6-5.3-3.4-8.7c0.1-1,0-2,0-3c0-2.3,0-4.6,0-6.9c-0.1-3.3-1.5-5-4-4.9s-3.9,1.8-4,5  c-0.1,4.2-0.1,8.4,0,12.6c0.1,2.2-0.5,3.6-2.4,4.9c-5,3.5-5.7,10.4-1.9,15.1c3.9,4.7,10.8,5.2,15.3,1.2  C211.2,204.7,211.7,197.3,206.9,193.5z M199.6,204c-1.9,0.4-3.2-0.9-3.2-3c-0.1-2.2,1.2-3.6,3.2-3.4c1.3,0.2,2.4,1.6,3.7,2.5  c0,0.5,0,0.9,0,1.4C202,202.4,200.9,203.8,199.6,204z"></path></g></svg>