<svg xmlns="http://www.w3.org/2000/svg" xmlns:xlink="http://www.w3.org/1999/xlink" id="Layer_1" x="0px" y="0px" viewBox="0 0 400 400" style="enable-background:new 0 0 400 400;" xml:space="preserve"><style type="text/css">	.st0{fill:#1D1A4E;}</style><g>	<path class="st0" d="M347,121.1c0-14-2-16-16.4-16c-21.6,0-43.2,0-64.9,0c-3,0-5.1-0.4-6.7-3.7c-13.5-26.3-35.4-40.5-64.8-40.6  c-29.7-0.1-51.8,14-65.9,40.1c-1.7,3.2-3.4,4.3-6.9,4.3c-18.8-0.2-37.5-0.2-56.3,0c-8.6,0.1-12,3.8-12,12.3c0,58.5,0,117.1,0,175.6  c0,10.4,3.1,13.5,13.7,13.5c17,0.1,34.1,0,51.1,0c14.5,0,28.9,0,44.6,0c-5.2,7.8-9.8,14.5-14.2,21.5c-2,3.2-4.2,5-8.3,4.6  s-8.3-0.1-12.8-0.1c0.2,2.7,0.3,4.5,0.4,6.5c48.8,0,97.1,0,145.5,0c0-2.2,0-4.1,0-6.4c-4.9,0-9.4,0.2-14-0.1  c-1.7-0.1-4.1-0.6-4.9-1.8c-5.3-7.5-10.2-15.2-16.1-24c2.9,0,4.4,0,5.8,0c30,0,60.1,0,90.1-0.1c10.2,0,13-2.8,13-12.8  C347,236.3,347,178.7,347,121.1z M193.4,67.3c37-0.1,66.4,29.1,66.4,66c0,36.6-29.2,66.2-65.7,66.3c-36.9,0.2-66.6-29.1-66.7-65.9  C127.3,96.7,156.4,67.4,193.4,67.3z M240.6,189.7c3.3-2.8,6.4-5.6,10-8.7c3.5,3.9,7.6,8.4,11.1,12.2c1.8-0.3,2.2-0.3,2.5-0.5  c7.4-6.6,7.4-6.6,14.7,0.6c9.5,9.4,19,18.9,28.3,28.4c8.3,8.5,8.7,19.5,1,27c-7.2,7-17.7,6.3-25.9-1.9c-9.3-9.3-18.6-18.6-28-27.9  c-7.5-7.5-7.5-7.5-0.2-15.7C249.4,198.5,245.1,194.2,240.6,189.7z M246.2,331.7c-31.2,0-61.3,0-92.4,0c5.5-8.3,10.5-16.1,15.8-23.7  c0.7-1.1,2.9-1.5,4.4-1.5c17.4-0.1,34.7-0.1,52.1,0c1.5,0,3.6,0.7,4.3,1.8C235.7,315.7,240.7,323.3,246.2,331.7z M341.2,295  c-0.4,4.1-3.9,4.6-7.4,4.6c-20.3,0-40.5,0-60.8,0c-68.1,0-136.2,0-204.2,0c-8.7,0-9.9-1.1-9.9-9.9c0-2.7,0-5.3,0-8.7  c94.4,0,188,0,282.5,0C341.3,285.6,341.7,290.3,341.2,295z M341.4,271.6c0,0.6-0.1,1.1-0.2,2.2c-93.8,0-187.6,0-282.3,0  c0-1.8,0-3.9,0-5.9c0-48.8,0-97.6,0-146.4c0-8.6,1-9.5,9.6-9.5c16.5,0,32.9,0,49.4,0c1.7,0,3.4,0.2,5.2,0.3  c-7.3,34.2,1.4,62.2,30.4,82.2c23.8,16.4,53.9,15.8,81.1-0.7c2.8,3.1,5.8,6.3,8.8,9.5c-3.7,8-3,11.6,3.5,18.1c10,10,20,20,30,30  c11.3,11.2,25.8,11.8,36.1,1.3c9.9-10.1,9.2-24.8-1.6-35.7c-10-10-20-20.1-29.8-30.2c-4.7-4.8-9.6-7.4-16.3-4  c-0.9,0.5-2.9-0.1-3.8-0.8c-2.6-2-4.9-4.3-6.1-5.4c3.7-11.5,8.3-21.5,10-32c1.7-10.3,0.4-21.2,0.4-32.4c-0.1,0,1.4-0.3,2.8-0.3  c21.6,0,43.2,0,64.9,0c6.7,0,8.1,1.3,8.1,7.5C341.4,170.2,341.4,220.9,341.4,271.6z"></path>	<path class="st0" d="M159.7,258.6c0-15.5,0-31.4,0-47.4c-2.5,0-4.4,0-6.9,0c0,16.2,0,32.1,0,48c-4.3,0-7.9,0-12.2,0  c0-12.7,0-25,0-37.7c-2.6,0.2-4.4,0.3-6.8,0.5c0,12.6,0,24.8,0,37.2c-4.2,0-7.7,0-12,0c0-7.3,0-14.5,0-21.7c-2.5,0-4.4,0-6.9,0  c0,7.4,0,14.6,0,21.6c-4.4,0-8.1,0-12.4,0c0-10.7,0-20.9,0-31.1c-6.5-0.7-6.6-0.7-6.6,4.8c0,8.7,0,17.5,0,26.5c-4.2,0-7.8,0-12.1,0  c0-5.6,0-11,0-16.6c-2.5,0-4.1,0-6.8,0c0,5.8,0,11,0,16.5c-3.7,0.3-6.8,0.6-10,0.8c0,2.3,0,4.1,0,5.9c34.4,0,68.5,0,102.5,0  C171.5,256.1,163.5,261.1,159.7,258.6z"></path>	<path class="st0" d="M249.5,133.7c-35.8-36.1-77.6-35-111.5,0C171.2,168.8,215.3,169.2,249.5,133.7z M216.6,120  c0.4-0.4,0.8-0.9,1.2-1.3c7.4,4.7,14.8,9.4,23.4,14.9c-8.6,5.5-16.1,10.2-23.5,14.9c-0.4-0.3-0.9-0.5-1.3-0.8  C221.3,138.5,222,129.2,216.6,120z M170.1,147.3c-0.3,0.4-0.7,0.8-1,1.1c-7.4-4.6-14.8-9.2-23.8-14.9c9-5.7,16.4-10.3,23.7-14.9  c0.4,0.3,0.8,0.6,1.2,0.8C165.6,128.8,165.1,138,170.1,147.3z M173.5,133.8c-0.1-11.1,8.6-20.1,19.8-20.2  c10.7-0.2,20.3,9.1,20.4,19.9c0.1,10.8-9.2,20.3-19.9,20.3C182.9,153.8,173.6,144.6,173.5,133.8z"></path>	<path class="st0" d="M190.2,186.7c2.2,0,4,0,6.1,0c0-5.3,0-10.3,0-15.4c-2.2,0-4,0-6.1,0C190.2,176.6,190.2,181.6,190.2,186.7z"></path>	<path class="st0" d="M178.9,98.5c-2.7-4.6-5.2-8.9-7.8-13.5c-2.1,1.2-3.7,2.1-5.9,3.4c2.8,4.9,5.3,9.2,7.9,13.7  C175.3,100.8,176.8,99.8,178.9,98.5z"></path>	<path class="st0" d="M207.9,168.3c2.7,4.7,5.1,8.9,7.9,13.6c2.1-1.3,3.9-2.3,5.9-3.5c-2.8-4.8-5.3-9-7.9-13.5  C211.8,166.1,210.2,167.1,207.9,168.3z"></path>	<path class="st0" d="M221.6,88.4c-2-1.2-3.6-2.1-5.9-3.5c-2.8,4.9-5.3,9.2-7.9,13.7c2.3,1.3,3.9,2.2,5.9,3.3  C216.4,97.4,218.9,93.1,221.6,88.4z"></path>	<path class="st0" d="M165.2,178.6c2.4,1.3,3.9,2,6,3.1c2.6-4.5,5.1-8.9,7.8-13.5c-2.3-1.3-3.9-2.2-5.9-3.4  C170.3,169.5,167.8,174,165.2,178.6z"></path>	<path class="st0" d="M196.4,79.9c-2.3,0.1-4.2,0.2-6.3,0.3c0,5.2,0,9.7,0,15.1c2.4,0,4.2,0,6.3,0C196.4,90.1,196.4,85.2,196.4,79.9  z"></path>	<path class="st0" d="M301,235.7c-1.9-1.7-3.3-3-4.9-4.4c-1.7,1.8-2.9,3.1-4.8,5.1c1.7,1.4,3.2,2.7,5,4.3  C297.9,239,299.3,237.5,301,235.7z"></path>	<path class="st0" d="M290.3,225.7c-1.8-1.7-3.2-3-4.8-4.5c-1.6,1.7-2.9,3.1-4.3,4.7c1.4,1.6,2.7,2.9,4.4,4.9  C287.3,228.9,288.7,227.4,290.3,225.7z"></path>	<path class="st0" d="M202.6,133.9c0.1-5.2-3.9-9.6-9.1-9.9c-5-0.2-9.5,4.1-9.7,9.2c-0.2,5.2,4,9.9,9,9.9  C197.8,143.3,202.5,138.8,202.6,133.9z"></path></g></svg>