<svg xmlns="http://www.w3.org/2000/svg" xmlns:xlink="http://www.w3.org/1999/xlink" id="Layer_1" x="0px" y="0px" viewBox="0 0 400 400" style="enable-background:new 0 0 400 400;" xml:space="preserve"><style type="text/css">	.st0{fill:#041C51;}	.st1{fill:#041C51;stroke:#041C51;stroke-miterlimit:10;}	.st2{fill:#041C51;stroke:#041C51;stroke-width:0.25;stroke-miterlimit:10;}</style><g>	<path class="st0" d="M287.3,335c-1.3-0.1-2.6-0.2-3.9-0.4c-2.6-0.2-5.3-0.5-7.9-0.8c-17.7-2.1-33.2-5.2-47.4-9.7  C191,312.5,158,293,130,266.2c-25.1-24.1-44.4-52.6-57.5-84.8c-9.3-22.9-15-46.8-17-71c-0.1-1.7-0.4-3.4-0.6-5.1  c-0.1-1-0.3-2.1-0.4-3.1V70.4h71.3c1.1,0.5,2.1,1,3.2,1.5c2.4,1.1,4.7,2.2,6.6,3.6c3.6,2.8,5.6,6.9,5.9,12  c0.5,10.9,1.2,24.5,4.4,37.4c0.8,3.7,1.9,7.4,2.9,11c0.3,1.1,0.6,2.2,0.9,3.3c1.7,6.2,0.4,11.8-4.1,17.6c-7,9-13.9,18.3-20.6,27.2  l-1.7,2.3c-1.3,1.6-1.3,4.1-0.5,5.7c14.9,27.9,33.2,48.6,56.1,63.4c3.7,2.4,7.5,4.7,11.2,6.9c2.3,1.4,4.6,2.7,6.8,4.1  c1.1,0.7,2.1,1.1,3.2,1.1c1.2,0,2.3-0.4,3.5-1.3l0.1-0.1c10-7.6,20.3-15.5,30.5-23.2c3.2-2.4,6.6-3.5,10.5-3.5  c1.7,0,3.4,0.2,5.2,0.7c1.6,0.4,3.3,0.8,5,1.3c6.9,1.8,14.1,3.6,21.3,4.9c7.2,1.3,14.9,1.9,22.8,1.9c9.7,0.1,17.8,6.3,19.7,15.2  l0,0.1c0.1,0.4,0.2,0.7,0.3,0.9V335H287.3z M81.9,79.7c-2.7,0-5.5,0-8.2,0c-3.1,0.1-5.7,1.1-7.5,3.1c-1.7,1.9-2.5,4.4-2.3,7.3  c0.1,2.2,0.2,4.4,0.3,6.6c0.4,8.7,0.9,17.8,2.1,26.7c2.8,21.1,8.8,42,18,62.3c18.7,41.3,46.9,74.9,84.1,99.8  c39.2,26.4,83.2,40,130.9,40.3c6.6,0,10.5-3.9,10.5-10.4c0.1-15.8,0.1-32,0-47.9c0-6.5-3.7-10.2-10.1-10.4  c-18.7-0.4-35.2-3.1-50.4-8.1c-1.3-0.4-2.6-0.7-3.8-0.7c-2.5,0-4.8,0.9-7.1,2.6c-7.1,5.5-14.4,11-21.5,16.4  c-4.1,3.1-8.2,6.2-12.3,9.3c-1.3,1-2.5,1.5-3.6,1.5c-0.8,0-1.6-0.2-2.5-0.7c-19.4-10.1-34.4-20.4-47-32.3  c-14.6-13.8-27.2-30.8-38.5-52.2c-1.9-3.6-1.6-6.1,0.8-9.2c5.3-6.8,10.6-13.8,15.6-20.5c3.2-4.2,6.3-8.4,9.5-12.5  c2.3-3.1,3-6.3,2-9.6c-5.3-16.6-8.1-33.7-8.2-50.9c0-6.7-3.9-10.5-10.8-10.5H98.3c-2.7,0-5.5,0-8.2,0  C87.4,79.7,84.7,79.7,81.9,79.7z"></path>	<path class="st0" d="M345.3,211.4c-1.2-4.1-3.8-6.6-8.1-7.1c-2-0.2-4-0.1-6.1-0.2c-3.1,0-4.2,1-4.2,4.1c0,7.6,0,15.1,0,22.7  c0,0.4,0,0.7,0,1.1c0.2,1.8,1.5,3.1,3.2,3.1c1.7-0.1,3-1.4,3-3.3c0-2.6,0-5.2,0-7.8c0-0.4,0-0.8,0-1.2c1,0,1.9,0,2.7,0  c2.8-0.1,5.2-0.9,7.1-3c1.3-1.4,1.9-3.1,2.5-4.8c0-1,0-2,0-3C345.5,211.9,345.3,211.7,345.3,211.4z M336.5,216.7  c-0.2,0-0.4,0-0.6,0c-0.9,0-1.7,0-2.7,0c0-2,0-4,0-6.1c1.1,0,2.2-0.1,3.3,0c1.5,0.1,2.7,1.4,2.7,3  C339.3,215.2,338.2,216.4,336.5,216.7z"></path>	<path class="st0" d="M290.8,217.7c1.8,3.4,4.7,5.1,8.5,5.3c1.7,0.1,2.9,1.4,2.9,3s-1.3,3-3,3.1c-1,0-2.1,0-3.2,0l0,0  c-0.9,0-1.9,0-2.8,0c-1.9,0-3.3,1.2-3.3,3c-0.1,1.8,1.2,3.2,3.2,3.3c2.4,0,4.9,0,7.3-0.2c5.3-0.4,9.3-6.2,7.8-11.3  c-1.2-4.3-4.3-6.8-9-7.1c-1.9-0.1-3.1-1.4-3-3.2c0-1.7,1.3-2.9,3.2-3c2,0,3.9,0,5.9,0c1.9,0,3.2-1.4,3.2-3.1c0-1.7-1.3-3.1-3.1-3.1  c-2.5,0-5-0.1-7.5,0.2C291.8,205.1,288,212.2,290.8,217.7z"></path>	<path class="st0" d="M318.5,235.2c1.6-0.4,2.4-1.5,2.4-3.3c0-4,0-8,0-12.1c0-3.1,0-6.2,0-9.3c0-1.2,0-2.3-0.1-3.5  c-0.1-1.5-1.5-2.7-3-2.7s-3,1.2-3,2.7c-0.1,8.5-0.1,17,0,25.5C314.8,234.4,316.7,235.6,318.5,235.2z"></path>	<path class="st1" d="M262.7,218.2c6.7-7.7,13.4-15.3,20.1-23c0.3-0.3,0.5-0.9,0.5-1.3c0-38.7,0-77.5,0-116.2c0-0.3,0-0.5,0-0.8  c-37.2,0-74.4,0-111.7,0c0,0.3,0,0.5,0,0.8c0,46.7,0,93.3,0,140c0,0.2,0,0.4,0,0.5C201.9,218.2,232.2,218.2,262.7,218.2z   M259.8,212.2c0-6,0-11.8,0-17.6c5,0,9.9,0,15.1,0C269.8,200.6,264.8,206.4,259.8,212.2z M177.4,82.8c33.3,0,66.5,0,99.9,0  c0,35.3,0,70.6,0,106c-7.8,0-15.6,0-23.4,0c0,7.9,0,15.6,0,23.5c-25.5,0-51,0-76.4,0C177.4,169.1,177.4,126,177.4,82.8z"></path>	<path class="st1" d="M192.2,71c33.3,0,66.6,0,99.9,0c0,0.3,0,0.6,0,0.8c0,35.8,0,71.6,0,107.4c0,0.4-0.2,0.9-0.4,1.2  c-1.6,2-3.3,3.9-5,5.9c-0.2,0.3-0.4,0.7-0.4,1c0,2.7,0,5.5,0,8.2c0,0.2,0,0.4,0.1,0.7c0.3-0.3,0.4-0.5,0.6-0.7  c3.5-4,6.9-7.9,10.4-11.9c0.5-0.5,0.7-1.1,0.7-1.8c0-38.6,0-77.2,0-115.9c0-0.3,0-0.6,0-0.9c-37.2,0-74.5,0-111.7,0  c0,2.9,0,5.8,0,8.8c2,0,3.9,0,5.9,0C192.2,72.9,192.2,71.9,192.2,71z"></path>	<path class="st0" d="M186.2,144.6c27.4,0,54.8,0,82.3,0c0-2,0-3.9,0-5.8c-27.5,0-54.9,0-82.3,0  C186.2,140.7,186.2,142.6,186.2,144.6z"></path>	<path class="st0" d="M186.2,162.2c18.6,0,37.2,0,55.8,0c0-2,0-3.8,0-5.8c-18.7,0-37.2,0-55.8,0  C186.2,158.4,186.2,160.2,186.2,162.2z"></path>	<path class="st2" d="M274.3,88.7c-31.4,0-62.7,0-94.1,0c0,0.5,0,1,0,1.4c0,0.5,0,0.9,0,1.4c31.4,0,62.7,0,94.1,0  C274.3,90.5,274.3,89.6,274.3,88.7z"></path>	<path class="st0" d="M186.2,109.2c0,5.9,0,11.7,0,17.6c5.9,0,11.7,0,17.5,0c0-5.9,0-11.7,0-17.6  C197.9,109.2,192.1,109.2,186.2,109.2z M197.9,121c-1.9,0-3.8,0-5.8,0c0-1.9,0-3.8,0-5.8c1.9,0,3.8,0,5.8,0  C197.9,117.1,197.9,119,197.9,121z"></path>	<path class="st0" d="M218.6,109.2c0,5.9,0,11.7,0,17.6c5.9,0,11.7,0,17.5,0c0-5.9,0-11.7,0-17.6  C230.2,109.2,224.4,109.2,218.6,109.2z M230.2,121c-1.9,0-3.8,0-5.8,0c0-2,0-3.9,0-5.8c1.9,0,3.8,0,5.8,0  C230.2,117.1,230.2,119,230.2,121z"></path>	<path class="st0" d="M250.9,126.9c5.9,0,11.7,0,17.6,0c0-5.9,0-11.7,0-17.6c-5.9,0-11.7,0-17.6,0  C250.9,115.2,250.9,121,250.9,126.9z M256.8,115.2c1.9,0,3.8,0,5.8,0c0,1.9,0,3.8,0,5.8c-2,0-3.9,0-5.8,0  C256.8,119.1,256.8,117.1,256.8,115.2z"></path></g></svg>