<svg xmlns="http://www.w3.org/2000/svg" xmlns:xlink="http://www.w3.org/1999/xlink" id="Layer_1" x="0px" y="0px" viewBox="0 0 400 400" style="enable-background:new 0 0 400 400;" xml:space="preserve"><style type="text/css">	.st0{fill:#1D1A4E;}</style><g>	<path class="st0" d="M94.1,317.7c-18.8,0-35.5-14.2-38.7-33l0-0.2l0-0.1c-0.1-0.3-0.2-0.6-0.3-0.9c-0.1-0.2-0.1-0.5-0.2-0.7v-9.2  c0.3-1,0.5-2.1,0.8-3.1c0.3-1.1,0.5-2.2,0.8-3.3c4.7-16.5,20.3-28.4,37-28.4c0.8,0,1.6,0,2.4,0.1c19.5,1.4,34.5,14.9,37.3,33.6  c3.1,21.5-11.4,41.1-33,44.6C98.2,317.5,96.2,317.7,94.1,317.7C94.1,317.7,94.1,317.7,94.1,317.7z M94.2,246.3  c-17.4,0-31.6,14.2-31.7,31.7c-0.1,8.5,3.2,16.6,9.2,22.6c6,6.1,14,9.4,22.6,9.5l0.4,0c17.3,0,31.4-14.2,31.5-31.7  c0.1-8.5-3.2-16.5-9.3-22.6c-6-6.1-14-9.4-22.5-9.5L94.2,246.3z"></path>	<path class="st0" d="M219.6,279.8c-9.6-0.2-18-3.8-25-10.7l-0.2-0.2c-15.2-15.1-31-30.8-46.3-46.3c-14.1-14.3-14-36,0.3-50.4  c0.4-0.4,0.8-0.8,1.1-1.1c1.1-1.1,2.1-2.2,3.3-3.2c2.7-2.4,6-3.7,9.5-3.7c3.6,0,7,1.4,9.6,3.9c6.3,6,12.5,12.3,18.5,18.4  c6.3,6.6,6.3,14.1,0.1,20.6c-1.3,1.4-1.9,2.7-1.9,4.1c0,1.8,1.2,3.1,2.1,3.9c3.9,3.8,7.7,7.6,11.5,11.5c1.3,1.3,2.6,1.9,3.9,1.9  c1.8,0,3.1-1.1,4-2c3.1-2.9,6.6-4.5,10.1-4.5c3.6,0,7.2,1.6,10.3,4.7c6.1,6,12,11.9,18.1,18.1c6,6,5.9,14.1,0,20.5  c-5.2,5.5-12.4,12-22.4,13.7C224.1,279.5,221.9,279.6,219.6,279.8z M162,171.4c-2.8,0-5,2.3-8.6,6.1c-11.4,11.9-11.3,28.4,0.2,40  c15.3,15.4,30.9,31,46.3,46.3c5.6,5.5,12.1,8.2,20,8.3c0,0,0,0,0.1,0c0.5,0,1.3,0,2.2-0.1c9.5-0.7,16-6.5,20.6-11.4  c4-4.2,4-7.3-0.1-11.3c-1.8-1.8-3.6-3.7-5.5-5.5c-3.6-3.7-7.4-7.4-11.1-11.1c-1.5-1.5-3.4-3-5.7-3c-2.2,0-4.1,1.5-5.6,2.9  c-2.6,2.4-5.5,3.7-8.5,3.7c0,0,0,0,0,0c-3.1,0-6.1-1.3-8.7-3.9c-4.8-4.7-8.8-8.8-12.6-12.7c-5.2-5.2-5.2-12-0.1-17.4  c3.5-3.8,3.5-7.1-0.1-10.9c-3.1-3.1-6.2-6.3-9.3-9.3c-1.6-1.6-3.1-3.1-4.7-4.7C166.9,173.7,164.7,171.4,162,171.4z"></path>	<path class="st0" d="M305.6,317.7c-21.5,0-39.1-17.5-39.2-39.1c0-10.5,4-20.4,11.4-27.9c7.4-7.4,17.3-11.6,27.9-11.6h0.2  c21.4,0,39,17.6,39.2,39.2c0,10.5-4.1,20.3-11.5,27.8c-7.4,7.5-17.3,11.6-27.8,11.6C305.8,317.7,305.6,317.7,305.6,317.7z   M305.8,246.5c-17.6,0-31.9,14.3-31.9,31.9s14.2,31.9,31.7,31.9c17.6,0,31.9-14.4,31.9-32C337.5,260.8,323.3,246.5,305.8,246.5z"></path>	<path class="st0" d="M200,135.2c-21.6,0-39.2-17.5-39.2-39.1c0-10.6,4-20.5,11.5-27.9c7.4-7.5,17.3-11.6,27.8-11.6  c21.7,0,39.3,17.6,39.3,39.2c0,21.6-17.6,39.3-39.2,39.4L200,135.2z M199.9,64c-17.5,0.1-31.7,14.4-31.7,31.8  c-0.1,8.4,3.2,16.4,9.3,22.5c6,6.1,14,9.4,22.4,9.4l0.2,0c8.4,0,16.4-3.4,22.5-9.5c6-6.1,9.3-14.2,9.2-22.6  C231.7,78.2,217.5,64,200.1,64L199.9,64z"></path>	<path class="st0" d="M192.9,343.4c-16.6-0.1-37.4-6.4-55.7-16.8l-0.5-0.3c-0.6-0.4-1.2-0.7-1.6-1.1c-1.3-1.1-1.7-3-0.9-4.6  c0.7-1.2,1.9-2,3.2-2c0.4,0,0.8,0.1,1.2,0.2c0.9,0.4,1.9,0.9,2.8,1.5c0.8,0.4,1.5,0.9,2.3,1.2c18.7,9.6,37.6,14.4,56.3,14.4  c19.7,0,39.5-5.4,59.1-16c0.4-0.2,0.8-0.4,1.2-0.6c0.3-0.2,0.5-0.3,0.7-0.4l0.1,0c0.8-0.4,1.7-0.6,2.4-0.6c1.3,0,2.3,0.6,2.9,1.7  c0.6,0.9,0.7,1.9,0.5,2.8c-0.2,1-0.9,1.8-1.9,2.3c-5.9,3.4-10.5,5.8-14.9,7.7C233.7,340.2,216.6,343.3,192.9,343.4z"></path>	<path class="st0" d="M79.9,201.4c-0.2,0-0.4,0-0.6-0.1c-2-0.3-3.2-2-3-4.6c1.7-10.2,4.5-19.8,8.3-28.5c12.6-28.8,33.2-50.3,61.4-64  c0.9-0.4,1.8-0.7,2.6-0.7c1.4,0,2.5,0.7,3.1,1.9c0.5,1,0.6,2,0.2,2.9c-0.4,1-1.4,1.9-2.8,2.6c-16.2,7.9-29.4,18.3-40.6,31.8  c-12.5,15.2-20.8,32.8-24.5,52.3l-0.1,0.5c-0.2,0.9-0.3,1.9-0.6,2.8C83,200.2,81.6,201.4,79.9,201.4L79.9,201.4z"></path>	<path class="st0" d="M321.5,221.2c-2,0-3.5-1.7-3.7-4.2c-0.1-1.5-0.2-3.1-0.3-4.7c-0.3-5.1-0.7-10.5-1.6-15.7  c-4.8-27.2-18.1-50.5-39.7-69.1c-0.6-0.6-1.1-1.1-1.7-1.5c-0.3-0.3-0.6-0.5-0.9-0.8c-1.7-1.6-1.9-3.6-0.6-5.3  c0.7-0.9,1.7-1.4,2.7-1.4c0.8,0,1.7,0.3,2.4,0.9c4.1,3.3,7.4,6.2,10.5,9.3c22.9,23.3,35.2,51.7,36.7,84.6l0,3.6  C325.2,219.6,323.7,221.2,321.5,221.2z"></path>	<path class="st0" d="M252.9,210.2c-2,0-3.4-1.3-3.7-3.5c-0.1-1-0.2-2.1-0.3-3.1c-0.2-1.9-0.3-3.9-0.8-5.9  c-4.1-17-18.7-29-36.3-29.7c-0.8,0-1.5-0.1-2.1-0.2c-1.8-0.4-2.9-2.1-2.8-3.9c0.2-1.7,1.5-3.1,3.3-3.4c0.3,0,0.7,0,1.3,0  c0.6,0,1.2,0,2,0c22.6,1.1,41.5,20,43,43c0.1,1.1,0.2,2.1,0.1,2.9l0,0.1c-0.1,2.2-1.4,3.6-3.4,3.8  C253.1,210.2,253,210.2,252.9,210.2z"></path>	<path class="st0" d="M228.7,210.2c-2,0-3.4-1.5-3.6-3.9c-1.1-8.6-5.6-13.1-14-14.2c-1.3-0.2-4.3-0.9-4.1-4c0.2-2.8,2.7-3.4,4.6-3.4  l0.2,0c11.1,0.4,20.6,10,20.6,21.1c0,1.5-0.4,4.1-3.4,4.4C229,210.2,228.9,210.2,228.7,210.2z"></path>	<path class="st0" d="M78.3,223.2c3.1,0,5.6-2.6,5.7-5.7c0.1-3.3-2.5-6-5.6-6c-3.2,0-5.8,2.6-5.8,5.9  C72.5,220.6,75.1,223.2,78.3,223.2z"></path>	<path class="st0" d="M78.3,221.2c-1,0-2-0.4-2.7-1.1c-0.7-0.7-1-1.6-1-2.6c0-2.2,1.7-4,3.8-4c0.9,0,1.8,0.4,2.5,1.1  c0.7,0.8,1.1,1.8,1.1,2.8C81.9,219.6,80.3,221.2,78.3,221.2z"></path>	<path class="st0" d="M257.8,116.1c3.1,0,5.6-2.5,5.7-5.6c0-3.2-2.7-5.8-5.9-5.7c-3.1,0.1-5.6,2.7-5.5,5.8  C252.2,113.7,254.7,116.1,257.8,116.1z"></path>	<path class="st0" d="M257.8,114.1c-2,0-3.6-1.6-3.7-3.6c-0.1-2,1.5-3.7,3.6-3.7l0.1,0c2,0,3.7,1.7,3.7,3.7  C261.4,112.5,259.8,114.1,257.8,114.1z"></path></g></svg>