<svg xmlns="http://www.w3.org/2000/svg" xmlns:xlink="http://www.w3.org/1999/xlink" id="Layer_1" x="0px" y="0px" viewBox="0 0 400 400" style="enable-background:new 0 0 400 400;" xml:space="preserve"><style type="text/css">	.st0{fill:#1D1A4E;}</style><g>	<path class="st0" d="M81.3,247.4c-0.6,0.9-1.1,1.9-1.7,2.8c7.2,5.6,14.4,11.2,21.2,16.5c-14.7,15-27.8,28.2-40.6,41.7  c-12.4,13-8,32.5,8.5,37.5c9.2,2.8,16.7-0.4,23.2-6.9c13.1-13.1,26.3-26.1,41.7-41.3c6.5,7.7,12.2,14.5,18.9,22.4  c8.8-33.5,17.1-65.1,25.9-98.4C144.7,230.7,113,239,81.3,247.4z M148.1,301.1l-14-16.6l-6.9,6.9c-4.7,4.6-9.1,9-13.4,13.3  c-9.8,9.7-19.2,18.9-28.3,28.1c-4.8,4.8-8.2,5.3-10.4,5.3c-1.2,0-2.5-0.2-3.9-0.6c-4.6-1.4-7.7-4.5-8.8-8.7  c-1.2-4.7,0.4-9.9,4.2-14c8.8-9.2,17.7-18.4,27.2-28c4.3-4.4,8.8-8.9,13.3-13.6l7-7.2L97,252.7l68.5-18.1L148.1,301.1z"></path>	<path class="st0" d="M344.2,64.8c-4.5-8.3-13.7-13.5-23-11.2c-5.3,1.3-10.5,4.8-14.6,8.5c-13.1,12.1-25.7,24.9-40.7,39.6  c-5.8-7-11.5-13.9-18.2-21.9c-8.9,33.9-17.2,65.6-25.8,98.6c33.5-8.9,65.2-17.2,100.1-26.4c-9-7.3-16-13-25.2-20.5  c5-3.5,8.1-5.2,10.4-7.5c11.3-11.1,22.7-22.3,33.6-33.8C347.8,82.8,348.7,73,344.2,64.8z M334.3,84c-10.7,11.2-35.8,35.4-37.9,36.8  c-1.4,0.9-3,2-4.9,3.3l-9.7,6.9l20.7,16.8l-68.1,18L251.9,99l13.3,16l7-6.8c4.3-4.2,8.4-8.3,12.4-12.2c9.7-9.6,18.9-18.6,28.1-27.2  c3.5-3.3,7.4-5.6,10.7-6.4c0.8-0.2,1.6-0.3,2.3-0.3c4.1,0,8.2,2.8,10.6,7.1C339.1,74.2,338.4,79.7,334.3,84z"></path>	<path class="st0" d="M106.1,218.2c0-2.3,0.1-3.5,0-4.7c-7.5-53.8,32.1-100.4,86.2-101.6c8.3-0.2,19.5,1.9,24.2-2.5  c5.3-5.1,4.9-16.3,7.1-25.6c-109.4-17.3-163.2,74.3-145,141.7C87.8,223,97,220.6,106.1,218.2z M106.6,133  c20.9-27.3,53.1-42.3,90.6-42.3c5.1,0,10.4,0.3,15.8,0.8c-0.6,3.9-1.4,9.6-2.7,11.2c-0.4,0.2-1.8,0.6-5.4,0.6  c-1.7,0-3.6-0.1-5.5-0.2c-2-0.1-4.1-0.2-6.1-0.2c-0.4,0-0.9,0-1.3,0c-28.7,0.6-54.5,12.7-72.7,34.1c-17.3,20.3-25.4,47.2-22.6,74.4  l-11.3,3C80.9,186.9,88.6,156.5,106.6,133z"></path>	<path class="st0" d="M293.8,181.9c0.1,2.6,0.1,3.8,0.3,5c6.6,46.1-22.3,89-67.5,98.7c-11.8,2.5-24.3,1.7-36.4,2.7  c-2.6,0.2-6.9,1.2-7.4,2.9c-2.7,8.2-4.4,16.7-6.5,25.2c91.1,15.3,171.3-63.3,145-141.6C312.2,177.1,303.2,179.5,293.8,181.9z   M299,259.6c-22,30.6-60.3,49.6-99.8,49.6l0,0c-4,0-8-0.2-11.9-0.6c0.9-3.9,1.8-7.7,2.9-11.4c0.2,0,0.5-0.1,0.7-0.1  c4.1-0.3,8.2-0.5,12.6-0.6c8.2-0.2,16.6-0.5,25-2.3c48.8-10.5,80.6-55.6,74.9-105.7l11.6-3C320.9,210.9,315.4,236.9,299,259.6z"></path></g></svg>