<svg xmlns="http://www.w3.org/2000/svg" xmlns:xlink="http://www.w3.org/1999/xlink" id="Layer_1" x="0px" y="0px" viewBox="0 0 400 400" style="enable-background:new 0 0 400 400;" xml:space="preserve"><style type="text/css">	.st0{fill:#041C51;stroke:#041C51;stroke-width:2;stroke-miterlimit:10;}	.st1{fill:#041C51;}</style><g>	<path class="st0" d="M253.4,217.3c0.4-0.8,0.7-1.2,1.6-1.3c4-0.4,8-0.8,12-1.2c1.3-0.1,2.5-0.4,3.3-1.7c0-8.4,0-16.8,0-25.2  c-0.7-1.3-2-1.5-3.3-1.7c-4-0.4-8-0.7-12-1.2c-0.5-0.1-1.2-0.4-1.4-0.7c-1.5-3.5-2.9-7.2-4.3-11c2.7-3.4,5.6-6.9,8.5-10.6  c1.3-1.6,1.3-2.4-0.2-3.9c-5.3-5.3-10.6-10.6-16-15.9c-1.5-1.5-2.3-1.5-4-0.2c-3.3,2.6-6.5,5.2-9.8,7.9c-0.7,0.6-1.2,0.6-2.1,0.2  c-2.8-1.3-5.7-2.6-8.6-3.5c-1.4-0.5-1.9-1.1-2-2.4c-0.4-3.9-0.7-7.8-1.1-11.8c-0.3-2.3-0.8-2.9-3.3-2.9c-7.3,0-14.5,0-21.8,0  c-2.8,0-3.3,0.5-3.5,3.3c-0.4,4-0.8,8-1.2,12c-0.1,0.8-0.4,1.2-1.2,1.5c-3.2,1.2-6.3,2.5-9.3,3.9c-0.7,0.4-1.2,0.4-1.8-0.2  c-3.2-2.6-6.4-5.2-9.7-7.8c-2-1.6-2.7-1.6-4.5,0.2c-5.1,5.1-10.3,10.3-15.4,15.4c-1.9,1.9-1.9,2.5-0.2,4.5  c2.8,3.5,5.6,6.9,8.3,10.3c-1.4,3.5-2.9,6.9-4.1,10.4c-0.4,1-0.7,1.4-1.8,1.5c-3.9,0.4-7.9,0.8-11.9,1.2c-1.3,0.1-2.5,0.4-3.3,1.7  c0,8.4,0,16.8,0,25.2c0.7,1.2,1.9,1.5,3.1,1.6c3.9,0.4,7.9,0.8,11.9,1.2c1.1,0.1,1.6,0.5,2,1.6c1,3,2.3,5.9,3.6,8.7  c0.5,1,0.4,1.7-0.3,2.5c-2.6,3.2-5.2,6.3-7.8,9.5c-1.3,1.7-1.3,2.5,0.3,4c5.2,5.2,10.6,10.6,15.9,15.8c1.5,1.5,2.3,1.6,4,0.3  c3.2-2.5,6.3-5.1,9.4-7.7c0.9-0.7,1.6-0.9,2.7-0.4c2.9,1.4,5.9,2.5,8.9,3.6c0.8,0.4,1.2,0.7,1.3,1.6c0.4,4,0.8,8,1.2,12  c0.1,1.3,0.4,2.5,1.7,3.3c8.4,0,16.9,0,25.3,0c1.2-0.7,1.5-1.8,1.6-3.1c0.4-3.9,0.8-7.9,1.2-11.9c0.1-1,0.5-1.6,1.6-2  c3-1.1,6-2.3,8.9-3.6c0.9-0.5,1.5-0.4,2.2,0.3c3.2,2.6,6.4,5.2,9.7,7.8c1.7,1.3,2.5,1.3,4-0.2c5.3-5.2,10.6-10.6,15.8-15.8  c1.5-1.5,1.6-2.3,0.2-4c-2.6-3.3-5.3-6.5-7.9-9.8c-0.6-0.7-0.7-1.1-0.3-2.1C251,223.6,252.3,220.5,253.4,217.3z M245,229.5  c2.8,3.5,5.7,6.9,8.4,10.3c-4.7,4.7-9.3,9.3-14.1,14.1c-2.3-1.9-4.9-3.9-7.4-5.9c-1-0.8-2.1-1.7-3.1-2.5c-0.9-0.7-2-0.9-3-0.3  c-3.9,2.3-8.1,4-12.5,5.2c-1.6,0.5-2,1.6-2.1,3c-0.4,3.9-0.7,7.8-1.2,11.8c0,0.4-0.1,0.8-0.2,1.3c-6.5,0-13.1,0-19.8,0  c-0.3-2.2-0.5-4.5-0.7-6.7c-0.2-2.1-0.4-4.3-0.7-6.4c-0.2-1.9-0.7-2.2-2.5-3c-3.9-1.5-7.7-3.1-11.7-4.8c-1.9-0.8-2.2-0.9-3.8,0.4  c-3.5,2.8-6.8,5.5-10.2,8.2c-4.7-4.7-9.3-9.3-14.1-14.1c2.5-3.2,5.2-6.5,7.9-9.8c1.6-2,1.4-2.1,0.4-4.4c-1.7-3.6-3.2-7.4-4.6-11.1  c-0.8-2.1-1.1-2.5-3.4-2.7c-3.8-0.4-7.7-0.7-11.6-1.2c-0.4,0-0.8-0.2-1.2-0.2c0-6.5,0-13.1,0-19.8c2.2-0.3,4.6-0.5,6.8-0.7  c2.1-0.2,4.3-0.4,6.4-0.7c1.9-0.2,2.3-0.6,2.9-2.4c1.1-4.2,2.8-8.1,4.9-11.9c0.8-1.3,0.7-2.4-0.4-3.6c-2.8-3.4-5.6-6.9-8.3-10.2  c4.8-4.8,9.3-9.3,14.1-14.1c3.3,2.6,6.6,5.3,9.9,8c2,1.6,2.1,1.4,4.4,0.4c3.6-1.7,7.4-3.2,11.1-4.6c2.1-0.7,2.5-1.1,2.7-3.4  c0.4-4.2,0.8-8.4,1.3-12.8c6.6,0,13.3,0,19.9,0c0.4,3.3,0.7,6.5,1,9.8c0.1,1.3,0.3,2.6,0.4,3.9c0.1,1.1,0.7,1.9,1.9,2.1  c4.5,1.2,8.8,3,12.8,5.3c1.1,0.7,2.1,0.4,3-0.4c3.5-2.8,7-5.6,10.3-8.3c4.7,4.7,9.3,9.3,14.1,14.1c-0.7,0.7-1.4,1.8-2.2,2.8  c-2.1,2.5-4,4.9-6.1,7.5c-0.9,1.1-1,2.1-0.3,3.4c2.1,3.6,3.8,7.6,4.9,11.7c0.6,2.1,1,2.4,3.3,2.7c3.9,0.4,7.8,0.7,11.8,1.2  c0.4,0,0.7,0.1,1.1,0.2c0,6.6,0,13.2,0,19.8c-3.3,0.4-6.5,0.7-9.9,1c-1.4,0.2-2.8,0.1-4.1,0.5c-0.7,0.2-1.7,0.9-1.9,1.7  c-1.3,4.5-3.1,8.8-5.4,12.9C244,227.7,244.3,228.6,245,229.5z"></path>	<path class="st0" d="M199.8,157.1c-23.9,0-43.5,19.5-43.5,43.5c0,24.1,19.5,43.6,43.6,43.6c24,0,43.6-19.5,43.6-43.4  C243.5,176.6,224.1,157.1,199.8,157.1z M199.9,239.7c-21.7,0-39.2-17.6-39.2-39.2c0-21.5,17.6-39.1,39.1-39  c21.8,0,39.3,17.6,39.2,39.3C239.2,222.3,221.5,239.7,199.9,239.7z"></path>	<path class="st1" d="M200.1,340.4c-20.1,0-40.3-4.9-60.3-14.5C111,312,89.4,289.4,75.5,258.8c-4.3-9.4-1.1-19.3,7.5-23.5  c2.5-1.1,4.9-1.7,7.5-1.7c6.9,0,13,4.4,16.1,11.4c7.7,17.5,19.4,31.8,34.9,42.7c17.3,12.2,36.8,18.4,58,18.4c0.6,0,1.3,0,1.9-0.1  c0.6,0,1.2,0,1.8,0c29.8-1,55-13.4,75.1-36.7c5.6-6.5,10.3-13.8,14-21.7l0.6-1.2l-1.3-0.2c-3.7-0.6-7.1-2.3-9.9-4.9  c-6.5-6.6-6.5-17,0-23.7c9.8-10,17.5-17.7,24.8-24.8c3.6-3.5,8-5.4,12.5-5.4c5.8,0,11.1,3.2,14.6,8.7c5.8,9.2,11.5,18.7,17.7,29.1  c5.1,8.5,2.9,18.6-5.1,23.5c-2.9,1.7-6,2.7-9.1,2.7c-2.7,0-5.4-0.7-7.9-2.1l-1-0.6l-0.4,1.1c-11.3,32-32,56.5-61.5,72.8  C244.5,334.4,222.3,340.4,200.1,340.4z M90.5,239.8c-1.6,0-3.2,0.4-4.8,1.1c-5.7,2.7-7.6,9.2-4.7,15.6  c13.2,29.2,33.9,50.8,61.5,64.2c19.1,9.2,38.5,13.9,57.6,13.9c21.3,0,42.5-5.8,63.2-17.1c31-17.1,51.8-43.5,61.7-78.6  c0.2-0.7,0.4-1.4,0.6-2.1c0.6,1,1.1,1.8,1.7,2.7c2.4,3.8,6,6,9.8,6c2,0,4-0.6,5.9-1.8c2.5-1.6,4.2-4,4.8-6.7c0.6-2.8,0-5.9-1.8-8.6  c-6.3-10.5-12.1-20-17.7-29c-2.4-3.8-5.7-6-9.5-6c-2.9,0-5.8,1.3-8.4,3.8c-8.3,8.1-16.7,16.6-24.7,24.7c-4.2,4.3-4.2,11,0,15.2  c2.1,2.1,4.9,3.3,7.8,3.3c2.7,0,5.3-1,7.4-2.8c0.8-0.7,1.5-1.5,2.1-2.3c-4.1,14.2-10.9,27.1-20.4,38  c-21.2,24.7-47.9,37.8-79.4,38.9c-1.3,0-2.6,0.1-3.9,0.1c-22.4,0-43.1-6.6-61.5-19.5c-16.4-11.5-28.9-26.7-37-45.2  C99,242.7,95,239.8,90.5,239.8z"></path>	<path class="st1" d="M81.1,212.3c-5.6,0-10.7-2.9-13.6-7.7c-6.4-9.9-12.7-20.2-19.2-31.5c-4.5-7.9-2-17.6,6-22.5  c2.6-1.6,5.7-2.6,8.8-2.6c2.7,0,5.4,0.7,7.9,2.1l1,0.6l0.4-1.1c8.4-23.5,22.7-43.6,42.7-60c20.1-16.5,43.2-26.3,68.9-29.1  c5.7-0.6,11.5-0.9,17-0.9c37.6,0,70.7,14.4,98.3,42.9c9.4,9.7,17.1,21,23.7,34.5c4.3,9.1,1.3,19.1-7.2,23.6c-2.4,1.2-5,1.9-7.6,1.9  c-6.5,0-12.3-3.8-15.5-10.2c-8.4-17.1-20.3-31-35.4-41.3c-17-11.6-36.1-17.5-56.8-17.5h-1.6c-28.3,0.4-52.9,11.3-73.1,32.4  c-7.3,7.7-13.3,16.6-17.8,26.2l-0.6,1.2l1.4,0.2c3.8,0.5,7.2,2.2,9.8,5c6.5,6.9,6.4,16.9-0.3,23.7c-7.8,7.9-16,16.1-25,25  C89.9,210.5,85.6,212.3,81.1,212.3z M62.9,154.2c-1.9,0-3.9,0.6-5.6,1.7c-5.2,3.3-6.9,9.4-3.9,14.5c7.1,12.3,13.2,22.2,19,31.2  c2,3.1,5.2,4.8,8.8,4.8c2.8,0,5.5-1.1,7.6-3.2c8.4-8.2,16.7-16.5,24.9-24.9c4.5-4.5,4.6-10.8,0.2-15.4c-2-2.1-4.7-3.2-7.6-3.2  c-2.7,0-5.4,1-7.7,2.9c-0.6,0.5-1.3,1.1-1.9,1.7c5-16.3,13.2-30.5,24.4-42.2c21.2-22.3,47.2-33.8,77.3-34.3c0.7,0,1.4,0,2.1,0  c21.8,0,41.9,6.2,59.9,18.4c16,10.9,28.6,25.6,37.5,43.6c2.1,4.2,6,6.9,10.1,6.9c1.7,0,3.3-0.4,4.8-1.2c5.7-3,7.6-9.4,4.5-15.6  c-6.2-12.8-13.5-23.6-22.6-33c-26.4-27.3-58-41.1-93.9-41.1c-5.3,0-10.9,0.3-16.4,0.9c-24.2,2.6-46.3,11.9-65.7,27.7  c-21.9,17.9-36.6,40.5-43.8,67.1c-0.1,0.4-0.2,0.8-0.4,1.3c-0.1-0.1-0.2-0.3-0.3-0.4c-0.8-1.2-1.5-2.3-2.3-3.4  C69.6,155.9,66.3,154.2,62.9,154.2z"></path></g></svg>