<svg xmlns="http://www.w3.org/2000/svg" width="70" height="70" viewBox="0 0 70 70" fill="none"><path fill-rule="evenodd" clip-rule="evenodd" d="M69.432 5.18926C69.9141 25.9323 69.9151 48.7458 69.432 69.6384C55.6583 70.1198 39.8101 70.1212 25.8853 69.6384C25.3063 68.6691 25.719 66.7079 25.5949 65.2838C21.9042 65.1036 17.4846 65.6524 14.2727 64.9935C13.6717 63.8042 14.1216 61.5641 13.9824 59.913C6.72912 57.2091 0.656798 51.2935 0.0474555 42.2041C-0.617246 32.2899 5.78472 24.6803 13.9824 22.0275C13.9824 17.1688 13.9824 11.2116 13.9824 5.62498C13.9824 4.13607 13.7 1.07543 14.4179 0.544477C22.5281 0.0189479 32.5466 0.254129 41.4167 0.254129C44.1392 0.254129 47.8421 -0.317662 50.126 0.254129C51.8421 0.68365 53.2815 4.41094 55.0613 4.89911C57.2784 5.50729 60.2156 4.89911 62.4642 4.89911C64.9482 4.89911 67.2137 4.66451 69.432 5.18926ZM16.305 3.01204C16.305 9.15695 16.305 15.3019 16.305 21.4468C27.3049 19.8793 35.0405 26.059 38.0781 33.3495C41.4516 41.4457 38.4819 50.7933 33.1428 55.5583C29.3965 58.9018 23.9206 61.4063 16.3048 60.3485C16.3048 61.2193 16.3048 62.0904 16.3048 62.9612C31.7882 62.9612 47.2711 62.9612 62.7546 62.9612C62.7546 47.8653 62.7546 32.7688 62.7546 17.6726C58.2935 17.4886 53.0904 18.0468 49.11 17.3823C48.4437 13.0166 49.0051 7.42319 48.8196 2.57652C38.0299 2.57652 27.2398 2.57652 16.45 2.57652C16.281 2.60091 16.2924 2.80609 16.305 3.01204ZM51.1422 15.3503C54.4324 15.3503 57.7224 15.3503 61.0127 15.3503C58.2638 11.7606 54.4084 8.01957 51.1422 4.46359C51.1422 8.09235 51.1422 11.7213 51.1422 15.3503ZM56.9484 7.36667C58.3357 8.73653 59.4796 9.91166 61.303 11.8665C62.3951 13.0372 64.7961 15.2074 65.0771 16.3663C65.4652 17.9665 65.0771 20.4681 65.0771 22.4628C65.0771 34.8304 65.0771 47.4046 65.0771 59.3325C65.0771 61.2695 65.4153 63.3816 64.6416 65.1386C52.7589 65.6675 39.4933 64.8038 27.9171 65.574C27.9171 66.203 27.9171 66.8321 27.9171 67.461C40.7876 67.7998 54.2871 67.5094 67.3995 67.6062C67.3995 47.4778 67.3995 27.3499 67.3995 7.2215C63.9643 7.31809 60.1422 7.02813 56.9484 7.36667ZM5.27313 31.1721C4.0047 33.069 2.60929 35.9332 2.37004 39.8813C1.83251 48.7497 7.26781 54.9033 13.9826 57.3C29.605 62.8761 43.2786 45.144 34.4496 31.3172C31.9524 27.4065 26.0717 22.8519 18.192 23.624C12.1381 24.2173 7.68998 27.558 5.27313 31.1721Z" fill="#1E4EC4"></path><path fill-rule="evenodd" clip-rule="evenodd" d="M27.9173 6.0603C27.9173 6.83456 27.9173 7.60863 27.9173 8.38289C25.5947 8.38289 23.2723 8.38289 20.9498 8.38289C20.9498 7.60863 20.9498 6.83456 20.9498 6.0603C23.2723 6.0603 25.5949 6.0603 27.9173 6.0603Z" fill="#1E4EC4"></path><path fill-rule="evenodd" clip-rule="evenodd" d="M45.336 6.0603C45.336 6.83456 45.336 7.60863 45.336 8.38289C40.6911 8.38289 36.0461 8.38289 31.4011 8.38289C31.4954 7.6547 31.2108 6.5477 31.5463 6.0603C36.1429 6.0603 40.7395 6.0603 45.336 6.0603Z" fill="#1E4EC4"></path><path fill-rule="evenodd" clip-rule="evenodd" d="M21.0949 11.8665C29.1753 11.8665 37.2557 11.8665 45.336 11.8665C45.336 12.6407 45.336 13.4148 45.336 14.189C37.2073 14.189 29.0785 14.189 20.9498 14.189C21.0442 13.4608 20.7597 12.3537 21.0949 11.8665Z" fill="#1E4EC4"></path><path fill-rule="evenodd" clip-rule="evenodd" d="M17.1758 40.4622C20.7198 37.7654 23.8031 33.4214 27.1916 30.7367C28.4978 29.7019 30.2432 32.5512 31.1109 33.6398C31.8906 34.6181 33.732 36.3342 33.7239 37.4139C33.7156 38.5167 30.9671 40.5369 29.9498 41.4782C26.893 44.307 25.0241 46.0941 21.821 49.0263C20.8056 49.956 18.5432 52.4419 17.6115 52.51C16.6944 52.5772 15.2106 51.0868 14.4181 50.4778C12.176 48.7555 10.804 47.5219 8.61193 45.8328C7.88064 45.2696 5.94847 44.3613 5.85382 43.3653C5.74136 42.1789 7.71785 40.5255 8.46675 39.5913C9.30121 38.5499 10.4341 36.3551 11.515 36.2527C12.4561 36.1635 13.8844 37.5912 14.5633 38.1398C15.4947 38.8922 16.197 39.5778 17.1758 40.4622ZM27.7721 33.3494C26.3781 34.9589 24.6987 36.4229 22.5465 38.5751C21.6096 39.512 18.8279 43.2098 17.466 43.2201C16.6114 43.2265 15.2853 41.9168 14.5629 41.333C13.5385 40.5057 12.8771 39.6256 11.8048 39.1558C10.7497 40.4233 9.62408 41.6199 8.75652 43.0749C11.6561 45.3044 14.4303 47.6591 17.466 49.7521C22.007 45.6805 26.3518 41.4128 30.9654 37.4139C30.0212 35.9389 28.8784 34.6626 27.7721 33.3494Z" fill="#1E4EC4"></path></svg>