<svg xmlns="http://www.w3.org/2000/svg" xmlns:xlink="http://www.w3.org/1999/xlink" id="Layer_1" x="0px" y="0px" viewBox="0 0 400 400" style="enable-background:new 0 0 400 400;" xml:space="preserve"><style type="text/css">	.st0{fill-rule:evenodd;clip-rule:evenodd;fill:#041C51;}</style><g>	<path class="st0" d="M154.2,124.3h14.3c0.8,0,1.4,0.6,1.4,1.4v28.1c0,0.8-0.6,1.4-1.4,1.4h-14.3c-0.8,0-1.4-0.6-1.4-1.4v-28.1  C152.8,125,153.4,124.3,154.2,124.3L154.2,124.3z"></path>	<path class="st0" d="M101,107.1h14.3c0.8,0,1.4,0.6,1.4,1.4v45.3c0,0.8-0.6,1.4-1.4,1.4H101c-0.8,0-1.4-0.6-1.4-1.4v-45.3  C99.6,107.8,100.3,107.1,101,107.1L101,107.1L101,107.1z"></path>	<path class="st0" d="M127.6,97.5h14.3c0.8,0,1.4,0.6,1.4,1.4v55c0,0.8-0.6,1.4-1.4,1.4h-14.3c-0.8,0-1.4-0.6-1.4-1.4v-55  C126.2,98.1,126.9,97.5,127.6,97.5L127.6,97.5z"></path>	<path class="st0" d="M101,328.9c-3.1,0-5.6-2.5-5.6-5.7c0-3.1,2.5-5.7,5.6-5.7h201c3.1,0,5.6,2.5,5.6,5.7c0,3.1-2.5,5.7-5.6,5.7  H101L101,328.9z"></path>	<path class="st0" d="M101.9,287.4c-3.1,0-5.6-2.5-5.6-5.7c0-3.1,2.5-5.7,5.6-5.7h199.6c3.1,0,5.6,2.5,5.6,5.7  c0,3.1-2.5,5.7-5.6,5.7H101.9L101.9,287.4z"></path>	<path class="st0" d="M101,245.8c-3.1,0-5.6-2.5-5.6-5.7c0-3.1,2.5-5.7,5.6-5.7h85.9c3.1,0,5.6,2.5,5.6,5.7c0,3.1-2.5,5.7-5.6,5.7  H101L101,245.8z"></path>	<path class="st0" d="M208.8,245.8c-3.1,0-5.6-2.5-5.6-5.7c0-3.1,2.5-5.7,5.6-5.7h92.7c3.1,0,5.6,2.5,5.6,5.7c0,3.1-2.5,5.7-5.6,5.7  H208.8L208.8,245.8z"></path>	<path class="st0" d="M101,208.8c-3.1,0-5.6-2.5-5.6-5.7c0-3.1,2.5-5.7,5.6-5.7h70.8c3.1,0,5.6,2.5,5.6,5.7c0,3.1-2.5,5.7-5.6,5.7  H101L101,208.8z"></path>	<path class="st0" d="M101,64.5c-3.1,0-5.6-2.5-5.6-5.7s2.5-5.7,5.6-5.7h42.3c3.1,0,5.6,2.5,5.6,5.7s-2.5,5.7-5.6,5.7H101L101,64.5z  "></path>	<path class="st0" d="M291,79.4c-9.4-8.6-22-13.8-35.8-13.7c-0.3,0-0.7,0-1,0c-0.4,0-0.7,0-1,0c-1,0.1-1.8,0.9-1.7,1.9l2.5,50.1  c0,0,0,0,0,0.1c0,1,0.9,1.8,1.9,1.7l50.1-3.6c1,0,1.8-0.9,1.7-1.9C306.7,100.2,300.4,88.1,291,79.4z M257.4,115.7l-2.3-46.5h0.1  c12.8-0.1,24.6,4.7,33.4,12.8c8.3,7.7,14,18.3,15.3,30.4L257.4,115.7z"></path>	<path class="st0" d="M341.3,26.8H58.7c-2,0-3.7,1.7-3.7,3.7v337c0,1.4,0.9,2.8,2.2,3.4l0.5,0.2l0.3,0.5c0.7,1,1.8,1.6,3,1.6h246.3  c0.2,0,0.4-0.1,0.8-0.1c11.3-0.7,20.2-4,26.4-9.8c6.2-5.9,9.6-14.1,10.4-24.9l0-0.2l0.1-0.2c0-0.1,0-0.2,0-0.3V30.5  C345,28.5,343.3,26.8,341.3,26.8z M337.6,337.5l0,0.1c-0.5,9-3.3,15.8-8.1,20.3c-4.9,4.7-12.2,7.3-21.8,7.9l-245.3,0V34.2h275.2  V337.5z"></path>	<path class="st0" d="M101,326.9c-2,0-3.6-1.6-3.6-3.7c0-2,1.6-3.7,3.6-3.7h201c2,0,3.6,1.6,3.6,3.7c0,2-1.6,3.7-3.6,3.7H101z"></path>	<path class="st0" d="M101.9,285.4c-2,0-3.6-1.6-3.6-3.7c0-2,1.6-3.7,3.6-3.7h199.6c2,0,3.6,1.6,3.6,3.7c0,2-1.6,3.7-3.6,3.7H101.9z  "></path>	<path class="st0" d="M208.8,243.8c-2,0-3.6-1.6-3.6-3.7c0-2,1.6-3.7,3.6-3.7h92.7c2,0,3.6,1.6,3.6,3.7c0,2-1.6,3.7-3.6,3.7H208.8z"></path>	<path class="st0" d="M101,243.8c-2,0-3.6-1.6-3.6-3.7c0-2,1.6-3.7,3.6-3.7h85.9c2,0,3.6,1.6,3.6,3.7c0,2-1.6,3.7-3.6,3.7H101z"></path>	<path class="st0" d="M101,206.8c-2,0-3.6-1.6-3.6-3.7c0-2,1.6-3.7,3.6-3.7h70.8c2,0,3.6,1.6,3.6,3.7c0,2-1.6,3.7-3.6,3.7H101z"></path>	<path class="st0" d="M248.4,124.8l-7.3-49.7c-24.6,3.6-42.9,24.8-42.9,49.7c0,27.7,22.5,50.2,50.2,50.2c8.8,0,17.5-2.3,25.1-6.7  L248.4,124.8z M200.2,124.8c0-23.1,16.7-43.1,39.2-47.4l7.1,48.1l24.3,42.1c-6.8,3.6-14.5,5.5-22.3,5.5  C221.8,173,200.2,151.4,200.2,124.8z"></path>	<path class="st0" d="M258.8,127l26.1,39c2.4-1.7,4.7-3.5,6.8-5.6c8.9-8.7,13.9-20.7,14-33.2L258.8,127z M290.3,159  c-1.4,1.4-3,2.7-4.9,4.2L262.6,129l41.1,0.2C303,140.4,298.2,151.2,290.3,159z"></path>	<rect x="128.2" y="99.5" class="st0" width="13.1" height="53.8"></rect>	<rect x="154.8" y="126.3" class="st0" width="13.1" height="26.9"></rect>	<rect x="101.6" y="109.1" class="st0" width="13.1" height="44.1"></rect>	<path class="st0" d="M101,62.5c-2,0-3.6-1.6-3.6-3.7s1.6-3.7,3.6-3.7h42.3c2,0,3.6,1.6,3.6,3.7s-1.6,3.7-3.6,3.7H101z"></path></g></svg>