<svg xmlns="http://www.w3.org/2000/svg" xmlns:xlink="http://www.w3.org/1999/xlink" id="Layer_1" x="0px" y="0px" viewBox="0 0 400 400" style="enable-background:new 0 0 400 400;" xml:space="preserve"><style type="text/css">	.st0{fill:#1D1A4E;}</style><g>	<path class="st0" d="M234.9,57.2h-66c-2.6,0-4.8,2.1-4.8,4.8c0,2.6,2.1,4.8,4.8,4.8h66c2.6,0,4.8-2.1,4.8-4.8  C239.6,59.3,237.5,57.2,234.9,57.2z"></path>	<path class="st0" d="M125.1,336.4H162c1.4,0,2.5-1.3,2.5-2.9c0.1-1.6-1.1-2.9-2.5-2.9h-36.9c-1.4,0-2.5,1.3-2.5,2.9  S123.7,336.4,125.1,336.4z"></path>	<path class="st0" d="M255.6,264.8H144.4c-1.2,0-2.2,1.1-2.2,2.6c0,1.4,1,2.6,2.2,2.6h111.3c1.2,0,2.2-1.2,2.2-2.6  C257.9,265.9,256.9,264.8,255.6,264.8z"></path>	<path class="st0" d="M255.6,279.8H144.4c-1.2,0-2.2,1.1-2.2,2.6c0,1.4,1,2.6,2.2,2.6h111.3c1.2,0,2.2-1.2,2.2-2.6  S256.9,279.8,255.6,279.8z"></path>	<path class="st0" d="M255.6,293.1H144.4c-1.2,0-2.2,1.1-2.2,2.6c0,1.4,1,2.6,2.2,2.6h111.3c1.2,0,2.2-1.2,2.2-2.6  C257.9,294.2,256.9,293.1,255.6,293.1z"></path>	<path class="st0" d="M238,336.4h36.9c1.4,0,2.5-1.3,2.5-2.9s-1.1-2.9-2.5-2.9H238c-1.4,0-2.5,1.3-2.5,2.9S236.6,336.4,238,336.4z"></path>	<path class="st0" d="M179,344.6h42c4.2,0,7.6-3.4,7.6-7.6s-3.4-7.6-7.6-7.6h-42c-4.2,0-7.6,3.4-7.6,7.6S174.8,344.6,179,344.6z"></path>	<path class="st0" d="M281.9,37.9H118.1c-7.7,0-14,6.3-14,14v296.3c0,7.7,6.3,14,14,14h163.7c7.7,0,14-6.3,14-14V51.9  C295.9,44.1,289.6,37.9,281.9,37.9z M112.2,59.8c0-7.3,5.7-13.2,12.8-13.2h150c7.1,0,12.8,5.9,12.8,13.2v16.5H112.2V59.8z   M287.9,340.3c-0.1,7.3-5.8,13.2-12.9,13.2H125c-7.1,0-12.8-5.9-12.8-13.2v-18.5h175.7V340.3z M287.9,314h-0.1H112.2V84.1h175.7  V314z"></path>	<path class="st0" d="M148.9,233.5c1.3,1.3,2.6,2.4,4,3.6c10.8,8.9,24.3,14.8,39,16.4c1.6,0.2,3.5,0.2,5.3,0.4h1.6h1.1h1.1h1.6  c1.8,0,3.5-0.2,5.3-0.4c14.8-1.6,28.1-7.5,39-16.4c1.5-1.1,2.7-2.4,4-3.6c13.5-12.9,22.2-30.8,23-50.9c0-0.9,0.2-1.8,0.2-2.7  s-0.7-1.8-0.9-2.7c-0.7-19.9-9.3-37.9-23-50.9c-1.3-1.3-2.6-2.4-4-3.6c-10.8-8.9-24.3-14.8-39-16.4c-1.6-0.2-3.5-0.2-5.3-0.4h-1.6  h-1.1c-0.4,0-0.4,0.2-0.5,0.2h-1.6c-1.8,0-3.5,0.2-5.3,0.4c-14.8,1.6-28.1,7.5-39,16.4c-1.5,1.1-2.7,2.4-4,3.6  c-13.5,13-22.1,30.8-22.8,50.7c0,0.9-0.2,1.8-0.2,2.7s0.2,1.8,0.2,2.7C126.7,202.5,135.3,220.5,148.9,233.5z M202.4,245.4v-27.1  c6.7,0.2,13.3,1.5,19.3,3.6C216.6,230.8,210,238.9,202.4,245.4z M202.4,213v-30.5h30.3c-0.4,12.4-3.3,24.1-8.4,34.7  C217.3,214.6,210,213.4,202.4,213z M207.8,247.9c7.7-6.9,14-15,19-23.9c5.7,2.4,10.9,5.7,15.7,9.5  C232.6,241.1,220.8,246.4,207.8,247.9z M246.5,229.8c-5.3-4.4-11.1-7.8-17.3-10.6c5.3-11.1,8.4-23.5,8.8-36.7h30  C267.3,201.1,259.3,217.8,246.5,229.8z M246.5,129.9c12.8,12,20.8,28.8,21.5,47.2h-30.1c-0.4-13.1-3.5-25.4-8.8-36.7  C235.4,137.6,241.4,134.1,246.5,129.9z M242.5,126.4c-4.7,3.8-10,6.9-15.7,9.5c-4.9-9.1-11.5-17.1-19-24.1  C220.8,113.5,232.6,118.6,242.5,126.4z M202.4,114.1c7.8,6.6,14.4,14.6,19.3,23.5c-6.2,2-12.6,3.3-19.3,3.6V114.1z M202.4,146.6  L202.4,146.6c7.7-0.4,15-1.6,21.9-4.2c5.1,10.6,8,22.2,8.4,34.7h-30.3L202.4,146.6L202.4,146.6z M152.8,229.9  c-12.6-12-20.8-28.6-21.5-47.2h30v-0.1c0.4,13.1,3.5,25.4,8.8,36.7C163.9,222,157.9,225.6,152.8,229.9z M157,233.3  c4.7-3.8,10-6.9,15.7-9.5c4.9,9.1,11.5,17.1,19,23.9C178.5,246.4,166.6,241.1,157,233.3z M196.9,245.5  c-7.8-6.6-14.4-14.6-19.3-23.5c6.2-2,12.6-3.3,19.3-3.6V245.5z M196.9,213c-7.7,0.4-15,1.6-21.9,4.2c-5.1-10.6-8-22.2-8.4-34.7  h30.3L196.9,213L196.9,213z M196.9,177.1h-30.3c0.4-12.4,3.3-24.1,8.4-34.7c6.9,2.6,14.4,4.1,21.9,4.2L196.9,177.1L196.9,177.1z   M196.9,114.1v27.2c-6.7-0.4-13.1-1.5-19.3-3.6C182.7,128.8,189.2,120.8,196.9,114.1z M191.6,111.8c-7.7,6.9-14,15-19,23.9  c-5.7-2.4-10.9-5.7-15.7-9.5C166.6,118.6,178.5,113.5,191.6,111.8z M152.8,130.1c5.3,4.4,11.1,7.8,17.3,10.6  c-5.3,11.1-8.4,23.5-8.8,36.7h-30.1C132,158.6,140.2,141.9,152.8,130.1z"></path></g></svg>