<svg xmlns="http://www.w3.org/2000/svg" xmlns:xlink="http://www.w3.org/1999/xlink" id="Layer_1" x="0px" y="0px" viewBox="0 0 400 400" style="enable-background:new 0 0 400 400;" xml:space="preserve"><style type="text/css">	.st0{fill:#041C51;}</style><g>	<path class="st0" d="M263.8,260.6c-7.9-5.9-15.9-11.5-24.2-16.9c-8.1-5.3-17.9-3.4-23.8,4.2c-1.9,2.5-3.7,5.1-5.4,7.6  c-14.6-7.6-44.4-37.4-52.2-52.1c2.8-2.1,5.5-3.8,8-5.8c7.1-5.7,9-15.3,4.1-22.9c-5.5-8.6-11.4-17-17.6-25.1  c-5.1-6.7-13.2-8.3-20.9-5c-10.6,4.6-16.5,12.8-18.6,24c-2,10.5-0.6,20.9,3,30.7c16.2,43.8,46.4,74.7,88.3,94.3  c8.9,4.1,19.1,6.2,28.9,7.5c16.5,2.1,30.3-5.9,35.8-19.2C272.6,273.7,270.8,265.9,263.8,260.6z M262.1,280.4  c-5.6,10.9-15.3,13.9-26.8,14.6c-7.3-1.7-15-2.5-21.9-5.4c-42.3-17.4-72.2-47.5-89.5-89.9c-3.7-9-5.1-18.6-3.9-28.4  c1.2-9.1,5.5-16,13.9-20c5.6-2.6,10.4-1.6,14,3.4c5.3,7.3,10.5,14.8,15.6,22.3c4,5.9,2.8,11.5-3,15.8c-1.7,1.2-3.4,2.4-5.1,3.6  c-7.6,5.3-7.7,5.3-2.4,12.7c14.5,20.4,32,37.8,52.5,52.2c6.1,4.3,6.6,4.1,10.8-1.8c10.4-14.8,12.4-15.1,27.4-4.6  c5,3.5,10,6.8,14.9,10.4C264,269.5,265.1,274.5,262.1,280.4z"></path>	<path class="st0" d="M90,305.4c-31.3,0-33,24.8-33,25.1v7.2c0,2,1.6,3.6,3.6,3.6h58.7c2,0,3.6-1.6,3.6-3.6l0.1-7.5  C123,329.9,121,305.4,90,305.4z M117.9,336.3H62v-5.6c0.2-1.7,2.4-20.3,28-20.3c25.1,0,27.8,18,28,20L117.9,336.3z"></path>	<path class="st0" d="M89.1,262.9c-9.1,0-16.3,8.2-16.3,18.3c0,10.2,7.2,18.3,16.3,18.3c9.1,0,16.3-8.2,16.3-18.3  C105.4,271.1,97.9,262.9,89.1,262.9z M89.1,294.5c-6.3,0-11.3-5.8-11.3-13.3c0-7.3,5.1-13.3,11.3-13.3c6.1,0,11.3,6.1,11.3,13.3  C100.4,288.5,95.3,294.5,89.1,294.5z"></path>	<path class="st0" d="M308.3,305.4c-31.3,0-33,24.8-33,25.1v7.2c0,2,1.6,3.6,3.6,3.6h58.7c2,0,3.6-1.6,3.6-3.6l0.1-7.5  C341.3,329.9,339.3,305.4,308.3,305.4z M336.2,336.3h-55.9v-5.6c0.2-1.7,2.4-20.3,28-20.3c25.1,0,27.8,18,28,20L336.2,336.3z"></path>	<path class="st0" d="M307.7,262.9c-9.1,0-16.3,8.2-16.3,18.3c0,10.2,7.2,18.3,16.3,18.3c9.1,0,16.3-8.2,16.3-18.3  C324,271.1,316.5,262.9,307.7,262.9z M307.7,294.5c-6.3,0-11.3-5.8-11.3-13.3c0-7.3,5.1-13.3,11.3-13.3c6.1,0,11.3,6.1,11.3,13.3  C319,288.5,313.9,294.5,307.7,294.5z"></path>	<path class="st0" d="M197.7,81.6c-31.3,0-33,24.8-33,25.1v7.2c0,2,1.6,3.6,3.6,3.6H227c2,0,3.6-1.6,3.6-3.6l0.1-7.5  C230.7,106.1,228.7,81.6,197.7,81.6z M225.6,112.5h-55.9v-5.6c0.2-1.7,2.4-20.3,28-20.3c25.1,0,27.8,18,28,20L225.6,112.5z"></path>	<path class="st0" d="M196.8,39.1c-9.1,0-16.3,8.2-16.3,18.3c0,10.1,7.5,18.3,16.3,18.3c9.1,0,16.3-8.2,16.3-18.3  C213.1,47.3,205.6,39.1,196.8,39.1z M196.8,70.7c-6.1,0-11.3-6.1-11.3-13.3c0-7.3,5.1-13.3,11.3-13.3c6.1,0,11.3,6.1,11.3,13.3  C208.1,64.7,203,70.7,196.8,70.7z"></path>	<path class="st0" d="M147.5,85.2c-0.7-1.6-2.3-2.6-3.9-2.6c-0.7,0-1.3,0-1.6,0.3C20.6,136.1,58.4,259,59.1,260.4  c0.7,2.3,3.3,3.6,5.2,2.6c1-0.3,2-1,2.6-2c0.7-1,0.7-2.3,0.3-3.3c0-0.3-9.5-29.4-4.2-64.6c6.5-47,34.3-81.6,82.2-102.4  C147.5,89.7,148.5,87.1,147.5,85.2L147.5,85.2z"></path>	<path class="st0" d="M258.1,82.9c-0.7-0.3-1-0.3-1.6-0.3c-0.7,0-1,0-1.6,0.3c-1,0.3-2,1.3-2.3,2.3s-0.3,2.3,0,3.3s1.3,2,2.3,2.3  c114.2,49.9,79.6,162.1,78.3,167c-0.7,2.3,0.7,4.6,2.6,5.2c2.3,0.7,4.6-0.7,5.2-2.6C341.3,259,379.8,136,258.1,82.9L258.1,82.9z"></path>	<path class="st0" d="M255.2,340.6c-59.4,25.1-108.3,0.3-108.6,0c-0.7-0.3-1.3-0.3-2-0.3c-0.3,0-1,0-1.3,0.3c-1,0.3-2,1-2.6,2  c-0.7,1-0.7,2.3-0.3,3.3c0.3,1,1,2,2,2.6c1,0.7,23.8,12.4,57.4,12.4c19.9,0,39.5-3.9,58.4-12.1c2.3-1,3.3-3.3,2.3-5.5  C260.1,340.6,257.5,339.6,255.2,340.6L255.2,340.6z"></path></g></svg>