<svg xmlns="http://www.w3.org/2000/svg" xmlns:xlink="http://www.w3.org/1999/xlink" id="Layer_1" x="0px" y="0px" viewBox="0 0 400 400" style="enable-background:new 0 0 400 400;" xml:space="preserve"><style type="text/css">	.st0{fill:#1D1A4E;}</style><g>	<path class="st0" d="M287.2,344.9c-3.1,0-6.3-0.2-9.5-0.6c-14.1-1.9-34.8-5.3-52.9-13.7c-79.1-37-133.9-95.5-162.7-173.7  c-7.1-19-8.9-37.8-5.5-55.8c4.1-21,15-35.1,33.4-43c4.6-2,9.2-3,13.7-3c9,0,17.1,4.1,22.6,11.5c11.5,15.2,22.4,30.8,32.4,46.5  c8.4,13.1,5.5,29.5-7.2,39.9c-3,2.4-6.1,4.6-9.4,6.9c-1.7,1.2-3.5,2.5-5.3,3.8l-1.4,1l0.8,1.5c14.6,27.6,70.2,83.1,97.5,97.4  l1.5,0.8l1-1.4c1.1-1.6,2.2-3.1,3.3-4.7c2.1-3.1,4.4-6.3,6.7-9.3c6.2-8,15.2-12.7,24.5-12.7c5.8,0,11.7,1.8,16.9,5.2  c15.3,10,30.3,20.6,44.7,31.3c12.2,9.1,15.6,22.3,9.4,37C333.1,331.5,312.1,344.9,287.2,344.9C287.2,344.9,287.2,344.9,287.2,344.9  z M103.5,64.3c-3.5,0-7.3,0.9-11.3,2.8c-15.5,7.2-24.6,20.1-27,38.5c-2.3,18,0.2,36,7.3,53.6c32.4,78.9,88.6,135.4,167.1,167.7  c9,3.7,18.8,5.6,28.3,7.5c4.2,0.8,8.5,1.6,12.6,2.6l0.3,0.1l0.3,0c18.9-1.2,39.8-5.6,51.4-28.2c6.1-11.9,3.6-22.3-7.1-30.1  c-6.6-4.8-13.4-9.5-19.9-14c-2.6-1.8-5.1-3.6-7.7-5.3c-13.4-9.4-21-13.9-27.8-13.9c-9.1,0-15.9,8.6-25.9,22.9  c-3.8,5.4-5.8,7.9-7.8,7.9c-2,0-5.3-2.2-9.4-5.1c-37.7-26.5-70.3-58.9-96.8-96.3c-4.4-6.2-6.7-9.5-6.3-11.6  c0.4-2.2,4.1-4.8,10.3-9.1l0.1-0.1c1.4-1,2.7-1.9,4.1-2.8c1.8-1.2,3.7-2.5,5.5-3.9c11.8-8.9,14-20.2,6.1-32  c-9.9-14.7-19.4-28.3-28.9-41.5C116,67.6,110.2,64.3,103.5,64.3z"></path>	<path class="st0" d="M225.1,149.5l-18.3-11.2c25.7-14.6,63.7-22.7,105.8,13.2c0.4,0.4,0.9,0.5,1.5,0.5s1.3-0.3,1.7-0.8  c0.8-0.9,0.7-2.4-0.3-3.2c-20.7-17.6-42.5-26.6-64.8-26.6c-0.5,0-1,0-1.5,0c-15.4,0.3-30.7,4.8-45.5,13.3l-7-20.8  c-2.5,13.6-10.3,30.8-17.8,43.2C192.7,152.6,211.2,148.8,225.1,149.5z"></path>	<path class="st0" d="M185.4,183.4c-0.9-0.8-2.4-0.7-3.2,0.3c-0.8,0.9-0.7,2.4,0.3,3.2c20.7,17.6,42.5,26.6,64.8,26.6  c0.5,0,1,0,1.5,0c15.4-0.3,30.7-4.8,45.5-13.3l7,20.8c2.5-13.6,10.3-30.8,17.8-43.2c-13.7,4.5-32.2,8.2-46.1,7.6l18.3,11.2  C265.5,211.2,227.5,219.2,185.4,183.4z"></path></g></svg>