<svg xmlns="http://www.w3.org/2000/svg" xmlns:xlink="http://www.w3.org/1999/xlink" id="Layer_1" x="0px" y="0px" viewBox="0 0 400 400" style="enable-background:new 0 0 400 400;" xml:space="preserve"><style type="text/css">	.st0{fill:#1D1A4E;}</style><g>	<path class="st0" d="M346.7,95.7c0-5-1.7-7-6.5-8.5c-6.2-1.9-12.4-3.6-18.6-5.6c-41.9-13.3-81.8-31.3-119.7-53.5c-1.3,0-2.7,0-4,0  c-1.4,0.8-2.7,1.5-4.1,2.3c-41.9,24.5-86.2,43.4-132.9,56.3c-6.4,1.8-7.8,3.7-7.8,10.6c0,23.1,0,46.2,0,69.3  c0,25.7,3.5,50.8,12.1,75.1c10.5,30,27,56.4,49.4,79c20.1,20.3,42.9,36.8,69.5,47.8c10.8,4.4,21.1,4.4,31.8,0  c22.8-9.4,42.7-22.9,60.8-39.4c42.8-39.3,66.4-88.2,69.6-146.1C347.7,154,346.6,124.8,346.7,95.7z M332.2,103  c-0.2,26.1,0.3,52.2-0.6,78.3c-1.1,30.4-9.3,59.1-24.2,85.7c-20.7,37-50.2,64.9-88.1,84c-0.7,0.4-1.4,0.7-2.1,1.1  c-16,7.2-19.2,7.3-35.2-0.3c-20.5-9.7-38.6-23-54.8-38.9c-24.4-24-41.6-52.4-51.3-85.3c-5.9-19.8-8.2-40.1-8.3-60.6  c-0.1-21.2,0-42.4-0.1-63.5c0-2.6,0.8-3.6,3.3-4.3c44.3-12.8,86.5-30.8,126.4-53.9c2.1-1.2,3.5-1,5.5,0.1  c35.6,20.4,73,36.8,112,49.4c5.4,1.7,10.9,3.4,16.3,5.1c0.3,0.1,0.6,0.3,1.1,0.6C332.2,101.2,332.2,102.1,332.2,103z"></path>	<path class="st0" d="M274.2,133.6c-10.1-3.6-18.8-0.9-26.3,6.6c-22.7,22.8-45.5,45.5-68.2,68.2c-0.9,0.9-1.6,2.2-2.4,3.3  c-0.5,0.1-1,0.2-1.5,0.3c-0.6-1.1-1.1-2.3-1.9-3.2c-8.3-8.3-16.4-16.8-25.1-24.8c-8-7.3-20.9-7.2-29.1-0.6  c-11.8,9.5-12.6,25.1-1.7,36.2c13.7,13.9,27.5,27.6,41.4,41.3c1.6,1.6,3.3,3,5.3,4.1c10,5.9,21.1,4.2,29.9-4.6c29-29,58-58,87-87  c1.2-1.2,2.3-2.5,3.3-3.8C294.2,157.5,288.7,138.7,274.2,133.6z M270.7,163.4c-25.4,25.6-51,51.1-76.5,76.6  c-3.6,3.6-7.1,7.2-10.7,10.7c-4.3,4.2-9.4,4.3-13.6,0.1c-14-13.9-27.9-27.8-41.8-41.8c-4-4-4.1-9.6-0.5-13.2  c3.6-3.6,9.2-3.4,13.2,0.6c9.6,9.5,19.2,19.1,28.8,28.7c5.4,5.4,8.8,5.4,14.2,0c24.8-24.8,49.6-49.6,74.4-74.4  c2.7-2.7,5.6-4.8,9.8-3.7c4.3,1,6.9,4.4,6.9,10.5C273.9,158.6,272.7,161.4,270.7,163.4z"></path>	<path class="st0" d="M135.7,99.2c-1.5-3.9-5.5-5.4-10.1-3.8c-12.7,4.5-25.4,8.9-38.2,13.5c-4,1.4-5.7,3.8-5.8,8.1  c-0.1,4.4,0,8.7,0,13.1c0,4.3-0.1,8.5,0,12.8c0.1,5.3,3.1,8.5,7.5,8.4c4.3-0.1,7.1-3.3,7.1-8.4c0-6,0.2-12.1-0.1-18.1  c-0.1-2.7,0.9-3.6,3.3-4.4c10.4-3.6,20.8-7.3,31.2-11.2C135.4,107.2,137.3,103.2,135.7,99.2z"></path>	<path class="st0" d="M282.1,260.5c-3.2,0-5.1,1.8-6.8,4.2c-3.5,4.8-6.9,9.6-10.6,14.2c-8.6,10.7-18.7,19.8-29.3,28.5  c-4.3,3.5-4.9,7.9-1.9,11.4c2.8,3.2,6.9,3.2,11,0c14.5-11.4,27.4-24.3,38.3-39.2c1.9-2.6,3.9-5.2,5.5-8  C291.2,266.3,287.8,260.5,282.1,260.5z"></path>	<path class="st0" d="M221.6,318.6c-4.3-0.1-7.7,3.2-7.8,7.5c0,4,3.1,7.3,7.2,7.3c3.9,0,7.6-3.5,7.7-7.4  C228.8,322.1,225.5,318.7,221.6,318.6z"></path>	<path class="st0" d="M149.3,100.7c4.1-0.1,7.6-3.5,7.5-7.5c-0.1-3.9-3.6-7.3-7.4-7.2c-3.8,0.1-7.3,3.6-7.3,7.3  C142.1,97.2,145.6,100.7,149.3,100.7z"></path></g></svg>