<svg xmlns="http://www.w3.org/2000/svg" xmlns:xlink="http://www.w3.org/1999/xlink" id="Layer_1" x="0px" y="0px" viewBox="0 0 400 400" style="enable-background:new 0 0 400 400;" xml:space="preserve"><style type="text/css">	.st0{fill:#322B6A;}</style><g>	<path class="st0" d="M202.41,350.56c-5.25-0.58-10.5-1.12-15.73-1.76c-21.62-2.66-42.95-6.52-63.4-14.43  c-5.14-1.99-7.45-5.51-7.3-10.45c0.25-8.3,0.77-16.63,1.81-24.87c1.69-13.52,4.53-26.79,9.87-39.46  c3.81-9.04,10.73-14.04,19.55-17.33c8.33-3.1,16.58-6.46,24.66-10.16c3.38-1.54,6.22-4.24,9.02-6.21c1.21,4.09,2.3,8.82,4.02,13.32  c6.17,16.18,24.37,23.49,39.66,16.08c6.43-3.12,10.26-8.46,11.93-15.2c1.17-4.71,1.62-9.61,2.37-14.35  c5.68,6.59,14.17,8.92,22.27,12.12c6.9,2.72,13.68,5.78,20.3,9.12c6.39,3.23,9.05,9.55,11.53,15.77c4.78,12,7.18,24.6,8.8,37.34  c0.83,6.51,1.31,13.06,1.82,19.6c0.15,1.93-0.04,3.92-0.29,5.85c-0.56,4.35-2.8,7.08-7.1,8.76c-16.15,6.33-32.93,10.08-49.99,12.65  c-8.81,1.33-17.7,2.09-26.55,3.12c-0.66,0.08-1.31,0.32-1.96,0.48C212.61,350.56,207.51,350.56,202.41,350.56z"></path>	<path class="st0" d="M332.79,258.46c-7.89-4.29-15.61-8.49-23.63-12.85c16.45-32.29,18.35-65.32,4.65-98.78  c-8.73-21.31-23.09-38.37-42.33-51.07c-42.09-27.8-96.16-25.02-135.12,6.49c-35.97,29.1-50.73,76.87-37.62,120.9  c0.98-4.41,1.83-8.01,2.58-11.63c0.83-3.98,2.56-7.24,6.69-8.55c6.82-2.16,13.37,3.57,11.88,10.75  c-2.78,13.42-5.84,26.78-9.01,40.11c-1.39,5.84-5.88,8.55-11.8,7.27c-13.87-3-27.72-6.14-41.54-9.34  c-5.37-1.25-8.42-6.06-7.31-10.98c1.2-5.32,6.04-8.26,11.69-7.07c3.83,0.81,7.64,1.68,11.47,2.52c0.08,0.02,0.17-0.05,0.56-0.18  c-13.01-41.44-9.11-81.19,13.37-118.55c15.89-26.41,38.38-45.7,66.93-57.35c58.4-23.82,124.6-6.92,163.62,41.01  C358.21,150.71,357.46,214.76,332.79,258.46z"></path>	<path class="st0" d="M257.01,152.66c-0.45,3.69-0.79,7.39-1.39,11.05c-0.44,2.68-0.54,5.08,0.11,7.91  c1.47,6.45-0.23,12.78-3.09,18.74c-0.75,1.55-1.5,3.14-1.95,4.8c-3.79,14.1-11.1,25.87-23.16,34.31  c-12.63,8.84-25.9,8.12-37.78-1.9c-10.47-8.83-17.01-20.06-19.76-33.49c-0.17-0.85-0.35-1.79-0.82-2.48  c-3.51-5.17-4.38-11.05-4.34-17.07c0.01-1.9,1.24-3.78,1.71-5.71c0.31-1.26,0.4-2.61,0.34-3.9c-0.28-6.25-1.04-12.51-0.89-18.74  c0.23-10.05,5.54-17.81,12.73-24.27c3.25-2.92,7-5.34,10.73-7.66c6.09-3.8,12.89-4.95,19.76-3.16c8.87,2.31,17.86,4.59,26.28,8.14  C249.94,125.32,256.9,136.87,257.01,152.66z"></path></g></svg>