<svg xmlns="http://www.w3.org/2000/svg" xmlns:xlink="http://www.w3.org/1999/xlink" id="Layer_1" x="0px" y="0px" viewBox="0 0 400 400" style="enable-background:new 0 0 400 400;" xml:space="preserve"><style type="text/css">	.st0{fill:#322B6A;}</style><g>	<polygon class="st0" points="285.24,82.82 285.24,105.06 307.5,105.06  "></polygon>	<path class="st0" d="M183.56,273.15c-0.04,0.42-0.07,0.8-0.07,1.17c0,7.15,0,14.3,0,21.55v7.51h129.55v-32.65h-129.3l-0.13,1.86  L183.56,273.15z"></path>	<path class="st0" d="M313.29,309.48h-129.8c0,0,0,4.31,0,4.89c-0.04,9.45-4.85,14.25-14.28,14.25l-62.72,0l-0.18,1.81  c-0.45,4.55-0.35,7.57,1.45,9.56c1.75,1.93,4.55,2.31,8.8,2.31l188.63,0c5.47-0.06,8.04-2.59,8.09-7.96  c0.02-1.82,0.01-3.64,0.01-5.46l0-2.42V309.48z"></path>	<path class="st0" d="M332.97,57.71H144.3c0,0-1.12-0.01-1.35-0.01c-0.41,0-0.83,0.01-1.24,0.05c-3.8,0.33-6.18,2.65-6.54,6.37  c-0.12,1.18-0.09,2.34-0.06,3.56c0.01,0.55,0.03,1.11,0.03,1.71v2l61.1,0c24.78,0,54.07-0.01,83.46-0.06h0.03  c2.7,0,4.59,0.8,6.5,2.75c9.53,9.71,19.68,19.86,30.17,30.17c1.87,1.84,2.64,3.66,2.63,6.28c-0.06,57.77-0.06,116.51-0.06,173.31  l0,38.48l1.57,0.35c0.22,0.05,0.38,0.09,0.5,0.12c0.29,0.07,0.57,0.14,0.93,0.15c3.63,0.02,7.26,0.03,10.89,0.03  c7.34,0,9.46-2.1,9.46-9.36V67.19C342.32,59.84,340.22,57.71,332.97,57.71z"></path>	<path class="st0" d="M119.74,287.23c0-0.95,0-1.9,0.01-2.85c0.01-2.15,0.02-4.37-0.03-6.57c-0.09-4.13-2.81-7.1-6.61-7.21l-0.23,0  c-3.89,0-6.74,3.05-6.79,7.26c-0.06,6.04-0.06,12.26,0,18.48c0.04,4.14,2.76,7.12,6.6,7.24l0.24,0c3.84,0,6.69-3.04,6.79-7.23  c0.05-2.12,0.04-4.27,0.03-6.34C119.75,289.08,119.74,288.15,119.74,287.23z"></path>	<path class="st0" d="M169.15,322.95c6.23,0,8.65-2.43,8.65-8.65c0.01-18.14,0.01-36.28,0-54.42c0-6.22-2.43-8.64-8.66-8.65  l-80.78,0l-22.03,0c-6.22,0-8.65,2.43-8.65,8.65c-0.01,18.14-0.01,36.28,0,54.42c0,6.22,2.43,8.65,8.65,8.65l51.41,0L169.15,322.95  z M134.28,277.54c0.08-7.24,5.37-12.54,12.57-12.6c0.53,0,1.06-0.01,1.6-0.01c2.18,0,4.49,0.07,6.61,0.57  c4.65,1.1,7.94,4.85,8.77,9.81h-5.81c-1.92-3.08-5.61-5.13-9.4-5.13c-1.86,0-3.62,0.5-5.11,1.44c-1.83,1.16-3.34,3.78-3.44,5.97  c-0.26,5.79-0.19,11.65-0.12,17.33l0.02,1.51c0.05,4.22,2.64,6.9,6.92,7.17c0.14,0.01,0.27,0.01,0.41,0.01h0.27  c0.47,0.01,0.93,0.02,1.36,0.02c3.42,0,6.05-0.38,7.73-2.2c1.83-1.98,1.97-5.04,1.6-9.65l-0.15-1.84h-9.16v-5.54  c0.81-0.01,1.63-0.02,2.44-0.03c1.48-0.02,2.97-0.04,4.46-0.04c2.51,0,4.55,0.05,6.42,0.17c1.3,0.08,1.79,1.42,1.81,2.55  c0.07,3.21,0.06,6.63-0.04,11.09c-0.02,0.74-0.26,1.59-0.51,2.4c-1.78,5.77-6.88,8.95-14.36,8.95c-1.27,0-2.61-0.1-3.99-0.29  c-6.36-0.88-10.85-6.08-10.91-12.67C134.21,289.58,134.21,283.37,134.28,277.54z M91.31,309.18c-1.22,0-2.44,0.01-3.66,0.02  c-1.89,0.01-3.78,0.03-5.68,0.03c-3.36,0-6.09-0.05-8.6-0.15c-1.88-0.08-1.98-2.22-1.98-2.65c-0.03-10.73-0.03-21.45-0.03-32.31  l0-9.12h5.62v38.48h14.32V309.18z M112.9,309.27c-6.73-0.01-12.32-5.44-12.46-12.12c-0.14-6.76-0.14-13.54,0-20.15  c0.14-6.67,5.74-12.09,12.47-12.09c6.79,0.01,12.27,5.34,12.48,12.14c0.07,2.32,0.05,4.7,0.03,7c-0.01,1.07-0.02,2.14-0.02,3.2  c0,1.05,0.01,2.09,0.02,3.14c0.02,2.22,0.04,4.53-0.03,6.77c-0.22,6.79-5.71,12.11-12.49,12.11H112.9z"></path>	<path class="st0" d="M151.49,212.29c-0.46,0.39-0.91,0.77-1.35,1.15l-1.61,1.41l17.02,17.05l1.41-1.49  c0.37-0.39,0.74-0.79,1.11-1.19c0.81-0.87,1.64-1.77,2.5-2.6c1.25-1.22,1.87-1.39,2.36-1.39c0.59,0,1.41,0.26,2.75,0.86  c6.01,2.7,12.31,5.3,19.25,7.96c2.65,1.01,3.13,2.11,3.08,3.77c-0.03,1.31-0.03,2.62-0.02,3.91c0,0.56,0.01,1.12,0.01,1.67v2h23.36  v-2c0-0.61,0-1.21,0.01-1.8c0.01-1.3,0.02-2.54-0.02-3.78c-0.05-2.04,0.72-3.1,2.56-3.52c7.24-1.68,14.17-4.56,20.58-8.57  c0.62-0.39,1.21-0.59,1.75-0.59c0.71,0,1.39,0.34,2.1,1.05c0.93,0.93,1.81,1.97,2.67,2.97c0.39,0.46,0.78,0.92,1.17,1.36l1.41,1.6  l17.27-17.25l-1.63-1.41c-0.4-0.35-0.82-0.69-1.25-1.05c-0.9-0.75-1.83-1.52-2.64-2.33c-1.73-1.74-1.79-2.31-0.54-5.08  c2.73-6.08,5.33-12.37,7.96-19.25c0.99-2.6,2.03-3.09,3.6-3.09l0.16,0c0.72,0.02,1.45,0.03,2.17,0.03c0.58,0,2.87-0.02,3.43-0.02h2  V159.3h-2l-3.47-0.01c-0.71,0-1.41,0-2.11,0.02l-0.17,0c-1.94,0-2.95-0.77-3.37-2.56c-1.69-7.26-4.58-14.18-8.56-20.57  c-0.94-1.51-0.75-2.72,0.63-4.04c0.92-0.88,1.9-1.72,2.85-2.54c0.44-0.38,0.88-0.76,1.31-1.13l1.6-1.41l-17.26-17.21l-1.4,1.63  c-0.34,0.4-0.69,0.82-1.04,1.24c-0.74,0.9-1.51,1.82-2.32,2.63c-1.36,1.35-2.04,1.52-2.49,1.52c-0.57,0-1.33-0.3-2.34-0.92  c-6.26-3.85-12.91-6.6-19.76-8.16c-2.08-0.47-2.9-1.52-2.85-3.61c0.03-1.31,0.03-2.62,0.02-3.94c0-0.58-0.01-1.16-0.01-1.75v-2H198  v2c0,0.65,0,1.28-0.01,1.89c-0.01,1.31-0.01,2.55,0.01,3.78c0.05,2.05-0.72,3.11-2.56,3.54c-7.2,1.67-14.12,4.55-20.57,8.56  c-0.62,0.39-1.21,0.58-1.74,0.58c-0.75,0-1.53-0.41-2.3-1.22c-0.88-0.91-1.72-1.9-2.54-2.86c-0.38-0.44-0.75-0.87-1.12-1.29  l-1.41-1.61l-17.22,17.24l1.62,1.41c0.4,0.35,0.81,0.69,1.24,1.04c0.9,0.75,1.82,1.52,2.64,2.34c1.71,1.72,1.77,2.34,0.54,5.09  c-2.7,6.01-5.3,12.3-7.96,19.25c-0.99,2.6-2.04,3.09-3.62,3.09l-0.16,0c-0.73-0.02-1.46-0.02-2.18-0.02c-0.58,0-2.85,0.01-3.4,0.01  h-2v23.35h2c0.61,0,3.49,0.01,3.49,0.01c0.7,0,1.4-0.01,2.09-0.02l0.17,0c1.93,0,2.94,0.77,3.36,2.57  c1.68,7.23,4.57,14.15,8.57,20.57c0.9,1.44,0.75,2.63-0.47,3.85C153.54,210.56,152.5,211.44,151.49,212.29z M173.56,134.69  c9.69-9.62,22.64-14.92,36.47-14.92c13.52,0.01,26.23,5.34,35.83,15c9.76,9.81,15.09,22.83,15.03,36.67  c-0.13,27.98-23.04,50.75-51.06,50.75h-0.11c-13.76-0.03-26.69-5.42-36.4-15.18c-9.63-9.68-14.9-22.48-14.86-36.05  C158.51,157.19,163.87,144.31,173.56,134.69z"></path>	<path class="st0" d="M185.5,186.23c1.46,1.55,2.99,3.05,4.46,4.5c2.04,2.01,4.15,4.08,6.04,6.24c0.99,1.13,1.73,2.97,1.9,4.69  c0.25,2.62,0.2,5.27,0.14,8.08c-0.02,1.18-0.05,2.37-0.05,3.56v1.55l1.51,0.38c3.39,0.86,6.69,1.28,10.08,1.28c0,0,0,0,0,0  c3.34,0,6.68-0.41,10.22-1.24l1.54-0.36v-1.58c0-1.24-0.02-2.46-0.04-3.67c-0.05-2.83-0.1-5.51,0.14-8.15  c0.14-1.59,0.86-3.37,1.78-4.42c1.9-2.16,4.02-4.25,6.07-6.27c1.47-1.45,2.99-2.94,4.44-4.47c1.21-1.28,2.02-3.1,2.06-4.64  c0.14-5.16,0.1-10.39,0.06-15.45l-0.01-1.24c-0.01-1.61-0.38-2.77-1.11-3.56c-2.06-2.22-4.14-4.33-6.54-6.78  c-0.83-0.84-1.68-1.71-2.58-2.63l-3.43-3.51v4.91l-0.01,4.17c-0.01,2.88-0.01,5.42,0.02,7.97c0.02,1.57-0.56,2.5-2.05,3.35  c-5.19,2.93-7.76,4.38-10.01,4.38c-2.17,0-4.87-1.36-9.77-3.83c-0.24-0.12-0.5-0.24-0.75-0.35l-0.16-0.07  c-1.71-0.76-2.39-1.88-2.33-3.86c0.07-2.53,0.06-5.09,0.04-7.57c-0.01-1.07-0.01-2.15-0.01-3.22v-1.22l-3.14-1.61  c0,0-2.46,2.55-3.17,3.29c-2.03,2.1-4.14,4.27-6.14,6.49c-0.96,1.07-1.18,2.65-1.19,3.8c-0.05,5.05-0.11,10.79,0.04,16.39  C183.59,183.18,184.36,185.02,185.5,186.23z"></path>	<path class="st0" d="M170.42,245.56c7.73,0.01,12.98,5.26,13.07,13.06c0.01,0.93,0.01,1.86,0,2.78l0,3.28h129.65V110.93l-19.6,0  c-3.22,0-6.45,0-9.67-0.01c-3.78-0.01-4.44-0.69-4.45-4.56c-0.01-6.32-0.01-12.64,0-19.11l0-10.2l-164.37,0  c-6.71,0-8.97,2.25-8.97,8.93l0,159.55l39.09-0.01C153.58,245.54,162,245.54,170.42,245.56z M143.74,212.37  c4.56-4.65,4.72-5.5,2.15-11.37l-0.09-0.2c-1.41-3.21-2.55-6.19-3.48-9.1c-0.27-0.84-1.1-3.4-4.3-3.4c-0.16,0-0.32,0.01-0.49,0.02  c-0.7,0.05-1.43,0.07-2.24,0.07c-0.89,0-1.78-0.03-2.67-0.07c-3.12-0.14-3.14-2.2-3.14-2.88c-0.09-9.7-0.08-19.45,0-28.98  c0.01-1.37,0.73-2.76,2.07-2.76c0.12,0,0.25,0.01,0.39,0.04c0.99,0.17,1.92,0.26,2.78,0.26c7.67,0,9.15-7.08,9.63-9.4  c0.42-2,1.6-4.06,2.59-5.64c1.81-2.89,1.37-5.4-1.3-7.47c-0.93-0.72-1.77-1.66-2.65-2.66l-0.07-0.08c-2.07-2.33-0.61-3.81-0.13-4.3  c6.51-6.64,13.33-13.47,20.27-20.29c0.72-0.71,1.54-1.1,2.3-1.1c0.72,0,1.34,0.36,1.86,1.06c2.32,3.15,4.84,4.69,7.72,4.69  c2.08,0,4.23-0.78,6.76-2.47c1.13-0.75,2.57-1.21,4.1-1.7c1.14-0.36,2.31-0.74,3.45-1.26c1.43-0.66,2.7-2.34,2.96-3.91  c0.21-1.26,0.17-2.48,0.14-3.66c-0.02-0.7-0.04-1.35-0.01-1.99c0.1-2.03,1.08-3.02,3-3.03c4.77-0.04,9.53-0.06,14.3-0.06  c4.8,0,9.59,0.02,14.39,0.06c1.08,0.01,1.99,0.36,2.5,0.96c0.37,0.44,0.5,1,0.39,1.66c-1.09,6.76,1.77,10.71,8.74,12.07  c1.94,0.38,3.95,1.54,5.88,2.67l0.6,0.35c1.02,0.59,1.94,0.87,2.84,0.87c1.81,0,3.02-1.13,3.77-1.97c2.56-2.89,4.22-4.17,5.38-4.17  c1.28,0,3.04,1.58,5.65,4.32c2.91,3.04,5.94,6.05,8.87,8.95c2.35,2.33,4.79,4.74,7.13,7.15c0.57,0.59,1.04,1.4,1.63,2.42  c0.12,0.21,0.24,0.42,0.37,0.63c-0.2,0.26-0.39,0.52-0.57,0.78c-0.88,1.21-1.65,2.26-2.55,3c-3.43,2.83-3.96,5.79-1.71,9.61  c1.56,2.65,2.61,5.77,3.63,8.8l0.49,1.44c0.49,1.44,1.47,3.36,4.29,3.36c0.16,0,0.33-0.01,0.5-0.02c0.69-0.05,1.41-0.07,2.22-0.07  c0.9,0,1.79,0.03,2.69,0.07c3.11,0.14,3.13,2.21,3.13,2.89c0.09,9.75,0.08,19.5-0.01,28.98c-0.01,1.33-0.75,2.74-2.09,2.75  c-0.12,0-0.25-0.01-0.38-0.04c-0.98-0.18-1.92-0.26-2.78-0.26c-6.81,0-8.76,5.37-9.63,9.4c-0.4,1.87-1.5,3.78-2.56,5.63l-0.21,0.37  c-0.56,0.99-2.28,3.99,1.04,6.68c1.15,0.93,2.21,2.09,3.19,3.19c1.37,1.53,1.4,2.98,0.1,4.31c-6.69,6.83-13.51,13.65-20.27,20.28  c-0.71,0.7-1.51,1.08-2.26,1.08c-0.73,0-1.37-0.37-1.91-1.08c-2.34-3.13-4.87-4.65-7.72-4.65c-1.99,0-4.12,0.76-6.49,2.33  c-1.19,0.79-2.7,1.28-4.29,1.8c-1.16,0.38-2.37,0.77-3.53,1.31c-1.4,0.64-2.66,2.32-2.94,3.91c-0.22,1.25-0.18,2.46-0.14,3.63  c0.02,0.59,0.04,1.18,0.02,1.77c-0.11,2.89-1.68,3.27-3.04,3.29c-4.74,0.04-9.48,0.06-14.21,0.06c-4.82,0-9.65-0.02-14.47-0.06  c-1.05-0.01-1.97-0.37-2.47-0.97c-0.37-0.44-0.5-1.01-0.39-1.67c1.13-6.68-1.72-10.64-8.72-12.1c-2.16-0.45-4.35-1.68-6.2-2.83  c-1.06-0.66-2.05-0.98-3.01-0.98c-1.76,0-3.04,1.06-4.06,2.09c-2.27,2.3-4.23,4.2-5.23,4.2c-0.99,0-2.86-1.79-5.2-4.13l-4.46-4.45  c-3.93-3.93-7.87-7.85-11.79-11.79C141.2,216,141.2,214.96,143.74,212.37z"></path></g></svg>