<svg xmlns="http://www.w3.org/2000/svg" xmlns:xlink="http://www.w3.org/1999/xlink" id="Layer_1" x="0px" y="0px" viewBox="0 0 400 400" style="enable-background:new 0 0 400 400;" xml:space="preserve"><style type="text/css">	.st0{fill:#322B6A;}</style><path class="st0" d="M286.59,205.29c-22.71-41.78-46.07-84.12-68.66-125.06L204.07,55.1c-0.44-0.8-1.28-1.56-2.16-2.36 c-0.27-0.24-0.54-0.49-0.82-0.75h-1.88c-0.27,0.26-0.55,0.5-0.82,0.75c-0.88,0.8-1.72,1.55-2.16,2.35 c-7.01,12.71-14.04,25.41-21.06,38.12c-20.42,36.91-41.54,75.07-61.77,112.89c-13.97,26.13-14.94,54.63-2.79,82.44 c14,32.04,38.76,51.52,73.6,57.89c5.71,1.04,11.46,1.57,17.07,1.57c0,0,0,0,0,0c12.73,0,25.18-2.7,37-8.01 c32.19-14.48,51.68-39.25,57.93-73.63C300.14,244.81,296.9,224.26,286.59,205.29z M208.32,121.97c0.29-1.87,2-2.7,3.56-2.7l0.15,0 c1.78,0.05,2.79,0.94,4.02,3.52c3.27,6.91,6.56,13.82,9.84,20.72c2.49,5.24,4.98,10.48,7.47,15.73c0.33,0.7,0.6,1.42,0.81,2.15 c0.55,1.91-0.2,3.68-1.92,4.5c-0.54,0.26-1.1,0.39-1.64,0.39c-1.11,0-2.17-0.56-2.98-1.59c-0.4-0.5-0.68-0.94-0.87-1.33l-2.34-4.92 c-5.16-10.85-10.49-22.06-15.65-33.13C208.33,124.36,208.15,123.05,208.32,121.97z M200.15,98.91c0.96,0.01,1.92,0.44,2.66,1.19 s1.16,1.71,1.15,2.64c-0.01,1.95-1.86,3.79-3.81,3.79h-0.02c-1.96-0.01-3.8-1.88-3.79-3.83C196.36,100.75,198.21,98.91,200.15,98.91 z M188.82,193.64c3.13-3.26,7.21-5.06,11.51-5.06c5.05,0,9.57,2.49,12.41,6.82c3.39,5.17,6.42,10.75,9.36,16.15 c1.29,2.37,2.57,4.73,3.9,7.08c1.75,3.11,3.49,6.22,5.26,9.41l4.47,8.01l1.64-3.59c0.16-0.34,0.29-0.65,0.41-0.94 c0.22-0.51,0.4-0.92,0.6-1.27c0.68-1.19,1.99-1.97,3.33-1.97c0.31,0,0.61,0.04,0.89,0.12c1.57,0.43,3.1,2.02,2.81,3.61 c-1.25,6.67-2.55,12.49-4,17.79c-0.35,1.27-1.4,2.13-2.62,2.13c-0.18,0-0.36-0.02-0.54-0.05c-6.85-1.31-12.84-2.67-18.31-4.17 c-1.58-0.43-2.25-2.47-1.86-4.03c0.42-1.71,2.02-2.95,3.8-2.95c0.08,0,0.15,0,0.23,0.01c0.64,0.04,1.32,0.16,2.18,0.3 c0.47,0.08,0.98,0.17,1.54,0.26l3.61,0.55l-1.47-3.34c-0.15-0.35-0.28-0.66-0.4-0.95c-0.26-0.62-0.49-1.16-0.79-1.71 c-6.33-11.42-12.66-22.84-19.02-34.25c-1.98-3.54-4.42-5.34-7.25-5.34c-2.05,0-4.15,0.94-6.43,2.86c-1.07,0.91-2.2,1.39-3.26,1.39 c-0.91,0-1.71-0.36-2.4-1.06C186.79,197.82,186.96,195.58,188.82,193.64z M175.25,232.81c-1.89,3.41-3.77,6.8-5.65,10.17 c-4.96,8.92-10.08,18.14-15.01,27.21c-1.01,1.86-1.25,3.84-0.7,5.72c0.6,2.01,2.09,3.75,4.2,4.89c0.3,0.16,0.61,0.3,0.92,0.44 c0.22,0.1,0.45,0.2,0.67,0.32c1.99,1.07,2.78,2.98,2,4.87c-0.6,1.47-1.86,2.31-3.44,2.31c-0.52,0-1.06-0.09-1.61-0.27 c-4.26-1.42-7.7-4.54-9.45-8.57c-1.69-3.91-1.65-8.2,0.14-12.08c2.05-4.47,4.55-8.88,6.96-13.15c0.94-1.66,1.88-3.32,2.8-5 c2.57-4.68,5.16-9.34,7.84-14.16l5.6-10.07l-4.06,0.65c-0.5,0.08-0.94,0.16-1.35,0.23c-0.71,0.13-1.28,0.23-1.8,0.26 c-0.09,0.01-0.18,0.01-0.27,0.01c-1.69,0-3.27-1.14-3.69-2.65c-0.46-1.66,0.02-3.69,1.59-4.21c5.9-1.97,11.97-3.7,18.06-5.15 c0.22-0.05,0.44-0.08,0.66-0.08c1.42,0,2.31,1.2,2.67,2.31c2.03,6.3,3.53,11.51,4.72,16.42c0.52,2.12-0.49,4-2.44,4.57 c-0.39,0.12-0.78,0.17-1.16,0.17c-1.57,0-2.89-1.03-3.72-2.9l-2.53-5.8L175.25,232.81z M251.7,282.44 c-2.97,4.31-7.97,6.81-13.71,6.86c-4.31,0.04-8.93,0.06-14.54,0.06c-3.73,0-7.47-0.01-11.2-0.02c-3.74-0.01-7.47-0.02-11.21-0.02 h-7.62l2.16,3.13c0.25,0.36,0.48,0.69,0.7,1c0.42,0.6,0.79,1.12,1.13,1.66c1.05,1.67,0.89,3.4-0.45,4.73 c-0.79,0.78-1.77,1.23-2.69,1.23c-0.65,0-1.22-0.23-1.72-0.68c-4.62-4.21-9.03-8.6-13.1-13.06c-1.24-1.36-1.04-2.94,0.61-4.69 c3.21-3.42,6.83-7.06,11.07-11.13c1.1-1.05,2.23-1.61,3.27-1.61c0.83,0,1.64,0.35,2.41,1.03c0.64,0.57,2.61,2.31-0.12,5.9 c-0.16,0.21-0.33,0.41-0.59,0.72l-0.63,0.77l-2.66,3.26H197c4,0,7.96,0,11.88,0.01c3.86,0,7.68,0.01,11.48,0.01 c7.27,0,13.15-0.02,18.51-0.06c2.49-0.02,4.64-1.03,6.07-2.84c1.49-1.9,2.01-4.48,1.4-7.08c-0.06-0.25-0.12-0.5-0.18-0.75 c-0.22-0.88-0.42-1.7-0.38-2.38c0.1-1.7,1.52-3.13,3.31-3.31c0.16-0.02,0.31-0.02,0.47-0.02c2.15,0,3.2,1.61,3.7,2.95 C255.09,273.11,254.53,278.33,251.7,282.44z"></path></svg>