<svg xmlns="http://www.w3.org/2000/svg" xmlns:xlink="http://www.w3.org/1999/xlink" id="Layer_1" x="0px" y="0px" viewBox="0 0 400 400" style="enable-background:new 0 0 400 400;" xml:space="preserve"><style type="text/css">	.st0{fill:#322B6A;}</style><g>	<path class="st0" d="M57.3,180.47c-3.81,4.54-5.84,9.79-7.3,15.37c0,2.73,0,5.47,0,8.2c0.2,0.63,0.46,1.25,0.6,1.89  c3.24,15.43,18.58,26.22,33.72,23.69c23.51-3.92,33.54-30.55,18.46-49.01C91.25,166.51,69.04,166.5,57.3,180.47z"></path>	<path class="st0" d="M200.1,170.01c-16.53-0.04-29.99,13.34-30.03,29.84c-0.04,16.54,13.34,29.99,29.84,30.03  c16.54,0.04,29.99-13.34,30.03-29.84C229.98,183.5,216.6,170.04,200.1,170.01z"></path>	<path class="st0" d="M320.13,170.01c-16.54-0.04-29.98,13.3-30.06,29.82c-0.08,16.49,13.32,30,29.82,30.05  c16.46,0.05,30.05-13.41,30.1-29.82C350.05,183.62,336.55,170.04,320.13,170.01z"></path></g></svg>