<svg xmlns="http://www.w3.org/2000/svg" xmlns:xlink="http://www.w3.org/1999/xlink" id="Layer_1" x="0px" y="0px" viewBox="0 0 400 400" style="enable-background:new 0 0 400 400;" xml:space="preserve"><style type="text/css">	.st0{fill:#322B6A;}</style><g>	<path class="st0" d="M157.58,102.13l0.36,0.01c7.45,0,13.23-5.33,14.05-12.97c0.1-0.93,0.1-1.88,0.1-2.88V85.7  c0.02-5.68,2.01-8.55,5.9-8.55h0.15c5.26,0.1,5.87,5.02,5.87,8.72v28.35h5.03H192v-4.62c-0.01-2.7,0-5.4,0.01-8.1  c0.01-6.14,0.03-12.49-0.06-18.73c-0.11-7.27-5.41-12.85-12.89-13.58c-0.42-0.04-0.83-0.06-1.23-0.06  c-6.47,0-12.26,4.86-13.47,11.3c-0.28,1.49-0.27,3.04-0.26,4.68c0,0.67,0.01,1.34-0.01,2c-0.1,4.37-2.36,6.97-6.11,6.97  c-1.87-0.02-3.35-0.68-4.37-1.89c-1.01-1.21-1.56-2.98-1.57-5.22c0-1.26-0.01-2.52-0.02-3.78c-0.03-4.44-0.06-9.03,0.07-13.55  c0.08-2.72-0.79-4.39-2.89-5.51h-2.43c-1.97,1.35-2.77,2.66-2.76,4.48c0.01,2.28-0.01,4.56-0.03,6.84  c-0.03,4.3-0.06,8.75,0.11,13.11C144.37,96.14,150.17,101.97,157.58,102.13z"></path>	<path class="st0" d="M157.19,119.49c-0.15,1.27-0.12,2.54-0.08,3.77c0.02,0.53,0.03,1.06,0.03,1.59v1h61.83v-1  c0-0.57,0.01-1.09,0.01-1.6c0.01-1.03,0.02-2-0.02-2.95c-0.18-3.83-2.36-6.04-5.99-6.05c-7.98-0.03-15.96-0.04-23.94-0.04  c-8.69,0-17.38,0.01-26.07,0.04C159.75,114.27,157.59,116.22,157.19,119.49z"></path>	<path class="st0" d="M125.28,239.77c10.47,0,45.14-0.02,52.28-0.02c15.55,0,36.06,0.01,56.79,0.11h0.2c4.1,0,7.17-0.61,9.87-3.66  c0.89-1,1.4-1.62,1.53-2.32H125.28V239.77z"></path>	<path class="st0" d="M234.68,250.83H125.86l-1.62,0.01c-0.43,0-0.86-0.01-1.29-0.04c-5.3-0.35-8.77-4.01-8.85-9.32  c-0.06-3.96-0.06-6.98,0.01-9.8c0.11-4.69,3.17-8.15,7.8-8.81c0.98-0.14,2.02-0.15,3-0.15l57.67,0.01  c18.14,0,39.68-0.01,61.81-0.07h0.13c6.08,0,10.26,1.15,12.27,6.87l0.38,1.07l1.01-0.51c9.73-4.87,19.7-7.34,29.65-7.34  c8.08,0,16.44,1.62,24.84,4.83l1.36,0.52l0-30.25c0-18.26,0-36.53-0.01-54.8c-0.01-7.99-4.39-12.44-12.34-12.53l-226.34,0l-0.71,0  c-0.44,0-0.87,0.01-1.31,0.03c-6.92,0.32-11.21,4.82-11.22,11.75c-0.02,36.29-0.02,72.57,0,108.86c0,7.04,4.45,11.6,11.34,11.61  c22.58,0.03,45.15,0.05,67.72,0.05c28.33,0,56.66-0.02,84.99-0.06c1.17,0,2.69-0.9,3.32-1.96c1.1-1.84,2.08-3.8,3.12-5.87  c0.42-0.85,0.87-1.73,1.34-2.65L234.68,250.83z M274.15,150.86c0.29-4.65,3.82-8.04,8.58-8.24c1.49-0.06,3.07-0.09,4.82-0.09  c1.74,0,3.47,0.03,5.21,0.07c5.35,0.12,9.07,3.81,9.26,9.18c0.04,1.16,0.03,2.35,0.02,3.51c0,0.5-0.01,1.01-0.01,1.51  c0,0.56,0.01,1.12,0.01,1.67c0.01,1.1,0.03,2.23-0.03,3.33c-0.26,4.96-3.65,8.46-8.44,8.73c-1.84,0.1-3.68,0.15-5.48,0.15  c-2.02,0-4.02-0.06-5.97-0.19c-4.38-0.29-7.64-3.52-7.94-7.88C273.92,158.75,273.9,154.8,274.15,150.86z M292.67,182.65  c5.6,0.04,9.27,3.84,9.36,9.69c0.04,2.87,0.02,5.8,0,8.33c-0.05,6.42-3.56,10-9.89,10.07c-3.23,0.04-6.45,0.05-9.68,0.05  c-2.39,0-4.79-0.01-7.18-0.01c-2.4-0.01-4.79-0.01-7.19-0.01l-14.53,0.01c-3,0-6.01,0-9.02-0.02c-7.07-0.03-10.52-3.5-10.56-10.61  c0-0.68-0.01-1.36-0.02-2.04c-0.02-2.06-0.04-4.19,0.05-6.26c0.24-5.55,3.88-9.16,9.27-9.19c8.18-0.05,16.51-0.08,24.75-0.08  C276.17,182.57,284.46,182.6,292.67,182.65z M234.05,151.32c0.31-5.13,3.88-8.56,9.11-8.73c0.63-0.02,1.25-0.03,1.88-0.03  c0.48,0,3.13,0.01,3.13,0.01c0.92-0.07,1.74-0.1,2.5-0.1c4.18,0,7.1,0.96,8.93,2.93c2.05,2.21,2.86,5.85,2.47,11.14  c-0.07,0.93-0.08,1.86-0.08,2.76c-0.01,1.38-0.02,2.69-0.23,3.96c-0.71,4.21-3.79,6.99-8.03,7.24c-1.88,0.11-3.83,0.17-5.81,0.17  c-1.65,0-3.35-0.04-5.07-0.12c-5.13-0.23-8.51-3.55-8.81-8.66C233.84,158.36,233.84,154.8,234.05,151.32z M221.96,202.05  c-0.31,4.98-3.52,8.2-8.61,8.63c-0.56,0.05-1.17,0.07-1.9,0.07c-0.55,0-1.1-0.01-1.66-0.02c-0.23-0.01-0.47-0.01-0.7-0.01v-0.01  l-1-0.05c-0.63,0-1.26,0.02-1.89,0.04c-0.61,0.02-1.22,0.03-1.83,0.03c-0.81,0-1.48-0.03-2.1-0.1c-4.78-0.52-8.01-3.93-8.23-8.71  c-0.15-3.25-0.16-6.73-0.01-10.32c0.21-5.03,3.68-8.61,8.64-8.91c1.7-0.1,3.48-0.15,5.27-0.15c1.72,0,3.5,0.05,5.3,0.14  c4.95,0.26,8.36,3.6,8.7,8.51C222.19,194.68,222.19,198.34,221.96,202.05z M194.04,151.43c0.24-5.04,3.94-8.67,9.01-8.82  c1.7-0.05,3.39-0.08,5.04-0.08c1.68,0,3.36,0.03,4.99,0.08c4.93,0.16,8.48,3.51,8.84,8.33c0.28,3.8,0.28,7.64-0.01,11.44  c-0.36,4.74-3.67,7.89-8.64,8.21c-0.63,0.04-1.27,0.05-1.91,0.05c-0.57,0-1.15-0.01-1.72-0.02c-0.55-0.01-1.1-0.02-1.65-0.02h-0.11  c-0.54,0-1.09,0.01-1.64,0.02c-0.53,0.01-1.07,0.02-1.6,0.02c-0.75,0-1.36-0.02-1.93-0.06c-5.06-0.34-8.47-3.8-8.68-8.82  C193.88,158.2,193.89,154.72,194.04,151.43z M182.01,198.12c0,0.94,0.01,1.88-0.01,2.82c-0.13,6.12-3.5,9.6-9.51,9.79  c-1.63,0.05-3.14,0.08-4.61,0.08c0,0,0,0,0,0c-1.56,0-3.08-0.03-4.52-0.09c-5.77-0.24-9.26-3.87-9.32-9.71  c-0.04-3.49-0.04-6.31,0-8.9c0.09-5.56,3.72-9.29,9.25-9.49c1.25-0.04,2.6-0.07,4.14-0.07c1.57,0,3.14,0.02,4.72,0.05  c6.21,0.09,9.71,3.55,9.85,9.75c0.02,1.01,0.02,2.02,0.01,3.02l-0.01,1.42L182.01,198.12z M154.06,151.54  c0.16-5.07,3.81-8.74,8.88-8.93c1.44-0.05,2.97-0.08,4.67-0.08c1.69,0,3.38,0.02,5.08,0.06c5.5,0.11,9.07,3.58,9.3,9.07  c0.05,1.11,0.04,2.25,0.02,3.36c-0.01,0.55-0.01,1.1-0.01,1.66c0,0.47,0.01,0.95,0.01,1.42c0.01,1.09,0.02,2.21-0.02,3.3  c-0.2,5.5-3.51,8.94-8.86,9.18c-1.73,0.08-3.43,0.12-5.06,0.12c-1.89,0-3.74-0.05-5.52-0.16c-4.95-0.29-8.36-3.88-8.49-8.95  C153.96,157.98,153.96,154.69,154.06,151.54z M141.97,201.87c-0.14,4.76-3.28,8.24-7.8,8.65c-2.04,0.19-4.13,0.28-6.22,0.28  c-1.91,0-3.85-0.08-5.75-0.24c-4.81-0.39-7.99-3.93-8.1-9.02c-0.02-1.12-0.02-2.25-0.01-3.38c0-0.55,0-2.37,0-2.37  c0-0.95,0-1.9,0-2.85c0.03-6.7,3.53-10.27,10.13-10.34c1.49-0.02,2.97-0.03,4.46-0.03c1.27,0,2.54,0.01,3.82,0.04  c5.85,0.15,9.4,3.69,9.49,9.48C142.04,195,142.08,198.42,141.97,201.87z M102.03,241.5c-0.11,5.37-3.57,9.01-8.82,9.27  c-1.71,0.09-3.44,0.13-5.15,0.13c-1.71,0-3.44-0.04-5.14-0.13c-5.24-0.27-8.69-3.91-8.78-9.29c-0.05-3.21-0.05-6.4,0-9.48  c0.1-5.5,3.58-9.05,9.08-9.27c1.3-0.05,2.68-0.07,4.24-0.07c1.64,0,3.27,0.03,4.91,0.06c6.17,0.12,9.61,3.63,9.66,9.89  c0.01,0.94,0.01,1.88,0,2.82l0,1.03l0,1.66C102.05,239.25,102.05,240.38,102.03,241.5z M102.02,201.57  c-0.1,5.01-3.17,8.52-7.82,8.95c-2.01,0.18-4.07,0.28-6.12,0.28c0,0,0,0,0,0c-2.04,0-4.11-0.09-6.14-0.27  c-4.5-0.4-7.63-3.89-7.79-8.67c-0.04-1.2-0.03-2.44-0.02-3.64c0-0.56,0.01-1.12,0.01-1.68v-1h-0.01l0-0.3  c0-0.95-0.01-1.9,0.01-2.85c0.07-5.97,3.63-9.62,9.51-9.76c1.57-0.04,3.14-0.06,4.72-0.06c1.58,0,3.02,0.02,4.43,0.07  c5.62,0.19,9.16,3.82,9.24,9.45C102.08,195.7,102.08,198.71,102.02,201.57z M99.62,167.89c-1.79,1.93-4.68,2.87-8.83,2.87  c0,0,0,0,0,0c-0.75,0-1.55-0.03-2.39-0.09c-0.82-0.06-1.63-0.07-2.38-0.07l-1.26,0c-0.83,0-1.71-0.01-2.57-0.09  c-4.57-0.42-7.86-3.9-8.01-8.47c-0.11-3.35-0.11-6.83-0.01-10.65c0.13-4.82,3.65-8.5,8.38-8.75c1.89-0.1,3.78-0.15,5.61-0.15  c1.88,0,3.75,0.05,5.55,0.16c4.66,0.27,8.16,3.99,8.32,8.84c0.04,1.21,0.03,2.43,0.02,3.62c0,0.54-0.01,1.06-0.01,1.57  C102.45,162.04,101.66,165.68,99.62,167.89z M114.15,151.01c0.19-4.55,3.83-8.15,8.47-8.37c1.81-0.09,3.64-0.13,5.45-0.13  c1.81,0,3.64,0.04,5.44,0.13c4.78,0.23,8.26,3.8,8.47,8.67c0.05,1.19,0.04,2.43,0.02,3.62c0,0.23,0,0.46-0.01,0.7h0l-0.02,1  c0,0.6,0.01,1.19,0.02,1.79c0.02,1.26,0.04,2.55-0.03,3.81c-0.23,4.38-3.5,7.91-7.6,8.21c-2.07,0.15-4.17,0.22-6.27,0.22  c-2.1,0-4.23-0.08-6.33-0.23c-4.17-0.3-7.44-3.82-7.61-8.2C114,158.4,114,154.63,114.15,151.01z"></path>	<path class="st0" d="M285.61,230.72h-0.12c-28.94,0-52.49,23.58-52.5,52.56c0,14,5.47,27.19,15.41,37.15  c9.94,9.96,23.1,15.44,37.07,15.44h0.13c28.85-0.07,52.31-23.66,52.31-52.59C337.91,254.36,314.44,230.78,285.61,230.72z   M305.66,285.46l-3.14-2.98c-0.94-0.89-1.77-1.68-2.6-2.48c-1.36-1.31-2.47-1.92-3.5-1.92c-0.99,0-2.06,0.57-3.36,1.79  c-6.44,6.05-12.71,12.98-14.99,22.62c-0.37,1.56-0.68,3.17-0.97,4.74c-0.14,0.73-0.28,1.47-0.42,2.2l-0.27,1.37l-1.19-0.75  c-5.56-3.5-9.04-8.76-9.82-14.8c-0.73-5.73,1.13-11.6,4.99-15.72c2.22-2.37,4.55-4.69,6.81-6.93c1.37-1.37,2.74-2.73,4.1-4.11  c2.76-2.82,2.75-4.44-0.06-7.25c-0.74-0.74-1.58-1.38-2.46-2.06c-0.41-0.32-0.82-0.63-1.22-0.96l-0.69-0.56l1.3-1.9h27.5V285.46z"></path></g></svg>