<svg xmlns="http://www.w3.org/2000/svg" xmlns:xlink="http://www.w3.org/1999/xlink" id="Layer_1" x="0px" y="0px" viewBox="0 0 400 400" style="enable-background:new 0 0 400 400;" xml:space="preserve"><style type="text/css">	.st0{fill:#322B6A;}</style><g>	<path class="st0" d="M203.83,204.47c12.52-17.44,31.31-29.57,52.91-34.14c2.77-0.59,5.57-1.03,8.38-1.33V98.65  c-0.01-0.01-0.01-0.03-0.02-0.04c-0.17-0.42-0.39-0.94-0.51-1.55c-0.02-0.08-0.04-0.16-0.06-0.24c-0.51-2.86-1.51-5.61-2.97-8.24  l-0.04-0.07c-0.24-0.42-0.51-0.87-0.8-1.32c-1.32-2.12-2.89-4.05-4.69-5.75c-0.81-0.77-1.64-1.48-2.5-2.14  c-0.06-0.04-0.11-0.08-0.17-0.13c-0.31-0.23-0.63-0.46-0.95-0.68c-0.16-0.12-0.33-0.24-0.5-0.36c-0.25-0.16-0.49-0.32-0.74-0.47  c-0.31-0.19-0.61-0.38-0.92-0.55c-0.29-0.17-0.58-0.33-0.88-0.49c-0.14-0.07-0.28-0.14-0.42-0.22c-0.39-0.2-0.79-0.39-1.19-0.57  c-0.03-0.01-0.07-0.03-0.1-0.04c-3.33-1.49-6.93-2.32-10.77-2.48c-0.92-0.06-1.71-0.09-2.47-0.09l-1.93,0.02  c-1.17-0.01-2.43-0.02-3.81-0.02c-1.1,0-2.2,0-3.3,0.01v0.02h-1.01l-2.09,0.06c-1.06,0.01-2.13,0.01-3.21,0.02h-46.7l-0.08-0.01  c-0.33-0.02-0.66-0.03-1-0.03l-1.81,0.01c-3.31,0-6.63,0.01-9.94,0.01c-3.32,0-6.63-0.01-9.95-0.01l-1.81-0.01  c-0.33,0-0.67,0.01-0.99,0.03l-0.09,0.01H100c-1.08-0.01-2.15-0.01-3.21-0.02l-2.09-0.06h-1.01v-0.02c-1.1-0.01-2.2-0.01-3.3-0.01  c-1.38,0-2.64,0.01-3.81,0.02l-1.93-0.02c-0.76,0-1.55,0.03-2.46,0.09c-3.85,0.16-7.45,0.99-10.78,2.48  c-0.03,0.01-0.07,0.03-0.1,0.04c-0.4,0.18-0.8,0.37-1.19,0.57c-0.14,0.08-0.28,0.15-0.42,0.22c-0.3,0.16-0.59,0.32-0.88,0.49  c-0.31,0.17-0.61,0.36-0.92,0.55c-0.24,0.15-0.49,0.31-0.74,0.47c-0.17,0.12-0.34,0.24-0.5,0.36c-0.32,0.22-0.64,0.45-0.95,0.68  c-0.05,0.05-0.11,0.09-0.17,0.13c-0.86,0.66-1.69,1.37-2.5,2.14c-1.8,1.7-3.37,3.63-4.69,5.75c-0.29,0.45-0.56,0.9-0.8,1.32  l-0.03,0.07c-1.47,2.63-2.47,5.38-2.98,8.24c-0.02,0.08-0.04,0.16-0.06,0.24c-0.12,0.61-0.34,1.13-0.51,1.55  c-0.01,0.01-0.01,0.03-0.02,0.04v172.61c0.01,0.02,0.01,0.03,0.02,0.05c0.17,0.42,0.39,0.94,0.51,1.55  c0.02,0.08,0.04,0.16,0.07,0.3c0.5,2.77,1.48,5.5,2.95,8.15l0.06,0.1c0.25,0.44,0.51,0.88,0.8,1.33c1.31,2.11,2.88,4.04,4.68,5.74  c5.37,5.09,11.81,7.82,19.21,8.13c0.86,0.06,1.65,0.08,2.42,0.08l3.63-0.02h6.13v-0.05l2.36-0.02c6.88-0.04,14.35-0.06,22.83-0.06  c8.29,0,16.58,0.02,24.87,0.04h2.21c0.34,0.03,0.68,0.04,0.99,0.04l1.29-0.01h0.73c3.28,0,6.55,0,9.83-0.01  c3.27,0.01,6.54,0.01,9.82,0.01h0.73l1.29,0.01c0.31,0,0.65-0.01,1-0.04h2.2c7.99-0.02,15.99-0.04,23.98-0.04  c-5.42-9.59-8.91-20.12-10.18-31C185.82,243.6,191.31,221.91,203.83,204.47z M93.17,137.84c0.79-0.74,1.94-1.13,3.32-1.14  c7.04-0.03,14.07-0.03,21.11-0.03h74.84c9.86,0,19.73,0,29.59,0.02c1.8,0,3.26,0.54,4.12,1.52c0.65,0.73,0.9,1.67,0.76,2.78  c-0.26,1.94-1.64,3.29-3.61,3.5c-0.33,0.04-0.72,0.06-1.24,0.06c-0.23,0-1.21-0.02-1.47-0.02l-123.35,0.01  c-0.21,0-0.43,0-0.65-0.01c-2.74-0.08-4.52-1.63-4.53-3.94C92.06,139.47,92.44,138.52,93.17,137.84z M158.07,220.57l-7.45,0.01  h-24.74c-9.67,0-19.34,0-29.01-0.02c-1.96,0-3.61-0.82-4.4-2.18c-0.64-1.1-0.61-2.39,0.09-3.63c0.6-1.07,1.55-2.05,4.37-2.05  c4.7,0.02,9.33,0.03,13.96,0.03l34.79-0.02c4.17,0,8.35,0,12.52,0.01c1.92,0.01,3.46,0.5,4.34,1.39c0.62,0.64,0.93,1.49,0.92,2.55  C163.41,220.06,160.06,220.57,158.07,220.57z M184.29,182.56l-85.99-0.01c-0.25,0-1.2,0.01-1.42,0.01c-0.53,0-0.92-0.01-1.26-0.06  c-2.12-0.26-3.65-2.02-3.55-4.07c0.09-2.04,1.62-3.58,3.62-3.66c1.75-0.06,3.64-0.09,6.11-0.09c1.02,0,2.03,0,3.05,0.01h37  l23.18-0.01c6.4,0,12.81,0.01,19.21,0.04c1.79,0,3.26,0.67,4.05,1.82c0.66,0.95,0.76,2.15,0.29,3.38  C188.09,181.22,187.19,182.56,184.29,182.56z"></path>	<path class="st0" d="M346.01,252.96c-1.42-39.48-33.38-70.41-72.77-70.41c-0.97,0-1.95,0.02-2.92,0.06  c-19.02,0.72-36.67,9-49.68,23.31c-13.01,14.3-19.76,32.83-19.01,52.18c1.44,37.22,34.11,68.67,71.33,68.67  c0.83,0,1.67-0.02,2.51-0.05C315.77,325.23,347.41,292.13,346.01,252.96z M314.22,257.85c-3.2,3.26-6.5,6.54-9.69,9.71  c-1.74,1.73-3.48,3.47-5.22,5.2c-3.46,3.46-6.91,6.93-10.36,10.39c-3.96,3.97-7.93,7.95-11.89,11.92  c-0.76,0.76-1.96,1.67-3.36,1.67c-1.03,0-2.04-0.49-3-1.45c-11.98-11.94-24.2-24.19-37.38-37.44c-1.12-1.13-2.22-2.92-1.09-5.04  c0.69-1.28,1.88-2.08,3.12-2.08c0.29,0,0.58,0.04,0.87,0.13c1.07,0.31,2.32,1.11,3.41,2.18c5.62,5.51,11.29,11.17,16.77,16.65  c2.34,2.34,4.69,4.69,7.04,7.03c0.45,0.45,0.9,0.83,1.48,1.32c0.29,0.25,0.63,0.53,1.02,0.87l3.95,3.45l0-24.06  c0-13.5,0-26.99,0.01-40.49c0-4.45,2.3-4.87,3.05-5c0.32-0.06,0.63-0.09,0.93-0.09c2.34,0,3.87,1.81,3.88,4.6  c0.04,7.12,0.03,14.37,0.02,21.38c0,2.87-0.01,5.73-0.01,8.6v30.74l3.54,1.8l1.22-1.28c0.47-0.5,0.94-1,1.41-1.49  c0.97-1.03,1.97-2.09,2.97-3.1l2.51-2.51c6.27-6.28,12.75-12.77,19.16-19.11c1.06-1.04,2.29-1.62,3.47-1.62  c1.12,0,2.12,0.51,2.9,1.46C316.73,254.44,315.54,256.51,314.22,257.85z"></path></g></svg>