<svg xmlns="http://www.w3.org/2000/svg" xmlns:xlink="http://www.w3.org/1999/xlink" id="Layer_1" x="0px" y="0px" viewBox="0 0 400 400" style="enable-background:new 0 0 400 400;" xml:space="preserve"><style type="text/css">	.st0{fill:#322B6A;}</style><g>	<path class="st0" d="M164.26,244.07l0.77-6.68H99.57v-9.43l29.36,0c9.42,0,20.54-0.01,31.55-0.06c2.31-0.01,6.73-1,8.55-4.65  c2.54-5.07,4.87-10.08,7.34-15.39c0.74-1.59,1.48-3.19,2.24-4.8l4.01-8.55H99.59v-9.45l28.72,0c19.83,0,41.11-0.01,62.38-0.06  c1.45,0,5.15-0.26,8.19-2.56c13.69-10.38,28.96-16.59,46.68-19.01l-0.81-11.95H99.49v-9.13h159.41c0,4.16,0,8.17-0.04,12.19  l-4.63,7.2l37.87,8.35V66.09H66.07v226.04h105.47l-2.69-7.93C164.23,270.55,162.72,257.42,164.26,244.07z"></path>	<path class="st0" d="M310.55,197.73c-15.08-15.08-35.11-23.38-56.41-23.38h-0.22c-43.92,0.12-79.59,35.96-79.53,79.91  c0.06,43.92,35.85,79.65,79.77,79.65c43.99-0.02,79.75-35.8,79.76-79.76C333.94,232.85,325.63,212.81,310.55,197.73z   M219.83,288.89v-24.72l24.71,24.72H219.83z M254.22,276.64L231.55,254l44.15-44.16l22.65,22.64L254.22,276.64z"></path></g></svg>