<svg xmlns="http://www.w3.org/2000/svg" xmlns:xlink="http://www.w3.org/1999/xlink" id="Layer_1" x="0px" y="0px" viewBox="0 0 400 400" style="enable-background:new 0 0 400 400;" xml:space="preserve"><style type="text/css">	.st0{fill:#322B6A;}</style><g>	<path class="st0" d="M278.77,290.82c-18.43-7.91-29.04-23.53-27.29-43.11c1.17-13.11-4.84-15.83-13.99-19.7  c-6.74-2.85-10.99-1.68-16.51,2.89c-26,21.5-58.31,21.23-84.26-0.65c-4.67-3.94-8.38-4.69-13.35-1.9  c-11.93,6.7-24.08,13.02-35.74,20.16c-9.27,5.67-13.94,14.81-14.33,25.46c-0.51,13.94-0.13,27.92-0.13,43.06  c72,0,142.98,0,214.76,0c0-4.08-0.33-7.63,0.07-11.09C288.87,298.36,286.73,294.23,278.77,290.82z"></path>	<path class="st0" d="M214.37,207.03c15.98-18.17,22.97-39.93,23.84-59.56c0.23-36.01-22.36-60.85-54.49-64.19  c-29.43-3.06-57.72,17.6-62.96,47.72c-5.01,28.76,4.77,54.14,23.24,75.9C164.49,231.06,193.41,230.86,214.37,207.03z"></path>	<polygon class="st0" points="302.79,249.15 302.79,224.98 293.13,224.98 293.13,249.15 268.96,249.15 268.96,258.81 293.13,258.81   293.13,282.98 302.79,282.98 302.79,258.81 326.96,258.81 326.96,249.15  "></polygon></g></svg>