<svg xmlns="http://www.w3.org/2000/svg" xmlns:xlink="http://www.w3.org/1999/xlink" id="Layer_1" x="0px" y="0px" viewBox="0 0 400 400" style="enable-background:new 0 0 400 400;" xml:space="preserve"><style type="text/css">	.st0{fill:#322B6A;}</style><g>	<path class="st0" d="M331.07,172.25c-2.8,0.98-5.91,1.52-9,1.54c-6.26,0.05-13.02,0.07-20.66,0.07c-6.02,0-12.03-0.01-18.05-0.03  c-14.67-0.04-25.8-11.04-25.89-25.58c-0.07-10-0.06-20.14-0.05-30.07c-32.44,0.21-64.88,0.08-97.33,0.08  c-28.12,0-56.24-0.1-84.36,0.04c-13.61,0.07-21.94,6.59-22.06,18.89c-0.4,42.68-0.33,85.36,0.04,128.03  c0.09,10.91,7.28,17.58,18.14,18.71c3.93,0.41,7.93,0.12,11.9,0.18c10.2,0.18,11.8,1.89,9.64,11.87  c-2.69,12.46-5.86,24.82-8.85,37.35c0.34-1.41,45.49-30.86,63.17-42.75c10.15-5.92,11.57-6.62,15.4-6.58  c47.97,0.2,95.94,0.14,143.92,0.09c17.77-0.01,24.62-6.83,24.66-24.56c0.07-29.17,0.03-58.35,0.02-87.52  C331.5,172.09,331.29,172.17,331.07,172.25z M135.67,155.39c24.12,0.11,48.23,0.08,72.35,0.03c4.6-0.01,9.29,0.29,9,6.27  c-0.25,5.07-4.48,5.73-8.79,5.7c-11.89-0.08-23.79-0.03-35.68-0.03c-12.22,0-24.45-0.08-36.67,0.04c-4.77,0.05-9.23-0.84-9.04-6.44  C127.01,155.97,131.32,155.38,135.67,155.39z M247.67,244.2h-55.54c-18.18,0-36.36,0.01-54.55-0.01  c-4.98-0.01-11.15,0.46-10.89-6.62c0.23-6.27,6.07-5.78,10.72-5.78c36.7-0.01,73.4-0.02,110.09,0.01c4.95,0,11.18-0.58,10.9,6.56  C258.15,244.56,252.36,244.19,247.67,244.2z M286.62,202.61c-1.77,3.26-4.93,2.84-7.87,2.84c-28.4,0.03-56.81,0.02-85.21,0.02  c-28.08,0-56.15,0.02-84.23-0.02c-4.49,0-10.55,1.1-10.65-5.5c-0.11-7.03,6.04-6.44,11.03-6.44c55.5,0,110.99-0.01,166.48,0.02  c3.54,0,7.44-0.86,10.07,2.57C287.77,198.08,287.83,200.38,286.62,202.61z"></path>	<path class="st0" d="M107.1,95.68c9.88-0.06,19.77-0.02,29.65-0.02c9.55,0,19.11-0.04,28.66,0.01c4,0.02,7.7-0.98,7.9-5.5  c0.21-5.01-3.57-6.6-7.99-6.61c-19.44-0.04-38.87,0-58.31-0.03c-4.42-0.01-8.36,1.36-8.4,6.24  C98.58,94.94,102.79,95.71,107.1,95.68z"></path>	<path class="st0" d="M260.33,305.39c-14.84-0.15-29.68-0.16-44.52,0.03c-3.59,0.04-6.47,1.94-6.4,6.07  c0.07,4.12,2.96,5.76,6.6,5.84c7.25,0.16,14.51,0.05,21.77,0.05c0,0.01,0,0.02,0,0.03c7.26,0,14.51,0.07,21.77-0.03  c4-0.05,7.39-1.4,7.38-6.09C266.92,307.2,263.92,305.43,260.33,305.39z"></path>	<path class="st0" d="M77.39,95.67c4.49,0.2,8.24-1.16,8.03-6.28c-0.18-4.37-3.69-5.85-7.73-5.85c-4.39,0.01-8.09,1.28-7.95,6.5  C69.87,94.79,73.38,95.77,77.39,95.67z"></path>	<path class="st0" d="M285.66,305.32c-4.16-0.18-8.29,0.61-8.63,5.78c-0.3,4.64,3.18,5.95,7.78,6.31c3.38-0.26,7.68-0.41,7.96-5.81  C293.02,306.91,289.57,305.49,285.66,305.32z"></path>	<path class="st0" d="M267.08,95.47c0,17.13-0.08,34.25,0.03,51.38c0.07,10.14,7.76,17.6,17.92,17.63  c12.87,0.04,25.75,0.06,38.62-0.04c2.14-0.02,4.38-0.38,6.4-1.09c7.23-2.55,11.53-9.08,11.54-17.17c0.02-16.76,0-33.53,0-50.29  c0-0.38,0-0.76,0-1.18c-24.9,0-49.63,0-74.47,0C267.11,95.04,267.08,95.25,267.08,95.47z M315.14,106.45  c2.39-0.24,4.49,1.23,5.03,3.56c0.12,0.52,0.12,1.08,0.12,1.62c0.01,4.98,0,9.96,0,14.94c0,0,0,0,0,0c0,5.2,0.02,10.4-0.01,15.59  c-0.01,2.18-1.58,4.04-3.64,4.46c-2.15,0.43-4.29-0.57-5.16-2.54c-0.31-0.71-0.48-1.54-0.48-2.32  c-0.03-10.14-0.03-20.28-0.01-30.43C311,108.62,312.68,106.69,315.14,106.45z M288.85,110.9c0.01-2.26,1.73-4.13,3.9-4.43  c2.33-0.32,4.44,0.93,5.11,3.12c0.2,0.65,0.26,1.36,0.26,2.04c0.02,9.96,0.02,19.92,0.01,29.88c0,3-1.71,5.02-4.32,5.18  c-2.76,0.17-4.96-1.83-4.97-4.6c-0.03-5.2-0.01-10.4-0.01-15.59C288.84,121.3,288.82,116.1,288.85,110.9z"></path>	<path class="st0" d="M342.06,79.29c-5.95-0.02-11.89-0.01-17.84-0.01c-0.39,0-0.77,0-1.27,0c0-0.46,0-0.82,0-1.17  c0-2.27,0.01-4.53,0-6.8c-0.02-2.96-1.7-4.64-4.66-4.64c-5.06-0.01-10.12,0-15.18,0c-4.17,0-8.35-0.02-12.52,0.01  c-2.72,0.01-4.44,1.72-4.47,4.43c-0.03,2.33-0.01,4.67-0.01,7c0,0.35,0,0.71,0,1.19c-0.57,0-0.96,0-1.35,0  c-5.92,0-11.83,0-17.74,0.01c-0.52,0-1.06,0.02-1.57,0.12c-1.62,0.33-2.72,1.31-3.18,2.88c-0.46,1.57-0.12,2.99,1.04,4.18  c0.96,0.98,2.17,1.25,3.51,1.25c25-0.01,50.01-0.01,75.02-0.01c0.26,0,0.53,0.01,0.79-0.01c1.73-0.1,3.2-1.22,3.75-2.87  C347.31,82,345.25,79.31,342.06,79.29z"></path></g></svg>