<svg xmlns="http://www.w3.org/2000/svg" xmlns:xlink="http://www.w3.org/1999/xlink" id="Layer_1" x="0px" y="0px" viewBox="0 0 400 400" style="enable-background:new 0 0 400 400;" xml:space="preserve"><style type="text/css">	.st0{fill:#322B6A;}</style><g>	<path class="st0" d="M226.51,85.64c-1.93,4.04-3.94,7.98-5.96,12.11c4.95,0,10.09,0,15.23,0  C235.69,91.79,231.47,86.47,226.51,85.64z"></path>	<path class="st0" d="M199.82,97.94c9.82,0.09,17.89-7.89,17.89-17.8c0-9.91-7.89-17.8-17.8-17.8c-9.82,0-17.61,7.8-17.71,17.52  C182.11,89.77,189.91,97.84,199.82,97.94z"></path>	<path class="st0" d="M173.3,85.55c-5.32,1.47-8.9,6.06-9.36,12.29c5.32,0,10.37,0,15.32,0C177.25,93.62,175.32,89.59,173.3,85.55z"></path>	<path class="st0" d="M247.43,322.89c-5.05-0.09-10.18,0-15.23,0c-11.01,0-22.02,0.09-32.94,0c-2.48,0-4.5-0.83-5.05-3.49  c-0.64-2.94,1.19-5.14,4.59-5.23c8.17-0.18,16.42-0.09,24.59-0.18c1.01,0,2.02-0.09,3.3-0.18c-1.93-6.88-3.76-13.3-5.69-19.72  c-0.18-0.64-1.38-1.38-2.11-1.38c-12.66-0.09-25.23,0-37.8-0.09c-1.65,0-2.11,0.83-2.48,2.2c-1.47,5.32-2.94,10.55-4.4,15.78  c-0.37,1.1-0.55,2.2-0.92,3.67c2.75,0,5.23-0.09,7.61,0c2.48,0.09,4.04,1.56,4.13,4.04c0.09,2.48-1.28,4.13-3.67,4.59  c-1.01,0.18-1.93,0.18-2.94,0.18c-8.99,0-17.98-0.09-26.97,0.09c-7.98,0.18-14.68,6.88-14.86,14.5c42.11,0,84.31,0,126.51,0  C263.21,329.68,256.15,323.07,247.43,322.89z"></path>	<rect x="268.22" y="220.12" class="st0" width="25.56" height="4.5"></rect>	<path class="st0" d="M332.66,106.74c-44.13,0-88.26,0-132.38,0c-44.5,0-88.9,0-133.3,0c-6.61,0-8.17,1.65-8.17,8.35  c0,53.58,0,107.25,0,160.83c0,6.33,1.65,8.07,7.89,8.07c88.81,0,177.71,0,266.51,0c6.15,0,7.89-1.74,7.89-8.07  c0-53.49,0-106.97,0.09-160.55C341.19,108.21,339.72,106.74,332.66,106.74z M232.82,162.81c0.19-0.92,0.35-1.9,0.5-2.84  c0.36-2.22,0.73-4.51,1.63-6.64c1.88-4.44,6.53-7.43,11.57-7.43c0.41,0,0.83,0.02,1.24,0.06c6.21,0.63,10.67,4.27,11.94,9.73  c1.22,5.25,1.2,10.64-0.06,15.6c-1.41,5.58-6.69,9.63-12.56,9.63c-0.22,0-0.43-0.01-0.65-0.02c-6.6-0.35-11.75-4.8-12.81-11.06  c-0.26-1.53-0.3-3.08-0.34-4.57c-0.01-0.31-0.02-0.62-0.03-0.93l-0.72-0.2L232.82,162.81z M173.04,158.95  c0.35-7.34,6.22-13.08,13.36-13.08l0.22,0c7.22,0.12,12.96,5.74,13.36,13.07c0.06,1.04,0.04,2.07,0.03,3.06c0,0.17,0,0.34-0.01,0.5  v0.84c0,0.45,0.01,0.9,0.01,1.35c0.01,0.99,0.03,2.02-0.02,3.05c-0.37,7.51-6.16,13.17-13.49,13.17c-7.24,0-13.16-5.79-13.47-13.18  C172.9,164.72,172.9,161.76,173.04,158.95z M113.28,156.04c0.89-5.7,6.46-10.17,12.67-10.17c0.19,0,0.38,0,0.57,0.01  c6.65,0.31,11.97,5,12.93,11.42c0.22,1.45,0.25,2.9,0.28,4.31c0,0.26,0.01,0.52,0.02,0.78l0.73,0.19l-0.28,1.35  c-0.19,0.92-0.34,1.9-0.49,2.84c-0.35,2.22-0.71,4.52-1.61,6.65c-1.92,4.52-6.5,7.45-11.68,7.45c-0.5,0-1-0.03-1.5-0.08  c-6.21-0.69-10.89-4.76-11.65-10.12C112.54,165.71,112.55,160.65,113.28,156.04z M249.67,221.21h-7.16  c-0.56-0.06-1.13-0.07-1.64-0.07l-24.29-0.01c-13.22-0.01-26.43-0.01-39.64-0.01c-23.45,0-42.55,0.02-60.11,0.06h-0.11  c-7.61,0-13.47-1.74-18.46-5.46c-0.92-0.68-1.62-2.03-1.67-3.21c-0.12-3.33-0.12-6.38,0.01-9.36c0.06-1.23,0.85-2.68,1.85-3.35  c6.37-4.35,12.99-8.76,20.24-13.5c0.95-0.63,2.12-0.64,3.06-0.66h0.1c1.56-0.03,2.99-0.04,4.39-0.04c1.47,0,2.91,0.02,4.26,0.05  c1.08,0.02,2.32,0.1,3.31,0.74c4.48,2.91,8.98,5.92,13.34,8.84l3.16,2.11c0.4,0.27,0.75,0.56,0.89,0.68l0.57,0.43v0.72  c0,0.95-0.01,1.87-0.02,2.76c-0.02,1.95-0.03,3.8,0.04,5.62c0.06,1.53,1.09,2.62,2.55,2.64c1.35,0,2.39-1.08,2.49-2.58  c0.09-1.43,0.1-2.82,0.03-4.16c-0.1-1.64,0.52-2.83,1.92-3.75c3.21-2.11,6.46-4.27,9.6-6.37c3.49-2.32,7.1-4.72,10.67-7.05  c0.87-0.58,1.95-0.67,2.99-0.67c0.9-0.01,1.79-0.02,2.68-0.02c2.2,0,4.16,0.03,5.98,0.09c1.19,0.04,2.56,0.15,3.63,0.84  c2.22,1.44,4.44,2.94,6.59,4.39c3.47,2.35,7.06,4.78,10.68,6.96c2.59,1.56,5.43,3.98,4.52,8.85c-0.02,0.11,0,0.34,0.02,0.54  l0.01,0.22c0.12,1.61,1.1,2.68,2.49,2.71h0.06c1.38,0,2.43-1.07,2.5-2.54c0.1-2.21,0.06-4.55-0.12-6.97  c-0.08-1.15,0.04-2.34,1.51-3.3c2.48-1.63,4.94-3.27,7.41-4.9c3.07-2.05,6.26-4.17,9.41-6.22c0.95-0.62,2.13-0.64,2.99-0.65  c1.33-0.02,2.66-0.03,3.99-0.03c1.57,0,3.19,0.02,4.84,0.04h0.14c0.88,0.01,1.96,0.03,2.85,0.61c4.01,2.63,7.85,5.17,11.59,7.67  c-9.57,3.96-16.31,13.38-16.31,24.38C249.5,219.27,249.55,220.25,249.67,221.21z M281,244.87c-12.43,0-22.5-10.07-22.5-22.5  c0-12.43,10.07-22.5,22.5-22.5c12.43,0,22.5,10.07,22.5,22.5C303.5,234.79,293.43,244.87,281,244.87z"></path></g></svg>