<svg xmlns="http://www.w3.org/2000/svg" xmlns:xlink="http://www.w3.org/1999/xlink" id="Layer_1" x="0px" y="0px" viewBox="0 0 400 400" style="enable-background:new 0 0 400 400;" xml:space="preserve"><style type="text/css">	.st0{fill:#322B6A;}</style><g>	<path class="st0" d="M54.05,124.98c0.02,3.48,2.6,6.36,6.01,6.7c0.22,0.02,0.44,0.03,0.66,0.03c0,0,0,0,0,0  c3.17,0,5.93-2.26,6.56-5.38c0.17-0.82,0.16-1.85,0.16-2.95l0-0.59c0.01-13.55,0.01-27.09,0.01-40.9V67.43h7.98  c0,0,13.74,0.02,16.43,0.02c3.77,0,7.55-0.01,11.32-0.04c4.08-0.03,7.07-2.81,7.11-6.62c0.02-1.83-0.61-3.45-1.83-4.68  c-1.32-1.34-3.22-2.08-5.35-2.09c-6.97-0.03-13.94-0.04-20.9-0.04c-6.97,0-13.93,0.01-20.9,0.04c-4.65,0.02-7.23,2.65-7.27,7.42  c-0.03,4.96-0.02,9.92-0.02,14.88l0.01,6.19c0,4,0,7.99-0.01,11.99C54,104.49,53.99,114.82,54.05,124.98z"></path>	<path class="st0" d="M296.79,67.4c4.16,0.04,8.31,0.05,12.49,0.05c0,0,0.01,0,0.01,0c3.14,0,6.29-0.01,9.46-0.01  c3.23-0.01,6.49-0.01,9.79-0.01h4l0,21.9c0,11.7-0.01,23.4,0.02,35.1c0.01,4.22,2.83,7.28,6.7,7.28h0.02  c3.79-0.01,6.66-3.02,6.67-7c0.06-22.93,0.06-43.84-0.01-63.91c-0.01-3.8-2.7-6.7-6.24-6.73c-7.04-0.07-14.24-0.11-21.4-0.11  c-7.35,0-14.88,0.04-22.36,0.11c-2.75,0.03-4.64,1.43-5.78,4.29c-0.81,2.04-0.59,4.21,0.59,5.97  C292.05,66.26,294.25,67.38,296.79,67.4z"></path>	<path class="st0" d="M103.36,332.6c-4.39-0.03-8.77-0.03-13.2-0.03c-3.04,0-22.73,0.01-22.73,0.01l0-22  c0.01-11.53,0.01-23.46-0.03-35.18c-0.01-4.07-2.79-7.06-6.7-7.11c-3.87,0-6.68,3.02-6.69,7.17c-0.04,20.31-0.04,41,0,63.25  c0.01,4.46,2.72,7.25,7.08,7.27c6.51,0.03,13.02,0.05,19.53,0.05c8.3,0,15.69-0.04,22.57-0.12c1.31-0.01,2.94-0.51,4.25-1.29  c2.33-1.4,3.38-4.31,2.55-7.09C109.07,334.37,106.71,332.62,103.36,332.6z"></path>	<path class="st0" d="M345.94,274.92c-0.01-3.71-2.95-6.62-6.69-6.62c-3.77,0.01-6.63,2.88-6.66,6.67  c-0.07,9.24-0.06,18.64-0.05,27.73c0,3.8,0.01,7.6,0.01,11.4v18.47h-8.24c-2.73,0-5.46-0.01-8.19-0.01  c-2.72-0.01-5.45-0.01-8.17-0.01c-3.84,0-7.68,0.01-11.52,0.06c-3.81,0.04-6.7,2.9-6.71,6.65c-0.02,3.73,2.88,6.68,6.6,6.71  c7.17,0.05,14.39,0.08,21.46,0.08c0,0,0,0,0.01,0c7.23,0,14.52-0.03,21.65-0.08c3.69-0.03,6.48-2.81,6.5-6.47  C346.02,318.83,346.02,297.1,345.94,274.92z"></path>	<path class="st0" d="M295.75,206.71c4.33-0.05,7.35-2.81,7.36-6.7c0.01-3.9-3.01-6.66-7.33-6.71c-1.25-0.02-2.5-0.02-3.76-0.02  l-6.32,0.01h-4v-8.05c0-3.49-0.01-6.98-0.01-10.46c-0.02-8.76-0.03-17.82,0.06-26.74c0.03-3.07-0.91-5.32-3.15-7.54  c-13.34-13.22-26.41-26.19-39.55-39.6c-2.84-2.9-5.5-4.13-8.92-4.13c-0.25,0-0.5,0.01-0.75,0.02c-2.2,0.11-4.56,0.16-7.42,0.16  c-1.85,0-3.72-0.02-5.59-0.04c-1.87-0.02-3.75-0.04-5.65-0.04h-4v-4c0-1.18,0-2.32,0.01-3.42c0.01-2.3,0.01-4.47-0.01-6.63  c-0.05-4.33-2.81-7.36-6.71-7.37c-3.89,0-6.65,3.01-6.7,7.33c-0.03,2.25-0.02,4.5-0.01,6.82l0.01,3.27v4l-66.29,0  c-6.51,0-8.7,2.18-8.7,8.65c0,19.32,0,38.65,0,57.97v29.81h-4c-1.21,0-2.38,0-3.51-0.01c-1.07,0-2.11-0.01-3.14-0.01  c-1.25,0-2.47,0.01-3.7,0.03c-4.08,0.07-7.05,2.88-7.07,6.67c-0.01,3.82,2.93,6.65,7,6.73c1.23,0.03,2.46,0.03,3.71,0.03  c1.02,0,2.07-0.01,3.14-0.01c1.15-0.01,2.33-0.01,3.56-0.01h4l0,30.26c0,19.26,0,38.52,0,57.78c0,5.96,2.41,8.38,8.31,8.39  c8.18,0,16.37,0,24.55,0l42.12,0l0,7.29c0,2.24-0.01,4.34,0.01,6.44c0.03,4.59,2.72,7.68,6.69,7.69H200c3.97,0,6.67-3.07,6.71-7.64  c0.02-2.17,0.01-4.35,0.01-6.59l0-7.18l66.29,0c6.51,0,8.7-2.19,8.7-8.67c0-19.3,0-38.6,0-57.9v-29.86h4  c1.18,0,6.45,0.01,6.45,0.01C293.36,206.73,294.56,206.72,295.75,206.71z M226.29,247.47c-1.33,1.34-3.24,2.08-5.4,2.09  c-6.94,0.03-13.87,0.04-20.81,0.04c-7,0-14-0.01-21-0.04c-2.15-0.01-4.06-0.75-5.38-2.09c-1.21-1.23-1.85-2.84-1.83-4.67  c0.03-3.94,3.01-6.61,7.4-6.64c2.69-0.02,5.38-0.02,8.06-0.02l12.66,0.01l12.66-0.01c2.69,0,5.38,0,8.06,0.02  c4.33,0.03,7.38,2.76,7.4,6.65C228.13,244.63,227.5,246.24,226.29,247.47z M220.81,206.7c-2.69,0.02-5.37,0.03-8.06,0.03  c-2.11,0-10.54-0.02-12.66-0.02l-12.71,0.01c-2.67,0-5.34,0-8.01-0.02c-2.33-0.01-4.36-0.79-5.72-2.18  c-1.18-1.21-1.8-2.81-1.77-4.64c0.05-3.93,3.05-6.58,7.46-6.59c7-0.02,14-0.03,21-0.03c6.83,0,13.65,0.01,20.48,0.03  c4.31,0.01,7.32,2.77,7.32,6.69C228.12,203.91,225.12,206.67,220.81,206.7z M226.39,161.64c-1.4,1.42-3.58,2.21-6.14,2.21  c-2.63,0.01-5.26,0.01-7.89,0.01l-12.85-0.01l-12.11,0.01c-2.65,0-5.3,0-7.95-0.02c-2.26-0.01-4.26-0.72-5.62-2  c-1.29-1.21-1.97-2.85-1.95-4.76c0.03-4.04,3.05-6.65,7.7-6.66c6.8-0.01,13.61-0.02,20.41-0.02s13.61,0.01,20.41,0.02  c4.59,0.01,7.7,2.68,7.74,6.64C228.14,158.9,227.54,160.47,226.39,161.64z"></path></g></svg>