<svg xmlns="http://www.w3.org/2000/svg" xmlns:xlink="http://www.w3.org/1999/xlink" id="Layer_1" x="0px" y="0px" viewBox="0 0 400 400" style="enable-background:new 0 0 400 400;" xml:space="preserve"><style type="text/css">	.st0{fill:#322B6A;}</style><g>	<path class="st0" d="M104.55,296.28c1.81,1.63,2.75,3.42,2.62,5.89c-0.13,2.51-0.03,5.03-0.03,7.67c15.76,0,31.2,0,47.11,0  c0-2.82,0.13-5.45-0.03-8.06c-0.32-5.07,0.64-9.8,2.57-14.53c3.06-7.48,4.51-15.37,4.51-23.48c0.02-25.35,0.02-50.71,0.03-76.06  c0-0.49,0-0.98-0.06-1.47c-0.35-2.78-2.46-4.56-5.24-4.43c-3.01,0.14-4.78,2.23-4.79,5.85c-0.03,9.3-0.03,18.6,0,27.9  c0.01,2.5-0.76,4.48-3.38,5.15c-3.12,0.8-5.43-1.34-5.44-5.06c-0.03-13.51-0.01-27.02-0.02-40.53c0-0.98,0.06-1.98-0.11-2.93  c-0.45-2.56-2.76-4.4-5.21-4.27c-2.53,0.13-4.49,2.04-4.75,4.72c-0.1,0.97-0.06,1.96-0.06,2.93c0,12.92,0.01,25.84-0.02,38.76  c0,1.26-0.05,2.58-0.43,3.76c-0.66,2-2.27,2.88-4.36,2.72c-2.1-0.16-3.47-1.31-3.86-3.39c-0.2-1.05-0.16-2.14-0.16-3.22  c-0.01-16.25,0-32.5-0.01-48.75c0-4.94-1.73-7.38-5.17-7.35c-3.41,0.04-5.08,2.47-5.08,7.44c0,16.94,0,33.87,0,50.81  c0,0.88,0.03,1.76-0.02,2.64c-0.15,2.76-1.88,4.57-4.32,4.59c-2.44,0.01-4.36-1.77-4.43-4.52c-0.13-4.99-0.05-9.98-0.05-14.98  c-0.01-9.59-0.01-19.19-0.01-28.78c0-2.43-1.1-4.19-3.38-4.96c-2.12-0.71-4.29-0.34-5.48,1.62c-0.8,1.32-1.18,3.1-1.18,4.67  c-0.08,19.19-0.07,38.37-0.03,57.56c0.01,3.29-0.86,6.04-3.96,7.57c-3.21,1.57-5.99,0.59-8.64-1.59  c-4.53-3.74-9.16-7.34-13.78-10.97c-2.16-1.7-4.47-1.94-6.77-0.31c-2.2,1.57-2.62,3.79-1.92,6.27c0.18,0.65,0.59,1.23,0.89,1.85  C71.16,259.58,85.86,279.44,104.55,296.28z"></path>	<path class="st0" d="M157.68,318.79c-17.98-0.02-35.97-0.02-53.95,0c-4.34,0.01-6.04,1.7-6.07,6.02  c-0.04,5.92-0.09,11.85,0.02,17.77h66.09c0.12-5.93,0.07-11.86,0.02-17.8C163.75,320.48,162.03,318.8,157.68,318.79z"></path>	<path class="st0" d="M211.15,278.97c-14.44,0-28.55,0-42.54,0c-0.85,2.96-1.26,5.86-2.5,8.35c-3.37,6.78-3.27,13.95-2.97,21.17  c0.04,0.93,0.71,2.25,1.47,2.66c5.47,2.92,8.09,7.4,8.04,13.56c-0.05,5.95-0.11,11.91,0.04,17.86h38.41  c0.08-20.15,0.05-40.29,0.05-60.44C211.15,281.11,211.15,280.06,211.15,278.97z"></path>	<path class="st0" d="M202.43,252.37c-9.77-0.02-19.55-0.01-29.32,0c-0.93,0-1.85,0.09-2.89,0.15c0,5.97,0,11.58,0,17.29  c13.65,0,27.1,0,40.93,0c0-3.15,0.02-5.98,0-8.8C211.09,255.31,208.15,252.39,202.43,252.37z"></path>	<path class="st0" d="M132.17,156.2c0,1.06,0,2.11,0,3.58c4.94-1.15,9.4-0.94,13.35,2.01c3.88,2.89,5.61,6.89,5.83,11.54  c2.9,0,5.78-0.47,8.43,0.09c6.35,1.35,10.36,6.89,10.38,13.85c0.05,17.42,0.02,34.85,0.02,52.27c0,1.17,0,2.33,0,3.74  c9.9,0,19.61,0,29.74,0c0-3.57,0.09-7.16-0.03-10.74c-0.08-2.35,0.73-4.06,2.48-5.63c23.03-20.64,41.01-45.07,54.62-72.79  c2.11-4.29,1.68-7.86-1.33-10.37c-3.03-2.53-6.62-2.35-10.4,0.62c-5.38,4.24-10.77,8.47-16.07,12.81  c-2.87,2.36-5.88,3.55-9.44,1.85c-3.47-1.66-4.35-4.73-4.34-8.3c0.04-10.44,0.02-20.88,0.02-31.31h-0.01V91.7h0  c-0.01-3.88,0.03-7.77,0-11.65c-0.04-5.01-2.66-8.03-6.92-8.09c-4.38-0.06-7.24,3.08-7.25,8.13c-0.03,16.64-0.01,33.28-0.01,49.92  c0,0.98,0.08,1.97-0.06,2.93c-0.34,2.33-1.71,3.69-4.1,3.83c-2.41,0.14-3.9-1.17-4.49-3.39c-0.27-1.01-0.17-2.14-0.17-3.21  c-0.01-21.04-0.01-42.09-0.01-63.13c0-1.08,0.05-2.16-0.06-3.23c-0.36-3.57-3.35-6.32-6.88-6.39c-3.64-0.07-6.79,2.72-7.16,6.41  c-0.1,0.97-0.05,1.96-0.05,2.93c0,20.07,0,40.13-0.01,60.2c0,1.07,0.08,2.19-0.18,3.21c-0.58,2.26-2.17,3.56-4.5,3.41  c-2.29-0.15-3.77-1.52-4.09-3.89c-0.12-0.87-0.05-1.76-0.05-2.64c0-16.44-0.02-32.89,0.01-49.33c0.01-3.41-1-6.2-4.25-7.7  c-4.67-2.16-9.8,1.11-9.89,6.44c-0.14,7.73-0.05,15.46-0.05,23.2c0,9.1,0,18.21-0.01,27.31c0,0.98,0.06,1.98-0.15,2.92  c-0.52,2.41-2.1,3.86-4.57,3.69c-2.42-0.17-4.01-1.64-4.06-4.2c-0.09-4.7-0.05-9.4-0.06-14.09c-0.01-7.24,0.07-14.49-0.05-21.73  c-0.06-3.98-2.48-6.79-5.9-7.35c-3.22-0.53-6.52,1.15-7.62,4.16c-0.52,1.43-0.64,3.06-0.65,4.6c-0.06,7.54-0.02,15.07-0.04,22.61  c0,0.32,0,0.65-0.01,0.97v22.45C132.22,146.06,132.16,151.13,132.17,156.2z"></path>	<path class="st0" d="M339.04,218.49c-2.23-1.81-4.94-1.81-7.53,0.21c-4.78,3.73-9.54,7.5-14.24,11.34  c-2.63,2.15-5.41,3.21-8.64,1.59c-3.19-1.61-4.06-4.43-4.05-7.83c0.05-19.58,0.03-39.15,0.02-58.73c0-0.98,0.06-1.97-0.07-2.93  c-0.37-2.67-2.61-4.59-5.26-4.61c-2.8-0.02-5.02,1.98-5.31,4.84c-0.1,0.97-0.06,1.96-0.06,2.93c0,13.7,0.01,27.41-0.02,41.11  c0,1.25,0.15,2.91-0.55,3.66c-1.13,1.21-2.99,2.63-4.38,2.47c-1.37-0.16-2.75-2.01-3.71-3.4c-0.51-0.74-0.17-2.09-0.17-3.17  c-0.01-17.62,0-35.24-0.01-52.86c0-0.98,0.05-1.97-0.08-2.93c-0.38-2.94-2.52-4.93-5.25-4.98c-2.85-0.06-5.09,1.98-5.47,5.06  c-0.12,0.97-0.07,1.95-0.07,2.93c0,16.64,0,33.28,0,49.92c0,0.98,0.03,1.96-0.07,2.93c-0.24,2.39-1.71,3.77-4,3.96  c-2.32,0.19-3.94-1.06-4.51-3.35c-0.25-1.02-0.24-2.13-0.24-3.2c-0.01-13.41-0.01-26.82-0.01-40.23c0-1.35,0-2.71,0-4.06  c-0.34-0.24-0.68-0.48-1.03-0.72c-0.11,0.47-0.13,0.98-0.35,1.39c-2.87,5.34-5.82,10.63-8.63,16c-0.51,0.98-0.68,2.23-0.69,3.35  c-0.06,8.52-0.01,17.03-0.04,25.55c-0.01,3.11-1.49,5.01-3.95,5.3c-2.61,0.31-4.78-1.7-4.83-4.67c-0.08-4.49-0.02-8.97-0.02-14.4  c-2.48,3.36-4.22,6.27-6.5,8.66c-3.49,3.66-4.5,7.74-4.38,12.74c0.31,12.91,0.19,25.84,0.08,38.76  c-0.09,10.72,1.85,20.98,5.88,30.91c0.89,2.19,1.35,4.71,1.37,7.08c0.11,17.83,0.02,35.66,0.11,53.48h48.93  c0.08-16.03,0.08-32.05,0-48.08c-0.01-2.75,0.8-4.78,2.87-6.68c4.18-3.83,8.13-7.91,12.14-11.92c0.39-0.39,0.77-0.71,1.15-1  c3.08-3.34,8.9-9.95,12.75-16.29l0.3,0.18c7.28-9.86,13.57-20.33,19.04-31.3c0.26-0.52,0.56-1.03,0.8-1.57  C341.69,223,341.2,220.25,339.04,218.49z"></path></g></svg>