<svg xmlns="http://www.w3.org/2000/svg" xmlns:xlink="http://www.w3.org/1999/xlink" id="Layer_1" x="0px" y="0px" viewBox="0 0 400 400" style="enable-background:new 0 0 400 400;" xml:space="preserve"><style type="text/css">	.st0{fill:#322B6A;}</style><g>	<path class="st0" d="M180.95,88.64c-3.51,2.14-7.24,3.92-10.85,5.9c-5.01,2.75-5.38,4.75-1.71,9.26c0.66,0.81,1.45,1.54,2.29,2.18  c3.25,2.46,4.71,2.22,8.27,0.19c1.66-0.95,4.09-1.49,5.89-1.05c2.47,0.6,5.02,1.91,6.93,3.6c5.53,4.9,11.06,9.86,16.03,15.31  c6.33,6.95,12,14.5,18.15,21.61c3.72,4.3,4.68,3.95,7.11-1.2c2.47-5.22,4.82-10.56,7.89-15.43c1.73-2.76,1.5-4.57-0.75-6.17  c-3.34-2.38-6.8-4.66-10.44-6.53c-5.15-2.66-10.66-4.65-15.75-7.4c-5.18-2.8-6.16-5.87-5.3-11.63c0.23-1.52-0.23-3.6-1.17-4.77  c-5.74-7.13-4.03-13.11,4.89-15.14c4.38-1,8.99-1.14,13.51-1.34c5.36-0.24,9.22-2.57,11.81-7.43c-0.53-0.4-0.75-0.65-1.03-0.77  c-13.84-6.36-28.38-8.79-43.54-7.66c-0.79,0.06-1.84,0.31-2.26,0.86c-2.8,3.67-5.64,7.33-8.03,11.27  c-0.67,1.11-0.49,3.67,0.36,4.62C186.77,80.84,185.85,85.66,180.95,88.64z"></path>	<path class="st0" d="M227.45,230.07c-1.23-0.07-2.45-0.19-3.68-0.21c-4.44-0.08-8.91,0.11-13.33-0.27  c-4.5-0.39-9.07-0.94-13.41-2.15c-4.92-1.37-6.66-4.76-5.64-9.8c0.6-2.99,1.71-5.87,2.53-8.81c0.67-2.4,1.26-4.82,1.99-7.63  c-2.59-0.32-4.66-0.55-6.73-0.82c-4.6-0.6-9.25-0.99-13.8-1.89c-3.64-0.72-6.86-2.72-8.22-6.34c-1.3-3.47-3.75-4.32-6.94-4.2  c-3.8,0.15-7.61,0.58-11.41,0.57c-9.14-0.02-15.77-5.87-17.21-14.94c-1.2-7.57,4.96-14.25,12.54-13.27c3,0.39,5.91,1.52,8.83,2.41  c5.14,1.57,10.17,3.63,15.41,4.74c6.62,1.4,10.65-1.11,14.31-7.84c2.46-4.51,1.72-8.28-2.59-13.24c-0.56-0.64-1.12-1.27-1.71-1.87  c-2.78-2.87-5.75-3.25-9.11-1.06c-1.05,0.69-1.96,1.58-3.1,2.52c-3.35-1.68-6.62-3.69-10.15-5.01  c-6.56-2.45-10.65-7.37-14.05-13.07c-3.42-5.72-5.27-11.59-0.25-18.38c-5.28-1.36-10.08-2.46-14.79-3.85  c-2.6-0.77-3.92-0.17-5.14,2.34c-11.06,22.89-12.57,46.38-3.76,70.18c14,37.8,51.77,60.9,91.79,56.45  c5.96-0.66,11.82-2.24,17.73-3.39C227.53,230.85,227.49,230.46,227.45,230.07z"></path>	<path class="st0" d="M145.18,104.8c3.58,1.78,4.66,5.76,2.4,8.31c-3.6,4.08-1.7,7.45,0.17,11.26c3.29,6.75,9.52,9.63,15.82,12.39  c1.13,0.5,2.87,0.45,4.02-0.06c5.01-2.22,9.87-2.15,13.97,1.47c2.88,2.55,5.38,5.71,7.42,8.98c2.89,4.63,2.85,9.74,0.25,14.54  c-6.4,11.76-13.6,14.95-25.54,11.65c-6.3-1.74-12.41-4.18-18.68-6.03c-4.59-1.35-7.65,2.01-6.31,6.61  c1.58,5.45,5.18,7.97,11.13,7.8c4.44-0.13,8.88-0.43,13.31-0.33c3.8,0.09,7.33,1.63,8.75,5.29c1.84,4.73,5.58,5.67,9.78,6.15  c4.2,0.47,8.44,0.65,12.63,1.24c7.29,1.02,9.21,3.7,7.61,10.76c-0.89,3.9-2.38,7.66-3.38,11.53c-1.17,4.55-0.79,5.28,3.89,5.64  c7.58,0.59,15.2,0.94,22.8,1.09c3.81,0.08,7.32,0.64,10.59,2.67c0.77,0.48,2.11,0.81,2.83,0.47c8.04-3.88,15.33-8.86,21.76-15.1  c-3-5.32-5.83-10.5-8.86-15.56c-0.44-0.74-1.87-1.22-2.84-1.22c-1.45-0.01-2.9,0.49-4.34,0.83c-7.4,1.7-14.5,0.77-21.35-2.39  c-2.85-1.31-4.74-3.42-5.57-6.5c-1.06-3.91,0.34-7.26,2.81-9.96c8.04-8.81,17.38-14.46,30-11.12c3.2,0.85,5.89-0.2,7.87-2.77  c1.15-1.5,2.3-3.09,3.02-4.82c2.38-5.76,6.88-8.38,12.78-8.94c2.84-0.27,5.7-0.24,8.56-0.31c1.74-0.04,3.49-0.01,5.21-0.01  c0.88-33.12-19.45-63.99-43.89-76.44c-4.14,7.24-10.38,10.86-18.76,10.79c-2.32-0.02-4.68,0.01-6.97,0.35  c-2.39,0.36-4.73,1.12-7.75,1.87c1.41,1.68,2.18,2.65,3,3.57c2.1,2.36,2.88,5.11,2.51,8.22c-0.62,5.3-0.52,5.49,4.41,7.77  c5.66,2.61,11.51,4.87,16.93,7.91c3.61,2.02,7.03,4.77,9.78,7.86c3.36,3.76,2.71,8.16-0.25,12.19c-1.97,2.69-3.46,5.75-5,8.73  c-1.79,3.46-3.05,7.24-5.16,10.48c-2.79,4.28-7.47,5.09-11.61,2.06c-2.69-1.97-4.99-4.55-7.17-7.11  c-5.07-5.96-9.72-12.3-15.01-18.05c-5-5.43-10.57-10.34-15.97-15.39c-1.77-1.66-3.57-1.95-5.87-0.26  c-3.2,2.34-6.92,2.36-10.55,0.67c-5.62-2.62-9.14-6.97-10.82-12.93c-1.05-3.71-0.22-6.84,2.88-8.98c3.02-2.09,6.35-3.75,9.54-5.6  c2.15-1.25,4.31-2.51,6.58-3.83c-6.04-7.54-1.62-13.68,2.27-20.26c-22.75,5.64-40.28,17.75-53.51,36.75  c1.48,0.32,2.64,0.45,3.71,0.83C135.77,101.21,140.69,102.57,145.18,104.8z"></path>	<path class="st0" d="M273.99,155.36c-2.96,0.09-5.07,1.55-6.4,4.38c-1.11,2.37-2.57,4.62-4.16,6.71c-3.81,4.98-8.96,6.45-14.96,5.1  c-8.1-1.82-18.33,2.1-23.12,8.94c-2.29,3.27-1.83,4.98,1.93,6.54c1.45,0.6,3.01,1.35,4.52,1.34c4.91-0.05,9.84-0.25,14.73-0.7  c6.93-0.65,8.99,0.35,12.22,6.39c2.09,3.9,4.3,7.72,6.67,11.96c12.9-14.66,20.05-31.27,22.08-50.71  C282.78,155.33,278.38,155.22,273.99,155.36z"></path>	<path class="st0" d="M342.93,224.86c-0.71-8.64-1.33-17.31-1.38-25.96c-0.16-30.91-0.06-61.82-0.07-92.73  c0-1.06,0.04-2.12-0.04-3.17c-0.42-5.93-4.97-10.21-10.6-10c-5.52,0.2-9.67,4.6-9.68,10.49c-0.04,25.19,0,50.39-0.05,75.58  c0,1.72,0.43,2.55,2.12,3.26c5.67,2.36,9.22,6.65,10.28,12.75c0.95,5.46-0.72,10.23-4.29,14.39  c-14.46,16.88-28.92,33.76-43.39,50.64c-0.41,0.48-0.82,1.26-1.31,1.32c-1.44,0.18-3.41,0.64-4.24-0.09  c-0.84-0.73-0.76-2.75-0.69-4.18c0.03-0.68,0.99-1.31,1.54-1.95c14.27-16.49,28.53-32.98,42.83-49.44c2.33-2.68,3.88-5.6,3.22-9.23  c-0.76-4.21-3.23-7.11-7.35-8.33c-4.32-1.27-7.91,0.15-10.79,3.48c-10.59,12.25-21.21,24.48-31.73,36.79  c-8.94,10.47-17.85,20.91-29.16,29.05c-3.55,2.55-6.55,6.03-9.34,9.45c-11.26,13.8-16.85,30-18.52,47.47  c-0.81,8.44-0.14,17.02-0.14,25.66c14.12,0,28.48,0,43.34,0c0-3.12,0.17-5.98-0.05-8.8c-0.18-2.34,0.74-3.63,2.66-4.82  c3.49-2.18,7.3-4.15,10.12-7.05c17.9-18.47,35.44-37.29,53.36-55.73C340.23,252.74,344.15,239.81,342.93,224.86z"></path>	<path class="st0" d="M148.81,254.64c-6.05-4.71-11.6-10.21-16.73-15.94c-13.55-15.14-26.78-30.58-40.07-45.95  c-2.65-3.06-5.67-5.14-9.85-4.72c-4.02,0.41-6.95,2.52-8.39,6.34c-1.56,4.16-0.52,7.84,2.36,11.15  c14.51,16.7,28.97,33.44,43.47,50.15c1.61,1.86,2.72,3.88,0.48,5.78c-2.2,1.87-4.05,0.56-5.65-1.35  c-3.62-4.29-7.32-8.51-10.98-12.75c-10.93-12.66-21.91-25.28-32.79-37.98c-7.87-9.19-5.06-22.44,5.8-26.96  c2.28-0.95,2.58-2.15,2.58-4.23c-0.05-24.35-0.03-48.7-0.04-73.04c0-1.26,0-2.55-0.23-3.79c-0.86-4.6-4.36-7.85-8.8-8.29  c-4.72-0.46-8.83,1.97-10.42,6.55c-0.64,1.84-0.79,3.93-0.8,5.91c-0.05,31.44,0.07,62.88-0.11,94.32  c-0.05,8.12-0.9,16.25-1.55,24.36c-1.14,14.21,1.57,27.13,11.79,37.81c15.37,16.06,30.68,32.18,45.94,48.34  c5.97,6.33,12.1,12.4,19.75,16.77c1.06,0.6,1.81,2.46,1.94,3.81c0.29,2.99,0.09,6.04,0.09,9.16c14.89,0,29.26,0,44,0  c0.27-11.59,0.42-22.87-1.78-34.07C174.77,285.41,165.77,267.82,148.81,254.64z"></path></g></svg>