<svg xmlns="http://www.w3.org/2000/svg" xmlns:xlink="http://www.w3.org/1999/xlink" id="Layer_1" x="0px" y="0px" viewBox="0 0 400 400" style="enable-background:new 0 0 400 400;" xml:space="preserve"><style type="text/css">	.st0{fill:#322B6A;}</style><g>	<polygon class="st0" points="271.47,65.14 271.47,91.17 297.42,91.17  "></polygon>	<rect x="94.66" y="85.8" class="st0" width="19.37" height="19.78"></rect>	<path class="st0" d="M114.22,292.82l0-102.37H94.66v127.75h164.66v-19.56l-139.19,0C114.99,298.65,114.22,297.89,114.22,292.82z"></path>	<path class="st0" d="M288.94,220.45l-42.02,43.72l10.63,0l3.14,0c4.95,0.01,5.57,0.62,5.57,5.46l0,26.38c0,12.2,0,24.4,0,36.59  c0,5.72,2.34,8.06,8.05,8.06c4.62,0,9.24,0.01,13.86,0.01l15.44,0c6.25,0,8.47-2.24,8.47-8.54c0,0,0-50.88,0-62.68  c0-4.51,0.73-5.25,5.17-5.27c1.12-0.01,2.24-0.01,3.29-0.01l10.17,0.01L288.94,220.45z"></path>	<path class="st0" d="M237.69,267.26c-1.01-2.42-0.49-4.52,1.62-6.6l8.79-8.68c11.94-11.79,24.29-23.99,36.47-35.95  c1.5-1.47,3.03-2.21,4.56-2.21c1.54,0,3.12,0.75,4.7,2.23c1.1,1.03,2.18,2.09,3.34,3.23c0.58,0.57,1.17,1.15,1.8,1.76l4.24,4.13  V98.04l-22.14,0.01c-3.94,0-7.89,0-11.83-0.02c-3.9-0.02-4.74-0.87-4.75-4.8c-0.02-5.62-0.02-11.24-0.01-16.86  c0-3.85,0-7.7,0-11.55c0-0.79-0.05-1.53-0.09-2.25c-0.02-0.29-0.04-0.58-0.05-0.85l-0.12-2.38H121.09v46.46l51.56,0  c11.6,0,23.2,0,34.79,0.01c10,0,15.51,5.5,15.52,15.46c0.02,17.87,0.02,35.74,0,53.61c-0.01,10.12-5.36,15.48-15.47,15.48l-86.31,0  v101.38h138.24v-20.84l-15.95,0C240.55,270.87,238.71,269.73,237.69,267.26z M221.17,257.46c-0.15,0.38-0.44,1.07-3.34,1.07h-0.08  c-3.31-0.01-6.61-0.01-9.92-0.01l-25.81,0.01c-3.01,0-6.02,0-9.03-0.02c-4.42-0.02-4.43-2.39-4.44-3.29  c-0.01-0.96,0.26-1.73,0.8-2.27c0.72-0.72,1.97-1.12,3.54-1.13c6.64-0.02,13.27-0.02,19.91-0.02l25.14,0.01  c3.06,0,3.43,1.19,3.55,1.58C221.82,254.48,221.69,256.19,221.17,257.46z M222.26,231.57l-31.55,0c-5.52,0-11.04,0-16.56-0.01  h-0.43c-0.9,0-1.71-0.01-2.43-0.11c-1.57-0.22-2.64-1.41-2.72-3.01c-0.08-1.66,0.83-2.96,2.33-3.32c0.97-0.23,2.11-0.25,3.19-0.26  c12.11-0.01,24.22-0.01,36.33-0.01l23.63,0c5.66,0,5.68,2.45,5.69,3.37c0.01,1.22-0.39,1.76-0.69,2.06  c-0.82,0.83-2.56,1.29-4.9,1.29L222.26,231.57z"></path>	<path class="st0" d="M151.02,157.74c0.01-6.45,0.01-12.89,0-19.34c-0.01-3.28-2.09-5.42-5.32-5.46c-1.11-0.01-2.21-0.02-3.34-0.02  l-5.08,0.01h-2.5v30.27l7.62,0c1.11,0,2.2,0,3.3-0.01C148.93,163.17,151.02,161.03,151.02,157.74z"></path>	<path class="st0" d="M207.66,183.62c6.09,0,8.58-2.5,8.58-8.61c0.01-17.96,0.01-35.92,0-53.88c0-6.04-2.58-8.62-8.62-8.62  c-21.62,0-43.24-0.01-64.86-0.01c-21.62,0-43.24,0-64.86,0.01c-6.04,0-8.62,2.59-8.62,8.66c-0.01,17.86-0.01,35.72,0,53.58  c0,6.38,2.51,8.87,8.95,8.87l64.42,0L207.66,183.62z M167.27,130.32c0.03-3.01,1.07-4.08,3.97-4.1c3.61-0.03,7.23-0.04,10.84-0.04  c3.69,0,7.39,0.01,11.08,0.04c1.16,0.01,3.86,0.35,3.88,3.3c0.01,0.97-0.26,1.74-0.81,2.3c-0.69,0.7-1.81,1.08-3.24,1.09  c-2.13,0.02-4.27,0.02-6.43,0.02l-12.46-0.01v11.86l7.98-0.01c1.1,0,2.19,0,3.28,0.01c1.82,0.02,3.21,0.43,3.93,1.16  c0.5,0.5,0.73,1.22,0.72,2.18c-0.01,0.82-0.03,3.31-4.78,3.36c-1.05,0.01-2.11,0.02-3.19,0.02l-5.58-0.01h-2.5l0,5.31  c0,2.22,0.01,4.33-0.01,6.45l0,0.82c0,1.04,0,2.02-0.13,2.91c-0.28,1.83-1.49,2.93-3.25,2.93c0,0-0.17,0-0.25-0.01  c-1.78-0.1-2.95-1.31-3-3.07c-0.11-4.52-0.1-9.14-0.09-13.61c0-1.59,0.01-3.18,0-4.78l-0.01-4.26  C167.23,139.63,167.21,134.93,167.27,130.32z M107.09,151.27c-0.94,0.1-1.96,0.15-3.22,0.15c-0.94,0-1.9-0.03-2.88-0.05  c-1.08-0.03-2.18-0.06-3.32-0.06h-2.5c0,0,0,5.27,0.01,6.58c0.01,2.81,0.01,5.39-0.02,7.98c-0.03,2.62-1.1,3.98-3.17,4.04l-0.14,0  c-2.09,0-3.35-1.46-3.36-3.9c-0.07-11.64-0.07-23.66,0-35.7c0.01-2.87,1.19-4.05,4.07-4.09c2.29-0.03,4.57-0.05,6.86-0.05  c2.37,0,4.5,0.02,6.53,0.06c6.73,0.15,12.09,5.32,12.47,12.03C118.77,144.84,113.8,150.56,107.09,151.27z M132.18,169.92  c-3.32-0.02-4.29-1-4.33-4.36c-0.05-3.98-0.04-8.04-0.03-11.96c0-1.76,0.01-3.52,0.01-5.29l-0.01-4.94  c-0.01-4.11-0.01-8.21,0.01-12.32c0.03-3.87,0.96-4.82,4.77-4.84l2.46-0.01c1.68-0.01,3.35-0.02,5.03-0.02  c1.98,0,3.95,0.01,5.93,0.05c6.68,0.13,11.6,5.06,11.7,11.72c0.11,7.31,0.11,13.99,0,20.42c-0.12,6.61-5.09,11.46-11.82,11.55  c-2.1,0.03-4.2,0.04-6.29,0.04C137.13,169.95,134.65,169.93,132.18,169.92z"></path>	<path class="st0" d="M106.79,133.19c-1.19-0.19-2.47-0.28-4.05-0.28c-0.84,0-1.69,0.02-2.53,0.05c-0.79,0.02-1.59,0.05-2.38,0.05  h-2.5v11.67h2.5c0.81,0,1.61,0.03,2.4,0.06c0.83,0.03,1.65,0.06,2.46,0.06c1.48,0,2.69-0.1,3.81-0.31  c2.23-0.42,4.63-3.02,4.94-5.35C111.76,136.62,109.01,133.55,106.79,133.19z"></path></g></svg>