<svg xmlns="http://www.w3.org/2000/svg" xmlns:xlink="http://www.w3.org/1999/xlink" id="Layer_1" x="0px" y="0px" viewBox="0 0 400 400" style="enable-background:new 0 0 400 400;" xml:space="preserve"><style type="text/css">	.st0{fill:#322B6A;}</style><g>	<path class="st0" d="M323.97,153.22c-0.03-15.45-11.72-27.14-27.2-27.19c-3.72-0.01-7.43-0.02-11.15-0.02  c-3.08,0-15.4,0.01-18.49,0.01h-45.98c-5.08,0-10.16-0.01-15.24-0.02c-5.07-0.01-10.14-0.02-15.21-0.02  c-7.89,0-14.37,0.02-20.39,0.06c-14.39,0.1-26.16,11.85-26.25,26.19c-0.1,16.97-0.1,34.92,0,54.88  c0.06,11.97,8.57,22.64,20.23,25.38c2.12,0.5,4.69,0.76,8.09,0.83c2.75,0.06,5.75,0.08,9.44,0.08c2.18,0,4.36-0.01,6.56-0.02  c2.25-0.01,4.51-0.02,6.79-0.02h11.69l-2.4,11.44c-0.07,0.34-0.13,0.65-0.19,0.93c-0.13,0.65-0.25,1.26-0.42,1.93  c-0.6,2.41-1.2,4.82-1.81,7.22c-1.14,4.53-2.31,9.2-3.41,13.82c5.34-4.28,10.68-8.55,16.03-12.81c7.59-6.05,15.43-12.32,23.11-18.5  c3.42-2.75,7.17-4.09,11.48-4.09h0.12c8.29,0.05,16.98,0.07,26.58,0.07c6.93,0,13.87-0.01,20.8-0.03  c15.47-0.04,27.17-11.73,27.2-27.18C324.01,189.23,324.01,171.41,323.97,153.22z M194.96,183.15c1.2,1.18,2.38,2.33,3.54,3.47  c2.62,2.56,5.09,4.98,7.55,7.44c1.35,1.35,2.09,2.86,2.09,4.24c0,1.08-0.46,2.08-1.36,2.97c-0.9,0.89-1.91,1.35-2.98,1.35  c0,0,0,0,0,0c-1.39,0-2.91-0.75-4.29-2.13c-5.92-5.88-11.33-11.29-16.56-16.53c-2.89-2.9-2.87-5.08,0.08-8.03  c6.49-6.5,11.75-11.75,16.56-16.53c1.33-1.32,2.81-2.04,4.19-2.04c1.11,0,2.14,0.47,3.04,1.39c2.93,2.98,0.23,6.15-0.67,7.06  c-2.44,2.45-4.91,4.87-7.53,7.43c-1.19,1.17-2.42,2.36-3.67,3.6l-3.22,3.16L194.96,183.15z M247.61,162.38  c-0.13,0.53-0.32,1.26-0.55,1.74c-6.97,14.06-12.65,25.4-17.87,35.7c-0.91,1.79-2.43,2.82-4.17,2.82c0,0,0,0,0,0  c-0.23,0-0.46-0.02-0.7-0.05c-1.98-0.31-3.44-1.66-3.73-3.45c-0.19-1.18-0.04-2.32,0.19-2.8c5.46-11.2,11.45-23.2,18.32-36.68  c0.73-1.44,2.21-2.33,3.85-2.33c0.38,0,0.75,0.05,1.11,0.14c2.15,0.56,3.43,2.3,3.56,4.8  C247.63,162.31,247.62,162.35,247.61,162.38z M283.36,183.78c-6.1,6.16-11.71,11.75-17.14,17.1c-1.14,1.13-2.49,1.75-3.79,1.75  c-1.13,0-2.2-0.47-3.09-1.35c-1.95-1.95-1.81-4.63,0.37-6.84c2.51-2.55,5.04-5.04,7.72-7.68c1.21-1.2,2.45-2.41,3.7-3.66l3.19-3.16  l-3.2-3.15c-1.24-1.22-2.45-2.4-3.63-3.56c-2.61-2.56-5.08-4.98-7.52-7.43c-0.9-0.9-3.59-4.06-0.66-7.05  c0.9-0.92,1.92-1.39,3.03-1.39c1.38,0,2.87,0.73,4.2,2.04c6.56,6.5,11.88,11.81,16.76,16.72  C285.98,178.83,286,181.12,283.36,183.78z"></path>	<path class="st0" d="M236.28,310.13H93.87V87.3h142.41V108h15.7c0.01-10.95,0.01-21.89,0.02-32.84c0-1.36-0.04-2.72-0.11-4.07  C251.07,54.14,237,39.83,220,39.7c-37.08-0.28-74.16-0.14-111.24-0.05c-6.99,0.02-13.29,2.55-18.85,6.72  C80.27,53.59,75.98,63.26,76,75.32c0.11,83.13,0.06,166.26,0.06,249.39c0,1.46,0.04,2.93,0.12,4.38c0.51,9.39,4.7,16.9,11.62,23.11  c5.16,4.62,11.36,6.81,17.93,8.27H221.7c2.21-0.56,4.46-1.02,6.63-1.69c14.43-4.49,23.5-17.32,23.51-33.29  c0.02-21.5,0.03-42.99,0.05-64.49h-15.61V310.13z M149.82,59.64c9.7-0.04,19.41-0.04,29.11,0c3.89,0.01,6.22,2.03,6.12,5.14  c-0.09,2.99-2.34,4.83-6.09,4.86c-4.91,0.04-9.81,0.01-14.72,0.01c-4.8,0-9.6,0.03-14.39-0.01c-3.94-0.03-6.16-1.95-6.08-5.14  C143.85,61.45,146.01,59.65,149.82,59.64z M133.37,59.88c2.7,0.03,5.01,2.4,4.92,5.04c-0.1,2.7-2.46,4.88-5.19,4.76  c-2.61-0.11-4.73-2.29-4.75-4.87C128.32,62.12,130.65,59.84,133.37,59.88z M163.36,350.47c-8.18-0.01-14.94-6.74-14.97-14.89  c-0.03-8.13,6.69-14.95,14.85-15.07c8.15-0.13,15.2,6.9,15.14,15.11C178.32,343.77,171.53,350.48,163.36,350.47z"></path></g></svg>