<svg xmlns="http://www.w3.org/2000/svg" xmlns:xlink="http://www.w3.org/1999/xlink" id="Layer_1" x="0px" y="0px" viewBox="0 0 400 400" style="enable-background:new 0 0 400 400;" xml:space="preserve"><style type="text/css">	.st0{fill:#322B6A;}</style><g>	<path class="st0" d="M230.26,255.64c-1.27,0.33-2.54,1.15-3.49,2.08c-6.68,6.56-13.27,13.21-19.89,19.82  c-0.42,0.41-0.86,0.8-1.55,1.45c0-0.92,0-1.51,0-2.1c0-17.66,0-35.32,0-52.98c0-0.61,0.02-1.23-0.03-1.84  c-0.24-2.82-2.56-4.96-5.35-4.95c-2.78,0.01-5.08,2.17-5.29,5c-0.05,0.61-0.03,1.22-0.03,1.84c0,17.66,0,35.32,0,52.98  c0,0.58,0,1.16,0,2.07c-0.72-0.69-1.16-1.09-1.59-1.51c-6.54-6.54-13.08-13.08-19.62-19.61c-0.47-0.47-0.94-0.96-1.47-1.35  c-3-2.22-7.37-0.7-8.29,2.91c-0.58,2.27,0.27,4.09,1.9,5.71c9.67,9.63,19.31,19.29,28.97,28.94c3.23,3.23,7.71,3.21,10.97-0.04  c9.58-9.57,19.15-19.14,28.72-28.72c0.31-0.31,0.63-0.63,0.92-0.97c1.52-1.77,1.79-4.09,0.73-6.06  C234.78,256.28,232.53,255.04,230.26,255.64z"></path>	<path class="st0" d="M168.87,145.33c1.25,0.01,2.49,0.02,3.71,0.02c1.92,0,3.5-0.02,4.96-0.06c4.24-0.13,7.39-3.33,7.48-7.62  c0.1-4.36-2.95-7.82-7.09-8.06c-1.54-0.09-3.2-0.13-5.21-0.13c-1.28,0-2.56,0.02-3.86,0.03c-1.3,0.02-2.6,0.03-3.92,0.03h-2.25  v15.77h2.25C166.28,145.31,167.59,145.32,168.87,145.33z"></path>	<path class="st0" d="M344.1,186.64c-0.44-3.79-0.89-7.72-1.6-11.43c-9.38-48.56-36.62-84.26-80.98-106.12  c-18.65-9.19-38.55-13.84-59.15-13.84c-2.75,0-5.54,0.08-8.32,0.25c-51.51,3.08-91.35,26.89-118.41,70.77  c-15.22,24.67-21.96,51.46-20.04,79.61c4.11,60.34,34.44,103.46,90.15,128.19c12.94,5.74,27.09,9.07,43.27,10.17  c1.02,0.07,1.89,0.3,2.54,0.47l0.01,0l16.58,0.04c1.69-0.22,3.38-0.42,5.07-0.61l0.17-0.02c3.79-0.44,7.72-0.89,11.43-1.61  c24.27-4.69,45.5-13.88,63.09-27.32c17.56-13.41,32.02-31.46,42.99-53.63c7.55-15.26,12.02-32.17,13.29-50.27  c0.07-1.02,0.28-1.9,0.46-2.66l0.03-0.11l0.04-16.64C344.5,190.14,344.3,188.39,344.1,186.64z M209.71,122.09l3.09-0.01  c2.06-0.01,4.11-0.01,6.17-0.01c4.72,0,8.33,0.03,11.73,0.09c2.32,0.04,3.98,1.59,3.95,3.68c-0.03,2.06-1.72,3.55-4.12,3.62  c-0.42,0.01-0.83,0.02-1.25,0.02l-1.96-0.01l-15.94,0v15.87l13.09-0.01c1.62,0,3.24,0,4.87,0.01c1.95,0.01,3.51,0.51,4.39,1.41  c0.59,0.61,0.88,1.41,0.87,2.38c-0.06,3.34-3.61,3.72-5.14,3.73c-2.06,0.01-4.11,0.01-6.18,0.01l-11.81-0.01v15.87l7.42,0  c1.13,0,2.26-0.01,3.39-0.01c1.12-0.01,2.25-0.01,3.37-0.01c2.2,0,3.98,0.02,5.59,0.08c1.84,0.06,3.34,1.6,3.42,3.51  c0.04,0.96-0.34,1.96-1.02,2.68c-0.39,0.42-1.06,0.92-2,0.94c-3.9,0.09-7.99,0.13-12.15,0.13c-4,0-8.24-0.04-12.6-0.12  c-2.26-0.04-2.78-2.28-2.89-2.97c-0.14-0.87-0.16-1.78-0.16-2.65c-0.01-14.11-0.02-28.21,0-42.32  C203.83,122.99,204.71,122.1,209.71,122.09z M154.99,159.83c0-10.72,0-21.44,0-32.16c0-4.51,1.02-5.55,5.44-5.56  c1.16,0,2.31-0.01,3.47-0.02c1.73-0.01,3.45-0.02,5.18-0.02c3.72,0,6.57,0.06,9.26,0.19c7.42,0.36,13.26,5.96,14.21,13.62  c0.87,6.97-3.7,13.91-10.62,16.16c-0.69,0.22-1.41,0.42-2.24,0.65c-0.44,0.12-0.91,0.25-1.42,0.4l-3.88,1.11l14.88,13.56l0.52,0.47  c0.49,0.44,0.96,0.86,1.38,1.3c1.75,1.79,1.89,3.81,0.37,5.41c-0.7,0.74-1.62,1.15-2.58,1.15c-0.93,0-1.86-0.37-2.67-1.08  c-2.44-2.11-4.87-4.34-7.22-6.49c-1.02-0.94-2.05-1.88-3.07-2.81l-12.61-11.45l-0.54,4.29c-0.04,0.35-0.09,0.65-0.13,0.92  c-0.09,0.58-0.17,1.13-0.18,1.72c-0.01,1.34,0,2.68,0,4.02c0.01,2.25,0.02,4.58-0.05,6.84c-0.08,2.45-1.51,3.98-3.71,3.99  c-2.17,0-3.61-1.53-3.77-4c-0.02-0.35-0.02-0.7-0.01-1.05L154.99,159.83z M122.6,161.41c0,0-0.15,0-0.15,0  c-3.33-0.04-6.45-1.38-8.78-3.78c-2.29-2.35-3.52-5.43-3.47-8.66c0.11-6.75,5.61-12.23,12.26-12.23l0.15,0  c3.33,0.04,6.45,1.38,8.78,3.78c2.29,2.35,3.52,5.43,3.47,8.66C134.76,155.92,129.25,161.41,122.6,161.41z M199.58,313.96  c-31.64-0.39-57.2-26.38-56.71-57.68c0.5-31.62,26.3-56.99,57.56-56.61c31.65,0.39,57.2,26.38,56.71,57.68  C256.64,288.97,230.84,314.35,199.58,313.96z M259.14,165.07c3.35,2.38,7.28,3.64,11.34,3.64c4.33,0,8.46-1.41,11.95-4.08  c0.39-0.3,0.76-0.62,1.13-0.95c0.2-0.18,0.4-0.35,0.61-0.52c0.97-0.81,2.01-1.24,2.99-1.24c0.94,0,1.78,0.39,2.5,1.16  c1.48,1.57,1.25,3.86-0.56,5.57c-5.23,4.92-11.5,7.42-18.65,7.42h-0.08c-7.29-0.01-14.09-2.87-19.16-8.05  c-5.14-5.25-7.89-12.24-7.75-19.69c0.28-14.43,12.37-26.18,26.97-26.18c0.31,0,0.63,0.01,0.95,0.02  c6.69,0.23,12.37,2.54,17.36,7.05c1.63,1.47,2.75,3.77,1.02,5.79c-0.72,0.84-1.56,1.27-2.5,1.27c-1.08,0-2.29-0.54-3.48-1.57  c-3.84-3.29-8.64-5.1-13.5-5.1c-8.63,0-15.88,5.33-18.47,13.58C249.25,151.34,252.2,160.13,259.14,165.07z"></path></g></svg>