<svg xmlns="http://www.w3.org/2000/svg" xmlns:xlink="http://www.w3.org/1999/xlink" id="Layer_1" x="0px" y="0px" viewBox="0 0 400 400" style="enable-background:new 0 0 400 400;" xml:space="preserve"><style type="text/css">	.st0{fill:#322B6A;}</style><g>	<path class="st0" d="M221.46,218.62c8.41-3.34,17.14-5.03,25.93-5.03c3,0,6.07,0.2,9.12,0.58c0.71,0.09,1.8,0.21,2.98,0.21  c6.44,0,9.53-3.63,10.8-5.79c1.7-2.89,2.69-6.51,2.7-9.93c0.06-15.98,0.07-32,0.07-47.49c0-10.92,0.01-21.84,0.03-32.76  c0.01-5.05-1.81-9.42-5.42-12.99c-8.44-8.38-17-16.94-25.3-25.23c-6.27-6.27-12.54-12.54-18.82-18.79  c-1.41-1.4-2.87-2.54-4.16-3.55l-0.09-0.07c-0.47-0.37-0.95-0.74-1.41-1.12l-2.16-1.78h-98.75l-1.76,0.96l-0.26,0.07  c-15.27,4.04-24.4,15.85-24.4,31.58c-0.02,65.58-0.02,123.47,0,176.99c0.01,18.8,13.73,32.49,32.61,32.55  c5.63,0.02,11.26,0.02,16.89,0.02c5.96,0,11.91-0.01,17.87-0.01l4.42,0c9.68-0.01,15.1-5.37,15.26-15.08  C178.08,254.29,195.7,228.84,221.46,218.62z M184.78,187.62c0.03-3.96,2.15-6.86,6.68-9.15c3.5-1.77,7.38-2.67,11.51-2.67  c0.93,0,1.89,0.04,2.86,0.13c0.91,0.08,1.83,0.18,2.8,0.29l3.99,0.42v-45.65l-46.14,11.54v5.46c0,4.92-0.01,9.83-0.02,14.75  c-0.02,12.26-0.04,24.95,0.07,37.42c0.05,5.15-2.08,8.55-6.69,10.7c-4.03,1.88-8.14,2.83-12.21,2.83c-4.06,0-8.16-0.95-12.19-2.81  c-4.42-2.05-6.58-5.02-6.62-9.07c-0.04-4.33,2.28-7.58,6.54-9.15c3.37-1.24,7.2-1.78,10.9-2.31c0.87-0.12,1.74-0.25,2.61-0.38  c0.26-0.04,0.54-0.06,0.86-0.06c0.7,0,1.48,0.09,2.37,0.19c0.68,0.08,1.46,0.17,2.28,0.23l2.4,0.16l0-18.81  c0-10.39-0.01-20.78,0-31.17c0-5.06,0.74-6,5.62-7.23c17.47-4.38,34.94-8.75,52.41-13.11c1.11-0.28,2.11-0.42,2.99-0.42  c1.38,0,4.62,0,4.63,6.26c0.01,7.75,0.01,15.49,0.01,23.24c-0.01,12.17-0.01,24.75,0.06,37.12c0.03,4.92-2.13,8.34-6.59,10.46  c-4.03,1.91-8.15,2.88-12.25,2.88c-4.03,0-8.12-0.93-12.15-2.77C187.01,194.88,184.75,191.75,184.78,187.62z"></path>	<path class="st0" d="M309.2,283.21c-1.24-13.61-7.7-26.3-18.2-35.73c-10.43-9.37-23.65-14.53-37.25-14.53  c-2.24,0-4.5,0.14-6.73,0.43c-27.56,3.5-47.85,25.36-49.33,53.15c-1.37,25.68,15.57,49.3,40.28,56.17c2.58,0.72,5.3,1.22,8.18,1.76  c1.07,0.2,2.17,0.4,3.27,0.62l0.22,0.04h7.87l0.94-0.15c1.12-0.18,2.17-0.35,3.22-0.52C291.99,339.51,311.98,313.75,309.2,283.21z   M278.67,303.72c-4.26,4.23-8.5,8.47-12.74,12.72c-2.91,2.91-5.82,5.83-8.74,8.73c-1.47,1.47-2.67,2.18-3.68,2.18  c-0.99,0-2.17-0.7-3.6-2.13c-3.25-3.24-6.49-6.49-9.74-9.73c-3.84-3.85-7.69-7.69-11.54-11.53c-1.64-1.64-2.13-2.76-1.81-4.15  c0.4-1.75,1.75-2.88,3.43-2.88c1.06,0,2.13,0.46,3.01,1.3c2.39,2.26,4.75,4.66,7.04,6.97c1.16,1.17,2.32,2.34,3.49,3.5  c0.42,0.42,0.87,0.82,1.44,1.34c0.29,0.26,0.61,0.55,0.98,0.89l3.77,3.46c0,0,0-43.4,0-57.83c0-0.26,0-0.52-0.01-0.79  c-0.01-0.69-0.02-1.34,0.05-1.93c0.21-1.77,1.72-3.12,3.52-3.14c1.87,0,3.31,1.24,3.55,3.03c0.11,0.86,0.11,1.79,0.11,2.77l0,0.46  c0.01,13.48,0.01,26.95,0.01,40.43v16.43l3.64-2.85c0.3-0.23,0.56-0.42,0.78-0.59c0.48-0.36,0.9-0.67,1.31-1.08  c1.47-1.46,2.94-2.93,4.41-4.4c2.1-2.11,4.21-4.22,6.34-6.3c1.09-1.07,2.22-1.63,3.28-1.63c0.86,0,1.67,0.38,2.4,1.13  C281.63,300.42,279.4,302.99,278.67,303.72z"></path></g></svg>