<svg xmlns="http://www.w3.org/2000/svg" xmlns:xlink="http://www.w3.org/1999/xlink" id="Layer_1" x="0px" y="0px" viewBox="0 0 400 400" style="enable-background:new 0 0 400 400;" xml:space="preserve"><style type="text/css">	.st0{fill:#322B6A;}</style><g>	<path class="st0" d="M96.77,227.3c4.68,0.03,8.5-3.82,8.44-8.48c-0.06-4.56-3.86-8.27-8.41-8.24c-4.57,0.03-8.29,3.77-8.31,8.35  C88.46,223.46,92.24,227.28,96.77,227.3z"></path>	<path class="st0" d="M95.79,334.8c8.21,0.41,16.01-4.75,18.42-12.35c-11.63,0-23.13,0-34.64,0  C80.93,328.77,88.4,334.43,95.79,334.8z"></path>	<path class="st0" d="M92.35,281.17c-3.45-17.11,5.9-35.85,24.47-41.99c-0.6-0.44-1.02-0.77-1.46-1.07  c-15.09-10.26-36.06-6.03-46.1,9.23c-4.09,6.21-5.37,13.1-5.7,20.38c-0.59,13.01-1.41,26.01-2.13,39.02  c-0.15,2.77-0.28,5.54-0.42,8.32c24.01,0,47.82,0,71.74,0c-0.13-1.82-0.25-3.53-0.37-5.23C111.11,312.33,95.49,296.73,92.35,281.17  z"></path>	<path class="st0" d="M127.96,247.96c-14.42,0.02-25.95,11.57-25.94,25.99c0.02,14.21,11.72,25.75,26.07,25.7  c14.08-0.05,25.65-11.73,25.61-25.83C153.66,259.56,142.1,247.95,127.96,247.96z M127.84,294.48c-2.81-0.01-5.14-2.34-5.15-5.14  c-0.01-2.89,2.37-5.24,5.26-5.19c2.8,0.05,5.1,2.41,5.07,5.22C132.99,292.18,130.65,294.49,127.84,294.48z M133.02,273.62  c-0.04,3.05-2.23,5.32-5.1,5.35c-2.94,0.03-5.2-2.27-5.22-5.4c-0.03-5.01-0.03-10.01,0-15.02c0.02-3.15,2.23-5.44,5.18-5.42  c2.93,0.01,5.11,2.32,5.14,5.47c0.02,2.48,0,4.95,0,7.43C133.03,268.56,133.05,271.09,133.02,273.62z"></path>	<path class="st0" d="M301.94,83.35c-8.28-6.23-17.42-10.85-26.96-13.88c-0.01,0-0.02,0-0.03-0.01c-1.03-0.32-2.07-0.62-3.11-0.91  c-0.22-0.06-0.43-0.13-0.65-0.18c-0.87-0.24-1.74-0.45-2.6-0.66c-0.39-0.09-0.77-0.19-1.15-0.27c-0.74-0.17-1.48-0.32-2.22-0.46  c-0.51-0.1-1.02-0.21-1.53-0.3c-0.65-0.12-1.3-0.23-1.96-0.33c-0.59-0.09-1.18-0.19-1.77-0.28c-0.6-0.08-1.21-0.15-1.82-0.22  c-0.63-0.08-1.27-0.16-1.9-0.23c-0.59-0.05-1.19-0.1-1.78-0.15c-0.65-0.05-1.29-0.1-1.94-0.14c-0.6-0.04-1.2-0.06-1.8-0.08  c-0.64-0.03-1.28-0.06-1.92-0.07c-0.62-0.01-1.24-0.01-1.86-0.01s-1.23,0-1.85,0.01c-0.64,0.01-1.28,0.04-1.92,0.07  c-0.6,0.02-1.2,0.04-1.8,0.08c-0.65,0.04-1.3,0.09-1.94,0.14c-0.6,0.05-1.19,0.1-1.78,0.15c-0.63,0.07-1.27,0.15-1.9,0.23  c-0.61,0.07-1.22,0.14-1.82,0.22c-0.6,0.09-1.19,0.19-1.78,0.28c-0.65,0.1-1.3,0.21-1.96,0.33c-0.5,0.09-1.01,0.2-1.52,0.3  c-0.74,0.14-1.48,0.29-2.22,0.46c-0.38,0.08-0.76,0.18-1.15,0.27c-0.87,0.21-1.74,0.42-2.6,0.66c-0.22,0.05-0.43,0.12-0.65,0.18  c-1.04,0.29-2.08,0.59-3.11,0.91c-0.01,0.01-0.02,0.01-0.03,0.01c-9.55,3.03-18.68,7.65-26.97,13.88  c-33.78,25.4-46.22,70.55-29.98,109.01c2.16,5.13,4.67,9.96,7.52,14.48c1.22-1.47,2.88-2.55,4.86-3.1c0.89-0.25,1.8-0.37,2.71-0.37  c5.48,0,9.79,4.43,9.83,10.09c0.01,3.07,0.01,6.15,0.01,9.22h2.97c2,0,4.01,0.01,6.02,0.01c4.48,0.01,8.07,2.36,9.61,6.28  c1.18,3.04,0.82,6.44-0.99,9.11c-0.11,0.16-0.22,0.32-0.35,0.47c5.51,2.88,11.06,5.16,16.65,6.87c8.8,2.53,17.51,3.84,26.14,3.88  c8.64-0.04,17.35-1.35,26.15-3.88c6.27-1.92,12.48-4.55,18.64-7.93c18.66-10.24,31.93-25.53,40.2-45.13  C348.17,153.9,335.73,108.75,301.94,83.35z M191.5,133.69c3.78-0.07,6.99,3.07,7,6.86c0.02,3.79-3.14,6.95-6.93,6.93  c-3.68-0.02-6.78-3.05-6.86-6.71C184.62,136.97,187.7,133.76,191.5,133.69z M205.42,176.27h-27.55c0-5.9-0.19-11.73,0.07-17.53  c0.14-3.09,2.9-5.29,6.17-5.36c4.98-0.12,9.98-0.13,14.97,0c3.61,0.08,6.21,2.61,6.3,6.19  C205.52,165.03,205.42,170.49,205.42,176.27z M246.84,92.2c3.78-0.06,6.97,3.09,6.98,6.88c0.01,3.68-3,6.79-6.67,6.92  c-3.78,0.12-7.05-2.96-7.12-6.74C239.95,95.46,243.03,92.26,246.84,92.2z M260.73,222.27h-27.62c0-5.67-0.1-11.13,0.04-16.59  c0.09-3.58,2.68-6.12,6.28-6.21c4.99-0.12,9.99-0.12,14.97,0c3.61,0.09,6.21,2.63,6.3,6.21  C260.83,211.14,260.73,216.6,260.73,222.27z M240.04,186.21c0.28-3.79,3.66-6.71,7.43-6.41c3.66,0.29,6.53,3.56,6.34,7.22  c-0.18,3.79-3.51,6.78-7.29,6.55C242.73,193.34,239.77,189.98,240.04,186.21z M260.74,134.76h-27.52c0-5.91-0.19-11.83,0.09-17.72  c0.13-2.86,2.8-5.04,5.75-5.12c5.18-0.15,10.37-0.17,15.55-0.01c3.55,0.1,6.03,2.74,6.1,6.39  C260.82,123.67,260.74,129.04,260.74,134.76z M302.14,134.69c3.78-0.07,6.98,3.07,7,6.86c0.01,3.8-3.15,6.96-6.94,6.93  c-3.68-0.02-6.77-3.05-6.86-6.72C295.26,137.96,298.34,134.76,302.14,134.69z M316.05,176.27H288.5c0-5.92-0.19-11.74,0.08-17.55  c0.14-3.08,2.92-5.28,6.18-5.35c4.99-0.11,9.98-0.12,14.97,0.01c3.6,0.09,6.19,2.62,6.28,6.21  C316.15,165.04,316.05,170.51,316.05,176.27z"></path>	<path class="st0" d="M195.86,228.69c-4.58-0.01-9.15,0-13.73,0c-0.38,0-0.76,0-1.25,0c0-0.45,0-0.8,0-1.14  c0-4.68,0.02-9.36-0.01-14.05c-0.02-2.84-2.35-4.69-4.93-3.98c-1.74,0.48-2.81,2.01-2.81,4.09c-0.01,4.65,0,9.3,0,13.95  c0,0.35,0,0.69,0,1.13c-0.5,0-0.88,0-1.26,0c-4.45,0-8.89,0-13.34,0c-0.48,0-0.98,0.02-1.45,0.1c-1.77,0.27-3.09,1.73-3.23,3.52  c-0.13,1.77,0.99,3.44,2.71,3.93c0.55,0.16,1.15,0.19,1.73,0.19c4.9,0.01,9.79,0.01,14.84,0.01c0,0.47,0,0.82,0,1.17  c0,4.68-0.02,9.36,0.01,14.05c0.01,2.46,1.69,4.16,3.97,4.11c2.18-0.04,3.76-1.74,3.77-4.13c0.02-4.71,0.01-9.43,0.01-14.14  c0-0.34,0-0.68,0-1.06c0.52,0,0.87,0,1.22,0c4.71,0,9.41,0.02,14.12-0.01c2.85-0.02,4.68-2.7,3.68-5.27  C199.27,229.57,197.88,228.7,195.86,228.69z"></path></g></svg>