<svg xmlns="http://www.w3.org/2000/svg" xmlns:xlink="http://www.w3.org/1999/xlink" id="Layer_1" x="0px" y="0px" viewBox="0 0 400 400" style="enable-background:new 0 0 400 400;" xml:space="preserve"><style type="text/css">	.st0{fill:#322B6A;}</style><g>	<path class="st0" d="M347.36,246.6c-2.88-16.82-12.34-28.31-28.28-34.19c-11.79-4.35-24.16-1.85-36.46-2.58  c0.08,0.85,0.04,1.34,0.19,1.76c2.61,7.56,3.18,15.39,3.17,23.31c-0.04,21.36,0.03,42.71-0.04,64.07  c-0.03,8.71-0.3,17.42-0.47,25.95c13.26,0,27.19,0.32,41.1-0.15c6.01-0.2,10.93-3.78,14.99-8.33c3.52-3.94,5.06-8.71,6.29-13.66  c0-18.29,0-36.58,0-54.87C347.69,247.47,347.44,247.05,347.36,246.6z"></path>	<path class="st0" d="M267.71,221.18c-4.65-20.02-21.21-33.22-41.86-33.37c-17.22-0.12-34.45-0.07-51.67,0.02  c-3.15,0.02-6.37,0.27-9.43,0.99c-20.29,4.74-33.44,21.36-33.5,42.36c-0.07,28-0.02,56-0.02,84c0,7.09,3.09,10.18,10.18,10.18  c19.53,0.01,39.06,0,58.6,0c19.63,0,39.26,0.01,58.88-0.01c6.7-0.01,9.89-3.19,9.89-9.89c0.01-28,0.04-56-0.04-84  C268.74,228.03,268.48,224.51,267.71,221.18z"></path>	<path class="st0" d="M200.07,177.24c28.31-0.16,51.33-23.34,51.28-51.63c-0.05-27.96-23.15-50.94-51.26-50.99  c-28.1-0.05-51.19,22.77-51.42,50.83C148.44,153.74,171.92,177.4,200.07,177.24z"></path>	<path class="st0" d="M95.12,209.96c-25.01,0.63-42.92,19.06-42.96,44.09c-0.02,14.92-0.05,29.83,0.01,44.75  c0.05,12.67,7.23,22.59,19.21,25.55c4.76,1.18,9.92,0.91,14.9,0.97c9.61,0.13,19.22,0.04,28.46,0.04  c-0.25-6.06-0.66-11.7-0.67-17.34c-0.07-25.21-0.14-50.43,0.05-75.64c0.04-5.44,1.05-10.88,1.79-16.3  c0.27-1.95,1.04-3.83,1.69-6.14C109.87,209.93,102.49,209.77,95.12,209.96z"></path>	<path class="st0" d="M109.73,199.19c20.87,0.21,38.23-17.06,38.47-38.28c0.24-20.91-16.79-38.17-37.91-38.43  c-21.25-0.27-38.63,16.84-38.8,38.18C71.32,181.67,88.5,198.98,109.73,199.19z"></path>	<path class="st0" d="M290.24,199.19c21.18-0.14,38.38-17.42,38.3-38.48c-0.09-21.18-17.29-38.28-38.46-38.24  c-21.2,0.04-38.45,17.34-38.26,38.38C252.02,182.06,269.32,199.33,290.24,199.19z"></path></g></svg>