<svg xmlns="http://www.w3.org/2000/svg" xmlns:xlink="http://www.w3.org/1999/xlink" id="Layer_1" x="0px" y="0px" viewBox="0 0 400 400" style="enable-background:new 0 0 400 400;" xml:space="preserve"><style type="text/css">	.st0{fill:#322B6A;}</style><g>	<path class="st0" d="M210.53,156.24c-7.2,0-14.04,0-21.15,0c0,7.07,0,13.88,0,20.9c7.23,0,14.15,0,21.15,0  C210.53,169.91,210.53,163.1,210.53,156.24z"></path>	<path class="st0" d="M146.28,177.31c7.02,0,13.7,0,20.85,0c0-7.27,0-14.2,0-21c-7.22,0-14.04,0-20.85,0  C146.28,163.46,146.28,170.27,146.28,177.31z"></path>	<path class="st0" d="M232.85,177.35c7.07,0,13.76,0,20.87,0c0-7.36,0-14.16,0-21.13c-7.14,0-13.95,0-20.87,0  C232.85,163.42,232.85,170.36,232.85,177.35z"></path>	<path class="st0" d="M302.11,211.47c-0.68-0.07-1.38-0.1-2.07-0.1c-8.41,0-16.16,4.98-19.29,12.38c-1.5,3.55-2.12,7.37-2.72,11.07  c-0.25,1.57-0.52,3.19-0.84,4.73l-0.47,2.22l1.21,0.33c0.02,0.52,0.03,1.04,0.05,1.55c0.07,2.49,0.14,5.06,0.57,7.62  c1.76,10.44,10.34,17.85,21.35,18.44c0.36,0.02,0.72,0.03,1.08,0.03c9.77,0,18.58-6.75,20.93-16.05c2.09-8.27,2.13-17.26,0.1-26  C319.89,218.59,312.46,212.53,302.11,211.47z"></path>	<path class="st0" d="M177.56,233.12c-0.22,4.69-0.23,9.62-0.01,14.65c0.52,12.32,10.39,21.97,22.45,21.97  c12.21,0,21.87-9.44,22.48-21.95c0.08-1.72,0.06-3.43,0.04-5.09c-0.01-0.75-0.02-1.5-0.02-2.25v-1.4c0-0.28,0.01-0.56,0.01-0.84  c0.02-1.66,0.05-3.38-0.04-5.11c-0.66-12.22-10.24-21.58-22.27-21.78l-0.37,0C187.93,211.32,178.14,220.89,177.56,233.12z"></path>	<path class="st0" d="M122.03,237.55c-0.05-2.34-0.1-4.76-0.46-7.18c-1.6-10.69-10.47-18.51-21.56-19.03  c-0.31-0.01-0.63-0.02-0.94-0.02c-10.35,0-19.63,7.45-21.11,16.95c-1.2,7.68-1.22,16.11-0.04,24.38  c1.27,8.94,9.07,15.72,19.42,16.87c0.83,0.09,1.67,0.14,2.5,0.14c8.63,0,16.27-4.87,19.46-12.41c1.5-3.55,2.11-7.38,2.69-11.09  c0.25-1.57,0.5-3.2,0.82-4.74l0.47-2.25l-1.21-0.31C122.05,238.42,122.04,237.98,122.03,237.55z"></path>	<path class="st0" d="M349.85,306.6c-0.08-1.95-1.36-4.24-2.98-5.35c-10.85-7.37-21.97-14.79-33.99-22.66  c-1.49-0.98-3.3-1-4.75-1.01l-0.25,0c-2.73-0.04-5.44-0.06-8.05-0.06c-2.22,0-4.44,0.01-6.66,0.05c-1.44,0.02-3.41,0.05-4.98,1.07  c-5.26,3.42-10.56,6.95-15.69,10.36c-4.11,2.73-8.21,5.46-12.34,8.17c-2.45,1.61-2.66,3.6-2.52,5.5c0.3,4.03,0.37,7.94,0.19,11.63  c-0.11,2.45-1.86,4.22-4.16,4.22l-0.1,0c-2.32-0.05-3.95-1.82-4.15-4.52l-0.03-0.36c-0.03-0.34-0.06-0.73-0.03-0.9  c1.52-8.12-3.22-12.15-7.53-14.75c-6.04-3.65-12.02-7.69-17.8-11.6c-3.58-2.42-7.29-4.93-10.98-7.32  c-1.79-1.16-4.06-1.33-6.04-1.39c-3.04-0.1-6.3-0.15-9.97-0.15c-1.49,0-2.98,0.01-4.47,0.02c-1.73,0.02-3.54,0.16-4.99,1.12  c-5.94,3.9-11.95,7.9-17.77,11.76c-5.24,3.49-10.66,7.09-16,10.6c-2.35,1.54-3.37,3.53-3.22,6.25c0.12,2.23,0.11,4.56-0.04,6.93  c-0.16,2.5-1.91,4.31-4.15,4.31c-2.42-0.04-4.14-1.85-4.24-4.41c-0.12-3.03-0.1-6.1-0.07-9.36c0.01-1.49,0.03-3.02,0.03-4.61v-1.19  l-0.94-0.72c-0.23-0.19-0.82-0.69-1.49-1.13l-5.27-3.52c-7.26-4.86-14.77-9.88-22.22-14.72c-1.65-1.07-3.72-1.2-5.52-1.24  c-2.26-0.05-4.65-0.07-7.1-0.07c-2.33,0-4.72,0.02-7.32,0.06l-0.16,0c-1.57,0.02-3.52,0.05-5.11,1.09  c-12.08,7.9-23.11,15.26-33.73,22.5c-1.66,1.13-2.98,3.54-3.08,5.59c-0.22,4.96-0.23,10.05-0.01,15.59  c0.08,1.97,1.24,4.22,2.77,5.37c8.31,6.2,18.09,9.08,30.77,9.08h0.19c29.26-0.06,61.09-0.09,100.18-0.09  c22.02,0,44.04,0.01,66.06,0.02l40.49,0.01c0.86,0,1.8,0.03,2.74,0.12h27.85c1.01-0.15,2.02-0.27,3.09-0.39  c1.32-0.15,2.68-0.3,4.03-0.52c6.59-1.07,12.79-3.79,18.95-8.32c1.63-1.2,2.54-3.51,2.59-5.18  C350.05,316.72,350.05,311.52,349.85,306.6z"></path>	<path class="st0" d="M57.36,147.87l1.14,4.45l2.99-3.46c0.10-0.11,0.19-0.22,0.29-0.34c8.7-11.17,19.42-21.29,33.69-31.83  c0.48-0.36,0.95-0.64,1.41-0.89c0.93-0.63,1.87-0.97,2.74-0.97c1.43,0,2.47,0.9,3.09,1.66c0.75,0.92,1.08,1.95,0.95,2.99  c-0.16,1.3-1.03,2.61-2.44,3.67c-12.42,9.31-21.67,17.76-29.1,26.57c-2.55,3.03-4.96,6.22-7.29,9.31l-1.46,1.94  c-0.02,0.03-0.05,0.06-0.07,0.09l1.54,1.33c1.24,1.07,2.44,2.13,3.62,3.17c2.75,2.42,5.35,4.71,8.12,6.91  c0.15,0.12,0.31,0.23,0.47,0.34c2.29,1.23,4.18,1.81,5.94,1.81c0.68,0,1.31-0.09,1.91-0.25c1.8-0.54,3.5-1.68,4.98-3.41  c0.57-0.67,1.06-1.35,1.53-2.02l0.3-0.42c8.45-11.84,17.02-21.2,26.22-28.6c0.7-0.57,1.31-1.18,1.82-1.83  c0.48-0.64,0.89-1.31,1.21-2c0.61-1.37,0.92-2.89,0.90-4.6c-0.03-3.84-0.03-7.76-0.02-11.55c0.01-4.25,0.01-8.64-0.03-12.97  c-0.03-2.95,0.99-4.56,3.51-5.58c0.40-0.16,0.81-0.33,1.21-0.50c9.56-4.46,21.10-9.44,33.74-13.25c10.25-3.22,20.55-5.21,30.77-5.93  c0.64-0.05,1.28-0.09,1.93-0.12c0.81-0.04,1.61-0.09,2.42-0.12c1.37-0.05,2.73-0.08,4.10-0.09c0.10,0,0.20-0.01,0.30-0.01  c0.05,0,0.10,0,0.14,0c0.05,0,0.10,0,0.14,0c0.10,0,0.20,0.01,0.30,0.01c1.36,0.01,2.73,0.04,4.10,0.09c0.81,0.03,1.61,0.07,2.42,0.12  c0.64,0.04,1.28,0.08,1.93,0.12c10.22,0.72,20.52,2.71,30.77,5.93c12.64,3.81,24.18,8.78,33.74,13.25c0.40,0.16,0.81,0.34,1.21,0.50  c2.53,1.02,3.54,2.64,3.51,5.58c-0.05,4.33-0.04,8.72-0.03,12.97c0.01,3.79,0.01,7.70-0.02,11.55c-0.01,1.71,0.29,3.24,0.90,4.61  c0.33,0.69,0.73,1.36,1.21,2.00c0.51,0.65,1.11,1.27,1.82,1.83c9.20,7.40,17.77,16.75,26.22,28.60l0.30,0.42  c0.47,0.66,0.95,1.35,1.53,2.02c1.48,1.73,3.18,2.87,4.98,3.41c0.60,0.16,1.24,0.25,1.91,0.25c1.76,0,3.65-0.57,5.94-1.81  c0.16-0.11,0.31-0.22,0.47-0.34c2.77-2.20,5.37-4.48,8.12-6.91c1.19-1.05,2.39-2.10,3.62-3.17l1.55-1.33  c-0.02-0.03-0.05-0.06-0.07-0.09l-1.46-1.94c-2.33-3.09-4.73-6.28-7.29-9.31c-7.44-8.82-16.68-17.26-29.10-26.57  c-1.41-1.06-2.28-2.36-2.44-3.67c-0.13-1.04,0.20-2.08,0.95-2.99c0.62-0.76,1.65-1.66,3.09-1.66c0.87,0,1.81,0.34,2.74,0.97  c0.46,0.25,0.93,0.53,1.41,0.89c14.28,10.54,24.99,20.66,33.69,31.83c0.10,0.11,0.19,0.22,0.29,0.34l2.99,3.46l1.14-4.45  c0.05-0.19,0.08-0.37,0.12-0.56c1.87-11.21-0.17-19.55-6.42-26.21c-5.64-6.01-11.62-11.58-17.93-16.69  c-1.01-0.82-2.03-1.63-3.05-2.42c-0.80-0.62-1.61-1.24-2.43-1.85c-0.76-0.57-1.53-1.13-2.29-1.69c-6.49-4.69-13.27-8.92-20.33-12.66  c-12.33-6.54-24.98-11.67-37.87-15.39c-6.24-1.74-12.61-3.19-19.14-4.31c-11.17-1.92-22.35-2.92-33.25-2.97  c-10.90,0.05-22.08,1.05-33.25,2.97c-6.52,1.12-12.90,2.57-19.14,4.31c-12.89,3.72-25.54,8.85-37.87,15.39  c-7.06,3.74-13.84,7.98-20.33,12.66c-0.77,0.56-1.53,1.11-2.29,1.68c-0.82,0.61-1.63,1.23-2.44,1.85c-1.02,0.79-2.03,1.60-3.04,2.41  c-6.30,5.11-12.30,10.68-17.93,16.70c-6.24,6.66-8.28,15.00-6.42,26.21C57.28,147.50,57.31,147.68,57.36,147.87z"></path></g></svg>