<svg xmlns="http://www.w3.org/2000/svg" xmlns:xlink="http://www.w3.org/1999/xlink" id="Layer_1" x="0px" y="0px" viewBox="0 0 400 400" style="enable-background:new 0 0 400 400;" xml:space="preserve"><style type="text/css">	.st0{fill:#322B6A;}</style><g>	<path class="st0" d="M74.57,161.55c11.02,9.78,23.98,15.13,38.78,15.27c18.31,0.18,100.71,0.04,119.02,0.04c0,0.01,0,0.03,0,0.04  c17.45,0,34.9,0.14,52.34-0.03c31.91-0.3,58.54-24.15,61.05-54.47c2.75-33.1-18.88-60.99-51.66-66.53  c-2.74-0.46-5.57-0.58-8.36-0.58c-35.76-0.04-135.61-0.19-171.36,0.03c-25.62,0.16-47.81,16.01-56.55,39.75  C49.1,118.8,55.54,144.66,74.57,161.55z M285.21,65.83c27.38,0.03,50.15,22.77,50.2,50.14c0.05,27.37-22.63,50.21-49.99,50.35  c-27.67,0.14-50.68-22.83-50.54-50.47C235.01,88.45,257.79,65.8,285.21,65.83z"></path>	<path class="st0" d="M285.62,223.15c-35.75-0.22-135.61-0.07-171.36-0.03c-2.79,0-5.62,0.12-8.36,0.58  c-32.79,5.54-54.41,33.43-51.66,66.53c2.52,30.32,29.15,54.16,61.05,54.47c17.45,0.17,34.89,0.03,52.34,0.03c0-0.01,0-0.03,0-0.04  c18.31,0,100.71,0.14,119.02-0.04c14.8-0.15,27.76-5.49,38.78-15.27c19.03-16.89,25.47-42.75,16.74-66.47  C333.43,239.16,311.25,223.31,285.62,223.15z M114.58,334.15c-27.36-0.14-50.04-22.99-49.99-50.35  c0.05-27.37,22.82-50.11,50.2-50.14c27.42-0.03,50.2,22.61,50.34,50.02C165.26,311.32,142.25,334.29,114.58,334.15z"></path></g></svg>