<svg xmlns="http://www.w3.org/2000/svg" xmlns:xlink="http://www.w3.org/1999/xlink" id="Layer_1" x="0px" y="0px" viewBox="0 0 400 400" style="enable-background:new 0 0 400 400;" xml:space="preserve"><style type="text/css">	.st0{fill:#322B6A;}</style><g>	<path class="st0" d="M142.5,98.54c11.56,15.24,33.06,15.42,44.77,0.34c7.47-9.62,10.17-21.01,11.91-33.01  c-22.85-7.75-45.44-7.73-68.32,0c0.24,1.62,0.4,2.86,0.62,4.1C133.31,80.2,136.09,90.1,142.5,98.54z"></path>	<path class="st0" d="M105.3,263.04c0,10.72,0,21.08,0,31.43c29.58,0,58.93,0,88.32,0c-1.19-5.82-2.34-11.5-3.58-17.55  C159.99,283.1,131.74,278.52,105.3,263.04z"></path>	<path class="st0" d="M101.37,304.8c-4.63,2.95-9.17,6.03-14.45,9.55c39.41,0,77.88,0,116.66,0c-1.54-2.7-3.1-5.14-4.34-7.74  c-0.8-1.67-1.84-2.11-3.62-2.11c-30.55,0.05-61.11,0.04-91.66,0.05C103.08,304.55,102.02,304.38,101.37,304.8z"></path>	<path class="st0" d="M208.99,324.45c-43.52,0.06-87.04,0.05-130.55,0.05c-1.04,0-2.07,0-3.13,0c0,5.23,0,10.04,0,14.93  c51.79,0,103.36,0,154.6,0c-5.27-4.26-10.64-8.44-15.8-12.87C212.53,325.19,211.13,324.44,208.99,324.45z"></path>	<path class="st0" d="M164.75,249.59c2.8,0.14,5.15-1.94,5.28-4.69c0.13-2.66-2.16-5.11-4.85-5.2c-2.71-0.09-5.03,2.16-5.06,4.92  C160.08,247.35,162.04,249.45,164.75,249.59z"></path>	<path class="st0" d="M185.7,267.58c4.4-0.84,4.35-0.84,4.85-5.49c2.68-24.81,14.38-44.33,34.88-58.51  c11.63-8.05,24.67-12.4,38.78-13.39c2.16-0.15,3.06-0.9,3.34-3.03c0.58-4.44,1.77-8.82,2.03-13.26  c2.33-40.28-12.9-72.28-45.87-95.7c-4.55-3.23-9.62-5.73-14.81-8.77c-3.27,17.58-8.16,33.63-22.93,44.62  c25.76,11.22,37.65,36.96,33.11,60.77c-4.69,24.66-25.01,42.94-49.36,44.81c-25.05,1.92-48.07-12.76-56.4-36.04  c-4.14-11.55-4.5-23.26-0.78-34.98c5.15-16.22,15.89-27.51,31.54-34.59c-14.88-11.12-19.68-27.1-22.85-44.11  c-0.95,0.4-1.75,0.7-2.52,1.07c-43.4,20.86-67.14,70.55-56.03,117.27C75.95,244.01,129.13,278.31,185.7,267.58z M165.04,229.7  c8.26,0.01,15.1,6.91,15.01,15.14c-0.09,8.32-6.91,14.9-15.3,14.76c-8.27-0.14-14.71-6.76-14.64-15.05  C150.17,236.33,156.85,229.69,165.04,229.7z"></path>	<path class="st0" d="M120.04,165.08c0.23,24.96,20.37,44.79,45.37,44.66c24.72-0.13,44.68-20.31,44.6-45.11  c-0.07-24.69-20.36-44.81-45.05-44.69C140.03,120.06,119.81,140.38,120.04,165.08z M166.23,130c0.29,0.01,0.58,0.03,0.88,0.04  c17.39,0.98,31.58,14.9,32.85,32.21c0.04,0.48,0.05,0.97,0.05,1.46c0.05,3.63-1.81,6.01-4.8,6.14c-2.95,0.13-4.98-2.12-5.19-5.77  c-0.7-11.88-8.43-21.09-19.88-23.6c-1.51-0.33-3.09-0.35-4.64-0.51c-3.68-0.39-5.64-2.43-5.37-5.56  C160.39,131.49,162.58,129.9,166.23,130z M164.18,149.98c3.29-0.09,5.52,1.61,5.83,4.44c0.29,2.72-1.63,5.02-4.9,5.44  c-3.08,0.39-4.66,1.91-5.07,5c-0.43,3.3-2.67,5.22-5.39,4.97c-2.93-0.26-4.66-2.58-4.51-6.04  C150.44,156.45,156.82,150.18,164.18,149.98z M135.43,159.97c2.44,0.2,3.97,1.58,4.42,3.95c0.51,2.66,0.54,5.45,1.27,8.04  c2.84,9.96,11.82,17.05,22.28,17.81c0.49,0.04,0.98,0.03,1.46,0.06c3.15,0.24,5.31,2.41,5.17,5.18c-0.14,2.79-2.4,4.85-5.59,4.75  c-10.73-0.33-19.61-4.6-26.46-12.84c-4.81-5.77-7.39-12.5-7.91-20.86c0.07-0.52-0.01-1.96,0.47-3.17  C131.36,160.79,133.12,159.78,135.43,159.97z"></path>	<path class="st0" d="M269.94,264.68c-6.93,0.03-12.74,4.62-14.45,11.42c-1.64,6.52,1.39,13.2,7.37,16.66  c0.98,0.57,1.83,1.76,2.23,2.85c0.87,2.38,2.38,3.88,4.89,3.91c2.51,0.03,4.46-1.36,4.82-3.84c0.26-1.78,1.19-2.36,2.51-3.09  c6-3.31,8.9-10.13,7.21-16.67C282.77,269.18,276.91,264.66,269.94,264.68z M269.79,284.58c-2.64-0.13-4.73-2.33-4.72-4.97  c0.01-2.74,2.32-5,5.06-4.95c2.72,0.05,4.98,2.43,4.88,5.13C274.91,282.52,272.53,284.71,269.79,284.58z"></path>	<path class="st0" d="M271.59,199.8c-38.53-0.69-70.84,29.95-71.53,67.82c-0.73,40.05,29.71,71.63,69.69,72.31  c37.78,0.64,69.63-30.55,70.28-68.83C340.67,232.65,309.8,200.49,271.59,199.8z M255.85,233.85c1.52-7.14,8.84-11.79,15.89-10.88  c7.5,0.97,13.1,6.94,13.33,14.33c0.1,3.39,0.02,6.79,0.02,10.48c-10.11,0-19.82,0-30.15,0  C255.21,243.03,254.91,238.3,255.85,233.85z M300.05,303.78c-0.01,3.86-1.95,5.81-5.78,5.82c-16.19,0.05-32.38,0.05-48.58,0  c-3.7-0.01-5.67-1.94-5.69-5.6c-0.06-14.6-0.06-29.21,0-43.81c0.02-3.65,2.02-5.45,5.76-5.46c8.1-0.04,16.19-0.01,24.29-0.01  c8,0,16-0.02,24,0.01c4.12,0.01,5.98,1.75,6,5.83C300.11,274.96,300.11,289.37,300.05,303.78z"></path></g></svg>