<svg xmlns="http://www.w3.org/2000/svg" xmlns:xlink="http://www.w3.org/1999/xlink" id="Layer_1" x="0px" y="0px" viewBox="0 0 400 400" style="enable-background:new 0 0 400 400;" xml:space="preserve"><style type="text/css">	.st0{fill:#322B6A;}</style><g>	<path class="st0" d="M319.82,204.5l-0.17,0c-1.73,0-4.02,0.67-4.03,6.43c-0.01,6.44-0.01,12.87-0.01,19.31c0,5.55,0,11.1,0,16.65  c0,0.8-0.04,1.6-0.09,2.41c-0.02,0.36-0.04,0.72-0.06,1.08l-0.04,0.96H84.27l0-14.64c0.01-8.93,0.01-18.17-0.03-27.25  c-0.01-3.03-1.47-4.88-3.9-4.95l-0.15,0c-3.33,0-3.95,3.09-4.02,4.94c-0.02,0.48-0.02,0.96-0.02,1.45l0,10.34  c0,10.82,0.01,21.63,0.02,32.45c0.01,4.92,1.09,5.98,6.12,5.99c2.98,0,5.97,0.01,8.97,0.01l14.56,0l-0.28,1.22  c-0.11,0.46-0.2,0.9-0.29,1.31c-0.19,0.86-0.36,1.64-0.57,2.4l-6.33,23.74c-3.65,13.69-7.3,27.37-10.95,41.06  c-0.29,1.07-0.53,2.04-0.55,2.97c-0.06,2.13,0.93,3.42,3.05,3.95c0.39,0.1,0.77,0.15,1.12,0.15c1.36,0,2.44-0.73,3.23-2.16  c0.4-0.72,0.62-1.57,0.86-2.48l2.56-9.56c5.22-19.43,10.61-39.52,15.84-59.3c0.65-2.45,1.82-3.36,4.36-3.36  c16.46,0.05,33.21,0.06,48.95,0.06l25.36,0c0.62,0,1.21,0.05,1.85,0.11c0.3,0.03,0.61,0.05,0.93,0.08l0.93,0.07l0,13.23  c0,7.67-0.01,15.34,0.02,23.01c0.01,1.95,0.54,5.23,4.02,5.23l0.13,0c2.6-0.06,3.92-1.79,3.93-5.14c0.02-7.75,0.02-15.5,0.01-23.25  l0-13.07l0.91-0.08c0.31-0.03,0.58-0.06,0.82-0.08c0.48-0.05,0.9-0.1,1.32-0.1l19.41,0c18.38,0,37.39,0,56.1-0.05  c2.73,0,3.38,1.61,3.82,3.26c3.82,14.43,7.67,28.86,11.53,43.29c2.22,8.3,4.44,16.6,6.65,24.91c1.44,5.41,3.69,5.41,4.42,5.41  c0.37,0,0.78-0.06,1.21-0.17c1.11-0.29,1.87-0.8,2.32-1.57c0.7-1.2,0.7-3.14,0-5.77c-2.45-9.18-4.9-18.35-7.36-27.52  c-1.74-6.49-3.48-12.98-5.21-19.48c-1.26-4.7-2.5-9.41-3.76-14.19l-2.15-8.13l23.36,0c5.42,0,6.45-1,6.46-6.29  c0.01-14.16,0.02-28.33,0.01-42.49C323.85,205.32,321.7,204.55,319.82,204.5z"></path>	<path class="st0" d="M98.13,241.22c34.53,0,69.06,0.01,103.59,0.01c33.33,0,66.66,0,99.99,0c4.88,0,6.14-1.25,6.15-6.06  c0.01-8.15,0.02-17.53,0-27.24h0.01v-26.79c-31.03-9.32-58.48-19.68-84.9-34.39l-0.79-0.44l0.35-0.83c0.36-0.84,0.7-1.67,1.04-2.49  c0.96-2.32,1.87-4.51,2.98-6.64c0.5-0.96,2.07-1.3,3-1.3c0.39,0,0.74,0.06,1.03,0.17c3.36,1.27,6.73,2.51,10.11,3.76  c9.37,3.45,19.05,7.03,28.33,11.15c13.64,6.07,26.78,12.84,38.85,19.49v-41.25h-0.01c0-19.33,0-38.67,0-58  c0-5.87-0.96-6.83-6.87-6.83H98.9c-5.84,0-6.79,0.97-6.8,6.91c0,13.83,0,81.96,0,81.96c0,27.55,0,55.1,0.01,82.66  C92.11,240.01,93.29,241.22,98.13,241.22z M206.06,122.85l14.64,6.03l-6.79,15.84l-14.6-5.93L206.06,122.85z M169.56,111.53  l0.07-1.06l1.05,0.14c1.66,0.22,3.32,0.43,4.99,0.64c3.91,0.5,7.95,1.01,11.92,1.63c3.4,0.53,5.88,2.82,6.97,6.46  c0.6,1.98,0.94,4.04,1.27,6.02c0.14,0.86,0.28,1.72,0.45,2.57l0.18,0.94l-0.93,0.22c-3.35,0.81-6.46,1.21-9.25,1.21  c-5.56,0-9.86-1.58-12.77-4.71C170.46,122.32,169.13,117.59,169.56,111.53z M129.58,97.32c4.17-5.9,10.05-10.15,17.46-12.61  c0.64-0.21,1.26-0.32,1.84-0.32c1.75,0,3.11,0.97,3.72,2.66c1.1,3.03-1.34,4.62-2.89,5.3c-0.46,0.2-0.93,0.4-1.4,0.6  c-1.45,0.61-2.96,1.24-4.35,2.07c-10.45,6.21-14.02,16.51-10.34,29.77c0.53,1.9,1.26,3.75,1.97,5.54c0.76,1.92,1.55,3.9,2.05,5.88  c1.28,5.1,2.37,10.35,3.43,15.42c0.38,1.83,0.76,3.66,1.15,5.49l-0.67,0.14v0.81c0,10.77-3.05,19.39-9.32,26.36  c-1.02,1.14-2.28,1.76-3.53,1.76c-0.89,0-1.76-0.32-2.5-0.93c-0.84-0.69-1.35-1.63-1.44-2.64c-0.09-1.07,0.29-2.14,1.1-3.09  c9.81-11.41,8.08-24.7,5.92-33.71c-0.88-3.68-2.12-7.32-3.31-10.83c-1.09-3.21-2.22-6.52-3.06-9.83  C122.66,114.3,124.02,105.19,129.58,97.32z"></path></g></svg>