<svg xmlns="http://www.w3.org/2000/svg" xmlns:xlink="http://www.w3.org/1999/xlink" id="Layer_1" x="0px" y="0px" viewBox="0 0 400 400" style="enable-background:new 0 0 400 400;" xml:space="preserve"><style type="text/css">	.st0{fill:#322B6A;}</style><g>	<path class="st0" d="M275.24,329.81c-0.97-0.08-1.95-0.03-2.93-0.03c-24.11,0-48.22,0-72.33,0c-24.11,0-48.22,0-72.33,0  c-0.98,0-1.96-0.05-2.93,0.04c-2.7,0.23-4.56,2.15-4.66,4.72c-0.1,2.57,1.62,4.7,4.26,5.12c0.96,0.15,1.95,0.09,2.92,0.09  c48.51,0,97.02,0,145.53,0c0.88,0,1.77,0.05,2.63-0.05c2.8-0.35,4.63-2.49,4.51-5.18C279.81,331.92,277.96,330.03,275.24,329.81z"></path>	<path class="st0" d="M238.37,302.56c-0.96-2.07-2.1-2.79-4.41-2.77c-20.68,0.1-41.37,0.41-62.03-0.14  c-6.86-0.18-10.74,1.64-12.94,8.11c-1.38,4.06-3.75,7.79-5.82,11.95c31.39,0,62.28,0,93.7,0  C243.87,313.69,240.98,308.19,238.37,302.56z"></path>	<path class="st0" d="M60,270c0,5.13-0.08,9.9,0.03,14.67c0.07,3.05,1.86,4.82,4.92,5.14c0.97,0.1,1.95,0.05,2.93,0.05  c88.08,0,176.17,0,264.26-0.01c1.26,0,2.55-0.01,3.79-0.21c2.29-0.38,3.86-1.9,3.95-4.1c0.21-5.12,0.07-10.26,0.07-15.54  C246.57,270,153.45,270,60,270z"></path>	<path class="st0" d="M340.03,67.56c0-5.85-1.44-7.31-7.2-7.31c-88.56,0-177.12,0-265.68,0c-5.64,0-7.15,1.5-7.15,7.06  c0,63.05,0,126.1,0,189.15c0,1.04,0,2.08,0,3.23c93.48,0,186.59,0,280.04,0c0-1.44,0-2.5,0-3.56  C340.03,193.27,340.03,130.42,340.03,67.56z M180.14,104.26c0-5.05,1.87-9.09,6.53-11.41c4.51-2.24,8.62-1.15,12.52,1.78  c7.91,5.94,15.92,11.75,23.87,17.65c7.6,5.64,7.66,14.74,0.11,20.36c-8.07,6.01-16.21,11.93-24.28,17.95  c-3.76,2.81-7.79,3.71-12.09,1.63c-4.45-2.15-6.56-5.96-6.62-10.82c-0.08-6.27-0.02-12.55-0.02-18.83  C180.14,116.47,180.14,110.36,180.14,104.26z M298.72,192.5c-7.75,1.76-15.89-2.15-19.46-9.36c-0.45-0.91-0.84-1.86-1.33-2.95  c-5,0.48-9.28,2.52-13.1,5.58c-7.26,5.82-11.42,13.72-14.33,22.28c-1.65,4.86-2.61,9.96-3.87,14.95c-0.08,0.33-0.15,0.67-0.22,1.01  c-0.58,2.79-2.33,4.41-4.64,4.27c-2.36-0.14-3.7-1.93-4.32-4.69c-1.59-7.1-2.88-14.35-5.33-21.17c-1.73-4.82-4.61-9.5-7.94-13.43  c-10.99-13-30.17-12.17-40.84,1.45c-6.27,8.01-9.16,17.42-11.06,27.21c-0.39,2.02-0.61,4.08-0.92,6.12  c-0.44,2.85-2.06,4.5-4.4,4.52c-2.44,0.02-3.93-1.87-4.56-4.71c-1.58-7.11-2.99-14.3-5.3-21.18c-1.45-4.31-3.95-8.47-6.78-12.06  c-11.38-14.45-31.17-14.11-42.35,0.51c-6.06,7.93-8.9,17.18-10.74,26.8c-0.42,2.19-0.64,4.42-1,6.63c-0.4,2.48-2.33,4.14-4.59,4.01  c-2.39-0.14-4.4-2.16-4.15-4.71c1.38-14.56,5.22-28.32,14.87-39.72c15.46-18.26,41.67-17.2,55.84,2.27  c3.51,4.82,6.05,10.34,8.96,15.42c1.41-2.93,2.86-6.42,4.71-9.69c5.39-9.55,12.7-16.96,23.71-19.77  c16.01-4.08,31.01,2.46,40.21,17.66c2.6,4.29,4.56,8.95,6.72,13.24c1.88-3.7,3.67-7.81,5.95-11.62c5.87-9.83,13.83-17.2,25.44-19.5  c2.86-0.57,4.26-1.65,5.46-4.3c3.39-7.5,11.78-11.24,19.86-9.32c7.83,1.86,13.4,9.02,13.36,17.19  C312.52,183.71,306.89,190.64,298.72,192.5z"></path></g></svg>