<svg xmlns="http://www.w3.org/2000/svg" xmlns:xlink="http://www.w3.org/1999/xlink" id="Layer_1" x="0px" y="0px" viewBox="0 0 400 400" style="enable-background:new 0 0 400 400;" xml:space="preserve"><style type="text/css">	.st0{fill:#322B6A;}</style><g>	<path class="st0" d="M300.33,229.71c0-0.66-0.05-1.29-0.1-1.84c-0.02-0.21-0.03-0.42-0.05-0.61l-0.18-2.87l-2.57,1.29  c-2.07,1.04-4.13,2.07-6.18,3.08c-4.54,2.25-9.23,4.58-13.75,7.01c-3.49,1.88-6.77,2.79-10.02,2.79c-3.17,0-6.27-0.86-9.48-2.64  c-3.92-2.17-8.01-4.1-11.97-5.97c-1.77-0.83-3.54-1.67-5.29-2.52l-2.22-1.08l-0.47,2.43c-1.44,7.38-5.21,11.18-11.19,11.27l-0.19,0  c-5.24,0-9.61-3.49-10.87-8.68c-1.72-7.05,3.51-11.26,8.2-13.55l2.49-1.22l-2.03-1.88c-20.41-18.93-32.71-41.18-37.59-68.04  l-0.28-1.56h-4.65c-8.23,0-16.46,0-24.68-0.01c-8.23,0-16.45-0.01-24.68-0.01c-10.91,0-21.82,0.01-32.73,0.03  c-23.81,0.05-41.77,18.07-41.79,41.92c-0.02,26.37-0.02,53.71,0,81.27c0.02,23.92,18.1,41.96,42.04,41.97  c10.43,0,20.87,0.01,31.3,0.01l48.19,0c8.99,0,8.99,0,8.99,9.09v18.55l3.24-3.26c2.13-2.14,4.22-4.22,6.26-6.25  c4.88-4.86,9.5-9.44,13.98-14.22c2.68-2.85,5.31-4.02,9.06-4.02c0.14,0,0.27,0,0.41,0c4.83,0.11,10.05,0.16,16.44,0.16  c3.79,0,7.58-0.02,11.37-0.03c3.1-0.01,6.2-0.03,9.3-0.03c23.71-0.03,41.63-17.97,41.69-41.73c0.02-10.51,0.01-21.03,0-31.54  L300.33,229.71z M131.73,240.05L131.73,240.05c-6.12,0-11.12-4.97-11.15-11.07c-0.02-2.98,1.14-5.8,3.25-7.92  c2.11-2.12,4.92-3.3,7.91-3.3l0.11,0c6.11,0.06,11.05,5.08,11.02,11.2C142.84,235.07,137.84,240.05,131.73,240.05z M179.17,240.05  l-0.07,0c-6.11-0.04-11.07-5.04-11.06-11.16c0.01-6.11,4.98-11.11,11.09-11.13c3.03,0,5.85,1.18,7.96,3.32  c2.12,2.14,3.26,4.97,3.23,7.97C190.26,235.12,185.25,240.05,179.17,240.05z"></path>	<g>		<path class="st0" d="M276.34,103.68c-2.5-1.71-5.61-2.65-8.78-2.65c-3.07,0-5.99,0.85-8.44,2.45c-7.7,5.04-7.62,12.86-6.95,19.79   l0.17,1.71h30.48l0.16-1.72C283.67,116.13,283.72,108.74,276.34,103.68z"></path>		<path class="st0" d="M274.62,141.19c-2.03-1.58-4.44-2.41-6.98-2.41c-2.83,0-5.56,1.07-7.68,3.02c-4.07,3.73-4.84,9.57-1.93,14.51   c0.61,1.03,1.01,2.4,1.11,3.75c0.14,1.96,0.11,3.92,0.08,6c-0.01,0.87-0.03,1.75-0.03,2.63v1.9h16.85l0-4.09   c0-1.61,0.01-3.17-0.01-4.72c-0.02-2.6,0.19-4.34,1.41-6.14C280.5,151.14,279.25,144.79,274.62,141.19z"></path>		<path class="st0" d="M341.91,102.99c-0.05-4.99-0.1-10.15-0.04-15.21c0.01-0.95,0.01-1.9,0-2.87l0-2.84l-1.44-0.36   c-0.25-0.06-0.49-0.13-0.72-0.19c-0.52-0.15-1.06-0.3-1.65-0.37c-23.21-2.85-46.01-9.11-67.77-18.62   c-0.72-0.31-1.59-0.48-2.53-0.48c-1.07,0-2.16,0.21-3.05,0.6c-17.82,7.66-34.97,12.93-52.41,16.12   c-3.89,0.71-7.73,1.32-11.79,1.97c-1.85,0.29-3.72,0.59-5.61,0.9l-1.59,0.26v4.89c0,3.7-0.01,7.4-0.02,11.1   c-0.02,9.01-0.04,18.32,0.07,27.48c0.06,5.13,0.21,11.08,1.15,16.82c6.9,42.03,30.58,71.51,70.38,87.65   c0.77,0.31,1.69,0.48,2.65,0.48c1.09,0,2.16-0.22,3.02-0.61c1.5-0.69,3.01-1.36,4.53-2.04c4.97-2.21,10.12-4.5,14.79-7.49   c30.9-19.75,48.15-47.79,51.27-83.35C342.13,125.58,342.02,114.09,341.91,102.99z M302.47,174.5c-0.01,6.52-3.31,9.83-9.83,9.85   c-8.38,0.01-16.76,0.02-25.14,0.02c-8.32,0-16.65-0.01-24.97-0.02c-6.52-0.01-9.82-3.32-9.83-9.84c-0.01-13.05-0.01-26.09,0-39.14   c0-6.66,2.6-9.5,9.57-10.47l1.64-0.23v-1.65c0-0.71,0-1.43-0.01-2.15c-0.01-1.54-0.02-3.14,0.02-4.7   c0.27-11.6,8.9-21.48,20.07-22.98c1.14-0.15,2.29-0.23,3.43-0.23c11.01,0,20.2,6.92,22.89,17.23c0.7,2.71,0.89,5.6,1.09,8.66   c0.09,1.44,0.19,2.93,0.34,4.43l0.15,1.48l1.47,0.21c6.56,0.92,9.11,3.84,9.11,10.4C302.48,148.41,302.48,161.46,302.47,174.5z"></path>	</g></g></svg>