<svg xmlns="http://www.w3.org/2000/svg" xmlns:xlink="http://www.w3.org/1999/xlink" id="Layer_1" x="0px" y="0px" viewBox="0 0 400 400" style="enable-background:new 0 0 400 400;" xml:space="preserve"><style type="text/css">	.st0{fill:#322B6A;}</style><g>	<path class="st0" d="M350,101.93H127.19v77.01l-8.53-4.57c-1.66-0.89-3.29-1.78-4.89-2.66c-3.84-2.09-7.46-4.07-11.15-5.87  c-1.93-0.94-3.69-1.47-4.96-1.49c-6.56-0.1-13.36-0.15-20.2-0.15c-5.96,0-12.14,0.04-18.38,0.12c-4.9,0.06-9.05,4.35-9.06,9.37  c-0.05,16.4-0.02,33.46,0.07,50.72c0,0.54,0.2,1.29,0.49,1.87c0.47,0.92,1.44,1.47,2.6,1.47c0.29,0,0.58-0.04,0.87-0.11  c1.34-0.34,2.21-1.56,2.22-3.12c0.02-8.41,0.02-16.96,0.02-25.23c0-3.67,0-7.33,0-11c0-0.06-0.01-0.12-0.01-0.18  c-0.07-0.91-0.23-2.79,0.86-4.71c0.59-1.03,2.8-4.4,6.67-4.49l0.15,0c3.4,0,6.06,2.64,7.08,5.09c0.75,1.78,0.66,3.46,0.6,4.46  c-0.01,0.14-0.02,0.28-0.02,0.41l0,34.46c0,22.88,0,45.75,0.01,68.63c0,0.91,0,1.76,0.1,2.4c0.23,1.45,1.63,2.7,2.62,2.77  c0.11,0.01,0.22,0.01,0.33,0.01c0,0,0,0,0,0c0.69,0,2.36-0.18,2.91-1.9c0.19-0.59,0.29-1.47,0.29-2.62  c0.02-6.78,0.02-13.56,0.02-20.34c0-7.99,0.01-16.24,0.03-24.37c-0.01-0.11-0.02-0.23-0.03-0.36c-0.15-1.41-0.45-4.36,1.75-6.81  c1.36-1.52,3.33-2.36,5.54-2.38h0.07c3.05,0,4.85,1.49,5.66,2.37c2.22,2.46,1.93,5.42,1.79,6.85c-0.01,0.13-0.03,0.26-0.04,0.38  c0.06,4.31,0.05,8.67,0.04,12.88c0,1.58-0.01,3.16-0.01,4.74c0,2.78,0,5.56-0.01,8.34c-0.01,6.46-0.01,13.13,0.02,19.69  c0.01,1.06,0.33,3.52,3.18,3.52c0.13,0,0.27-0.01,0.41-0.02c1.96-0.16,2.65-2.08,2.65-3.83c0-27.07,0-54.15,0-81.22l0-40.8  c0,0,10.32,5.27,10.73,5.48c1.18,0.6,2.36,1.21,3.53,1.82c2.92,1.52,5.67,2.95,8.5,4.19c3.73,1.64,5.54,4.37,5.52,8.34  c-0.05,10.97-0.05,22.12-0.04,32.91l0,7.05h65.8l-4.23,17.19c0.38-0.06,0.89-0.12,1.5-0.12l2.89,0l-13.94,47.64l7.89,2.31  l14.62-49.95l12.1,0c20.25,0,41.09,0,61.77-0.02l14.62,49.97l7.89-2.31l-13.95-47.67c0.84,0,1.68,0,2.52,0  c0.68,0,1.32,0.07,1.92,0.19l-4.26-17.3H350V101.93z"></path>	<path class="st0" d="M85.34,153.54c9.87-0.05,17.78-8.02,17.75-17.91c-0.02-9.93-7.92-17.79-17.84-17.76  c-9.88,0.03-17.84,8.01-17.81,17.85C67.46,145.54,75.55,153.59,85.34,153.54z"></path></g></svg>