<svg xmlns="http://www.w3.org/2000/svg" xmlns:xlink="http://www.w3.org/1999/xlink" id="Layer_1" x="0px" y="0px" viewBox="0 0 400 400" style="enable-background:new 0 0 400 400;" xml:space="preserve"><style type="text/css">	.st0{fill:#322B6A;}</style><g>	<path class="st0" d="M123.08,294.24c-24.14-35.22-14.87-83.26,20.31-108.13c33.63-23.77,92.58-18.17,116.68,33.67  c2.4-1,4.82-2,7.98-3.3c-13.56-29.19-35.78-46.21-66.21-52.29c0-3.6,0-6.73,0-9.87c3.08-0.2,5.68-0.36,8.25-0.53  c0-3.14,0-5.87,0-8.59c-15.28,0-30.11,0-45.03,0c0,3.08,0,5.82,0,8.69c3.01,0.15,5.62,0.28,8.49,0.42c0,3.5,0,6.66,0,9.78  c-42.6,7.92-70.32,42.37-72.93,80.08c-2.59,37.45,18.82,72.04,52.99,86.61c35.28,15.04,72.4,2.77,88.32-13.1  c-1.75-2.11-3.51-4.24-5.27-6.35C197.8,340.85,147.65,330.09,123.08,294.24z"></path>	<path class="st0" d="M118.47,149.8c0.23,3.04,0.43,5.78,0.63,8.4c12.38,0,24.27,0,36.13,0c0.11-1.06,0.22-1.63,0.22-2.2  c0.02-8.97,0.05-17.95,0.02-26.92c-0.04-11.24-5.15-16.27-16.56-16.29c-15.63-0.03-31.26-0.01-47.68-0.01  c0-4.77,0.29-8.78-0.13-12.72c-0.19-1.8-1.39-4.32-2.81-4.94c-1.39-0.61-4.21,0.21-5.44,1.4c-10.41,10.1-20.59,20.44-30.86,30.69  c-2.7,2.7-2.6,5.26,0.07,7.92c10.14,10.11,20.18,20.33,30.47,30.28c1.35,1.3,4.43,2.3,5.85,1.63c1.49-0.71,2.51-3.54,2.73-5.55  c0.42-3.87,0.12-7.82,0.12-11.71C100.83,149.8,109.54,149.8,118.47,149.8z"></path>	<path class="st0" d="M220.02,124.52c-0.55,11.18-0.15,22.4-0.15,33.78c12.39,0,24.29,0,36.35,0c0.15-3,0.29-5.61,0.44-8.5  c9,0,17.71,0,27.3,0c0,4.18-0.3,7.99,0.12,11.73c0.23,2.01,1.24,4.84,2.73,5.55c1.42,0.67,4.5-0.33,5.85-1.63  c10.29-9.95,20.33-20.17,30.48-30.28c2.67-2.66,2.78-5.25,0.09-7.94c-10.26-10.26-20.45-20.6-30.86-30.7  c-1.23-1.19-4.06-2-5.46-1.39c-1.43,0.62-2.64,3.13-2.82,4.93c-0.41,4.08-0.13,8.23-0.13,12.7c-2.47,0-4.16,0-5.85,0  c-14.51,0.01-29.02-0.03-43.54,0.05C226.66,112.85,220.37,117.43,220.02,124.52z"></path>	<path class="st0" d="M156.78,103.48c4.04,0.47,8.17,0.14,12.7,0.14c0,11.18,0,21.4,0,31.7c12.35,0,24.24,0,36.58,0  c0-10.66,0-20.89,0-31.7c4.39,0,8.39,0.33,12.28-0.14c1.96-0.23,4.51-1.49,5.38-3.06c0.65-1.17-0.45-4.11-1.68-5.38  c-9.96-10.27-20.16-20.3-30.24-30.46c-2.85-2.87-5.47-2.94-8.35-0.04c-10.08,10.15-20.29,20.18-30.26,30.44  c-1.24,1.28-2.38,4.19-1.75,5.37C152.29,101.94,154.83,103.25,156.78,103.48z"></path>	<path class="st0" d="M331.7,235.77c-23.03,0-45.61,0-68.28,0c0,3,0,5.59,0,8.51c22.84,0,45.42,0,68.28,0  C331.7,241.42,331.7,238.82,331.7,235.77z"></path>	<path class="st0" d="M253.06,267.16c19.98,0,39.5,0,59.11,0c0-3,0-5.59,0-8.51c-19.78,0-39.3,0-59.11,0  C253.06,261.52,253.06,264.11,253.06,267.16z"></path>	<path class="st0" d="M263.42,290.1c18.45,0,36.44,0,54.51,0c0-3,0-5.59,0-8.51c-18.25,0-36.24,0-54.51,0  C263.42,284.47,263.42,287.06,263.42,290.1z"></path>	<path class="st0" d="M252.64,311.17c10.73,0,21.08,0,31.52,0c0-3,0-5.59,0-8.5c-10.6,0-20.95,0-31.52,0  C252.64,305.69,252.64,308.4,252.64,311.17z"></path>	<path class="st0" d="M322.02,267.08c6.19,0,11.94,0,17.81,0c0-2.92,0-5.37,0-8.38c-6.28,0-12.04,0-17.81,0  C322.02,261.77,322.02,264.48,322.02,267.08z"></path>	<path class="st0" d="M341.4,235.79c0,2.99,0,5.56,0,8.52c3.25,0,5.82,0,8.6,0c0-3.02,0-5.73,0-8.52  C346.94,235.79,344.23,235.79,341.4,235.79z"></path>	<path class="st0" d="M247.16,245.73c-1.03-11.1-4.41-20.77-11.39-30.27c-0.93-1.18-1.96-2.48-3.13-3.97  c-0.24-0.29-0.48-0.58-0.73-0.87c-0.35,0.47-0.68,0.92-1.02,1.38c-2.38,3.54-4.46,6.65-5.92,8.81c-0.13-0.1-0.25-0.18-0.38-0.28  c-0.39,0.53-0.78,1.06-1.18,1.6c-2.04-2.44-3.53-4.23-5.1-6.11c-0.91-0.65-1.89-1.36-3.01-2.16c3.06-2.21,5.74-4.15,8.32-6.02  c0.79-0.83,1.62-1.69,2.46-2.57c-2.84-2.55-5.87-4.77-9.06-6.64c-0.06-0.04-0.12-0.07-0.19-0.11c-0.23-0.13-0.46-0.25-0.69-0.38  c-4.65-2.57-9.59-4.44-14.87-5.66c-2.9-0.63-5.85-1.02-8.84-1.16c0,4.24,0,8.29,0,12.76c-0.04,0-0.08,0-0.12,0  c-3.17,0-5.88,0-9.3,0c-0.04,0-0.08,0-0.12,0c0-4.48,0-8.52,0-12.76c-2.99,0.14-5.94,0.53-8.84,1.16  c-5.28,1.22-10.21,3.09-14.87,5.66c-0.23,0.13-0.46,0.25-0.69,0.38c-0.06,0.04-0.12,0.07-0.18,0.11c-3.19,1.87-6.22,4.09-9.06,6.64  c0.85,0.89,1.67,1.74,2.46,2.57c2.58,1.87,5.26,3.81,8.32,6.02c-1.12,0.81-2.1,1.51-3.01,2.16c-1.57,1.88-3.06,3.67-5.1,6.11  c-0.4-0.55-0.79-1.07-1.18-1.6c-0.13,0.09-0.25,0.18-0.38,0.28c-1.45-2.16-3.54-5.27-5.92-8.81c-0.34-0.46-0.67-0.91-1.02-1.38  c-0.25,0.29-0.48,0.58-0.73,0.87c-1.17,1.48-2.2,2.79-3.13,3.97c-6.97,9.5-10.36,19.17-11.39,30.27c4.41,0,8.55,0,13.12,0  c0,3.2,0,5.92,0,9.19c-4.21,0-8.34,0-13.06,0c0.78,10.61,4.01,19.74,9.59,28.25c1.29,1.67,2.7,3.49,4.49,5.79  c2.87-3.53,5.55-6.84,8.7-10.72c1.1,1.37,2.03,2.52,2.89,3.59c1.83,1.47,3.52,2.83,5.81,4.67c-4.12,2.88-7.72,5.41-11.77,8.24  c10.92,9.23,21.76,13.79,34.77,15.03c0-4.32,0-8.4,0-12.97c0.18,0,0.35,0,0.53,0c3,0,5.61,0,8.85,0c0.18,0,0.35,0,0.53,0  c0,4.57,0,8.65,0,12.97c13-1.24,23.85-5.8,34.77-15.03c-4.05-2.84-7.65-5.36-11.77-8.24c2.29-1.84,3.98-3.2,5.81-4.67  c0.86-1.07,1.79-2.23,2.89-3.59c3.15,3.88,5.83,7.19,8.7,10.72c1.79-2.31,3.2-4.12,4.49-5.79c5.58-8.51,8.82-17.64,9.59-28.25  c-4.72,0-8.85,0-13.06,0c0-3.26,0-5.99,0-9.19C238.61,245.73,242.75,245.73,247.16,245.73z M192.01,250.95  c-0.01,1.14-1.01,2.46-1.9,3.36c-7.19,7.33-14.46,14.57-22.09,22.22c-2.43-2.29-4.35-4.1-6.82-6.42  c6.54-6.45,12.89-12.43,18.85-18.78c1.6-1.71,2.75-4.53,2.82-6.88c0.31-10.04,0.13-20.1,0.13-30.42c3.17,0,5.76,0,9.08,0  C192.1,226.34,192.15,238.65,192.01,250.95z"></path></g></svg>