<svg xmlns="http://www.w3.org/2000/svg" xmlns:xlink="http://www.w3.org/1999/xlink" id="Layer_1" x="0px" y="0px" viewBox="0 0 400 400" style="enable-background:new 0 0 400 400;" xml:space="preserve"><style type="text/css">	.st0{fill:#322B6A;}</style><g>	<path class="st0" d="M134.52,138.46c5.16,6.26,12.12,8.64,19.93,8.73c11.57,0.14,23.15-0.06,34.72,0.09  c3.77,0.05,7.55,0.65,11.3,1.19c2.35,0.34,13.26,4.86,14.66,5.83c10.52,7.22,14.86,17.89,15.87,29.99  c1.2,14.42,1.75,28.9,2.6,43.35c0.12,2.12,1.51,3.76,3.59,3.81c6.51,0.16,12.29-1.59,16.47-6.98c3.79-4.9,4.7-10.7,4.72-16.62  c0.07-30.77,0.04-61.54,0.02-92.31c0-1.93-0.12-3.89-0.43-5.79c-1.91-11.58-9.54-17.51-19.18-21.49  c-1.57,26.08-22.33,42.72-43.89,43.27c-20.5,0.53-43.09-14.07-46.26-42.05c-1.63,0.6-3.23,1.18-4.81,1.78  c-7.63,2.88-11.92,8.66-13.79,16.33c-1.52,6.27-0.98,12.68-0.45,19.02C129.94,131.01,131.69,135.02,134.52,138.46z"></path>	<path class="st0" d="M143.04,282.33c-3.87-6.66-7.89-13.24-9.61-20.89c-1.63-7.24-1.62-14.41,1.13-21.41  c3.2-8.13,8.82-14.34,15.95-19.15c11.83-7.98,23.82-15.74,35.74-23.59c2.65-1.74,3.09-3.59,1.52-6.27  c-5.48-9.34-15.28-12.78-25.07-8.15c-7,3.3-13.65,7.35-20.38,11.2c-11.93,6.81-23.81,13.71-35.7,20.58  c-10.76,6.22-21.55,12.37-32.23,18.72c-5.04,2.99-8.15,7.68-10.16,13.13c-1.64,4.46-1.3,8.74,0.95,12.94  c0.52,0.97,0.75,1.62,2.09,1.12c2.51-0.93,5.07-1.77,7.67-2.41c9.85-2.39,19.45-1.24,28.48,3.13c14.58,7.07,23.28,18.7,25.55,34.87  c1.81,12.94-1.61,24.48-9.95,34.48c-2.61,3.13-5.78,5.79-8.82,8.8c2.2,1.95,4.25,4.64,6.97,5.98c5.98,2.96,12.49,3.37,18.72,0.83  c4.36-1.78,8.45-4.29,12.51-6.72c11.99-7.18,15.53-20.75,8.63-32.91C152.42,298.49,147.73,290.41,143.04,282.33z"></path>	<path class="st0" d="M271.45,297.59c-2.53-12.54-0.02-24.2,7.27-34.68c6.2-8.91,14.69-14.82,25.2-17.61  c10.68-2.83,21.07-1.8,31.37,3.03c0.56-3.33,1.71-6.56,1.49-9.68c-0.46-6.56-3.24-12.39-8.53-16.44  c-4.01-3.06-8.48-5.59-12.93-8.01c-10.94-5.93-23.68-3.06-30.53,7.26c-4.96,7.49-9.12,15.51-13.78,23.2  c-3.62,5.99-7.01,12.2-11.3,17.68c-10.09,12.88-24.53,17.51-40.41,12.4c-2.99-0.96-17.76-8.07-18.89-8.64  c-8.93-4.47-17.87-8.91-26.8-13.37c-2.18-1.09-4.13-0.76-5.42,1.35c-3.22,5.23-4.38,10.84-2.34,16.82  c1.65,4.83,4.99,8.42,9.18,11.04c6.63,4.14,13.46,7.98,20.22,11.91c9.68,5.63,19.38,11.23,29.08,16.83  c10.59,6.12,21.16,12.24,31.78,18.31c3.3,1.89,6.48,4.11,10.42,4.66c1.62,0.38,5.78,0.79,8.01,0.77  c6.11-0.17,11.46-3.71,17.05-7.59C280.82,319.66,273.96,310.02,271.45,297.59z"></path>	<path class="st0" d="M193.64,121.03l0.19,0c19.04-0.11,34.47-15.6,34.41-34.53c-0.06-18.98-15.53-34.42-34.51-34.42  c-9.25,0.01-17.96,3.67-24.53,10.31c-6.44,6.52-9.94,15.07-9.84,24.07v0.15c-0.12,9,3.36,17.56,9.81,24.1  C175.65,117.26,184.57,121.03,193.64,121.03z"></path>	<path class="st0" d="M340.35,264.68c-6.4-6.55-15.4-10.36-24.69-10.45l-0.34,0c-9.06,0-17.64,3.58-24.14,10.07  c-6.5,6.49-10.09,15.05-10.11,24.09c-0.02,9.34,3.53,18.1,9.98,24.65c6.43,6.53,15.04,10.14,24.24,10.17  c19.21-0.07,34.45-14.99,34.7-33.98C350.12,279.89,346.69,271.17,340.35,264.68z"></path>	<path class="st0" d="M111.58,280.65c-6.46-8.19-16.55-13.08-27-13.08c-1.45,0-2.87,0.1-4.2,0.31c-0.18,0.03-17.92,3.25-24.73,15.14  l-0.09,0.16l-0.1,0.16c-9.39,14.18-6.35,34.39,6.77,45.04c6.51,5.28,14.23,8.07,22.33,8.07c0,0,0,0,0,0  c9.05,0,17.69-3.58,24.33-10.07C121.15,314.39,122.33,294.3,111.58,280.65z"></path></g></svg>