<svg xmlns="http://www.w3.org/2000/svg" xmlns:xlink="http://www.w3.org/1999/xlink" id="Layer_1" x="0px" y="0px" viewBox="0 0 400 400" style="enable-background:new 0 0 400 400;" xml:space="preserve"><style type="text/css">	.st0{fill:#322B6A;}</style><g>	<path class="st0" d="M218.33,98.23h19.35l-0.02-1.54c-0.1-6.71-4.77-12.73-10.63-13.7l-1.13-0.19l-0.49,1.03  c-1.17,2.44-2.34,4.8-3.58,7.3c-0.81,1.62-1.62,3.26-2.44,4.92L218.33,98.23z"></path>	<path class="st0" d="M180.14,95.56c-1.95-4.09-3.8-7.95-5.75-11.85l-0.56-1.11l-1.2,0.33c-6.01,1.66-10.06,6.93-10.56,13.77  l-0.12,1.63h19.51L180.14,95.56z"></path>	<path class="st0" d="M247.94,322.62c-1.71-0.03-3.43-0.04-5.15-0.04c-1.72,0-3.44,0.01-5.16,0.02c-1.71,0.01-3.41,0.02-5.1,0.02  c-3.71,0-7.42,0.01-11.13,0.02c-3.7,0.01-7.39,0.02-11.08,0.02c-3.69,0-7.37-0.01-11.04-0.04c-2.77,0-3.38-1.11-3.63-2.31  c-0.15-0.67-0.2-1.6,0.38-2.34c0.54-0.69,1.54-1.09,2.81-1.12c4.92-0.11,9.98-0.12,14.87-0.13c3.32-0.01,6.64-0.01,9.95-0.05  c0,0,0,0,0,0c0.88,0,1.75-0.07,2.76-0.14l2.52-0.18l-0.5-1.79c-2.25-8.03-4.02-14.18-5.75-19.95c-0.4-1.38-2.25-2.47-3.58-2.47  c-6.39-0.05-12.86-0.05-19.13-0.05c-6.24,0-12.7,0-19.04-0.05c-3.08,0-3.69,2.26-3.98,3.35c-1.43,5.19-2.86,10.3-4.3,15.41  l-0.14,0.51c-0.24,0.72-0.42,1.51-0.61,2.34c-0.1,0.44-0.2,0.9-0.33,1.41l-0.47,1.88h1.94c0.96,0,1.88-0.01,2.78-0.02  c0.84-0.01,1.66-0.02,2.46-0.02c0.81,0,1.6,0.01,2.39,0.04c1.74,0.06,2.65,0.95,2.71,2.62c0.06,1.72-0.77,2.76-2.48,3.09  c-0.87,0.16-1.71,0.16-2.68,0.16c-2.27,0-4.55-0.01-6.82-0.01c-2.28-0.01-4.55-0.01-6.83-0.01c-5.49,0-9.7,0.04-13.63,0.12  c-8.74,0.2-16.29,7.58-16.5,16.12l-0.04,1.55h130.84l0.02-1.5C265.37,330.2,257.6,322.82,247.94,322.62z"></path>	<path class="st0" d="M334,104.29H65.63c-7.48,0-9.76,2.32-9.76,9.95v162.45c0,7.23,2.39,9.67,9.48,9.67h269.21  c7.09,0,9.49-2.44,9.49-9.67c0-53.12,0-108.05,0.09-162.17C344.13,106.48,341.96,104.29,334,104.29z M328.04,270.35H71.87V120.29  h256.26C328.04,170.37,328.04,221.09,328.04,270.35z"></path>	<path class="st0" d="M199.8,98.42l0.18,0c10.71,0,19.42-8.75,19.42-19.49c0-10.93-8.56-19.49-19.49-19.49  c-10.78,0-19.3,8.43-19.4,19.2C180.41,89.45,189.06,98.32,199.8,98.42z M197.14,71.36c0.14-1.08,0.61-2.19,2.97-2.31  c2.61,0.05,5.2,1.28,7.11,3.38c1.75,1.93,2.66,4.32,2.48,6.56c-0.13,1.73-0.9,2.56-2.5,2.69c-0.15,0.01-0.3,0.02-0.44,0.02  c-2.28,0-2.5-1.42-2.57-1.89c-0.61-3.15-2.04-4.58-5.11-5.15C196.95,74.33,197.02,72.24,197.14,71.36z"></path>	<path class="st0" d="M96.37,171.16c4.04-0.2,4.21-4.37,4.01-10.24c-0.05-1.31-0.09-2.54-0.03-3.62l0.05-0.97l2.86-1.14l0.71,0.72  c2.16,2.2,4.33,4.4,6.49,6.6c5.45,5.54,11.08,11.28,16.66,16.87c0.97,0.97,2.08,1.48,3.2,1.48c0.98,0,1.91-0.4,2.64-1.12  c0.82-0.86,1.2-1.7,1.17-2.58c-0.08-2.4-3.16-5.2-5.63-7.45c-1.15-1.05-2.24-2.04-3.07-3c-3.92-3.76-7.87-7.51-11.82-11.25  l-5.71-5.41l1.79-3.06l0.79-0.06c0.43-0.03,0.9-0.05,1.45-0.05c0.82,0,1.69,0.03,2.6,0.07c0.95,0.04,1.93,0.08,2.89,0.08  c0,0,0,0,0,0c5.65,0,6.81-1.49,6.86-3.9c0.02-1.11-0.28-2-0.92-2.66c-0.75-0.77-1.93-1.19-3.44-1.21  c-3.6-0.04-7.13-0.06-10.51-0.06c-4.35,0-8.62,0.03-12.7,0.1c-3.23,0.05-4.23,1.05-4.28,4.28c-0.13,7.38-0.15,14.97-0.05,23.21  C92.43,169.37,94.07,171.16,96.37,171.16z"></path>	<path class="st0" d="M269.75,180.84c1.02,0,2.04-0.44,2.9-1.24c4.78-4.71,9.57-9.58,14.21-14.29c3.08-3.13,6.16-6.26,9.26-9.36  l0.73-0.73l2.74,1.2l0.05,0.93c0.06,1.09,0.02,2.34-0.02,3.67c-0.19,5.85-0.01,10,3.99,10.2c2.3,0,3.93-1.82,3.96-4.43  c0.12-8.75,0.11-16-0.03-22.84c-0.07-3.67-1-4.58-4.72-4.63c-3.83-0.05-7.74-0.07-11.93-0.07c-3.52,0-7.03,0.02-10.55,0.05  c-1.66,0.01-2.97,0.47-3.78,1.31c-0.63,0.66-0.94,1.54-0.91,2.55c0.21,2.91,1.93,3.94,6.57,3.94c1.01,0,2.07-0.05,3.1-0.1  c1.02-0.05,2.08-0.09,3.07-0.09c0.72,0,1.35,0.03,1.91,0.08l2.98,0.27l-1.98,2.24c-4.65,5.26-9.57,10.1-14.32,14.78  c-3.17,3.12-6.44,6.34-9.66,9.71c-1.39,1.33-1.82,2.89-1.22,4.37C266.71,179.81,268.2,180.84,269.75,180.84z"></path>	<path class="st0" d="M303.68,219.57l-0.14,0c-3.94,0.43-4.22,3.24-3.91,9.51c0.08,1.74,0.17,3.53,0.03,5.17l-0.27,3.08l-2.27-2.11  c-4.95-4.6-9.55-9.26-13.99-13.76c-2.99-3.03-6.07-6.16-9.27-9.27c-1.6-1.58-3.12-2.42-4.41-2.42c-0.91,0-1.74,0.41-2.54,1.24  c-0.7,0.73-2.56,2.68,1.43,6.68c2.85,2.99,5.82,5.89,8.69,8.69c4.78,4.66,9.71,9.49,14.21,14.83l2.1,2.49h-3.26  c-1.22,0-2.36-0.01-3.46-0.01c-1-0.01-1.96-0.01-2.89-0.01c-1.39,0-2.53,0.01-3.57,0.04l-0.26,0c-1.33,0-2.42,0.42-3.16,1.2  c-0.65,0.69-1,1.63-1,2.65c0,1.9,1.25,3.82,4.05,3.82c0.09,0,0.17,0,0.34-0.01c3.57,0.03,7.15,0.05,10.72,0.05  c4.15,0,8.24-0.02,12.15-0.07c3.63-0.04,4.43-0.82,4.52-4.38c0.17-6.98,0.19-14.36,0.08-23.21  C307.55,221.25,305.98,219.57,303.68,219.57z"></path>	<path class="st0" d="M130.77,209.77c-2.67,0-6.25,3.79-8.61,6.3c-0.57,0.61-1.11,1.18-1.58,1.65c-4.18,4.25-8.36,8.5-12.54,12.76  l-4.89,4.98l-2.77-1.19l-0.04-0.95c-0.05-1.04-0.01-2.23,0.03-3.5c0.11-3.38,0.26-7.59-1.43-9.34c-0.59-0.61-1.44-0.91-2.57-0.91  l-0.18,0c-3.26,0.14-3.77,2.93-3.78,4.59c-0.07,7.96-0.07,15.19,0.02,22.1c0.05,4.25,0.84,5.06,4.97,5.12  c2.66,0.04,5.55,0.06,8.83,0.06c3.24,0,6.49-0.02,9.73-0.04l3.17-0.02l0.11,0c0.2,0.01,0.39,0.02,0.57,0.02  c3.12,0,4.52-1.92,4.52-3.83c0-1.01-0.39-1.95-1.09-2.65c-0.83-0.82-2.05-1.26-3.54-1.26c-0.13,0-0.27,0-0.41,0.01l-0.09,0  c-1.1-0.01-2.2-0.02-3.3-0.02c-0.89,0-6.28,0.01-6.28,0.01l-1.91-3.53l1.13-0.77c5.46-3.72,10.18-8.68,14.74-13.48  c2.63-2.76,5.35-5.62,8.15-8.2c3.45-3.46,2.61-5.33,1.3-6.74C132.09,209.89,131.29,209.77,130.77,209.77z"></path></g></svg>