<svg xmlns="http://www.w3.org/2000/svg" xmlns:xlink="http://www.w3.org/1999/xlink" id="Layer_1" x="0px" y="0px" viewBox="0 0 400 400" style="enable-background:new 0 0 400 400;" xml:space="preserve"><style type="text/css">	.st0{fill:#322B6A;}</style><g>	<path class="st0" d="M347.28,226.06c-0.27-0.35-0.75-0.42-1.1-0.42c-0.28,0-0.58,0.04-0.9,0.13c-13.15,3.49-25.32,6.74-37.18,9.94  c-0.85,0.23-1.45,0.66-1.58,1.16c-0.13,0.49,0.15,1.15,0.77,1.78c2.05,2.1,4.18,4.21,6.23,6.25c1.09,1.08,2.17,2.16,3.25,3.24  c0.34,0.34,0.66,0.69,1.05,1.11l0.62,0.67l1.63,1.74l-1.84,1.52c-0.25,0.21-0.49,0.39-0.71,0.57c-0.39,0.31-0.69,0.55-0.94,0.79  c-10.38,10.36-20.76,20.74-31.13,31.11l-0.23,0.23c-0.38,0.37-0.73,0.73-0.97,1.06c-0.42,0.59-0.36,1.25,0.15,1.78  c0.28,0.3,0.64,0.46,1.02,0.46c0.26,0,0.51-0.08,0.74-0.23c0.4-0.27,0.82-0.69,1.27-1.13l0.12-0.12  c6.84-6.83,13.68-13.67,20.52-20.51c2.76-2.77,5.52-5.53,8.34-8.36l5.52-5.53l5.04,5.04c2.51,2.52,4.97,4.98,7.44,7.42  c0.61,0.6,1.24,0.95,1.72,0.95c0.81,0,1.22-1.26,1.32-1.65c3.24-11.92,6.59-24.42,9.96-37.16  C347.62,227.1,347.57,226.43,347.28,226.06z"></path>	<path class="st0" d="M233.61,173.14c-3.51-17.96-13.62-31.16-30.05-39.21c-6.87-3.37-14.2-5.07-21.78-5.07  c-1.05,0-2.12,0.03-3.18,0.1c-19.06,1.18-33.78,10.02-43.77,26.28c-5.61,9.14-8.08,19.05-7.35,29.46  c1.57,22.33,12.83,38.26,33.46,47.37c4.79,2.11,10.02,3.33,16.01,3.73c0.39,0.03,0.72,0.11,0.97,0.17h6.11  c0.64-0.08,1.29-0.16,1.93-0.24c1.47-0.17,2.87-0.34,4.23-0.6c17.92-3.5,31.11-13.61,39.2-30.04c2.78-5.65,4.42-11.91,4.87-18.61  c0.03-0.41,0.11-0.75,0.17-1.02c0-0.01,0-0.01,0-0.02v-6.14c-0.08-0.64-0.16-1.28-0.23-1.93  C234.04,175.9,233.88,174.51,233.61,173.14z M180.9,229.32c-25.83,0-46.86-21.03-46.88-46.89c-0.01-12.47,4.88-24.23,13.76-33.12  c8.88-8.89,20.64-13.79,33.12-13.8h0.03h0c25.83,0,46.86,21.03,46.88,46.89C227.83,208.26,206.8,229.31,180.9,229.32z"></path>	<path class="st0" d="M181.04,156.78l-0.26,0c-13.87,0-25.31,11.43-25.5,25.47c-0.09,6.73,2.48,13.12,7.25,18.01  c4.85,4.97,11.33,7.74,18.26,7.81c0,0,0.26,0,0.26,0c13.87,0,25.31-11.43,25.5-25.47c0.09-6.73-2.48-13.12-7.25-18.01  C194.45,159.62,187.97,156.85,181.04,156.78z"></path>	<path class="st0" d="M209.34,280.23l-2.62,2.21c-3.7,3.11-7.37,6.2-11.05,9.26c-3.33,2.77-8.53,6.46-15.19,6.46  c-6.77,0-11.83-3.65-15.48-6.83l-15.08-13.12L103,315h115.28c-0.01-9.12,0-18.23,0-27.35c0-0.13,0-0.27,0-0.4L209.34,280.23z"></path>	<path class="st0" d="M78.92,103.45h204.65v73.73c1.56-1.32,3.1-2.63,4.63-3.93c6.63-5.63,12.89-10.94,19.36-16.13  c1.39-1.12,2.14-2.19,2.21-3.17c0.06-0.91-0.44-1.96-1.52-3.1c-2.43-2.6-5.69-5.84-9.4-7.85c-5.43-2.94-7.57-7-7.16-13.58  c0.3-4.84,0.23-9.83,0.16-14.66c-0.03-2.01-0.06-4.02-0.06-6.03c-0.02-10.21-3.82-14.03-14.03-14.08  c-3.56-0.02-7.13-0.02-10.69-0.02l-12.99,0.01c-5.12,0-11.2-0.01-17.41-0.08c-2.31-0.03-5.57-0.41-7.93-2.1  c-11.8-8.43-23.69-17.14-35.19-25.57c-3.26-2.39-6.52-4.78-9.79-7.17h-3.31c-3.59,2.55-7.18,5.1-10.76,7.66  c-11.04,7.87-22.45,16-33.82,23.82c-2.84,1.96-6.85,3.22-10.45,3.3c-5.95,0.13-11.84,0.14-16.3,0.14c-2.41,0-4.81-0.01-7.22-0.01  c-2.4-0.01-4.8-0.01-7.21-0.01c-4.78,0-8.64,0.02-12.15,0.07c-8.36,0.12-12.45,4.22-12.5,12.55c-0.01,1.76-0.03,3.52-0.05,5.28  c-0.06,6.25-0.13,12.71,0.13,19.02c0.2,4.84-1.56,7.98-5.9,10.51l-0.38,0.22c-4.71,2.74-9.18,5.34-11.39,10.22l26.46,22.93V103.45z  "></path>	<path class="st0" d="M266.16,220.04c2.75,0,15.2,0,15.2,0l19.02-16.02l0.05,4.77c0.04,3.23,0.05,6.64,0.06,9.7  c0.88-0.36,1.79-0.67,2.73-0.93c0,0,5.95-1.6,7.01-1.89c-0.12-18.93-0.51-27.85-0.84-32.04  C296.1,194.82,266.16,220.04,266.16,220.04z"></path>	<polygon class="st0" points="62.28,202.74 62.28,294.99 118.06,251.37  "></polygon>	<path class="st0" d="M322.04,263.3l-0.11-0.11l-0.57,0.57c-2.82,2.82-5.58,5.6-8.34,8.36c-6.84,6.85-13.68,13.69-20.53,20.52  l-0.14,0.14c-0.6,0.6-1.35,1.36-2.35,2.01c-1.37,0.91-2.96,1.39-4.59,1.39c-2.27,0-4.48-0.96-6.07-2.62  c-2.83-2.95-3.16-7.34-0.8-10.67c0.61-0.85,1.28-1.51,1.76-1.99l0.21-0.21c9.81-9.81,19.63-19.63,29.47-29.45  c-0.35-0.34-1.48-1.46-1.48-1.46c-2.05-2.04-4.16-4.15-6.22-6.25c-1.94-1.99-2.93-4.5-2.77-6.95h-8.58c-0.01,0-0.01,0-0.01,0h-9.65  c0,0,0,0-0.01,0c-10.41,0-20.82-0.01-31.24,0c-0.71,0-1.43,0.05-2.13,0.19c-7.05,1.35-11.63,6.97-11.65,14.43  c-0.04,11.57-0.02,23.14-0.02,34.71v5.42c0,9.6-0.01,19.21,0.01,28.82v5.48c0.01,8.69,5.98,14.64,14.71,14.64  c11.72,0.01,23.44,0,35.16,0c11.71,0,23.43,0.01,35.15,0c8.73,0,14.7-5.95,14.71-14.64v-5.48c0.02-9.61,0.01-19.22,0.01-28.82  v-5.42c0-4.07,0-8.14,0.01-12.21c-2.32-0.04-4.56-1.06-6.49-2.96C327.01,268.29,324.55,265.82,322.04,263.3z"></path></g></svg>