<svg xmlns="http://www.w3.org/2000/svg" xmlns:xlink="http://www.w3.org/1999/xlink" id="Layer_1" x="0px" y="0px" viewBox="0 0 400 400" style="enable-background:new 0 0 400 400;" xml:space="preserve"><style type="text/css">	.st0{fill:#322B6A;}</style><path class="st0" d="M217.27,359.95c-18.75-7.44-22.44-13.11-23.03-34.35c-0.03-0.96-0.1-1.85-0.2-2.97 c-0.05-0.57-0.1-1.2-0.16-1.95l-0.35-4.7l-4.71,0.13c-1.78,0.05-3.56,0.07-5.32,0.07c-45.49,0-81.4-15.75-109.77-48.16 c-17.87-20.41-28.79-44.52-32.46-71.65c-4.1-30.3,1.73-60.3,16.86-86.74c14.49-25.33,37.03-45.81,63.46-57.66 c17.39-7.8,36.82-11.92,56.17-11.92c44.09,0,85.21,21.06,112.8,57.79l3.49,4.65l21.51-22.34v59h-58.29l27.48-25.41l-1.94-3.41 c-19.9-35.01-62.25-58.54-105.38-58.54c-13.62,0-27.16,2.27-40.25,6.74C75,79.78,39.87,143.99,55.46,207.89 c13.8,56.54,63.92,96.03,121.89,96.03c4.16,0,8.36-0.22,12.47-0.65l4.43-0.46v-15.02c0-6.52-0.01-13.04-0.01-19.56 c-0.02-14.86-0.03-30.22,0.04-45.33c0.08-17.28,11.19-28.51,28.3-28.61c12.52-0.08,26.09-0.11,42.72-0.11 c9.76,0,19.51,0.01,29.27,0.02c9.76,0.01,19.52,0.02,29.28,0.02h0.38c21.72,0,27.95,3.9,35.78,23.04v120.24 c-3.94,11.32-11.29,18.68-22.44,22.46H217.27z"></path></svg>