<svg xmlns="http://www.w3.org/2000/svg" xmlns:xlink="http://www.w3.org/1999/xlink" id="Layer_1" x="0px" y="0px" viewBox="0 0 400 400" style="enable-background:new 0 0 400 400;" xml:space="preserve"><style type="text/css">	.st0{fill:#322B6A;}</style><g>	<path class="st0" d="M196.77,206.86c41.76-0.03,75.73-34.06,75.6-75.72c-0.12-41.81-34.07-75.62-75.82-75.52  c-41.83,0.1-75.61,33.95-75.56,75.74C121.05,173.13,154.94,206.9,196.77,206.86z"></path>	<path class="st0" d="M193.24,279.56c-0.06-6.04,1.88-11.4,5.82-15.98c5.58-6.48,12.89-8.85,21.88-8.43  c-11.14-10.95-12.66-22.51-4.04-35.44c-0.93-0.13-1.56-0.23-2.19-0.29c-1.07-0.11-2.14-0.23-3.21-0.28  c-28.19-1.26-56,0.99-83.2,8.92c-17.85,5.21-34.8,12.35-49.4,24.15c-11.58,9.36-20.61,20.64-22.63,35.87  c-1.01,7.61-0.48,15.44-0.53,23.17c-0.02,2.67-0.04,5.42,0.52,8.01c2.41,11.23,11.65,18.46,23.53,18.47  c44.37,0.03,88.74,0.01,133.11,0.01c0.94,0,1.88,0,3.2,0c-7.69-12.68-5.88-23.92,4.41-34.08  C202.47,301.42,193.37,293.26,193.24,279.56z"></path>	<path class="st0" d="M340.08,275.87c-0.69-0.01-1.39-0.01-2.08-0.01l-4.29,0.01c-1.29,0-3-0.01-4.78-0.08  c-3.13-0.13-7.07-2.13-8.55-5.71c-1.58-3.82-3.02-7.64-4.55-11.68c-0.49-1.31-3.17-8.34-3.17-8.34l3.33-3.21  c0.77-0.74,1.58-1.52,2.42-2.31l0.11-0.11c2.02-1.92,4.12-3.91,6.15-5.97c1.38-1.4,2.38-3.63,0.66-5.33  c-0.63-0.62-1.33-0.94-2.08-0.94c-1.03,0-2.23,0.59-3.27,1.63c-2.06,2.05-4.05,4.15-6.01,6.22c-0.8,0.85-1.57,1.66-2.31,2.43  l-3.21,3.35l-4.33-1.65c-1.32-0.5-4.14-1.57-4.14-1.57c-4.06-1.53-7.89-2.98-11.68-4.54c-3.6-1.49-5.62-5.41-5.75-8.52  c-0.11-2.49-0.09-4.94-0.08-7.33c0.01-1.29,0.01-2.57,0-3.86c-0.02-1.63-0.47-4.36-3.28-4.38c-2.41,0-3.3,2.33-3.33,4.32  c-0.02,1.29-0.01,2.58,0,3.93c0.02,2.37,0.04,4.81-0.12,7.33c-0.21,3.46-2.72,7.06-5.96,8.55c-2.04,0.94-4.07,1.77-6.04,2.57  c-2.19,0.89-4.26,1.73-6.24,2.68c-1.58,0.76-3.08,1.13-4.59,1.13c-3.94,0-6.29-2.47-7.06-3.28c-2.51-2.63-5.12-5.19-7.56-7.57  c-0.97-0.94-2.06-1.46-3.05-1.46c-0.77,0-1.48,0.32-2.1,0.94c-1.7,1.69-0.88,3.76,0.45,5.13c1,1.03,2.02,2.04,3.09,3.11  c1.63,1.61,3.31,3.28,4.94,5.05c2.15,2.32,3.55,6.51,2.08,10.05c-1.59,3.82-3.25,7.51-5.03,11.46l-1.11,2.47  c-0.76,3.13-3.64,5.38-7.01,5.41c-1.47,0.01-2.95,0.02-4.42,0.02l-0.31,0c-2.49,0.01-4.98,0.02-7.47,0.05  c-1.02,0.02-4.37,0.31-4.38,3.36c-0.01,2.99,3.28,3.25,4.29,3.26c1.61,0.02,3.22,0.02,4.81,0.02c1.33,0,12.3-0.02,12.3-0.02  l10.66,25.69l-3.43,3.31c-0.87,0.84-1.76,1.69-2.68,2.57c-2,1.91-4.07,3.88-6.05,5.88c-1.13,1.14-2.74,3.36-0.76,5.39  c0.61,0.63,1.3,0.95,2.04,0.95c1.08,0,2.34-0.64,3.46-1.75c2.02-2.01,4.03-4.12,6-6.19l0.12-0.12c0.85-0.9,1.69-1.78,2.53-2.65  l3.59-3.73l4.62,2.34c0.94,0.47,1.81,0.93,2.65,1.37c1.62,0.85,3.02,1.58,4.37,2.15c0.8,0.34,1.75,0.65,2.75,0.97  c1.44,0.47,3.08,1,4.73,1.78c3.17,1.49,5.62,5.11,5.81,8.62c0.13,2.35,0.11,4.63,0.1,6.83c-0.01,1.61-0.02,3.12,0.02,4.63  c0.03,0.9,0.35,3.84,3.35,3.85l0.08,0c2.69-0.04,3.14-2.42,3.16-3.84c0.03-1.51,0.02-3.03,0.01-4.54  c-0.01-2.23-0.02-4.54,0.07-6.89c0.12-3.1,1.93-7.14,5.62-8.67c3.91-1.62,7.78-3.07,11.88-4.62c1.28-0.48,2.58-0.97,3.9-1.48  l4.27-1.62c0,0,4.82,4.9,5.67,5.77c1.9,1.94,3.92,4,5.96,6.03c1.12,1.11,2.37,1.75,3.44,1.75c0.74,0,1.43-0.32,2.05-0.96  c1.98-2.02,0.38-4.23-0.75-5.37c-2.06-2.07-4.15-4.08-6.17-6.03c0,0-1.72-1.65-2.48-2.39l-3.32-3.23l1.67-4.32  c0.51-1.32,1.01-2.61,1.49-3.88l0.09-0.23c1.5-3.92,2.92-7.63,4.48-11.32c1.38-3.27,4.97-5.78,8.55-5.96  c1.49-0.08,3.06-0.11,5.1-0.11c0.73,0,2.41,0.01,2.41,0.01c0.77,0,1.53,0.01,2.3,0.01c0.48,0,0.95,0,1.43-0.01  c4.22-0.04,4.21-2.47,4.21-3.27C344.36,276.5,342.03,275.9,340.08,275.87z M279.19,305.44c-14.08,0-25.87-11.46-26.29-25.54  c-0.2-6.88,2.53-13.77,7.5-18.88c5-5.15,11.84-8.11,18.76-8.11c0.28,0,0.57,0,0.85,0.01c14.26,0.49,25.43,12.07,25.43,26.38  C305.43,293.96,293.9,305.44,279.19,305.44z"></path></g></svg>