<svg xmlns="http://www.w3.org/2000/svg" xmlns:xlink="http://www.w3.org/1999/xlink" id="Layer_1" x="0px" y="0px" viewBox="0 0 400 400" style="enable-background:new 0 0 400 400;" xml:space="preserve"><style type="text/css">	.st0{fill:#322B6A;}</style><g>	<path class="st0" d="M150.49,163.52c0.27,0.08,0.53,0.12,0.77,0.12c0.46,0,1.2-0.12,2.23-1.16c2.48-2.49,4.96-4.97,7.44-7.45  c3.42-3.42,6.84-6.84,10.25-10.27c0.04-0.07,0.1-0.22,0.14-0.32c0.07-0.18,0.15-0.36,0.23-0.52l0.96-1.9l1.59,1.41  c6.56,5.82,13.68,9.15,21.75,10.18c1.06,0.14,2.32,0.73,2.31,2.81c-0.01,1.8-0.01,3.61-0.01,5.41c0,1.28,0,2.55,0,3.82  c0,0.33-0.05,0.61-0.1,0.86c-0.02,0.09-0.03,0.18-0.05,0.28l-0.2,1.41l-7.59,0c-2.04,0-4.08,0-6.11,0.01  c-0.53,0-1.15,0.02-1.7,0.12c-1.13,0.21-1.97,1.09-2.14,2.24c-0.15,1.05,0.43,2.17,1.42,2.71c0.2,0.11,0.39,0.22,0.59,0.33h37.11  c0.2-0.11,0.4-0.21,0.6-0.34c1.05-0.66,1.48-1.45,1.39-2.55c-0.09-1.16-0.63-1.88-1.68-2.26c-0.43-0.16-1.01-0.24-1.78-0.24  c-1.82-0.02-3.64-0.02-5.46-0.02l-5.89,0c-0.32,0-0.65-0.02-1.01-0.04c-0.16-0.01-0.32-0.02-0.5-0.03l-1.56-0.07l0-3.89  c0-1.87-0.01-3.69,0.01-5.52c0-0.24-0.01-0.49-0.02-0.75c-0.05-1.02-0.12-2.3,0.6-3.31c0.73-1.03,2.02-1.12,3.05-1.2  c0.31-0.02,0.6-0.04,0.81-0.08l0.1-0.02c9.33-1.84,17.08-6.43,23.01-13.64c5.65-6.86,8.62-14.68,8.84-23.25  c0.11-4.27,0.11-8.63,0.11-12.85c0-1.78,0-3.56,0.01-5.34c0-0.3-0.04-0.63-0.08-0.88c-0.16-1.08-0.94-1.92-1.99-2.16  c-0.22-0.05-0.45-0.08-0.67-0.08c-1.5,0-2.6,1.16-2.61,2.77c-0.02,2.66-0.01,5.31-0.01,7.97c0.01,2.79,0.01,5.67-0.01,8.51  c-0.09,10.86-4.25,19.78-12.36,26.51c-6.02,5-13.62,7.75-21.41,7.75c-6.71,0-13.23-1.99-18.88-5.76c-0.88-0.59-1.67-1.22-2.44-1.83  c-0.32-0.25-0.63-0.5-0.93-0.73l-1.49-1.14l7.43-7.46l1.14,0.86c0,0,1.09,0.82,1.49,1.12c3.82,2.85,8.67,4.42,13.67,4.42  c0,0,0,0,0,0c4.26,0,8.33-1.13,11.76-3.26c7.53-4.68,11.4-11.59,11.5-20.54c0.07-5.94,0.04-12,0.01-17.85l-0.01-2.6  c-0.01-1.4,0.44-2.5,1.41-3.46c7.29-7.25,14.68-14.64,21.83-21.79l4.4-4.4c0.3-0.3,0.58-0.57,0.79-0.85  c0.56-0.73,0.73-1.62,0.46-2.45c-0.26-0.83-0.92-1.46-1.79-1.73c-0.29-0.09-0.57-0.13-0.83-0.13c-0.46,0-1.2,0.12-2.25,1.17  c-5.44,5.46-10.89,10.91-16.35,16.35l-3.69,3.69c-0.22,0.22-0.44,0.42-0.72,0.68l-0.47,0.44l-2.76,2.58l0-4.71c0-0.64,0-1.2,0-1.76  l0-1.24c0-3.56-0.01-6.92-0.89-10.24c-2.61-9.84-12.12-16.98-22.6-16.98c-2.5,0-4.93,0.42-7.24,1.25  c-9.94,3.56-15.89,12-15.91,22.58c-0.02,13.66-0.02,27.6,0.01,41.44c0,1.36,0.04,2.94,0.37,4.32c0.46,1.87,1.06,3.76,1.63,5.57  c0.24,0.77,0.48,1.52,0.71,2.28l0.29,0.94l-7.11,7.1l-1.11-1.66c-2.06-3.08-3.36-6-3.96-8.94c-0.73-3.56-1.17-7.01-1.3-10.25  c-0.13-3.44-0.11-6.92-0.08-10.29c0.01-1.84,0.03-3.75,0.01-5.61c-0.01-1.39-0.88-2.4-2.28-2.62c-0.14-0.02-0.28-0.03-0.42-0.03  c-1.1,0-2.07,0.68-2.42,1.68c-0.14,0.41-0.22,0.95-0.22,1.55c-0.02,5.04-0.04,10.46-0.01,15.96c0.03,5.71,0.93,10.52,2.75,14.69  c0.88,2.03,1.9,4,2.98,6.09c0.5,0.97,1.01,1.95,1.52,2.97l0.59,1.18l-1.03,0.83c-0.04,0.04-0.11,0.08-0.19,0.14  c-0.14,0.1-0.36,0.26-0.51,0.42c-5.92,5.91-11.83,11.82-17.74,17.74l-0.14,0.14c-0.28,0.28-0.54,0.54-0.74,0.8  c-0.57,0.74-0.74,1.65-0.46,2.49C148.92,162.63,149.59,163.26,150.49,163.52z"></path>	<path class="st0" d="M175.26,265.04c-7.31-7.31-11.07-15.99-11.61-26.18c-1.06,0-1.86,0-2.67,0c-8.75,0-17.5-0.09-26.24,0.02  c-18.35,0.23-33.33,12.13-37.84,29.92c-0.43,1.69-0.78,3.4-1.16,5.1c0,12.08,0,24.15,0,36.23c15.07,4.75,30.39,8.09,46.51,8.95  c-0.71-11.8,0.14-23.03,6.39-33.22C154.88,275.69,163.7,268.85,175.26,265.04z"></path>	<path class="st0" d="M253.62,322.83c0-1.76,0-3.53,0-5.29c0-6.3,0.13-12.58-1.54-18.77c-4-14.9-18.64-27.42-33.84-28.08  c-10.69-0.46-21.43-0.54-32.12-0.06c-20.21,0.89-36.2,17.55-36.64,37.78c-0.21,9.76-0.06,19.53-0.07,29.29c0,4.06,0,4.04,3.89,5.21  c24.19,7.28,48.74,10.26,73.88,6.28c8.39-1.33,16.56-3.45,24.33-6.96c1.55-0.7,2.21-1.52,2.16-3.33  C253.53,333.55,253.62,328.19,253.62,322.83z"></path>	<path class="st0" d="M304,275.53c-0.88-19.97-17.74-36.17-37.71-36.6c-8.54-0.18-17.09-0.05-25.64-0.06  c-0.39,0-0.79,0.07-1.37,0.13c-0.42,10.12-4.33,18.74-11.51,26.04c0.78,0.3,1.27,0.51,1.77,0.68  c17.88,6.23,30.07,22.19,31.17,41.03c0.24,4.1,0.04,8.24,0.04,13.15c8.58-1.28,16.63-2.07,24.47-3.8  c6.03-1.33,11.81-3.84,17.66-5.92c0.56-0.2,1.24-1.11,1.24-1.69C304.16,297.5,304.48,286.49,304,275.53z"></path>	<path class="st0" d="M201.45,207.17c-16.85,0.04-30.47,13.7-30.48,30.56c-0.01,16.9,13.53,30.47,30.45,30.53  c16.91,0.06,30.72-13.73,30.65-30.6C232.01,220.86,218.22,207.13,201.45,207.17z"></path>	<path class="st0" d="M162.43,232.97c1.18-0.64,1.82-1.4,2.08-2.71c1.53-7.91,5.23-14.73,11.26-19.98c2.45-2.14,2.9-4.28,2.53-7.07  c-0.13-0.94-0.25-1.88-0.42-2.81c-2.91-15.51-17.21-26.05-33.35-24.59c-15.19,1.37-27.23,14.83-27.21,30.41  C117.34,229.37,142.09,244.03,162.43,232.97z"></path>	<path class="st0" d="M221.62,203.67c-0.09,1.05-0.27,2,0.92,2.82c9.21,6.29,14.62,15.01,16.46,26.01c0.12,0.72,0.92,1.61,1.62,1.91  c19.72,8.42,41.96-6.56,41.97-28.21c0.01-16.85-13.6-30.48-30.49-30.54C236.23,175.61,222.91,187.85,221.62,203.67z"></path></g></svg>