<svg xmlns="http://www.w3.org/2000/svg" xmlns:xlink="http://www.w3.org/1999/xlink" id="Layer_1" x="0px" y="0px" viewBox="0 0 400 400" style="enable-background:new 0 0 400 400;" xml:space="preserve"><style type="text/css">	.st0{fill:#322B6A;}</style><g>	<path class="st0" d="M302.11,212.15c-0.68-0.07-1.38-0.1-2.07-0.1c-8.41,0-16.16,4.98-19.29,12.38c-1.5,3.55-2.12,7.37-2.72,11.07  c-0.25,1.57-0.52,3.19-0.84,4.73l-0.47,2.22l1.21,0.33c0.02,0.52,0.03,1.04,0.05,1.55c0.07,2.49,0.14,5.06,0.57,7.62  c1.76,10.44,10.34,17.85,21.35,18.44c0.36,0.02,0.72,0.03,1.08,0.03c9.77,0,18.58-6.75,20.93-16.05c2.09-8.27,2.13-17.26,0.1-26  C319.89,219.26,312.46,213.2,302.11,212.15z"></path>	<path class="st0" d="M222.51,238.88c0.02-1.66,0.05-3.38-0.04-5.11c-0.66-12.22-10.24-21.58-22.27-21.78l-0.37,0  c-11.91,0-21.69,9.58-22.27,21.8c-0.22,4.69-0.23,9.62-0.01,14.65c0.52,12.32,10.39,21.97,22.45,21.97  c12.21,0,21.87-9.44,22.48-21.95c0.08-1.72,0.06-3.43,0.04-5.09c-0.01-0.75-0.02-1.5-0.02-2.25v-1.4  C222.5,239.44,222.51,239.16,222.51,238.88z"></path>	<path class="st0" d="M121.57,231.04c-1.6-10.69-10.47-18.51-21.56-19.03c-0.31-0.01-0.63-0.02-0.94-0.02  c-10.35,0-19.63,7.45-21.11,16.95c-1.2,7.68-1.22,16.11-0.04,24.38c1.27,8.94,9.07,15.72,19.42,16.87c0.83,0.09,1.67,0.14,2.5,0.14  c8.63,0,16.27-4.87,19.46-12.41c1.5-3.55,2.11-7.38,2.69-11.09c0.25-1.57,0.5-3.2,0.82-4.74l0.47-2.25l-1.21-0.31  c-0.01-0.44-0.02-0.87-0.03-1.31C121.98,235.88,121.93,233.46,121.57,231.04z"></path>	<path class="st0" d="M349.85,307.27c-0.08-1.95-1.36-4.24-2.98-5.35c-10.85-7.37-21.97-14.79-33.99-22.66  c-1.49-0.98-3.29-1-4.75-1.01l-0.25,0c-2.73-0.04-5.44-0.06-8.05-0.06c-2.22,0-4.44,0.01-6.66,0.05c-1.44,0.02-3.41,0.05-4.98,1.07  c-5.26,3.42-10.56,6.95-15.69,10.36c-4.11,2.73-8.21,5.46-12.34,8.17c-2.45,1.61-2.66,3.6-2.52,5.5c0.3,4.03,0.37,7.94,0.19,11.63  c-0.11,2.45-1.86,4.22-4.16,4.22l-0.1,0c-2.32-0.05-3.95-1.82-4.15-4.52l-0.03-0.36c-0.03-0.34-0.06-0.73-0.03-0.9  c1.52-8.12-3.22-12.15-7.53-14.75c-6.04-3.65-12.02-7.69-17.8-11.6c-3.58-2.42-7.29-4.93-10.98-7.32  c-1.79-1.16-4.06-1.33-6.04-1.39c-3.04-0.1-6.3-0.15-9.97-0.15c-1.49,0-2.98,0.01-4.47,0.02c-1.73,0.02-3.54,0.16-4.99,1.12  c-5.94,3.9-11.95,7.9-17.77,11.76c-5.24,3.49-10.66,7.09-16,10.6c-2.35,1.54-3.37,3.53-3.22,6.25c0.12,2.23,0.11,4.56-0.04,6.93  c-0.16,2.5-1.91,4.31-4.15,4.31c-2.42-0.04-4.14-1.85-4.25-4.41c-0.12-3.03-0.1-6.1-0.07-9.36c0.01-1.49,0.03-3.02,0.03-4.61v-1.19  l-0.94-0.72c-0.23-0.19-0.83-0.69-1.49-1.13l-5.27-3.52c-7.26-4.86-14.77-9.88-22.22-14.72c-1.65-1.07-3.72-1.2-5.52-1.24  c-2.26-0.05-4.65-0.07-7.1-0.07c-2.33,0-4.72,0.02-7.32,0.06l-0.16,0c-1.57,0.02-3.52,0.05-5.11,1.09  c-12.08,7.9-23.11,15.26-33.73,22.5c-1.66,1.13-2.98,3.54-3.08,5.59c-0.22,4.96-0.23,10.05-0.01,15.59  c0.08,1.97,1.24,4.22,2.77,5.37c8.31,6.2,18.09,9.08,30.77,9.08h0.19c29.26-0.06,61.09-0.09,100.18-0.09  c22.02,0,44.04,0.01,66.06,0.02l40.49,0.01c0.86,0,1.8,0.03,2.74,0.12h27.85c1.01-0.15,2.02-0.27,3.09-0.39  c1.31-0.15,2.67-0.3,4.03-0.52c6.59-1.07,12.79-3.79,18.95-8.32c1.63-1.2,2.54-3.51,2.59-5.18  C350.05,317.39,350.05,312.2,349.85,307.27z"></path>	<path class="st0" d="M68.56,178.94l1.18,0c0.83,0,4.12-0.02,4.94-0.02c1.07,0,2.15,0.01,3.22,0.03c4.08,0.09,5.54,1.55,5.59,5.6  c0.02,1.72,0.02,3.44,0.01,5.44l-0.01,3.26v4.86l3.42-3.45c1.4-1.41,2.75-2.75,4.06-4.06c2.95-2.94,5.73-5.71,8.4-8.58  c2.04-2.2,4.29-3.13,7.52-3.13c8.18,0.04,17.08,0.06,28.09,0.06c4.42,0,20.59-0.01,26.88-0.01v-0.01c0.32,0,0.63,0.01,0.93,0.01  c1.02,0,1.61,0,1.61,0c7.02,0,9.13-1.69,10.74-8.57c0.09-0.4,0.22-0.76,0.37-1.1c0-0.17,0.02-0.33,0.02-0.5  c0.01-6.45,0-12.89,0-19.34c-3.84,3.9-7.68,7.54-11.13,10.76c-1.21,1.12-3.27,1.98-4.79,2c-3.04,0-3.35-3.69-3.37-4.82  c-0.07-3.32-0.05-6.71-0.04-9.99c0.01-1.44,0.01-2.88,0.01-4.32v-5.75l-2.09,0.1c-1.31,0.06-2.38,0.09-3.39,0.09  c-4.77,0-10.23-0.59-14.55-4.95c-4.62-4.67-5.26-10.45-4.8-17.69l0.13-2.01l-2-0.12c-0.43-0.03-0.81-0.05-1.18-0.08  c-0.76-0.06-1.42-0.1-2.11-0.1c-11.17-0.01-22.34-0.01-33.51-0.01c-7.97,0-15.94,0-23.91,0.01c-7.23,0-10.32,3.07-10.33,10.24  c-0.02,15.33-0.02,30.66,0,45.99C58.48,175.76,61.59,178.9,68.56,178.94z"></path>	<path class="st0" d="M148.91,128.97c1.14,0.02,2.29,0.03,3.43,0.03c0.86,0,4.27-0.01,5.12-0.01l1.42,0  c4.4,0.03,5.83,1.45,5.89,5.87c0.03,1.7,0.02,3.41,0.01,5.11l-0.01,3.62l3.17,1.38l0.96-0.98c1.17-1.19,2.35-2.37,3.52-3.54  c1.02-1.02,11.54-10.83,11.54-10.83c1.16-0.47,2.47-0.69,4.02-0.69c8.34,0.05,17.06,0.07,28.36,0.07c5.33,0,29.44-0.02,29.44-0.02  c7.41,0,10.43-3.02,10.44-10.43c0-12.28,0-24.57,0-36.85l0-8.24c0-8.13-2.9-11.01-11.07-11.01l-94.29,0l-1.28-0.01  c-0.41,0-0.82,0.01-1.22,0.04c-5.54,0.43-8.6,3.68-8.62,9.14c-0.05,17.37-0.05,33.18,0,48.33  C139.79,125.58,143.12,128.87,148.91,128.97z"></path>	<path class="st0" d="M237.97,137.47c-2.41,0-4.82-0.01-7.25-0.01c-2.46-0.01-4.93-0.01-7.42-0.01h-2v2c0,0.81-0.05,1.64-0.09,2.44  c-0.11,2-0.23,4.07,0.34,6.05c0.53,1.84,2.19,3.61,4.93,5.27c1.19,0.72,2.61,0.82,3.83,0.82c0.26,0,1.24-0.02,1.46-0.02l5.48,0.01  c8.28,0.01,16.55,0.02,24.83,0.02c10.47,0,19.2-0.02,27.45-0.06c2.96,0,4.97,0.84,6.82,2.81c2.74,2.93,5.59,5.77,8.61,8.78  c1.33,1.32,2.69,2.69,4.1,4.11l3.42,3.45l0-8.06c0-1.95-0.01-3.66,0.01-5.37c0.04-4.3,1.38-5.63,5.73-5.67  c0.65-0.01,1.3-0.01,1.94-0.01c0.78,0,3.93,0.01,4.72,0.01c1,0,2.01-0.01,3.01-0.02c6.26-0.12,9.58-3.4,9.6-9.5  c0.06-15.24,0.06-31.21,0-47.47c-0.02-6.33-3.34-9.54-9.85-9.55c-4.46-0.01-8.91-0.01-13.37-0.01h-5.96  c-3.15,0-6.31-0.01-9.46-0.01v0.06h-34.14c0.04,10.86,0,21.67-0.05,32.04c-0.05,10.9-6.88,17.74-17.8,17.85  C243.91,137.46,240.95,137.47,237.97,137.47z"></path></g></svg>