<svg xmlns="http://www.w3.org/2000/svg" xmlns:xlink="http://www.w3.org/1999/xlink" id="Layer_1" x="0px" y="0px" viewBox="0 0 400 400" style="enable-background:new 0 0 400 400;" xml:space="preserve"><style type="text/css">	.st0{fill:#322B6A;}</style><g>	<path class="st0" d="M75.01,134.79l1.21-5.2c1.53-6.55,4.7-11.85,9.7-16.19c1.21-1.05,1.96-2.87,1.89-4.52  c-0.09-1.96-0.26-3.93-0.42-5.84c-0.3-3.53-0.58-6.87-0.41-10.18c0.44-8.26,6.93-14.53,15.78-15.25c0.51-0.04,1.02-0.06,1.52-0.06  c8.21,0,15.07,5.28,16.32,12.56c0.65,3.79,0.45,7.78,0.23,12.01c-0.1,2.07-0.21,4.22-0.21,6.35c0,2.29,0.55,3.89,1.69,4.89  c4.99,4.39,8.18,9.78,9.75,16.46l1.25,5.35l3.82-3.94c6.97-7.19,10.65-17.17,10.34-28.09c-0.34-12.21-5.62-23.91-14.5-32.11  c-7.75-7.16-17.91-11.1-28.61-11.1c-12.76,0-24.87,5.57-33.24,15.28c-16.74,19.44-10.59,45.36,0.06,55.84L75.01,134.79z"></path>	<path class="st0" d="M115.93,97.33c0.02-1.12,0.05-2.28-0.05-3.48c-0.53-6.15-5.59-10.8-11.78-10.8l-0.17,0  c-6.19,0.08-11.16,4.75-11.56,10.86c-0.2,3.07-0.19,6.2,0.02,9.33c0.42,6.27,5.17,10.69,11.55,10.76l0.15,0  c6.38,0,11.21-4.4,11.77-10.7c0.1-1.15,0.07-2.24,0.05-3.29c0-0.11,0-0.21-0.01-0.32l0.01-0.97  C115.91,98.26,115.92,97.8,115.93,97.33z"></path>	<path class="st0" d="M81.2,136.21c0,3.01,1.28,5.06,3.89,6.28c6.06,2.82,12.38,4.3,18.79,4.37c6.95-0.01,13.49-1.55,19.46-4.57  c1.24-0.62,3.38-2.3,3.54-4.61c0.56-8.12-2.12-14.76-7.97-19.72c-1.14-0.97-2.64-1.11-3.43-1.11c-0.66,0-1.64,0.1-2.55,0.55  c-3,1.5-5.88,2.23-8.82,2.23c-2.9,0-5.77-0.71-8.77-2.17c-0.7-0.34-1.51-0.51-2.42-0.51c-1.56,0-3.06,0.5-4.01,1.35  C83.8,122.85,81.2,128.87,81.2,136.21z"></path>	<path class="st0" d="M119.31,310.12c-1.38-1.21-3.26-1.35-4-1.35c-0.91,0-1.73,0.17-2.43,0.51c-2.99,1.46-5.94,2.2-8.77,2.2  c-2.83,0-5.67-0.74-8.45-2.21c-1.07-0.57-2.05-0.84-3.01-0.84c-2.12,0-3.51,1.35-3.97,1.79c-4.6,4.44-7.03,9.77-7.44,16.3  c-0.29,4.59,1.57,7.46,5.52,8.51c3.85,1.03,7.71,2.05,11.57,3.07l7.61,2.01l0.43-1.54c6.36-0.36,11.9-1.8,16.89-4.38  c1.27-0.66,3.47-2.41,3.64-4.81C127.44,321.65,124.82,314.99,119.31,310.12z"></path>	<path class="st0" d="M115.93,289.17c0.02-1.12,0.05-2.27-0.05-3.48c-0.52-6.17-5.58-10.82-11.78-10.82l-0.15,0  c-6.2,0.07-11.18,4.73-11.58,10.84c-0.2,3.04-0.2,6.18,0.01,9.33c0.42,6.27,5.16,10.7,11.53,10.78l0.17,0  c6.37,0,11.21-4.39,11.77-10.68c0.1-1.15,0.08-2.24,0.05-3.3c0-0.08,0-0.15-0.01-0.23l0.01-1.06  C115.91,290.09,115.92,289.63,115.93,289.17z"></path>	<path class="st0" d="M104.16,251.72c-1.3,0-2.62,0.06-3.92,0.17c-18.44,1.62-33.86,15.15-38.36,33.65  c-3.68,15.12,2.02,31.55,9.65,37.41l3.69,2.83l1.06-4.53c1.49-6.4,4.62-11.63,9.55-15.97c1.41-1.24,1.98-3.26,1.93-4.71  c-0.08-2-0.24-4.01-0.39-5.95c-0.29-3.6-0.56-6.99-0.33-10.34c0.56-8,7.23-14.26,15.86-14.87c0.46-0.03,0.91-0.05,1.36-0.05  c8.2,0,15.07,5.23,16.33,12.44c0.66,3.77,0.47,7.75,0.28,11.97c-0.1,2.09-0.2,4.25-0.19,6.39c0.01,2.39,0.58,4.05,1.74,5.09  c4.95,4.42,8.09,9.74,9.61,16.26l1.16,4.98l3.78-3.44c10.71-9.76,13.65-29.69,6.68-45.38C136.53,261.67,121.4,251.72,104.16,251.72  z"></path>	<path class="st0" d="M311.25,310.11c-1.19-1.13-2.45-1.68-3.84-1.68c-1.26,0-2.34,0.48-3.13,0.89c-2.79,1.45-5.61,2.19-8.38,2.19  c-2.8,0-5.64-0.75-8.45-2.23c-1.09-0.57-2.04-0.84-3.02-0.84c-2.09,0-3.49,1.32-3.95,1.76c-5.38,5.1-7.86,11.49-7.35,19.01  c0.14,2.09,1.87,4.05,3.5,4.91c5.54,2.9,11.83,4.39,19.23,4.54h0.11c7.26-0.13,13.48-1.59,19.04-4.46c1.28-0.66,3.48-2.41,3.65-4.8  C319.22,321.77,316.72,315.29,311.25,310.11z"></path>	<path class="st0" d="M307.71,289.14c0.02-1.12,0.05-2.27-0.05-3.48c-0.52-6.07-5.5-10.71-11.59-10.78l-0.16,0  c-6.3,0-11.36,4.67-11.76,10.87c-0.2,3.06-0.19,6.2,0.02,9.33c0.43,6.26,5.18,10.68,11.56,10.75l0.14,0  c6.38,0,11.22-4.41,11.77-10.72c0.1-1.14,0.07-2.23,0.05-3.29c0-0.14-0.01-0.28-0.01-0.42l0-0.87  C307.69,290.06,307.7,289.6,307.71,289.14z"></path>	<path class="st0" d="M328.16,266.37c-8.14-9.31-19.96-14.64-32.44-14.64c-10.89,0-21.17,4.04-28.96,11.37  c-17.2,16.19-19,43.62-3.92,59.88l3.84,4.15l1.28-5.51c1.56-6.71,4.76-12.08,9.77-16.44c1.36-1.18,1.91-3.13,1.84-4.54  c-0.09-1.93-0.26-3.87-0.42-5.75c-0.3-3.47-0.58-6.75-0.42-10c0.4-8.41,6.92-14.78,15.85-15.47c0.49-0.04,0.99-0.06,1.48-0.06  c8.2,0,15.07,5.31,16.33,12.62c0.65,3.77,0.46,7.73,0.26,11.93c-0.1,2.01-0.2,4.08-0.2,6.14l0,0.35c-0.02,1.32-0.05,3.32,1.47,4.63  c5.08,4.41,8.31,9.77,9.88,16.41l1.23,5.2l3.8-3.76C341.47,310.41,344.21,284.72,328.16,266.37z"></path>	<path class="st0" d="M272.98,136.29c0,2.94,1.29,4.98,3.94,6.25c5.65,2.7,11.97,4.15,18.77,4.3h0.11  c7.45-0.11,13.82-1.61,19.47-4.59c1.56-0.82,3.29-2.84,3.42-4.95c0.47-7.41-1.96-13.72-7.2-18.76c-0.85-0.82-2.21-1.91-4.15-1.91  c-0.98,0-1.98,0.28-3.06,0.85c-2.78,1.48-5.6,2.22-8.37,2.22c-2.79,0-5.62-0.76-8.4-2.24c-1.06-0.57-2.05-0.84-3.03-0.84  c-1.92,0-3.25,1.05-4.19,1.96C275.44,123.26,272.99,129.22,272.98,136.29z"></path>	<path class="st0" d="M307.74,97.18c0.01-0.9,0.03-1.83-0.03-2.8c-0.39-6.44-5.45-11.31-11.77-11.33h-0.04  c-6.39,0-11.46,4.86-11.79,11.3c-0.14,2.78-0.14,5.6,0.01,8.38c0.35,6.62,5.18,11.25,11.74,11.26c6.54,0,11.39-4.59,11.82-11.16  c0.07-1.11,0.05-2.18,0.04-3.21c0,0,0-1.31,0-1.31C307.72,97.94,307.73,97.56,307.74,97.18z"></path>	<path class="st0" d="M266.7,135.28l1.27-5.5c1.55-6.69,4.75-12.06,9.77-16.43c1.36-1.18,1.9-3.13,1.83-4.54  c-0.09-1.93-0.25-3.87-0.41-5.74c-0.3-3.47-0.58-6.75-0.42-10c0.41-8.42,6.93-14.78,15.85-15.47c0.49-0.04,0.98-0.06,1.47-0.06  c8.21,0,15.09,5.31,16.34,12.62c0.65,3.77,0.46,7.73,0.25,11.93c-0.1,2.01-0.2,4.08-0.2,6.15l0,0.33  c-0.02,1.33-0.04,3.33,1.48,4.65c5.07,4.39,8.3,9.76,9.87,16.41l1.24,5.21l3.8-3.78c12.69-12.62,15.36-38.44-0.9-56.77  c-8.13-9.17-19.86-14.42-32.18-14.42c-10.99,0-21.37,4.13-29.24,11.62c-17.02,16.21-18.7,43.53-3.68,59.65L266.7,135.28z"></path>	<path class="st0" d="M284.54,242.51c1.3-0.25,1.85-0.68,2.35-1.8c12.35-27.42,12.37-55.25,0.04-82.7c-0.5-1.11-1.08-1.53-2.71-1.94  c-21.73-5.54-35.52-19.36-40.98-41.05c-0.43-1.69-0.95-2.18-2.02-2.68c-12.7-5.97-26.25-9.06-40.26-9.2  c-14.95,0.03-29.51,3.2-42.1,9.16c-1.33,0.63-1.79,1.2-2.06,2.55c-4.04,20.27-21.04,37.25-41.34,41.29  c-1.3,0.26-1.85,0.68-2.36,1.81c-12.36,27.41-12.37,55.23-0.02,82.69c0.53,1.18,1.07,1.62,2.31,1.86  c20.31,4,37.34,20.95,41.4,41.23c0.32,1.59,0.84,2.06,1.97,2.57c13.72,6.15,27.6,9.26,41.27,9.26c13.64,0,27.49-3.1,41.15-9.23  c1.31-0.58,1.74-1.13,2.01-2.52C247.14,263.81,264.52,246.44,284.54,242.51z M231.49,252.92c-0.22,0.84-1.16,1.72-1.98,2.13  c-19.61,9.81-39.26,9.77-58.86,0c-0.89-0.44-1.94-1.61-2-2.49c-0.84-12.36,3.27-22.58,13.48-30.24c12.07,7.38,23.8,7.38,35.56,0.2  C226.94,227.71,234.03,243.17,231.49,252.92z M185.9,183.53c0.84-7.16,7.02-11.86,14.42-11.76c7.17,0.1,12.89,4.85,13.98,11.88  c0.44,2.83,0.41,5.73,0.57,8.18c-0.15,2.79-0.13,5.17-0.43,7.49c-1.03,7.79-6.69,12.7-14.44,12.68  c-7.74-0.02-13.57-4.95-14.26-12.81C185.27,194.01,185.29,188.69,185.9,183.53z M229.27,210.97c-0.67-0.55-0.82-2.32-0.54-3.34  c2.69-9.85,2.69-19.82,0.37-29.6c-3.31-13.98-16.38-22.9-31.05-21.92c-14.89,0.99-26.48,11.69-27.93,26.22  c-0.86,8.61-1.38,17.28,1.39,25.76c0.29,0.88-0.3,2.55-1.04,3.18c-9.17,7.77-14.84,17.54-17.18,29.7  c-19.43-19.78-24.36-58.74,1.62-85.56c24.86-25.66,66.51-25.52,90.49,0.31c24.81,26.73,21.66,65.16,1.46,85.14  C244.42,228.76,238.74,218.76,229.27,210.97z"></path></g></svg>