<svg xmlns="http://www.w3.org/2000/svg" xmlns:xlink="http://www.w3.org/1999/xlink" id="Layer_1" x="0px" y="0px" viewBox="0 0 400 400" style="enable-background:new 0 0 400 400;" xml:space="preserve"><style type="text/css">	.st0{fill:#322B6A;}</style><g>	<path class="st0" d="M147.37,112.15c-24.43,0.02-44.43,20.06-44.41,44.53c0.02,24.48,20.02,44.52,44.44,44.5  c24.43-0.02,44.43-20.06,44.41-44.53C191.79,132.17,171.78,112.14,147.37,112.15z M147.25,184.47  c-15.36-0.14-27.81-12.75-27.62-27.99c0.19-15.38,12.69-27.76,27.88-27.62c15.36,0.14,27.81,12.75,27.62,27.99  C174.94,172.23,162.44,184.61,147.25,184.47z"></path>	<path class="st0" d="M284,186.14c-1.77,0-3.24,1.5-3.2,3.28c0.04,1.73,1.52,3.16,3.24,3.13c1.73-0.03,3.16-1.49,3.15-3.22  C287.18,187.6,285.73,186.15,284,186.14z"></path>	<path class="st0" d="M271.23,186.14c-1.73-0.02-3.2,1.4-3.24,3.13c-0.04,1.77,1.44,3.28,3.21,3.28c1.73,0,3.18-1.45,3.19-3.19  C274.4,187.64,272.96,186.17,271.23,186.14z"></path>	<path class="st0" d="M296.79,186.14c-1.73,0.01-3.18,1.45-3.18,3.19c-0.01,1.78,1.49,3.26,3.26,3.22c1.73-0.04,3.16-1.51,3.13-3.24  C299.98,187.58,298.52,186.14,296.79,186.14z"></path>	<g>		<path class="st0" d="M231.33,289.05c-1.66-0.36-2.89,0.39-3.86,1.57c1.7,1.7,3.37,3.36,5.06,5.06c1.25-0.97,1.93-2.28,1.55-3.95   C233.74,290.29,232.77,289.37,231.33,289.05z"></path>		<path class="st0" d="M221.48,296.54c-3.65,3.66-7.29,7.34-11,10.94c-1.14,1.1-1.94,2.29-2.31,3.84c-0.38,1.59-0.92,3.15-1.44,4.87   c2.26-0.63,4.37-1.18,6.46-1.81c0.52-0.16,1.05-0.44,1.44-0.82c3.22-3.16,6.4-6.36,9.59-9.55c1.02-1.02,2.05-2.03,3.01-2.98   c-1.72-1.72-3.39-3.39-5.25-5.26C221.84,295.98,221.71,296.31,221.48,296.54z"></path>		<path class="st0" d="M200,50c-82.84,0-150,67.16-150,150c0,82.84,67.16,150,150,150c82.84,0,150-67.16,150-150   C350,117.16,282.84,50,200,50z M150.64,212.29c-2.17,0-4.34,0-6.51,0c-0.28-0.06-0.56-0.16-0.84-0.18   c-8.65-0.6-16.77-3.04-24.14-7.59c-16.85-10.41-25.98-25.61-27.2-45.41c-0.56-9.07,1.18-17.83,5.17-26.01   c8.36-17.09,21.91-27.52,40.58-31.17c2.12-0.41,4.28-0.59,6.42-0.88c2.17,0,4.34,0,6.51,0c0.28,0.06,0.56,0.16,0.84,0.18   c6.81,0.45,13.35,2.08,19.46,5.1c17.03,8.4,27.45,21.97,31.09,40.67c0.41,2.12,0.59,4.28,0.88,6.42c0,2.17,0,4.35,0,6.52   c-0.06,0.31-0.16,0.62-0.18,0.94c-0.46,6.79-2.08,13.3-5.07,19.39c-8.38,17.07-21.92,27.5-40.58,31.16   C154.94,211.82,152.78,212,150.64,212.29z M187.46,324.14c-0.45,0.37-1.01,0.61-1.52,0.9c-4.81,0-9.62,0-14.43,0   c-0.26-0.06-0.51-0.15-0.77-0.19c-5.91-0.87-11.06-5.87-11.84-11.76c-0.33-2.52-0.26-5.09-0.26-7.64   c-0.02-19.26,0.04-38.52-0.04-57.78c-0.03-7.72,5.26-13.48,11.69-14.73c0.41-0.08,0.81-0.18,1.21-0.27c15.82,0,31.64,0,47.45,0   c0.41,0.09,0.81,0.19,1.22,0.27c6.9,1.41,11.58,7.1,11.66,14.37c0.07,7.21,0.03,14.43,0.01,21.65c0,1.93-0.92,3.26-2.5,3.75   c-1.49,0.47-3.2,0.01-3.96-1.33c-0.46-0.81-0.7-1.86-0.71-2.81c-0.06-6.94-0.05-13.89-0.02-20.83c0.01-2.56-0.78-4.71-2.83-6.33   c-1.33-1.04-2.86-1.52-4.53-1.52c-14.7-0.01-29.41-0.03-44.11,0.01c-4.08,0.01-7.01,2.87-7.3,6.95c-0.02,0.33-0.03,0.66-0.03,0.99   c0,20.68,0.01,41.37-0.01,62.05c0,3.2,1.14,5.72,4.08,7.13c1.07,0.51,2.36,0.73,3.56,0.76c3.85,0.09,7.7,0.02,11.55,0.04   c1.67,0.01,2.94,0.91,3.48,2.38C189,321.61,188.61,323.19,187.46,324.14z M200.82,275.97c-1.86,0-3.73,0-5.59,0   c-6.13,0-12.26,0.01-18.4-0.01c-2.43-0.01-4.05-1.84-3.73-4.15c0.21-1.58,1.5-2.83,3.13-3.03c0.21-0.03,0.42-0.03,0.63-0.03   c12.23,0,24.47-0.01,36.7,0c2.19,0,3.76,1.45,3.82,3.48c0.07,2.11-1.52,3.71-3.76,3.72C209.36,275.98,205.09,275.97,200.82,275.97   z M201.36,289.62c-0.65,0.42-1.49,0.74-2.25,0.74c-7.45,0.05-14.9,0.04-22.35,0.03c-2.15,0-3.71-1.54-3.72-3.58   c-0.01-2.06,1.57-3.61,3.77-3.62c3.72-0.02,7.45-0.01,11.17,0c3.72,0,7.45-0.02,11.17,0.01c1.67,0.01,3,1.01,3.47,2.51   C203.09,287.15,202.64,288.8,201.36,289.62z M217.16,259.19c-0.55,1.42-1.63,2.2-3.15,2.32c-0.63,0.05-1.26,0.02-1.89,0.02   c-11.69,0-23.39,0-35.08,0c-2.44,0-4.09-1.58-3.98-3.78c0.1-2.01,1.63-3.43,3.78-3.43c4.93-0.02,9.86-0.01,14.79-0.01   c1.2,0,2.4,0,3.61,0c6.13,0,12.27-0.01,18.4,0.01C216.33,254.33,218.09,256.78,217.16,259.19z M238.83,299.55   c-0.46,0.55-0.98,1.06-1.49,1.57c-6.1,6.1-12.22,12.18-18.31,18.29c-0.83,0.83-1.77,1.38-2.91,1.69   c-4.71,1.29-9.42,2.63-14.12,3.94c-0.48,0-0.96,0-1.44,0c-0.1-0.06-0.18-0.14-0.29-0.18c-1.98-0.79-2.92-2.52-2.32-4.55   c1.38-4.69,2.8-9.37,4.28-14.04c0.22-0.68,0.69-1.34,1.21-1.86c6.45-6.48,12.9-12.95,19.4-19.37c3.1-3.07,6.84-4.07,11.02-2.75   c4.1,1.3,6.59,4.2,7.37,8.43C241.82,293.99,240.98,296.97,238.83,299.55z M246.86,206.98c-1.57-0.63-3.16-1.22-4.72-1.9   c-1.2-0.53-2.31-0.49-3.47,0.11c-3.85,1.99-7.72,3.95-11.58,5.92c-0.44,0.22-0.88,0.43-1.5,0.73c0.17-0.6,0.29-1.03,0.43-1.46   c1.27-4,2.52-8,3.82-12c0.42-1.29,0.27-2.43-0.56-3.52c-10.82-14.09-7.68-33.81,7.95-44.02c13.34-8.71,27.2-8.6,41-0.68   c0.39,0.22,0.75,0.51,1.26,0.86c-1.8,0.32-3.45,0.53-5.05,0.92c-13.68,3.37-23.96,11.02-29.32,24.32   c-4.01,9.94-3.31,19.85,1.41,29.48c0.17,0.35,0.35,0.69,0.52,1.04C246.98,206.84,246.92,206.91,246.86,206.98z M304.81,218.55   c-1.97-1.08-3.64-1.01-5.72-0.19c-13.67,5.38-26.62,4-38.28-5.14c-7.96-6.24-12.08-14.65-11.78-24.91   c0.25-8.51,3.86-15.57,10.01-21.37c15.33-14.47,41.43-12.44,54.15,4.2c8.22,10.75,8.35,25.2,0.25,36.05   c-1.1,1.47-1.34,2.84-0.76,4.56c1.34,3.97,2.56,7.99,3.83,11.99c0.07,0.23,0.13,0.47,0.25,0.93   C312.64,222.58,308.66,220.68,304.81,218.55z"></path>	</g></g></svg>