<svg xmlns="http://www.w3.org/2000/svg" xmlns:xlink="http://www.w3.org/1999/xlink" id="Layer_1" x="0px" y="0px" viewBox="0 0 400 400" style="enable-background:new 0 0 400 400;" xml:space="preserve"><style type="text/css">	.st0{fill:#322B6A;}</style><g>	<path class="st0" d="M293.54,260.82c7.44,0.06,9.56-2.12,9.5-9.55c-0.27-34.59,0.05-69.19,0.15-103.79c0-4.69,0.16-8.66-6.88-8.64  c-64.06,0.23-128.12,0.13-192.18,0.16c-2.16,0-4.51-0.55-6.18,1.71c-2.47,3.36-1.01,18.27,2.27,22.02  c12.98,3.98,25.9,8.57,36.68,16.82c9.8,7.5,21.54,13.29,27.07,25.45c6.8,6.91,12.41,14.54,17.19,23.14  c5.84,10.5,7.95,22.36,13.65,32.79C227.71,260.84,260.63,260.54,293.54,260.82z"></path>	<path class="st0" d="M349.8,122.12c-5.72-19.28-16.01-26.91-36.38-26.91c-48.74-0.01-97.47,0-146.21,0  c-28.17,0-56.34-0.12-84.51,0.05c-17.27,0.11-31.02,12.34-31.95,28.54c-0.55,9.55,0.08,19.16-0.37,28.72  c-0.16,3.53,2.14,4.66,3.93,6.53c21.64,0.72,21.64,0.72,21.64-20.62c0-17.78,0-17.79,18.11-17.79c72.95,0,145.9-0.01,218.85,0.02  c4.98,0,10.78-0.97,10.66,6.97c0.13,47.65,0.22,95.29,0.46,142.93c0.03,6.7-3.55,7.83-9.17,7.8c-32.71-0.12-65.42-0.06-98.13-0.06  c-16.91,0-17.04,0-16.76,17.31c0.05,3.15-2.41,7.64,3.02,9.22c36.9-0.16,73.81-0.29,110.71-0.51c5.89-0.04,11.64,0.34,17.36-2.8  c11.98-6.57,18.83-16.29,18.88-29.77C350.12,221.88,349.88,172,349.8,122.12z"></path>	<path class="st0" d="M116.9,232.2c0-0.05-0.02-0.07-0.02-0.12c-0.05-0.01-0.08-0.03-0.13-0.04  C116.75,232.05,116.9,232.2,116.9,232.2z"></path>	<path class="st0" d="M176.28,279.73c-5.77-26.8-18.03-50.1-38.17-68.84c-22.81-21.23-49.8-33.08-81.12-34.45  c-2.83-0.12-6.58-1.36-6.49,3.88c0.12,6.75,0.18,13.5-0.03,20.24c-0.12,3.84,2.73,3.56,4.99,4.28  c22.58-0.18,41.64,8.92,58.97,22.48c0.68,0.54,0.63,2.02,0.92,3.06c0,0-0.32-0.01-0.32-0.01c1.09,0.09,1.82,0.55,1.85,1.72  c1.48,0.24,2.08,1.12,1.77,2.64c2.09-1.07,2.91,0.78,4.01,1.81c9.73,9.02,16.48,19.97,21.34,32.26c4.59,11.61,5.45,23.9,7.38,36  c7.28-0.15,14.55-0.44,21.83-0.4c4,0.03,5.61-1.47,5.11-5.5C177.54,292.53,176.95,286.12,176.28,279.73z"></path>	<path class="st0" d="M58.37,224.05c-2.5-0.2-7.26-1.83-7.3,1.49c-0.11,8.94-3.26,18.26,1.82,26.86  c13.68,1.59,26.88,4.17,35.18,16.91c1.87,0.31,2.29,1.71,2.4,3.34c9.87,8.46,10.87,20.61,13.4,32.13  c5.03-0.14,10.06-0.37,15.09-0.4c11.52-0.06,11.52-0.02,11.51-11.43c-0.67-2.74-1.38-5.46-2.02-8.21  C120.94,252.53,91.18,226.67,58.37,224.05z"></path>	<path class="st0" d="M88.13,269.4c-0.02-0.03-0.04-0.06-0.06-0.09c-0.05-0.01-0.08-0.02-0.13-0.03  C87.94,269.28,88.13,269.4,88.13,269.4z"></path>	<path class="st0" d="M55.91,270.24c-3.12-0.65-5.62-0.92-5.39,3.52c0.52,10.34-1.11,20.74,0.93,31.03c8.34-0.14,16.7-0.77,25-0.28  c6.65,0.39,9.21-1.71,7.75-8.27C79.17,282.78,70.53,273.29,55.91,270.24z"></path></g></svg>