<svg xmlns="http://www.w3.org/2000/svg" xmlns:xlink="http://www.w3.org/1999/xlink" id="Layer_1" x="0px" y="0px" viewBox="0 0 400 400" style="enable-background:new 0 0 400 400;" xml:space="preserve"><style type="text/css">	.st0{fill:#322B6A;}</style><g>	<path class="st0" d="M259.43,340.04c-5.87-1.43-11.96-2.47-17.99-2.66c-12.62-0.4-25.26-0.14-37.88-0.14  c-15.09,0-30.18-0.08-45.27,0.06c-6.96,0.06-13.91,0.65-20.35,3.72c-3.8,1.81-6.59,4.5-7.64,8.97c46.56,0,92.78,0,139.48,0  C268.16,344.38,264.33,341.24,259.43,340.04z"></path>	<path class="st0" d="M219.47,306.37c-13.03,0-26.1,0-38.96,0c-1.9,6.85-3.87,13.96-5.83,21.05c16.91,0,33.87,0,50.63,0  C223.32,320.28,221.37,313.22,219.47,306.37z"></path>	<path class="st0" d="M200.13,114.25c-31.89-0.05-57.92,25.86-57.97,57.69c-0.05,31.88,25.86,57.91,57.7,57.96  c31.88,0.05,57.92-25.86,57.97-57.7C257.89,140.32,231.98,114.3,200.13,114.25z M199.87,217.06  c-24.71-0.05-44.87-20.29-44.85-45.03c0.02-24.86,20.34-45.02,45.27-44.92c24.69,0.1,44.77,20.41,44.69,45.18  C244.9,196.99,224.63,217.1,199.87,217.06z"></path>	<path class="st0" d="M200.27,50c-67.26-0.22-122.2,54.53-122.37,121.95c-0.17,67.05,54.61,122,121.83,122.2  c67.12,0.2,122.13-54.5,122.37-121.67C322.34,105.16,267.69,50.22,200.27,50z M200.14,62.87c3.42,0.07,6.26,2.96,6.27,6.38  c0.01,3.54-3,6.5-6.54,6.43c-3.42-0.08-6.25-2.96-6.26-6.38C193.58,65.74,196.59,62.79,200.14,62.87z M199.85,242.76  c-38.93-0.07-70.61-31.87-70.54-70.83c0.06-38.93,31.86-70.59,70.83-70.53c38.94,0.06,70.62,31.86,70.55,70.82  C270.62,211.14,238.81,242.83,199.85,242.76z M284.35,113.88c-3.04,2.04-6.43,1.31-9.25-2.15c-7.23-8.89-15.72-16.33-25.53-22.25  c-7.83-4.72-16.16-8.26-25.01-10.61c-3.07-0.81-5.16-2.6-5.36-5.97c-0.18-3,1.15-5.16,3.94-6.33c0.77-0.32,1.63-0.43,2.68-0.7  c2.94,0.88,6.04,1.69,9.06,2.73c20.15,6.91,36.92,18.67,50.32,35.22C288.18,107.5,287.77,111.58,284.35,113.88z"></path></g></svg>