<svg xmlns="http://www.w3.org/2000/svg" xmlns:xlink="http://www.w3.org/1999/xlink" id="Layer_1" x="0px" y="0px" viewBox="0 0 400 400" style="enable-background:new 0 0 400 400;" xml:space="preserve"><style type="text/css">	.st0{fill:#322B6A;}</style><g>	<path class="st0" d="M318.07,153.66c-3.69-2.5-5.77,3.08-8.23,5.23c-8.46,7.41-16.53,15.26-24.8,22.88  c-2.61,2.4-5.06,5.81-9.33,3.63c-3.9-1.99-3.72-5.84-3.71-9.53c0.04-10.92-0.38-21.86,0.16-32.75c0.33-6.58-1.73-8.36-8.28-8.31  c-35.73,0.31-71.46,0.15-107.2,0.15c-28.12,0-56.25-0.1-84.37,0.05c-13.61,0.07-21.94,6.59-22.05,18.89  c-0.41,42.67-0.34,85.36,0.03,128.03c0.09,10.9,7.29,17.57,18.14,18.71c3.93,0.41,7.93,0.12,11.9,0.18  c10.2,0.17,11.8,1.89,9.64,11.87c-2.7,12.47-5.87,24.85-8.86,37.39c-0.35-0.98,45.36-30.8,63.18-42.79  c10.16-5.92,11.57-6.62,15.4-6.58c47.97,0.2,95.95,0.14,143.92,0.09c17.77-0.02,24.62-6.83,24.66-24.56  c0.07-31.1,0.02-62.2,0.02-93.3c0-5.29-0.17-10.59,0.04-15.88C328.64,159.7,322.61,156.73,318.07,153.66z M132.27,172.1  c24.12,0.1,48.23,0.08,72.35,0.03c4.6-0.01,9.29,0.29,9,6.27c-0.25,5.07-4.48,5.73-8.79,5.7c-11.89-0.08-23.79-0.03-35.68-0.03  c-12.22,0-24.45-0.08-36.67,0.04c-4.77,0.05-9.23-0.84-9.04-6.44C123.62,172.67,127.92,172.08,132.27,172.1z M244.28,260.9  c-18.51,0-37.03,0-55.54,0c-18.18,0-36.37,0.02-54.55-0.01c-4.98-0.01-11.16,0.46-10.9-6.61c0.23-6.27,6.07-5.78,10.73-5.79  c36.7-0.01,73.39-0.02,110.09,0.01c4.94,0,11.18-0.57,10.9,6.56C254.76,261.27,248.96,260.9,244.28,260.9z M283.22,219.32  c-1.77,3.26-4.93,2.84-7.87,2.84c-28.41,0.02-56.81,0.01-85.22,0.01c-28.08,0-56.15,0.02-84.23-0.02  c-4.49-0.01-10.55,1.1-10.65-5.5c-0.11-7.03,6.04-6.44,11.04-6.44c55.49,0,110.98-0.01,166.47,0.02c3.54,0,7.45-0.86,10.08,2.57  C284.37,214.79,284.43,217.08,283.22,219.32z"></path>	<path class="st0" d="M350,54.99c0.02-5.02-2.94-4.97-6.48-4.96c-17.52,0.05-35.05,0.22-52.57-0.09c-5.7-0.1-7.32,1.82-7.2,7.39  c0.34,15.2,0.12,30.41,0.12,45.62c0,18.36,0,36.72,0,57.67c10.19-9.44,18.67-17.03,26.82-24.96c4.5-4.38,8.24-4.3,12.69,0.03  c8.03,7.79,16.34,15.29,26.55,24.78C349.94,123.57,349.88,89.28,350,54.99z"></path>	<path class="st0" d="M103.7,112.38c9.88-0.06,19.77-0.02,29.65-0.02c9.55,0,19.11-0.04,28.66,0.01c4,0.02,7.7-0.98,7.9-5.5  c0.21-5.01-3.57-6.6-7.99-6.61c-19.44-0.04-38.87,0-58.31-0.03c-4.42-0.01-8.36,1.36-8.4,6.24  C95.17,111.64,99.39,112.41,103.7,112.38z"></path>	<path class="st0" d="M256.93,322.09c-14.84-0.15-29.68-0.16-44.52,0.03c-3.59,0.04-6.47,1.94-6.4,6.07  c0.07,4.12,2.96,5.76,6.6,5.84c7.25,0.16,14.51,0.05,21.77,0.05c0,0.01,0,0.02,0,0.03c7.26,0,14.51,0.07,21.77-0.03  c4-0.05,7.39-1.4,7.38-6.09C263.52,323.9,260.51,322.13,256.93,322.09z"></path>	<path class="st0" d="M73.98,112.37c4.49,0.2,8.24-1.16,8.03-6.28c-0.18-4.37-3.69-5.85-7.73-5.85c-4.39,0.01-8.09,1.28-7.95,6.5  C66.47,111.49,69.98,112.47,73.98,112.37z"></path>	<path class="st0" d="M282.26,322.02c-4.16-0.18-8.29,0.61-8.63,5.78c-0.3,4.64,3.18,5.95,7.78,6.31c3.38-0.26,7.68-0.41,7.96-5.81  C289.62,323.61,286.17,322.19,282.26,322.02z"></path></g></svg>