<svg xmlns="http://www.w3.org/2000/svg" xmlns:xlink="http://www.w3.org/1999/xlink" id="Layer_1" x="0px" y="0px" viewBox="0 0 400 400" style="enable-background:new 0 0 400 400;" xml:space="preserve"><style type="text/css">	.st0{fill:#322B6A;}</style><g>	<path class="st0" d="M257.54,268.45c-0.32,0.43-0.64,0.88-0.93,1.33l-1.47,2.3h20.73l-5.02-13.05H259.2v1.5  c0,0.65,0.04,1.28,0.07,1.89c0.07,1.21,0.14,2.36-0.12,3.27C258.89,266.62,258.21,267.55,257.54,268.45z"></path>	<path class="st0" d="M281.39,237.46l-0.04-1.28l-30.96-3.86l-0.19,1.48c-0.7,5.44,0.57,10.45,3.59,14.08  c2.74,3.3,6.79,5.26,11.4,5.52c0.28,0.02,0.55,0.02,0.82,0.02c4.06,0,8.07-1.74,11-4.77C279.93,245.64,281.53,241.55,281.39,237.46  z"></path>	<path class="st0" d="M281.44,228.66c-0.17-9.28-6.45-15.98-15.27-16.29c-0.17-0.01-0.35-0.01-0.52-0.01  c-7.6,0-14.28,5.67-14.9,12.63l-0.13,1.44l30.85,3.97L281.44,228.66z"></path>	<path class="st0" d="M280.94,265.42c7.77,4.85,15.47,7.2,23.53,7.2c1.61,0,3.26-0.1,4.9-0.29c1.08-0.13,2.26-0.19,3.69-0.19  c1.05,0,2.1,0.03,3.15,0.06c1.08,0.03,2.16,0.06,3.24,0.06l0.29,0c0.63,0,1.26-0.06,1.86-0.11c0.28-0.02,0.56-0.05,0.85-0.07  l1.39-0.1v-78.35H207.77v78.64h1.5c1.42,0,2.83-0.04,4.19-0.07c1.37-0.03,2.67-0.07,3.98-0.07c1.8,0,3.28,0.06,4.65,0.2  c1.58,0.16,3.17,0.24,4.71,0.24c8.33,0,15.92-2.24,23.2-6.83c2.09-1.32,3.46-3.59,3.68-6.07c0.2-2.26-0.61-4.4-2.23-5.88  c-4.29-3.92-6.66-8.34-7.04-13.15c-0.44-5.53-0.41-10.84,0.07-15.81c0.83-8.48,8.2-16.2,17.13-17.96c1.27-0.25,2.58-0.38,3.9-0.38  c7.66,0,15.05,4.16,18.84,10.6c2.93,4.99,3.04,10.44,3.15,16.2l0.02,1.2c0.19,8.63-2.34,14.9-7.96,19.73  c-1.21,1.05-1.82,2.91-1.65,5.11C278.06,261.39,278.95,264.18,280.94,265.42z"></path>	<path class="st0" d="M253.48,163.01c2.59,3.32,6.34,5.35,10.55,5.71c0.53,0.05,1.07,0.07,1.59,0.07c4.37,0,8.39-1.59,11.3-4.48  c2.93-2.9,4.54-6.92,4.54-11.3l0-1.32l-31-3.89l-0.23,1.43C249.41,154.28,250.6,159.31,253.48,163.01z"></path>	<path class="st0" d="M281.53,144.11c-0.43-9.28-6.13-15.53-14.88-16.32c-0.4-0.04-0.8-0.05-1.21-0.05  c-7.05,0-13.46,5.37-14.91,12.5l-0.32,1.58l31.41,4.09L281.53,144.11z"></path>	<path class="st0" d="M275.75,187.47l-4.82-12.95h-11.27l-0.19,1.27c-0.16,1.08-0.15,2.15-0.13,3.19c0.04,2.81-0.04,4.46-2.19,5.68  l-4.9,2.8H275.75z"></path>	<path class="st0" d="M207.46,110.58c0,1.01,0.03,2.01,0.05,2.99h0.36v29h-0.25c0,8.91,0,17.82,0,26.73v18.38h1.5  c1.55,0,3.06-0.03,4.53-0.07c1.41-0.03,2.8-0.06,4.17-0.06c1.9,0,3.46,0.06,4.91,0.19c1.47,0.13,2.93,0.2,4.35,0.2  c8.11,0,15.45-2.12,22.46-6.5c2.4-1.5,3.91-3.76,4.15-6.21c0.22-2.29-0.67-4.5-2.52-6.23c-4.21-3.95-6.52-8.51-6.85-13.56  c-0.3-4.49-0.29-9.25,0.03-14.14c0.58-8.82,7.81-16.93,16.83-18.87c1.4-0.3,2.84-0.45,4.3-0.45c7.64,0,15.02,4.1,18.8,10.43  c3.09,5.18,3.15,10.83,3.22,16.81l0.02,1.44c0.12,8.02-2.45,14.21-7.85,18.93c-1.26,1.1-1.9,2.99-1.74,5.18  c0.19,2.63,1.41,5.04,3.11,6.14c7.33,4.74,15.07,7.04,23.66,7.04c1.57,0,3.18-0.08,4.8-0.24c1.37-0.13,2.85-0.2,4.64-0.2  c1.32,0,2.64,0.03,3.97,0.07c1.35,0.03,2.75,0.07,4.14,0.07h1.5v-78.6H207.46V110.58z"></path>	<path class="st0" d="M184.08,102.99h31.56v-1.5c0-2.64,0.03-5.26,0.06-7.86c0.07-6.13,0.14-11.91-0.17-17.83  c-0.4-7.56-7.33-13.75-15.46-13.79h-0.09c-8.21,0-15.04,6.12-15.56,13.93c-0.34,5.07-0.33,10.22-0.33,15.2c0,2.17,0,4.33-0.02,6.5  c-0.01,0.84-0.01,1.68,0,2.56L184.08,102.99z"></path>	<path class="st0" d="M184.08,263.16l0.01,4.29c0,0.75,0.05,1.46,0.09,2.22c0.02,0.35,0.04,0.7,0.06,1.07l0.07,1.43h17.52  c0,0,0-95.87,0-130.82c0-0.44,0.02-0.83,0.04-1.2V118.7l-0.01-0.19c-0.08-1.86-0.06-3.75-0.05-5.59c0.01-0.77,0.01-1.54,0.01-2.29  v-1.5H76.3V272.1h17.45l0-10.96c0-4.69-0.01-9.38,0.01-14.08c0.03-7.54,3.32-12.88,10.06-16.32c1.9-0.97,3.8-1.91,5.71-2.86  l2.39-1.19c0.88-0.44,1.68-0.83,2.4-1.18c7.28-3.56,7.63-4.1,7.62-11.4c0-1.04,0-2.24,0.02-3.64c0.04-2.25-0.75-3.84-2.63-5.33  c-4.64-3.68-7.95-8.47-9.85-14.24c-2.28-6.94-1.96-14.26-1.38-21.77c0.69-9.12,4.86-16.57,12.39-22.16  c2.31-1.72,2.02-3.71,1.81-5.16c-1.07-7.33,1.41-13.04,7.39-17c3.01-1.99,6.12-2.99,9.25-2.99c3.11,0,6.22,0.99,9.23,2.96  c6.07,3.96,8.56,9.76,7.38,17.25c-0.35,2.24,0.21,3.65,2.01,5.02c6.79,5.17,10.72,11.53,11.69,18.89  c0.72,5.46,0.68,11.15,0.56,16.99c-0.16,8.13-3.18,14.94-8.73,19.69c-4.24,3.62-5.84,7.77-5.19,13.45c0.02,0.14,0.01,0.29,0,0.44  l-0.01,0.25c-0.04,3.31,1.47,5.72,4.49,7.17c2.14,1.03,4.29,2.12,6.38,3.18c2.19,1.11,4.45,2.26,6.71,3.34  c7.22,3.46,10.7,9.04,10.62,17.07C184.04,252.73,184.06,258.03,184.08,263.16z"></path>	<path class="st0" d="M174.98,240.09l1.7-1.46l-23.22-11.78l-0.77,0.79c-0.81,0.83-1.63,1.67-2.46,2.5  c-2.15,2.17-4.36,4.42-6.45,6.77c-1.15,1.29-1.91,3.15-1.93,4.74c-0.11,7.12-0.09,14.36-0.07,21.36l0.01,4.98  c0,0.65,0.06,1.27,0.12,1.88c0.02,0.26,0.05,0.51,0.07,0.77l0.11,1.39h18.33l-0.46-1.86C156.71,257.02,164.13,249.41,174.98,240.09  z"></path>	<path class="st0" d="M119.39,272.1h15.92l0.31-1.08c0.04-0.12,0.07-0.23,0.11-0.32c0.1-0.29,0.23-0.64,0.23-1.08l0-0.67  c0.02-9.27,0.04-18.85,0-28.28c0-1.14-0.46-2.36-1.16-3.11c-2.44-2.59-4.93-5.14-7.35-7.61l-3.05-3.13l-21.88,11.16  c0,0,16.44,33.28,16.45,33.3L119.39,272.1z"></path>	<path class="st0" d="M99.71,246.03v26.03h11.88l0.31-1.09c2.65-9.39-0.57-17.02-9.84-23.34L99.71,246.03z"></path>	<path class="st0" d="M113.94,171.71l0.02,2.78l2.31-1.54c1.1-0.73,2.16-1.4,3.18-2.05c2.17-1.37,4.22-2.67,6.09-4.19  c1.82-1.47,3.13-2.39,4.04-2.39c0.82,0,1.89,0.76,3.94,2.8c6.01,6,12.98,9.04,20.71,9.04c1.93,0,3.93-0.19,5.95-0.57  c1.97-0.37,4.19-1.26,3.95-5c-0.89-13.49-11.84-24.07-24.92-24.07l-0.37,0C123.37,146.77,113.87,159.79,113.94,171.71z"></path>	<path class="st0" d="M149.81,141.32l0.16-1.32c0.54-4.52-1.4-8.32-5.45-10.69c-1.84-1.08-3.73-1.62-5.64-1.62  c-2.24,0-4.41,0.75-6.46,2.22c-3.42,2.46-5.04,6.05-4.55,10.09l0.16,1.32H149.81z"></path>	<path class="st0" d="M113.73,180.95c0.41,14.93,10.95,25.36,25.63,25.36c1.03,0,2.09-0.05,3.15-0.16  c6.04-0.6,12.49-4.48,16.81-10.12c3.42-4.46,4.98-9.43,4.29-13.62l-0.25-1.54l-1.53,0.31c-2.58,0.53-5.15,0.8-7.62,0.8  c-8.52,0-16.43-3.18-23.5-9.45l-0.76-0.67l-16.24,8.13L113.73,180.95z"></path>	<path class="st0" d="M139.23,233.61l3.37-3.49c2.34-2.42,4.54-4.7,6.73-7.06c0.7-0.76,1.15-2.02,1.11-3.13  c-0.07-1.81-0.23-3.63-0.37-5.23c-0.05-0.58-0.1-1.15-0.15-1.69l-0.11-1.38h-22.19v1.5c0,0.42,0,0.88-0.01,1.36  c-0.01,1.3-0.02,2.78,0.02,4.28c0,0.21,0,0.44-0.01,0.67c-0.03,1.07-0.06,2.41,0.79,3.32c2.24,2.42,4.59,4.72,7.07,7.16  c0.87,0.86,1.76,1.73,2.67,2.63L139.23,233.61z"></path>	<path class="st0" d="M166.11,272.12h11.86v-25.91l-2.34,1.57c-9.04,6.09-12.25,13.68-9.81,23.2L166.11,272.12z"></path>	<path class="st0" d="M261.43,325.07c-0.57-0.06-1.12-0.07-1.53-0.07l-1.24,0.01l-0.75,0c-1.41,0-2.81,0-4.22,0.01  c-1.4,0-2.81,0.01-4.21,0.01c-2.6,0-4.71-0.01-6.64-0.05c-0.75-0.01-1.38-0.16-1.89-0.41h-16.51c-0.86,0.29-2.02,0.44-3.44,0.44  l-23.34,0c-18.77,0-37.55,0-56.32,0.01l-1.23-0.01c-0.67,0-1.46,0.02-2.26,0.17c-3.21,0.62-5.19,2.89-5.3,6.09  c-0.11,3.27,1.73,5.67,4.92,6.42c1.16,0.27,2.33,0.29,3.43,0.29l0.69,0c23.72,0.01,47.43,0.01,71.16,0.01l45.7,0  c0.22,0,1.14,0.01,1.37,0.01c0.47,0,1.1-0.01,1.74-0.09c3.55-0.45,6.11-3.32,5.95-6.68C267.35,327.96,264.85,325.43,261.43,325.07z  "></path>	<path class="st0" d="M224.26,319.57h16.9c0.57-0.23,1.19-0.32,1.69-0.34c0.4-0.02,0.81-0.02,1.23-0.02c0.35,0,0.7,0,1.07,0.01  c0.42,0,0.86,0.01,1.32,0.01h1.77l-3.73-22.22h-89.06l-3.69,22.21l69.32,0C222.5,319.22,223.52,319.36,224.26,319.57z"></path>	<path class="st0" d="M342.7,108.22c0-11.66-6.43-18.08-18.12-18.09l-102.67,0v12.99l102.42,0c4.84,0,5.39,0.55,5.39,5.38  c0,54.68,0,109.37,0,164.05c0,5.01-0.52,5.52-5.55,5.52H75.76c-4.92,0-5.48-0.58-5.48-5.59l0-163.76c0-5.13,0.48-5.6,5.75-5.6  h102.15V90.13l-59.48,0c-14.45,0-28.91,0-43.36,0c-11.81,0-18.05,6.28-18.05,18.15c0,54.78,0,109.56,0,164.34  c0,12.23,6.18,18.43,18.38,18.43h248.71c11.98,0,18.31-6.29,18.31-18.2C342.7,217.98,342.7,163.1,342.7,108.22z"></path></g></svg>