<svg xmlns="http://www.w3.org/2000/svg" xmlns:xlink="http://www.w3.org/1999/xlink" id="Layer_1" x="0px" y="0px" viewBox="0 0 400 400" style="enable-background:new 0 0 400 400;" xml:space="preserve"><style type="text/css">	.st0{fill:#322B6A;}</style><path class="st0" d="M242.96,86.65c0.02-3.15,0.04-6.29,0.04-9.45c0-0.44,0.08-0.79,0.18-1.24c0.05-0.22,0.11-0.49,0.18-0.86 l0.72-3.84l55.11,57.84h-15.44c-2.09,0-4.18,0.01-6.27,0.01c-2.09,0.01-4.19,0.01-6.28,0.01c-2.65,0-5.29-0.01-7.94-0.04 c-11.98-0.14-19.91-7.82-20.2-19.54C242.86,101.9,242.91,94.15,242.96,86.65z"></path><path class="st0" d="M306.52,139.64l-28.2,0.01c-4.83,0-9.67,0-14.5-0.01c-18.69-0.03-31.28-12.63-31.31-31.35 c-0.02-9.38-0.01-18.76-0.01-28.14l0-17.82l-1.89-0.11c-0.4-0.02-0.76-0.05-1.09-0.07c-0.69-0.05-1.29-0.09-1.93-0.09l-26.06-0.01 c-12.04,0-24.07-0.01-36.11-0.01c-14.59,0-29.18,0.01-43.77,0.03c-16.84,0.03-28.16,11.48-28.17,28.51 c-0.02,72.77-0.02,145.55,0,218.32c0,17.05,11.44,28.51,28.46,28.53c20.81,0.01,41.62,0.02,62.43,0.02 c31.22,0,62.46-0.02,93.68-0.04c3.37,0,6.03-0.31,8.37-0.98c12.57-3.56,20.07-13.87,20.08-27.58c0.01-40.09,0.01-80.18,0.01-120.28 L306.52,139.64z M153.23,199.21c0.93-1.24,2.02-2.39,3.18-3.59c0.4-0.42,0.8-0.83,1.19-1.25c6.54-7.02,36.82-39.49,36.82-39.49 c2.21-2.38,3.96-3.48,5.5-3.48c1.51,0,3.2,1.06,5.33,3.35c4.34,4.65,8.67,9.31,13.01,13.96c9.06,9.73,18.13,19.47,27.23,29.17 c1.98,2.11,2.52,4.05,1.75,6.27c-0.67,1.92-2.07,3.02-4.29,3.35c-0.25,0.04-0.5,0.06-0.74,0.06c-1.48,0-2.76-0.72-4.4-2.49 l-9.97-10.72c-5.54-5.95-11.07-11.9-16.6-17.86c-0.33-0.35-0.63-0.82-0.96-1.32c-0.18-0.28-0.36-0.55-0.55-0.82l-1.14-1.62 l-3.4,2.36l0,22.71c0,18.49,0,36.98-0.01,55.47c0,3.73-1.71,6.03-4.68,6.3c-0.17,0.01-0.33,0.02-0.49,0.02 c-2.49,0-4.63-1.73-5.09-4.12c-0.22-1.16-0.24-2.41-0.24-3.71c-0.01-19.44-0.01-38.87-0.01-58.31v-18.4l-3.2-2.09l-1.13,1.43 c-0.21,0.27-0.41,0.53-0.62,0.8c-0.4,0.53-0.78,1.03-1.19,1.47c-5.85,6.31-11.7,12.62-17.56,18.93l-8.39,9.03 c-1.88,2.03-3.33,2.86-4.98,2.86c-0.35,0-0.71-0.04-1.08-0.11c-1.87-0.37-3.37-1.58-4.01-3.26 C151.87,202.46,152.13,200.69,153.23,199.21z M266.84,294.11c-0.67,2.73-2.43,4.67-5.2,5.44c-1.11,0.31-2.32,0.38-3.48,0.38 c-38.73,0.02-77.46,0.03-116.18-0.02c-1.62,0-3.37-0.23-4.82-0.87c-3.17-1.41-4.68-4.77-3.96-8.01c0.73-3.28,3.79-5.6,7.63-5.61 c19.76-0.02,39.51-0.01,59.27-0.01c19.46,0,38.92-0.05,58.39,0.08c2,0.01,4.25,0.77,5.93,1.87 C266.66,288.84,267.5,291.41,266.84,294.11z"></path></svg>