<svg xmlns="http://www.w3.org/2000/svg" id="Layer_1" data-name="Layer 1" viewBox="0 0 100 100"><defs><style>      .cls-1 {        fill: #322b6a;        fill-rule: evenodd;      }    </style></defs><path class="cls-1" d="m16.65,10.82h15.23v9.02h36.23v-9.02h15.23v89.18H16.65V10.82Zm18.15-4.15v10.26h30.4V6.67h-6.34c-1.11-3.85-4.66-6.67-8.86-6.67s-7.76,2.82-8.86,6.67h-6.34Zm-6.71,83.08h43.7c.81,0,1.46-.65,1.46-1.46s-.65-1.46-1.46-1.46H28.09c-.81,0-1.46.65-1.46,1.46s.65,1.46,1.46,1.46h0Zm0-10.69h43.7c.81,0,1.46-.65,1.46-1.46s-.65-1.46-1.46-1.46H28.09c-.81,0-1.46.65-1.46,1.46s.65,1.46,1.46,1.46h0Zm0-10.69h43.7c.81,0,1.46-.65,1.46-1.46s-.65-1.46-1.46-1.46H28.09c-.81,0-1.46.65-1.46,1.46s.65,1.46,1.46,1.46h0Zm38.35-42.71c-.81,0-1.46.65-1.46,1.46v27.38h-3.94v-23.94c0-.81-.65-1.46-1.46-1.46h-6.16c-.81,0-1.46.65-1.46,1.46v23.94h-3.94v-18.98c0-.81-.65-1.46-1.46-1.46h-6.16c-.81,0-1.46.65-1.46,1.46v18.98h-3.94v-11.26c0-.81-.65-1.46-1.46-1.46h-6.16c-.81,0-1.46.65-1.46,1.46v11.26h-1.89c-.81,0-1.46.65-1.46,1.46s.65,1.46,1.46,1.46h51.9c.81,0,1.46-.65,1.46-1.46s-.65-1.46-1.46-1.46h-1.89v-27.38c0-.81-.65-1.46-1.46-1.46h-6.16Zm4.7,2.92h-3.24v25.92h3.24v-25.92Zm-13.01,3.44h-3.24v22.48h3.24v-22.48Zm-13.01,4.96h-3.24v17.52h3.24v-17.52Zm-13.01,7.71h-3.24v9.81h3.24v-9.81Z"></path></svg>