<svg xmlns="http://www.w3.org/2000/svg" id="PRINT" viewBox="0 0 200 200"><defs><style>      .cls-1 {        fill: #302c6a;        fill-rule: evenodd;      }    </style></defs><path class="cls-1" d="m97.82,69.23c1.53,2.68,2.29,4.39,2.27,5.14-1.34.7-2.74,1.28-4.18,1.74-10.22,2.71-20.7-3.37-23.41-13.59-.21-.8-.37-1.61-.48-2.42-.03-.19-.03-.38,0-.57.62-5.46-1.11-10.92-4.76-15.03-.86-.97-.77-2.45.19-3.31.4-.36.91-.56,1.44-.59,6.41-.31,12.8.95,18.61,3.67,11.15,4.89,16.89,17.33,13.39,28.99-.12.4-.35.76-.66,1.05.62,1.54,1.16,3.12,1.61,4.72.28-.66.57-1.31.89-1.95.43-1.19,1.37-2.81,2.82-4.86.27-.38.56-.78.86-1.19,2.77-3.68,6.17-6.6,10.03-7.97,1.23-.41,2.55.26,2.96,1.49.39,1.19-.22,2.48-1.39,2.92-3.32,1.19-6.31,3.98-8.7,7.5-.17.24-.34.47-.49.69-.8,1.07-1.45,2.25-1.92,3.5-1.89,3.83-3.05,7.98-3.43,12.23v16.14h18.8v-2.3c-.05-3.22,1.55-6.23,4.24-8,21.61-14.64,27.26-44.03,12.61-65.64-14.64-21.61-44.03-27.26-65.64-12.61-21.61,14.64-27.26,44.03-12.61,65.64,3.37,4.97,7.65,9.25,12.61,12.61,2.67,1.78,4.26,4.79,4.24,8v2.3h21.06v-16.21s0-.05,0-.07v-.04c.16-4.68-.88-10.08-2.88-15.1-.02-.54-.57-1.75-1.63-3.62-.13-.23-.27-.47-.41-.71-2.65-4.85-6.27-8.93-10.6-11.01-1.16-.57-1.64-1.97-1.07-3.14.56-1.15,1.94-1.63,3.1-1.09,4.84,2.32,8.84,6.52,11.84,11.52.24.41.47.8.68,1.17h0ZM12.67,53.59c0-1.68,1.36-3.03,3.03-3.04h32.89c-.3,2.07-.48,4.16-.53,6.25h-26.8c-1.29,0-2.34,1.05-2.34,2.34v94.31c0,1.29,1.05,2.34,2.34,2.34h157.48c1.29,0,2.34-1.05,2.34-2.34V59.15c0-1.29-1.05-2.34-2.34-2.34h-26.8c-.05-2.09-.23-4.18-.54-6.25h32.89c1.68,0,3.03,1.36,3.04,3.04v111.16h-50.32c-.84,0-1.61.45-2.03,1.17l-6.37,11.04h-57.23l-6.37-11.04c-.42-.73-1.19-1.17-2.03-1.17H12.67V53.59Zm94.24,25.56c-.86-.39-2.26-1.08-4.18-2.07-.35-.34-.6-.78-.69-1.26-1.9-10,3.96-19.85,13.65-22.96,5.03-1.74,10.41-2.22,15.67-1.42,1.28.2,2.16,1.39,1.96,2.67-.08.53-.34,1.02-.74,1.38-3.24,2.95-5.06,7.14-5.02,11.52,0,.19-.02.38-.06.57-2.06,8.64-10.73,13.98-19.37,11.92-.41-.1-.82-.21-1.23-.34h0Zm69.49-17.66v89.62H23.61V61.49h24.55c1.05,16,9.42,30.62,22.69,39.61,1.39.9,2.22,2.46,2.18,4.13v2.99c-5.25,2.03-7.87,7.93-5.84,13.18,1.04,2.69,3.16,4.81,5.85,5.85.3,8.61,7.36,15.44,15.98,15.46h21.95c8.62-.01,15.68-6.84,15.98-15.46,5.26-2.02,7.88-7.92,5.86-13.17-1.03-2.69-3.16-4.82-5.85-5.86v-2.99c-.04-1.66.79-3.22,2.18-4.13,13.27-8.99,21.65-23.61,22.69-39.61h24.56Zm19.31,103.26c2.37,0,4.29,1.92,4.3,4.3v10.25c-.01,8.03-6.52,14.54-14.55,14.55H14.55c-8.03,0-14.54-6.52-14.55-14.55v-10.25c0-2.37,1.92-4.3,4.3-4.3h3.68V53.59c0-4.26,3.46-7.72,7.72-7.72h33.8c5.51-22.77,26.05-39.73,50.49-39.73s44.98,16.96,50.5,39.73h33.8c4.26,0,7.72,3.46,7.72,7.72v111.16h3.68Zm-19.44,14.55c0,1.29,1.05,2.34,2.34,2.34h.13c1.29,0,2.34-1.05,2.34-2.34s-1.05-2.34-2.34-2.34h-.13c-1.29,0-2.34,1.04-2.34,2.34h0Zm-10.02,0c0,1.29,1.05,2.34,2.34,2.34h.13c1.29,0,2.34-1.05,2.34-2.34s-1.05-2.34-2.34-2.34h-.13c-1.29,0-2.34,1.05-2.34,2.34h0Zm-10.02,0c0,1.29,1.05,2.34,2.34,2.34h.13c1.29,0,2.34-1.05,2.34-2.34s-1.05-2.34-2.34-2.34h-.13c-1.29,0-2.34,1.05-2.34,2.34h0Zm-117.26,0c0,1.29,1.05,2.34,2.34,2.34h.13c1.29,0,2.34-1.05,2.34-2.34s-1.05-2.34-2.34-2.34h-.13c-1.29,0-2.34,1.05-2.34,2.34h0Zm-7.68-2.34c-1.29,0-2.34,1.05-2.34,2.34s1.05,2.34,2.34,2.34h.13c1.29,0,2.34-1.05,2.34-2.34s-1.05-2.34-2.34-2.34h-.13Zm-10.02,0c-1.29,0-2.34,1.05-2.34,2.34s1.05,2.34,2.34,2.34h.13c1.29,0,2.34-1.05,2.34-2.34s-1.05-2.34-2.34-2.34h-.13Z"></path></svg>