<svg xmlns="http://www.w3.org/2000/svg" id="Layer_1" data-name="Layer 1" viewBox="0 0 100 100"><defs><style>      .cls-1 {        fill: #322b6a;      }    </style></defs><path class="cls-1" d="m42.47,24.51h9.54c.43,0,.78-.35.78-.78v-9.54c0-.43-.35-.78-.78-.78h-9.54c-.43,0-.78.35-.78.78v9.54c0,.43.35.78.78.78h0Z"></path><path class="cls-1" d="m62.06,15.4l-4.44,3.56,4.44,3.56v-7.11Z"></path><path class="cls-1" d="m39.25,32.39h3.32c.5,0,.98.2,1.33.56s.54.85.52,1.35l-.13,3.87,4.88-5.2c.35-.37.84-.59,1.35-.59h13.28c3.25,0,5.9-2.65,5.9-5.9v-15.5c0-3.25-2.65-5.9-5.9-5.9h-24.55c-3.25,0-5.9,2.65-5.9,5.9v15.5c0,3.25,2.65,5.9,5.9,5.9h0Zm-1.27-18.21c0-2.47,2.01-4.49,4.49-4.49h9.54c2.47,0,4.49,2.01,4.49,4.49v.92l3.68-2.95c1.01-.81,2.47-.97,3.63-.41,1.18.57,1.95,1.78,1.95,3.09v8.24c0,1.31-.76,2.52-1.94,3.09-.46.22-.98.34-1.49.34-.78,0-1.54-.27-2.14-.75l-3.68-2.95v.92c0,2.47-2.01,4.49-4.49,4.49h-9.54c-2.47,0-4.49-2.01-4.49-4.49v-9.54Z"></path><circle class="cls-1" cx="29.65" cy="44.76" r="3.86"></circle><circle class="cls-1" cx="70.35" cy="44.76" r="3.86"></circle><path class="cls-1" d="m90.74,29.04c0-1.46-1.19-2.65-2.65-2.65h-14.68v.11c0,5.29-4.31,9.6-9.61,9.6h-12.48l-7.7,8.2c-.36.38-.85.58-1.35.58-.24,0-.48-.05-.71-.14-.71-.3-1.17-1-1.14-1.77l.23-6.87h-1.41c-5.29,0-9.6-4.31-9.6-9.6v-.11H11.91c-1.46,0-2.65,1.19-2.65,2.65v49.2h81.48V29.04h0Zm-61.09,8.15c4.17,0,7.56,3.39,7.56,7.56s-3.39,7.56-7.56,7.56-7.56-3.39-7.56-7.56,3.39-7.56,7.56-7.56h0Zm11.42,34.2c-1.02,0-1.85-.83-1.85-1.85,0-5.28-4.29-9.57-9.57-9.57s-9.57,4.29-9.57,9.57c0,1.02-.83,1.85-1.85,1.85s-1.85-.83-1.85-1.85c0-7.32,5.95-13.27,13.27-13.27s13.27,5.95,13.27,13.27c0,1.02-.83,1.85-1.85,1.85Zm29.28-34.2c4.17,0,7.56,3.39,7.56,7.56s-3.39,7.56-7.56,7.56-7.56-3.39-7.56-7.56,3.39-7.56,7.56-7.56Zm11.42,34.2c-1.02,0-1.85-.83-1.85-1.85,0-5.28-4.29-9.57-9.57-9.57s-9.57,4.29-9.57,9.57c0,1.02-.83,1.85-1.85,1.85s-1.85-.83-1.85-1.85c0-7.32,5.95-13.27,13.27-13.27s13.27,5.95,13.27,13.27c0,1.02-.83,1.85-1.85,1.85Z"></path><path class="cls-1" d="m0,81.94v1.45c0,6.35,5.16,11.51,11.51,11.51h76.98c6.35,0,11.51-5.16,11.51-11.51v-1.45H0Zm61.11,7.41h-22.22c-1.02,0-1.85-.83-1.85-1.85s.83-1.85,1.85-1.85h22.22c1.02,0,1.85.83,1.85,1.85s-.83,1.85-1.85,1.85Z"></path></svg>