<svg xmlns="http://www.w3.org/2000/svg" id="Layer_1" data-name="Layer 1" viewBox="0 0 100 100"><defs><style>      .cls-1 {        fill: #322b6a;      }    </style></defs><path class="cls-1" d="m49.83,68.48c-4.02-3.66-7.99-7.26-11.95-10.87-4.84-4.41-9.67-8.83-14.54-13.21-.57-.51-.79-1.03-.79-1.8.02-11.49.02-22.99.02-34.49,0-2.83,1.24-4.07,4.08-4.08,15.47,0,30.93,0,46.4,0,2.86,0,4.06,1.21,4.06,4.07,0,11.53,0,23.06-.02,34.59,0,.49-.17,1.15-.51,1.46-8.71,7.98-17.45,15.92-26.18,23.86-.15.14-.32.27-.56.47Zm1.6-40.49c-.18,1.45-.48,2.79-.47,4.12.05,5.18,4.41,9.42,9.62,9.46,5.3.04,9.68-4.12,9.85-9.35.17-5.4-3.84-10.02-9.13-10.11-8.11-.14-16.23-.13-24.35,0-5.05.08-9.08,4.48-9.16,9.6-.08,4.99,3.91,9.42,8.86,9.84,5.18.44,9.91-3.15,10.52-8.2.21-1.74-.11-3.55-.19-5.35h4.45Z"></path><path class="cls-1" d="m95.28,95.26H4.43c10.95-10.19,21.75-20.24,32.59-30.33.26.21.51.39.73.59,3.22,2.93,6.44,5.86,9.66,8.79,1.74,1.58,3.12,1.6,4.86.02,3.43-3.11,6.85-6.23,10.38-9.44,10.84,10.09,21.65,20.16,32.63,30.37Z"></path><path class="cls-1" d="m100,30.89v60.66c-11.07-10.3-21.98-20.46-32.95-30.67,10.97-9.98,21.88-19.91,32.95-29.99Z"></path><path class="cls-1" d="m-.23,30.94c11.02,10.03,21.91,19.94,32.89,29.94C21.71,71.08,10.81,81.22-.23,91.49V30.94Z"></path><path class="cls-1" d="m95.88,26.61c-4.34,3.95-8.47,7.71-12.75,11.61v-11.61h12.75Z"></path><path class="cls-1" d="m3.82,26.6h12.76v11.61c-4.24-3.86-8.39-7.63-12.76-11.61Z"></path><path class="cls-1" d="m60.63,27.96c2.12-.02,3.87,1.68,3.9,3.79.03,2.1-1.7,3.87-3.8,3.91-2.08.03-3.88-1.71-3.9-3.81-.03-2.1,1.7-3.87,3.81-3.89Z"></path><path class="cls-1" d="m33.75,31.8c0-2.14,1.7-3.84,3.83-3.83,2.13,0,3.83,1.71,3.82,3.85,0,2.13-1.73,3.86-3.84,3.85-2.12,0-3.82-1.73-3.82-3.87Z"></path></svg>