<svg xmlns="http://www.w3.org/2000/svg" id="Layer_1" data-name="Layer 1" viewBox="0 0 100 100"><defs><style>      .cls-1 {        fill: #322b6a;        fill-rule: evenodd;      }    </style></defs><path class="cls-1" d="m17.64,3.23c-7.96,0-14.42,6.45-14.42,14.42,0,3.36,1.15,6.46,3.08,8.91,1.88-4.4,6.25-7.49,11.33-7.49s9.46,3.09,11.33,7.49c1.93-2.45,3.08-5.55,3.08-8.91,0-7.96-6.45-14.42-14.42-14.42h0Zm0,67.45c3.44,0,6.23,2.79,6.23,6.23s-2.79,6.23-6.23,6.23-6.23-2.79-6.23-6.23,2.79-6.23,6.23-6.23Zm0,13.11c5.09,0,9.46,3.09,11.33,7.49,1.93-2.45,3.08-5.55,3.08-8.91,0-7.96-6.45-14.42-14.42-14.42s-14.42,6.45-14.42,14.42c0,3.36,1.15,6.46,3.08,8.91,1.88-4.4,6.25-7.49,11.33-7.49Zm0-77.83c3.44,0,6.23,2.79,6.23,6.23s-2.79,6.23-6.23,6.23-6.23-2.79-6.23-6.23,2.79-6.23,6.23-6.23Zm64.72,64.72c3.44,0,6.23,2.79,6.23,6.23s-2.79,6.23-6.23,6.23-6.23-2.79-6.23-6.23,2.79-6.23,6.23-6.23Zm0,13.11c5.09,0,9.46,3.09,11.33,7.49,1.93-2.45,3.08-5.55,3.08-8.91,0-7.96-6.45-14.42-14.42-14.42s-14.42,6.45-14.42,14.42c0,3.36,1.15,6.46,3.08,8.91,1.88-4.4,6.25-7.49,11.33-7.49Zm0-77.83c3.44,0,6.23,2.79,6.23,6.23s-2.79,6.23-6.23,6.23-6.23-2.79-6.23-6.23,2.79-6.23,6.23-6.23Zm0,13.11c5.09,0,9.46,3.09,11.33,7.49,1.93-2.45,3.08-5.55,3.08-8.91,0-7.96-6.45-14.42-14.42-14.42s-14.42,6.45-14.42,14.42c0,3.36,1.15,6.46,3.08,8.91,1.88-4.4,6.25-7.49,11.33-7.49Zm-59.57,18.8c7.38-1.88,13.2-7.69,15.07-15.07h10.52v6.87c-.59-.16-1.22-.25-1.85-.25-1.93,0-3.67.78-4.94,2.05-1.26,1.26-2.05,3.01-2.05,4.94s.78,3.67,2.05,4.94,3.01,2.05,4.94,2.05c.64,0,1.26-.09,1.85-.25v5.26h-7.89c-.37,0-.74.13-1.04.38-.68.57-.76,1.59-.19,2.27.28.34.51.72.66,1.13.15.4.22.83.22,1.3,0,1.04-.42,1.98-1.1,2.66-.68.68-1.62,1.1-2.66,1.1s-1.98-.42-2.66-1.1c-.68-.68-1.1-1.62-1.1-2.66,0-.46.08-.9.22-1.3.14-.39.35-.74.6-1.06.27-.29.44-.68.44-1.11,0-.89-.72-1.61-1.61-1.61h-9.5v-10.52h0Zm0,13.75v10.52c7.38,1.88,13.2,7.69,15.07,15.07h10.52v-9.5c0-.89.72-1.61,1.61-1.61.43,0,.82.17,1.11.44.32.26.68.46,1.06.6.4.15.83.22,1.3.22,1.04,0,1.98-.42,2.66-1.1.68-.68,1.1-1.62,1.1-2.66s-.42-1.98-1.1-2.66c-.68-.68-1.62-1.1-2.66-1.1-.46,0-.9.08-1.3.22-.41.15-.79.38-1.13.66-.68.57-1.69.49-2.27-.19-.28-.33-.4-.74-.38-1.13v-7.79h-5.26c.16.59.25,1.22.25,1.85,0,1.93-.78,3.67-2.05,4.94s-3.01,2.05-4.94,2.05-3.67-.78-4.94-2.05c-1.26-1.26-2.05-3.01-2.05-4.94,0-.64.09-1.26.25-1.85h-6.87Zm28.82,25.59h10.52c1.88-7.38,7.69-13.2,15.07-15.07v-10.52h-9.5c-.89,0-1.61-.72-1.61-1.61,0-.43.17-.82.44-1.11.26-.32.46-.68.6-1.06.15-.4.22-.83.22-1.3,0-1.04-.42-1.98-1.1-2.66s-1.62-1.1-2.66-1.1-1.98.42-2.66,1.1c-.68.68-1.1,1.62-1.1,2.66,0,.46.08.9.22,1.3.15.41.38.79.66,1.13.57.68.49,1.69-.19,2.27-.33.28-.74.4-1.13.38h-7.8v5.27c.6-.17,1.22-.25,1.86-.25,1.93,0,3.67.78,4.94,2.05s2.05,3.01,2.05,4.94-.78,3.67-2.05,4.94c-1.26,1.26-3.01,2.05-4.94,2.05-.64,0-1.26-.09-1.85-.25v6.87h0Zm25.59-28.82h-6.87c.16-.59.25-1.22.25-1.85,0-1.93-.78-3.67-2.05-4.94-1.26-1.26-3.01-2.05-4.94-2.05s-3.67.78-4.94,2.05-2.05,3.01-2.05,4.94c0,.64.09,1.26.25,1.86h-5.26v-7.89c0-.89-.72-1.61-1.61-1.61-.43,0-.82.17-1.11.44-.32.26-.68.46-1.06.6-.4.15-.83.22-1.3.22-1.04,0-1.98-.42-2.66-1.1-.68-.68-1.1-1.62-1.1-2.66s.42-1.98,1.1-2.66c.68-.68,1.62-1.1,2.66-1.1.46,0,.9.08,1.3.22.41.15.79.38,1.13.66.68.57,1.69.49,2.27-.19.26-.3.38-.67.38-1.04h0v-9.5h10.52c1.88,7.38,7.69,13.2,15.07,15.07v10.52ZM17.64,0c9.74,0,17.64,7.9,17.64,17.64s-7.9,17.64-17.64,17.64S0,27.38,0,17.64,7.9,0,17.64,0Zm64.72,0c-9.74,0-17.64,7.9-17.64,17.64s7.9,17.64,17.64,17.64,17.64-7.9,17.64-17.64S92.1,0,82.36,0Zm0,64.72c-9.74,0-17.64,7.9-17.64,17.64s7.9,17.64,17.64,17.64,17.64-7.9,17.64-17.64-7.9-17.64-17.64-17.64Zm-64.72,0c-9.74,0-17.64,7.9-17.64,17.64s7.9,17.64,17.64,17.64,17.64-7.9,17.64-17.64-7.9-17.64-17.64-17.64Z"></path></svg>