<svg xmlns="http://www.w3.org/2000/svg" xmlns:xlink="http://www.w3.org/1999/xlink" id="Layer_1" x="0px" y="0px" viewBox="0 0 400 400" style="enable-background:new 0 0 400 400;" xml:space="preserve"><style type="text/css">	.st0{fill:#322B6A;}</style><g>	<g>		<path class="st0" d="M140.89,347.94c1.07-10.87,2.89-21.2,2.97-31.55c0.33-44.12,0.15-88.24,0.13-132.36   c0-11.06,1.42-22.38-7.3-33.03c4.42,0,7.01,0,9.59,0c59.8,0,119.6-0.01,179.41,0.01c18.15,0,24.29,6.2,24.29,24.43   c0.01,49.44,0.01,98.87,0,148.31c0,17.72-6.34,24.18-23.76,24.18c-59.8,0.01-119.6,0.01-179.41,0.01   C144.24,347.94,141.65,347.94,140.89,347.94z M251.9,216.34c15.66,0,31.32,0,46.99,0c22.87,0,22.87,0,22.78-22.81   c-0.05-12.31-2.37-14.58-15.08-14.59c-33.98-0.01-67.96,0-101.94-0.01c-23.87,0-23.87,0-23.72,23.61   c0.07,10.84,2.83,13.73,13.63,13.77C213.67,216.39,232.78,216.34,251.9,216.34z M190.44,258.38c-0.02,11.6,2.57,14.35,13.58,14.4   c11.81,0.05,14.73-2.77,14.72-14.21c-0.01-11.15-2.95-14.08-14.14-14.09C193.29,244.47,190.46,247.25,190.44,258.38z    M298.53,272.93c11.51,0.02,14.31-2.63,14.37-13.6c0.06-11.72-2.67-14.44-14.44-14.41c-11.36,0.03-13.86,2.58-13.86,14.08   C284.61,270.42,287.1,272.91,298.53,272.93z M265.71,258.07c-0.02-11.37-2.58-13.91-13.98-13.91c-11.36,0-13.9,2.56-13.91,14.01   c-0.02,11.79,2.62,14.42,14.41,14.35C263.17,272.45,265.73,269.72,265.71,258.07z M204.96,319.21   c11.21-0.02,13.91-2.76,13.89-14.07c-0.02-11.14-2.84-13.93-14.14-13.94c-11.72-0.01-14.26,2.59-14.2,14.59   C190.56,316.81,193.17,319.24,204.96,319.21z M299.22,319.21c11.3-0.02,13.96-2.68,13.96-13.98c0-11.26-2.75-14.01-14.04-14.03   c-11.77-0.02-14.41,2.64-14.35,14.51C284.84,316.67,287.58,319.23,299.22,319.21z M251.68,319.21c12,0.03,14.29-2.15,14.34-13.61   c0.05-11.95-2.22-14.35-13.64-14.4c-11.86-0.06-14.25,2.24-14.28,13.71C238.07,316.92,240.21,319.18,251.68,319.21z"></path>		<path class="st0" d="M134.55,249.86c0,25.5,0.04,51.01-0.01,76.51c-0.03,15-6.87,21.95-21.85,22.1c-13.55,0.13-27.1,0.12-40.65,0   c-15.12-0.13-22-7-22.01-21.92c-0.04-51.01-0.04-102.02,0-153.03c0.01-14.93,7.06-22.02,21.84-22.07   c14.08-0.05,28.16-0.1,42.24,0.02c12.79,0.1,20.34,7.51,20.41,20.28C134.64,197.78,134.55,223.82,134.55,249.86z"></path>		<path class="st0" d="M241.48,132.16c-21.8,0-43.6,0.04-65.39-0.02c-10.41-0.03-13.24-2.84-13.28-13.23   c-0.07-19.67-0.07-39.34,0-59.01c0.04-10.27,2.51-12.83,12.71-12.86c27.65-0.09,55.29,0.09,82.94-0.13   c5.57-0.04,7.58,1.74,7.2,7.33c-0.42,6.08-0.13,12.22-0.09,18.34c0.1,14.45,7.13,21.63,21.38,21.75   c9.3,0.08,18.62,0.26,27.91-0.07c5.31-0.19,7.11,1.81,6.79,6.96c-0.34,5.3-0.06,10.63-0.07,15.94   c-0.03,12.69-2.25,14.98-14.69,14.99C285.08,132.17,263.28,132.16,241.48,132.16z"></path>		<path class="st0" d="M285.06,74.68c0-8.46,0-16.54,0-27.19c12.05,9.14,22.51,17.08,32.97,25.01c-0.26,0.72-0.51,1.45-0.77,2.17   C306.74,74.68,296.2,74.68,285.06,74.68z"></path>	</g></g></svg>