<svg xmlns="http://www.w3.org/2000/svg" id="Layer_1" data-name="Layer 1" viewBox="0 0 100 100"><defs><style>      .cls-1 {        fill: #322b6a;      }    </style></defs><path class="cls-1" d="m100,29.63c-.37,1.81-.56,3.67-1.13,5.41-3.65,11.16-11.25,17.92-22.92,19.52-14.73,2.02-28.32-8.4-30.51-23.05C43.13,16.08,54.12,1.88,69.71.16c.22-.02.43-.11.65-.16,1.49,0,2.99,0,4.48,0,.21.06.43.14.64.17,11.24,1.22,20.56,9.14,23.52,20.05.44,1.61.66,3.29.99,4.93v4.48Zm-14.32-2.2c.01-7.19-5.84-13.08-13.05-13.12-7.23-.04-13.17,5.87-13.17,13.1,0,7.19,5.87,13.1,13.05,13.13,7.24.03,13.16-5.86,13.17-13.1Z"></path><path class="cls-1" d="m4.41,32.5c21.03,21.01,42.03,41.99,63.05,63-2.89,2.25-6.2,3.66-9.88,4.11-7.08.87-13.11-1.3-18.13-6.35-10.97-11.04-21.96-22.06-32.94-33.08C2.13,55.77-.02,50.47.2,44.27c.15-4.4,1.61-8.37,4.21-11.77Z"></path><path class="cls-1" d="m8.76,28.12c1.85-1.91,3.64-3.87,5.56-5.71,1.17-1.12,2.77-.97,4.02.24,1.67,1.63,3.31,3.3,4.96,4.96,4.15,4.16,8.29,8.33,12.43,12.5,1.58,1.59,1.58,3.17.01,4.76-1.7,1.73-3.4,3.47-5.05,5.16-7.41-7.4-14.68-14.67-21.93-21.9Z"></path><path class="cls-1" d="m50.06,69.47c1.83-1.89,3.61-3.82,5.5-5.64,1.17-1.12,2.83-.94,4.1.31,2.35,2.33,4.68,4.69,7.01,7.03,3.43,3.45,6.87,6.9,10.3,10.35,1.57,1.58,1.57,3.18.02,4.75-1.68,1.7-3.37,3.41-5.02,5.08-7.38-7.37-14.65-14.64-21.91-21.89Z"></path><path class="cls-1" d="m72.55,20.17c4-.02,7.26,3.23,7.28,7.24.02,3.98-3.26,7.28-7.24,7.28-3.98,0-7.27-3.27-7.28-7.25,0-3.99,3.25-7.26,7.25-7.27Z"></path></svg>