<svg xmlns="http://www.w3.org/2000/svg" id="Layer_1" data-name="Layer 1" viewBox="0 0 100 100"><defs><style>      .cls-1 {        fill: #322b6a;      }    </style></defs><path class="cls-1" d="m90.73,23.02h-53.13c-5.11,0-9.27,4.16-9.27,9.27v30.11c0,5.11,4.16,9.27,9.27,9.27h3.54c1.72,0,3.13,1.4,3.13,3.13v6.96l16.55-9.65c1.05-.61-.87-.43,29.91-.43,5.11,0,9.27-4.16,9.27-9.27v-30.11c0-5.11-4.16-9.27-9.27-9.27Zm-3.54,42.5h-46.04c-1.73,0-3.13-1.4-3.13-3.13s1.4-3.13,3.13-3.13h46.04c1.73,0,3.13,1.4,3.13,3.13s-1.4,3.13-3.13,3.13Zm0-14.17h-46.04c-1.73,0-3.13-1.4-3.13-3.13s1.4-3.13,3.13-3.13h46.04c1.73,0,3.13,1.4,3.13,3.13s-1.4,3.13-3.13,3.13Zm0-14.17h-46.04c-1.73,0-3.13-1.4-3.13-3.13s1.4-3.13,3.13-3.13h46.04c1.73,0,3.13,1.4,3.13,3.13s-1.4,3.13-3.13,3.13Z"></path><path class="cls-1" d="m22.08,32.29v30.11c0,8.16,6.41,15.52,15.94,15.52v9.27c0,1.74,1.41,3.13,3.13,3.13,1.19,0,.08.45,19.89-11.11v16.84c0,2.18-1.78,3.96-3.96,3.96H3.96C1.78,100,0,98.22,0,96.04V3.96C0,1.78,1.78,0,3.96,0h8.37l1.06,3.18c.43,1.28,1.62,2.14,2.96,2.14h28.33c1.35,0,2.54-.86,2.96-2.14L48.71,0h8.37C59.27,0,61.04,1.78,61.04,3.96v12.81h-23.44c-8.56,0-15.52,6.96-15.52,15.52h0Z"></path></svg>