<svg xmlns="http://www.w3.org/2000/svg" id="Layer_1" data-name="Layer 1" viewBox="0 0 100 100"><defs><style>      .cls-1 {        fill: #322b6a;      }    </style></defs><path class="cls-1" d="m42.32,44.56c.83-3.09,4.01-4.92,7.1-4.1,1.5.4,2.74,1.36,3.52,2.7.77,1.34.98,2.9.58,4.4-.4,1.49-1.36,2.74-2.7,3.52-.89.52-1.88.78-2.89.78-.5,0-1.01-.07-1.51-.2-3.09-.83-4.92-4.01-4.1-7.1h0Zm28.51,32.46c2.35,2.72,4.58,5.29,4,8.58-.61,3.47-4.39,6.98-12.25,11.39-2.8,1.52-6.1,3.01-9.31,3.01-1.86,0-3.7-.5-5.39-1.78-.02-.01-.03-.02-.05-.04-11.34-9.31-21.75-21.88-30.12-36.37C9.36,47.33,3.68,32.03,1.29,17.55c0-.02,0-.04,0-.06-.72-5.73,4.11-9.48,8.39-12.11C17.44.78,22.37-.74,25.68.47c3.14,1.15,4.25,4.36,5.43,7.76.23.65.46,1.32.71,1.99.96,2.57,1.8,4.69,2.47,6.39,1.69,4.29,2.54,6.44,2.47,8.34-.08,2.09-1.25,3.52-3.18,5.89-1.02,1.26-2.3,2.82-3.87,5-1.55,2.15.41,9.21,4.57,16.41,4.16,7.2,9.28,12.44,11.93,12.17,2.67-.27,4.66-.59,6.26-.85,3.02-.49,4.85-.78,6.69.19,1.69.89,3.12,2.7,5.99,6.31,1.14,1.43,2.55,3.21,4.3,5.34.45.55.92,1.09,1.37,1.61h0Zm-17.04-39.84c.96,0,1.91.27,2.75.76,1.59.93,2.63,2.65,2.72,4.49.04.88-.14,1.77-.51,2.58-.51,1.1-.56,2.33-.14,3.47.42,1.14,1.25,2.04,2.35,2.55.6.28,1.25.42,1.9.42.53,0,1.06-.09,1.57-.28,1.14-.42,2.04-1.25,2.55-2.35h0c.97-2.11,1.43-4.45,1.33-6.77-.22-4.97-2.92-9.43-7.22-11.93-2.18-1.27-4.68-1.95-7.23-1.98-1.21,0-2.35.45-3.21,1.3-.86.85-1.34,1.98-1.35,3.19,0,1.21.45,2.35,1.3,3.21.85.86,1.98,1.34,3.19,1.35h0Zm16.35-19.44c-4.06-2.36-8.7-3.63-13.42-3.67h-.04c-2.48,0-4.51,2.01-4.53,4.49-.02,2.5,2,4.54,4.49,4.56,3.13.03,6.22.88,8.94,2.46,5.47,3.18,8.88,9.09,8.9,15.41.01,3.14-.8,6.24-2.35,8.97-1.23,2.17-.47,4.94,1.7,6.18.7.4,1.47.59,2.23.59,1.58,0,3.11-.83,3.95-2.29,0,0,0,0,0,0,2.32-4.1,3.54-8.75,3.52-13.45-.04-9.54-5.17-18.44-13.41-23.24h0Zm9.05-12.36C73.26,1.91,66.48.06,59.59,0c-2.49-.01-4.54,2-4.56,4.49,0,1.21.45,2.35,1.3,3.21.85.86,1.98,1.34,3.19,1.35,5.3.04,10.54,1.48,15.13,4.16,9.26,5.39,15.04,15.4,15.08,26.11.02,5.31-1.35,10.56-3.97,15.18-1.23,2.17-.47,4.94,1.7,6.17.7.4,1.47.59,2.23.59,1.58,0,3.11-.83,3.95-2.29,0,0,0,0,0,0,3.39-5.99,5.17-12.79,5.15-19.67-.05-13.93-7.56-26.94-19.59-33.94h0Z"></path></svg>