<svg xmlns="http://www.w3.org/2000/svg" id="Layer_1" data-name="Layer 1" viewBox="0 0 200 200"><defs><style>      .cls-1 {        fill: #322b6a;      }    </style></defs><path id="_1" data-name="1" class="cls-1" d="M75,179.17c0-8.33,3.33-16.67,10-21.67,1.67-.83,1.67-3.33,.83-5s-1.67-2.5-3.33-2.5H16.67C7.5,150,0,157.5,0,166.67v16.67C0,192.5,7.5,200,16.67,200h59.17c1.67,0,2.5-.83,3.33-2.5s.83-2.5,0-4.17c-2.5-4.17-4.17-9.17-4.17-14.17Zm-50,4.17c-5,0-8.33-3.33-8.33-8.33s3.33-8.33,8.33-8.33,8.33,3.33,8.33,8.33-3.33,8.33-8.33,8.33ZM183.33,91.67H16.67c-9.17,0-16.67,7.5-16.67,16.67v16.67c0,9.17,7.5,16.67,16.67,16.67H94.17c1.67,0,2.5-.83,3.33-1.67,8.33-14.17,23.33-23.33,39.17-23.33,13.33,0,25,5.83,34.17,15.83,.83,.83,1.67,1.67,2.5,1.67,5,.83,10,1.67,15,5,1.67,.83,3.33,.83,5,0,4.17-3.33,5.83-7.5,5.83-12.5v-16.67c.83-10.83-6.67-18.33-15.83-18.33ZM25,125c-5,0-8.33-3.33-8.33-8.33s3.33-8.33,8.33-8.33,8.33,3.33,8.33,8.33-3.33,8.33-8.33,8.33Zm2.5-100H173.33c1.67,0,2.5-.83,3.33-2.5s.83-3.33,0-4.17l-5.83-9.17c-3.33-5.83-10-9.17-17.5-9.17H46.67c-7.5,0-14.17,3.33-17.5,10l-5.83,8.33c-.83,1.67-.83,2.5,0,4.17,.83,1.67,2.5,2.5,4.17,2.5Zm155.83,8.33H16.67C7.5,33.33,0,40.83,0,50v16.67c0,9.17,7.5,16.67,16.67,16.67H183.33c9.17,0,16.67-7.5,16.67-16.67v-16.67c0-9.17-7.5-16.67-16.67-16.67ZM25,66.67c-5,0-8.33-3.33-8.33-8.33s3.33-8.33,8.33-8.33,8.33,3.33,8.33,8.33-3.33,8.33-8.33,8.33Zm154.17,0H112.5c-2.5,0-4.17-1.67-4.17-4.17s1.67-4.17,4.17-4.17h66.67c2.5,0,4.17,1.67,4.17,4.17s-1.67,4.17-4.17,4.17Zm-8.33,75h-2.5c-6.67-10.83-18.33-16.67-30.83-16.67-19.17,0-35,15-37.5,33.33-10,1.67-16.67,10-16.67,20.83,0,11.67,9.17,20.83,20.83,20.83h66.67c15.83,0,29.17-13.33,29.17-29.17s-13.33-29.17-29.17-29.17Z"></path></svg>