<svg xmlns="http://www.w3.org/2000/svg" id="Layer_1" data-name="Layer 1" viewBox="0 0 200 200"><defs><style>      .cls-1 {        fill: #322b6a;      }    </style></defs><path class="cls-1" d="M182.13,45.67c-5.17-3.01-10.35-5.96-15.46-8.97l-16.19-9.45c-14.5-8.42-29.06-16.91-43.56-25.39-2.11-1.26-4.27-1.87-6.5-1.87s-4.27,.6-6.32,1.74c-25.21,14.5-50.48,28.94-75.75,43.32-4.09,2.35-6.32,6.26-6.38,11.01-.06,29-.18,58.06-.36,87.06,0,4.81,2.29,8.78,6.44,11.19l14.08,8.12,.48,.3c20.28,11.85,40.61,23.65,60.89,35.5,1.93,1.14,3.97,1.68,6.08,1.74,2.17,0,4.21-.6,6.2-1.74,2.95-1.74,5.96-3.43,8.97-5.17l15.64-8.9c17.03-9.75,34.12-19.49,51.14-29.24,4.15-2.41,6.5-6.32,6.5-11.13,0-11.49,.06-22.98,.12-34.54l.06-17.69c.06-11.67,.06-23.35,.18-34.96,.06-4.63-2.23-8.6-6.26-10.95Zm-72.2,8.36c1.08,.72,2.23,1.2,3.25,1.99,3.43,2.71,5.11,6.32,5.29,10.53,.18,3.79,.06,7.58,0,11.37-.06,2.59-2.17,3.91-4.15,2.77-.78-.42-1.14-1.08-1.32-1.93-.3-1.62-.12-3.31-.12-4.99-.06-2.11,0-4.21,0-6.32,0-5.05-2.65-8.42-7.7-8.9-3.91-.36-7.88-.54-11.79,.12-3.67,.6-6.44,3.73-6.62,7.4-.12,3.73-.06,7.46-.12,11.19,0,.54-.06,1.14-.18,1.74-.3,1.32-1.26,1.93-2.47,1.99-1.26,.12-2.17-.54-2.65-1.74-.18-.42-.24-.9-.36-1.44,0-3.79-.12-7.58,.06-11.37,.3-5.78,3.37-9.87,8.54-12.39-6.38-8.06-2.89-16.49,1.81-20.1,5.42-4.21,13.18-3.79,18.05,1.08,5.17,5.17,5.42,12.76,.48,19.01ZM39.47,129.48c.66-5.11,3.67-8.66,8.36-10.89-4.15-5.54-4.69-11.25-1.56-16.37,4.03-6.56,12.76-8.6,19.13-4.45,6.62,4.27,8.36,12.94,3.85,19.31-.96,1.38-.78,1.68,.6,2.53,4.33,2.65,6.8,6.56,6.74,11.79-.06,3.73-.06,7.4-.06,11.07,0,1.93-1.02,3.19-2.59,3.25-1.62,.06-2.89-1.26-2.89-3.25-.06-3.55,0-7.16,0-10.71,0-5.05-3.61-8.72-8.66-8.72-3.43,0-6.92-.42-10.35,.12-4.63,.72-7.28,4.09-7.34,8.84-.06,3.55,0,7.16-.06,10.71,0,1.56-1.14,2.77-2.53,2.89-1.38,.06-2.89-1.08-2.89-2.53,0-4.51-.3-9.09,.24-13.6Zm45.31-12.45c-.84,.54-1.62,1.08-2.71,.72-1.14-.36-1.87-1.14-2.05-2.29-.18-1.2,.36-2.17,1.44-2.83,4.69-2.89,9.33-5.84,14.08-8.66,1.14-.66,1.44-1.44,1.44-2.71-.06-4.39,0-8.78,0-13.18v-.96c.06-2.29,1.14-3.61,2.89-3.55,1.74,.06,2.77,1.38,2.77,3.67,.06,2.41,0,4.87,0,7.28s0,4.63-.06,6.98c-.06,1.08,.3,1.74,1.26,2.35,4.69,2.89,9.39,5.9,14.14,8.84,1.2,.72,1.68,1.74,1.5,3.07-.18,1.2-1.08,1.87-2.17,2.17s-1.87-.3-2.71-.84c-4.51-2.83-9.09-5.66-13.6-8.54-.9-.6-1.56-.66-2.47-.06-4.57,2.89-9.15,5.72-13.78,8.54Zm75.21,25.87c0,1.93-1.14,3.25-2.77,3.31-1.56,.06-2.71-1.38-2.71-3.37,.06-3.43,.06-6.8,.06-10.23,0-5.42-3.55-9.09-8.97-9.09-2.77-.06-5.6-.06-8.42-.06-5.29,0-8.9,3.55-8.9,8.78,0,3.61,0,7.28-.06,10.89,0,1.32-.66,2.35-2.05,2.77-1.26,.42-2.17-.18-2.95-1.08-.48-.54-.48-1.2-.48-1.87v-6.68c.18-2.17-.3-4.81,.3-7.46,.96-4.09,3.25-7.16,6.92-9.15,1.2-.66,1.14-1.02,.36-2.05-6.02-8.12-1.08-19.98,8.9-21.54,5.66-.9,11.01,1.68,14.08,6.68,2.71,4.45,2.41,10.53-.9,14.92-.84,1.14-.54,1.44,.48,2.05,4.75,2.77,7.1,6.92,7.16,12.64,0,3.49-.06,7.04-.06,10.53Z"></path><path class="cls-1" d="M108.12,45.07c-.06,4.51-3.67,8-8.3,7.94-4.57-.06-8.06-3.73-8-8.42,0-4.51,3.73-8,8.3-7.94,4.63,.06,8.06,3.67,8,8.42Z"></path><path class="cls-1" d="M66.18,109.39c.06,4.63-3.61,8.18-8.42,8.12-4.33-.06-8-3.85-8-8.18,.06-4.51,3.79-8.18,8.36-8.12,4.51,.06,8.12,3.67,8.06,8.18Z"></path><path class="cls-1" d="M149.64,109.63c.06,4.51-3.79,8.24-8.42,8.18-4.45-.06-8.12-3.79-8.06-8.24,.06-4.51,3.79-8.12,8.36-8.06,4.51,.06,8.12,3.61,8.12,8.12Z"></path></svg>