<svg xmlns="http://www.w3.org/2000/svg" id="Layer_1" data-name="Layer 1" viewBox="0 0 200 200"><defs><style>      .cls-1 {        fill: #322b6a;      }    </style></defs><path class="cls-1" d="M196,165.14c0-5.7-4.59-10.29-10.29-10.29H14.29c-5.7,0-10.29,4.59-10.29,10.29v20.57c0,5.7,4.59,10.29,10.29,10.29H185.71c5.7,0,10.29-4.59,10.29-10.29v-20.57ZM24.57,189.14c-7.59,0-13.71-6.13-13.71-13.71s6.13-13.71,13.71-13.71,13.71,6.13,13.71,13.71-6.13,13.71-13.71,13.71Zm65.14-10.29H48.57c-1.89,0-3.43-1.54-3.43-3.43s1.54-3.43,3.43-3.43h41.14c1.89,0,3.43,1.54,3.43,3.43s-1.54,3.43-3.43,3.43Zm24,3.43h-6.86v-13.71h6.86v13.71Zm13.71,0h-6.86v-13.71h6.86v13.71Zm13.71,0h-6.86v-13.71h6.86v13.71Zm13.71,0h-6.86v-13.71h6.86v13.71Zm13.71,0h-6.86v-13.71h6.86v13.71Zm13.71,0h-6.86v-13.71h6.86v13.71Z"></path><path class="cls-1" d="M31.43,127.43c0,3.77-3.09,6.86-6.86,6.86s-6.86-3.09-6.86-6.86,3.09-6.86,6.86-6.86,6.86,3.09,6.86,6.86Z"></path><path class="cls-1" d="M195.06,52l-11.36-45.39c-.39-1.54-1.76-2.61-3.34-2.61H19.64c-1.59,0-2.96,1.07-3.34,2.61L4.94,52H195.06Zm-29.91-41.14h13.71c1.89,0,3.43,1.54,3.43,3.43s-1.54,3.43-3.43,3.43h-13.71c-1.89,0-3.43-1.54-3.43-3.43s1.54-3.43,3.43-3.43Zm-144,0H151.43c1.89,0,3.43,1.54,3.43,3.43s-1.54,3.43-3.43,3.43H21.14c-1.89,0-3.43-1.54-3.43-3.43s1.54-3.43,3.43-3.43Z"></path><path class="cls-1" d="M31.43,79.43c0,3.77-3.09,6.86-6.86,6.86s-6.86-3.09-6.86-6.86,3.09-6.86,6.86-6.86,6.86,3.09,6.86,6.86Z"></path><path class="cls-1" d="M4,89.71c0,5.7,4.59,10.29,10.29,10.29H185.71c5.7,0,10.29-4.59,10.29-10.29v-30.86H4v30.86Zm171.43-17.14h6.86v13.71h-6.86v-13.71Zm-13.71,0h6.86v13.71h-6.86v-13.71Zm-13.71,0h6.86v13.71h-6.86v-13.71Zm-13.71,0h6.86v13.71h-6.86v-13.71Zm-13.71,0h6.86v13.71h-6.86v-13.71Zm-13.71,0h6.86v13.71h-6.86v-13.71Zm-58.29,3.43h41.14c1.89,0,3.43,1.54,3.43,3.43s-1.54,3.43-3.43,3.43H48.57c-1.89,0-3.43-1.54-3.43-3.43s1.54-3.43,3.43-3.43Zm-24-10.29c7.59,0,13.71,6.13,13.71,13.71s-6.13,13.71-13.71,13.71-13.71-6.13-13.71-13.71,6.13-13.71,13.71-13.71Z"></path><path class="cls-1" d="M196,117.14c0-5.7-4.59-10.29-10.29-10.29H14.29c-5.7,0-10.29,4.59-10.29,10.29v20.57c0,5.7,4.59,10.29,10.29,10.29H185.71c5.7,0,10.29-4.59,10.29-10.29v-20.57ZM24.57,141.14c-7.59,0-13.71-6.13-13.71-13.71s6.13-13.71,13.71-13.71,13.71,6.13,13.71,13.71-6.13,13.71-13.71,13.71Zm65.14-10.29H48.57c-1.89,0-3.43-1.54-3.43-3.43s1.54-3.43,3.43-3.43h41.14c1.89,0,3.43,1.54,3.43,3.43s-1.54,3.43-3.43,3.43Zm24,3.43h-6.86v-13.71h6.86v13.71Zm13.71,0h-6.86v-13.71h6.86v13.71Zm13.71,0h-6.86v-13.71h6.86v13.71Zm13.71,0h-6.86v-13.71h6.86v13.71Zm13.71,0h-6.86v-13.71h6.86v13.71Zm13.71,0h-6.86v-13.71h6.86v13.71Z"></path><path class="cls-1" d="M31.43,175.43c0,3.77-3.09,6.86-6.86,6.86s-6.86-3.09-6.86-6.86,3.09-6.86,6.86-6.86,6.86,3.09,6.86,6.86Z"></path></svg>
