<svg xmlns="http://www.w3.org/2000/svg" id="Layer_1" data-name="Layer 1" viewBox="0 0 200 200" version="1.1" xmlns:xlink="http://www.w3.org/1999/xlink"><defs><style>      .cls-1 {        fill: #322b6a;      }    </style></defs><path class="cls-1" d="M79.21,76.41c15.32,0,27.78-12.46,27.78-27.78s-12.46-27.78-27.78-27.78-27.78,12.46-27.78,27.78,12.46,27.78,27.78,27.78Zm3.47-24.31h-6.95c-5.77,0-10.42-4.65-10.42-10.42s4.65-10.42,10.42-10.42v-3.47h6.95v3.47c5.77,0,10.42,4.65,10.42,10.42h-6.95c0-1.91-1.56-3.47-3.47-3.47h-6.95c-1.91,0-3.47,1.56-3.47,3.47s1.56,3.47,3.47,3.47h6.95c5.77,0,10.42,4.65,10.42,10.42s-4.65,10.42-10.42,10.42v3.47h-6.95v-3.47c-5.77,0-10.42-4.65-10.42-10.42h6.95c0,1.91,1.56,3.47,3.47,3.47h6.95c1.91,0,3.47-1.56,3.47-3.47s-1.56-3.47-3.47-3.47Z"></path><path class="cls-1" d="M27.11,159.76h104.19v-62.51H27.11v62.51Zm83.35-55.57h13.89v6.95h-13.89v-6.95Zm-62.51,0h55.57v6.95H47.95v-6.95Zm-13.89,13.89H124.35v6.95H34.06v-6.95Zm0,13.89H124.35v6.95H34.06v-6.95Zm0,13.89H124.35v6.95H34.06v-6.95Z"></path><g><path class="cls-1" d="M27.11,0C19.43,0,13.22,6.21,13.22,13.89V196.53l7.94-7.94c1.35-1.35,3.56-1.35,4.91,0l11.42,11.42,11.42-11.42c1.35-1.35,3.56-1.35,4.91,0l11.42,11.42,11.42-11.42c1.35-1.35,3.56-1.35,4.91,0l11.42,11.42,11.42-11.42c1.35-1.35,3.56-1.35,4.91,0l11.42,11.42,11.42-11.42c1.35-1.35,3.56-1.35,4.91,0l7.94,7.94V17.36C144.97,10.81,147.58,4.56,152.27,0H27.11Zm52.09,13.89c19.19,0,34.73,15.54,34.73,34.73s-15.54,34.73-34.73,34.73-34.73-15.54-34.73-34.73S60.02,13.89,79.21,13.89Zm59.04,149.34c0,1.91-1.56,3.47-3.47,3.47H23.64c-1.91,0-3.47-1.56-3.47-3.47V93.77c0-1.91,1.56-3.47,3.47-3.47h111.14c1.91,0,3.47,1.56,3.47,3.47v69.46Z"></path><path class="cls-1" d="M169.5,0C159.91,0,152.14,7.77,152.14,17.36v54.14l4.47-4.47c1.35-1.35,3.56-1.35,4.91,0l7.94,7.94,7.94-7.94c1.35-1.35,3.56-1.35,4.91,0l4.47,4.47V17.36C186.87,7.77,179.1,0,169.5,0Z"></path></g></svg>