<svg xmlns="http://www.w3.org/2000/svg" id="Layer_1" data-name="Layer 1" viewBox="0 0 200 200"><defs><style>      .cls-1 {        fill: #322b6a;      }    </style></defs><path class="cls-1" d="M161.27,200.01h-9.37c-3.32-.59-6.66-1.03-9.94-1.78-14.36-3.29-27.48-9.55-39.82-17.39-33.67-21.4-61.28-48.96-82.74-82.59-7.65-11.99-13.82-24.73-17.23-38.64-.93-3.77-1.45-7.64-2.16-11.46,0-3.12,0-6.25,0-9.37,.4-2.03,.68-4.08,1.21-6.07C3.59,23.78,7.74,15.96,16.47,11.86,24.98,7.85,33.68,4.22,42.46,.83c5.85-2.27,12.49,.31,15.74,5.81,6.84,11.59,13.57,23.24,20.2,34.95,3.25,5.74,1.92,12.85-2.92,17.07-1.12,.98-2.42,1.75-3.68,2.56-12.23,7.85-14.81,22.08-5.92,33.56,3.42,4.42,7.04,8.7,10.81,12.83,9.1,9.96,18.75,19.35,29.64,27.36,8.76,6.45,20.36,5.84,28.11-1.52,2.09-1.99,3.77-4.46,5.38-6.88,4.3-6.46,12.05-8.64,18.8-4.83,11.6,6.55,23.14,13.23,34.62,19.99,5.81,3.43,8.24,10.15,5.82,16.41-3.02,7.81-6.36,15.5-9.65,23.2-3.99,9.34-11.48,14.5-20.95,17.15-2.36,.66-4.79,1.03-7.19,1.53Z"></path><path class="cls-1" d="M171,75.34c-1.26,0-1.94,0-2.62,0-10.09,0-20.17,.04-30.26-.01-13.61-.07-24.21-8.39-27.01-21.17-.35-1.58-.56-3.22-.57-4.83-.05-13.6-.05-27.2-.02-40.79,0-4.05,2.76-7.55,6.38-8.33,4.13-.89,8.16,.95,9.7,4.7,.59,1.45,.78,3.15,.79,4.74,.06,12.75,.02,25.5,.04,38.26,.01,5.23,2.78,8.97,7.43,10.15,.5,.13,1.02,.24,1.53,.24,11.32,.01,22.64,.01,34.26,.01-.41-.53-.66-.93-.98-1.25-2.89-2.91-5.82-5.78-8.69-8.71-3.61-3.68-3.73-8.77-.34-12.22,3.34-3.39,8.63-3.39,12.23,.17,8.18,8.11,16.33,16.25,24.43,24.44,3.58,3.63,3.57,8.59,0,12.2-8.1,8.18-16.25,16.33-24.43,24.44-3.61,3.58-8.83,3.55-12.21,.07-3.31-3.41-3.21-8.51,.3-12.07,3.17-3.23,6.4-6.4,10.03-10.02Z"></path></svg>