<svg xmlns="http://www.w3.org/2000/svg" id="Layer_1" data-name="Layer 1" viewBox="0 0 200 200"><defs><style>      .cls-1 {        fill: #322b6a;      }    </style></defs><circle class="cls-1" cx="43.75" cy="93.75" r="31.25"></circle><path class="cls-1" d="M49.61,160.31l-5.86,5.86-5.86-5.86,3.32-22.93c.86,.12,1.68,.12,2.58,.12s1.68,0,2.58-.12l3.24,22.93Z"></path><path class="cls-1" d="M87.5,152.19v35.31c0,6.87-5.62,12.5-12.5,12.5H12.5C5.63,200,0,194.37,0,187.5v-35.31c0-11.13,4.61-21.17,11.99-28.36,4.61,4.92,10.39,8.75,16.87,11.05l-3.83,26.76c-.23,1.95,.39,3.87,1.76,5.31l12.5,12.5c1.25,1.17,2.81,1.8,4.45,1.8s3.2-.62,4.45-1.8l12.5-12.5c1.37-1.45,1.99-3.36,1.76-5.31l-3.83-26.76c6.48-2.3,12.27-6.13,16.87-11.05,7.38,7.19,11.99,17.23,11.99,28.36h0Z"></path><circle class="cls-1" cx="118.75" cy="81.25" r="25"></circle><path class="cls-1" d="M188,63.44h-7.81c-1.33-4.49-3.12-8.87-5.43-13.05l5.55-5.51c2.27-2.3,3.52-5.31,3.52-8.52s-1.25-6.17-3.52-8.52l-8.2-8.2c-4.57-4.49-12.42-4.49-16.99,0l-5.51,5.59c-4.18-2.3-8.55-4.14-13.05-5.43v-7.81C136.56,5.36,131.13,0,124.49,0h-11.48c-6.64,0-12.07,5.39-12.07,11.99v7.81c-4.49,1.33-8.87,3.12-13.05,5.43l-5.51-5.55c-4.57-4.49-12.42-4.49-16.99,0l-8.2,8.2c-2.27,2.3-3.52,5.31-3.52,8.52s1.25,6.17,3.52,8.52l5.55,5.51c-.55,1.05-1.13,2.11-1.64,3.24,8.98,3.87,16.37,10.7,21.05,19.26,3.83-16.68,18.75-29.14,36.56-29.14,20.7,0,37.5,16.8,37.5,37.5s-16.8,37.5-37.5,37.5c-13.52,0-25.31-7.11-31.87-17.81-.74,4.45-2.11,8.63-4.14,12.5l1.48,1.45c7.7,7.5,12.73,16.99,14.8,27.26,.62,.2,1.25,.39,1.87,.55v7.81c0,6.64,5.43,11.99,12.07,11.99h11.48c6.64,0,12.07-5.39,12.07-11.99v-7.81c4.49-1.33,8.87-3.12,13.05-5.43l5.51,5.55c4.57,4.49,12.42,4.49,16.99,0l8.2-8.2c2.27-2.3,3.52-5.31,3.52-8.52s-1.25-6.17-3.52-8.52l-5.47-5.51c2.3-4.18,4.14-8.55,5.43-13.05h7.81c6.64,0,11.99-5.43,11.99-12.07v-11.48c0-6.64-5.39-12.07-11.99-12.07h0Z"></path></svg>