<svg xmlns="http://www.w3.org/2000/svg" id="Layer_1" data-name="Layer 1" viewBox="0 0 200 200"><defs><style>      .cls-1 {        fill: #322b6a;      }    </style></defs><path class="cls-1" d="M149.85,97.27c-3.63,8.45-8.86,14.23-14.67,15.34v-18.63c5.08,.24,10.04,1.37,14.67,3.3h0Zm5.14-25.25h-19.81v17.87c5.59,.24,11.04,1.46,16.14,3.56,2.14-6.25,3.48-13.6,3.67-21.43h0Zm.08,23.18c3.04,1.58,5.92,3.5,8.59,5.73,7.55-7.44,12.39-17.62,12.92-28.9h-17.5c-.19,8.33-1.58,16.28-4,23.18Zm-3.23,7.44c-2.02,3.79-4.33,6.87-6.86,9.19,5.78-1.64,11.07-4.44,15.6-8.14-2.19-1.79-4.54-3.34-7.01-4.66-.54,1.25-1.12,2.45-1.74,3.61h0Zm-.52-56.12c-5.1,2.11-10.54,3.32-16.14,3.55v17.87h19.81c-.2-7.82-1.53-15.17-3.67-21.42h0Zm-16.14-19.17v18.63c5.1-.23,10.04-1.34,14.68-3.28-3.63-8.46-8.86-14.24-14.68-15.35h0Zm16.66,9.97c.62,1.16,1.19,2.37,1.74,3.62,1.16-.62,2.3-1.29,3.41-2.02-.66-1.7-.66-3.6,0-5.3-3.74-2.46-7.78-4.3-12.03-5.5,2.53,2.32,4.85,5.41,6.88,9.2h0ZM62.64,137.2c-1.09-1.09-2.54-1.69-4.07-1.69s-2.99,.6-4.07,1.69c-1.09,1.09-1.69,2.54-1.69,4.07s.6,2.99,1.69,4.07c2.25,2.25,5.9,2.25,8.15,0,1.09-1.09,1.69-2.54,1.69-4.07s-.6-2.99-1.69-4.07h0Zm-3.46-90.97c1.05-.13,2.02,.56,2.25,1.59l1.18,5.39,14.02-17.65-20.1-10.19,1.09,5c.12,.53,.02,1.09-.28,1.55-.3,.46-.76,.78-1.3,.89-16.6,3.45-28,10.56-32.97,20.55-3.39,6.81-3.74,14.95-1.09,23.86,3.11-17.84,15.59-28.25,37.2-30.98h0Zm15.6,152.97c3.44,1.52,7.23,.82,9.9-1.83l11.8-11.74c1.23-1.22,1.91-2.86,1.91-4.6,0-1.74-.67-3.38-1.89-4.61l-9.87-9.93c-2.53-2.55-6.66-2.56-9.21-.02l-6.97,6.93c-1.8,1.79-4.61,2.03-6.69,.59-14.87-10.33-27.6-23.13-37.85-38.05-1.43-2.09-1.17-4.9,.63-6.69l6.96-6.93c2.55-2.53,2.56-6.66,.02-9.21l-9.87-9.93c-1.27-1.28-2.94-1.92-4.62-1.92s-3.32,.63-4.59,1.89l-11.8,11.74c-2.67,2.65-3.39,6.44-1.88,9.89,14.54,33.26,40.83,59.69,74.01,74.4h0ZM159.08,67.94h17.5c-.43-9.21-3.78-18.04-9.56-25.22-1.01,.51-2.12,.79-3.29,.79-1.54,0-3-.48-4.23-1.37-1.44,.96-2.92,1.83-4.43,2.62,2.42,6.9,3.81,14.85,4,23.17Zm-27.98,44.67v-18.63c-5.08,.24-10.04,1.37-14.67,3.3,3.63,8.45,8.86,14.23,14.67,15.34Zm-16.66-9.97c-.62-1.16-1.19-2.36-1.73-3.61-2.47,1.31-4.82,2.87-7.01,4.65,4.54,3.7,9.83,6.51,15.61,8.14-2.53-2.32-4.84-5.4-6.86-9.19Zm49.29-63.21c.84,0,1.64-.33,2.24-.93,.6-.6,.93-1.39,.93-2.24s-.33-1.64-.93-2.24c-.6-.6-1.39-.93-2.24-.93s-1.64,.33-2.24,.93c-1.23,1.23-1.23,3.24,0,4.47,.6,.6,1.39,.93,2.24,.93h0Zm-47.3,3.26c4.63,1.93,9.59,3.06,14.67,3.3V27.36c-5.81,1.11-11.04,6.89-14.67,15.34h0Zm-5.14,25.25h19.81v-17.87c-5.59-.24-11.04-1.46-16.14-3.56-2.14,6.25-3.48,13.6-3.67,21.43h0Zm3.67,25.51c5.09-2.11,10.55-3.32,16.14-3.56v-17.87h-19.81c.2,7.83,1.53,15.18,3.67,21.43Zm-7.76-21.43h-17.5c.52,11.29,5.37,21.46,12.92,28.9,2.66-2.23,5.54-4.15,8.58-5.73-2.42-6.9-3.81-14.85-4-23.18h0Zm4-27.26c-3.04-1.58-5.92-3.5-8.58-5.73-7.55,7.44-12.39,17.62-12.92,28.9h17.5c.19-8.33,1.58-16.27,4-23.17Zm-24.25,68.12c-7.54-7.54-18.15-11.02-29.88-9.82-1.12,.12-1.93,1.12-1.82,2.24s1.12,1.94,2.24,1.82c10.48-1.08,19.92,1.99,26.57,8.64,6.65,6.65,9.72,16.09,8.64,26.58-.11,1.12,.7,2.12,1.82,2.24,.07,0,.14,.01,.21,.01,1.03,0,1.92-.78,2.03-1.83,1.2-11.73-2.28-22.34-9.82-29.88Zm-8.09,8.09c-5.77-5.77-13.88-8.44-22.85-7.52-1.12,.11-1.94,1.12-1.82,2.24,.11,1.12,1.11,1.93,2.24,1.82,7.72-.79,14.66,1.46,19.55,6.35,4.89,4.89,7.14,11.83,6.35,19.55-.11,1.12,.7,2.13,1.82,2.24,.07,0,.14,0,.21,0,1.03,0,1.92-.78,2.03-1.83,.92-8.97-1.75-17.08-7.52-22.85h0Zm-8.09,8.09c-4.01-4.01-9.63-5.87-15.83-5.22-1.12,.11-1.93,1.12-1.82,2.24,.11,1.12,1.11,1.94,2.24,1.82,4.96-.51,9.4,.93,12.53,4.05,3.12,3.12,4.56,7.57,4.05,12.52-.12,1.12,.7,2.12,1.82,2.24,.07,0,.14,.01,.21,.01,1.03,0,1.92-.78,2.02-1.83,.64-6.2-1.22-11.82-5.22-15.82h0ZM190.51,9.49C183.4,2.37,173.39-.91,162.33,.22c-1.12,.12-1.93,1.12-1.82,2.24,.11,1.12,1.12,1.94,2.24,1.82,9.82-1.01,18.65,1.87,24.88,8.09,6.23,6.22,9.1,15.06,8.09,24.88-.11,1.12,.7,2.12,1.82,2.24,.07,0,.14,.01,.21,.01,1.03,0,1.92-.78,2.03-1.83,1.13-11.06-2.16-21.07-9.27-28.18h0Zm-7.61,7.61c-5.45-5.45-13.11-7.98-21.58-7.11-1.12,.11-1.93,1.11-1.82,2.24s1.11,1.93,2.24,1.82c7.22-.74,13.71,1.37,18.28,5.93s6.68,11.06,5.93,18.28c-.12,1.12,.7,2.12,1.82,2.24,.07,0,.14,.01,.21,.01,1.03,0,1.92-.78,2.02-1.83,.87-8.47-1.65-16.13-7.11-21.58Zm-7.61,7.61c-3.79-3.8-9.11-5.55-14.98-4.95-1.12,.11-1.94,1.12-1.82,2.24,.11,1.12,1.11,1.94,2.24,1.82,4.62-.47,8.77,.87,11.67,3.78,2.91,2.91,4.25,7.05,3.78,11.67-.12,1.12,.7,2.12,1.82,2.24,.07,0,.14,.01,.21,.01,1.03,0,1.92-.78,2.02-1.83,.6-5.87-1.15-11.18-4.95-14.98Zm-1.36,102.16c-3.11,17.84-15.59,28.25-37.2,30.98-1.05,.13-2.02-.56-2.25-1.59l-1.18-5.39-14.02,17.65,20.1,10.19-1.09-5c-.12-.53-.02-1.09,.28-1.55,.3-.46,.76-.78,1.3-.89,16.6-3.45,28-10.56,32.97-20.55,3.39-6.81,3.74-14.95,1.09-23.86h0ZM114.44,37.32c2.02-3.79,4.33-6.87,6.86-9.19-5.78,1.64-11.07,4.44-15.61,8.15,2.19,1.79,4.54,3.34,7.01,4.65,.54-1.25,1.12-2.45,1.73-3.61Z"></path></svg>