<svg xmlns="http://www.w3.org/2000/svg" id="Layer_1" data-name="Layer 1" viewBox="0 0 200 200"><defs><style>      .cls-1 {        fill: #322b6a;      }    </style></defs><path class="cls-1" d="M33.07,.02c2.3,0,4.25,0,6.21,0,28.44,0,56.89,.08,85.33-.09,4.17-.02,7.08,1.21,9.91,4.23,9.72,10.38,19.76,20.46,29.49,30.82,1.48,1.58,2.82,4.06,2.83,6.13,.15,52.08,.11,104.16,.09,156.23,0,.77-.19,1.54-.34,2.72H33.07V.02ZM99.59,188.01c15.41,0,30.81,.03,46.22-.02,6.8-.02,8.32-1.45,8.33-7.95,.04-25.81-.06-51.62,.07-77.43,.03-5.63-2.35-7.98-7.9-7.96-30.81,.08-61.62,.01-92.43,.07-6.89,.01-8.32,1.56-8.33,8.61-.03,25.41-.03,50.82,0,76.23,0,7.03,1.41,8.43,8.43,8.45,15.21,.04,30.41,.01,45.62,0ZM56.5,41.39c0-6.59,0-13.17,0-19.76,0-3.77-1.82-6.4-5.59-6.37-3.82,.03-5.41,2.75-5.4,6.51,.04,13.17,.05,26.35,.01,39.52,0,3.66,1.21,6.51,5.22,6.61,4.33,.1,5.76-2.85,5.76-6.75,0-6.59,0-13.17,0-19.76Zm10.6,3.99c0,5.41,0,10.82,0,16.22,0,3.72,1.63,6.89,5.48,6.1,2.13-.43,5.13-3.67,5.23-5.76,.52-10.99,.52-22.03,0-33.02-.1-2.11-3.06-5.38-5.18-5.82-3.78-.78-5.55,2.29-5.55,6.05,0,5.41,0,10.82,.01,16.22Zm21.57,3.93h-.02c0,4.18-.58,8.49,.23,12.51,.46,2.29,3.2,4.13,4.91,6.17,1.92-1.86,5.37-3.62,5.51-5.6,.61-8.72,.6-17.54-.01-26.26-.14-1.97-3.63-3.71-5.58-5.56-1.68,1.87-4.43,3.54-4.81,5.64-.76,4.25-.23,8.73-.23,13.11Zm21.52,4.38c0,2.99-.68,6.2,.22,8.89,.71,2.13,3.16,4.7,5.18,5.04,1.49,.25,4.91-2.62,5.09-4.35,.63-6.1,.62-12.34-.01-18.44-.18-1.74-3.55-4.65-5.01-4.41-2.04,.34-4.47,2.85-5.26,4.98-.91,2.45-.21,5.5-.21,8.28Z"></path><path class="cls-1" d="M142.84,176.8h-26.67v-29.5h26.67v29.5Z"></path><path class="cls-1" d="M142.82,106.29v29.3h-26.75v-29.3h26.75Z"></path><path class="cls-1" d="M104.24,176.8h-7.38V106.21c2.32-.12,4.6-.24,7.38-.39v70.99Z"></path><path class="cls-1" d="M85.02,154.68h-28.18v-20.31h28.18v20.31Z"></path><path class="cls-1" d="M56.78,122.32v-16.07h28.39v16.07h-28.39Z"></path><path class="cls-1" d="M85.11,176.77h-28.2v-10.44h28.2v10.44Z"></path></svg>