<svg xmlns="http://www.w3.org/2000/svg" id="Layer_1" data-name="Layer 1" viewBox="0 0 200 200"><defs><style>      .cls-1 {        fill: #322b6a;      }    </style></defs><path class="cls-1" d="M193.4,79.84l-5.86-10.08c-1.52-2.81-5.16-3.75-7.97-2.23l-9.96,5.86c-3.28-2.81-6.91-4.92-11.02-6.45v-7.97c0-3.28-2.58-5.86-5.86-5.86h-11.72c-3.28,0-5.86,2.58-5.86,5.86v7.97c-4.1,1.52-7.73,3.63-11.02,6.45l-13.13-7.5-11.72,20.39,13.13,7.27c-.47,2.11-.7,4.22-.7,6.45s.23,4.34,.59,6.45l-13.01,7.27,11.72,20.39,13.13-7.5c3.28,2.81,6.91,4.92,11.02,6.45v7.97c0,3.28,2.58,5.86,5.86,5.86h11.72c3.28,0,5.86-2.58,5.86-5.86v-7.97c4.1-1.52,7.73-3.63,11.02-6.45l9.96,5.86c2.81,1.52,6.45,.59,7.97-2.23l5.86-10.08c1.64-2.81,.7-6.45-2.11-8.09l-9.84-5.62c.35-2.11,.59-4.22,.59-6.45s-.23-4.34-.7-6.45l9.96-5.63c2.81-1.64,3.75-5.27,2.11-8.09Zm-24.84,12.54l-23.44,23.44c-1.05,1.17-2.58,1.76-4.1,1.76s-3.05-.59-4.1-1.76l-11.72-11.72c-2.34-2.23-2.34-5.98,0-8.2,2.23-2.34,5.98-2.34,8.2,0l7.62,7.5,19.34-19.22c2.23-2.34,5.98-2.34,8.2,0,2.34,2.23,2.34,5.98,0,8.2Z"></path><path class="cls-1" d="M88.7,118.79l-12.84,7.34c-3.28-2.81-6.91-4.92-11.02-6.45v-13.83h-23.44v13.83c-4.1,1.52-7.73,3.63-11.02,6.45l-9.96-5.86c-2.81-1.52-6.45-.59-7.97,2.23l-5.86,10.08c-1.64,2.81-.7,6.45,2.11,8.09l9.96,5.62c-.47,2.11-.7,4.22-.7,6.45s.23,4.34,.59,6.45l-9.84,5.62c-2.81,1.64-3.75,5.27-2.11,8.09l5.86,10.08c1.52,2.81,5.16,3.75,7.97,2.23l9.96-5.86c3.28,2.81,6.91,4.92,11.02,6.45v7.97c0,3.28,2.58,6.25,5.86,6.25h11.72c3.28,0,5.86-2.97,5.86-6.25v-7.97c4.1-1.52,7.73-3.63,11.02-6.45l9.96,5.86c2.81,1.52,6.45,.59,7.97-2.23l5.86-10.08c1.64-2.81,.7-6.45-2.11-8.09l-9.84-5.62c.35-2.11,.59-4.22,.59-6.45s-.23-4.34-.7-6.45l12.84-7.11-11.71-20.39Zm-13.86,26.36l-23.44,23.44c-1.14,1.14-2.64,1.72-4.14,1.72s-3-.57-4.14-1.72l-11.72-11.72c-2.29-2.29-2.29-6,0-8.29s6-2.29,8.29,0l7.58,7.58,19.29-19.29c2.29-2.29,6-2.29,8.29,0,2.29,2.29,2.29,6,0,8.29Z"></path><path class="cls-1" d="M64.84,94.14v-13.83c4.1-1.52,7.73-3.63,11.02-6.45l12.84,7.34,11.71-20.39-12.72-7.11c.35-2.11,.59-4.22,.59-6.45s-.23-4.34-.7-6.45l9.96-5.63c2.81-1.64,3.75-5.27,2.11-8.09l-5.86-10.08c-1.52-2.81-5.16-3.75-7.97-2.23l-9.96,5.86c-3.28-2.81-6.91-4.92-11.02-6.45V5.86c0-3.28-2.58-5.86-5.86-5.86h-11.72c-3.28,0-5.86,2.58-5.86,5.86V14.22c-4.1,1.52-7.73,3.63-11.02,6.45l-9.96-5.86c-2.81-1.52-6.45-.59-7.97,2.23l-5.86,10.08c-1.64,2.81-.7,6.45,2.11,8.09l9.96,5.62c-.47,2.11-.7,4.22-.7,6.45s.23,4.34,.59,6.45l-9.84,5.62c-2.81,1.64-3.75,5.27-2.11,8.09l5.86,10.08c1.52,2.81,5.16,3.75,7.97,2.23l9.96-5.86c3.28,2.81,6.91,4.92,11.02,6.45v13.83h23.44ZM31.45,51.37c-2.34-2.23-2.34-5.98,0-8.2,2.23-2.34,5.98-2.34,8.2,0l7.62,7.5,19.34-19.22c2.23-2.34,5.98-2.34,8.2,0,2.34,2.23,2.34,5.98,0,8.2l-23.44,23.44c-1.06,1.17-2.58,1.76-4.1,1.76s-3.05-.59-4.1-1.76l-11.72-11.72Z"></path></svg>