<svg xmlns="http://www.w3.org/2000/svg" id="Layer_1" data-name="Layer 1" viewBox="0 0 200 200"><defs><style>      .cls-1 {        fill: #322b6a;      }    </style></defs><path class="cls-1" d="M199.96,169.75c0,6.05,.01,12.09,0,18.14-.02,7.69-4.48,12.3-12.2,12.1-68.08-1.82-120.99-31.29-158.53-87.94C13.64,88.5,4.7,62.27,1.42,34.21,.55,26.76,.22,19.23,0,11.72-.19,4.8,4.63,.09,11.51,.06,24.1,0,36.69-.01,49.28,.04c7.09,.03,11.51,4.39,11.72,11.45,.38,12.98,1.93,25.77,6.09,38.14,1.79,5.33,.56,9.8-3.5,13.74-7.17,6.97-14.12,14.15-21.27,21.14-1.59,1.55-1.85,2.73-.75,4.74,16.3,29.93,39.38,53.02,69.36,69.27,2.15,1.16,3.24,.59,4.69-.89,7.11-7.21,14.32-14.3,21.43-21.5,3.75-3.8,8.04-5.04,13.13-3.31,12.36,4.2,25.15,5.76,38.14,6.15,7.37,.22,11.62,4.53,11.67,11.89,.05,6.29,0,12.59,0,18.88h-.02Z"></path><path class="cls-1" d="M133.12,22.17V55.32h-32.94v-10.77h21.7v-11.07h-21.68V.25h32.79V11.1h-21.69v11.07h21.81Z"></path><path class="cls-1" d="M199.7,33.46h-21.85v21.87h-11.02V.22h32.86V33.46Zm-11.18-11.34V11.42h-10.44v10.71h10.44Z"></path><path class="cls-1" d="M155.26,55.42h-10.68V.34h10.68V55.42Z"></path></svg>