<svg xmlns="http://www.w3.org/2000/svg" id="Layer_1" data-name="Layer 1" viewBox="0 0 200 200"><defs><style>      .cls-1 {        fill: #322b6a;      }    </style></defs><path class="cls-1" d="M29.02,130.02v32.28c-7.62,0-15.07,.27-22.48-.11-4-.21-5.94-3.39-6.37-7.19-.28-2.41-.12-4.88-.12-7.32,0-21.98,0-43.96,0-65.94,0-12.81,1.72-14.56,14.33-14.56,57.04,0,114.09,0,171.13,0,1.92,0,3.85-.09,5.75,.12,5.79,.66,8.6,3.37,8.63,9.17,.14,25.64,.14,51.29,.04,76.93-.02,6.12-2.98,8.83-9.13,8.94-6.43,.11-12.87,.02-19.67,.02v-32.43c2.54,0,5.09,.5,7.28-.17,1.63-.5,3.95-2.56,3.9-3.85-.07-1.73-1.84-3.75-3.41-4.95-1.04-.79-3.02-.45-4.58-.45-49.54-.02-99.09-.02-148.63,0-1.39,0-3.21-.36-4.07,.35-1.64,1.36-3.62,3.31-3.76,5.14-.09,1.22,2.57,3.2,4.36,3.85,1.84,.67,4.13,.15,6.8,.15Zm145.98-25.18c7.43,.12,13.46-5.6,13.52-12.84,.06-6.94-5.74-12.98-12.74-13.27-7.06-.29-13.42,5.86-13.48,13.03-.06,7.11,5.62,12.96,12.7,13.08Z"></path><path class="cls-1" d="M38.76,130.37h122.48c0,10.1,0,19.98,0,29.85,0,4.36,.03,8.72-.01,13.08-.08,7.69-3.03,10.72-10.83,10.77-15.34,.09-30.69,.03-46.04,.03-17.79,0-35.57,.01-53.36,0-9.81-.01-12.23-2.49-12.23-12.43,0-13.59,0-27.18,0-41.29Zm61.79,21.52c13.41,0,26.83-.03,40.24,.02,3.53,.01,7.17-.15,7.25-4.65,.08-4.48-3.43-4.9-7.04-4.88-13.06,.07-26.13,.03-39.19,.03-14.63,0-29.26-.04-43.9,.02-4.67,.02-7.58,3.17-5.53,6.21,1.17,1.73,4.16,3.07,6.37,3.12,13.93,.28,27.87,.14,41.8,.14Zm-.71,19.91c6.98,0,13.96,0,20.94,0,7.33,0,14.68,.29,21.97-.22,1.83-.13,3.48-2.86,5.21-4.4-1.68-1.62-3.27-3.34-5.09-4.78-.54-.43-1.69-.09-2.57-.09-27.05,0-54.09,.02-81.14-.03-3.59,0-7.19,.3-7.27,4.71-.08,4.46,3.5,4.85,7.11,4.83,13.61-.06,27.22-.03,40.83-.03Z"></path><path class="cls-1" d="M38.84,57.23c0-11.45-.07-22.42,.03-33.39,.05-4.76,2.93-7.81,7.45-7.84,28.38-.2,56.76-.1,85.46-.1,1.6,8.24-1.76,17.26,4.86,24.11,6.77,7.01,15.67,4.18,24.15,5.19v12.02H38.84Z"></path><path class="cls-1" d="M152.98,35.12c-10.02,.37-11.82-1.66-10.37-10.85,3.41,3.57,6.54,6.84,10.37,10.85Z"></path></svg>