<svg xmlns="http://www.w3.org/2000/svg" xmlns:xlink="http://www.w3.org/1999/xlink" id="Layer_1" x="0px" y="0px" viewBox="0 0 400 400" style="enable-background:new 0 0 400 400;" xml:space="preserve"><style type="text/css">	.st0{fill:#322B6A;}	.st1{fill-rule:evenodd;clip-rule:evenodd;fill:#322B6A;}</style><g>	<path class="st0" d="M225.01,177.62c-15.49-12.74-38.37-11.67-52.7,2.45c-13.52,13.32-15.88,36.07-4.98,49.82  c2.97-1.97,5.97-3.95,8.9-5.89c-7.07-16.08-5.02-28.61,5.94-37.63c9.57-7.87,23.54-8.45,33.8-1.4c11.79,8.1,14.72,20.41,8.79,37.5  c2.99,1.73,6.01,3.48,9.25,5.36C244.1,212.33,239.96,189.91,225.01,177.62z"></path>	<path class="st0" d="M169.44,165.82c-14.9-10.79-29.4-21.28-44.08-31.91c-2.33,3.25-4.41,6.16-6.57,9.18  c14.81,10.72,29.33,21.23,44.05,31.88C165.1,171.84,167.14,169.01,169.44,165.82z"></path>	<path class="st0" d="M230.59,165.85c2.29,3.16,4.38,6.04,6.62,9.13c14.87-10.77,29.38-21.28,44.07-31.92  c-2.27-3.14-4.38-6.05-6.62-9.14C259.87,144.64,245.36,155.15,230.59,165.85z"></path>	<path class="st0" d="M194.53,160.86c3.73,0,7.29,0,10.88,0c0-9.41,0-18.61,0-27.87c-3.71,0-7.19,0-10.88,0  C194.53,142.5,194.53,151.62,194.53,160.86z"></path>	<path class="st0" d="M154.11,71.15c1.06,0.61,2.44,1.35,2.81,2.35c1.29,3.43-0.19,6.61-3.57,8.55c-4.1,2.36-4.83,4.16-3.46,8.71  c2.35,7.79,6.39,14.6,12.04,20.44c3.5,3.62,5.16,3.83,9.62,1.42c5.39-2.92,10.16-0.21,10.3,5.85c0.1,4.49,1.44,6.23,5.67,7.22  c7.78,1.82,15.57,2.05,23.4,0.29c6.21-1.39,7.11-2.47,7.29-8.75c0.03-1.11,0.06-2.53,0.7-3.26c2.47-2.79,6.21-3.17,9.64-1.29  c4.18,2.29,6.05,2.04,9.35-1.35c5.25-5.38,9.13-11.61,11.6-18.71c2.29-6.57,1.82-7.74-4.18-11.38c-0.97-0.59-2.11-1.68-2.26-2.68  c-0.51-3.45-0.38-6.61,3.89-8.14c3.07-1.09,4.5-3.73,3.56-7.12c-2.45-8.79-6.93-16.4-13.45-22.79c-2.19-2.15-4.67-2.55-7.39-1.06  c-1.54,0.84-3.05,1.74-4.81,2.74c-5.79-3.31-5.81-3.31-6.77-9.72c-0.47-3.11-2.39-4.69-5.29-5.36c-8.01-1.83-16.03-2.14-24.1-0.27  c-5.7,1.32-6.73,2.56-6.9,8.36c-0.04,1.22-0.03,2.79-0.74,3.58c-2.56,2.86-6.06,3.18-9.63,1.26c-4.22-2.27-5.98-2.03-9.34,1.4  c-5.53,5.63-9.48,12.23-11.95,19.71C148.33,66.57,149.05,68.23,154.11,71.15z M200.41,53.79c12.42,0.19,22.37,10.55,22.17,23.08  c-0.2,12.38-10.66,22.35-23.16,22.07c-12.27-0.27-22.12-10.53-21.98-22.9C177.57,63.61,187.91,53.6,200.41,53.79z"></path>	<path class="st0" d="M200.06,87.65c6.1-0.01,11.22-5.14,11.22-11.25c0-6.17-5-11.23-11.16-11.3c-6.15-0.07-11.28,4.92-11.39,11.06  C188.62,82.46,193.76,87.66,200.06,87.65z"></path>	<path class="st0" d="M75.64,53.79C47.82,53.76,25.1,76.56,25,104.59c-0.1,27.82,22.81,50.83,50.61,50.83  c28.16,0.01,51-22.75,50.98-50.8C126.58,76.49,103.85,53.83,75.64,53.79z M86.39,128.82c-3.44,2.49-6.34,4.56-4.76,9.48  c-3.94,0-7.43,0-11.11,0c-0.1-0.33-0.38-0.78-0.32-1.16c0.63-3.67-0.85-5.75-4.14-7.69c-4.71-2.77-6.87-7.52-7.16-13.3  c3.68,0,7.26,0,10.97,0c0.3,0.72,0.58,1.62,1.03,2.41c1.4,2.41,3.57,3.48,6.25,2.77c2.65-0.7,4.24-2.6,4.22-5.4  c-0.01-2.96-1.68-4.85-4.52-5.52c-1.7-0.4-3.52-0.31-5.21-0.75c-6.77-1.79-10.99-6.22-12.41-13.02  c-1.37-6.56,0.61-12.38,5.98-16.26c3.44-2.49,6.33-4.56,4.76-9.46c3.95,0,7.43,0,10.95,0c0.12,0.14,0.41,0.33,0.39,0.49  c-0.44,3.9,0.76,6.46,4.51,8.61c4.6,2.64,6.59,7.45,6.86,13.07c-3.69,0-7.27,0-10.99,0c-0.16-0.42-0.33-0.97-0.56-1.48  c-1.35-3.01-4.03-4.57-6.72-3.74c-2.77,0.86-4.32,2.8-4.23,5.78c0.1,2.93,2.3,4.96,5.56,5.32c1.4,0.16,2.82,0.23,4.17,0.59  c6.76,1.8,11,6.21,12.42,13.01C93.72,119.11,91.75,124.94,86.39,128.82z"></path>	<path class="st0" d="M227.29,294.74c-0.02-6.44-2.79-9.79-9.27-11.19l-5.71-1.23v37.22h-1.95l0-112.12c0-0.27,0.01-0.54,0.01-0.82  c0.03-0.99,0.06-2.23-0.18-3.55c-0.97-5.39-4.87-8.75-10.2-8.76c-5.27,0-9.17,3.33-10.17,8.7c-0.23,1.25-0.21,2.4-0.18,3.33  c0.01,0.24,0.01,0.47,0.01,0.71c0,16.58,0,59.09,0,59.09h-1.76v-22.34h-4.71c-0.69,0-1.36-0.02-2.01-0.04  c-0.71-0.02-1.4-0.04-2.08-0.04c-1.12,0-2.05,0.05-2.95,0.17c-5.46,0.69-9.01,4.97-9.05,10.9c-0.04,5.63-0.03,11.35-0.02,16.88  l0,5.73h-1.73v-22.39h-4.71l-2.96-0.01c-0.55,0-1.09,0-1.62,0.01c-7.41,0.13-11.51,4.24-11.55,11.56  c-0.03,5.36-0.02,10.72-0.02,16.17l0,2.3h-1.81v-18.81l-4.98,0.29c-9.22,0.53-15.7,6.98-15.75,15.68c-0.1,17.66-0.06,35.3,0,53.33  c0.01,2.18,0.84,4.18,1.54,5.48c0.72,1.33,1.53,2.49,2.31,3.61c0.27,0.4,0.55,0.79,0.82,1.19c6.56,9.82,7.71,13.77,6.82,23.49  l-0.47,5.14h77.48l-0.03-5.28c-0.03-4.69-0.06-9.53,0.13-14.23c0.11-0.21,0.43-0.73,1.29-1.64c1.86-1.96,3.82-3.91,5.73-5.81  c2.2-2.19,4.48-4.46,6.66-6.8c1.81-1.94,2.99-4.84,3.02-7.41c0.13-12.55,0.1-25.29,0.07-37.61L227.29,294.74z"></path>	<path class="st0" d="M324.43,53.8c-28.05-0.16-50.92,22.58-51.03,50.75c-0.11,27.69,22.6,50.7,50.22,50.87  c28.22,0.17,51.25-22.43,51.38-50.41C375.12,76.81,352.56,53.96,324.43,53.8z M340.35,139.84c0.64-1.32,0.69-3.36,0.89-6.96  c0.73-13.06-4.46-18.02-16.89-16.98c-1.76,0-3.53-0.03-5.29,0c-6.95,0.12-11.67,4.82-11.77,11.76c-0.05,3.29,0.11,6.59-0.06,9.88  c-0.05,0.86,0.05,1.53,0.31,2.08c-4.35-2.05-8.25-4.86-11.53-8.28c-0.79-10.49,2.93-18.67,11.82-24.04  c-5.31-10.15-3.91-19.82,3.56-26.22c6.93-5.93,17.14-6.33,24.48-0.92c3.62,2.67,6.05,6.2,7.3,10.52c1.72,5.87,0.52,11.34-2.5,16.44  c9.74,8.02,10.55,9.51,11.97,23.91C349.18,134.72,345,137.72,340.35,139.84z"></path>	<path class="st0" d="M323.98,87.68c-4.49,0.11-8.2,3.91-8.22,8.41c-0.03,4.65,3.86,8.54,8.48,8.49c4.65-0.05,8.47-3.95,8.41-8.59  C332.59,91.36,328.62,87.56,323.98,87.68z"></path></g></svg>