<svg xmlns="http://www.w3.org/2000/svg" xmlns:xlink="http://www.w3.org/1999/xlink" id="Layer_1" x="0px" y="0px" viewBox="0 0 400 400" style="enable-background:new 0 0 400 400;" xml:space="preserve"><style type="text/css">	.st0{fill:#322B6A;}	.st1{fill-rule:evenodd;clip-rule:evenodd;fill:#322B6A;}</style><g>	<path class="st0" d="M199.8,138.73c-16.06,0.02-29.35,13.3-29.44,29.41c-0.08,16.28,13.17,29.65,29.47,29.72  c16.33,0.07,29.77-13.18,29.8-29.38C229.66,152.04,216.3,138.71,199.8,138.73z"></path>	<path class="st0" d="M340.23,170.22c-8.38-0.79-16.75-1.64-25.1-2.6c-1.04-0.12-2.55-0.78-2.88-1.59  c-3.08-7.47-5.96-15.03-9.06-22.99c5.66-6.97,11.75-14.45,17.81-21.95c2.73-3.37,2.65-5.17-0.36-8.18  c-11.08-11.09-22.17-22.16-33.28-33.22c-3.15-3.14-4.85-3.2-8.4-0.34c-6.85,5.51-13.72,11-20.48,16.62  c-1.51,1.26-2.55,1.17-4.25,0.39c-5.9-2.68-11.83-5.37-17.95-7.47c-2.84-0.97-3.85-2.28-4.09-5.09c-0.68-8.18-1.59-16.33-2.44-24.5  c-0.51-4.89-1.81-6.03-6.8-6.03c-15.12,0-30.23,0-45.35,0c-5.83,0-6.89,1.05-7.44,6.9c-0.8,8.36-1.73,16.7-2.55,25.06  c-0.17,1.7-0.8,2.5-2.55,3.16c-6.59,2.5-13.11,5.23-19.55,8.1c-1.54,0.69-2.47,0.69-3.75-0.36c-6.71-5.53-13.48-10.99-20.25-16.45  c-4.14-3.34-5.57-3.27-9.27,0.42c-10.76,10.73-21.51,21.47-32.27,32.2c-3.84,3.83-3.9,5.19-0.43,9.45  c5.9,7.26,11.79,14.53,17.35,21.37c-2.98,7.43-5.96,14.45-8.56,21.59c-0.75,2.05-1.66,2.84-3.72,3.03  c-8.28,0.76-16.55,1.69-24.83,2.46c-2.76,0.26-5.3,0.72-6.77,3.42c0,17.58,0,35.15,0,52.73c1.41,2.56,3.81,3.14,6.49,3.39  c8.28,0.77,16.54,1.7,24.81,2.45c2.25,0.2,3.31,1.05,4.13,3.31c2.24,6.17,4.78,12.24,7.57,18.18c1.02,2.17,0.81,3.44-0.66,5.19  c-5.52,6.58-10.89,13.29-16.3,19.97c-2.82,3.48-2.71,5.17,0.49,8.37c11.01,11,22.03,22,33.06,32.99c3.2,3.19,4.9,3.31,8.4,0.49  c6.63-5.32,13.27-10.63,19.79-16.08c1.89-1.58,3.24-1.9,5.68-0.72c6,2.89,12.24,5.32,18.49,7.64c1.84,0.68,2.53,1.52,2.7,3.35  c0.79,8.35,1.73,16.69,2.52,25.05c0.26,2.76,0.73,5.29,3.42,6.76c17.61,0,35.22,0,52.83,0c2.56-1.42,3.15-3.8,3.4-6.47  c0.77-8.26,1.7-16.5,2.46-24.77c0.2-2.24,1.05-3.31,3.32-4.13c6.26-2.28,12.42-4.87,18.47-7.67c2-0.92,3.13-0.72,4.72,0.6  c6.68,5.55,13.47,10.98,20.24,16.43c3.49,2.81,5.2,2.71,8.4-0.47c11.03-10.99,22.05-21.98,33.06-32.99  c3.19-3.19,3.29-4.91,0.48-8.39c-5.52-6.83-11.04-13.66-16.64-20.43c-1.15-1.39-1.4-2.39-0.56-4.22c2.9-6.31,5.56-12.74,8.02-19.23  c0.7-1.84,1.53-2.52,3.36-2.69c8.37-0.79,16.73-1.73,25.1-2.51c2.76-0.26,5.29-0.73,6.77-3.42c0-17.58,0-35.15,0-52.73  C345.53,170.94,342.99,170.48,340.23,170.22z M251.48,260.89c-14.98,12.35-32.18,18.53-51.52,18.81  c-19.31-0.32-36.4-6.46-51.3-18.7c-1.83-1.5-2.2-2.77-1.46-5.03c7.4-22.34,28.94-37.76,52.89-37.72  c23.96,0.04,45.52,15.57,52.76,37.9C253.52,258.21,253.23,259.45,251.48,260.89z M262.52,249c-12.93-27.26-34.04-42.65-64.72-41.79  c-28.66,0.8-48.27,16.09-60.33,41.87c-24.15-29.46-24.17-76.73,7.64-106.87c31.34-29.69,80.77-29.06,110.96,1.07  C287.56,174.71,285.52,221.59,262.52,249z"></path></g></svg>
