<svg xmlns="http://www.w3.org/2000/svg" xmlns:xlink="http://www.w3.org/1999/xlink" id="Layer_1" x="0px" y="0px" viewBox="0 0 400 400" style="enable-background:new 0 0 400 400;" xml:space="preserve"><style type="text/css">	.st0{fill:#322B6A;}	.st1{fill-rule:evenodd;clip-rule:evenodd;fill:#322B6A;}</style><g>	<path class="st0" d="M152.72,310.05c-12.08-0.01-17.67-5.56-17.67-17.52c0-28.81,0-57.62,0-86.42c0-33.24,0-66.48,0-99.73  c0-1.9,0-3.79,0-6.41c-2.14,0-3.59,0-5.04,0c-23.94,0-47.89,0-71.83,0.01c-7.04,0-8.18,1.15-8.18,8.24c0,67.99,0,135.97,0,203.96  c0,6.61,1.15,7.78,7.68,7.78c31.48,0.01,62.96,0.01,94.44,0c7.21,0,9.08-2.53,7.1-9.9C157.12,310.05,154.92,310.05,152.72,310.05z   M95.7,121.77c2.98-1.38,5.04-2.72,4.32-6.55c3.34,0,6.37,0,9.65,0c0.27,1.43,0.53,2.84,0.88,4.68c3.69,0,7.46,0,11.6,0  c0,3.42,0,6.42,0,10.07c-6.15,0-12.29,0.04-18.43-0.01c-3.42-0.03-5.98,1.25-6.1,4.88c-0.1,3.04,1.74,4.88,5,5  c2.5,0.09,5.04,0.05,7.5,0.47c6.65,1.15,11.37,6.2,12.28,12.82c0.86,6.22-2.58,12.28-8.25,15.45c-2.03,1.13-3.53,3.2-5.28,4.84  c0.17,0.49,0.34,0.97,0.51,1.46c-2.91,0-5.82,0-8.98,0c-0.27-1.52-0.52-2.92-0.87-4.85c-3.79,0-7.69,0-11.84,0c0-3.53,0-6.53,0-10  c5.66,0,11.09,0,16.51,0c5.83,0,8.36-1.5,8.09-5.08c-0.38-5.05-4.19-4.94-7.84-4.85c-7.15,0.16-12.75-2.49-15.76-9.2  C85.4,133.6,88.41,125.14,95.7,121.77z M124.73,304.99c-5.5,0-10.77,0-16.04,0c-7.83,0-15.66,0.11-23.48-0.05  c-8.71-0.17-15.06-6.31-15.35-14.55c-0.28-7.97,6.22-15.12,14.61-15.29c13.26-0.26,26.53-0.07,40.16-0.07c0,3.21,0,6.08,0,9.61  c-1.3,0.12-2.8,0.37-4.29,0.38c-11.37,0.03-22.74-0.03-34.11,0.05c-4.63,0.03-7.57,3.26-5.66,6.5c1,1.71,3.88,3.2,5.94,3.25  c12.54,0.3,25.09,0.15,38.23,0.15C124.73,298.42,124.73,301.43,124.73,304.99z M65.26,234.59c0-3.21,0-6.09,0-9.29  c3.21,0,6.2,0,9.44,0c0,3.18,0,6.07,0,9.29C71.67,234.59,68.57,234.59,65.26,234.59z M124.61,245.39c0,2.99,0,6,0,9.33  c-12.97,0-26.03,0-39.59,0c0-3.18,0-6.07,0-9.33C98.18,245.39,111.21,245.39,124.61,245.39z M85.06,234.8c0-3.26,0-6.28,0-9.57  c13.28,0,26.34,0,39.67,0c0,3.26,0,6.28,0,9.57C111.43,234.8,98.36,234.8,85.06,234.8z M124.74,199.78c-19.93,0-39.62,0-59.54,0  c0-3.18,0-6.08,0-9.4c19.76,0,39.55,0,59.54,0C124.74,193.5,124.74,196.51,124.74,199.78z"></path>	<path class="st0" d="M349.99,107.8c0-6.55-1.22-7.83-7.73-7.83c-24.09-0.01-48.18,0-72.28,0.02c-1.57,0-3.14,0.17-4.76,0.26  c0,38.49,0,76.51,0,114.66c3.38,0.15,6.41,0.29,9.61,0.43c0,3.36,0,6.25,0,9.67c-3.37,0-6.51,0-9.64,0c0,3.56,0,6.59,0,9.81  c3.29,0.23,6.33,0.44,9.53,0.67c0,3.28,0,6.28,0,9.7c-3.39,0-6.41,0-9.51,0c0,3.46,0,6.48,0,9.96c3.31,0,6.34,0,9.49,0  c0,3.47,0,6.46,0,9.89c-3.37,0-6.39,0-9.78,0c0,10.01,0.04,19.6-0.01,29.18c-0.05,9.69-6.04,15.66-15.79,15.81  c-2.91,0.04-5.83,0.01-8.64,0.01c-1.25,8.14,0.18,9.89,7.76,9.9c31.04,0.02,62.08,0.02,93.12,0.01c7.89,0,8.62-0.77,8.62-8.62  C350,243.49,350,175.64,349.99,107.8z M286.59,121.09c1.82-0.93,3.04-3.05,4.54-4.62c-0.29-0.38-0.57-0.77-0.86-1.15  c3.01,0,6.03,0,9.37,0c0.22,1.25,0.47,2.64,0.84,4.72c1.86,0,3.86,0,5.85,0c1.89,0,3.78,0,5.96,0c0,3.39,0,6.39,0,9.96  c-6.49,0-12.79,0-19.09,0c-3.35,0-5.46,1.61-5.48,4.98c-0.01,3.45,2.23,4.91,5.54,4.89c1.48-0.01,2.96-0.06,4.43,0.03  c5.71,0.35,10.2,2.85,13.01,7.9c4.2,7.55,1.14,16.93-6.66,20.67c-1.19,0.57-2.43,1.01-3.73,1.54c-0.15,1.51-0.29,2.95-0.47,4.69  c-3.14,0-6.18,0-9.48,0c-0.26-1.35-0.52-2.76-0.9-4.72c-3.76,0-7.64,0-11.76,0c0-3.44,0-6.33,0-9.97c5.31,0,10.55,0.01,15.79-0.01  c1.62-0.01,3.64,0.49,4.77-0.28c1.72-1.18,3.94-3.3,3.87-4.94c-0.07-1.61-2.48-3.56-4.31-4.53c-1.39-0.74-3.47-0.16-5.24-0.22  c-7.55-0.26-13.35-5.07-14.79-12.24C276.43,130.88,280,124.45,286.59,121.09z M275.08,194.55c0.07-1.3,0.01-2.61,0.01-4.45  c20.15,0,39.74,0,59.64,0c0,3.29,0,6.3,0,9.64c-1.33,0.09-2.61,0.24-3.89,0.24c-16.83,0.01-33.66,0-50.49,0  C274.77,199.98,274.78,199.98,275.08,194.55z M285.31,224.79c0-3.17,0-6.17,0-9.47c16.41,0,32.71,0,49.36,0c0,2.95,0,5.95,0,9.47  C318.19,224.79,301.89,224.79,285.31,224.79z M319.8,235.28c0,3.21,0,6.12,0,9.42c-11.47,0-22.85,0-34.51,0c0-3.1,0-6.11,0-9.42  C296.79,235.28,308.19,235.28,319.8,235.28z M315.05,304.93c-13.12,0.16-26.24,0.04-39.69,0.04c0-3.4,0-6.42,0-10.01  c3.36,0,6.71,0,10.06,0c9.01,0,18.02-0.06,27.03,0.02c3.65,0.03,7.05-0.18,7.41-4.86c0.27-3.47-2.27-5.08-7.65-5.08  c-10.78-0.01-21.57,0-32.35,0c-1.44,0-2.88,0-4.58,0c0-3.5,0-6.52,0-10.03c6.39,0,12.56,0,18.72,0c6.94-0.01,13.89-0.14,20.83,0  c8.74,0.18,15.41,6.88,15.32,15.14C330.06,298.38,323.68,304.82,315.05,304.93z M334.75,264.68c-16.46,0-32.75,0-49.54,0  c0-3.22,0-6.13,0-9.36c16.45,0,32.85,0,49.54,0C334.75,258.4,334.75,261.4,334.75,264.68z"></path>	<path class="st0" d="M180.98,274.98c12.67,0.01,25.34,0.01,38.01,0.01c3.44,0,5.91-1.47,5.84-5.11c-0.07-3.64-2.66-4.93-6.04-4.92  c-6.34,0.01-12.67,0-19.01,0c0-0.01,0-0.02,0-0.03c-6.19,0-12.38-0.03-18.56,0.01c-3.29,0.02-6,1.2-6.07,4.92  C175.09,273.55,177.57,274.97,180.98,274.98z"></path>	<path class="st0" d="M145.18,208.62c-0.06,27.94-0.14,55.87-0.17,83.81c-0.01,6.22,1.38,7.57,7.53,7.57  c31.49,0.02,62.99,0.02,94.48,0.02c6.71,0,7.99-1.28,7.98-8.05c-0.05-31.77-0.16-63.54-0.15-95.32c0-36.37,0.11-72.74,0.15-109.11  c0.01-6.19-1.31-7.5-7.54-7.5c-31.49-0.01-62.99-0.01-94.48,0c-6.87,0-7.98,1.12-7.98,7.95c-0.01,34,0,68,0,102  c0.06,0,0.13,0,0.19,0C145.18,196.21,145.19,202.42,145.18,208.62z M185.54,204.85c-0.22-0.44-0.45-0.69-0.46-0.94  c-0.39-8.97-0.38-8.94,8.35-8.94c12.53,0.01,25.06-0.04,37.58-0.05c1.16,0,2.33,0.12,3.98,0.21c0,3.42,0,6.34,0,9.71  C218.49,204.85,201.97,204.85,185.54,204.85z M234.82,220.21c0,3.3,0,6.33,0,9.62c-16.55,0-32.85,0-49.53,0c0-3.12,0-6.26,0-9.62  C201.59,220.21,217.94,220.21,234.82,220.21z M190.86,101.44c2.03-1.14,3.54-3.2,5.28-4.85c-0.27-0.43-0.54-0.86-0.81-1.29  c3.03,0,6.05,0,9.32,0c0.26,1.38,0.52,2.76,0.86,4.55c3.79,0,7.58,0,11.72,0c0,3.43,0,6.44,0,10.25c-4.86,0-9.82,0-14.77,0  c-1.62,0-3.25-0.04-4.87,0.04c-2.91,0.15-4.82,1.62-4.91,4.62c-0.09,3.18,1.83,4.87,4.88,5.18c1.76,0.18,3.54,0.05,5.31,0.11  c7.19,0.22,12.97,5.06,14.42,12.06c1.35,6.56-2.09,13.78-8.49,16.34c-3.03,1.21-4.23,2.73-3.65,6.13c-3.37,0-6.51,0-9.87,0  c-0.22-1.31-0.43-2.58-0.74-4.46c-3.78,0-7.68,0-11.82,0c0-3.61,0-6.63,0-10.25c6,0,11.85-0.08,17.71,0.03  c3.6,0.07,6.65-0.53,6.95-4.87c0.22-3.24-2.32-4.98-6.82-5.08c-2.2-0.05-4.47,0.04-6.6-0.44c-6.23-1.42-10.75-6.76-11.44-13.15  C181.85,110.39,185.34,104.54,190.86,101.44z M165.31,170.22c23.03,0,46.12,0,69.48,0c0,3.12,0,6.16,0,9.56  c-23.39,0-46.26,0-69.48,0C165.31,176.59,165.31,173.56,165.31,170.22z M165.21,199.94c0.04-1.46,0.14-2.92,0.24-4.96  c3.18,0.15,6.16,0.28,9.36,0.43c0,3.3,0,6.2,0,9.68c-3.38-0.2-6.29-0.38-9.61-0.58C165.2,202.82,165.17,201.38,165.21,199.94z   M174.79,220.46c0,3.19,0,6.06,0,9.27c-3.06,0-6.04,0-9.39,0c0-3.12,0-6.08,0-9.27C168.59,220.46,171.57,220.46,174.79,220.46z   M180.11,255.04c13.28-0.11,26.56-0.09,39.84,0.01c8.64,0.07,15.15,6.75,15.1,15.21c-0.05,8.09-6.67,14.63-15.12,14.76  c-6.79,0.1-13.57,0.02-20.36,0.01c-6.49-0.01-12.99,0.08-19.48-0.03c-8.48-0.13-14.99-6.56-15.12-14.76  C164.85,261.91,171.47,255.11,180.11,255.04z"></path></g></svg>