<svg xmlns="http://www.w3.org/2000/svg" xmlns:xlink="http://www.w3.org/1999/xlink" id="Layer_1" x="0px" y="0px" viewBox="0 0 400 400" style="enable-background:new 0 0 400 400;" xml:space="preserve"><style type="text/css">	.st0{fill:#322B6A;}	.st1{fill-rule:evenodd;clip-rule:evenodd;fill:#322B6A;}</style><g>	<path class="st0" d="M252.96,246.72H147.66c-2.2,0-3.99,1.93-3.99,4.31c0,2.38,1.79,4.32,3.99,4.32h105.31c2.21,0,4-1.94,4-4.32  C256.97,248.65,255.17,246.72,252.96,246.72z"></path>	<path class="st0" d="M252.96,261.88H147.66c-2.2,0-3.99,1.93-3.99,4.31c0,2.38,1.79,4.32,3.99,4.32h105.31c2.21,0,4-1.94,4-4.32  C256.97,263.81,255.17,261.88,252.96,261.88z"></path>	<path class="st0" d="M252.96,276.32H147.66c-2.2,0-3.99,1.93-3.99,4.31c0,2.38,1.79,4.32,3.99,4.32h105.31c2.21,0,4-1.94,4-4.32  C256.97,278.25,255.17,276.32,252.96,276.32z"></path>	<path class="st0" d="M207.1,232.76c11.2-1.26,21.46-5.84,29.98-12.46c-4.1-3.31-8.68-6.15-13.57-8.2  C219.25,219.82,213.73,226.76,207.1,232.76z"></path>	<path class="st0" d="M225.56,207.99c5.36,2.37,10.41,5.36,14.99,9.15c11.04-10.41,17.99-24.77,18.62-40.87h-26.03  C232.82,187.63,230.14,198.36,225.56,207.99z"></path>	<path class="st0" d="M233.14,171.54h26.03c-0.63-15.94-7.57-30.45-18.62-40.87c-4.42,3.63-9.62,6.78-14.99,9.15  C230.14,149.61,232.82,160.18,233.14,171.54z"></path>	<path class="st0" d="M223.51,135.88c4.89-2.21,9.47-4.89,13.57-8.2l0,0c-8.52-6.78-18.78-11.2-29.98-12.62  C213.57,121.05,219.25,127.99,223.51,135.88z"></path>	<path class="st0" d="M202.37,117.1v23.51c5.84-0.32,11.36-1.42,16.73-3.16C214.83,129.72,209.15,122.78,202.37,117.1z"></path>	<path class="st0" d="M221.3,141.56c-6,2.21-12.31,3.31-18.93,3.63v26.35l26.19,0C228.25,160.81,225.72,150.71,221.3,141.56z"></path>	<path class="st0" d="M228.56,176.27h-26.19v26.35v0c6.63,0.32,12.94,1.42,18.93,3.63C225.72,197.1,228.25,187,228.56,176.27z"></path>	<path class="st0" d="M219.09,210.36c-5.21-1.89-10.89-3-16.73-3.16v23.51C209,225.03,214.68,218.09,219.09,210.36z"></path>	<path class="st0" d="M163.08,220.14c8.36,6.78,18.62,11.36,29.98,12.47c-6.47-5.84-12.15-12.78-16.41-20.67  C171.76,214.14,167.18,216.82,163.08,220.14L163.08,220.14z"></path>	<path class="st0" d="M197.63,230.71V207.2c-5.84,0.32-11.36,1.42-16.73,3.16C185.17,218.09,190.85,225.03,197.63,230.71z"></path>	<path class="st0" d="M178.7,206.25c6-2.21,12.31-3.31,18.93-3.63v-26.35h-26.19C171.76,187,174.28,197.1,178.7,206.25z"></path>	<path class="st0" d="M197.63,145.19L197.63,145.19c-6.47-0.16-12.94-1.42-18.93-3.63c-4.42,9.15-6.94,19.25-7.26,29.98h26.19  V145.19z"></path>	<path class="st0" d="M180.91,137.46c5.36,1.89,10.89,2.84,16.73,3.16V117.1C191.01,122.78,185.33,129.72,180.91,137.46z"></path>	<path class="st0" d="M193.06,115.05c-11.36,1.42-21.62,5.84-29.98,12.46c4.1,3.31,8.68,6.15,13.57,8.2  C180.91,127.99,186.43,121.05,193.06,115.05z"></path>	<path class="st0" d="M174.44,139.98c-5.36-2.37-10.41-5.36-14.99-9.15c-10.89,10.26-17.99,24.77-18.62,40.87h26.04  C167.18,160.34,169.86,149.61,174.44,139.98z"></path>	<path class="st0" d="M174.44,207.99c-4.58-9.78-7.26-20.35-7.57-31.72h-26.03c0.63,16.09,7.73,30.45,18.62,40.87  C163.87,213.51,169.07,210.35,174.44,207.99z"></path>	<path class="st0" d="M295.85,58.71c-0.68-9.81-4.96-17.77-12.12-24.41c-5.54-5.14-12.29-7.53-19.39-9.29c-42.6,0-85.2,0-127.79,0  c-0.29,0.17-0.55,0.46-0.86,0.49c-17.49,2.62-32.14,18.47-31.64,38.57c0.6,24.23,0.14,48.5,0.14,72.75  c0,66.27,0.35,132.54-0.19,198.81c-0.19,22.6,17.69,39.73,39.59,39.37c37.8-0.62,75.61-0.15,113.43-0.33  c4.6-0.02,9.38-0.59,13.76-1.96c15.28-4.77,25.04-18.67,25.06-35.28c0.09-91.44,0.13-182.87,0.18-274.3  C295.99,61.66,295.95,60.18,295.85,58.71z M184.66,46.89c5.34-0.04,10.69-0.01,16.04-0.01c5.23,0,10.47-0.04,15.69,0.01  c4.08,0.04,6.53,2.07,6.61,5.33c0.08,3.38-2.45,5.56-6.71,5.57c-10.58,0.04-21.16,0.04-31.74,0c-4.14-0.02-6.49-2-6.56-5.33  C177.93,48.99,180.35,46.92,184.66,46.89z M166.58,47.15c2.95-0.01,5.49,2.52,5.44,5.42c-0.05,2.96-2.58,5.35-5.57,5.27  c-2.98-0.08-5.38-2.63-5.25-5.57C161.31,49.46,163.74,47.16,166.58,47.15z M199.5,363.95c-8.94,0.05-16.35-7.19-16.47-16.08  c-0.12-9,7.42-16.62,16.38-16.59c8.85,0.04,16.27,7.47,16.31,16.33C215.77,356.47,208.39,363.9,199.5,363.95z M278.86,320.08  c-51.84,0-103.41,0-155.26,0c0-80.98,0-161.86,0-242.93c51.67,0,103.32,0,155.26,0C278.86,158.01,278.86,238.89,278.86,320.08z"></path></g></svg>