<svg xmlns="http://www.w3.org/2000/svg" xmlns:xlink="http://www.w3.org/1999/xlink" id="Layer_1" x="0px" y="0px" viewBox="0 0 400 400" style="enable-background:new 0 0 400 400;" xml:space="preserve"><style type="text/css">	.st0{fill:#322B6A;}	.st1{fill-rule:evenodd;clip-rule:evenodd;fill:#322B6A;}</style><g>	<path class="st0" d="M192.49,177.7c-1.71,0.27-3.07,0.86-3.14,2.7c-0.08,2,1.31,2.76,3.14,3.26  C192.49,181.61,192.49,179.7,192.49,177.7z"></path>	<path class="st0" d="M107.28,196.31c1.29-1.99,1.36-4.53-0.07-6.45c-1.96-2.63-5.01-1.14-7.79-1.53c0,3.39,0,6.45,0,9.72  C102.2,197.52,105.36,199.26,107.28,196.31z"></path>	<path class="st0" d="M104.25,184.03c1.97-0.15,2.96-1.35,3.01-3.37c0.05-2.09-0.97-3.41-3-3.59c-1.53-0.14-3.09-0.03-4.82-0.03  c0,2.45,0,4.67,0,7.02C101.16,184.05,102.71,184.15,104.25,184.03z"></path>	<path class="st0" d="M197.91,194.4c0.06-1.83-0.94-3.03-3.06-3.62c0,2.21,0,4.41,0,6.74C197.03,196.96,197.85,196.08,197.91,194.4z  "></path>	<path class="st0" d="M209.21,154.59c-43.3-0.02-86.6-0.01-129.9,0c-0.47,0-0.94,0.09-1.64,0.17c2.69,3.54,3.2,7.38,3.19,11.45  c-0.04,57.18-0.03,114.36-0.03,171.54c0,0.9,0,1.79,0,2.75c2.13,0.52,4.13,0.85,6.02,1.51c3.77,1.31,7.49,1.34,11.21-0.04  c5.98-2.22,11.95-2.11,17.89,0.07c3.77,1.38,7.45,1.12,11.21-0.09c5.14-1.66,10.32-2.53,15.63-0.47c4.95,1.92,9.96,1.92,14.98,0.06  c4.68-1.74,9.4-1.69,14.11,0c0.42,0.15,0.9,0.16,1.33,0.31c3.78,1.32,7.53,1.6,11.41,0.26c2.2-0.76,4.52-1.27,6.82-1.65  c1.5-0.25,3.12-0.29,4.6-0.01c3.7,0.72,7.35,1.7,11.02,2.55c0.56,0.13,1.18,0.29,1.71,0.17c3.61-0.82,7.21-1.7,10.95-2.6  c0.02-0.51,0.05-0.83,0.05-1.15c0-58.16,0.01-116.31,0-174.47C219.78,158.83,215.43,154.59,209.21,154.59z M147.95,175.15  c0-2.17,0.68-2.89,2.69-2.91c2.03-0.02,2.75,0.7,2.75,2.83c0.01,7.54,0,15.08,0,22.91c3.24,0,6.22,0.05,9.21-0.02  c1.73-0.04,2.55,0.65,2.56,2.38c0.01,1.71-0.76,2.45-2.51,2.42c-3.9-0.07-7.81,0-11.72-0.03c-2.54-0.02-2.98-0.49-2.98-2.97  C147.94,191.56,147.94,183.35,147.95,175.15z M127.77,174.93c0-1.99,0.74-2.69,2.71-2.69c1.97,0,2.68,0.68,2.69,2.68  c0.01,6.9,0.01,13.79,0.01,20.69c0,0.7,0,1.41,0,2.37c3.29,0,6.28,0.07,9.27-0.03c1.79-0.05,2.52,0.78,2.53,2.42  c0.01,1.68-0.8,2.42-2.56,2.38c-3.97-0.08-7.94,0-11.91-0.05c-2.29-0.03-2.74-0.52-2.74-2.8  C127.75,191.58,127.75,183.25,127.77,174.93z M117.38,174.69c0.01-1.79,0.79-2.47,2.7-2.46c1.89,0.02,2.71,0.72,2.71,2.5  c0.02,8.51,0.02,17.02,0,25.53c-0.01,1.79-0.82,2.44-2.76,2.43c-1.94-0.01-2.64-0.63-2.65-2.48c-0.02-4.29-0.01-8.57-0.01-12.86  C117.37,183.14,117.36,178.91,117.38,174.69z M96.19,172.26c3.44,0,6.89,0,10.32,0.21c2.82,0.17,5.04,1.52,5.79,4.4  c0.85,3.24,0.66,6.34-2.13,8.75c-0.18,0.16-0.36,0.33-0.67,0.6c3.76,2.48,4.89,6.23,3.53,11.13c-0.97,3.49-3.53,5.27-7.86,5.36  c-2.86,0.06-5.72,0.05-8.58,0.01c-2.19-0.03-2.67-0.53-2.67-2.63c-0.01-8.39,0.03-16.78-0.03-25.17  C93.87,173.2,94.52,172.26,96.19,172.26z M169.28,313.61c-0.64,0.07-1.3,0.04-1.95,0.04c-12.04,0-24.07,0-36.11,0  c-12.1,0-24.2,0-36.3,0c-0.59,0-1.18,0.04-1.75-0.03c-1.65-0.21-2.62-1.17-2.67-2.83c-0.05-1.67,0.94-2.64,2.54-2.96  c0.57-0.11,1.17-0.06,1.75-0.06c24.27,0,48.53,0,72.8,0c0.65,0,1.32-0.06,1.94,0.09c1.59,0.38,2.5,1.44,2.38,3.09  C171.8,312.5,170.85,313.43,169.28,313.61z M169.97,289c-0.79,0.24-1.67,0.25-2.51,0.25c-24.16,0.01-48.32,0.01-72.48,0.01  c-3.11,0-4.57-0.99-4.51-3.04c0.06-1.97,1.4-2.81,4.49-2.82c12.11,0,24.22,0,36.34,0c12.05,0,24.09,0,36.14,0  c0.72,0,1.61-0.22,2.11,0.13c0.92,0.64,1.98,1.51,2.29,2.5C172.26,287.37,171.4,288.57,169.97,289z M90.5,262.04  c-0.1-1.67,0.85-2.68,2.43-3.05c0.5-0.12,1.04-0.06,1.56-0.06c24.46,0,48.92,0,73.38,0c0.58,0,1.19-0.06,1.75,0.09  c1.5,0.39,2.37,1.41,2.3,2.97c-0.07,1.54-0.97,2.52-2.53,2.76c-0.57,0.09-1.17,0.04-1.75,0.04c-12.17,0-24.33,0-36.5,0  c-12.1,0-24.2,0-36.3,0c-0.59,0-1.18,0.05-1.75-0.03C91.54,264.52,90.6,263.6,90.5,262.04z M167.59,240.41  c-24.26,0-48.52,0-72.78-0.01c-0.71,0-1.44-0.02-2.13-0.19c-1.45-0.35-2.22-1.37-2.18-2.84c0.05-1.55,0.92-2.54,2.48-2.78  c0.7-0.1,1.43-0.09,2.14-0.09c12.03,0,24.07,0,36.1,0c12.1,0,24.2,0,36.29,0c3.01,0,4.41,0.92,4.43,2.89  C171.97,239.4,170.52,240.41,167.59,240.41z M183.8,196.22c0.81-1.63,1.92-1.91,3.48-0.94c1.49,0.92,3.02,1.77,5.02,2.93  c0-3.2,0.04-5.65-0.04-8.09c-0.01-0.36-0.53-0.83-0.92-1.04c-0.91-0.5-1.91-0.81-2.83-1.3c-3.3-1.76-4.64-4.2-4.24-7.82  c0.37-3.34,2.36-5.38,5.45-6.44c0.74-0.25,1.5-0.42,2.03-0.88c0.65-0.64,1.23-1.64,1.98-1.8c0.5-0.1,1.24,1.01,2.24,1.91  c1.12,0.29,2.86,0.58,4.47,1.21c1.81,0.7,2.22,2.01,1.45,3.6c-0.79,1.63-1.96,1.58-3.41,0.9c-0.97-0.46-2.04-0.7-3.32-1.12  c0,2.47-0.04,4.6,0.04,6.73c0.01,0.37,0.49,0.83,0.87,1.05c0.78,0.46,1.65,0.76,2.45,1.19c3.43,1.84,4.81,4.77,4.45,8.58  c-0.33,3.53-2.56,6.18-6.12,7.3c-0.49,0.15-1,0.27-1.21,0.75c-0.64,0.66-1.19,1.66-1.94,1.84c-0.46,0.11-1.23-1.03-1.73-1.49  c-2.38-1.05-4.8-1.92-7-3.18C183.63,199.35,182.97,197.9,183.8,196.22z M183.74,234.52c2.93-0.03,5.85-0.01,8.78-0.01  c2.93,0,5.85-0.03,8.78,0.01c2.27,0.03,3.62,1.17,3.6,2.94c-0.02,1.77-1.37,2.92-3.65,2.94c-5.85,0.03-11.7,0.03-17.55,0  c-2.29-0.01-3.65-1.12-3.7-2.88C179.94,235.69,181.34,234.54,183.74,234.52z M201.51,289.24c-6.04,0.04-12.09,0.04-18.14,0  c-2.08-0.02-3.41-1.28-3.38-2.99c0.03-1.71,1.34-2.82,3.49-2.84c3.05-0.03,6.11-0.01,9.17-0.01c2.93,0,5.85-0.02,8.78,0.01  c2.14,0.02,3.45,1.13,3.48,2.85C204.92,287.97,203.59,289.22,201.51,289.24z M201.26,264.78c-2.99,0.01-5.98,0-8.98,0  c-2.93,0-5.85,0.02-8.78-0.01c-2.13-0.02-3.45-1.11-3.5-2.84c-0.05-1.79,1.33-3,3.54-3.01c5.92-0.02,11.84-0.02,17.76,0  c2.24,0.01,3.62,1.17,3.6,2.96C204.89,263.68,203.53,264.77,201.26,264.78z"></path>	<path class="st0" d="M74.39,160.97c-1.34-4.23-5.75-6.89-10.08-6.33c-4.52,0.59-7.98,4.23-8.3,8.76c-0.05,0.65-0.05,1.3-0.05,1.95  c0,41.68,0,83.36,0,125.04c0,5.41,2.33,7.77,7.82,7.97c0.13,0,0.26,0,0.39,0.01c0.2,0.02,0.38,0.05,0.57,0.09h10.23  c0-44.23,0-88.46-0.02-132.69C74.94,164.17,74.87,162.48,74.39,160.97z"></path>	<path class="st0" d="M311.71,235.38h-30.26v21.8c9.64,0,19.1,0.04,28.56-0.11c0.58-0.01,1.59-1.5,1.63-2.33  c0.17-4.29,0.08-8.6,0.08-12.9V235.38z"></path>	<rect x="281.47" y="202.13" class="st0" width="30.01" height="25.1"></rect>	<path class="st0" d="M311.72,174.22c0.01-1.99-1.3-1.96-2.68-1.96c-8.61,0.01-17.22,0-25.83,0.01c-0.58,0-1.16,0.14-1.75,0.22  v21.47h30.25C311.7,187.19,311.68,180.7,311.72,174.22z"></path>	<path class="st0" d="M342.1,66.1c-1.36-2.81-3.4-5.05-6.02-6.63c-2.6-1.69-5.54-2.61-8.82-2.63h-1.02  c-0.21-0.01-0.41-0.03-0.63-0.03h-42.14c-0.59-0.03-1.2,0-1.8,0h-88.23c-0.6,0-1.21-0.03-1.8,0H149.5  c-11.32,0.01-18.42,7.1-18.43,18.47c-0.02,21.95-0.01,43.9,0,65.85h6.69c28.01,0,51.03-0.05,72.44-0.16h0.1  c10.87,0,23.13,9.49,23.33,23.1c0.06,3.87,0.05,7.77,0.04,11.54c-0.01,1.53-0.01,3.07-0.01,4.6v146.73h96.25  c11.33-4.49,14.13-8.67,14.13-21.06c0-14.25,0.01-28.49-0.01-42.73c0-0.7-0.02-1.41-0.12-2.1v-15.44c0.1-0.76,0.12-1.55,0.12-2.31  c0.02-28.05,0.01-56.1,0.01-84.14V128.2c0-17.71,0-35.41,0.01-53.12C344.05,71.83,343.47,68.81,342.1,66.1z M162.69,103.75  c-0.04,2.86-1.6,4.59-3.99,4.53c-2.24-0.05-3.86-1.78-3.88-4.44c-0.06-7.1-0.06-14.21,0-21.32c0.02-2.64,1.68-4.37,3.92-4.4  c2.36-0.04,3.92,1.71,3.95,4.57c0.05,3.6,0.01,7.2,0.01,10.8C162.7,96.91,162.74,100.33,162.69,103.75z M190.42,107.81  c-2.1,0.68-3.77-0.19-5-1.96c-2.34-3.38-4.68-6.76-7.61-10.05c0,2.74,0.1,5.49-0.02,8.22c-0.14,3.17-2.82,5.24-5.3,3.88  c-1.19-0.66-2.41-2.49-2.46-3.83c-0.24-7.19-0.11-14.41-0.12-21.61c0-1.96,0.75-3.44,2.69-4.05c2.05-0.64,3.59,0.16,4.76,1.86  c2.49,3.6,4.99,7.19,7.94,11.46c0-3.64-0.04-6.44,0.01-9.25c0.05-2.64,1.64-4.37,3.92-4.37c2.26,0,3.93,1.73,3.96,4.37  c0.1,6.94,0.1,13.89,0.16,20.83C193.37,105.47,192.52,107.14,190.42,107.81z M293.46,79.71c3.06,1.55,4.12,3.77,2.91,6.08  c-1.14,2.18-3.26,2.54-6.36,1.08c-2.92-1.38-5.65-1.07-8.1,1.02c-2.15,1.84-3,5.03-1.98,7.7c1.05,2.77,3.11,4.61,6.11,4.63  c1.51,0.01,3.23-0.67,4.51-1.55c2.36-1.62,4.52-1.82,6.08-0.04c1.6,1.81,1.37,3.98-0.8,6.03c-3.96,3.74-8.66,4.49-13.7,2.87  c-5.66-1.81-9.07-5.8-10.28-11.62c-0.18-0.85-0.2-1.74-0.27-2.31C271.49,82.07,283.45,74.65,293.46,79.71z M257.26,82.96  c0.04-3.04,1.61-4.86,4.02-4.83c2.42,0.03,3.86,1.79,3.87,4.92c0.03,6.76,0.03,13.51,0,20.26c-0.01,3.17-1.4,4.91-3.83,4.96  c-2.5,0.06-4.03-1.81-4.07-5.05c-0.03-3.33,0-6.67,0-10C257.25,89.8,257.21,86.38,257.26,82.96z M220.1,84.19  c-2.24,6.83-4.55,13.63-6.79,20.45c-0.7,2.13-2.03,3.55-4.32,3.62c-2.43,0.06-3.83-1.39-4.59-3.61c-2.36-6.88-4.76-13.74-7.1-20.62  c-0.94-2.77-0.1-4.83,2.15-5.64c2.29-0.82,4.28,0.25,5.27,2.97c1.34,3.7,2.59,7.42,4.06,11.66c1.39-4.1,2.57-7.67,3.8-11.22  c1.03-2.98,2.85-4.15,5.23-3.41C220.15,79.12,221.05,81.29,220.1,84.19z M220.67,93.33c-0.04-8.33,6.64-15.13,14.96-15.24  c8.27-0.1,15.13,6.68,15.18,14.99c0.04,8.36-6.6,15.13-14.93,15.23C227.64,108.41,220.72,101.6,220.67,93.33z M310.47,304.13  c-3.07-0.21-5.53-1.66-7.44-3.99c-1.11-1.36-2.07-2.84-3.11-4.26c-2.27-3.11-3.45-3.09-5.75,0.08c-0.82,1.13-1.57,2.33-2.43,3.44  c-5.01,6.4-12.37,6.37-17.32-0.07c-1.12-1.46-2.11-3.02-3.25-4.47c-1.35-1.7-2.8-1.65-4.12,0.05c-1.07,1.39-2.04,2.86-3.09,4.27  c-1.96,2.62-4.41,4.52-7.78,4.92c-2.53,0.3-4.57-1.09-4.9-3.31c-0.32-2.21,0.99-3.74,3.41-4.55c1.15-0.38,2.27-1.22,3.11-2.12  c1.18-1.28,2.01-2.88,3.12-4.24c2.09-2.54,4.68-4.22,8.13-4.15c3.57-0.12,6.22,1.61,8.36,4.25c1.16,1.43,2.12,3.01,3.25,4.47  c1.84,2.38,3.09,2.36,4.95-0.07c1.01-1.32,1.88-2.75,2.91-4.07c4.82-6.19,12.08-6.26,16.99-0.15c0.94,1.16,1.6,2.57,2.65,3.6  c1.06,1.03,2.34,1.99,3.71,2.52c2.09,0.82,3.23,2.12,3.08,4.32C314.81,302.77,312.82,304.29,310.47,304.13z M319.63,254.22  c0,7.3-3.56,10.9-10.8,10.9c-22.54,0-45.07,0-67.6-0.01v-7.9c9.62-0.01,19.24-0.01,28.86-0.01h3.1v-21.81h-31.96v-8.25h31.98  v-24.98h-31.98v-8.2h31.94v-21.7h-31.92c0-2.61,0-5.27-0.04-7.92c22.6,0,45.2,0,67.8,0.01c7.15,0,10.62,3.52,10.62,10.74V254.22z   M316.02,150.12c-6.59,0.08-13.18,0.08-19.77,0c-2.57-0.04-4.31-1.89-4.21-4.12c0.1-2.18,1.76-3.7,4.26-3.74  c3.34-0.06,6.68-0.01,10.02-0.01c3.16-0.01,6.32-0.04,9.48,0c2.7,0.04,4.42,1.54,4.48,3.8  C320.35,148.28,318.61,150.09,316.02,150.12z M316.33,132.61c-2.01,0.13-4.03,0.04-6.05,0.04c-13.09,0.01-26.17,0-39.26,0  c-0.79,0-1.58,0.05-2.37-0.03c-2.34-0.25-3.8-1.77-3.82-3.92c-0.01-2.28,1.49-3.89,4.02-3.91c7.91-0.07,15.81-0.03,23.71-0.03  c0,0,0-0.01,0-0.02h21.34c0.79,0,1.58-0.02,2.37,0.04c2.34,0.17,3.91,1.65,4.01,3.73C320.38,130.63,318.73,132.45,316.33,132.61z   M319.37,93.33c-0.12,5.43-5.21,3.16-8.31,4.06c-0.04,0.83-0.08,1.6-0.14,2.87c1.64,0,3.18-0.05,4.71,0.01  c2.85,0.1,4.64,1.66,4.65,3.96c0.01,2.32-1.77,3.87-4.63,3.92c-2.8,0.05-5.62,0.07-8.42-0.02c-2.63-0.08-4.13-1.49-4.16-4.1  c-0.08-7.2-0.08-14.4,0-21.6c0.02-2.61,1.48-4.07,4.1-4.16c3.07-0.11,6.15-0.11,9.22,0.02c2.31,0.1,3.87,1.77,3.89,3.83  c0.03,2.05-1.54,3.7-3.81,3.95c-0.87,0.1-1.76,0.05-2.64,0.06h-2.75v2.81C314.23,89.9,319.5,87.65,319.37,93.33z"></path>	<path class="st0" d="M235.61,86.03c-3.85,0.1-6.99,3.28-7.02,7.12c-0.03,3.94,3.23,7.24,7.16,7.23c3.96-0.01,7.15-3.26,7.12-7.25  C242.85,89.17,239.54,85.94,235.61,86.03z"></path></g></svg>