<svg xmlns="http://www.w3.org/2000/svg" xmlns:xlink="http://www.w3.org/1999/xlink" id="Layer_1" x="0px" y="0px" viewBox="0 0 400 400" style="enable-background:new 0 0 400 400;" xml:space="preserve"><style type="text/css">	.st0{fill:#322B6A;}	.st1{fill-rule:evenodd;clip-rule:evenodd;fill:#322B6A;}</style><g>	<path class="st0" d="M261.6,253.68c-10.61-7.84-12.61-7.62-23.04,0.63c-6.01,4.76-12.13,9.37-18.16,14.1  c-1.52,1.2-2.76,1.18-4.53,0.32c-18.04-8.83-33.02-21.52-45.65-36.94c-18.42-22.47-29.6-48.12-32.73-77.14  c-0.23-2.15,0.22-3.53,2.13-4.65c6.88-4.04,13.7-8.18,20.54-12.3c10.38-6.25,11.23-7.98,8.15-19.63  c-5.68-21.59-13.97-42.22-23.28-62.46c-0.91-1.98-2.18-3.85-3.54-5.57c-2.93-3.72-5.61-4.4-9.95-2.55c-2.21,0.94-4.4,2.03-6.44,3.3  c-19.07,11.93-36.03,26.44-52.04,42.17c-4.65,4.57-6.25,9.71-6.29,16.05c-0.11,19.3,3.24,38.01,8.98,56.32  c13.18,42.08,34.91,79.45,63.02,113.22c20.28,24.37,43.2,45.77,70.87,61.67c9.49,5.45,19.38,10.01,31.02,13.29  c1.47-0.38,3.98-0.7,6.24-1.63c21.86-8.97,42.42-20.32,61.34-34.5c9.88-7.41,10.26-11.62,1.7-20.59  C294.99,281.13,279.03,266.54,261.6,253.68z"></path>	<path class="st0" d="M124.8,301.94c-0.93-0.27-2.1-0.61-3.48-0.61l-0.15,0c-1.87,0.03-3.19,0.98-3.94,1.5  c-0.07,0.05-0.14,0.1-0.14,0.11c-2.29,1.17-4.57,2.37-6.85,3.57c-5.14,2.7-10.46,5.5-15.77,7.92c-7.54,3.43-16.56,6.99-26.34,7.41  c-0.5,0.02-0.98,0.03-1.45,0.03c-4.13,0-5.51-0.95-6.48-2.59c-1.29-2.16-2.66-5.44-1.89-8.78c1.5-6.5,3.2-13.86,5.84-20.59  c5.03-12.81,12.19-24.16,20.97-36.81c0.23,0.22,0.46,0.41,0.65,0.58c0.14,0.12,0.29,0.24,0.42,0.37l3.41,3.6l3.32-3.68  c0.11-0.12,0.25-0.23,0.42-0.38c0.94-0.82,2.7-2.35,2.85-4.86c0.18-2.97,0.16-5.93,0.14-8.79c-0.01-1.11-0.01-2.22-0.01-3.33  c0.02-4.27-2.88-7.15-7.22-7.17c-0.79,0-1.59-0.01-2.39-0.02c-1.06-0.01-2.12-0.02-3.2-0.02c-2.29,0-4.15,0.06-5.83,0.18  c-3.1,0.23-6.29,3.24-6.67,6.31c-0.24,1.9,0.32,3.7,1.58,5.07c0.8,0.86,1.83,1.49,3.01,1.84c-8.16,10.9-15.21,22.43-20.94,34.28  c-5.28,10.89-10.81,23.75-9.74,38.43c0.7,9.64,6.89,19.54,19.13,19.91c0.65,0.02,1.3,0.03,1.95,0.03c4.75,0,9.63-0.54,14.1-1.56  c15.55-3.56,29.39-10.86,41.15-17.43c0.32-0.18,0.65-0.35,0.99-0.53c1.37-0.73,2.93-1.56,4.34-2.85c1.64-1.5,1.98-3.47,2.19-4.7  c0.03-0.18,0.05-0.36,0.1-0.53l1.31-4.62l-4.68-1.1C125.29,302.09,125.05,302.02,124.8,301.94z"></path>	<path class="st0" d="M193.58,148.91c0.2,0.02,0.39,0.03,0.59,0.03c1.77,0,3.04-0.86,3.77-1.35l0.13-0.08  c2.28-1.13,4.56-2.3,6.87-3.48c5.14-2.63,10.45-5.35,15.78-7.61c4.86-2.06,11.34-4.43,18.3-4.43c1.33,0,2.65,0.09,3.93,0.26  c4.04,0.54,6.27,2.5,7.23,6.35c1.24,4.97,0.24,10.07-0.9,14.41c-3.68,14.01-10.89,26.56-16.76,35.92  c-2.58,4.12-5.34,8.2-8.04,12.18c-1.2-1.2-2.89-1.88-4.88-1.88c-3.34,0.04-6.73,2.28-6.76,7.22c-0.01,1.57-0.02,3.14-0.02,4.71  l0,0.31c-0.01,2.02-0.01,4.04-0.03,6.06c-0.02,2.32,0.68,4.2,2.08,5.6c0.95,0.94,2.66,2.06,5.48,2.06l0.15,0  c1.62-0.02,3.25-0.03,4.92-0.03c1.71,0,3.46,0.01,5.18,0.03l0.22,0c2.8,0,4.51-1.1,5.47-2.03c1.28-1.25,1.97-2.92,1.99-4.81  c0.02-1.95-0.66-3.66-1.96-4.94c-0.54-0.53-1.34-1.12-2.45-1.53c0.15-0.21,0.3-0.43,0.45-0.64c9-12.81,19.1-28.33,25.75-46.39  c3.56-9.66,4.9-17.41,4.35-25.13c-0.77-10.88-7.6-18.81-17.81-20.7c-2.41-0.45-4.93-0.67-7.48-0.67c-2.21,0-4.43,0.17-6.61,0.51  c-15.96,2.47-29.54,9.83-42.09,17.17l-0.1,0.05c-0.58,0.31-2.35,1.25-2.9,3.41c-0.03,0.11-0.07,0.23-0.11,0.39  c-0.38,1.3-1.1,3.73,0.47,5.96C189.34,148.12,192.09,148.74,193.58,148.91z"></path>	<path class="st0" d="M355.15,260.83c-0.04-0.51-0.09-1.02-0.15-1.53c-1.88-15.71-8.88-29.89-18.77-37.96  c-15.2-12.08-28.96-17.21-44.62-16.64c-0.21,0.01-0.43,0.01-0.66,0.01c-0.58,0-1.23,0-1.93,0.08c-3.77,0.41-6.07,3-6.01,6.75  c0.05,2.56,1.14,4.07,2.04,4.89c2.08,1.88,4.69,1.65,6.25,1.52c0.24-0.02,0.47-0.04,0.69-0.05c22.27-0.82,42.11,13.55,48.25,34.94  c0.41,1.45,0.68,3.01,0.95,4.67c0.28,1.7,0.58,3.46,1.06,5.25c0.65,2.39,3.21,5.16,6.22,5.47c0.46,0.05,0.91,0.05,1.35,0  C353.24,267.85,355.48,264.74,355.15,260.83z"></path>	<path class="st0" d="M318.04,235.49l-0.16-0.13c-8.38-6.35-17.26-9.22-27.13-8.79c-0.29,0.01-0.57,0.03-0.84,0.06  c-4.88,0.54-6.43,4.09-6.28,6.97c0.16,3.02,2.18,6.23,7.35,6.19c15.51-0.14,25.82,8.56,28.28,23.86c1.01,6.24,5.01,6.77,7.3,6.54  c0,0,0.05-0.01,0.05-0.01c2.37-0.26,3.74-1.41,4.47-2.33c1.73-2.18,1.41-4.82,1.25-6.08C331.07,251.34,326.13,242.25,318.04,235.49  z"></path>	<path class="st0" d="M298.29,268c1.33,6.2,5.93,6.19,7.3,6.04c0.19-0.02,0.39-0.05,0.6-0.09c1.48-0.28,6.21-1.7,5.12-8.47  c-0.87-5.39-3.48-10.01-7.61-13.42c-4.33-3.43-9.03-5.06-14.37-4.97c-0.32,0.01-0.63,0.02-0.93,0.06  c-3.71,0.41-6.15,2.96-6.22,6.51c-0.06,2.95,1.74,6.46,7,6.68C294.74,260.56,297.12,262.57,298.29,268z"></path></g></svg>