<svg xmlns="http://www.w3.org/2000/svg" xmlns:xlink="http://www.w3.org/1999/xlink" id="Layer_1" x="0px" y="0px" viewBox="0 0 400 400" style="enable-background:new 0 0 400 400;" xml:space="preserve"><style type="text/css">	.st0{fill:#322B6A;}	.st1{fill-rule:evenodd;clip-rule:evenodd;fill:#322B6A;}</style><g>	<path class="st0" d="M313.86,124.01c-2-1.03-4.02-2.01-6.03-3.03c-0.28-0.14-0.49-0.14-0.77,0c-4.79,2.41-9.59,4.78-14.36,7.21  c-1.95,0.99-3.98,1.67-6.17,1.83c-2.9,0.21-5.71-0.11-8.35-1.43c-5.1-2.54-10.19-5.09-15.29-7.63c-0.16-0.08-0.44-0.08-0.6,0  c-2.1,1.03-4.19,2.07-6.27,3.14c-0.49,0.25-0.97,0.58-1.37,0.97c-1.03,0.99-1.04,2.25,0,3.24c0.44,0.42,0.98,0.77,1.53,1.05  c7.66,3.84,15.33,7.65,22.98,11.51c1.86,0.94,3.8,1.38,5.86,1.42c0.68-0.06,1.36-0.11,2.03-0.18c1.65-0.18,3.11-0.89,4.57-1.62  c7.38-3.7,14.77-7.38,22.15-11.09c0.56-0.28,1.11-0.63,1.57-1.06c1.08-1,1.08-2.29,0.01-3.3  C314.92,124.62,314.4,124.28,313.86,124.01z"></path>	<path class="st0" d="M314.03,108.54c-2.03-1.06-4.1-2.06-6.14-3.1c-0.3-0.15-0.54-0.17-0.86-0.01c-4.78,2.41-9.59,4.78-14.36,7.21  c-1.94,0.99-3.95,1.65-6.13,1.81c-2.96,0.22-5.82-0.14-8.51-1.49c-5.02-2.52-10.06-5.03-15.09-7.54c-0.17-0.08-0.44-0.13-0.6-0.05  c-2.16,1.06-4.32,2.14-6.47,3.24c-0.44,0.23-0.86,0.53-1.22,0.88c-1.03,1-1.05,2.26-0.01,3.24c0.49,0.46,1.08,0.83,1.68,1.13  c7.62,3.83,15.25,7.62,22.86,11.46c1.84,0.93,3.77,1.36,6.06,1.37c1.55-0.02,3.31-0.25,4.93-1.06c7.97-3.97,15.94-7.96,23.9-11.96  c0.54-0.27,1.06-0.67,1.47-1.12c0.82-0.88,0.82-2-0.01-2.88C315.11,109.22,314.58,108.83,314.03,108.54z"></path>	<path class="st0" d="M354.66,96.34c-4.16-0.39-8.32-0.82-12.47-1.29c-0.51-0.06-1.27-0.39-1.43-0.79  c-1.53-3.71-2.96-7.46-4.5-11.42c2.81-3.46,5.84-7.17,8.85-10.9c1.35-1.67,1.32-2.57-0.18-4.06c-5.5-5.51-11.01-11-16.53-16.5  c-1.56-1.56-2.41-1.59-4.17-0.17c-3.4,2.74-6.81,5.46-10.17,8.26c-0.75,0.62-1.27,0.58-2.11,0.2c-2.93-1.33-5.88-2.67-8.91-3.71  c-1.41-0.48-1.91-1.13-2.03-2.53c-0.34-4.06-0.79-8.11-1.21-12.17c-0.25-2.43-0.9-2.99-3.37-2.99c-7.51,0-15.01,0-22.52,0  c-2.9,0-3.42,0.52-3.7,3.43c-0.4,4.15-0.86,8.3-1.27,12.45c-0.08,0.85-0.4,1.24-1.26,1.57c-3.27,1.24-6.51,2.6-9.71,4.02  c-0.77,0.34-1.23,0.34-1.86-0.18c-3.33-2.75-6.7-5.46-10.05-8.17c-2.05-1.66-2.77-1.62-4.6,0.21  c-5.34,5.33-10.68,10.66-16.02,15.99c-1.91,1.9-1.94,2.58-0.21,4.69c2.93,3.61,5.86,7.21,8.61,10.61  c-1.48,3.69-2.96,7.17-4.25,10.72c-0.37,1.02-0.82,1.41-1.85,1.51c-4.11,0.38-8.22,0.84-12.33,1.22c-1.37,0.13-2.63,0.36-3.36,1.7  c0,8.73,0,17.46,0,26.18c0.7,1.27,1.89,1.56,3.22,1.68c4.11,0.38,8.21,0.84,12.32,1.22c1.12,0.1,1.64,0.52,2.05,1.65  c1.11,3.06,2.37,6.08,3.76,9.03c0.51,1.08,0.4,1.71-0.33,2.58c-2.74,3.27-5.41,6.6-8.09,9.92c-1.4,1.73-1.35,2.57,0.24,4.16  c5.47,5.46,10.94,10.93,16.42,16.38c1.59,1.58,2.43,1.64,4.17,0.24c3.29-2.64,6.59-5.28,9.83-7.99c0.94-0.79,1.61-0.94,2.82-0.36  c2.98,1.43,6.08,2.64,9.18,3.79c0.92,0.34,1.26,0.75,1.34,1.66c0.39,4.15,0.86,8.29,1.25,12.44c0.13,1.37,0.36,2.62,1.7,3.36  c8.74,0,17.49,0,26.23,0c1.27-0.7,1.56-1.89,1.69-3.21c0.38-4.1,0.85-8.2,1.22-12.3c0.1-1.11,0.52-1.64,1.65-2.05  c3.11-1.13,6.17-2.42,9.17-3.81c0.99-0.46,1.55-0.36,2.34,0.3c3.32,2.76,6.69,5.45,10.05,8.16c1.73,1.39,2.58,1.35,4.17-0.23  c5.48-5.46,10.95-10.92,16.42-16.38c1.58-1.58,1.63-2.44,0.24-4.16c-2.74-3.39-5.48-6.78-8.26-10.15c-0.57-0.69-0.7-1.19-0.28-2.1  c1.44-3.13,2.76-6.32,3.98-9.55c0.35-0.91,0.76-1.25,1.67-1.34c4.16-0.39,8.31-0.86,12.46-1.25c1.37-0.13,2.63-0.36,3.36-1.7  c0-8.73,0-17.46,0-26.18C357.29,96.7,356.03,96.47,354.66,96.34z M284.99,156.29c-24.98-0.02-45.23-20.27-45.21-45.23  c0.01-24.83,20.34-45.12,45.18-45.08c25.1,0.04,45.34,20.27,45.31,45.32C330.24,136.09,309.9,156.3,284.99,156.29z"></path>	<path class="st0" d="M313.71,92.81c-7.54-3.79-15.09-7.54-22.62-11.34c-1.54-0.78-3.13-1.31-4.86-1.44  c-2.17-0.16-4.32-0.01-6.29,0.97c-8.02,3.98-16.02,7.99-24.02,12.02c-0.54,0.27-1.05,0.68-1.46,1.13c-0.8,0.88-0.79,1.99,0.04,2.84  c0.47,0.48,1.04,0.9,1.63,1.2c7.68,3.86,15.38,7.69,23.06,11.56c1.84,0.93,3.77,1.36,5.97,1.37c1.67-0.02,3.45-0.27,5.1-1.1  c7.93-3.96,15.86-7.92,23.78-11.9c0.54-0.27,1.06-0.66,1.48-1.11c0.87-0.92,0.86-2.09-0.04-2.97  C314.97,93.55,314.35,93.13,313.71,92.81z"></path>	<path class="st0" d="M236.8,261.89c-10.61-7.84-12.61-7.62-23.04,0.63c-6.01,4.76-12.13,9.37-18.16,14.1  c-1.52,1.2-2.76,1.18-4.53,0.32c-18.04-8.83-33.02-21.52-45.65-36.94c-18.42-22.47-29.6-48.12-32.73-77.14  c-0.23-2.15,0.22-3.53,2.13-4.65c6.88-4.04,13.7-8.18,20.54-12.3c10.38-6.25,11.23-7.98,8.15-19.63  c-5.68-21.59-13.97-42.22-23.28-62.46c-0.91-1.98-2.18-3.85-3.54-5.57c-2.93-3.72-5.61-4.4-9.95-2.55c-2.21,0.94-4.4,2.03-6.44,3.3  c-19.07,11.93-36.03,26.44-52.04,42.17c-4.65,4.57-6.25,9.71-6.29,16.05c-0.11,19.3,3.24,38.01,8.98,56.32  c13.18,42.08,34.91,79.45,63.02,113.22c20.28,24.37,43.2,45.77,70.87,61.67c9.49,5.45,19.38,10.01,31.02,13.29  c1.47-0.38,3.98-0.7,6.24-1.63c21.86-8.97,42.42-20.32,61.34-34.5c9.88-7.41,10.26-11.62,1.7-20.59  C270.19,289.35,254.23,274.76,236.8,261.89z"></path>	<path class="st0" d="M165.32,160.4c4.6,0.58,8.66,1.43,12.42,2.61c29.21,9.15,48.25,36.94,46.29,67.57  c-0.21,3.31,2.06,6.09,5.16,6.33c0.17,0.01,0.34,0.02,0.5,0.02c3.25,0,5.74-2.43,5.8-5.66l0.04-1.77c0.07-3.29,0.15-6.7-0.17-10.06  c-2.05-21.62-11.61-39.64-28.41-53.54c-10.63-8.8-23.28-14.39-37.68-16.65l-0.82-0.1c-0.64-0.08-1.27-0.15-1.91-0.2  c-0.2-0.02-0.4-0.03-0.59-0.03c-1.74,0-3.25,0.68-4.36,1.97c-1.47,1.69-1.83,3.79-1.02,5.9  C161.35,158.83,163.04,160.11,165.32,160.4z"></path>	<path class="st0" d="M163.02,179.98l1.17,0.22c1.76,0.32,3.41,0.62,5.02,1.1c11.96,3.54,21.21,10.77,27.48,21.5  c4.52,7.74,6.6,16.28,6.18,25.41c-0.16,3.39,2.16,6.18,5.27,6.35c0.13,0.01,0.26,0.01,0.38,0.01c3.26,0,5.66-2.36,5.83-5.74  c0.29-5.63-0.24-11.21-1.58-16.59c-5.6-22.61-24.55-40.12-47.23-43.57l-0.39-0.05c-0.35-0.04-0.71-0.09-1.06-0.11  c-0.13-0.01-0.25-0.01-0.38-0.01c-1.99,0-3.63,0.88-4.76,2.53c-1.11,1.64-1.33,3.58-0.6,5.34  C159.13,178.23,160.88,179.58,163.02,179.98z"></path>	<path class="st0" d="M159.99,199.02c4.7,1.35,8.73,3.67,11.96,6.92c5.57,5.59,8.35,12.42,8.27,20.28  c-0.03,2.96,2.38,5.62,5.26,5.81c0.13,0.01,0.27,0.01,0.4,0.01c3.18,0,5.61-2.44,5.91-5.93l0.01-0.16l-0.01-0.16  c-0.03-0.36-0.04-0.79-0.06-1.26c-0.05-1.29-0.12-2.89-0.4-4.5c-2.88-16.25-12.34-27.04-28.11-32.06  c-0.53-0.17-1.08-0.25-1.64-0.25c-2.48,0-4.79,1.7-5.49,4.04c-0.46,1.55-0.31,3.16,0.43,4.52  C157.25,197.61,158.48,198.58,159.99,199.02z"></path></g></svg>