<svg xmlns="http://www.w3.org/2000/svg" xmlns:xlink="http://www.w3.org/1999/xlink" id="Layer_1" x="0px" y="0px" viewBox="0 0 400 400" style="enable-background:new 0 0 400 400;" xml:space="preserve"><style type="text/css">	.st0{fill:#322B6A;}	.st1{fill-rule:evenodd;clip-rule:evenodd;fill:#322B6A;}</style><g>	<path class="st0" d="M240.78,256.78c-10.61-7.84-12.61-7.62-23.04,0.63c-6.01,4.76-12.13,9.37-18.16,14.1  c-1.52,1.2-2.76,1.18-4.53,0.32c-18.04-8.83-33.02-21.52-45.65-36.94c-18.42-22.47-29.6-48.12-32.73-77.14  c-0.23-2.15,0.22-3.53,2.13-4.65c6.88-4.04,13.7-8.18,20.54-12.3c10.38-6.25,11.23-7.98,8.15-19.63  c-5.68-21.59-13.97-42.22-23.28-62.46c-0.91-1.98-2.18-3.85-3.54-5.57c-2.93-3.72-5.61-4.4-9.95-2.55c-2.21,0.94-4.4,2.03-6.44,3.3  C85.22,65.82,68.26,80.33,52.25,96.06c-4.65,4.57-6.25,9.71-6.29,16.05c-0.11,19.3,3.24,38.01,8.98,56.32  c13.18,42.08,34.91,79.45,63.02,113.22c20.28,24.37,43.2,45.77,70.87,61.67c9.49,5.45,19.38,10.01,31.02,13.29  c1.47-0.38,3.98-0.7,6.24-1.63c21.86-8.97,42.42-20.32,61.34-34.5c9.88-7.41,10.26-11.62,1.7-20.59  C274.17,284.23,258.21,269.65,240.78,256.78z"></path>	<path class="st0" d="M169.3,155.28c4.6,0.58,8.66,1.43,12.42,2.61c29.21,9.15,48.25,36.94,46.29,67.57  c-0.21,3.31,2.06,6.09,5.16,6.33c0.17,0.01,0.34,0.02,0.5,0.02c3.25,0,5.74-2.43,5.8-5.66l0.04-1.77c0.07-3.29,0.15-6.7-0.17-10.06  c-2.05-21.62-11.61-39.64-28.41-53.54c-10.63-8.8-23.28-14.39-37.68-16.65l-0.82-0.1c-0.64-0.08-1.27-0.15-1.91-0.2  c-0.2-0.02-0.4-0.03-0.59-0.03c-1.74,0-3.25,0.68-4.36,1.97c-1.47,1.69-1.83,3.79-1.02,5.9C165.33,153.71,167.02,155,169.3,155.28z  "></path>	<path class="st0" d="M167,174.86l1.17,0.22c1.76,0.32,3.41,0.62,5.02,1.1c11.96,3.54,21.21,10.77,27.48,21.5  c4.52,7.74,6.6,16.28,6.18,25.41c-0.16,3.39,2.16,6.18,5.27,6.35c0.13,0.01,0.26,0.01,0.38,0.01c3.26,0,5.66-2.36,5.83-5.74  c0.29-5.63-0.24-11.21-1.58-16.59c-5.6-22.61-24.55-40.12-47.23-43.57l-0.39-0.05c-0.35-0.04-0.71-0.09-1.06-0.11  c-0.13-0.01-0.25-0.01-0.38-0.01c-1.99,0-3.63,0.88-4.76,2.53c-1.11,1.64-1.33,3.58-0.6,5.34  C163.11,173.11,164.86,174.46,167,174.86z"></path>	<path class="st0" d="M163.97,193.9c4.7,1.35,8.73,3.67,11.96,6.92c5.57,5.59,8.35,12.42,8.27,20.28c-0.03,2.96,2.38,5.62,5.26,5.81  c0.13,0.01,0.27,0.01,0.4,0.01c3.18,0,5.61-2.44,5.91-5.93l0.01-0.16l-0.01-0.16c-0.03-0.36-0.04-0.79-0.06-1.26  c-0.05-1.29-0.12-2.89-0.4-4.5c-2.88-16.25-12.34-27.04-28.11-32.06c-0.53-0.17-1.08-0.25-1.64-0.25c-2.48,0-4.79,1.7-5.49,4.04  c-0.46,1.55-0.31,3.16,0.43,4.52C161.23,192.49,162.46,193.47,163.97,193.9z"></path>	<path class="st0" d="M285.66,43.39c-37.91-0.12-68.69,30.48-68.81,68.42c-0.12,37.86,30.58,68.69,68.48,68.76  c37.9,0.07,68.66-30.62,68.7-68.53C354.09,74.22,323.5,43.51,285.66,43.39z M303.39,145.03c-3.37,2.04-7.35,3.08-11.56,4.78  c0,2.61,0,5.71,0,9c-3.96,0-7.78,0-12,0c0-2.52-0.13-5.1,0.04-7.66c0.14-2.02-0.45-2.88-2.53-3.4c-6.68-1.69-12.65-4.89-18.27-9.43  c2.47-3.08,4.87-6.07,6.87-8.56c5.22,2.31,10.06,4.79,15.14,6.59c4.34,1.53,8.95,1.44,13.39-0.1c2.98-1.04,5.34-2.81,6.51-5.88  c2.07-5.4,0.54-9.88-4.91-11.59c-6.06-1.9-12.4-2.9-18.63-4.24c-8.01-1.73-14.26-5.62-16.54-14c-1.59-5.84-0.03-11.16,3.52-15.92  c3.52-4.72,8.1-8.05,13.73-9.8c1.3-0.41,1.75-0.96,1.71-2.27c-0.08-2.42-0.02-4.84-0.02-7.41c4.08,0,7.9,0,11.98,0  c0,2.24,0.13,4.42-0.04,6.57c-0.15,1.91,0.39,2.77,2.37,3.27c5.43,1.39,10.27,4.03,14.84,7.71c-2.55,3.05-5.02,5.99-7.27,8.69  c-3.69-1.71-7.05-3.64-10.64-4.86c-6.22-2.12-11.79-0.71-16.27,4.26c-4.39,4.87-2.99,10.02,3.37,11.61  c4.47,1.12,9.11,1.55,13.62,2.57c3.18,0.72,6.35,1.68,9.34,2.95c7.09,3,11.74,8.13,12.4,16.08  C314.27,132.91,311.2,140.3,303.39,145.03z"></path></g></svg>