<svg xmlns="http://www.w3.org/2000/svg" xmlns:xlink="http://www.w3.org/1999/xlink" id="Layer_1" x="0px" y="0px" viewBox="0 0 400 400" style="enable-background:new 0 0 400 400;" xml:space="preserve"><style type="text/css">	.st0{fill:#322B6A;}	.st1{fill-rule:evenodd;clip-rule:evenodd;fill:#322B6A;}</style><g>	<path class="st0" d="M256.81,280.93l-2.39-1.83c-8.73-6.68-17.75-13.6-26.74-20.22c-0.43-0.32-1.4-0.66-2.34-0.66  c-0.21,0-0.36,0.02-0.45,0.02c-0.02,0-0.04,0-0.05,0c0,0-0.33,0.43-0.31,2c0.01,1.73,0.01,3.46,0.01,5.22l0,5.32h-44.47v-3  c0-0.9,0.03-1.77,0.05-2.62c0.06-1.79,0.11-3.33-0.12-4.75c-0.15-0.95-0.56-1.87-0.83-2.23c-0.05,0-0.12-0.01-0.2-0.01  c-0.7,0-1.39,0.25-1.58,0.39c-10.37,7.65-20.69,15.59-29.8,22.6c-0.84,0.65-1.14,1.19-1.14,1.46c0,0.27,0.31,0.83,1.17,1.49  l0.63,0.48c9.45,7.25,19.23,14.74,28.96,21.93c0.31,0.23,1.11,0.48,1.96,0.48c0.27,0,0.47-0.03,0.59-0.03c0.01,0,0.02,0,0.03,0  c0,0,0.29-0.39,0.27-1.69c-0.02-1.75-0.02-3.5-0.01-5.3l0-5.38h44.48v3c0,0.84-0.03,1.68-0.06,2.5c-0.06,1.66-0.12,3.23,0.12,4.59  c0.19,1.04,0.71,2.05,1.01,2.39c0.62,0,1.49-0.3,1.84-0.56c9.29-6.86,18.62-14.01,27.64-20.93l1.71-1.31  c1.07-0.82,1.36-1.44,1.36-1.68C258.16,282.36,257.87,281.74,256.81,280.93z"></path>	<path class="st0" d="M216.73,217.43c0.94,0,1.84,0.03,2.71,0.06c0.75,0.02,1.48,0.05,2.19,0.05c1.03,0,1.83-0.05,2.54-0.17  c0.92-0.15,1.81-0.55,2.18-0.82c0.03-0.48-0.16-1.43-0.44-1.81c-7.53-10.22-15.51-20.61-22.55-29.78c-0.61-0.8-1.16-1.08-1.46-1.08  c-0.35,0-0.85,0.37-1.3,0.96c-7.76,10.09-15.34,19.99-22.72,30.01c-0.23,0.33-0.39,1.32-0.31,1.81c0.35,0.24,1.16,0.59,1.92,0.7  c0.77,0.11,1.64,0.16,2.73,0.16c0.74,0,1.49-0.02,2.26-0.04c0.87-0.02,1.76-0.05,2.68-0.05h3c0,0,0,6.97-0.01,8.9  c-0.01,4.43-0.02,8.61,0.02,12.83c0.03,2.95,1.4,4.41,4.19,4.47c2.52,0.06,5.06,0.08,7.55,0.08c2.57,0,5.16-0.03,7.69-0.09  c3.22-0.08,4.01-2.28,4.1-4.11c0.08-1.6,0.06-3.21,0.05-4.9c-0.01-0.73-0.01-1.47-0.01-2.2v-14.97H216.73z"></path>	<path class="st0" d="M83.25,219.05c2.25,0.22,4.19-1.59,4.5-4.03c0.08-0.67,0.04-1.35,0.05-2.03c0.27-15.78,3.54-30.9,10.19-45.22  c10.99-23.67,28.28-41.3,51.46-53.21c3.08-1.58,4.07-3.86,2.86-6.28c-1.25-2.49-3.68-3.13-6.7-1.52  c-41.63,22.28-63.25,57.34-66.53,104.14c0,1.36-0.11,2.72,0.02,4.06C79.35,217.42,80.83,218.82,83.25,219.05z"></path>	<path class="st0" d="M249.95,114.33c0.59,0.33,1.22,0.59,1.81,0.91c31.16,16.93,50.83,42.56,58,77.39  c1.4,6.78,1.67,13.8,2.25,20.73c0.31,3.64,1.65,5.7,4.38,5.72c2.75,0.02,4.38-2.08,4.38-5.65c0-0.87,0-1.74,0-2.61  c-2.13-38.12-17.84-69.23-48.2-92.57c-5.79-4.45-12.36-7.91-18.68-11.64c-2.71-1.6-5.2-0.71-6.39,1.75  C246.41,110.64,247.3,112.83,249.95,114.33z"></path>	<path class="st0" d="M280.39,258.5c3.26,0,6.6-0.46,9.77,0.09c6.85,1.2,13.6,2.89,20.39,4.42c5.77,1.3,11.56,2.25,17.62,1.13  c0.01-13.93-11.29-25.54-24.49-25.54C292.38,238.61,280.59,248.61,280.39,258.5z"></path>	<path class="st0" d="M295.17,268.33c-4.14-0.77-8.4-1.11-12.61-1.17c-2.66-0.03-3.9,1.59-3.61,4.62  c1.22,12.91,12.43,22.97,25.43,22.56c12.12-0.37,22.87-9.94,23.54-20.9c-3.94-0.18-7.95,0.04-11.81-0.64  C309.09,271.58,302.19,269.63,295.17,268.33z"></path>	<path class="st0" d="M336.84,315.2c-2.54-7.48-7.72-12.65-15.22-15.26c-1.13-0.39-2.7-0.35-3.8,0.12  c-9.41,4.06-18.74,4.06-28.16,0.01c-1.1-0.47-2.69-0.55-3.8-0.14c-9.78,3.68-15.49,10.84-16.49,21.18  c-0.58,6.03-0.11,12.16-0.11,18.66c1.22,0,2.35,0,3.48,0c4.04,0,8.09-0.01,12.13-0.01v-0.22h39v0.21c3.59,0,7.18,0.01,10.77,0.01  c1.05,0,2.1,0,3.62,0C337.81,331.42,339.55,323.16,336.84,315.2z"></path>	<path class="st0" d="M107.54,264.16c4.33,0.88,8.74,1.5,13.1,0.06c-0.72-14.08-10.61-24.74-23.33-25.29  c-11.81-0.52-23.05,8.33-24.63,19.36c4.11,0.27,8.11,0.14,11.95,0.86C92.32,260.59,99.88,262.61,107.54,264.16z"></path>	<path class="st0" d="M105.99,292.55c8.17-3.62,12.96-9.98,14.65-19.13c-3.63,0-6.78,0.45-9.76-0.09  c-8.16-1.46-16.21-3.48-24.37-4.96c-3.85-0.7-7.84-0.87-11.76-0.89c-2.22-0.01-3.47,1.23-3.35,3.96  C72.13,288.28,90.32,299.5,105.99,292.55z"></path>	<path class="st0" d="M129.33,315.74c-2.47-7.51-7.6-12.73-15.05-15.44c-1.26-0.46-3.05-0.36-4.3,0.17  c-9.24,3.87-18.39,3.87-27.65,0.03c-1.33-0.55-3.22-0.6-4.57-0.11c-9.68,3.52-16.01,12.64-16.13,22.98  c-0.06,5.41-0.01,10.83-0.01,16.68c3.82,0,7.56-0.02,11.26-0.02v-0.46h39v0.47c6.16-0.01,12.36,0,18.84,0  C130.32,331.79,131.93,323.63,129.33,315.74z"></path>	<path class="st0" d="M213.03,85.21c4.42,0.9,8.93,1.55,13.39,0.14c-0.33-13.63-10.45-24.6-23.25-25.34  c-11.58-0.67-23.01,8.28-24.7,19.42c3.89,0.22,7.71,0.03,11.36,0.72C197.61,81.61,205.28,83.63,213.03,85.21z"></path>	<path class="st0" d="M199.67,115.67c12.11,1.08,23.73-7.17,26.31-18.71c0.16-0.72,0.13-1.48,0.21-2.47c-3.46,0-6.81,0.47-9.97-0.09  c-8.08-1.43-16.06-3.47-24.13-4.97c-3.67-0.68-7.47-0.9-11.22-0.92c-2.47-0.01-3.88,1.25-3.7,4.28  C177.87,104.45,187.71,114.61,199.67,115.67z"></path>	<path class="st0" d="M176.88,161.11v-0.27h39v0.27c6.73-0.01,13.5,0,20.62,0c-0.46-8.4,1.29-16.74-1.58-24.81  c-2.62-7.37-7.79-12.37-15.11-15.03c-1.11-0.4-2.69-0.3-3.79,0.17c-9.42,4.06-18.75,4.04-28.18,0.02c-1.16-0.5-2.87-0.52-4.05-0.07  c-9.51,3.68-15.15,10.71-16.19,20.8c-0.63,6.12-0.12,12.35-0.12,18.92C170.66,161.11,173.78,161.11,176.88,161.11z"></path></g></svg>