<svg xmlns="http://www.w3.org/2000/svg" xmlns:xlink="http://www.w3.org/1999/xlink" id="Layer_1" x="0px" y="0px" viewBox="0 0 400 400" style="enable-background:new 0 0 400 400;" xml:space="preserve"><style type="text/css">	.st0{fill:#322B6A;}	.st1{fill-rule:evenodd;clip-rule:evenodd;fill:#322B6A;}</style><g>	<path class="st0" d="M66.42,82.42c12.35,0,24.7,0.03,37.05-0.03c1.81-0.01,3.67-0.24,5.41-0.72c9.71-2.72,19.41-5.48,29.06-8.38  c2.64-0.79,4.88-0.51,7.31,0.72c11.26,5.73,22.56,11.38,33.91,16.94c1.57,0.77,3.47,1.21,5.22,1.22  c27.56,0.07,55.12,0.05,82.68,0.05c10.22,0,16.21,5.96,16.22,16.11c0.01,13.27,0,26.53,0,39.8c0,1.09,0,2.18,0,3.18  c18.62,4.03,30.05,18.09,29.35,35.66c-0.66,16.5-13.29,30.07-30.44,32.36c-7.85,1.05-15.24-0.76-21.93-5  c-8.84-5.6-13.96-13.75-15.86-24.14c-1.38,0-2.59,0-3.8,0c-29.19,0-58.39,0-87.58,0c-10.9,0-16.68-5.71-16.74-16.53  c-0.01-0.98-0.09-1.95-0.14-2.92c-24.55,0-48.81,0-73.21,0c0,19.5,0,38.85,0,58.41c91.52,0,182.81,0,274.25,0c0-1.23,0-2.24,0-3.26  c0-48.88,0-97.77,0-146.65c0-10.59-5.88-16.43-16.52-16.43c-80.44,0-160.87,0-241.31,0c-11.68,0-18.2,7.77-16.18,19.59  C64.22,82.42,65.32,82.42,66.42,82.42z"></path>	<path class="st0" d="M273.27,126.73c-42.49,0-84.77,0-127.12,0c0,3.17,0,6.12,0,9.4c42.51,0,84.79,0,127.12,0  C273.27,132.87,273.27,129.77,273.27,126.73z"></path>	<path class="st0" d="M266.4,102.01c-37.74,0-75.48,0-113.22,0c-0.92,0-1.85-0.08-2.75,0.06c-2.38,0.37-4.06,1.78-4.23,4.16  c-0.24,3.41-0.06,6.85-0.06,10.37c42.53,0,84.72,0,127.33,0c0-2.72,0-5.16,0-7.59C273.47,103.43,272.05,102.01,266.4,102.01z"></path>	<path class="st0" d="M138.44,83.47c-9.23,2.55-18.42,5.26-27.65,7.79c-2.13,0.58-4.4,0.9-6.6,0.91  c-12.66,0.08-25.31,0.04-37.97,0.04c-1.08,0-2.16,0-3.3,0c0,23.02,0,45.63,0,68.41c0.54,0.09,0.74,0.15,0.94,0.15  c32.97,0.01,65.94,0.03,98.9,0c4.56,0,7.78-3.15,7.8-7.3c0.02-4.15-3.2-7.3-7.74-7.35c-6.74-0.07-13.47-0.02-20.21-0.02  c-5.28,0-10.56,0-15.94,0c0-3.4,0-6.49,0-9.92c3.28,0,6.38,0,9.61,0c0-9.61-0.02-18.89,0-28.17c0.02-9.72,6.13-15.76,15.92-15.8  c2.04-0.01,4.07,0,6.11,0c-5.44-3.38-10.87-6.18-16.41-8.77C140.96,82.99,139.53,83.17,138.44,83.47z"></path>	<path class="st0" d="M137.59,328.24c0.12,0.39,0.27,0.77,0.47,1.12c3.1,5.33,7.74,7.81,13.89,7.81  c29.48-0.03,58.96-0.01,88.43-0.02c3.06,0,6.12,0.08,9.18-0.03c6.05-0.21,11.49-4.33,12.74-9.61c-41.57,0-83.11,0-124.64,0  C137.63,327.86,137.54,328.07,137.59,328.24z"></path>	<path class="st0" d="M223.26,278.43c-15.51-0.08-31.01-0.02-46.52-0.11c-2.02-0.01-2.75,0.66-3.3,2.56  c-3.32,11.44-6.81,22.83-10.23,34.24c-0.22,0.73-0.33,1.48-0.53,2.36c24.94,0,49.61,0,74.77,0c-3.82-12.79-7.52-25.27-11.38-37.69  C225.86,279.09,224.23,278.43,223.26,278.43z"></path>	<path class="st0" d="M337.14,239.4c-91.62,0-182.92,0-274.36,0c0,4.19,0,8.16,0,12.14c0,11.44,5.63,17.03,17.15,17.03  c80.03,0,160.06,0,240.09,0c1.12,0,2.25,0.03,3.37-0.04c7.29-0.46,13.36-6.35,13.7-13.63C337.33,249.82,337.14,244.72,337.14,239.4  z"></path>	<path class="st0" d="M162.96,170.58c-5.57,0.05-11.15,0.01-16.67,0.01c-0.72,8.57,0.39,9.8,8.44,9.8c28.67,0,57.35,0,86.02,0  c1.2,0,2.4,0,3.55,0c3.5-16.18,13.24-25.76,29.1-29.18c0-1.67,0-3.18,0-4.89c-31.63,0-62.96,0-93.84,0  c0.21,3.41,0.96,6.7,0.51,9.81C178.83,164.72,171.75,170.5,162.96,170.58z M224.64,156.03c3.2,0,6.21,0,9.44,0  c0,3.13,0,6.22,0,9.49c-3.11,0-6.2,0-9.44,0C224.64,162.4,224.64,159.39,224.64,156.03z M205.13,156.12c2.99,0,6.07,0,9.42,0  c0,3.22,0,6.23,0,9.41c-3.14,0-6.16,0-9.42,0C205.13,162.52,205.13,159.43,205.13,156.12z M185.49,156.15c3.19,0,6.35,0,9.53,0  c0,3.2,0,6.14,0,9.31c-3.14,0-6.23,0-9.53,0C185.49,162.43,185.49,159.34,185.49,156.15z"></path>	<path class="st0" d="M278.3,209.78c13.38,0.03,24.44-10.85,24.57-24.18c0.13-13.54-10.78-24.69-24.26-24.79  c-13.53-0.1-24.65,10.85-24.72,24.33C253.83,198.65,264.81,209.74,278.3,209.78z M267.57,181.52c1.84,2.32,3.61,4.54,5.57,7.01  c5.72-5.87,10.9-11.17,16.16-16.57c2.53,2.57,4.71,4.79,6.98,7.1c-6.55,6.58-13.03,13.21-19.66,19.68  c-1.93,1.88-4.4,1.78-6.38-0.06c-3.35-3.12-6.51-6.44-9.85-9.77C262.78,186.46,264.89,184.28,267.57,181.52z"></path></g></svg>