<svg xmlns="http://www.w3.org/2000/svg" xmlns:xlink="http://www.w3.org/1999/xlink" id="Layer_1" x="0px" y="0px" viewBox="0 0 400 400" style="enable-background:new 0 0 400 400;" xml:space="preserve"><style type="text/css">	.st0{fill:#322B6A;}	.st1{fill-rule:evenodd;clip-rule:evenodd;fill:#322B6A;}</style><g>	<path class="st0" d="M343.68,226.95c-6.15-9.14-10.88-23.23-13.06-32.52l-2.52-10.74l-5.09,9.79c-4.4,8.46-12.46,20.95-20.68,28.3  l-11.79,10.53l27.36-6.19c-17.52,55.57-68.74,93.55-127.97,93.55c-74.02,0-134.24-60.22-134.24-134.24H47.5  c0,78.53,63.89,142.42,142.42,142.42c32.33,0,63.99-11.13,89.14-31.34c22.4-18,38.93-42.54,47.2-69.82l26.23,13.38L343.68,226.95z"></path>	<path class="st0" d="M189.04,209.19c16.22,0,29.24-13.03,29.22-29.25c-0.02-16.22-13.05-29.21-29.29-29.18  c-16.16,0.02-29.13,13.01-29.15,29.18C159.8,196.15,172.82,209.19,189.04,209.19z M175.65,177.38c1.68-1.73,4.2-1.73,6.06,0.04  c1.28,1.2,2.52,2.45,3.78,3.67c0.03,0.03,0.08,0.02,0.25,0.06c2.85-3.06,5.74-6.17,8.64-9.27c0.66-0.71,1.3-1.44,1.99-2.12  c1.69-1.67,4.18-1.76,5.87-0.23c1.69,1.53,1.84,4.17,0.21,5.98c-2.35,2.61-4.77,5.16-7.17,7.73c-2.08,2.23-4.15,4.47-6.25,6.69  c-2.04,2.15-4.42,2.2-6.55,0.11c-2.24-2.2-4.47-4.42-6.67-6.67C174.09,181.58,174.05,179.04,175.65,177.38z"></path>	<path class="st0" d="M91.99,199.71c1.53,0,3.4-0.06,5.72-0.16c0.44-0.02,0.87-0.03,1.28-0.03c6.66,0,8.96,2.58,11.89,8.75  c6.36,13.41,5.04,20.48-5.04,27.02c-3.19,2.07-4.04,4.46-4.19,6.09c-0.24,2.67,1.04,5.35,3.82,7.98  c5.82,5.51,10.19,9.88,14.15,14.16c2.29,2.48,4.77,3.79,7.16,3.79c1.81,0,4.47-0.75,6.84-4.3c1.58-2.36,6.38-9.55,13.93-9.55  c3.53,0,7.47,1.53,11.72,4.56c0.57,0.4,1.21,0.65,1.85,0.73c1.17,0.13,2.21,0.36,3.09,0.66l3.53,1.21l0.96,3.6  c0.41,1.55,0.56,3.6,0.44,6.25c-0.34,7.91-0.41,12.16,2.05,14.73c2.38,2.49,6.4,2.61,13.88,2.61l3.62,0  c9.09,0,13.96-0.13,16.79-3.01c2.73-2.77,2.99-7.2,3.32-16.96l0.01-0.39c0.04-1.16,0.24-2.23,0.4-2.92l0.73-3.14l2.85-1.49  c5.6-2.92,11.61-5.14,15.64-6.55l3.34-1.16l3.19,2.17c1.73,1.23,3.55,2.96,5.32,4.64c3.7,3.52,7.53,7.15,11.54,7.15  c0.22,0,0.43-0.01,0.64-0.03c4.73-0.47,8.43-4.68,12.34-9.14c1.51-1.73,2.94-3.36,4.4-4.71c0.52-0.48,1.05-1.05,1.56-1.6  c0.54-0.59,1.06-1.14,1.6-1.61c3.65-3.19,3.67-5.75,3.68-6.6c0.01-0.84,0.03-3.39-3.51-6.58c-3.42-3.08-6.4-6.04-9.13-9.05  l-2.85-3.15l1.47-3.98c1.96-5.3,4.15-10.63,6.52-15.86l1.6-3.52l3.79-0.52c2.02-0.3,4.44-0.35,6.81-0.4  c6.77-0.14,11.39-0.47,13.96-3.58c3.02-3.66,2.66-9.25,2.28-15.17c-0.14-2.19-0.29-4.46-0.22-6.46c0.03-0.79,0.02-1.64,0-2.51  l0-0.12c-0.01-0.65-0.02-1.31-0.01-1.97c0.08-3.05-0.64-5.31-2.22-6.93c-1.57-1.61-3.81-2.4-6.76-2.4l-0.5,0.01  c-2.11,0.05-4.39,0.07-7.17,0.07c-1.65,0-3.31-0.01-4.96-0.02l-4.58-0.02l-2.31-5.35c-2.27-5.21-4.23-9.71-5.8-14.44l-0.24-0.71  l-0.08-0.75c-0.06-0.57-0.06-1.17-0.01-1.8l0.18-2.27l1.49-1.73c7.68-8.93,10.15-12.17,9.98-16.39c-0.18-4.4-3.49-7.86-11.66-15.96  c-0.49-0.49-0.89-0.96-1.22-1.34l-0.17-0.2c-1.28-1.5-2.72-3.2-4.75-3.89c-1.71-0.58-4.14-0.97-6.04-0.97  c-3.53,0-4.4,1.34-4.69,1.77c-4.48,6.85-9.49,10.18-15.3,10.18c-4.25,0-8.98-1.72-14.46-5.25c-0.42-0.27-0.9-0.47-1.41-0.58  l-5.47-1.18l-0.06-5.59c0-0.21,0-0.43,0-0.62c0.02-1.81,0.06-3.45,0.09-4.93c0.19-8.5,0.07-11.67-2.07-13.85  c-2.07-2.11-5.56-2.28-10.26-2.28c-0.88,0-1.84,0.01-2.93,0.02l-0.32,0c-1.15,0.01-2.4,0.02-3.77,0.02l-4.09-0.01  c-7.56,0-11.62,0.12-14.03,2.62c-2.43,2.53-2.39,6.67-2.1,14.4c0.28,7.43-2.02,9.9-8.64,13.14c-5.45,2.66-9.65,3.9-13.22,3.9  c-5.27,0-9.62-2.89-13.69-9.08c-2.35-3.58-5-4.33-6.81-4.33c-2.39,0-4.87,1.32-7.17,3.82c-1.7,1.85-3.5,3.57-5.4,5.39  c-3.15,3.02-6.13,5.86-8.68,9.3c-1.86,2.5-2.24,7.27-1.8,9.75c0.25,1.43,0.81,2.44,1.67,3c11.41,7.5,12.75,16.22,4.48,29.18  c-0.15,0.23-0.27,0.47-0.36,0.75l-0.6,1.7l-1.57,1.39l0.08-0.07c-0.53,0.47-1.25,1.11-1.79,1.54l-1.73,1.38l-2.21,0.13  c-10.72,0.64-15.04,1.17-17.79,4.16c-2.89,3.14-3.01,7.83-3.02,19.07c-0.01,7.04,0.05,10.26,1.39,12.69  C83.94,199.11,87.09,199.71,91.99,199.71z M117.95,178.86c1.01-2.33,2.78-3.28,5.3-3.07c1.42,0.12,2.85,0.02,4.34,0.02  c1.25-15.33,7.1-28.48,17.9-39.3c10.81-10.83,23.96-16.71,39.4-17.99c0-1.71-0.01-3.45,0-5.19c0.01-2.61,1.68-4.42,4.1-4.45  c2.49-0.03,4.22,1.79,4.23,4.46c0.01,1.7,0,3.41,0,5.18c15.32,1.24,28.48,7.09,39.3,17.89c10.83,10.81,16.71,23.96,17.99,39.4  c1.66,0,3.35,0,5.04,0c2.8,0.01,4.62,1.69,4.6,4.23c-0.03,2.46-1.85,4.09-4.59,4.1c-1.66,0-3.31,0-5.05,0  c-1.24,15.32-7.09,28.48-17.89,39.3c-10.81,10.83-23.95,16.72-39.4,17.99c0,1.42-0.1,2.89,0.02,4.34c0.21,2.52-0.76,4.28-3.07,5.3  c-0.74,0-1.48,0-2.22,0c-2.31-1.02-3.29-2.77-3.08-5.3c0.12-1.45,0.02-2.92,0.02-4.34c-15.44-1.28-28.59-7.16-39.4-17.99  c-10.8-10.82-16.65-23.97-17.89-39.3c-1.49,0-2.92-0.1-4.34,0.02c-2.52,0.21-4.28-0.75-5.3-3.07  C117.95,180.34,117.95,179.6,117.95,178.86z"></path></g></svg>