<svg xmlns="http://www.w3.org/2000/svg" xmlns:xlink="http://www.w3.org/1999/xlink" id="Layer_1" x="0px" y="0px" viewBox="0 0 400 400" style="enable-background:new 0 0 400 400;" xml:space="preserve"><style type="text/css">	.st0{fill:#322B6A;}	.st1{fill-rule:evenodd;clip-rule:evenodd;fill:#322B6A;}</style><g>	<path class="st0" d="M65.59,355.25c10.88,0,21.52,0,32.29,0c0.76-27.52,1.51-55.11,2.29-83.19c-10.99,0-21.45,0-32.27,0  C67.13,299.5,66.37,327.1,65.59,355.25z"></path>	<path class="st0" d="M315.76,291.94c-14.01,6.54-27.99,13.14-41.98,19.72c-0.65,0.31-1.25,0.73-1.82,1.07  c0.18,1.27,0.4,2.33,0.48,3.39c0.49,6.79-1.39,8.74-8.26,8.58c-9.98-0.23-19.97-0.46-29.95-0.71c-10.52-0.26-21.05-0.47-31.57-0.85  c-4.13-0.15-6.5-2.55-6.3-5.89c0.2-3.34,2.8-5.3,6.93-5.18c8.35,0.24,16.71,0.61,25.06,0.7c10.73,0.12,21.46,0.03,32.1,0.03  c-1.3-9.22-11.15-17.62-21.78-17.91c-9.98-0.27-19.97-0.46-29.95-0.79c-5.31-0.17-10.63-0.37-15.92-0.88  c-8.36-0.82-15.57-4.89-23.06-8.28c-19.28-8.72-38.26-7.8-56.6,2.85c-1.11,0.64-2.15,2.42-2.19,3.71  c-0.57,15.4-0.96,30.81-1.37,46.21c-0.05,2.03-0.01,4.07-0.01,6.59c1.81-0.92,3.17-1.57,4.48-2.29c7.79-4.29,15.93-5.09,24.49-2.66  c11.54,3.28,23.08,6.56,34.67,9.64c12.63,3.36,25.19,7.26,38.03,9.49c11.63,2.03,23.37-0.02,33.49-6.4  c29.2-18.41,58.13-37.23,87.17-55.89c0.86-0.55,1.66-1.2,2.53-1.83C329.1,289.69,322.43,288.83,315.76,291.94z"></path>	<path class="st0" d="M199.17,97.4c0.3,3.59,2.56,5.97,5.63,5.94c3.07-0.03,5.46-2.41,5.51-6.02c0.12-8.51,0.04-17.02,0.04-25.53  c0.01,0,0.01,0,0.02,0c0-8.19,0.06-16.37-0.02-24.56c-0.04-4.19-2.17-6.5-5.63-6.47c-3.44,0.02-5.42,2.35-5.57,6.56  c-0.02,0.54-0.01,1.08-0.01,1.62c0,15.4,0,30.81,0,46.21C199.14,95.89,199.11,96.65,199.17,97.4z"></path>	<path class="st0" d="M245.69,103.34c3.27,0.08,5.58-2.48,5.69-6.52c0.09-3.66,0.02-7.32,0.01-10.98c0-3.98,0.1-7.97-0.04-11.95  c-0.13-3.78-2.22-5.91-5.46-5.96c-3.34-0.05-5.62,2.21-5.68,6.08c-0.11,7.64-0.1,15.29-0.01,22.93  C240.25,100.79,242.51,103.26,245.69,103.34z"></path>	<path class="st0" d="M163.76,103.34c3.17-0.02,5.44-2.5,5.56-6.33c0.11-3.76,0.02-7.54,0.02-11.3c0-3.88,0.09-7.75-0.03-11.63  c-0.12-3.93-2.27-6.17-5.62-6.15c-3.34,0.02-5.49,2.26-5.54,6.22c-0.1,7.64-0.1,15.29,0,22.93  C158.21,100.89,160.58,103.36,163.76,103.34z"></path>	<path class="st0" d="M204.6,272.71c43.41,0.23,79.35-35.04,79.61-78.13c0.26-43.83-34.88-79.16-79.11-79.52  c-43.4-0.35-79.52,34.93-79.77,77.91C125.07,237,160.35,272.48,204.6,272.71z M195.08,154.64c2.88-1.21,3.46-2.71,3.43-5.47  c-0.06-5.2,4.07-8.33,7.89-5.94c1.55,0.97,3.07,3.38,3.04,5.12c-0.05,3.53,1.36,4.78,4.51,6.05c8.42,3.42,12.93,10.13,14.14,19.01  c0.18,1.34,0.11,2.85-0.34,4.12c-0.88,2.48-2.85,3.83-5.54,3.58c-2.79-0.26-4.5-1.94-5.02-4.71c-0.25-1.37-0.28-2.79-0.66-4.12  c-1.74-6.15-7.45-9.6-14.1-8.6c-5.76,0.86-10.32,6.52-10.05,12.49c0.28,6.2,5.1,11.12,11.39,11.61  c13.12,1.03,21.47,7.53,23.84,18.54c2.48,11.56-3.77,22.82-15.09,26.7c-2.29,0.79-3.18,1.81-2.89,4.08  c0.09,0.74,0.01,1.51-0.09,2.25c-0.41,3.06-2.48,5.07-5.29,5.16c-2.77,0.1-5.77-1.91-5.49-4.79c0.51-5.11-2.39-6.74-6.18-8.84  c-7.25-4.01-10.64-10.73-11.24-17.88c-0.01-4.65,1.95-7.04,5.14-7.22c3.44-0.2,5.56,1.88,5.91,5.8c0.57,6.41,5.19,11.34,10.96,11.7  c7.03,0.45,12.29-3.49,13.63-10.2c1.08-5.4-2.39-11.39-7.96-13.27c-2.01-0.68-4.23-0.83-6.38-1.04  c-10.99-1.07-19.4-8.99-21.15-19.99C179.93,169.04,185.58,158.62,195.08,154.64z"></path></g></svg>