<svg xmlns="http://www.w3.org/2000/svg" xmlns:xlink="http://www.w3.org/1999/xlink" id="Layer_1" x="0px" y="0px" viewBox="0 0 400 400" style="enable-background:new 0 0 400 400;" xml:space="preserve"><style type="text/css">	.st0{fill:#322B6A;}	.st1{fill-rule:evenodd;clip-rule:evenodd;fill:#322B6A;}</style><g>	<path class="st0" d="M293.73,142.45c0.43,2.66,2.12,4.37,4.84,4.31c2.54-0.06,4.33-1.65,4.52-4.24c0.22-2.87,0.19-5.78-0.06-8.64  c-0.22-2.49-1.97-3.88-4.4-3.98c-2.6-0.1-4.3,1.39-4.83,3.91c-0.29,1.39-0.17,2.87-0.24,4.31c0.04,0,0.08,0,0.12,0  C293.69,139.57,293.5,141.04,293.73,142.45z"></path>	<path class="st0" d="M293.6,118.76c0.49,3,2.4,5.06,4.93,5.01c2.66-0.05,4.69-2.4,5.41-5.8c-1.32-2.95-2.33-6.08-4.04-8.78  c-1.42-2.25-3.9-2.57-6.27-1.04c-2.05,1.32-2.52,3.88-1.42,6.31C292.83,115.83,293.36,117.29,293.6,118.76z"></path>	<path class="st0" d="M124.8,316.96c2.35-0.01,3.94-1.25,4.47-3.52c0.35-1.48,0.32-3.05,0.47-4.63c-0.14-1.72-0.09-3.5-0.48-5.18  c-0.51-2.26-2.11-3.46-4.5-3.45c-2.38,0.01-4.2,1.18-4.42,3.48c-0.32,3.25-0.31,6.57,0.02,9.82  C120.61,315.77,122.46,316.96,124.8,316.96z"></path>	<path class="st0" d="M298.32,169.8c2.7,0.07,4.55-1.57,4.79-4.3c0.24-2.76,0.22-5.57-0.01-8.34c-0.21-2.6-1.93-4.16-4.52-4.22  c-2.77-0.07-4.41,1.6-4.85,4.27c-0.22,1.31-0.04,2.68-0.04,4.02c-0.01,0-0.02,0-0.02,0c0,1.34-0.13,2.7,0.03,4.02  C294.03,167.93,295.62,169.73,298.32,169.8z"></path>	<path class="st0" d="M153.88,329.06c-2.76-0.28-5.58-0.24-8.35-0.02c-2.56,0.2-4.53,2.5-4.33,4.82c0.22,2.55,1.65,4.2,4.26,4.55  c1.32,0.18,2.67,0.15,4.01,0.21c0-0.06,0-0.12,0-0.18c1.44,0,2.9,0.14,4.32-0.03c2.75-0.34,4.35-2.09,4.31-4.79  C158.07,331.07,156.41,329.31,153.88,329.06z"></path>	<path class="st0" d="M176.61,328.99c-1.22-0.15-2.47-0.03-3.71-0.03c0,0.01,0,0.01,0,0.02c-1.44,0-2.91-0.15-4.33,0.03  c-2.56,0.33-4.53,2.52-4.33,4.84c0.22,2.55,1.64,4.32,4.26,4.52c2.77,0.21,5.57,0.23,8.34,0.01c2.76-0.22,4.37-2.08,4.3-4.77  C181.08,330.93,179.3,329.33,176.61,328.99z"></path>	<path class="st0" d="M200.04,329.06c-1.4-0.24-2.88-0.04-4.32-0.04c0-0.02,0-0.04,0-0.06c-1.24,0-2.49-0.1-3.71,0.02  c-2.76,0.26-4.88,2.35-4.72,4.8c0.18,2.72,1.73,4.47,4.48,4.65c2.77,0.18,5.57,0.17,8.34-0.08c2.64-0.24,4.09-2.1,4.09-4.63  C204.19,331.15,202.57,329.49,200.04,329.06z"></path>	<path class="st0" d="M222.94,329.04c-2.77-0.22-5.59-0.25-8.35,0.02c-2.54,0.25-4.19,2-4.23,4.56c-0.04,2.7,1.54,4.45,4.3,4.8  c1.32,0.17,2.68,0.03,4.01,0.03c0,0,0-0.01,0-0.01c1.44,0,2.9,0.14,4.32-0.03c2.62-0.31,4.04-1.99,4.27-4.54  C227.47,331.55,225.49,329.24,222.94,329.04z"></path>	<path class="st0" d="M125.36,323.14c-3.19,0.03-5.33,2.81-4.41,5.91c1.2,4.01,3.96,6.75,7.74,8.3c3.16,1.3,6.6-1.16,6.56-4.39  C135.21,330.26,128.01,323.12,125.36,323.14z"></path>	<path class="st0" d="M181.9,241.56c-17.71,0-31.77,14.09-31.74,31.81c0.03,17.51,14.12,31.7,31.56,31.8  c17.41,0.1,31.95-14.32,32.05-31.78C213.86,255.94,199.48,241.56,181.9,241.56z M201.83,267.97c-6.26,6.48-12.66,12.84-19.12,19.12  c-1.98,1.92-4.45,1.82-6.43-0.1c-4.84-4.68-9.61-9.44-14.28-14.29c-1.95-2.02-1.73-4.91,0.15-6.69c1.94-1.84,4.53-1.88,6.67,0.2  c3.56,3.44,6.97,7.03,10.72,10.85c5.25-5.3,10.08-10.14,14.87-15.02c1.88-1.91,3.99-2.62,6.42-1.26  C203.51,262.3,204.11,265.61,201.83,267.97z"></path>	<path class="st0" d="M350,230.98v-30.36h-45.93v-20c0-1.5-0.61-2.85-1.58-3.84c-0.99-0.98-2.34-1.58-3.84-1.58  c-2.99,0-5.42,2.43-5.42,5.42v20h-46.23v30.36h46.23v28.67h-46.24v30.58h3.85c14.13,0,28.26-0.01,42.39,0v28.15  c0,0.03,0.01,0.05,0.01,0.08c-15.42,0-30.84,0-46.29,0c0,10.2,0,20.23,0,30.48c34.55,0,68.81,0,102.99,0c0-10.34,0-20.44,0-30.48  c-15.33,0-30.61,0-45.87,0c0-0.03,0.01-0.05,0.01-0.08v-28.14h5.42v-0.07h34.71v0.04c1.92,0,3.84,0.01,5.77,0.01v-30.58h-45.9  v-28.67H350z M330.92,328.95c1.22,0,2.81-0.09,3.57,0.6c1.26,1.13,2.83,2.94,2.7,4.32c-0.14,1.54-1.84,3.16-3.25,4.26  c-0.82,0.64-2.39,0.42-3.62,0.42c-10.67,0.03-21.35,0.02-32.02,0.02c-10.47,0-20.93,0.01-31.4-0.01c-1.13,0-2.29-0.02-3.4-0.2  c-2.5-0.4-3.92-2.06-4.01-4.45c-0.09-2.58,1.47-4.23,3.98-4.84c0.79-0.19,1.65-0.14,2.47-0.14  C287.6,328.93,309.26,328.92,330.92,328.95z M330.79,269.99c4.39,0.04,6.65,1.67,6.63,4.78c-0.02,3.08-2.38,4.78-6.67,4.79h-26.68  h-10.85c-9.05,0-18.08,0.01-27.13-0.02c-1.21,0-2.83,0.12-3.56-0.56c-1.31-1.21-2.77-2.94-2.93-4.58  c-0.22-2.12,1.34-3.86,3.75-4.21c1.21-0.17,2.47-0.2,3.71-0.2c8.72,0,17.43-0.01,26.15,0c3.61-0.01,7.23-0.01,10.85-0.01H330.79z   M293.22,220.46c-9.27,0-18.55-0.01-27.81-0.01c-3.76,0-6.04-1.85-5.99-4.78c0.05-2.84,2.22-4.57,5.84-4.58  c9.33-0.01,18.65,0,27.96,0h10.85c9.14,0,18.27-0.01,27.41,0c3.87,0,6.02,1.74,5.95,4.73c-0.05,2.94-2.27,4.63-6.12,4.63  c-9.08,0-18.16,0.01-27.25,0.01H293.22z"></path>	<path class="st0" d="M177.17,231.93c0-3.59,0-7.37,0-11.18h-0.01v-3.94c0-0.62,0-1.23,0-1.85v-33.26h0.01c0-6.1,0-12.23,0-18.52  c-0.77,0.19-1.33,0.26-1.84,0.47c-3.34,1.35-6.4,0.72-8.95-1.64c-3.49-3.24-6.95-6.53-10.12-10.08c-3.97-4.44-3.66-8.58,0.55-12.89  c1.96-2,3.88-4.06,5.97-5.91c1.44-1.27,1.14-2.36,0.74-4.04c-0.96-4.09-3.39-5.1-7.17-4.59c-1.83,0.25-3.73,0.05-5.6,0.04  c-5.78-0.02-8.47-2.34-9.42-8.13c-0.15-0.92-0.31-1.84-0.51-3.04c-1.02,0-2.04,0-3.06,0c-19.82,0-39.64-0.05-59.46,0.09  c-1.73,0.01-3.88,0.84-5.12,2.03c-7.18,6.9-14.21,13.96-21.14,21.12c-1.08,1.12-1.92,3-1.92,4.54  c-0.1,43.38-0.07,86.77-0.11,130.15c0,2.38,0.24,3.93,3.27,3.92c28.43-0.08,56.87-0.05,85.3-0.05c0.5,0,1.01-0.09,1.66-0.15  C141.52,251.39,153.64,237.03,177.17,231.93z M80.25,147.8c0.77-0.24,1.64-0.16,2.47-0.16c20.62-0.01,41.24-0.01,61.86,0  c0.72,0,1.48-0.08,2.17,0.08c2.52,0.58,4.11,2.18,4.02,4.78c-0.09,2.54-1.56,4.31-4.25,4.5c-2.68,0.18-5.38,0.13-8.07,0.14  c-8.29,0.01-16.58,0.01-24.87,0.01c-9.84,0-19.69,0-29.53-0.01c-1.14,0-2.29,0-3.41-0.15c-2.52-0.34-3.85-1.9-3.98-4.39  C76.53,150.07,77.95,148.52,80.25,147.8z M76.79,174.67c0.47-1.54,1.88-3,3.24-3.99c0.86-0.62,2.39-0.41,3.63-0.41  c20-0.02,40-0.01,60-0.01c0.21,0,0.41,0,0.62,0c4.21,0.04,6.66,1.88,6.56,4.92c-0.09,2.96-2.45,4.71-6.48,4.71  c-10.16,0.02-20.31,0.01-30.47,0.01c-10.16,0-20.31,0.02-30.47-0.02c-1.32-0.01-2.72-0.12-3.95-0.56  C77.38,178.56,76.16,176.71,76.79,174.67z M83.44,192.85c10.15-0.01,20.31,0,30.46,0c10.47,0,20.93,0,31.4,0  c2.22,0,4.4,0.55,4.95,2.87c0.36,1.5,0.2,3.77-0.73,4.76c-1.08,1.15-3.24,1.78-4.94,1.79c-16.27,0.13-32.53,0.08-48.8,0.08  c-4.14,0-8.29,0-12.43,0c-4.42,0-6.64-1.55-6.71-4.66C76.56,194.41,78.7,192.86,83.44,192.85z M109.05,247.77  c-4.45,0.04-8.91,0.01-13.36,0.01c-4.45,0-8.91,0.04-13.36-0.01c-3.59-0.05-5.66-1.85-5.68-4.78c-0.02-2.97,1.96-4.79,5.61-4.82  c9.01-0.07,18.03-0.06,27.04,0c3.66,0.03,5.68,1.82,5.69,4.75C115,245.92,112.84,247.73,109.05,247.77z M146.14,224.95  c-3.1,0.16-6.21,0.08-9.32,0.08c-7.77,0.01-15.54,0-23.31,0c-9.84,0-19.69,0-29.53,0c-1.03,0-2.08,0.01-3.1-0.11  c-2.67-0.3-4.12-1.86-4.2-4.51c-0.09-2.69,1.48-4.2,3.97-4.79c0.79-0.19,1.65-0.09,2.48-0.09c20.41,0,40.82,0,61.24,0  c0.62,0,1.25-0.04,1.86,0.03c2.6,0.28,4.54,2.24,4.62,4.62C150.92,222.69,148.97,224.8,146.14,224.95z"></path>	<path class="st0" d="M245.99,137.66c-2.75-2.79-3.32-6.07-1.72-9.71c1-2.27,1.89-4.59,2.83-6.89c1.67-4.12,4.13-5.82,8.55-5.85  c3.69-0.02,7.38,0,11.16,0c0-4.29,0-8.16,0-12.26c-4.06,0-7.68-0.01-11.3,0c-4.27,0.01-6.99-2.11-8.49-6.02  c-0.77-2.03-1.6-4.04-2.48-6.02c-1.99-4.52-1.54-7.48,2-10.99c2.49-2.47,5.15-4.76,7.9-7.29c-3.19-3.36-5.85-6.16-8.88-9.35  c-3.01,3.18-5.49,5.96-8.15,8.56c-2.78,2.72-6.05,3.41-9.7,1.77c-1.98-0.89-3.97-1.76-6-2.53c-5.22-1.98-6.75-4.11-6.79-9.78  c-0.03-3.38,0-6.75,0-10.24c-4.35,0-8.21,0-12.26,0c0,2.27,0,4.13,0,5.98c0,1.87-0.01,3.74-0.01,5.6c0,3.87-1.88,6.45-5.4,7.91  c-2.2,0.91-4.41,1.79-6.58,2.74c-4.56,2-7.49,1.55-10.99-1.97c-2.47-2.49-4.81-5.11-7.43-7.91c-3.22,3.15-5.98,5.85-9.21,9  c2.88,2.67,5.45,4.93,7.86,7.33c3.63,3.6,4.12,6.68,2.1,11.25c-0.84,1.89-1.59,3.82-2.34,5.74c-1.72,4.41-4.14,6.13-8.98,6.2  c-3.51,0.06-7.03,0.01-10.9,0.01c0,4.21,0,8.14,0,12.25c4.06,0,7.68-0.02,11.31,0.01c4.26,0.03,6.7,1.72,8.33,5.69  c0.82,2.01,1.59,4.04,2.48,6.02c2.16,4.82,1.69,7.8-2.04,11.52c-2.47,2.46-5.04,4.81-7.6,7.25c3.09,3.26,5.71,6.02,8.8,9.28  c2.89-3.1,5.37-5.88,7.98-8.54c2.96-3.03,6.46-3.41,10.27-1.76c2.18,0.94,4.36,1.9,6.58,2.75c3.83,1.46,5.8,4.15,5.77,8.28  c-0.02,3.71,0,7.43,0,11.62c3.7,0,7.1,0.12,10.47-0.1c0.64-0.04,1.66-1.41,1.71-2.21c0.21-3.31,0.06-6.64,0.14-9.96  c0.09-3.59,1.94-6.03,5.2-7.42c2.19-0.93,4.43-1.73,6.6-2.7c4.67-2.08,7.67-1.65,11.25,1.98c2.46,2.49,4.72,5.18,6.8,7.49  c3.57-3.12,6.48-5.66,9.76-8.53C251.37,142.82,248.6,140.32,245.99,137.66z M208.73,142.03c-16.93-0.02-31.49-13.13-32.85-29.59  c-1.47-17.81,10.28-32.98,27.69-35.95c5.35-0.91,10.5-0.42,15.6,1.27c3.57,1.19,5.04,3.33,4.2,6.07c-0.92,2.99-3.31,3.98-7.03,2.91  c-12.25-3.53-24.12,1.67-29.06,12.73c-3.92,8.78-2.1,19.07,4.58,25.92c6.89,7.07,16.87,9.14,26.02,5.4  c8.6-3.52,14.67-12.38,14.44-21.71c-0.07-3.04-0.98-6.1-1.81-9.07c-0.94-3.38-0.1-5.89,2.7-6.88c2.57-0.92,4.87,0.43,6.18,3.63  C248.24,118.36,232.2,142.06,208.73,142.03z M223.28,109.31c-0.11,7.95-6.59,14.37-14.49,14.37c-8,0-14.58-6.65-14.54-14.68  c0.05-8.1,6.53-14.45,14.7-14.4C217.08,94.64,223.39,101.12,223.28,109.31z"></path>	<path class="st0" d="M208.61,103.99c-2.82,0.11-4.93,2.44-4.81,5.32c0.11,2.76,2.21,4.74,5.02,4.73c2.9-0.01,5.07-2.21,5.01-5.08  C213.77,106.16,211.39,103.89,208.61,103.99z"></path></g></svg>