<svg xmlns="http://www.w3.org/2000/svg" xmlns:xlink="http://www.w3.org/1999/xlink" id="Layer_1" x="0px" y="0px" viewBox="0 0 400 400" style="enable-background:new 0 0 400 400;" xml:space="preserve"><style type="text/css">	.st0{fill:#322B6A;}	.st1{fill-rule:evenodd;clip-rule:evenodd;fill:#322B6A;}</style><g>	<rect x="304.33" y="188.71" class="st0" width="6.6" height="93.38"></rect>	<rect x="304.33" y="153.44" class="st0" width="6.6" height="22.84"></rect>	<rect x="322.37" y="240.81" class="st0" width="6.6" height="18.44"></rect>	<rect x="322.37" y="176.29" class="st0" width="6.6" height="53.17"></rect>	<rect x="340.4" y="214.45" class="st0" width="6.6" height="30.06"></rect>	<rect x="340.4" y="191.01" class="st0" width="6.6" height="12.87"></rect>	<rect x="89.07" y="188.71" class="st0" width="6.6" height="93.38"></rect>	<rect x="89.07" y="153.44" class="st0" width="6.6" height="22.84"></rect>	<rect x="71.03" y="240.81" class="st0" width="6.6" height="18.44"></rect>	<rect x="71.03" y="176.29" class="st0" width="6.6" height="53.17"></rect>	<rect x="53" y="214.45" class="st0" width="6.6" height="30.06"></rect>	<rect x="53" y="191.01" class="st0" width="6.6" height="12.87"></rect>	<rect x="195.36" y="191.17" class="st0" width="11.42" height="6.6"></rect>	<rect x="213.58" y="191.17" class="st0" width="32.08" height="6.6"></rect>	<polygon class="st0" points="144.69,147.11 144.69,128.27 158.94,128.27 158.94,121.67 138.09,121.67 138.09,147.11  "></polygon>	<path class="st0" d="M244.17,48.17h-88.33v44.85h88.33V48.17z M166.47,53.73h13.31v6.6h-13.31V53.73z M166.47,67.3h38.83v6.6  h-38.83V67.3z M176.9,87.47h-10.43v-6.6h10.43V87.47z M233.53,87.47h-50.88v-6.6h50.88V87.47z M211.67,73.9v-6.6h21.86v6.6H211.67z   M233.53,60.33h-46v-6.6h46V60.33z"></path>	<path class="st0" d="M276.95,83.69h-26.19v9.32h8.35v6.6H140.89v-6.6h8.35v-9.32h-26.19c-5.62,0-10.19,4.57-10.19,10.19v247.76  c0,5.62,4.57,10.19,10.19,10.19h153.9c5.62,0,10.19-4.57,10.19-10.19V93.88C287.14,88.27,282.57,83.69,276.95,83.69z   M154.45,341.95h-23.88v-23.89h23.88V341.95z M154.45,309.54h-23.88v-23.89h23.88V309.54z M154.45,277.13h-23.88v-23.89h23.88  V277.13z M154.45,244.72h-23.88v-23.89h23.88V244.72z M192.78,341.95h-23.88v-23.89h23.88V341.95z M192.78,309.54h-23.88v-23.89  h23.88V309.54z M192.78,277.13h-23.88v-23.89h23.88V277.13z M192.78,244.72h-23.88v-23.89h23.88V244.72z M231.1,341.95h-23.88  v-23.89h23.88V341.95z M231.1,309.54h-23.88v-23.89h23.88V309.54z M231.1,277.13h-23.88v-23.89h23.88V277.13z M231.1,244.72h-23.88  v-23.89h23.88V244.72z M269.43,341.95h-23.88v-23.89h23.88V341.95z M269.43,309.54h-23.88v-23.89h23.88V309.54z M269.43,277.13  h-23.88v-23.89h23.88V277.13z M269.43,244.72h-23.88v-23.89h23.88V244.72z M274.63,210.49H125.36V108.93h149.27V210.49z"></path></g></svg>