<svg xmlns="http://www.w3.org/2000/svg" xmlns:xlink="http://www.w3.org/1999/xlink" id="Layer_1" x="0px" y="0px" viewBox="0 0 400 400" style="enable-background:new 0 0 400 400;" xml:space="preserve"><style type="text/css">	.st0{fill:#322B6A;}	.st1{fill-rule:evenodd;clip-rule:evenodd;fill:#322B6A;}</style><g>	<path class="st0" d="M328.24,294.9c-14.62-3.13-28.63,5.05-32.36,19.21c-0.7,2.67-1.79,3.25-4.25,3.24  c-18.1-0.08-36.21-0.05-54.31-0.05c-6.1,0-8.5-2.35-8.51-8.43c-0.02-15.18,0-30.36-0.01-45.55c-0.01-18.1-0.04-36.2-0.05-54.29  c-0.01-5.03-0.01-4.98,4.87-4.95c7.33,0.04,14.66,0.01,21.99,0.01c11.91,0,23.83,0.11,35.74-0.09c2.87-0.05,4.07,0.85,4.81,3.53  c3.6,13.07,15.85,21.07,29.32,19.34c13.75-1.77,23.7-13.24,23.69-27.3c-0.01-13.33-10.51-24.77-24.3-26.48  c-12.98-1.61-25.81,7.17-29.05,20.11c-0.57,2.29-1.42,2.99-3.71,2.98c-19.84-0.08-39.68-0.12-59.51,0.02  c-3.16,0.02-3.86-0.96-3.85-3.97c0.1-33.63,0.06-67.27,0.07-100.9c0-6.26,2.15-8.39,8.43-8.4c17.75-0.01,35.51,0.07,53.26-0.08  c3.23-0.03,4.77,0.59,5.77,4.11c3.63,12.79,16.44,20.66,29.52,18.7c13.4-2.01,23.36-13.32,23.37-26.54  c0.01-13.8-9.98-25.13-23.96-27.15c-12.87-1.86-25.67,6.66-29.24,19.75c-0.7,2.57-1.71,3.26-4.24,3.25  c-17.87-0.1-35.74-0.05-53.61-0.05c-11.71,0-17.2,5.45-17.2,17.06c0,35.97,0,71.94,0,107.91c0,0-0.01,0-0.01,0  c0,5.35,0,10.7,0,16.05c0.01,30.6,0.03,61.2,0.01,91.79c-0.01,12.01,5.21,17.41,17.15,17.43c17.87,0.03,35.74,0.05,53.61-0.04  c2.48-0.01,3.55,0.61,4.25,3.25c2.9,11.09,12.35,18.79,23.68,19.78c14.15,1.23,27.02-8.62,29.06-22.24  C350.82,311.33,341.95,297.83,328.24,294.9z"></path>	<path class="st0" d="M207,247.24c-0.01-5.14-2.13-7.22-7.16-7.22c-4.8,0-9.61-0.1-14.41-0.11c-18.7-0.02-37.4-0.03-56.09,0  c-4.87,0.01-7.06,2.22-7.07,7.1c-0.02,15.43-0.02,30.87,0,46.3c0.01,5.36,2.03,7.4,7.37,7.41c11.58,0.03,23.15,0.01,34.73,0.01  c11.79,0,23.58,0.02,35.37-0.01c5.13-0.01,7.24-2.13,7.27-7.18c0.02-4.18,0-8.36,0-12.54C207.01,269.75,207.02,258.49,207,247.24z   M199.01,291.38c-0.01,2.26-0.01,2.45-2.52,2.45c-4.56,0.01-9.12,0.02-13.68,0.02l-18.42-0.01l-18.48,0.01  c-4.35,0-8.69,0-13.04-0.02c-1.8,0-2.27-0.34-2.27-0.34c0,0-0.33-0.47-0.34-2.3c-0.02-13.69-0.02-27.83,0-42.02  c0-2.18,0.18-2.35,2.33-2.36c7.19-0.01,14.37-0.01,21.56-0.01c9.78,0,19.57,0.01,29.36,0.02c2.12,0,4.23,0.03,6.35,0.05  c2.24,0.03,4.48,0.05,6.72,0.05c1.65,0,2.08,0.32,2.08,0.33s0.34,0.45,0.34,2.14c0.01,7.06,0.01,14.13,0.01,21.19l0,9.45  c0,1.29,0,2.58,0.01,3.87C199.02,286.38,199.03,288.88,199.01,291.38z"></path>	<path class="st0" d="M87.13,86.52c1.04,1.72,2.35,3.38,4,4.94c0.94,0.89,1.92,1.68,2.91,2.38c1.29,0.81,2.71,1.52,4.26,2.11  c2.58,0.98,5.12,1.51,7.59,1.59c0.03,0,0.06,0,0.09,0c0.03,0,0.06,0,0.09,0c2.46-0.07,5-0.6,7.59-1.59  c1.55-0.59,2.97-1.3,4.26-2.11c1-0.7,1.97-1.48,2.91-2.38c1.65-1.57,2.96-3.22,4-4.94c1.33-2.42,2.22-5.18,2.66-8.27  c0.24-1.68,0.22-3.4,0.32-5.1c-0.01-2.15-0.21-4.17-0.56-6.07c-0.18-0.89-0.39-1.78-0.63-2.67c-2.14-7.38-7.15-12.45-14.74-14.7  c-1.36-0.4-2.74-0.66-4.12-0.78c-0.08-0.01-0.17-0.01-0.25-0.02c-0.51-0.04-1.02-0.05-1.53-0.06c-0.51,0-1.02,0.02-1.53,0.06  c-0.08,0.01-0.17,0.01-0.25,0.02c-1.38,0.12-2.76,0.38-4.12,0.78c-7.59,2.25-12.6,7.32-14.74,14.7c-0.24,0.89-0.45,1.78-0.63,2.67  c-0.35,1.9-0.54,3.92-0.56,6.07c0.1,1.7,0.08,3.42,0.32,5.1C84.91,81.33,85.8,84.1,87.13,86.52z"></path>	<path class="st0" d="M132.85,306.72h-3.23c-8.59-0.02-13.33-4.78-13.35-13.41c-0.02-14.99-0.02-30.58,0-46.32  c0.02-8.18,4.9-13.07,13.06-13.08h3.53v-22.06H79.1v3.36c0,41.22,0,82.42,0.01,123.62c0,1.4-0.04,2.8,0.24,4.15  c0.99,4.7,5.08,8.02,9.72,8.16h0.15c0.21,0,0.42-0.01,0.63-0.02c0.13,0,0.26-0.01,0.39-0.02c0.12-0.01,0.23-0.03,0.35-0.04  c0.22-0.03,0.45-0.06,0.67-0.1c3.9-0.78,7.15-3.81,8.02-7.92c0.3-1.44,0.26-2.97,0.26-4.47c0.01-33.31,0.01-66.61,0.01-99.92  c0-5.52,2.3-8.58,6.41-8.57c0.01,0,0.02,0.01,0.02,0.01c0.01,0,0.02-0.01,0.02-0.01c4.11-0.01,6.41,3.05,6.41,8.57  c0,33.31,0,66.61,0.01,99.92c0,1.5-0.04,3.03,0.26,4.47c0.88,4.11,4.13,7.14,8.02,7.92h0.01c0.22,0.04,0.44,0.07,0.67,0.1  c0.11,0.01,0.23,0.03,0.35,0.04c0.13,0.01,0.26,0.02,0.39,0.02c0.21,0.01,0.42,0.02,0.63,0.02h0.15c4.64-0.14,8.73-3.46,9.71-8.16  c0.28-1.35,0.24-2.75,0.24-4.15V306.72z"></path>	<path class="st0" d="M79.1,195.32v3.36c1.21,0.07,1.94,0.14,2.68,0.14h48.4c0.73,0,1.47-0.07,2.68-0.14v-3.36  c0-14.84-0.01-29.68,0.02-44.52c0-1.37,0.08-2.8,0.48-4.09c0.57-1.8,1.68-3.05,3.17-3.72c0.78-0.39,1.69-0.59,2.7-0.61  c1.46-0.03,2.68,0.35,3.67,1.09c0.01,0.01,0.02,0.01,0.03,0.02c0.13,0.1,0.25,0.2,0.37,0.31c0.83,0.71,1.48,1.68,1.87,2.92  c0.22,0.7,0.34,1.44,0.41,2.2c0.09,0.71,0.15,1.47,0.15,2.28c0.01,0.85,0,1.71,0,2.56c0,19.4,0.28,38.8,0.3,58.21l-0.35,0  c0,1.39,0,2.79,0,4.18c0,0.85-0.02,1.71,0.01,2.56c0.22,4.9,3.24,8.19,7.57,8.25c4.47,0.06,7.76-3.28,7.77-8.34  c0.04-24.55,0.26-49.11-0.11-73.65c-0.29-18.44-16.19-34.13-34.63-34.57c-6.76-0.16-13.53-0.25-20.3-0.25  c-6.77,0-13.54,0.08-20.3,0.25c-18.44,0.44-34.34,16.13-34.63,34.57c-0.37,24.54-0.15,49.1-0.11,73.65c0.01,5.06,3.3,8.4,7.77,8.34  c4.33-0.06,7.35-3.35,7.57-8.25c0.03-0.85,0.01-1.71,0.01-2.56c0-1.39,0-2.79,0-4.18l-0.35,0c0.02-19.41,0.3-38.81,0.3-58.21  c0-0.85-0.01-1.71,0-2.56c0-0.82,0.05-1.57,0.15-2.28c0.06-0.75,0.18-1.5,0.41-2.2c0.39-1.24,1.03-2.21,1.87-2.92  c0.12-0.11,0.24-0.22,0.37-0.31c0.01-0.01,0.02-0.01,0.03-0.02c0.99-0.74,2.21-1.12,3.67-1.09c1.02,0.02,1.92,0.22,2.7,0.61  c1.49,0.67,2.6,1.92,3.17,3.72c0.4,1.29,0.48,2.72,0.48,4.09C79.11,165.64,79.1,180.48,79.1,195.32z"></path></g></svg>