<svg xmlns="http://www.w3.org/2000/svg" xmlns:xlink="http://www.w3.org/1999/xlink" id="Layer_1" x="0px" y="0px" viewBox="0 0 400 400" style="enable-background:new 0 0 400 400;" xml:space="preserve"><style type="text/css">	.st0{fill:#322B6A;}	.st1{fill-rule:evenodd;clip-rule:evenodd;fill:#322B6A;}</style><g>	<path class="st0" d="M285.66,137.38c-5.74-5.73-11.55-11.54-17.25-17.24c-5.72,5.69-11.42,11.37-16.92,16.85  c5.88,5.64,11.83,11.35,17.62,16.9C274.57,148.44,280.15,142.88,285.66,137.38z"></path>	<path class="st0" d="M161.48,96.73c-0.04,7.98,6.27,14.43,14.16,14.48c7.89,0.05,14.35-6.35,14.38-14.27  c0.03-7.82-6.37-14.28-14.17-14.3C167.96,82.62,161.52,88.94,161.48,96.73z"></path>	<path class="st0" d="M189.94,317.08c0-8.37,0-16.42,0-24.84c-7.1,4.23-13.88,8.27-20.88,12.43  C176.17,308.9,182.97,312.94,189.94,317.08z"></path>	<path class="st0" d="M135.59,104.13c2.99,0.04,5.12-2.13,5.23-5.3c0.04-1.22,0.09-2.45,0.26-3.66  c1.92-13.88,9.31-23.75,22.36-28.74c13.02-4.98,25.14-2.5,35.61,6.67c7.68,6.72,11.4,15.46,11.62,25.68  c0.07,3.16,2.22,5.37,5.18,5.35c2.97-0.02,5.11-2.27,5.1-5.42c-0.01-1.44-0.1-2.89-0.25-4.33c-2.43-23.16-21.75-40.62-47.21-40.62  c-9,0.12-19.03,3.71-27.5,11.21c-10.08,8.92-15.21,20.21-15.46,33.68C130.48,101.82,132.66,104.09,135.59,104.13z"></path>	<path class="st0" d="M100,137c-5.57-5.58-11.25-11.28-16.86-16.9c-5.74,5.73-11.55,11.54-17.26,17.24  c5.57,5.6,11.13,11.18,16.47,16.55C88.25,148.26,94.2,142.56,100,137z"></path>	<path class="st0" d="M164.73,231.84c-1.96,5.79,1.19,12.68,6.18,14.09c2.71-7.11,5.41-14.2,8.16-21.4  C173.53,222.36,166.81,225.7,164.73,231.84z"></path>	<path class="st0" d="M335.16,252.27c-10.2-52.72-69.35-80.03-116.08-53.6c-28.42,16.08-44.11,48.24-39.13,80.27  c0.33,2.1,0.82,4.18,1.27,6.46c3.73-2.22,7.19-4.23,10.6-6.32c1.95-1.19,3.91-1.63,5.97-0.43c2,1.17,2.55,3.02,2.55,5.25  c-0.04,13.8-0.04,27.61,0,41.41c0.01,2.28-0.48,4.21-2.59,5.38c-2.08,1.15-4.02,0.7-5.98-0.47c-11.5-6.88-23.03-13.72-34.55-20.57  c-4.61-2.74-4.65-7.2-0.08-9.93c4.54-2.71,9.08-5.41,13.63-8.09c0.77-0.46,1.26-0.8,0.96-1.93c-2.74-10.32-3.67-20.79-2.49-31.43  c0.09-0.8,0.54-1.85-0.81-2.16c-1.21-0.28-2.19-1.46-3.66,0.03c-10.98,11.14-22.07,22.16-33.13,33.22  c-4.49,4.49-8.97,8.98-13.47,13.45c-1.58,1.57-3.48,1.96-5.54,1.23c-2.02-0.72-3.11-2.28-3.31-4.41c-0.17-1.86,0.68-3.29,1.97-4.57  c12.25-12.23,24.49-24.48,36.73-36.71c3.3-3.3,6.63-6.57,9.94-9.86c-5.68-8.92-5.56-17.61,0.62-26.76  c-5.32-5.12-10.73-10.24-16.05-15.47c-4.33-4.25-8.57-8.59-12.82-12.92c-2.93-2.98-2.01-7.58,1.77-8.78  c2.23-0.71,4.11-0.02,5.74,1.64c9.38,9.51,18.79,18.99,28.16,28.51c0.73,0.74,1.29,0.83,2.3,0.49c1.93-0.66,3.94-1.18,5.96-1.48  c4.01-0.59,7.83,0.37,11.36,1.91c22.7-29.08,52.08-41.38,88.69-36.25c-0.03-0.16-0.03-0.27-0.07-0.37c-0.09-0.2-0.19-0.4-0.31-0.59  c-21.51-35.57-52.91-54.9-94.52-56.8c-20.51-0.94-39.79,4.17-57.76,14.17c-54.55,30.36-74.12,100.08-42.4,153.85  c21.33,36.16,53.73,55.13,95.78,56.21c27.81,0.71,55.66,0.19,83.49,0.08c4.59-0.02,9.25-0.43,13.77-1.25  C315,336.85,343.49,295.31,335.16,252.27z M87.6,264.8c1.14,3.28,0.16,6.04-2.54,7.2c-2.83,1.23-6.04-0.08-6.95-3.2  c-1.69-5.75-3.61-11.5-4.55-17.39c-4.89-30.44,1.92-58.11,21.16-82.27c17.33-21.76,40.08-34.47,67.7-38.23  c4.4-0.6,8.86-0.76,11.15-0.95c19.43,0.17,35.74,4.12,51.03,12.23c1.78,0.95,3.09,2.19,3.34,4.26c0.23,1.97-0.42,3.65-2.05,4.82  c-1.73,1.24-3.58,1.27-5.52,0.38c-4.4-2-8.72-4.23-13.25-5.87c-52.26-18.93-110.18,12.82-122.43,67.07  C80.7,230.44,81.68,247.76,87.6,264.8z M237.76,225.24c1.85-1.21,3.87-2.18,5.87-3.14c0.83-0.4,1.16-0.83,1.13-1.74  c-0.05-1.5-0.09-3.02,0.1-4.5c0.97-7.56,7.29-12.91,14.76-12.57c7.6,0.34,13.61,6.22,13.59,13.92c-0.01,3.19,0.89,4.78,3.86,5.94  c3.8,1.49,6.96,4.15,9.75,7.16c2.21,2.38,2.22,5.56,0.06,7.59c-2.18,2.06-5.28,1.89-7.57-0.5c-3.32-3.46-7.32-5.74-11.91-7.06  c-3.2-0.92-4.37-2.47-4.39-5.79c-0.02-2.17,0.02-4.34-0.01-6.51c-0.04-2.66-1.65-4.44-3.96-4.44c-2.36,0-3.94,1.73-3.98,4.4  c-0.02,1.22,0,2.45,0,3.67c0,1,0,2,0,3c-0.01,3.24-1.22,4.63-4.21,5.8c-2.77,1.08-5.63,2.23-8.04,3.92  c-12.41,8.71-11.24,25.18,2.26,32.16c2.74,1.42,5.78,2.29,8.71,3.3c4.41,1.52,8.49,3.59,12.11,6.55  c6.18,5.04,5.29,14.43-1.73,18.19c-1.27,0.68-2.57,1.34-3.89,1.91c-2.69,1.16-5.65,0.09-6.82-2.4c-1.21-2.58-0.26-5.44,2.3-6.85  c0.88-0.48,1.8-0.88,2.68-1.35c1.37-0.72,1.48-1.33,0.11-2.09c-2.8-1.55-5.62-3.19-8.61-4.27c-5.19-1.87-10.42-3.55-14.78-7.12  C219.12,259.32,220.35,236.65,237.76,225.24z M281.51,308.36c-2.12,1.5-4.46,2.72-6.8,3.85c-1.1,0.53-1.38,1.13-1.42,2.26  c-0.07,2.16-0.07,4.38-0.61,6.44c-1.78,6.7-8.57,11.14-15.29,10.23c-7.17-0.97-12.64-6.73-12.54-13.77  c0.04-3.11-0.63-4.84-3.75-6.01c-3.82-1.43-6.97-4.12-9.78-7.11c-2.22-2.36-2.32-5.56-0.24-7.61c2.15-2.12,5.37-1.96,7.69,0.46  c3.29,3.41,7.24,5.67,11.76,7c3.4,1,4.5,2.48,4.51,6.04c0.01,2.11-0.02,4.23,0.01,6.34c0.03,2.61,1.7,4.45,3.99,4.43  c2.27-0.01,3.92-1.85,3.95-4.47c0.03-2.23,0-4.45,0.01-6.68c0.02-3.24,1.25-4.61,4.22-5.8c2.96-1.2,6.06-2.41,8.58-4.31  c12.26-9.24,9.9-24.58-2.41-31.51c-2.68-1.51-5.74-2.38-8.68-3.38c-4.36-1.48-8.42-3.47-12.07-6.3c-6.9-5.34-5.94-15.02,1.87-18.92  c1.14-0.57,2.28-1.18,3.46-1.66c2.6-1.07,5.44,0.02,6.64,2.5c1.2,2.47,0.27,5.36-2.2,6.75c-0.82,0.46-1.73,0.79-2.52,1.3  c-0.84,0.55-1.57,1.25-2.55,2.05c0.97,0,1.58-0.19,1.86,0.03c4,3.13,8.82,4.39,13.49,6c8.67,3,15.23,8.47,19.04,16.89  C297.36,285.81,293.14,300.15,281.51,308.36z"></path></g></svg>