<svg xmlns="http://www.w3.org/2000/svg" xmlns:xlink="http://www.w3.org/1999/xlink" id="Layer_1" x="0px" y="0px" viewBox="0 0 400 400" style="enable-background:new 0 0 400 400;" xml:space="preserve"><style type="text/css">	.st0{fill:#322B6A;}</style><g>	<path class="st0" d="M92.92,108.07c4.81-0.11,9.43-2.11,12.77-5.55c3.41-3.51,5.22-8.09,5.08-12.89  c-0.28-9.63-8.09-17.19-17.85-17.36c-9.76,0.17-17.58,7.73-17.85,17.36c-0.14,4.8,1.67,9.37,5.08,12.89  C83.49,105.96,88.11,107.96,92.92,108.07z"></path>	<path class="st0" d="M62.49,132.31c0.09,6.65,5.72,6.67,7.86,6.67c0,0,6.7-0.01,10.03-0.02c0.8,0,1.6,0,2.4,0  c2.82-0.01,5.81-0.01,9.05-0.01c0.36,0,0.72,0,1.08,0c0.36,0,0.72,0,1.08,0c3.23,0,6.23,0.01,9.05,0.01c0.8,0,1.6,0,2.4,0  c3.33,0.01,10.03,0.02,10.03,0.02c2.14,0,7.77-0.02,7.86-6.67l0.01-0.93c0.02-1.56,0.05-3.14,0.02-4.72c0,0,0,0,0-0.01  c-0.2-2.63-0.41-5.35-0.8-8.03l-0.02-0.15c-0.02-0.16-0.04-0.31-0.06-0.47c-0.48-2.12-1.19-4.23-2.27-6.29  c-1.51-2.88-3.25-5.69-6.41-5.69c-1.71,0-3.65,0.85-6.08,2.67c-2.68,2.01-5.56,3.44-8.51,4.3c-0.02,0.01-0.04,0.01-0.07,0.02  c-0.57,0.16-1.15,0.3-1.72,0.42c-0.14,0.03-0.27,0.06-0.41,0.09c-0.55,0.1-1.1,0.18-1.65,0.24c-0.13,0.01-0.26,0.04-0.39,0.05  c-0.68,0.06-1.35,0.1-2.03,0.1c-0.01,0-0.01,0-0.02,0s-0.02,0-0.02,0c-0.68,0-1.35-0.04-2.03-0.1c-0.13-0.01-0.26-0.04-0.39-0.05  c-0.55-0.06-1.1-0.14-1.65-0.24c-0.14-0.03-0.27-0.06-0.41-0.09c-0.58-0.12-1.15-0.26-1.72-0.42c-0.02-0.01-0.04-0.01-0.07-0.02  c-2.95-0.86-5.83-2.29-8.51-4.3c-2.44-1.83-4.37-2.67-6.08-2.67c-3.16,0-4.9,2.81-6.41,5.69c-1.08,2.06-1.8,4.17-2.27,6.29  c-0.02,0.15-0.04,0.3-0.06,0.47l-0.02,0.15c-0.39,2.68-0.6,5.4-0.8,8.03c0,0,0,0,0,0.01c-0.02,1.58,0,3.16,0.02,4.72L62.49,132.31z  "></path>	<path class="st0" d="M248.17,144.2c-9.99-0.44-19.72-0.67-28.9-0.67c-8.96,0-17.75,0.21-26.13,0.63  c-11.96,0.6-22.34,5.72-29.25,14.43c-7.01,8.84-9.67,20.29-7.5,32.26c0.18,1.01,0.54,2.08,0.88,3.11c0.62,1.87,1.31,4,0.7,5.11  c-0.32,0.59-1.1,1.04-2.31,1.35c-0.51,0.13-0.98,0.2-1.4,0.2c-2.8,0-3.49-3.5-4.06-7.74c-0.3-2.27-1.21-9.12-7.89-9.12  c-1.8,0-3.93,0.5-6.72,1.56c-8.83,3.38-15.68,11.11-18.32,20.67c-2.54,9.2-0.79,18.55,4.8,25.65c2.93,3.73,6.31,6.99,9.89,10.44  c5.09,4.91,10.36,10,15.15,17.16l3.13,4.69l0.07-5.64c0.15-11.71,4.44-14.06,11.33-14.06c1.01,0,2.12,0.05,3.42,0.16  c3.61,0.31,7.41,0.46,11.31,0.46c4.02,0,8.28-0.17,12.65-0.49c8.22-0.62,17.19-2.72,21.38-13.68l0.83-2.16l-2.31-0.21  c-3.35-0.3-6.63-0.37-9.8-0.44c-6.72-0.14-13.08-0.28-19.01-2.58c-3.98-1.54-5.16-2.44-4.46-4.77c0.56-1.84,1.54-2.21,2.85-2.21  c0.83,0,1.86,0.18,3.23,0.55c8.32,2.3,16.56,2.61,23.52,2.61c2.86,0,5.77-0.06,8.57-0.12c2.7-0.06,5.39-0.11,8.08-0.12l2.8,0  c7.08,0,10.59,0.19,12.24,1.88c1.77,1.81,2.3,6.03,3.26,13.68l0.26,2.1l2.02-0.66c6.16-2.02,10.96-6.2,14.65-12.78  c2.42-4.3,5.33-7.37,9.45-9.94c15.49-9.66,22.36-25.95,17.95-42.52C280.15,156.55,265.54,144.97,248.17,144.2z"></path>	<path class="st0" d="M306.63,108.06c4.81-0.11,9.43-2.11,12.77-5.55c3.41-3.51,5.22-8.09,5.08-12.89  c-0.28-9.63-8.09-17.19-17.85-17.36c-9.76,0.17-17.58,7.73-17.85,17.36c-0.14,4.8,1.67,9.37,5.08,12.89  C297.2,105.95,301.82,107.95,306.63,108.06z"></path>	<path class="st0" d="M276.2,132.3c0.09,6.65,5.72,6.67,7.86,6.67c0,0,6.7-0.01,10.03-0.02c0.8,0,1.6,0,2.4,0  c2.82-0.01,5.81-0.01,9.05-0.01c0.36,0,0.72,0,1.08,0c0.36,0,0.72,0,1.08,0c3.23,0,6.23,0.01,9.05,0.01c0.8,0,1.6,0,2.4,0  c3.33,0.01,10.03,0.02,10.03,0.02c2.14,0,7.77-0.02,7.86-6.67l0.01-0.93c0.02-1.56,0.05-3.14,0.02-4.72c0,0,0,0,0-0.01  c-0.2-2.63-0.41-5.35-0.8-8.03l-0.02-0.15c-0.02-0.16-0.04-0.31-0.06-0.47c-0.48-2.12-1.19-4.23-2.27-6.29  c-1.51-2.88-3.25-5.69-6.41-5.69c-1.71,0-3.65,0.85-6.08,2.67c-2.68,2.01-5.56,3.44-8.51,4.3c-0.02,0.01-0.04,0.01-0.07,0.02  c-0.57,0.16-1.15,0.3-1.72,0.42c-0.14,0.03-0.27,0.06-0.41,0.09c-0.55,0.1-1.1,0.18-1.65,0.24c-0.13,0.01-0.26,0.04-0.39,0.05  c-0.68,0.06-1.35,0.1-2.03,0.1c-0.01,0-0.02,0-0.02,0s-0.02,0-0.02,0c-0.68,0-1.35-0.04-2.03-0.1c-0.13-0.01-0.26-0.04-0.39-0.05  c-0.55-0.06-1.1-0.14-1.65-0.24c-0.14-0.03-0.27-0.06-0.41-0.09c-0.58-0.12-1.15-0.26-1.72-0.42c-0.02-0.01-0.04-0.01-0.07-0.02  c-2.95-0.86-5.83-2.29-8.51-4.3c-2.44-1.83-4.37-2.67-6.08-2.67c-3.16,0-4.9,2.81-6.41,5.69c-1.08,2.06-1.8,4.17-2.27,6.29  c-0.02,0.15-0.04,0.3-0.06,0.47l-0.02,0.15c-0.39,2.68-0.6,5.4-0.8,8.03c0,0,0,0,0,0.01c-0.02,1.58,0,3.16,0.02,4.72L276.2,132.3z"></path>	<path class="st0" d="M80.68,252.84c-3.23,3.27-4.98,7.8-4.92,12.75c0.12,9.91,7.8,17.77,17.52,17.99  c9.72-0.22,17.4-8.08,17.52-17.99c0.06-4.95-1.69-9.48-4.92-12.75c-3.2-3.24-7.67-5.05-12.59-5.13  C88.34,247.79,83.88,249.6,80.68,252.84z"></path>	<path class="st0" d="M123.62,299.93c0.49-1.89-0.07-3.99-0.62-6.02c-0.21-0.8-0.44-1.64-0.56-2.41c-0.35-1.03-0.73-2.04-1.17-3  c-1.54-3.36-3.29-7.18-7.06-7.18c-1.91,0-4.03,0.99-6.66,3.1c-4.08,3.27-8.89,5-13.92,5c-0.12,0-0.23-0.01-0.35-0.02  c-0.12,0-0.23,0.02-0.35,0.02c-5.03,0-9.84-1.73-13.92-5c-2.63-2.11-4.75-3.1-6.66-3.10c-3.78,0-5.52,3.81-7.06,7.18  c-0.44,0.96-0.82,1.97-1.17,3c-0.13,0.76-0.35,1.61-0.56,2.41c-0.55,2.03-1.11,4.13-0.62,6.02c0.19,0.72,0.06,1.71-0.08,2.58  c-0.66,4.21-0.16,7.22,1.55,9.22c0.25,0.29,0.52,0.55,0.82,0.79c2.57,1.52,6.62,1.84,12.81,1.84c0.01,0,0.02,0,0.03,0  c3.04-0.12,6.33-0.17,10.11-0.17c1.7,0,3.41,0.01,5.12,0.03c1.71-0.02,3.41-0.03,5.12-0.03c3.78,0,7.07,0.06,10.11,0.17  c0.01,0,0.02,0,0.03,0c6.2,0,10.24-0.33,12.81-1.84c0.29-0.24,0.57-0.50,0.82-0.79c1.71-2,2.21-5.01,1.55-9.22  C123.56,301.64,123.43,300.65,123.62,299.93z"></path>	<path class="st0" d="M288.51,265.26c-0.04,9.6,8.06,17.99,17.68,18.31c0.1,0,0.2,0,0.3,0.01c0.1,0,0.2,0,0.3-0.01  c9.62-0.32,17.71-8.71,17.68-18.31c-0.04-9.6-8.1-17.44-17.98-17.55C296.6,247.82,288.55,255.66,288.51,265.26z"></path>	<path class="st0" d="M327.12,281.47c-1.61,0-3.39,0.72-5.56,2.23c-4.4,3.68-9.44,5.64-14.64,5.64c-0.15,0-0.29-0.02-0.43-0.02  c-0.14,0-0.29,0.02-0.43,0.02c-5.21,0-10.25-1.96-14.64-5.64c-2.17-1.52-3.94-2.23-5.56-2.23c-3.22,0-4.99,2.77-6.66,5.85  c-3.17,5.85-3.08,12.04-3,18.03c0.01,0.86,0.03,1.73,0.03,2.59c0.02,6.39,5.27,6.39,8.08,6.39h0.79c3.61,0,7.21-0.01,10.82-0.01  c2.67-0.01,5.52-0.01,8.64-0.01c0.64,0,1.28,0,1.92,0c0.64,0,1.28,0,1.92,0c3.12,0,5.97,0,8.64,0.01  c3.61,0.01,7.21,0.01,10.82,0.01h0.79c2.82,0,8.06,0,8.08-6.39c0-0.86,0.02-1.73,0.03-2.59c0.09-5.99,0.18-12.17-3-18.03  C332.11,284.24,330.34,281.47,327.12,281.47z"></path>	<path class="st0" d="M69.27,245.25c-5.02-14.51-7.57-29.74-7.57-45.25c0-13.95,2.07-27.71,6.15-40.91l-5.73-1.77  c-4.26,13.77-6.42,28.13-6.42,42.68c0,16.18,2.66,32.06,7.9,47.21L69.27,245.25z"></path>	<path class="st0" d="M200,338.3c-21.59,0-42.27-4.84-61.46-14.37l-2.67,5.37c20.03,9.95,41.6,15,64.13,15  c22.46,0,43.99-5.02,63.97-14.92l-2.66-5.38C242.16,333.48,221.53,338.3,200,338.3z"></path>	<path class="st0" d="M336.68,153.63l-5.68,1.93c4.84,14.27,7.3,29.23,7.3,44.45c0,14.77-2.32,29.31-6.88,43.2l5.7,1.87  c4.77-14.5,7.18-29.67,7.18-45.08C344.3,184.12,341.73,168.52,336.68,153.63z"></path>	<path class="st0" d="M200,61.7c23.02,0,45.82,5.77,65.92,16.69l2.86-5.27C247.81,61.73,224.02,55.7,200,55.7  c-24.74,0-49.14,6.37-70.58,18.41l2.94,5.23C152.9,67.8,176.29,61.7,200,61.7z"></path></g></svg>