<svg xmlns="http://www.w3.org/2000/svg" viewBox="0 0 400 400" width="100%" height="auto" xml:space="preserve">
<style type="text/css">.st0{fill:#322B6A;}</style>
<g>
<path class="st0" d="M200.4,280.06c7.77-0.21,14.84-5.78,15.89-12.63c-10.79,0-21.56,0-32.57,0  C185.27,274.83,192.6,280.27,200.4,280.06z"></path>
<path class="st0" d="M198.93,245.69c-7.41,0.36-14.5,6.26-15.07,12.67c10.77,0,21.54,0,32.51,0  C214.91,250.66,207.34,245.28,198.93,245.69z"></path>
<path class="st0" d="M269.45,255.1c-4.13-1.15-8.28-2.34-12.51-2.97c-5.88-0.87-10.37-3.04-11.51-9.5c-0.05-0.28-0.2-0.55-0.36-0.8  c-1.74-2.75-1.26-5.21,0.48-7.87c3.51-5.37,6.76-10.9,9.91-16.04c-3.62-3.62-6.98-6.99-10.51-10.51c-3.61,2.21-7.7,4.2-11.19,6.95  c-5.55,4.37-10.93,5.49-17.3,1.69c-2.27-1.35-3.92-2.55-4.5-5.2c-1.28-5.8-2.77-11.56-4.08-17.36c-0.33-1.45-0.81-2.19-2.46-2.13  c-3.61,0.12-7.23-0.07-10.83,0.12c-0.8,0.04-2.01,1.03-2.24,1.81c-1.11,3.83-2.33,7.7-2.79,11.64c-0.8,6.77-3.63,11.27-10.64,13.05  c-2.75,0.7-4.91,1.14-7.4-0.47c-5.48-3.53-11.09-6.87-16.92-10.46c-1.77,1.87-3.41,3.67-5.13,5.38c-1.71,1.7-3.5,3.3-5.21,4.91  c2.65,4.32,4.69,8.38,7.42,11.91c4.16,5.36,5.46,10.49,1.76,16.77c-1.51,2.57-2.83,4.37-5.81,5.01  c-5.72,1.22-11.39,2.64-17.06,4.09c-0.73,0.19-1.82,1.05-1.84,1.63c-0.15,4.46-0.08,8.93-0.08,13.39  c4.97,1.19,9.56,2.68,14.27,3.32c6.21,0.85,10.24,3.43,12.06,9.83c0.93,3.26,1.36,5.76-0.61,8.72c-3.5,5.24-6.66,10.71-9.72,15.7  c3.64,3.67,6.99,7.06,10.48,10.58c3.9-2.4,8.19-4.59,11.96-7.48c5.08-3.89,9.84-4.88,15.74-1.56c2.88,1.62,4.85,3.05,5.53,6.4  c1.26,6.18,2.87,12.28,4.34,18.44c5.02,0,9.77,0,14.73,0c1.09-4.61,2.53-9.09,3.16-13.68c0.89-6.49,3.53-10.84,10.31-12.67  c3.1-0.84,5.43-1.11,8.17,0.69c5.29,3.47,10.76,6.67,16.03,9.9c3.51-3.53,6.87-6.91,10.45-10.51c-2.59-4.2-4.92-8.64-7.87-12.62  c-3.45-4.67-4.4-8.92-1.5-14.44c1.8-3.42,3.43-5.65,7.39-6.38c5.99-1.11,11.88-2.77,17.9-4.22c0-4.51,0.1-8.7-0.09-12.88  C271.33,256.5,270.26,255.33,269.45,255.1z M200.05,288.84c-14.38,0.01-26.02-11.68-25.98-26.08c0.04-14.33,11.5-25.82,25.83-25.89  c14.47-0.07,26.09,11.44,26.12,25.89C226.05,277.18,214.45,288.84,200.05,288.84z"></path>
<path class="st0" d="M340.68,157.18c-0.82-4.44-2.99-8.66-4.74-12.91c-3.2-4.96-7.74-9.14-13.25-11.93  c-12.93-6.53-28.48-4.02-38.62,6.24c-0.27,0.28-0.58,0.54-0.8,0.85c-5.86,8.54-14.44,9.17-23.52,7.88  c-7.8-1.11-13.19-8.12-13.23-16.89c-0.06-14.84,0.04-29.69-0.04-44.53c-0.05-9.32-5.22-16.52-13.61-19  c-1.94-0.57-4.03-0.88-6.05-0.89c-14.06-0.08-28.12-0.06-42.18-0.03c-5.72,0.01-8.32,2.95-8.7,8.68c-0.36,5.4,1.3,9.24,5.47,12.98  c12.92,11.6,16.93,29.82,10.78,45.83c-6.18,16.07-21.64,26.92-38.87,27.27c-17.62,0.36-33.91-10.75-40.19-27.4  c-6.25-16.6-1.46-35.45,11.93-46.87c4.09-3.49,5.82-10.98,3.62-15.95c-1.32-2.98-3.74-4.51-6.93-4.51  c-14.84-0.04-29.69-0.21-44.53,0.07c-10.18,0.2-18.13,8.65-18.36,18.81c-0.04,1.66-0.04,3.31-0.03,4.97h0v0.86  c0,1.09,0.01,2.18,0,3.28v22.62c0.26,0.8,0,1.91,0,2.85v1.35h0c0,36.62,0,73.25,0,109.87c0,0.98,0,1.96,0,2.94  c0,1.18,0,2.36,0,3.55c0,13.24,7.69,21.08,20.79,21.32c0.4,0.01,0.8,0.01,1.2,0.02c2.97,0,5.95-0.04,8.92,0.09  c0.01,0,0.02,0,0.03,0c6.96,0.04,13.92,0.01,20.88-0.02c2.95-0.24,5.97-0.03,9.19-0.03c0-2.03-0.02-3.67,0-5.3  c0.05-3.63,1.04-4.88,4.53-5.72c6.25-1.51,12.52-2.98,18.76-4.52c3.07-0.76,4.24-3.72,2.58-6.44c-3.31-5.41-6.65-10.8-9.96-16.21  c-2.01-3.29-1.83-4.73,0.88-7.46c4.48-4.5,8.96-8.99,13.46-13.46c2.73-2.71,4.13-2.86,7.47-0.83c5.41,3.3,10.8,6.64,16.22,9.93  c2.72,1.65,5.65,0.44,6.4-2.63c1.52-6.25,3-12.51,4.53-18.76c0.83-3.4,2.08-4.46,5.47-4.48c6.54-0.05,13.08-0.04,19.62,0  c3.43,0.02,4.7,1.06,5.52,4.42c1.51,6.15,2.97,12.32,4.47,18.48c0.88,3.6,3.72,4.72,6.94,2.74c5.15-3.17,10.29-6.36,15.46-9.49  c1.24-0.75,2.59-1.3,4.17-2.08c0.11-1.88,0.12-3.84,0.37-5.76c1.03-7.79,7.01-13.59,14.86-14.11c3.38-0.23,6.83-0.04,10.21,0.34  c3.84,0.43,6.86,2.58,9.4,5.46c11.38,12.91,24.6,16.18,40.4,10.04c0.36-0.17,0.72-0.32,1.07-0.5c5.51-2.78,10.04-6.96,13.25-11.91  c1.75-4.25,3.92-8.48,4.74-12.93c0.3-1.61,0.46-3.23,0.49-4.83C341.16,160.73,341.01,158.95,340.68,157.18z"></path>
</g>
</svg>