<svg xmlns="http://www.w3.org/2000/svg" xmlns:xlink="http://www.w3.org/1999/xlink" id="Layer_1" x="0px" y="0px" viewBox="0 0 400 400" style="enable-background:new 0 0 400 400;" xml:space="preserve"><style type="text/css">	.st0{fill:#322B6A;}</style><path class="st0" d="M320.87,242.37c-0.43-0.02-0.85-0.03-1.28-0.03c-5.2,0-10.66,1.53-16.98,3.29c-3.47,0.97-7.06,1.97-11.01,2.84 l-1.21,0.27l-1.04-0.67c-1.73-1.1-3.63-2.3-5.67-3.57c-6.28-3.94-14.1-8.85-21.57-14.02c-2.79-1.93-5.26-7.27-4.18-10.74 c4.19-13.38,4.15-26.42-0.12-39.86c-1.06-3.32,1.26-8.33,3.89-10.11c7.68-5.2,15.57-10.11,22.53-14.45 c2.22-1.38,4.36-2.71,6.37-3.98l1.25-0.79l1.39,0.51c2.96,1.09,5.63,2.23,8.22,3.34c5.05,2.16,9.4,4.02,13.77,4.57 c0.99,0.12,1.99,0.19,2.97,0.19c13.11,0,24.64-11.2,25.72-24.97c1.16-14.79-9.97-27.84-24.81-29.1c-0.76-0.06-1.54-0.1-2.3-0.1 c-14.05,0-25.99,11.23-27.17,25.58c-0.36,4.34-0.85,10.28-4.35,12.83c-7.45,5.43-15.12,10.19-23.25,15.22 c-2.94,1.82-5.9,3.65-8.87,5.53l-2.27,1.44l-1.68-2.1c-10.77-13.51-24.56-21.48-42.16-24.37l-2.51-0.41v-2.55 c0-3.6,0.02-7.12,0.04-10.59c0.04-8.33,0.08-16.2-0.13-24.11c-0.15-5.85,1.15-10.39,8.02-13.55c9.12-4.2,14.17-12.14,14.61-22.97 c0.52-12.92-8.96-24.68-22.05-27.36c-1.62-0.33-3.29-0.5-4.96-0.5c-11.1,0-21.59,7.37-25.5,17.92c-4.59,12.4,0.41,25.93,12.17,32.91 l0.25,0.15c3.53,2.09,7.92,4.69,8.11,8.41c0.49,9.84,0.43,19.89,0.37,29.6c-0.02,3.33-0.04,6.68-0.04,10.04v2.52l-2.48,0.43 c-17.72,3.1-31.52,11.08-42.2,24.4l-1.68,2.09l-2.27-1.43c-2.76-1.74-5.47-3.49-8.15-5.21c-6.28-4.04-12.21-7.85-18.37-11.42 c-6.27-3.62-10.43-7.93-10.36-17.18c0.09-11.75-8.94-22.2-21.47-24.86c-1.69-0.36-3.43-0.54-5.18-0.54 c-9.94,0-19.38,5.71-24.06,14.55c-5.82,11-3.59,24.1,5.54,32.6c5.01,4.66,11.42,7.23,18.06,7.22c5.12,0,10.25-1.52,14.85-4.38 c1.52-0.95,2.99-1.99,4.55-3.09c0.73-0.52,1.47-1.04,2.22-1.56l1.63-1.13l1.68,1.06c2.69,1.71,5.37,3.39,8.04,5.05 c7.53,4.71,14.65,9.16,21.68,14.09c2.93,2.05,5.56,7.7,4.45,11.36c-4,13.19-3.94,25.95,0.18,38.98c1.02,3.24-0.7,8.43-3.42,10.29 c-7.98,5.45-16.25,10.64-22.9,14.81c-2.02,1.27-3.91,2.46-5.63,3.55l-1.1,0.7l-1.26-0.33c-3.79-0.99-7.17-2.07-10.44-3.11 c-6.06-1.94-11.29-3.61-16.23-3.61l-0.25,0c-6.69,0.08-12.93,2.88-17.57,7.89c-5.08,5.49-7.71,13.02-7.21,20.66 c0.93,14.21,12.66,24.93,27.29,24.93c0.25,0,0.5,0,0.74-0.01c14.59-0.37,25.65-11.69,26.28-26.92c0.17-4.19,1.06-9.67,4.31-11.99 c7.52-5.37,15.26-10.18,23.45-15.28c2.95-1.83,5.93-3.69,8.95-5.6l2.33-1.47l1.67,2.2c10.11,13.32,23.82,21.38,41.92,24.65 l2.47,0.44V264c0,3.55-0.02,7.04-0.04,10.48c-0.04,8.31-0.08,16.16,0.13,24.07c0.16,5.87-1.15,10.41-8.06,13.55 c-8.82,4-13.86,11.64-14.56,22.09c-0.89,13.3,8.56,25.44,21.99,28.24c1.63,0.34,3.31,0.51,5,0.51c11.07,0,21.55-7.36,25.47-17.91 c4.62-12.4-0.38-25.93-12.15-32.92l-0.26-0.16c-3.52-2.09-7.9-4.69-8.09-8.4c-0.49-9.83-0.43-19.46-0.37-29.65 c0.02-3.36,0.04-6.75,0.04-10.16v-2.59l2.56-0.38c16.87-2.48,30.62-10.44,42.04-24.34l1.68-2.05l2.24,1.42 c2.86,1.81,5.66,3.63,8.42,5.43c6.46,4.19,12.55,8.15,18.93,11.76c6.89,3.91,9.67,8.72,9.58,16.6 c-0.15,14.12,11.18,25.49,25.81,25.87c0.26,0.01,0.52,0.01,0.78,0.01c14.57,0,26.31-10.71,27.31-24.9 c0.52-7.43-1.94-14.8-6.75-20.23C332.91,245.52,327.12,242.69,320.87,242.37z M199.96,235.42l-0.19,0 c-19.43-0.1-35.22-16.09-35.2-35.64c0.02-19.41,15.88-35.2,35.36-35.2l0.27,0c19.52,0.15,35.32,16.13,35.22,35.63 C235.33,219.63,219.42,235.42,199.96,235.42z"></path></svg>