<svg xmlns="http://www.w3.org/2000/svg" xmlns:xlink="http://www.w3.org/1999/xlink" id="Layer_1" x="0px" y="0px" viewBox="0 0 400 400" style="enable-background:new 0 0 400 400;" xml:space="preserve"><style type="text/css">	.st0{fill:#322B6A;}</style><g>	<path class="st0" d="M247.44,238.92l-0.29,0c-4.3,0.12-7.73,2.84-8.96,6.79v-2.45c0-0.38,0-0.76,0.01-1.14  c0.01-1.07,0.03-2.17-0.05-3.35c-0.38-5.41-4.46-9.33-9.79-9.33c-4.35,0.04-7.89,2.78-9.14,6.72c0-1.75,0-3.51-0.01-5.26  c-0.02-7.49-4.85-10.89-9.64-10.95h-0.12c-4.52,0-7.96,2.79-9.21,7.12c0-12.63,0-25.25,0-37.88c0-0.2,0.01-0.41,0.01-0.62  c0.02-0.93,0.05-2.09-0.22-3.38c-1.04-4.88-4.68-7.91-9.5-7.91l-0.32,0c-4.76,0.13-8.3,3.19-9.25,7.98  c-0.25,1.26-0.22,2.4-0.2,3.31c0,0.21,0.01,0.42,0.01,0.62l0,84.79l0,0.72c0,0.57-0.01,1.14,0.01,1.7  c-1.22-1.38-2.44-2.76-3.66-4.14c-1.58-1.8-3.16-3.59-4.76-5.38c-2.67-2.99-6.17-4.64-9.84-4.64c-2.76,0-5.44,0.94-7.75,2.71  c-5.5,4.21-6.72,11.78-2.84,17.61c1.58,2.38,3.16,4.77,4.74,7.15c5.92,8.95,12.04,18.2,18.43,27.09c2.63,3.66,6.54,6,9.99,8.06  l0.73,0.44c1.59,0.95,1.58,1.24,1.57,2.18c-0.11,6.07-0.09,12.25-0.07,18.23l0.02,7.01h50.88l0.01-10.43  c0.01-5.85,0.02-11.9-0.06-17.87c-0.02-1.18,0.16-1.52,1.13-2.17c11.74-7.79,17.74-19.03,17.82-33.4  c0.05-8.92,0.05-17.98,0.06-26.74c0-3.84,0.01-11.95,0.01-11.95c0.01-0.56,0.01-1.12-0.03-1.67  C256.79,242.95,252.71,238.92,247.44,238.92z"></path>	<path class="st0" d="M76.43,194.34C63.5,194.44,52.94,205.15,53,218.1c0.06,13.11,10.72,23.69,23.84,23.67  c13.04-0.02,23.64-10.78,23.56-23.93C100.33,204.79,89.57,194.24,76.43,194.34z"></path>	<path class="st0" d="M100.22,85.22c10.48,0.09,19.12-8.41,19.16-18.86c0.03-10.51-8.44-19.06-18.92-19.09  c-10.47-0.03-19.01,8.51-19,19C81.46,76.63,89.88,85.13,100.22,85.22z"></path>	<path class="st0" d="M323.33,47.27c-13.07-0.05-23.75,10.63-23.74,23.74c0.01,13.09,10.68,23.7,23.81,23.68  c12.94-0.02,23.59-10.67,23.6-23.59C347.01,57.98,336.44,47.32,323.33,47.27z"></path>	<path class="st0" d="M308.9,180.11c-10.45,0.06-18.9,8.69-18.8,19.21c0.1,10.33,8.61,18.74,18.97,18.74  c10.46,0,19.01-8.59,18.95-19.06C327.98,188.51,319.41,180.05,308.9,180.11z"></path>	<path class="st0" d="M297.49,94c-1.76-2.78-3.38-5.31-5.09-8.01c-17.56,11.18-34.82,22.17-52.17,33.22c1.76,2.77,3.35,5.25,5.1,8  C262.9,116.03,280.1,105.07,297.49,94z"></path>	<path class="st0" d="M247.27,167.54c11.1,7.14,22.02,14.18,33.18,21.36c1.71-2.66,3.35-5.22,5.13-7.98  c-11.07-7.12-21.99-14.15-33.17-21.35C250.67,162.28,249.04,164.81,247.27,167.54z"></path>	<path class="st0" d="M102.79,194.96c1.65,2.87,3.11,5.41,4.72,8.22c11.29-6.46,22.19-12.7,33.16-18.98  c-1.71-2.96-3.2-5.56-4.73-8.21C124.66,182.44,113.76,188.68,102.79,194.96z"></path>	<path class="st0" d="M159.99,100.29c-10.37-7.17-20.53-14.21-30.82-21.33c-1.9,2.77-3.56,5.19-5.36,7.8  c10.35,7.16,20.51,14.2,30.79,21.31C156.52,105.31,158.19,102.9,159.99,100.29z"></path>	<path class="st0" d="M164.27,183.84c0.11-0.08,0.23-0.17,0.34-0.27c1.39-0.48,2.53-0.25,3.74,0.98c0.27,0.27,0.64,0.47,0.99,0.63  c0.17,0.08,0.34,0.15,0.51,0.23c0.06-0.7,0.17-1.47,0.33-2.28c1.41-7.07,5.92-12.55,12.03-15.16c-1.26-0.63-2.46-1.43-3.57-2.37  c-3.18-2.7-5.3-6.47-6.16-10.34c-0.21-0.84-0.34-1.7-0.39-2.59c-0.03-0.36-0.04-0.73-0.04-1.1c0-0.36,0.01-0.73,0.04-1.09  c0.05-0.89,0.18-1.75,0.39-2.59c0.86-3.87,2.98-7.64,6.16-10.34c6.7-5.68,16.47-5.84,23.3-0.38c3.66,2.92,6.02,7.17,6.76,11.5  c0.18,0.95,0.26,1.92,0.26,2.9c0,0.99-0.08,1.96-0.26,2.91c-0.74,4.33-3.1,8.58-6.76,11.5c-0.98,0.78-2.01,1.45-3.1,1.99  c6,2.57,10.47,7.95,11.96,14.93c0.19,0.89,0.3,1.73,0.37,2.49c1.76-1.08,3.52-1.76,5.54-1.55c0.87,0.89,2.22,1.35,4.24,1.55  c0.13,0.01,0.25,0,0.38,0.01c1.48,0.34,3.07,0.02,4.53-0.74c1.47-0.68,2.74-1.79,3.74-3.33c2.53-3.89,4.94-7.86,7.19-11.92  c0.55-1,0.9-2.04,1.06-3.09c0.58-3.43-0.91-6.69-4.3-8.67c-0.4-0.24-0.73-0.48-1.01-0.74c-0.64-0.69-1.03-1.46-1.16-2.36  c-0.02-0.37-0.01-0.75,0.05-1.18c0.08-0.58,0.13-1.2,0.11-1.8c0.02-0.59-0.03-1.21-0.11-1.79c-0.06-0.43-0.07-0.81-0.05-1.18  c0.13-0.9,0.52-1.67,1.16-2.36c0.28-0.26,0.61-0.5,1.01-0.74c3.39-1.98,4.88-5.24,4.3-8.67c-0.16-1.05-0.51-2.09-1.06-3.09  c-2.25-4.06-4.66-8.03-7.19-11.92c-1-1.55-2.27-2.65-3.74-3.33c-1.46-0.76-3.05-1.08-4.53-0.74c-0.13,0.01-0.25,0-0.38,0.01  c-2.02,0.2-3.37,0.66-4.24,1.55c-2.56,0.26-4.7-0.9-6.97-2.49c-0.24-0.17-0.52-0.31-0.8-0.39c-1.8-0.55-2.5-1.57-2.57-3.63  c-0.17-4.94-3.94-8.47-8.83-8.57c-4.74-0.1-9.49-0.1-14.23,0.01c-3.97,0.09-7.79,2.62-8.1,6.47c-0.34,4.18-2.67,5.85-5.87,7.26  c-0.35,0.16-0.72,0.36-0.99,0.63c-1.21,1.22-2.35,1.46-3.74,0.98c-0.11-0.1-0.23-0.19-0.34-0.27c-4.29-2.83-9.73-2-12.61,2.21  c-2.72,3.99-5.21,8.16-7.52,12.4c-0.65,1.21-1,2.46-1.07,3.68c-0.01,0.05-0.01,0.1-0.01,0.15c0,0.1-0.01,0.19-0.01,0.29  c-0.11,2.67,1,5.21,3.38,6.64c0.08,0.05,0.15,0.1,0.23,0.15c0.15,0.1,0.31,0.21,0.47,0.31c1.6,1.14,2.33,2.42,2.52,3.95  c-0.01,0.1-0.02,0.2-0.04,0.31c-0.12,0.67-0.13,1.39-0.04,2.07c0.01,0.03,0.01,0.07,0.02,0.1c-0.01,0.04-0.01,0.08-0.02,0.11  c-0.09,0.68-0.08,1.4,0.04,2.07c0.02,0.11,0.03,0.21,0.04,0.31c-0.19,1.53-0.92,2.81-2.52,3.95c-0.16,0.1-0.32,0.21-0.47,0.31  c-0.08,0.05-0.15,0.1-0.23,0.15c-2.38,1.43-3.49,3.97-3.38,6.64c0,0.1,0.01,0.19,0.01,0.29c0,0.05,0,0.1,0.01,0.15  c0.07,1.22,0.42,2.47,1.07,3.68c2.31,4.24,4.8,8.41,7.52,12.4C154.54,185.84,159.98,186.67,164.27,183.84z"></path></g></svg>