<svg xmlns="http://www.w3.org/2000/svg" xmlns:xlink="http://www.w3.org/1999/xlink" id="Layer_1" x="0px" y="0px" viewBox="0 0 400 400" style="enable-background:new 0 0 400 400;" xml:space="preserve"><style type="text/css">	.st0{fill:#322B6A;}</style><g>	<path class="st0" d="M319.49,283.32c-17.58-12.64-35.95-24.04-55.45-33.48c-11.87-5.75-13.8-5.17-22.53,4.86  c-5.03,5.78-10.2,11.44-15.25,17.2c-1.27,1.46-2.5,1.67-4.39,1.15c-19.36-5.36-36.42-15.07-51.67-27.91  c-22.24-18.7-37.95-41.85-46.37-69.8c-0.62-2.07-0.43-3.51,1.24-4.96c6.02-5.24,11.96-10.56,17.92-15.87  c9.05-8.05,9.57-9.91,4.4-20.8c-9.56-20.17-21.5-38.93-34.38-57.11c-1.26-1.78-2.85-3.38-4.5-4.82c-3.57-3.12-6.32-3.29-10.25-0.67  c-2,1.33-3.95,2.8-5.72,4.43c-16.55,15.24-30.55,32.62-43.39,51.03c-3.73,5.35-4.36,10.7-3.23,16.93  c3.44,18.99,10.18,36.76,19.19,53.71c20.7,38.93,48.94,71.67,82.78,99.69c24.42,20.22,50.89,37.04,81.01,47.57  c10.33,3.61,20.89,6.27,32.94,7.35c1.38-0.64,3.78-1.42,5.83-2.75c19.84-12.84,37.96-27.78,53.94-45.2  C329.96,294.77,329.56,290.56,319.49,283.32z"></path>	<path class="st0" d="M178.71,121.48c0.68,7.34,6.31,12.61,13.67,12.63c16.25,0.05,32.51,0.02,48.76,0.01c4.07,0,6.98-1.95,8.58-5.6  c1.64-3.74,1.03-7.26-1.88-10.24c-1.74-1.79-3.46-3.6-5.32-5.26c-1.24-1.11-1.42-2.25-1.05-3.79c7.42-30.93,43.8-44.58,69.74-26.13  c2.92,2.08,3.98,1.96,6.26-0.71c0-0.71,0-1.43,0-2.14c-0.34-0.44-0.69-0.89-1.03-1.33c-18.09-23.19-41.77-33.33-71.01-30.17  c-2.79,0.3-17.95,2.9-26.79,9.01c-3.51,2.42-6.94,4.95-10.38,7.47c-2.57,1.88-5.11,3.81-8,5.97c-2.2-2.35-4.13-4.76-6.42-6.78  c-4.98-4.39-12.84-2.17-14.72,4.09c-0.42,1.4-0.48,2.95-0.49,4.44c-0.03,15.33-0.02,30.65-0.02,45.98  C178.62,119.77,178.64,120.63,178.71,121.48z"></path>	<path class="st0" d="M352.38,167.14c-0.45-0.73-0.96-1.42-1.47-2.1c-9.22-12.24-18.43-24.49-27.68-36.71  c-0.89-1.18-1.88-2.38-3.06-3.25c-5.27-3.87-12.88-0.92-14.22,5.59c-0.61,2.99-0.7,6.08-1.05,9.28c-3.61,0.01-6.79-0.01-9.98,0.04  c-4.26,0.06-8.52,0.11-12.78,0.28c-10.74,0.44-24.41,7.48-26.82,8.92c-25.25,15.07-38.06,37.42-38.56,66.83  c-0.01,0.56-0.01,1.12-0.02,1.69c0.43,0.57,0.86,1.14,1.29,1.71c3.42,0.76,4.35,0.22,5.43-3.19c9.62-30.34,46.89-41.34,71.43-21.09  c1.22,1.01,1.77,2.03,1.44,3.66c-0.49,2.44-0.77,4.93-1.09,7.4c-0.52,4.13,1.1,7.3,4.66,9.31c3.47,1.96,6.97,1.76,10.22-0.68  c12.99-9.77,25.98-19.53,38.94-29.35C354.93,181.01,356.26,173.41,352.38,167.14z"></path></g></svg>