<svg xmlns="http://www.w3.org/2000/svg" xmlns:xlink="http://www.w3.org/1999/xlink" id="Layer_1" x="0px" y="0px" viewBox="0 0 400 400" style="enable-background:new 0 0 400 400;" xml:space="preserve"><style type="text/css">	.st0{fill:#322B6A;}</style><g>	<path class="st0" d="M260.76,294.89c-0.29,0-0.59,0-0.88-0.02c-13.9-0.52-25.88-5.89-35.61-15.97c-4.04-4.19-7.26-8.92-9.57-14.08  l-0.53-1.18H82.64c-5.59,0-10.14,4.55-10.14,10.14v72.19c0,5.59,4.55,10.14,10.14,10.14h171.44c5.59,0,10.14-4.55,10.14-10.14  v-51.13l-2.4,0.03C261.47,294.88,261.11,294.89,260.76,294.89z M194.29,325.84h-51.86c-3.15,0-5.7-2.55-5.7-5.7  c0-3.15,2.55-5.7,5.7-5.7h51.86c3.15,0,5.7,2.55,5.7,5.7C199.99,323.29,197.44,325.84,194.29,325.84z M217.66,305.32h-98.6  c-3.15,0-5.7-2.55-5.7-5.7c0-3.15,2.55-5.7,5.7-5.7h98.6c3.15,0,5.7,2.55,5.7,5.7C223.36,302.77,220.81,305.32,217.66,305.32z"></path>	<path class="st0" d="M75.09,224.67c2.95,6.22,8.36,9.38,16.06,9.38c25.75-0.01,51.49-0.01,77.24-0.01h42.96l0.37-1.52  c1.51-6.15,4.3-12.03,8.3-17.47c7.74-10.54,18.22-17.29,31.13-20.05c1.31-0.28,2.65-0.44,4.07-0.62c0.72-0.09,1.44-0.18,2.16-0.29  c0.33-0.04,0.66-0.12,1-0.2l5.1,0l0-2c-0.01-7.33-0.03-14.66-0.05-21.99c0-1.26-0.46-2.58-1.19-3.51  c-12.18-15.06-25.23-31.16-38.22-46.99c-1.18-1.43-3.31-2.46-5.07-2.46c-0.08,0-0.15,0-0.23,0.01c-1.94,0.09-3.73,1.48-4.89,2.63  c-15.49,15.44-31.19,31.17-46.38,46.38l-12.46,12.47c-2.08,2.08-3.24,2.32-3.93,2.32c-1.06,0-2.31-0.63-3.94-1.99  c-5.3-4.38-10.59-8.78-15.89-13.18l-7.56-6.28c-1.33-1.1-2.95-2.23-4.87-2.23c-1.92,0-3.49,1.12-4.77,2.21  c-13.07,11.1-25.89,21.98-38.88,33.12c-1.06,0.91-1.81,2.5-1.83,3.87c-0.09,6.77-0.18,13.77,0.02,20.67  C73.41,219.71,74.03,222.46,75.09,224.67z"></path>	<path class="st0" d="M129.14,112.52c12.74,0.08,23.35-10.45,23.32-23.13c-0.03-12.56-10.44-23.01-23.07-23.18  c-12.6-0.17-23.24,10.46-23.24,23.2C106.15,102.14,116.41,112.45,129.14,112.52z"></path>	<path class="st0" d="M73.36,177.89c0.03,0.2,0.06,0.43,0.09,0.69l0.4,3.76l6.45-5.49c2.86-2.43,5.63-4.79,8.41-7.15  c2.07-1.75,4.13-3.51,6.19-5.27c5.15-4.4,10.48-8.94,15.86-13.19c2.17-1.72,4.97-2.66,7.9-2.66c2.87,0,5.71,0.9,8,2.53  c2.29,1.62,4.51,3.48,6.65,5.27c0.74,0.62,1.48,1.24,2.23,1.85c2.92,2.41,5.83,4.82,8.88,7.36l6.97,5.79l1.23-1.86  c0.19-0.29,0.36-0.58,0.53-0.86c0.23-0.39,0.45-0.77,0.65-0.97c9.83-9.86,19.66-19.71,29.5-29.56  c8.21-8.22,16.42-16.45,24.62-24.67c3.16-3.16,6.29-4.75,9.86-5.02c0.43-0.03,0.86-0.05,1.28-0.05c4.67,0,8.57,2,11.9,6.1  l27.13,33.4c0.3,0.37,0.61,0.73,1,1.21l4.02,4.79l0.22-5.14c0.02-0.39,0.03-0.68,0.05-0.92c0.02-0.36,0.03-0.61,0.03-0.86  l0.01-24.46c0.01-20.13,0.02-40.96-0.03-61.43c-0.02-10.11-7.18-17.18-17.41-17.2c-25.89-0.01-51.77-0.02-77.66-0.02  s-51.78,0.01-77.66,0.02c-10.25,0.01-17.42,7.16-17.43,17.39c-0.02,27.62-0.02,55.25-0.01,82.87l0,32.46  C73.25,177.07,73.31,177.47,73.36,177.89z M129.45,59.46c16.44,0.11,29.86,13.64,29.79,30.02c-0.06,16.54-13.65,29.98-30.15,29.83  c-16.55-0.15-29.87-13.57-29.77-29.98C99.42,72.76,112.94,59.34,129.45,59.46z"></path>	<path class="st0" d="M290.08,274.19c8.03-7.26,13.07-17.68,13.07-29.25c0-21.95-18.12-39.75-40.48-39.75s-40.48,17.8-40.48,39.75  c0,21.95,18.12,39.75,40.48,39.75c8.59,0,16.54-2.63,23.09-7.11l32.83,40.23l4.26-3.47L290.08,274.19z"></path></g></svg>