<svg xmlns="http://www.w3.org/2000/svg" xmlns:xlink="http://www.w3.org/1999/xlink" id="Layer_1" x="0px" y="0px" viewBox="0 0 400 400" style="enable-background:new 0 0 400 400;" xml:space="preserve"><style type="text/css">	.st0{fill:#322B6A;}</style><g>	<path class="st0" d="M343.34,350.32c-0.68-0.77-1.94-1.23-3.37-1.23c-0.26,0-0.53,0.01-0.79,0.04c-1,0.11-1.94,0.17-2.82,0.17  c-3.61,0-6.3-0.94-8.22-2.86c-3.27-3.29-3.25-8.56-3.23-13.21c0.17-39.53,0.15-79.72,0.13-118.59  c-0.01-13.07-0.01-26.14-0.01-39.21c0-17.32,0-26.86-3.46-31.09c-3.28-4-11-4.44-26.64-4.44c-1.84,0-3.78,0.01-5.84,0.01  c-18.01,0.06-21.42,3.44-21.44,21.32c-0.02,20.71-0.01,41.41,0,62.12c0.02,33.42,0.03,67.97-0.08,101.96  c-0.01,3.11,0.05,5.69,0.1,7.97c0.15,6.65,0.24,10.32-2.16,12.82c-2.47,2.58-6.33,2.67-14.02,2.84c-2.1,0.04-4.52,0.1-7.32,0.21  c-0.49,0.02-0.97,0.03-1.43,0.03c-4.95,0-8.33-1.1-10.63-3.45c-3.14-3.22-3.47-8.03-3.36-12.76c0.39-16.33,0.31-32.97,0.24-49.06  c-0.03-6.58-0.06-13.17-0.06-19.75c0-15.83-0.25-26.58-3.6-31.75c-2.81-4.35-8.35-5.81-21.95-5.81c-4.07,0-8.67,0.13-13.03,0.27  c-14.58,0.47-18.59,4.65-18.65,19.45c-0.05,10.48-0.02,21.15,0.01,31.46c0.04,15.14,0.08,30.8-0.12,46.21  c-0.05,4.08,0.05,7.42,0.13,10.1c0.19,6.25,0.3,9.69-2.05,12.14c-2.51,2.62-6.38,2.65-14.86,2.74c-2.55,0.02-5.45,0.05-8.9,0.15  c-0.32,0.01-0.63,0.01-0.93,0.01c-4.54,0-7.62-1.01-9.72-3.18c-2.82-2.92-3.03-7.33-2.9-10.85c0.44-11.87,0.45-24.56,0.04-41.14  c-0.27-10.82-4.82-15.39-15.72-15.78c-4.85-0.17-9.25-0.26-13.45-0.26c-4.46,0-8.58,0.09-12.61,0.29  c-10.17,0.49-14.92,5.32-14.94,15.2c-0.01,3.73-0.04,7.47-0.08,11.21c-0.08,9.44-0.17,19.2,0.18,28.75  c0.17,4.57,0.09,9.72-3.05,12.98c-1.9,1.97-4.68,2.97-8.25,2.97c-1,0-2.09-0.08-3.25-0.23c-0.41-0.05-0.81-0.08-1.2-0.08  c-1.44,0-2.59,0.37-3.24,1.03c-0.56,0.57-0.83,1.46-0.81,2.65c0.03,1.48,0.07,3.73,5.81,3.82c1.8,0.03,3.59,0.04,5.39,0.04  l211.31,0l39.42-0.01c6.49,0,12.98,0,19.5,0.01c6.07,0,6.39-2.49,6.53-3.55C344.1,351.85,343.9,350.95,343.34,350.32z"></path>	<path class="st0" d="M103.65,213.25c1.27,1.14,2.67,1.72,4.16,1.72c1.64,0,3.35-0.7,5.08-2.09c2.09-1.66,3.91-3.49,5.83-5.41  l15.53-15.5c20.92-20.88,42.56-42.47,63.98-63.93l0.13-0.14c8.88-8.9,13.77-13.8,18.15-13.8c4.4,0,9.58,5.01,18.17,13.32  c3.38,3.27,6.27,4.8,9.08,4.8c3.71,0,6.75-2.65,8.99-4.96c15.2-15.71,30.68-30.99,45.14-45.15c1.06-1.04,2.08-2.33,3.06-3.58  c2.6-3.31,4.63-5.66,7.05-5.66c0.35,0,0.7,0.05,1.06,0.15c1.9,0.52,2.6,1.61,2.03,7c-0.2,1.9-0.41,3.87-0.05,5.58  c0.77,3.69,2.19,7.48,7.01,7.67l0.33,0.01c4.46,0,7.17-3.01,7.45-8.27c0.22-4.1,0.19-8.27,0.17-12.31l0-0.37  c-0.01-1.22-0.01-2.43-0.01-3.66c0-12.15,0.01-18.25-3.14-21.64c-3.16-3.4-9-3.55-20.85-3.55l-2.99,0c-1.39,0-2.78,0-4.17-0.01  c-1.39-0.01-2.79-0.01-4.18-0.01c-2.6,0-4.72,0.02-6.67,0.06c-3.5,0.08-5.97,0.92-7.53,2.56c-1.28,1.35-1.9,3.2-1.84,5.51  c0.18,6.58,6.72,7,8.86,7.13c0.43,0.03,0.86,0.04,1.29,0.04c0.34,0,0.67,0,1.01-0.01c0.33,0,0.65-0.01,0.98-0.01  c0.69,0,1.21,0.02,1.68,0.08c0.33,0.04,0.67,0.05,1.03,0.05c0.73,0,1.48-0.07,2.22-0.13c0.72-0.06,1.41-0.12,2.05-0.12  c2.37,0,2.78,0.94,3.02,1.5c0.86,1.97,0.17,3.29-3.11,5.89c-0.77,0.61-1.49,1.18-2.11,1.82c-7.32,7.55-14.89,15.08-22.21,22.36  L269,90.48c-2.81,2.79-5.62,5.59-8.42,8.39c-8.26,8.27-12.82,12.82-16.77,12.82c-4.03,0-8.8-5-16.03-12.58  c-4.28-4.49-7.53-6.41-10.87-6.41c-3.27,0-6.57,1.89-10.71,6.13c-22.99,23.56-46.71,47.18-69.71,70.07l-0.31,0.31  c-9.09,9.05-18.18,18.1-27.25,27.17l-0.75,0.75c-1.82,1.81-3.71,3.69-5.28,5.8C100.19,206.61,100.46,210.37,103.65,213.25z"></path>	<path class="st0" d="M86.57,239.18c0.38,0.04,0.74,0.05,1.1,0.05c0,0,0,0,0,0c5.36,0,9.38-3.9,9.77-9.47  c0.41-5.69-3.45-10.13-9.38-10.81c-0.45-0.05-0.9-0.08-1.33-0.08c-4.99,0-8.62,3.36-9.69,8.99l-0.12,0.62L77,229.1  C77.71,234.92,81.29,238.69,86.57,239.18z"></path></g></svg>