<svg xmlns="http://www.w3.org/2000/svg" xmlns:xlink="http://www.w3.org/1999/xlink" id="Layer_1" x="0px" y="0px" viewBox="0 0 400 400" style="enable-background:new 0 0 400 400;" xml:space="preserve">
<style type="text/css">.st0{fill:#322B6A;}</style>
<g>
<path class="st0" d="M333.04,272.77c-17.58-12.64-35.95-24.04-55.45-33.48c-11.87-5.75-13.8-5.17-22.53,4.86c-5.03,5.78-10.2,11.44-15.25,17.2c-1.27,1.46-2.5,1.67-4.39,1.15c-19.36-5.36-36.42-15.07-51.67-27.91c-22.24-18.7-37.95-41.85-46.37-69.8c-0.62-2.07-0.43-3.51,1.24-4.96c6.02-5.24,11.96-10.56,17.92-15.87c9.05-8.05,9.57-9.91,4.4-20.8c-9.56-20.17-21.5-38.93-34.38-57.11c-1.26-1.78-2.85-3.38-4.5-4.82c-3.57-3.12-6.32-3.29-10.25-0.67c-2,1.33-3.95,2.8-5.72,4.43C89.54,80.23,75.54,97.61,62.7,116.02c-3.73,5.35-4.36,10.7-3.23,16.93c3.44,18.99,10.18,36.76,19.19,53.71c20.7,38.93,48.94,71.67,82.78,99.69c24.42,20.22,50.89,37.04,81.01,47.57c10.33,3.61,20.89,6.27,32.94,7.35c1.38-0.64,3.78-1.42,5.83-2.75c19.84-12.84,37.96-27.78,53.94-45.2C343.51,284.22,343.11,280.01,333.04,272.77z"></path>
<path class="st0" d="M208.62,188.9c0.19,0.07,0.7,0.21,1.77,0.21h0.04c14.41-0.04,29.63-0.06,49.34-0.06l44,0.01c-1.02-0.91-2.04-1.83-3.07-2.74c-5.69-5.09-11.57-10.35-17.48-15.43c-3.68-3.17-5.52-6.4-5.62-9.89c-0.14-4.73,2.94-8.28,5.28-10.55c5.24-5.08,10.41-10.42,15.42-15.59c5.34-5.51,10.86-11.21,16.5-16.65c1.31-1.26,1.78-1.97,1.94-2.27c-0.15-0.29-0.6-0.98-1.85-2.19c-12.74-12.31-22.84-22.77-31.77-32.92c-1.6-1.82-2.48-2.34-2.78-2.48c-0.31,0.15-1.2,0.72-2.99,2.76c-5.18,5.94-10.79,11.57-16.24,17.04c-2.37,2.38-4.74,4.76-7.08,7.17c-7.68,7.91-11.54,11.88-17.06,11.88c-5.55,0-9.55-4.09-17.51-12.24l-0.12-0.13c-3.4-3.48-6.91-6.93-10.89-10.83l0,15.64c0.01,26.75,0.01,52.01-0.05,77.24C208.41,188.17,208.58,188.75,208.62,188.9z"></path>
</g>
</svg>