<svg xmlns="http://www.w3.org/2000/svg" xmlns:xlink="http://www.w3.org/1999/xlink" id="Layer_1" x="0px" y="0px" viewBox="0 0 400 400" style="enable-background:new 0 0 400 400;" xml:space="preserve"><style type="text/css">	.st0{fill:#322B6A;}</style><g>	<path class="st0" d="M319.03,272.77c-17.58-12.64-35.95-24.04-55.45-33.48c-11.87-5.75-13.8-5.17-22.53,4.86  c-5.03,5.78-10.2,11.44-15.25,17.2c-1.27,1.46-2.5,1.67-4.39,1.15c-19.36-5.36-36.42-15.07-51.67-27.91  c-22.24-18.7-37.95-41.85-46.37-69.8c-0.62-2.07-0.43-3.51,1.24-4.96c6.02-5.24,11.96-10.56,17.92-15.87  c9.05-8.05,9.57-9.91,4.4-20.8c-9.56-20.17-21.5-38.93-34.38-57.11c-1.26-1.78-2.85-3.38-4.5-4.82c-3.57-3.12-6.32-3.29-10.25-0.67  c-2,1.33-3.95,2.8-5.72,4.43c-16.55,15.24-30.55,32.62-43.39,51.03c-3.73,5.35-4.36,10.7-3.23,16.93  c3.44,18.99,10.18,36.76,19.19,53.71c20.7,38.93,48.94,71.67,82.78,99.69c24.42,20.22,50.89,37.04,81.01,47.57  c10.33,3.61,20.89,6.27,32.94,7.35c1.38-0.64,3.78-1.42,5.83-2.75c19.84-12.84,37.96-27.78,53.94-45.2  C329.5,284.22,329.1,280.01,319.03,272.77z"></path>	<path class="st0" d="M353.79,134.29c-22.1-28.33-51.04-40.71-86.75-36.87c-3.4,0.37-21.93,3.55-32.73,11.01  c-4.28,2.96-8.48,6.05-12.68,9.12c-3.14,2.29-6.24,4.66-9.77,7.3c-2.68-2.87-5.05-5.82-7.84-8.28c-6.08-5.37-15.68-2.65-17.98,5  c-0.52,1.71-0.59,3.61-0.59,5.42c-0.04,18.72-0.03,37.45-0.02,56.17c0,1.04,0.02,2.09,0.11,3.13c0.83,8.96,7.71,15.41,16.7,15.44  c19.86,0.06,39.71,0.02,59.57,0.01c4.97,0,8.53-2.39,10.48-6.85c2-4.58,1.26-8.86-2.29-12.51c-2.13-2.18-4.23-4.4-6.5-6.42  c-1.52-1.35-1.74-2.75-1.29-4.63c9.06-37.79,53.52-54.46,85.2-31.92c3.57,2.54,4.87,2.39,7.65-0.87c0-0.87,0-1.74,0-2.61  C354.63,135.38,354.21,134.84,353.79,134.29z"></path></g></svg>