<svg xmlns="http://www.w3.org/2000/svg" xmlns:xlink="http://www.w3.org/1999/xlink" id="Layer_1" x="0px" y="0px" viewBox="0 0 400 400" style="enable-background:new 0 0 400 400;" xml:space="preserve"><style type="text/css">	.st0{fill:#322B6A;}</style><g>	<path class="st0" d="M57.4,198.71c3.31,0.24,5.22-1.95,5.51-6.26c0.14-2.08,0.57-4.15,0.53-6.22c-0.06-2.73-1.51-4.55-4.34-4.92  c-2.71-0.35-4.96,1.31-5.43,4.09c-0.37,2.16-0.52,4.35-0.65,5.49C52.8,196.27,54.24,198.48,57.4,198.71z"></path>	<path class="st0" d="M59.38,227.09c2.74-0.33,4.31-2.43,4.23-5.91c-0.22-2.16-0.41-4.57-0.74-6.96c-0.41-3.04-2.55-4.78-5.41-4.54  c-2.67,0.23-4.52,2.22-4.43,5.16c0.07,2.52,0.36,5.04,0.72,7.53C54.24,225.65,56.47,227.44,59.38,227.09z"></path>	<path class="st0" d="M70.15,143.52c2.44,1.47,4.86,0.9,6.39-1.36c1.71-2.53,3.16-5.29,4.32-8.12c1.29-3.16-1.08-6.36-5.44-6.45  c-0.62,0.41-2.31,1.01-3.13,2.2c-1.67,2.42-2.99,5.11-4.21,7.81C66.95,140.08,67.94,142.19,70.15,143.52z"></path>	<path class="st0" d="M323.35,142.09c1.99,2.99,6.18,2.83,8.06-0.1c2.31-3.59-0.48-6.26-1.86-9.08c-1.23-2.51-2.32-5.43-5.2-5.34  c-4.13,0.05-6.56,3.25-5.29,6.38C320.21,136.78,321.66,139.54,323.35,142.09z"></path>	<path class="st0" d="M76.04,264.9c-0.77-0.9-4.03-0.76-5.28,0.13c-1.24,0.88-2.28,3.6-1.82,4.98c1.05,3.16,2.75,6.27,4.85,8.85  c0.91,1.12,3.68,1.58,5.22,1.09c1.5-0.47,2.5-2.53,4.1-4.3C80.6,271.69,78.67,268,76.04,264.9z"></path>	<path class="st0" d="M330.55,159.87c0.64,2.55,1.23,5.18,2.4,7.5c0.79,1.56,2.54,2.63,3.27,3.34c4.36,0.12,6.77-2.84,6-6.26  c-0.57-2.56-1.38-5.09-2.3-7.55c-1.09-2.9-3.66-4.11-6.32-3.19C331.17,154.55,329.83,157.05,330.55,159.87z"></path>	<path class="st0" d="M342.22,209.59c-2.81-0.03-4.6,1.45-5.08,4.19c-0.41,2.37-0.53,4.8-0.78,7.2c-0.16,3.6,1.51,5.89,4.47,6.11  c2.97,0.22,5.02-1.77,5.43-5.35c0.27-2.4,0.62-4.81,0.65-7.21C346.94,211.68,344.89,209.62,342.22,209.59z"></path>	<path class="st0" d="M325.77,263.93c-0.6,0.33-2.23,0.7-2.92,1.72c-1.84,2.71-3.53,5.58-4.79,8.6c-0.93,2.23,0.07,4.37,2.24,5.61  c2.18,1.24,4.53,1.01,5.95-0.95c1.91-2.64,3.57-5.56,4.8-8.57C332.37,267.14,329.92,263.98,325.77,263.93z"></path>	<path class="st0" d="M289.4,98.67c0.85,0.62,1.96,0.9,3.52,1.58c1.28-1.08,3.31-1.99,3.78-3.42c0.51-1.56,0.15-4.06-0.87-5.32  c-1.75-2.18-4.2-3.84-6.53-5.49c-2.36-1.68-5.14-1.19-6.77,0.9c-1.67,2.13-1.47,4.8,0.72,6.78C285.2,95.46,287.28,97.1,289.4,98.67  z"></path>	<path class="st0" d="M88.03,120.32c0.47-0.14,1.47-0.11,1.9-0.6c2.59-2.93,5.37-5.77,7.37-9.08c0.63-1.05-0.43-4.19-1.63-4.99  c-1.37-0.91-4.45-1.08-5.59-0.13c-2.64,2.2-4.89,5.06-6.67,8.03C81.67,116.45,84.35,120.25,88.03,120.32z"></path>	<path class="st0" d="M66.99,239.78c-1.05-2.27-3.44-2.7-5.72-1.9c-2.35,0.83-3.59,2.77-3.05,5.19c0.68,3.09,1.6,6.17,2.83,9.08  c0.95,2.24,3.08,3.13,5.5,2.45c2.37-0.67,3.62-2.36,3.71-5.63C69.35,246.35,68.45,242.94,66.99,239.78z"></path>	<path class="st0" d="M338.21,237.71c-2.38-0.56-4.57,0.14-5.53,2.47c-1.21,2.93-2.19,5.99-2.84,9.09c-0.51,2.4,0.8,4.25,3.14,5.16  c2.41,0.93,4.65,0.23,5.69-1.91c1.51-3.13,2.4-6.55,3.23-8.93C341.8,240.04,340.67,238.28,338.21,237.71z"></path>	<path class="st0" d="M311.23,120.04c1.54,0.06,3.63-0.64,4.54-1.76c0.9-1.11,1.38-3.63,0.72-4.73c-1.78-2.97-4.03-5.79-6.61-8.08  c-1.03-0.91-3.65-0.85-5.11-0.22c-1.33,0.57-2.07,2.51-2.6,3.22C302.25,112.08,308.61,119.94,311.23,120.04z"></path>	<path class="st0" d="M63.61,170.76c0.65-0.54,2.5-1.34,3.11-2.7c1.29-2.87,2.16-5.99,2.78-9.09c0.53-2.6-0.92-4.54-3.43-5.26  c-2.49-0.71-4.75,0.11-5.74,2.6c-1.13,2.84-2.07,5.81-2.65,8.8C57.07,168.21,59.55,170.83,63.61,170.76z"></path>	<path class="st0" d="M340.71,181.26c-2.73,0.36-4.41,2.6-4.21,5.71c0.12,1.86,0.41,3.71,0.54,5.57c0.3,4.16,2.09,6.27,5.31,6.14  c3.22-0.13,4.79-2.36,4.64-6.59c-0.04-0.77-0.06-1.54-0.14-2.3c-0.14-1.31-0.3-2.62-0.49-3.92  C345.87,182.63,343.69,180.87,340.71,181.26z"></path>	<path class="st0" d="M106.56,99.84c3.59-0.04,11.68-6.41,11.71-8.94c0.02-1.63-0.77-3.87-1.99-4.74c-1.22-0.87-3.8-1.06-5.1-0.33  c-2.73,1.54-5.29,3.64-7.34,6.01c-0.96,1.11-1.16,3.63-0.59,5.07C103.83,98.33,105.8,99.21,106.56,99.84z"></path>	<path class="st0" d="M200.08,129.86c8.58-0.04,15.55-6.98,15.59-15.53c0.04-8.61-7.14-15.75-15.8-15.71  c-8.5,0.04-15.54,7.08-15.59,15.59C184.23,122.85,191.34,129.9,200.08,129.86z"></path>	<path class="st0" d="M127.89,141.43c2.79,7.4,6.62,14.17,11.29,20.19c0.14,0.22,0.29,0.44,0.47,0.65c0.41,0.51,0.84,1.01,1.26,1.51  c0.01,0.02,0.03,0.03,0.04,0.05c0.62,0.73,1.24,1.45,1.88,2.15c0.25,0.28,0.5,0.55,0.75,0.82c11.06,11.95,24.68,19.82,41.01,23  c2.15,0.42,4.3,0.75,6.43,0.99c2.62,0.3,5.28,0.47,7.96,0.5c0.33,0,0.66,0,0.98,0c0.33,0,0.66,0,0.98,0  c2.68-0.03,5.34-0.2,7.96-0.5c2.13-0.24,4.28-0.57,6.43-0.99c16.33-3.18,29.95-11.05,41.01-23c0.25-0.27,0.5-0.55,0.75-0.83  c0.63-0.7,1.26-1.42,1.87-2.15c0.01-0.02,0.03-0.04,0.04-0.05c0.42-0.5,0.85-0.99,1.26-1.51c0.17-0.21,0.32-0.43,0.47-0.65  c4.67-6.02,8.5-12.79,11.29-20.19c0.32-0.59,0.59-1.23,0.83-1.91c3.06-8.72,4.42-17.63,4.26-26.38c-0.01-0.47-0.02-0.93-0.04-1.4  c-0.01-0.21-0.02-0.42-0.03-0.63c-0.34-8.47-2.13-16.73-5.16-24.47c-0.25-0.64-0.51-1.29-0.78-1.92c-0.14-0.32-0.28-0.65-0.42-0.97  c-7.45-17.18-21.01-31.61-38.7-39.63c-5.84-2.68-12.07-4.65-18.61-5.74c-0.61-0.1-1.21-0.22-1.81-0.33  c-1.54-0.29-3.08-0.58-4.62-0.88c-0.02,0-0.03,0-0.05,0c-4.63,0-9.26,0-13.9,0c-0.02,0-0.03,0-0.05,0  c-1.54,0.31-3.08,0.59-4.62,0.88c-0.6,0.11-1.21,0.23-1.81,0.33c-6.54,1.09-12.78,3.05-18.62,5.74  c-17.69,8.01-31.24,22.45-38.7,39.62c-0.14,0.32-0.28,0.65-0.42,0.97c-0.27,0.64-0.52,1.28-0.77,1.92  c-3.03,7.75-4.83,16.01-5.16,24.48c-0.01,0.21-0.02,0.41-0.03,0.62c-0.01,0.47-0.03,0.94-0.04,1.41  c-0.16,8.75,1.2,17.67,4.26,26.38C127.3,140.2,127.57,140.84,127.89,141.43z M150.05,99.31c-0.16-6.22,4.14-10.54,6.86-15.48  c5.68-10.34,14.51-5.78,22.81-4.27c3.02-5.64,2.16-14.08,9.46-16.44c5.16-1.66,11.06-1.55,16.6-1.38  c11.18,0.34,11.31,10.27,14.19,17.68c6.21-0.37,12.11-4.28,18.2-0.77c5.23,3.01,6.83,8.77,9.7,13.51  c6.21,10.24-2.42,15.62-7.75,21.97c3.44,5.18,9.79,8.31,9.79,15.38c-0.01,6.16-4.39,10.43-6.96,15.46  c-2.12,4.16-5.76,6.63-10.42,6.34c-4.12-0.26-8.19-1.46-12.38-2.26c-2.79,5.48-2.23,12.78-8.57,16.2  c-5.57,3.01-11.7,1.31-17.57,1.52c-4.42,0.16-8.03-2.01-9.91-6c-1.72-3.66-2.77-7.63-4.17-11.63c-6.03,0.26-12.01,4.4-18.19,0.71  c-5.28-3.15-6.97-8.96-9.83-13.82c-5.96-10.15,2.9-15.34,7.93-21.66C156.43,109.27,150.23,106.21,150.05,99.31z"></path>	<path class="st0" d="M261.11,287.46c-0.04,12.03,9.82,21.82,21.92,21.78c11.97-0.04,21.61-9.7,21.62-21.68  c0.01-12.11-9.81-21.94-21.85-21.85C270.9,265.81,261.15,275.58,261.11,287.46z"></path>	<path class="st0" d="M241.39,255.72c12.12,0.03,21.91-9.76,21.82-21.82c-0.09-11.99-9.71-21.57-21.71-21.61  c-12.03-0.03-21.68,9.5-21.77,21.49C219.65,245.98,229.24,255.69,241.39,255.72z"></path>	<path class="st0" d="M217.68,319.26c-11.8-0.21-23.61-0.19-35.41,0c-9.46,0.15-17.74,7.06-18.45,16.21  c-0.7,8.96-0.15,18.01-0.15,27.19c24.25,0,48.35,0,72.76,0c0-8.18,0.07-16.2-0.02-24.22C236.31,327.75,228.34,319.45,217.68,319.26  z"></path>	<path class="st0" d="M176.36,265.95c-12.07,0-23.77,0-35.74,0c11.15,14.92,10.86,29.41-0.7,43.88c7.83,1.65,13.87,5.81,18.61,12.21  c4.72-6.49,10.77-10.46,18.55-12.25C165.44,295.17,165.33,280.67,176.36,265.95z"></path>	<path class="st0" d="M259.7,309.37c-11.3-14.13-11.44-28.62-0.38-43.45c-12.06,0-23.75,0-35.77,0  c11.14,14.9,10.92,29.39-0.66,43.85c7.73,1.77,13.84,5.79,18.25,11.8c2.98-2.63,5.55-5.43,8.63-7.45  C252.83,312.12,256.41,310.91,259.7,309.37z"></path>	<path class="st0" d="M200.02,309.24c11.94-0.01,21.7-9.7,21.76-21.6c0.07-12-9.86-21.96-21.85-21.92  c-11.89,0.03-21.7,9.81-21.76,21.67C178.12,299.43,187.94,309.26,200.02,309.24z"></path>	<path class="st0" d="M158.61,212.29c-12.12-0.06-21.91,9.7-21.86,21.78c0.05,11.98,9.68,21.59,21.67,21.64  c12.17,0.05,21.83-9.6,21.8-21.78C180.19,221.91,170.65,212.35,158.61,212.29z"></path>	<path class="st0" d="M116.85,309.25c12.12,0.06,21.98-9.66,22-21.71c0.02-11.86-9.7-21.66-21.63-21.82  c-11.86-0.16-21.79,9.56-21.91,21.44C95.19,299.35,104.77,309.18,116.85,309.25z"></path>	<path class="st0" d="M134.42,319.24c-11.59-0.14-23.18-0.15-34.76,0.01c-10.76,0.15-18.78,8.14-19.01,18.89  c-0.18,8.05-0.03,16.1-0.03,24.7c1.81,0,3.59,0,5.36-0.01v-0.17h67.34c0.01-9.26,0.65-18.27-0.18-27.15  C152.23,325.89,144.12,319.35,134.42,319.24z"></path>	<path class="st0" d="M319.32,337.89c-0.38-10.57-8.32-18.49-18.92-18.65c-11.7-0.17-23.4-0.18-35.09,0  c-9.77,0.15-17.83,7.07-18.61,16.8c-0.7,8.69-0.16,17.48-0.15,26.6h71.17v0.16c0.55,0,1.1,0,1.67,0c0-3.83,0-7.43,0-11.02  C319.38,347.16,319.49,342.52,319.32,337.89z"></path></g></svg>