<svg xmlns="http://www.w3.org/2000/svg" xmlns:xlink="http://www.w3.org/1999/xlink" x="0px" y="0px" viewBox="0 0 400 400" style="enable-background:new 0 0 400 400;" xml:space="preserve"><style type="text/css">	.st0{fill:#FFFFFF;}	.st1{fill:#3F66FF;}	.st2{fill:#5800B8;}	.st3{fill:#1BD29D;}	.st4{fill:#0F4CAF;}	.st5{fill:#B41C25;}	.st6{fill:#063064;}	.st7{fill-rule:evenodd;clip-rule:evenodd;fill:#FFFFFF;}	.st8{fill:#343434;}	.st9{fill:#FB4F08;}	.st10{fill:#241E57;}	.st11{fill-rule:evenodd;clip-rule:evenodd;fill:#241E57;}</style><g id="BACKGROUND_2"></g><g id="BACKGROUND_1">	<g>		<path class="st10" d="M386.9,328.1V116.2c0-16.2-13.1-29.4-29.4-29.4h-15V43.7c0-20-16.2-36.3-36.2-36.3H93.1   c-20,0-36.2,16.2-36.2,36.3v43.1H42.5c-16.2,0-29.4,13.1-29.4,29.4v211.9C5.6,331.9,0,340,0,348.8v20.6   c0,12.5,10.6,23.1,23.1,23.1h353.8c12.5,0,23.1-10.6,23.1-23.1v-20.6C400,340,394.4,331.9,386.9,328.1z M57.5,325.6H25.6V116.2   c0-9.4,7.5-16.9,16.9-16.9h15V325.6z M150,26.9c9.4,0,17.5,7.5,17.5,17.5S160,61.9,150,61.9c-10,0-16.9-8.8-16.9-18.1   S140.6,26.9,150,26.9z M105,26.9c9.4,0,17.5,7.5,17.5,17.5S115,61.9,105,61.9c-9.4,0-17.5-7.5-17.5-17.5S95.6,26.9,105,26.9z    M222.5,346.2c0,3.8-3.1,6.2-6.9,6.2h-32.5c-3.8,0-6.9-3.1-6.9-6.2v-8.1h45.6L222.5,346.2z M330,325.6H70V79.4h260.6v246.3H330z    M374.4,325.6h-31.9V99.4h15c9.4,0,16.9,7.5,16.9,16.9V325.6z"></path>		<path class="st10" d="M289.4,265.6c0,29.4-23.8,53.1-53.1,53.1c-5,0-10-0.6-14.4-1.9c-22.5-6.2-38.8-26.9-38.8-50.6   c0-25.6,18.1-47.5,43.1-51.9c3.1-0.6,6.2-0.6,9.4-0.6c3.7,0,6.2,3.1,6.2,6.2v40.6h40.6C286.9,259.4,289.4,262.5,289.4,265.6z"></path>		<path class="st10" d="M318.8,246.9c0,3.1-2.5,6.2-6.2,6.2h-46.9c-2.5,0-5-1.9-6.2-4.4c-0.6-2.5,0.6-5.6,3.1-6.9l40.6-23.1   c3.1-1.9,6.9-0.6,8.8,2.5C316.2,228.8,318.8,238.1,318.8,246.9z"></path>		<path class="st10" d="M300,210.6c-0.6,1.9-1.2,3.1-3.1,3.7l-40,23.1c-1.3,0.6-1.9,0.6-3.1,0.6s-1.9,0-3.1-0.6   c-1.9-1.3-3.1-3.1-3.1-5.6V185c0-3.1,2.5-6.2,6.2-6.2c18.8,0,36.2,10,45.6,26.2C300.6,206.9,300.6,208.8,300,210.6L300,210.6z"></path>		<path class="st10" d="M198.7,199.4h-4.4v-58.8c0-3.1-3.1-6.2-6.2-6.2h-30c-3.8,0-6.2,3.1-6.2,6.2v17.5h-23.7   c-3.8,0-6.3,3.1-6.3,6.2v13.1H98.1c-3.1,0-6.2,2.5-6.2,6.2v15.6h-4.4c-3.8,0-6.2,3.1-6.2,6.2c0,3.8,2.5,6.2,6.2,6.2h111.2   c3.8,0,6.2-2.5,6.2-6.2C205,201.9,201.9,199.4,198.7,199.4z M151.9,199.4h-17.5v-28.1h17.5V199.4z"></path>		<path class="st10" d="M91.9,167.5c1.2,0,3.1-0.6,4.4-1.9l19.4-18.8h18.8c2.5,0,5-1.2,5.6-3.8l10.6-25l28.8-14.4   c3.1-1.3,4.4-5,2.5-8.1c-1.9-3.1-5.6-4.4-8.1-2.5l-31.2,15.6c-1.2,0.6-2.5,1.9-3.1,3.1l-10,23.8h-17.5c-1.9,0-3.1,0.6-4.4,1.9   l-20,19.4c-2.5,2.5-2.5,6.2,0,8.7C88.8,166.9,90,167.5,91.9,167.5z"></path>		<path class="st10" d="M220,125h89.4c3.8,0,6.2-2.5,6.2-6.2c0-3.8-2.5-6.2-6.2-6.2H220c-3.7,0-6.2,2.5-6.2,6.2   C213.8,122.5,216.3,125,220,125z"></path>		<path class="st10" d="M220,160h89.4c3.8,0,6.2-2.5,6.2-6.2c0-3.8-2.5-6.2-6.2-6.2H220c-3.7,0-6.2,2.5-6.2,6.2   C213.8,157.5,216.3,160,220,160z"></path>		<path class="st10" d="M165.6,261.9H87.5c-3.8,0-6.2,2.5-6.2,6.2c0,3.7,2.5,6.2,6.2,6.2H165c3.8,0,6.3-2.5,6.3-6.2   C171.2,264.4,168.8,261.9,165.6,261.9z"></path>		<path class="st10" d="M165.6,293.8H87.5c-3.8,0-6.2,2.5-6.2,6.2c0,3.8,2.5,6.2,6.2,6.2H165c3.8,0,6.3-2.5,6.3-6.2   C171.2,296.3,168.8,293.8,165.6,293.8z"></path>		<path class="st10" d="M165.6,229.4H87.5c-3.8,0-6.2,2.5-6.2,6.2c0,3.7,2.5,6.2,6.2,6.2H165c3.8,0,6.3-2.5,6.3-6.2   C171.2,231.9,168.8,229.4,165.6,229.4z"></path>	</g></g><g id="DESIGNED_BY_FREEPIK"></g></svg>