<svg xmlns="http://www.w3.org/2000/svg" xmlns:xlink="http://www.w3.org/1999/xlink" x="0px" y="0px" viewBox="0 0 400 400" style="enable-background:new 0 0 400 400;" xml:space="preserve">
  <style type="text/css">
    .st0{fill:#FFFFFF;}
    .st1{fill:#3F66FF;}
    .st2{fill:#5800B8;}
    .st3{fill:#1BD29D;}
    .st4{fill:#0F4CAF;}
    .st5{fill:#B41C25;}
    .st6{fill:#063064;}
    .st7{fill-rule:evenodd;clip-rule:evenodd;fill:#FFFFFF;}
    .st8{fill:#343434;}
    .st9{fill:#FB4F08;}
    .st10{fill:#241E57;}
    .st11{fill-rule:evenodd;clip-rule:evenodd;fill:#241E57;}
  </style>
  <g id="BACKGROUND_2"></g>
  <g id="BACKGROUND_1">
    <g>
      <path class="st10" d="M275.8,286.6v-103l-18.7-8.7l-11.9,42.4c-5,18.7-31.2,18.1-36.2,0l-19.3-66.8l-48-23.1H23.1C10,127.4,0,138.1,0,150.5v136c0,12.5,10.6,23.1,23.1,23.1h36.2v34.9c0,5,6.2,8.1,10,5l48-39.9h135.4C265.2,310.3,275.8,299.7,275.8,286.6z M44.9,174.2h100.5c3.7,0,6.2,2.5,6.2,6.2s-2.5,6.2-6.2,6.2H44.9c-3.7,0-6.2-2.5-6.2-6.2S41.2,174.2,44.9,174.2z M44.9,211.7h100.5c3.7,0,6.2,2.5,6.2,6.2c0,3.7-2.5,6.2-6.2,6.2H44.9c-3.7,0-6.2-2.5-6.2-6.2C38.7,214.2,41.2,211.7,44.9,211.7z M224.6,261.6H44.9c-3.7,0-6.2-2.5-6.2-6.2c0-3.7,2.5-6.2,6.2-6.2h179.7c3.7,0,6.2,2.5,6.2,6.2C230.9,259.1,228.4,261.6,224.6,261.6z"></path>
      <path class="st10" d="M222.2,230.4c-1.2,0-1.9-0.6-2.5-1.2C220.3,229.8,221.5,229.8,222.2,230.4z"></path>
      <path class="st10" d="M218.4,228.5c-1.2-0.6-2.5-1.2-3.1-2.5C215.9,226.7,217.2,227.9,218.4,228.5z"></path>
      <path class="st10" d="M211.5,222.3c-1.2-1.9-1.9-5-3.7-9.4C209.7,216.7,209.7,218.6,211.5,222.3z"></path>
      <path class="st10" d="M376.3,212.3h-88v74.3c0,19.3-16.2,35.6-35.6,35.6h-72.4v18.1c0,13.1,10.6,23.1,23.1,23.1h79.3l48,33.7c3.7,3.1,10,0,10-5v-28.7h36.2c12.5,0,23.1-10.6,23.1-23.1V235.4C399.4,222.9,388.8,212.3,376.3,212.3z M362.6,316.5h-62.4c-3.7,0-6.2-2.5-6.2-6.2s2.5-6.2,6.2-6.2h62.4c3.7,0,6.2,2.5,6.2,6.2S366.3,316.5,362.6,316.5z M362.6,272.8h-62.4c-3.7,0-6.2-2.5-6.2-6.2s2.5-6.2,6.2-6.2h62.4c3.7,0,6.2,2.5,6.2,6.2S366.3,272.8,362.6,272.8z"></path>
      <path class="st10" d="M219.7,229.2c-0.6,0-0.6-0.6-1.2-0.6C218.4,228.5,219,228.5,219.7,229.2z"></path>
      <path class="st10" d="M208.4,212.3l-18.1-61.8C200.3,184.2,205.3,202.3,208.4,212.3z"></path>
      <path class="st10" d="M200.3,134.3c-0.6,1.2-1.2,3.1-0.6,5l21.2,74.9c0.6,2.5,3.1,4.4,6.2,4.4c2.5,0,5-1.9,5.6-4.4l17.5-61.8L357.9,12.8c1.1-1.5-0.8-3.4-2.2-2.2C320.5,38.3,205.1,129.5,200.3,134.3z"></path>
      <path class="st10" d="M132.3,109.3l54.9,26.2v-1.2c1.9-5,2.5-7.5,6.2-10.6L318.3,18.9l-186,78.6C127.9,100,127.3,106.9,132.3,109.3z"></path>
      <path class="st10" d="M323.9,191.7c3.7,1.9,8.1-0.6,8.7-4.4l30-152.3L261.5,158l-1.2,5L323.9,191.7z"></path>
    </g>
  </g>
  <g id="DESIGNED_BY_FREEPIK"></g>
</svg>
