<svg xmlns="http://www.w3.org/2000/svg" xmlns:xlink="http://www.w3.org/1999/xlink" x="0px" y="0px" viewBox="0 0 400 400" style="enable-background:new 0 0 400 400;" xml:space="preserve">
  <style type="text/css">
    .st0{fill:#FFFFFF;}
    .st1{fill:#3F66FF;}
    .st2{fill:#5800B8;}
    .st3{fill:#1BD29D;}
    .st4{fill:#0F4CAF;}
    .st5{fill:#B41C25;}
    .st6{fill:#063064;}
    .st7{fill-rule:evenodd;clip-rule:evenodd;fill:#FFFFFF;}
    .st8{fill:#343434;}
    .st9{fill:#FB4F08;}
    .st10{fill:#241E57;}
    .st11{fill-rule:evenodd;clip-rule:evenodd;fill:#241E57;}
  </style>
  <g id="BACKGROUND_2"></g>
  <g id="BACKGROUND_1">
    <g id="Folder_Share">
      <path class="st10" d="M350,275V150c0-18.4-14.9-33.3-33.3-33.3H186c-9,0-17.2-4.8-21.7-12.6l-16.6-28.9c-5.9-10.4-17-16.8-28.9-16.8H33.3C14.9,58.3,0,73.2,0,91.6V275c0,18.4,14.9,33.3,33.3,33.3h33.3C66.7,248.5,115.2,200,175,200s108.3,48.5,108.3,108.3h100C364.9,308.3,350,293.4,350,275z"></path>
      <path class="st10" d="M366.7,0H75C56.6,0,41.7,14.9,41.7,33.3v8.3h77.2c17.9,0,34.5,9.6,43.4,25.2l16.5,29c1.5,2.6,4.3,4.2,7.3,4.2h130.7c27.6,0,50,22.4,50,50v125c0,9.2,7.5,16.7,16.7,16.7S400,284.2,400,275V33.3C400,14.9,385.1,0,366.7,0z"></path>
      <circle class="st10" cx="200" cy="341.7" r="8.3"></circle>
      <circle class="st10" cx="200" cy="275" r="8.3"></circle>
      <circle class="st10" cx="141.7" cy="308.3" r="8.3"></circle>
      <path class="st10" d="M175,216.7c-50.6,0-91.7,41-91.7,91.7s41,91.7,91.7,91.7s91.7-41,91.7-91.7C266.6,257.7,225.6,216.7,175,216.7z M166.7,308.3c0,1.5-0.2,3-0.4,4.4l17.5,10.1c4.5-3.9,10.3-6.1,16.2-6.1c14-0.2,25.5,11,25.7,25c0.2,14-11,25.5-25,25.7c-14,0.2-25.5-11-25.7-25c0-1.7,0.1-3.4,0.4-5.1l-17.5-10.1c-4.5,3.9-10.3,6.1-16.2,6.1c-13.8,0-25-11.2-25-25c0-13.8,11.2-25,25-25c6,0,11.7,2.2,16.2,6.1l17.5-10.1c-2.6-13.7,6.4-26.9,20.2-29.5c13.7-2.6,26.9,6.4,29.5,20.2c2.6,13.7-6.4,26.9-20.2,29.5c-7.6,1.4-15.4-0.7-21.2-5.7l-17.5,10.1C166.5,305.4,166.6,306.9,166.7,308.3z"></path>
    </g>
  </g>
  <g id="DESIGNED_BY_FREEPIK"></g>
</svg>
