<svg xmlns="http://www.w3.org/2000/svg" viewBox="0 0 400 400" style="enable-background:new 0 0 400 400;" xml:space="preserve">
  <style type="text/css">
    .st0{fill:#FFFFFF;}
    .st1{fill:#3F66FF;}
    .st2{fill:#5800B8;}
    .st3{fill:#1BD29D;}
    .st4{fill:#0F4CAF;}
    .st5{fill:#B41C25;}
    .st6{fill:#063064;}
    .st7{fill-rule:evenodd;clip-rule:evenodd;fill:#FFFFFF;}
    .st8{fill:#343434;}
    .st9{fill:#FB4F08;}
    .st10{fill:#241E57;}
    .st11{fill-rule:evenodd;clip-rule:evenodd;fill:#241E57;}
  </style>

  <g id="BACKGROUND_1">
    <path class="st11" d="M219,179.9c-1.9-1.9-5-1.9-6.9,0l-16.7,16.7c-1.9,1.9-1.9,5,0,6.9l16.7,16.7c1.9,1.9,5,1.9,6.9,0  
      c1.9-1.9,1.9-5,0-6.9L205.8,200l13.2-13.2C220.9,184.9,220.9,181.8,219,179.9z 
      M253.8,153.5c-2.6-0.7-5.3,0.8-6,3.4l-22.4,83.5c-0.7,2.6,0.8,5.3,3.4,6c2.6,0.7,5.3-0.9,6-3.4l22.4-83.5
      C258,156.9,256.4,154.2,253.8,153.5z 
      M263.7,179.9c-1.9,1.9-1.9,5,0,6.9l13.2,13.2l-13.2,13.2c-1.9,1.9-1.9,5,0,6.9c1.9,1.9,5,1.9,6.9,0l16.7-16.7
      c1.9-1.9,1.9-5,0-6.9l-16.7-16.7C268.7,178,265.6,178,263.7,179.9z 
      M300.8,200c0,32.7-26.6,59.4-59.4,59.4S182,232.7,182,200s26.6-59.4,59.4-59.4S300.8,167.3,300.8,200z 
      M236.5,359.6c0,16.9-13.8,30.7-30.7,30.7H51c-16.9,0-30.7-13.8-30.7-30.7V40.4C20.3,23.5,34.1,9.8,51,9.8h154.8
      c16.9,0,30.7,13.8,30.7,30.7V52c-3.9,0.1-7.8,0.4-11.7,0.8c-9.8,1.1-17.3,8.7-18.1,18.6l-1.8,20.7c-0.3,3.5-2.4,6.3-5.6,7.7
      c-3.2,1.3-6.7,0.8-9.3-1.4l-16-13.3c-7.6-6.3-18.3-6.4-25.9-0.1c-8.3,6.7-15.9,14.4-22.5,22.7c-6.2,7.7-6,18.4,0.3,25.9l13.4,15.9
      c2.2,2.7,2.8,6.1,1.5,9.3s-4.2,5.3-7.6,5.6l-20.7,1.9c-9.8,0.9-17.4,8.4-18.4,18.2c-1.1,10.6-1.1,21.4,0.1,32
      c1.1,9.8,8.7,17.3,18.6,18.1l20.7,1.8c3.5,0.3,6.3,2.4,7.7,5.6c1.3,3.2,0.8,6.7-1.4,9.4l-13.3,16c-6.3,7.6-6.4,18.3-0.1,25.9
      c6.7,8.3,14.4,15.9,22.7,22.5c7.7,6.2,18.4,6,25.9-0.3l15.9-13.4c2.7-2.2,6.1-2.8,9.3-1.5s5.3,4.2,5.6,7.6l1.9,20.7
      c0.9,9.8,8.4,17.4,18.2,18.4c3.5,0.4,7,0.6,10.5,0.7L236.5,359.6z 
      M388.6,215.4c-1,9.8-8.6,17.3-18.4,18.2l-20.7,1.9c-3.5,0.3-6.3,2.4-7.6,5.6c-1.3,3.2-0.8,6.7,1.5,9.3l13.4,15.9
      c6.4,7.5,6.5,18.2,0.3,25.9c-6.7,8.3-14.2,16-22.5,22.7c-7.7,6.2-18.3,6.2-25.9-0.1l-16-13.3c-2.7-2.2-6.2-2.7-9.3-1.4
      c-3.2,1.3-5.3,4.2-5.6,7.7l-1.8,20.7c-0.8,9.8-8.3,17.5-18.1,18.6c-3.9,0.4-7.8,0.7-11.7,0.8v11.6c0,22.3-18.1,40.4-40.4,40.4H51
      c-22.3,0-40.4-18.1-40.4-40.4V40.4C10.6,18.1,28.7,0,51,0h154.8c22.3,0,40.4,18.1,40.4,40.4V52c3.5,0.1,7,0.3,10.5,0.7
      c9.8,1,17.3,8.6,18.2,18.4l1.9,20.7c0.3,3.5,2.4,6.3,5.6,7.6c3.2,1.3,6.7,0.8,9.3-1.5l15.9-13.4c7.5-6.4,18.2-6.5,25.9-0.3
      c8.3,6.7,16,14.2,22.7,22.5c6.2,7.7,6.2,18.3-0.1,25.9l-13.3,16c-2.2,2.7-2.7,6.2-1.4,9.4c1.3,3.2,4.2,5.3,7.7,5.6l20.7,1.8
      c9.8,0.8,17.5,8.3,18.6,18.1C389.7,194,389.7,204.8,388.6,215.4z 
      M153,365c0-2.7-2.2-4.9-4.9-4.9h-33.7c-2.7,0-4.9,2.2-4.9,4.9s2.2,4.9,4.9,4.9h33.7C150.8,369.9,153,367.7,153,365z"></path>
  </g>
</svg>
