<svg xmlns="http://www.w3.org/2000/svg" xmlns:xlink="http://www.w3.org/1999/xlink" x="0px" y="0px" viewBox="0 0 400 400" style="enable-background:new 0 0 400 400;" xml:space="preserve"><style type="text/css">	.st0{fill:#FFFFFF;}	.st1{fill:#3F66FF;}	.st2{fill:#5800B8;}	.st3{fill:#1BD29D;}	.st4{fill:#0F4CAF;}	.st5{fill:#B41C25;}	.st6{fill:#063064;}	.st7{fill-rule:evenodd;clip-rule:evenodd;fill:#FFFFFF;}	.st8{fill:#343434;}	.st9{fill:#FB4F08;}	.st10{fill:#241E57;}	.st11{fill-rule:evenodd;clip-rule:evenodd;fill:#241E57;}</style><g id="BACKGROUND_2"></g><g id="BACKGROUND_1">	<g>		<g id="XMLID_00000160175012960456545740000000813538764344410754_">			<path class="st10" d="M261.8,14.3H139.7C120,14.3,104,30.3,104,50v300c0,19.7,16,35.7,35.7,35.7h122.1c19.7,0,35.7-16,35.7-35.7    V50C297.5,30.3,281.5,14.3,261.8,14.3z M172.2,28.6h57.1c3.9,0,7.1,3.2,7.1,7.1c0,3.9-3.2,7.1-7.1,7.1h-57.1    c-4,0-7.2-3.2-7.2-7.1C165,31.8,168.2,28.6,172.2,28.6z M155.9,145c0-24.8,20.2-44.9,45-44.9c24.8,0,44.9,20.2,44.8,45    c0,24.8-20.2,44.9-45,44.9C175.9,190,155.9,169.9,155.9,145L155.9,145z M275.7,278.1c0,12-9.7,21.7-21.6,21.7H147.4    c-12,0-21.7-9.7-21.7-21.7v-27.4c0-25.4,12.9-49.1,34.2-62.9c22.8,21.9,58.8,21.9,81.6,0c21.3,13.8,34.2,37.5,34.1,62.9V278.1z"></path>			<path class="st10" d="M367.3,126.9c40.3,40.4,40.3,105.7,0,146.1c-2.8,2.8-7.3,2.8-10.1,0c-2.8-2.8-2.8-7.3,0-10.1    c34.7-34.8,34.7-91.1,0-125.9c-2.8-2.8-2.8-7.3,0-10.1C360,124.1,364.5,124.1,367.3,126.9z"></path>			<path class="st10" d="M338.3,143.9c30.9,31,30.9,81.1,0,112.1c-2.8,2.8-7.3,2.8-10.1,0c-2.8-2.8-2.8-7.3,0-10.1    c25.3-25.4,25.3-66.5,0-91.9c-2.8-2.8-2.8-7.3,0-10.1C331,141.1,335.5,141.1,338.3,143.9z"></path>			<path class="st10" d="M71.8,143.9c2.8,2.8,2.8,7.3,0,10.1c-25.3,25.4-25.3,66.5,0,91.9c2.8,2.8,2.8,7.3,0,10.1    c-2.8,2.8-7.3,2.8-10.1,0c-30.9-31-30.9-81.2,0-112.1c0,0,0,0,0,0C64.5,141.1,69,141.1,71.8,143.9z"></path>			<path class="st10" d="M42.8,126.9c2.8,2.8,2.8,7.3,0,10.1c-16.7,16.7-26.1,39.3-26.0,63c-0.1,23.6,9.3,46.3,26,63    c2.8,2.8,2.8,7.3,0,10.1c-2.8,2.8-7.3,2.8-10.1,0c-40.3-40.4-40.3-105.7,0-146.1C35.5,124.1,40,124.1,42.8,126.9z"></path>		</g>	</g></g><g id="DESIGNED_BY_FREEPIK"></g></svg>
