<svg xmlns="http://www.w3.org/2000/svg" xmlns:xlink="http://www.w3.org/1999/xlink" viewBox="0 0 400 400" style="enable-background:new 0 0 400 400;" xml:space="preserve">
  <style type="text/css">
    .st0{fill:#FFFFFF;}
    .st1{fill:#3F66FF;}
    .st2{fill:#5800B8;}
    .st3{fill:#1BD29D;}
    .st4{fill:#0F4CAF;}
    .st5{fill:#B41C25;}
    .st6{fill:#063064;}
    .st7{fill-rule:evenodd;clip-rule:evenodd;fill:#FFFFFF;}
    .st8{fill:#343434;}
    .st9{fill:#FB4F08;}
    .st10{fill:#241E57;}
    .st11{fill-rule:evenodd;clip-rule:evenodd;fill:#241E57;}
  </style>
  <g id="BACKGROUND_1">
    <g>
      <path class="st10" d="M32,339h108.3c-1.8,8.1-6,19.9-15.7,26H97.3c-4.4,0-8,3.6-8,8c0,4.5,3.6,8,8,8h205.4c4.4,0,8-3.5,8-8
        c0-4.4-3.6-8-8-8h-27.3c-9.8-6.1-13.9-17.9-15.7-26H368c17.6,0,32-14.3,32-32V51c0-17.6-14.4-32-32-32H32C14.3,19,0,33.4,0,51v256
        C0,324.7,14.3,339,32,339z M216.4,307.4h-32.9c-4.4,0-8-3.6-8-8c0-4.5,3.6-8,8-8h32.9c4.5,0,8,3.5,8,8
        C224.4,303.8,220.9,307.4,216.4,307.4z M16,51c0-8.8,7.2-16,16-16h336c8.8,0,16,7.2,16,16v208.7H16V51z"></path>
      <path class="st10" d="M246.8,123.2c17.6,0,31.9-14.3,31.9-31.9s-14.3-31.9-31.9-31.9c-17.6,0-31.9,14.3-31.9,31.9
        c0,3.1,0.5,6.2,1.3,9l-40.6,24.2c-5.8-5.7-13.7-9.2-22.4-9.2c-17.6,0-32,14.3-32,32c0,17.6,14.4,31.9,32,31.9
        c8.7,0,16.6-3.5,22.4-9.2l40.6,24.3c-0.8,2.9-1.3,5.8-1.3,9c0,17.7,14.3,32,31.9,32c17.6,0,31.9-14.3,31.9-32
        c0-17.6-14.3-31.9-31.9-31.9c-8.7,0-16.6,3.5-22.4,9.2l-40.6-24.2c0.8-2.9,1.3-5.9,1.3-9c0-3.1-0.5-6.2-1.3-9l40.6-24.3
        C230.2,119.7,238.1,123.2,246.8,123.2z"></path>
    </g>
  </g>
</svg>
