<svg xmlns="http://www.w3.org/2000/svg" xmlns:xlink="http://www.w3.org/1999/xlink" x="0px" y="0px" viewBox="0 0 400 400" style="enable-background:new 0 0 400 400;" xml:space="preserve">
  <style type="text/css">
    .st0{fill:#FFFFFF;}
    .st1{fill:#3F66FF;}
    .st2{fill:#5800B8;}
    .st3{fill:#1BD29D;}
    .st4{fill:#0F4CAF;}
    .st5{fill:#B41C25;}
    .st6{fill:#063064;}
    .st7{fill-rule:evenodd;clip-rule:evenodd;fill:#FFFFFF;}
    .st8{fill:#343434;}
    .st9{fill:#FB4F08;}
    .st10{fill:#241E57;}
    .st11{fill-rule:evenodd;clip-rule:evenodd;fill:#241E57;}
  </style>
  <g id="BACKGROUND_2"></g>
  <g id="BACKGROUND_1">
    <g>
      <path class="st10" d="M53.1,142.9h117.3c1.2,0,2.1,0.5,2.8,1.5l24,34.7c1.4,2,4.3,2,5.6,0l24-34.7c0.7-1,1.6-1.5,2.8-1.5h117.3c9.4,0,17.1-7.7,17.1-17.1V17.1C364,7.7,356.3,0,346.9,0H53.1C43.7,0,36,7.7,36,17.1v108.7C36,135.2,43.7,142.9,53.1,142.9z M200,21.2c27.7,0,50.2,22.5,50.2,50.2s-22.5,50.2-50.2,50.2c-27.7,0-50.2-22.5-50.2-50.2S172.3,21.2,200,21.2z"></path>
      <path class="st10" d="M181.6,95.9c2.7,3.6,8,4,11.3,0.9l37-35.9c3-2.9,3.1-7.7,0.1-10.7c-2.9-3-7.7-3.1-10.7-0.1l-30.9,30l-11.7-15.4c-2.5-3.3-7.2-4-10.6-1.5c-3.3,2.5-4,7.2-1.5,10.6L181.6,95.9z"></path>
      <path class="st10" d="M200,290.1c-40.4,0.6-73.9,30.9-79.6,69.9c-1.1,7.8,2.1,15.1,8.6,19.6c21.6,14.7,53.4,20.5,71,20.5c17.6,0,49.4-5.7,71-20.5c6.5-4.5,9.7-11.8,8.6-19.6C273.9,321,240.4,290.7,200,290.1z"></path>
      <circle class="st10" cx="200" cy="230" r="37.6"></circle>
      <path class="st10" d="M399.8,369.1c-4.1-27.7-27.9-49.3-56.6-49.7c-28.7,0.4-52.6,22-56.6,49.7c-0.8,5.6,1.5,10.8,6.1,13.9c15.4,10.5,38,14.6,50.5,14.6c12.5,0,35.2-4.1,50.5-14.6C398.4,379.8,400.7,374.6,399.8,369.1z"></path>
      <ellipse transform="matrix(0.9871 -0.1602 0.1602 0.9871 -39.8687 58.5458)" class="st10" cx="343.2" cy="276.6" rx="26.8" ry="26.8"></ellipse>
      <path class="st10" d="M56,303.6c14.6,0,26.4-11.8,26.4-26.4c0-14.6-11.8-26.4-26.4-26.4s-26.4,11.8-26.4,26.4C29.6,291.8,41.5,303.6,56,303.6z"></path>
      <path class="st10" d="M56,319.4c-28.3,0.4-51.9,21.7-55.9,49c-0.8,5.5,1.4,10.6,6,13.7c15.2,10.3,37.5,14.4,49.9,14.4c12.4,0,34.7-4,49.9-14.4c4.6-3.1,6.8-8.3,6-13.7C107.9,341.1,84.4,319.8,56,319.4z"></path>
    </g>
  </g>
  <g id="DESIGNED_BY_FREEPIK"></g>
</svg>
