<svg xmlns="http://www.w3.org/2000/svg" viewBox="0 0 400 400" style="enable-background:new 0 0 400 400;" xml:space="preserve">
  <style type="text/css">
    .st0{fill:#FFFFFF;}
    .st1{fill:#3F66FF;}
    .st2{fill:#5800B8;}
    .st3{fill:#1BD29D;}
    .st4{fill:#0F4CAF;}
    .st5{fill:#B41C25;}
    .st6{fill:#063064;}
    .st7{fill-rule:evenodd;clip-rule:evenodd;fill:#FFFFFF;}
    .st8{fill:#343434;}
    .st9{fill:#FB4F08;}
    .st10{fill:#241E57;}
    .st11{fill-rule:evenodd;clip-rule:evenodd;fill:#241E57;}
  </style>

  <g id="BACKGROUND_1">
    <g>
      <path class="st10" d="M280.6,306.1c-9.3,0-16.9-7.5-16.9-16.8c0-9.3,7.5-16.9,16.8-16.9l17-0.1l-0.1-14.9
        c-21.4-3.5-41-14.1-55.7-30l-63.5,53.9c-13.9,11.9-34.4,11.9-48.3,0L0.6,171.8v160.2c0,4.3,1.1,8.6,3.1,12.3l75.3-77
        c2.2-2.1,5.6-2.2,7.8,0c2.2,2.1,2.2,5.6,0.1,7.8l-76,77.8c4.6,3.5,10.1,5.4,15.9,5.4H281c5.7,0,11.3-1.9,15.8-5.3l-76.4-77.8
        c-2.2-2.2-2.1-5.7,0.1-7.9c2.2-2.2,5.7-2.1,7.9,0.1l75.8,77.1c2.1-3.8,3.1-8.1,3.1-12.4v-26.2L280.6,306.1z"></path>
      <path class="st10" d="M313.8,214.4c30.1-0.3,54.3-24.9,54.1-55l-0.5-63.6c-0.2-30.1-24.9-54.3-55-54.1
        c-30.1,0.2-54.3,24.9-54.1,55l0.5,63.6C259.1,190.4,283.7,214.6,313.8,214.4z"></path>
      <path class="st10" d="M233.5,148.3h0.1c6,0,11.5,3.2,14.5,8.4l-0.2-23.3H26.8c-13.6,0-24.9,10.4-26.1,24L137,272.8
        c9.8,8.3,24.1,8.3,33.9,0l63.7-54c-11.4-15.5-17.6-34.2-17.8-53.5C216.8,155.9,224.2,148.4,233.5,148.3z"></path>
      <path class="st10" d="M399.4,163.7c0-3.4-2.8-6.2-6.3-6.2c-3.4,0-6.2,2.8-6.2,6.3c0.3,39.2-32.4,71.4-73,71.7
        c-40.6,0.3-73.8-31.3-74.1-70.5c0-3.4-2.8-6.2-6.3-6.2c-3.4,0-6.2,2.8-6.2,6.3c0.4,44,35.9,79.9,80.4,82.7l0.3,35l-27.6,0.2
        c-3.4,0-6.2,2.8-6.2,6.3c0,3.4,2.8,6.2,6.3,6.2l67.7-0.6c3.4,0,6.2-2.8,6.2-6.3c0-3.4-2.8-6.2-6.3-6.2l-27.6,0.2l-0.3-35
        C364.8,244.3,399.8,207.8,399.4,163.7z"></path>
    </g>
  </g>
</svg>
