<svg xmlns="http://www.w3.org/2000/svg" xmlns:xlink="http://www.w3.org/1999/xlink" x="0px" y="0px" viewBox="0 0 400 400" style="enable-background:new 0 0 400 400;" xml:space="preserve">
  <style type="text/css">
    .st0{fill:#FFFFFF;}
    .st1{fill:#3F66FF;}
    .st2{fill:#5800B8;}
    .st3{fill:#1BD29D;}
    .st4{fill:#0F4CAF;}
    .st5{fill:#B41C25;}
    .st6{fill:#063064;}
    .st7{fill-rule:evenodd;clip-rule:evenodd;fill:#FFFFFF;}
    .st8{fill:#343434;}
    .st9{fill:#FB4F08;}
    .st10{fill:#241E57;}
    .st11{fill-rule:evenodd;clip-rule:evenodd;fill:#241E57;}
  </style>
  <g id="BACKGROUND_2"></g>
  <g id="BACKGROUND_1">
    <g id="XMLID_00000056417841145888525230000012498631129167345075_">
      <path class="st10" d="M390.6,306.2H387V87.1c0-11.2-9.1-20.3-20.3-20.3h-62.1V26.4c0-5.2-4.2-9.4-9.4-9.4c-1.5,0-3,0.4-4.4,1.1l-34.5,18.3V20.8c0-8-6.5-14.5-14.5-14.5H109.8c-8,0-14.5,6.5-14.5,14.5v46H33.3C22.1,66.8,13,75.9,13,87.1v219.1H9.4c-5.2,0-9.4,4.2-9.4,9.4v42c0,20,16.2,36.1,36.1,36.1h327.7c19.9,0,36.1-16.2,36.1-36.1v-42C400,310.4,395.8,306.2,390.6,306.2z M31.8,87.1c0-0.9,0.7-1.5,1.5-1.5h62.1v46c0,8,6.5,14.5,14.5,14.5h132.1c8,0,14.5-6.5,14.5-14.5V116l34.5,18.3c1.3,0.7,2.9,1.1,4.4,1.1c5.2,0,9.4-4.2,9.4-9.4V85.5h62.1c0.9,0,1.5,0.7,1.5,1.5v219.1H264.8v-12.4c0-26.1-15.7-49.7-39.8-59.8c3.2-2.4,6-5.2,8.4-8.4c13.8-18.4,10-44.5-8.4-58.3c-18.4-13.8-44.5-10-58.3,8.4c-13.8,18.4-10,44.5,8.4,58.3c-24.1,10.1-39.8,33.6-39.9,59.8v12.4H31.8V87.1z M200,247.7c25.4,0,46,20.6,46,46v12.4h-92v-12.4C154,268.3,174.6,247.7,200,247.7z M177.1,200.6c0-12.7,10.3-22.9,22.9-22.9c12.7,0,22.9,10.3,22.9,22.9c0,12.7-10.3,22.9-22.9,22.9c-6.3,0-12-2.6-16.2-6.7C179.7,212.7,177.1,206.9,177.1,200.6z M381.3,357.5c0,9.6-7.8,17.4-17.4,17.4H36.1c-9.6,0-17.4-7.8-17.4-17.4v-32.6h70.5L98,352c1.3,3.9,4.9,6.5,8.9,6.5H293c4.1,0,7.7-2.6,8.9-6.5l8.8-27.1h70.5V357.5z"></path>
    </g>
  </g>
  <g id="DESIGNED_BY_FREEPIK"></g>
</svg>
