<svg xmlns="http://www.w3.org/2000/svg" viewBox="0 0 400 400" style="enable-background:new 0 0 400 400;" xml:space="preserve">
  <style type="text/css">
    .st0{fill:#FFFFFF;}
    .st1{fill:#3F66FF;}
    .st2{fill:#5800B8;}
    .st3{fill:#1BD29D;}
    .st4{fill:#0F4CAF;}
    .st5{fill:#B41C25;}
    .st6{fill:#063064;}
    .st7{fill-rule:evenodd;clip-rule:evenodd;fill:#FFFFFF;}
    .st8{fill:#343434;}
    .st9{fill:#FB4F08;}
    .st10{fill:#241E57;}
    .st11{fill-rule:evenodd;clip-rule:evenodd;fill:#241E57;}
  </style>

  <g id="BACKGROUND_1">
    <g id="filled">
      <path class="st10" d="M390.8,248.3l-18.3,13.8l-89.7,67.3l-89.7-67.3l-18.3-13.8H390.8z"></path>
      <path class="st10" d="M337.9,27.6h-21.4c-3.8-18.7-22-30.7-40.7-26.9c-13.5,2.7-24.1,13.3-26.8,26.9h-42.8
        c-3.8-18.7-22-30.7-40.7-26.9c-13.5,2.7-24.1,13.3-26.8,26.9H95.9C92.1,8.9,73.9-3.1,55.2,0.7C41.6,3.4,31,14,28.3,27.6H6.9
        c-3.8,0-6.9,3.1-6.9,6.9v317.2c0,3.8,3.1,6.9,6.9,6.9h137.9c3.8,0,6.9-3.1,6.9-6.9c0-3.8-3.1-6.9-6.9-6.9h-131V96.6H331v131
        c0,3.8,3.1,6.9,6.9,6.9s6.9-3.1,6.9-6.9V34.5C344.8,30.7,341.7,27.6,337.9,27.6z"></path>
      <path class="st10" d="M89.7,124.2H48.3c-3.8,0-6.9,3.1-6.9,6.9v41.4c0,3.8,3.1,6.9,6.9,6.9h41.4c3.8,0,6.9-3.1,6.9-6.9v-41.4
        C96.6,127.2,93.5,124.2,89.7,124.2z M82.8,165.5H55.2V138h27.6V165.5z"></path>
      <path class="st10" d="M158.6,124.2h-41.4c-3.8,0-6.9,3.1-6.9,6.9v41.4c0,3.8,3.1,6.9,6.9,6.9h41.4c3.8,0,6.9-3.1,6.9-6.9v-41.4
        C165.5,127.2,162.4,124.2,158.6,124.2z M151.7,165.5h-27.6V138h27.6V165.5z"></path>
      <path class="st10" d="M89.7,193.1H48.3c-3.8,0-6.9,3.1-6.9,6.9v41.4c0,3.8,3.1,6.9,6.9,6.9h41.4c3.8,0,6.9-3.1,6.9-6.9V200
        C96.6,196.2,93.5,193.1,89.7,193.1z M82.8,234.5H55.2v-27.6h27.6V234.5z"></path>
      <path class="st10" d="M227.6,234.5c-3.8,0-6.9-3.1-6.9-6.9v-20.7h-27.6v20.7c0,3.8-3.1,6.9-6.9,6.9s-6.9-3.1-6.9-6.9V200
        c0-3.8,3.1-6.9,6.9-6.9h41.4c3.8,0,6.9,3.1,6.9,6.9v27.6C234.5,231.4,231.4,234.5,227.6,234.5z"></path>
      <path class="st10" d="M296.6,234.5c-3.8,0-6.9-3.1-6.9-6.9v-20.7h-27.6v20.7c0,3.8-3.1,6.9-6.9,6.9s-6.9-3.1-6.9-6.9V200
        c0-3.8,3.1-6.9,6.9-6.9h41.4c3.8,0,6.9,3.1,6.9,6.9v27.6C303.4,231.4,300.4,234.5,296.6,234.5z"></path>
      <path class="st10" d="M89.7,262.1H48.3c-3.8,0-6.9,3.1-6.9,6.9v41.4c0,3.8,3.1,6.9,6.9,6.9h41.4c3.8,0,6.9-3.1,6.9-6.9V269
        C96.6,265.2,93.5,262.1,89.7,262.1z M82.8,303.5H55.2v-27.6h27.6V303.5z"></path>
      <path class="st10" d="M144.8,317.3h-27.6c-3.8,0-6.9-3.1-6.9-6.9V269c0-3.8,3.1-6.9,6.9-6.9h27.6c3.8,0,6.9,3.1,6.9,6.9
        c0,3.8-3.1,6.9-6.9,6.9h-20.7v27.6h20.7c3.8,0,6.9,3.1,6.9,6.9C151.7,314.2,148.6,317.3,144.8,317.3z"></path>
      <path class="st10" d="M227.6,124.2h-41.4c-3.8,0-6.9,3.1-6.9,6.9v41.4c0,3.8,3.1,6.9,6.9,6.9h41.4c3.8,0,6.9-3.1,6.9-6.9v-41.4
        C234.5,127.2,231.4,124.2,227.6,124.2z M220.7,165.5h-27.6V138h27.6V165.5z"></path>
      <path class="st10" d="M296.6,124.2h-41.4c-3.8,0-6.9,3.1-6.9,6.9v41.4c0,3.8,3.1,6.9,6.9,6.9h41.4c3.8,0,6.9-3.1,6.9-6.9v-41.4
        C303.4,127.2,300.4,124.2,296.6,124.2z M289.7,165.5h-27.6V138h27.6V165.5z"></path>
      <path class="st10" d="M240.8,315.1l-75.3,75.3V258.6l13.8,10.3L240.8,315.1z"></path>
      <path class="st10" d="M390.3,400H175.2l76.7-76.7l26.8,20.1c2.5,1.8,5.8,1.8,8.3,0l26.8-20.1l62.9,62.9l11.7,11.7L390.3,400z"></path>
      <path class="st10" d="M400,258.6v131.7l-75.3-75.3l61.5-46.1L400,258.6z"></path>
      <path class="st10" d="M158.6,248.3h-41.4c-3.8,0-6.9-3.1-6.9-6.9V200c0-3.8,3.1-6.9,6.9-6.9h41.4c3.8,0,6.9,3.1,6.9,6.9v41.4
        C165.5,245.2,162.4,248.3,158.6,248.3z M124.1,234.5h27.6v-27.6h-27.6V234.5z"></path>
    </g>
  </g>
</svg>
