<svg xmlns="http://www.w3.org/2000/svg" xmlns:xlink="http://www.w3.org/1999/xlink" id="Layer_1" x="0px" y="0px" viewBox="0 0 400 400" style="enable-background:new 0 0 400 400;" xml:space="preserve"><style type="text/css">	.st0{fill:#041C51;}	.st1{fill-rule:evenodd;clip-rule:evenodd;fill:#041C51;}	.st2{fill:#FFFFFF;}</style><g>	<path class="st0" d="M106,200c19.1,0,38.2,0,57.3,0c1.3,0,2.6,0,4.4,0c-2.6,7.8-5,15.2-7.5,22.4c-0.3,0.8-1.9,1.4-2.9,1.5   c-3.6,0.2-7.2,0.1-11,0.1c0,4.3,0,8,0,11.7c35.9,0,71.6,0,107.3,0c0-4,0-7.8,0-11.7c-3.9,0-7.5,0.1-11.1-0.1   c-0.9,0-2.4-0.6-2.6-1.3c-2.6-7.4-5-14.8-7.6-22.6c1.9,0,3.2,0,4.6,0c19.1,0,38.2,0,57.3,0c12.2,0,19.6-7.4,19.6-19.5   c0-46.9,0-93.8,0-140.8c0-12-7.4-19.4-19.4-19.4c-62.9,0-125.8,0-188.7,0c-12.2,0-19.5,7.4-19.5,19.6c0,46.8,0,93.6,0,140.4   C86.2,192.7,93.5,200,106,200z M172.4,223.8c2.5-7.6,4.9-15.1,7.5-22.4c0.2-0.7,1.7-1.4,2.6-1.4c11.6-0.1,23.2-0.1,34.8,0   c0.9,0,2.4,0.6,2.6,1.3c2.6,7.4,5,14.8,7.5,22.5C209,223.8,191,223.8,172.4,223.8z M106.5,32.3c62.4,0,124.7,0,187.1,0   c5.9,0,8.2,1.9,8.2,7.2c0,40.8,0,81.6,0,122.4c0,0.6-0.1,1.2-0.1,2.1c-68,0-135.5,0-203.3,0c-0.1-1.3-0.2-2.6-0.2-3.8   c0-39.8,0-79.6,0-119.4C98.2,34.1,99.9,32.3,106.5,32.3z M98.5,176.2c67.8,0,135.3,0,203.3,0c0,2.1,0.1,4,0,6   c-0.3,3.5-2.3,5.4-5.7,5.8c-1.2,0.1-2.5,0-3.7,0c-61.2,0-122.4-0.1-183.7,0.1C98.6,188.1,97.3,184.7,98.5,176.2z"></path>	<path class="st0" d="M152.1,343.7c0-1.6,0-2.9,0-4.3c0-20,0-39.9,0-59.9c0-12.2-7.3-19.6-19.5-19.6c-26.9,0-53.9,0-80.8,0   c-12.1,0-19.5,7.4-19.5,19.7c0,20,0,39.9,0,59.9c0,1.3,0,2.7,0,4.4c-4.2,0-7.9,0-12,0c0,5.6,0,10.8,0,16.1   c0,12.5,7.3,19.8,19.7,19.8c16.7,0,33.4,0,50.1,0c18.5,0,36.9,0,55.4,0c9.1,0,16.6-5.3,17.8-13.9c1-7.1,0.2-14.5,0.2-22.1   C159.8,343.7,156.1,343.7,152.1,343.7z M52.5,271.9c26.6,0,53.1,0,79.7,0c5.9,0,8,2,8,7.7c0,21.2,0,42.4,0,64   c-32.1,0-63.7,0-95.7,0c-0.1-1.2-0.2-2.4-0.2-3.6c0-20,0-39.9,0-59.9C44.3,273.7,46.1,271.9,52.5,271.9z M152.1,360.3   c-0.1,5.3-2.2,7.4-7.6,7.4c-22.4,0-44.9,0-67.3,0c-11.8,0-23.7,0-35.5,0c-8,0-9.5-1.6-9.4-9.7c0-0.6,0.1-1.2,0.1-2   c39.8,0,79.5,0,119.7,0C152.1,357.6,152.1,359,152.1,360.3z"></path>	<path class="st0" d="M379.5,343.7c-4,0-7.8,0-11.8,0c0-1.8,0-3.1,0-4.5c0-19.8,0-39.7,0-59.5c0-12.5-7.3-19.8-19.7-19.8   c-26.8,0-53.6,0-80.4,0c-12.4,0-19.7,7.3-19.7,19.8c0,20,0,39.9,0,59.9c0,1.3,0,2.6,0,4.2c-4.2,0-7.9,0-12,0c0,6.6-0.2,12.8,0,18.9   c0.3,9.4,8,17,17.5,17c36.2,0.1,72.3,0.1,108.5,0c8.9,0,16.6-6.6,17.4-15.5C380,357.5,379.5,350.8,379.5,343.7z M268.1,271.9   c26.6,0,53.1,0,79.7,0c5.9,0,8,2,8,7.7c0,21.2,0,42.4,0,64c-32,0-63.7,0-95.7,0c-0.1-1.2-0.2-2.4-0.2-3.6c0-20,0-39.9,0-59.9   C259.9,273.7,261.7,271.9,268.1,271.9z M367.6,362.5c-0.4,3.5-3,5.2-7.4,5.2c-18.7,0-37.4,0-56.1,0c-15.2,0-30.4,0-45.6,0   c-9.8,0-11.2-1.5-10.3-11.9c39.8,0,79.4,0,119.5,0C367.6,358.1,367.8,360.3,367.6,362.5z"></path>	<path class="st0" d="M50,247.9c8.3,0.1,15.5-5.4,17.6-13.5c2.1-7.9-1.3-16.1-8.7-20c-2-1.1-2.8-2.2-2.8-4.5   c0.1-35.4,0-70.9,0.1-106.3c0-1.6,0.9-3.6,2-4.8c4.6-4.8,9.4-9.3,14.2-14c-3.1-2.9-5.8-5.5-8.9-8.5C58,81.8,52.5,87.6,46.7,93.1   c-1.9,1.8-2.5,3.6-2.5,6.2c0.1,36.7,0,73.4,0.1,110c0,2.3-0.3,3.7-2.7,5c-7.4,3.9-10.8,12.1-8.8,20C34.9,242.3,41.9,247.8,50,247.9   z M50.3,224c3.2,0,5.9,2.7,5.9,6c0,3.2-2.6,5.9-5.9,6c-3.4,0.1-6.2-2.8-6.1-6.1C44.4,226.5,47.1,223.9,50.3,224z"></path>	<path class="st0" d="M343.8,104.2c-0.1,34.9-0.1,69.9,0,104.8c0,2.6-0.5,4.1-3.1,5.5c-7.2,3.9-10.4,12.3-8.3,20.2   c2.1,7.7,9.1,13.1,17.1,13.2c8.1,0.1,15.3-5.4,17.4-13.2c2.2-7.9-1.1-16.3-8.3-20.2c-2.6-1.4-3-2.9-3-5.5c0.1-36.7,0.1-73.4,0-110   c0-1.4-0.1-3.2-0.9-4.1c-6-6.3-12.2-12.4-18.4-18.6c-3.1,3-5.8,5.5-8.9,8.5c4.7,4.6,9.1,9.1,13.7,13.4   C343.1,99.8,343.8,101.6,343.8,104.2z M349.9,224c3.2,0.1,5.8,2.8,5.8,6c0,3.2-2.7,5.9-5.9,5.9c-3.2,0-5.9-2.6-6-5.8   C343.7,226.7,346.5,223.9,349.9,224z"></path>	<path class="st0" d="M226.5,319.9c-1.9-1.7-2.6-3.6-2.6-6.2c0.2-9.1,0.1-18.2,0-27.3c0-2.3,0.4-3.7,2.7-4.9   c7.4-3.9,10.7-12.1,8.7-20c-2.1-8.1-9.2-13.6-17.5-13.6c-8.1,0.1-15.1,5.6-17.2,13.5c-2,7.9,1.3,16.1,8.7,20   c2.3,1.2,2.8,2.6,2.8,4.9c-0.1,11-0.1,21.9,0,32.9c0,1.3,0.1,2.9,0.9,3.8c4,4.4,8.3,8.6,12.6,13c2.9-3.1,5.4-5.7,8.4-8.9   C231.5,324.7,229.1,322.2,226.5,319.9z M217.7,271.8c-3.2-0.1-5.8-2.9-5.7-6.1c0.1-3.2,2.8-5.8,6-5.8c3.2,0,5.9,2.7,5.9,5.9   C223.9,269.2,221,272,217.7,271.8z"></path>	<path class="st0" d="M190.7,304.2c-2.3-1.2-2.8-2.6-2.7-4.9c0.1-11,0.1-21.9,0-32.9c0-1.3-0.1-2.9-0.9-3.8c-4-4.4-8.3-8.6-12.6-13   c-2.9,3.1-5.5,5.8-8.6,9.1c2.5,2.4,4.9,4.9,7.6,7.1c2,1.7,2.6,3.6,2.6,6.2c-0.2,9.1-0.1,18.2,0,27.3c0,2.3-0.4,3.7-2.7,4.9   c-7.4,3.9-10.7,12.1-8.7,20c2.1,8,9,13.5,17.2,13.6c8.3,0.1,15.5-5.4,17.6-13.5C201.4,316.3,198.1,308.1,190.7,304.2z M182.3,325.8   c-3.3,0.2-6.2-2.6-6.2-6c0-3.2,2.7-5.9,5.9-6c3.2-0.1,6,2.6,6.1,5.8C188.1,322.8,185.5,325.6,182.3,325.8z"></path>	<path class="st0" d="M157.2,84.5c-3.6,0.9-7.2,1.7-10.9,2.6c0,7.5,0,14.8,0,22.1c3.6,0.9,7,1.7,10.4,2.5c4.3,1.1,5.4,3.5,3.2,7.3   c-1.9,3.1-3.7,6.2-5.4,8.9c5.5,5.5,10.6,10.6,15.8,15.8c2.7-1.7,5.8-3.6,8.9-5.4c3.6-2.2,6.2-1.1,7.2,2.9c0.9,3.6,1.7,7.2,2.6,10.8   c7.5,0,14.7,0,22,0c0.8-3.4,1.6-6.6,2.4-9.9c1.2-5.2,3.4-6.1,7.9-3.5c3,1.8,5.9,3.6,8.6,5.2c5.3-5.3,10.4-10.4,15.7-15.7   c-1.8-3-3.8-6.1-5.7-9.3c-2-3.4-1-6,2.8-7c3.6-0.9,7.2-1.7,10.9-2.6c0-7.5,0-14.8,0-22.1c-3.5-0.8-6.7-1.6-10-2.4   c-5.1-1.2-6-3.4-3.2-8c1.8-2.9,3.6-5.9,5-8.3c-5.5-5.5-10.6-10.5-15.8-15.8c-2.7,1.7-5.8,3.5-8.9,5.4c-3.6,2.1-6.2,1.1-7.2-2.9   c-0.9-3.6-1.7-7.2-2.6-10.8c-7.5,0-14.7,0-22,0c-0.8,3.4-1.6,6.6-2.4,9.9c-1.3,5.3-3.4,6.2-8.2,3.3c-2.8-1.8-5.7-3.5-8.3-5.1   c-5.3,5.3-10.4,10.4-15.7,15.7c1.8,2.9,3.7,6.1,5.7,9.3C162,80.9,161,83.6,157.2,84.5z M172.2,85.7c2.1-5,2.5-9-1.1-13.2   c-0.8-0.9-0.4-2.7-0.6-4.1c1.3,0.3,3,0.1,3.8,0.8c4.4,3.8,8.8,3.9,13.5,0.9c0.5-0.3,1.1-0.6,1.7-0.7c5.2-1,7.6-4.3,8.2-9.5   c0.1-1.3,1.4-2.4,2.2-3.6c0.8,1.1,2.3,2.2,2.4,3.4c0.5,5.4,3.6,7.7,8.3,9.9c6.6,3.2,12.2,3.6,17.2-2.2c2.6,1.2,3.3,2.5,1.7,4.3   c-4.7,4.9-4.2,10.1-0.9,15.5c0.1,0.1,0.1,0.2,0.2,0.3c1.2,5.2,4.3,8,9.7,8.4c1.2,0.1,2.3,1.5,3.5,2.4c-1.1,0.8-2.1,2.1-3.2,2.2   c-5.7,0.5-8.9,3.6-10.1,8.9c-0.1,0.4-0.2,0.7-0.4,1c-3.3,4.9-2.8,9.4,1,13.8c1.4,1.5,2,3.3-0.6,4.5c-0.2,0-0.5,0-0.6-0.1   c-7.9-8.1-15.4-2.4-22.9,0.9c-1.1,0.5-1.5,2.6-2,4.1c-0.5,1.4-0.5,3-1.1,4.3c-0.3,0.9-1.3,1.5-2,2.2c-0.8-0.8-2.1-1.5-2.2-2.3   c-0.3-6.8-4.5-9.4-10.2-11.8c-5.1-2.1-9.3-2.6-13.5,1.3c-1.6,1.4-3.4,2.2-4.7-0.8c0.2-0.3,0.3-0.9,0.6-1.2c8-7.9,1.2-15-1.4-22.2   c-0.2-0.6-1.3-1-2.1-1.2c-2-0.6-4.2-0.9-6.1-1.6c-0.9-0.3-1.6-1.4-2.4-2.2c0.7-0.7,1.4-1.9,2.1-2C167.3,96.1,169.8,91.4,172.2,85.7   z"></path>	<path class="st0" d="M249.3,142.3c2.8,2.5,5.7,5.1,8.5,7.6c21.3-22.3,24.4-57.8,14.9-77.4c-3.5,1.2-6.9,2.5-10.4,3.7   C268.7,106.4,266.8,115.9,249.3,142.3z"></path>	<path class="st0" d="M135.9,120.8c0.6-0.2,1.1-0.5,1.7-0.8c-7.5-24.3-3.1-46.1,13.1-65.8c-2.9-2.6-5.7-5.2-8.6-7.7   c-21.1,22-24.5,57.4-15,77.5C130.1,122.9,133,121.8,135.9,120.8z"></path>	<path class="st0" d="M132.3,137.3c3.3,4.5,6.3,8.6,9.5,12.9c3.2-2.9,6-5.4,8.9-8c-2.8-3.8-5.4-7.4-8-11   C139.2,133.3,135.9,135.2,132.3,137.3z"></path>	<path class="st0" d="M267.7,59c-3.2-4.4-6.1-8.3-9.2-12.5c-3.3,2.9-6.1,5.4-8.9,7.9c2.6,3.6,5.1,7.1,7.7,10.6   C260.8,63.1,264.1,61.1,267.7,59z"></path>	<path class="st0" d="M200,116.1c9.9,0,18-8.1,18-18.1c0-9.7-8.2-17.8-17.9-17.8c-10,0-18,8.2-18,18.1   C182.1,108.1,190.2,116.1,200,116.1z M199.8,92.2c3.2-0.1,6,2.5,6.1,5.7c0.1,3.3-2.7,6.2-6,6.2c-3.2,0-5.9-2.7-5.9-5.9   C194,95,196.6,92.3,199.8,92.2z"></path>	<path class="st0" d="M52.4,284.8c0.1,0.9,0.2,1.7,0.2,2.6c1.1,9.9,4.5,19.1,10.2,27.2c5.3,7.6,12.1,13.6,20.2,18.1   c5.8,3.2,11.9,5.3,18.2,6.3c1.6,0.3,3.1,0.4,4.6,0.6c0.7,0.1,1.4,0.1,2,0.2c0.1,0,0.2,0,0.3,0c0.1,0,0.4,0.1,0.4,0.1h3.7l0.5-0.2   c0.9-0.3,2.4-0.9,3.3-2.4c0.3-0.4,0.5-0.9,0.6-1.2c0.1-0.1,0.1-0.2,0.2-0.4l0.3-0.6v-13.8l-0.1-0.4c-0.9-2.9-3.1-4.6-6.2-4.6   c-3.5,0-7.1-0.6-10.6-1.7c-0.7-0.2-1.3-0.3-2-0.3c-1.1,0-2.9,0.3-4.5,2c-1.3,1.3-2.6,2.6-3.8,3.8c-0.6,0.6-1.2,1.2-1.8,1.8   c-7.6-4.3-13.6-10.3-18-17.9c1.2-1.2,2.4-2.4,3.6-3.5c0.7-0.7,1.4-1.5,2.2-2.2c1.7-1.7,2.3-4,1.6-6.3c-0.4-1.4-0.8-2.7-1-4   c-0.5-2.3-0.6-4.7-0.7-7.2c-0.2-3.3-2.7-5.7-6-5.8c-1.8,0-3.6,0-5.5,0c-1.9,0-3.8,0-6,0c-2.4,0-4.4,1.3-5.5,3.4   c-0.1,0.3-0.2,0.5-0.3,0.7c0,0.1,0,0.1-0.1,0.2l-0.2,0.5v3.7l0,0.1C52.3,284,52.3,284.4,52.4,284.8z M55,280.4   c0.1-0.2,0.2-0.5,0.3-0.7c0.6-1.3,1.7-1.9,3.1-1.9c3.8,0,7.6,0,11.5,0c1.9,0,3.3,1.3,3.3,3.2c0.1,2.6,0.2,5.1,0.8,7.7   c0.3,1.4,0.7,2.8,1.1,4.1c0.4,1.4,0.1,2.6-0.9,3.6c-2.3,2.3-4.5,4.5-6.8,6.8c-0.2,0.2-0.4,0.4-0.2,0.8c4.9,9.3,12.1,16.4,21.4,21.3   c0.1,0,0.1,0,0.3,0.1c0.2-0.2,0.3-0.4,0.5-0.6c2.1-2.2,4.3-4.3,6.4-6.5c1.1-1.1,2.3-1.4,3.7-1c3.7,1.2,7.5,1.8,11.4,1.8   c1.9,0,3,1,3.6,2.7c0,4.3,0,8.5,0,12.8c-0.2,0.4-0.4,0.9-0.7,1.3c-0.5,0.7-1.2,1.1-2,1.4c-1,0-2,0-3,0c-0.2,0-0.4-0.1-0.6-0.1   c-2.2-0.2-4.4-0.4-6.5-0.7c-6.1-1-11.9-3-17.4-6c-7.8-4.2-14.2-10-19.3-17.3c-5.5-7.8-8.7-16.5-9.8-26c-0.1-1.2-0.2-2.5-0.3-3.7   C55,282.4,55,281.4,55,280.4z"></path>	<path class="st0" d="M115.7,299.6c0.4,0,0.7,0,1,0c2.7,0,5.4,0,8.1,0c0-4.5,0-9.1,0-13.6c-4.5,0-9.1,0-13.6,0c0,7.6,0,15.2,0,22.8   c1.5,0,3,0,4.5,0C115.7,305.7,115.7,302.7,115.7,299.6z M115.8,290.5c1.5,0,3,0,4.5,0c0,1.5,0,3,0,4.5c-1.5,0-3,0-4.5,0   C115.8,293.5,115.8,292.1,115.8,290.5z"></path>	<path class="st0" d="M97.4,295c-3,0-6,0-9,0c0-1.5,0-3,0-4.6c3.1,0,6,0,9.1,0c0-1.6,0-3,0-4.5c-4.6,0-9.1,0-13.6,0   c0,4.6,0,9.1,0,13.7c3.1,0,6,0,9,0c0,1.5,0,3,0,4.6c-3,0-6.1,0-9.1,0c0,1.6,0,3,0,4.5c4.6,0,9.1,0,13.6,0   C97.4,304.1,97.4,299.6,97.4,295z"></path>	<path class="st0" d="M106.5,286c-1.5,0-2.9,0-4.4,0c0,7.6,0,15.2,0,22.7c1.5,0,3,0,4.4,0C106.5,301.1,106.5,293.5,106.5,286z"></path>	<path class="st0" d="M300.6,338.4c6.1,0.6,11.8-0.8,16.9-4.2c6.7-4.5,10.7-10.8,11.8-18.8c0.1-0.8-0.2-1.2-1-1.3   c-3-0.3-6.1-0.7-9.1-1c-3.4-0.4-6.8-0.8-10.2-1.1c-1.3-0.1-2.6-0.3-4-0.4c0.1-0.2,0.1-0.3,0.2-0.4c1.7-3.2,3.4-6.4,5.2-9.6   c2-3.6,3.9-7.3,5.9-10.9c0.4-0.8,0.3-1.2-0.5-1.7c-3.2-1.7-6.6-2.7-10.2-3.1c-5-0.4-9.7,0.5-14.1,2.7c-11.9,6-17.5,20-12.9,32.6   C281.8,330.7,290.5,337.4,300.6,338.4z M285.6,295.2c7.9-8.1,19.6-9.4,28.5-4.8c-0.8,1.6-1.7,3.1-2.5,4.6c-3,5.6-6,11.1-9,16.7   c-0.5,0.9-0.1,1.5,0.9,1.7c3.7,0.4,7.5,0.8,11.2,1.2c3.1,0.3,6.2,0.7,9.2,1c0.9,0.1,1.9,0.2,2.8,0.3c0.2,0,0.4,0.1,0.6,0.1   c-1,7.9-7.1,16.9-17.7,19.7c-10.6,2.9-21.9-1.8-27.4-11.3C276.6,315,278,302.9,285.6,295.2z"></path>	<path class="st0" d="M314.9,301.1c0.1,0,0.3-0.1,0.5-0.2c7.5-3.4,15-6.7,22.6-10.1c0.9-0.4,1.1-0.8,0.7-1.8c-2.4-5.2-6-9.2-11-12   c-0.9-0.5-1.3-0.4-1.8,0.5c-3,5.6-6,11.2-9.1,16.8c-0.9,1.7-1.9,3.5-2.8,5.2C313.6,300.3,314,301.1,314.9,301.1z M327.3,279.1   c4.1,2.5,7.2,5.9,9.3,10.2c-6.5,2.9-13,5.8-19.6,8.7C320.5,291.7,323.9,285.4,327.3,279.1z"></path>	<path class="st0" d="M336,297.3c-0.3-0.8-0.8-1-1.6-0.6c-6.4,2.8-12.7,5.6-19.1,8.4c-1.2,0.5-2.5,1.1-3.7,1.7   c-0.5,0.2-0.8,0.6-0.7,1.1c0.1,0.5,0.4,0.8,1,0.9c0.3,0,0.7,0.1,1,0.1c3.9,0.4,7.8,0.8,11.7,1.3c4,0.4,8,0.9,12,1.3   c0.9,0.1,1.3-0.2,1.3-1.1c0.1-0.9,0.1-1.8,0.2-2.7c0-0.8-0.1-1.5-0.1-2.3C337.7,302.5,337,299.9,336,297.3z M336,309.4   c-6.8-0.7-13.5-1.5-20.2-2.2c0,0,0-0.1,0-0.1c6.2-2.7,12.4-5.5,18.7-8.3C335.8,302.3,336.2,305.7,336,309.4z"></path>	<path class="st0" d="M303.3,334.1c0.3,0,0.5,0,0.8,0c0,0,0,0.1,0,0.1c1.5-0.3,3.1-0.4,4.6-0.8c6.8-1.9,11.6-6,14.6-12.4   c0.3-0.7,0.6-1.5,0.8-2.2c0.1-0.3,0-0.6-0.3-0.7c-0.3-0.1-0.5,0.1-0.6,0.4c0,0.1,0,0.1-0.1,0.2c-2.5,7.1-7.4,11.7-14.6,13.8   c-1.7,0.5-3.4,0.7-5.2,0.7c-0.4,0-0.6,0.1-0.6,0.5C302.7,334,303,334.1,303.3,334.1z"></path></g></svg>