<svg xmlns="http://www.w3.org/2000/svg" xmlns:xlink="http://www.w3.org/1999/xlink" id="Layer_1" x="0px" y="0px" viewBox="0 0 400 400" style="enable-background:new 0 0 400 400;" xml:space="preserve">
  <style type="text/css">
    .st0{fill:#041C51;}
    .st1{fill-rule:evenodd;clip-rule:evenodd;fill:#041C51;}
    .st2{fill:#FFFFFF;}
  </style>
  <g>
    <path class="st0" d="M225.5,182.5c-3-18.4-17.7-29-38.5-27.5c0,30.1,0,60,0,90.1c-3,0-5.5,0.1-8.1-0.1c-1-0.1-2.4-0.6-3-1.4
      c-3.5-5-8.4-8.2-13.8-10.8c-28.7-14.3-57.4-28.7-86-43c-1.2-0.6-2.4-1.3-3.8-2.1c22.5-16.2,21.9-42.3,9.1-57.6
      c-14-16.7-38.8-18.7-55.1-4.5c-15.5,13.5-19.9,40,0.2,58.8c-0.6,0.4-1.1,0.8-1.7,1.1c-16.5,9.2-24.8,23.2-24.8,42.1
      c0,15.1,0.3,30.1-0.1,45.2c-0.3,13.7,3.3,25.7,12.6,35.9c0.1,0.1,0,0.5,0,1.1c-4,0-8.1,0-12.2,0c0,30.3,0,60.2,0,90.2
      c1.4,0,2.4,0,3.5,0c30.5,0,61,0,91.5,0c16.3,0,27.2-11,27.2-27.4c0-22.7,0-45.4,0-68.1c0-6.5-1.5-12.5-4.9-18
      c-0.4-0.7-0.7-1.5-1.2-2.6c25.3,0,50.1,0,75,0c20.6,0,34.2-13.7,34.3-34.4c0-20.2,0-40.3,0-60.5
      C225.8,186.8,225.8,184.6,225.5,182.5z M25.9,154.3c0.2-14,11.9-25.3,26-25.2c14.2,0.1,25.7,11.9,25.5,26.2
      c-0.2,14.2-12,25.6-26.3,25.4C37.1,180.4,25.7,168.6,25.9,154.3z M13.3,386.9c0-21.3,0-42.6,0-64.2c19.3,0,38.3,0,57.4,0
      c2,21.4-2.4,43,2.9,64.2C53.8,386.9,33.7,386.9,13.3,386.9z M121.1,270.7c-12.2,0-24.4,0-37,0c0-6.4,0-12.5,0-19.2
      c12.6,6.3,24.9,12.4,37.1,18.6C121.2,270.3,121.2,270.5,121.1,270.7z M165.3,265.6c-3.6,5-9.9,6.8-15.8,4.1c-6.1-2.8-12-5.9-18-8.9
      c-27.1-13.6-54.2-27.1-81.4-40.7c-1.2-0.6-2.4-1.2-4.2-2c-1.9,3.9-3.7,7.4-5.7,11.4c6.7,3.4,12.9,7.4,19.8,9.8
      c9.2,3.2,12.4,8.5,11.3,18.2c-1,8.3-0.2,16.9-0.1,25.4c0,0.2,0.2,0.5,0.5,1.1c5.7,0,11.6,0,17.5,0c12.6,0,20.7,8.1,20.7,20.7
      c0,22.7,0,45.4,0,68.1c0,8.5-5.3,14.4-12.9,14.4c-7.6,0-12.8-5.9-12.9-14.5c0-15.7,0-31.4,0-47.2c0-11.1-4.6-15.8-15.6-15.8
      c-7.7,0-15.3,0.1-23,0c-18.1-0.2-32.2-14.1-32.4-32.2c-0.1-17.2-0.1-34.4,0-51.6c0.1-18.1,14.2-31.9,32.3-32.3
      c6.2-0.2,11.8,1.1,17.3,3.9c31.6,16,63.3,31.7,95,47.7c2.4,1.2,4.7,2.7,6.5,4.6C168.5,254.3,168.8,260.7,165.3,265.6z M212.8,252.8
      c-0.1,9.7-8.5,17.7-18.2,18.1c-5.5,0.2-11,0-16.6,0c1.1-4.3,2.1-8.3,3.3-12.9c1.1,0,2.7,0,4.3,0c9.4,0,14.5-5.1,14.5-14.4
      c0-23.2,0-46.5,0-69.7c0-1.4,0-2.9,0-4.4c6.9,1.5,12.7,8.6,12.8,16.4C213,208.2,213.1,230.5,212.8,252.8z"></path>
    <path class="st0" d="M303.2,193.5c53.3,0,96.7-43.4,96.8-96.6c0.1-53.3-43.3-96.8-96.5-96.9c-53.3-0.1-96.8,43.2-97,96.4
      C206.4,149.9,249.8,193.5,303.2,193.5z M242.9,154.8c3,0,5,0,7,0c6.3,0,12.6-0.1,18.9,0.1c1.1,0,2.8,0.5,3.3,1.4
      c4.6,7.3,9,14.8,13.7,22.5C269.4,175.3,255.6,167.4,242.9,154.8z M334.8,103.5c0.6,9.4-3.7,28.7-8.5,38.3c-15.4,0-30.8,0-46.3,0
      c-5.1-12.2-7.9-24.8-8.6-38.3C292.6,103.5,313.7,103.5,334.8,103.5z M271.4,90.1c0.5-12.7,3.2-24.7,7.8-36.2
      c0.4-1.1,2.3-2.2,3.5-2.2c13.7-0.2,27.4-0.2,41.1,0c1.2,0,3.1,1.1,3.5,2.1c4.6,11.5,7.3,23.5,7.8,36.2
      C313.6,90.1,292.6,90.1,271.4,90.1z M285.6,155c12.3,0,23.1,0,35.2,0c-5.9,8.1-11.3,15.5-17.5,24C297.2,170.7,291.7,163.3,285.6,155z
      M320.7,178.8c4.7-7.8,9.2-15.2,13.7-22.6c0.4-0.6,1.2-1.2,1.8-1.2c8.8-0.1,17.6-0.1,27.3-0.1C351,167.5,337.1,175.1,320.7,178.8z
      M374.8,140.1c-0.5,0.8-1.8,1.7-2.7,1.7c-10.3,0.1-20.7,0.1-30.6,0.1c2.5-12.7,5-25.3,7.6-38.3c11.8,0,24.4,0,37.5,0
      C385.7,116.9,381.6,128.9,374.8,140.1z M372,51.7c1,0,2.4,1,3,2c6.7,11.1,10.7,23,11.7,36.3c-12.8,0-25.5,0-37.6,0
      c-2.5-12.8-5-25.5-7.6-38.4C351.3,51.6,361.7,51.6,372,51.7z M363.1,38.7c-6.7,0-13-0.5-19.1,0.1c-6.6,0.7-10.9-1-13.1-7.6
      c-1-3-3.2-5.5-5-8.2c-1.7-2.6-3.5-5-5.6-8C334,16.7,353.5,27.4,363.1,38.7z M320.9,38.5c-12.2,0-23,0-35.2,0
      c5.9-8.1,11.3-15.6,17.5-24C309.4,22.9,314.8,30.2,320.9,38.5z M285.8,14.8c-4.7,7.8-9.2,15.3-13.8,22.8c-0.4,0.6-1.5,1.1-2.3,1.1
      c-8.6,0.1-17.1,0-26.8,0C255.5,26.1,269.4,18.3,285.8,14.8z M231.5,53.7c0.6-1,1.9-2,3-2c10.3-0.1,20.6-0.1,30.5-0.1
      c-2.5,12.9-5.1,25.5-7.6,38.5c-11.9,0-24.5,0-37.5,0C220.8,76.8,224.8,64.8,231.5,53.7z M231.8,140.4c-6.9-11.3-11-23.4-12-37
      c13,0,25.5,0,37.5,0c2.5,12.9,5,25.6,7.6,38.6c-10,0-20.5,0-31.1-0.1C233.2,141.8,232.2,141,231.8,140.4z"></path>
    <path class="st0" d="M387.1,361.1c0-1.7,0-3.2,0-4.6c0-17.2,0-34.4,0-51.6c0-20.2-13.7-34-33.8-34c-24.7,0-49.4,0-74.1,0
      c-20.2,0-33.9,13.7-33.9,33.9c0,17.3,0,34.7,0,52c0,1.4,0,2.8,0,4.5c-4.5,0-8.5,0-12.5,0c-3.1,21.1,11.6,38.5,32.6,38.6
      c10.2,0.1,20.4,0,30.6,0c24,0,48.1,0.1,72.1,0c20.6-0.2,35.1-19,31.3-38.8C395.4,361.1,391.4,361.1,387.1,361.1z M258.1,304.7
      c0-12.8,8.1-20.8,20.9-20.8c24.8,0,49.7,0,74.5,0c12.6,0,20.7,8.1,20.7,20.6c0,17.7,0,35.4,0,53.2c0,1,0,2.1,0,3.4
      c-38.9,0-77.3,0-115.9,0c-0.1-1.3-0.2-2.5-0.2-3.6C258.1,339.8,258.1,322.3,258.1,304.7z M367.3,387c-17.9,0.1-35.7,0-53.6,0
      c-16.4,0-32.8,0.1-49.1,0c-8.5,0-15.8-5.4-17.7-12.7c46.1,0,92.2,0,138.3,0C383.5,381.7,376.1,387,367.3,387z"></path>
    <path class="st0" d="M166.5,145.8c-3.6-2.7-6.8-5.1-10.3-7.6c-2.5,3.2-4.8,6.2-7.6,9.9c-0.1-1.8-0.1-2.6-0.1-3.3
      c0-22.3-0.1-44.6,0-66.9c0.1-13.3,11.4-22.1,24.8-19.2c-3.1,2.4-6.1,4.7-9.3,7.2c2.6,3.4,5,6.7,7.7,10.3
      c10.9-8.2,21.6-16.2,32.6-24.5c-5.8-4.3-11.1-8.4-16.4-12.4c-5.3-4-10.7-8-16.2-12.2c-2.7,3.6-5.2,6.9-7.7,10.2
      c3.3,2.6,6.3,4.9,10.1,7.8c-2,0-2.7,0-3.3,0c-19.6-1.3-36,14-35.3,35.5c0.7,20.8,0.1,41.6,0.1,62.4c0,1.4,0,2.7,0,5.2
      c-3.1-4-5.3-7-7.8-10.2c-3.5,2.6-6.8,5.1-10.2,7.7c8.2,11,16.2,21.6,24.5,32.6C150.3,167.4,158.3,156.8,166.5,145.8z"></path>
    <path class="st0" d="M183.4,340.5c3.3,2.6,6.2,4.9,10,7.8c-9.2,0-17.3,0.1-25.3,0c-3.5,0-6.2-1.9-6.4-5.4
      c-0.4-6.3-0.1-12.7-0.1-20.1c3,3.8,5.3,6.8,7.7,10c3.6-2.7,6.9-5.2,10.2-7.7c-8.3-11.1-16.2-21.7-24.5-32.7
      c-8.3,11.1-16.3,21.8-24.5,32.7c3.6,2.7,6.8,5.1,10.3,7.7c2.5-3.3,4.8-6.2,7.8-10.1c0,6.9,0,12.6,0,18.3c0.1,12,8.2,20.2,20.3,20.3
      c7.8,0,15.6,0,24.7,0c-3.8,3-6.8,5.3-10,7.8c2.7,3.6,5.2,6.8,7.7,10.2c11-8.3,21.7-16.3,32.6-24.5c-11.2-8.4-21.8-16.3-32.6-24.5
      C188.4,333.9,185.9,337.1,183.4,340.5z"></path>
    <path class="st0" d="M284.1,77.1c4.3,0,8.4,0,12.4,0c0-4.3,0-8.4,0-12.4c-4.3,0-8.2,0-12.4,0C284.1,69,284.1,73,284.1,77.1z"></path>
    <path class="st0" d="M309.9,77.2c4.3,0,8.3,0,12.5,0c0-4.2,0-8.2,0-12.3c-4.5,0-8.6,0-12.5,0C309.9,69.1,309.9,73.1,309.9,77.2z"></path>
    <path class="st0" d="M296.6,116.4c-4.3,0-8.4,0-12.5,0c0,4.2,0,8.2,0,12.4c4.4,0,8.4,0,12.5,0C296.6,124.5,296.6,120.5,296.6,116.4z"></path>
    <path class="st0" d="M322.3,116.4c-4.2,0-8.3,0-12.3,0c0,4.3,0,8.4,0,12.5c4.2,0,8,0,12.3,0C322.3,124.7,322.3,120.6,322.3,116.4z"></path>
    <path class="st0" d="M316.2,335.4c10.5,0,19.2-8.7,19.3-19.2c0.1-10.7-8.7-19.5-19.4-19.5c-10.5,0-19.2,8.7-19.3,19.2
      C296.8,326.7,305.5,335.5,316.2,335.4z M316.3,309.7c3.5,0.1,6.3,3.1,6.2,6.6c-0.1,3.5-3.1,6.3-6.6,6.2c-3.5-0.1-6.3-3.1-6.2-6.6
      C309.8,312.4,312.9,309.6,316.3,309.7z"></path>
  </g>
</svg>
