<svg xmlns="http://www.w3.org/2000/svg" xmlns:xlink="http://www.w3.org/1999/xlink" id="Layer_1" x="0px" y="0px" viewBox="0 0 400 400" style="enable-background:new 0 0 400 400;" xml:space="preserve">
  <style type="text/css">
    .st0{fill:#041C51;}
    .st1{fill:#FFFFFF;}
  </style>
  <g>
    <path class="st0" d="M400,31.7c0-20.6-10.2-31-30.4-31c-65.5-0.1-131.1-0.1-196.6,0c-20.4,0-30.6,10.2-30.7,30.8
      c-0.1,37.4,0,74.8,0,112.2c0,3.9,0,7.9,0,12.5c-5.4,0-9.4,0-13.4,0c-33.3,0-66.6-0.1-100,0c-17.3,0.1-28.6,10.4-28.7,27
      c-0.3,50-0.2,100,0,150c0.1,16.2,11.1,26.8,27.4,27.3c6.9,0.2,13.8,0,21.4,0c0,10.2-0.5,19.1,0.2,27.9c0.3,3.9,2.5,9.4,5.4,10.7
      c2.8,1.3,8.5-0.9,11.3-3.3c10.6-9.3,20.1-19.7,30.8-28.8c4-3.4,10.2-6,15.4-6.1c38.9-0.5,77.8-0.2,116.6-0.3
      c18.3-0.1,28.8-10.8,29.1-29c0.2-14.1,0-28.1,0-42.2c0-27.7,0-55.4,0-84.2c9.9,0,18.1,0.5,26.2-0.1c9.1-0.7,16.1,1.7,22.5,8.7
      c8.7,9.6,18.3,18.4,28,26.9c2.6,2.3,8.2,4.6,10.4,3.4c3.1-1.7,5.6-6.6,6-10.4c0.8-9.1,0.3-18.3,0.3-28.5c6.5,0,12,0,17.4,0
      c21.3-0.1,31.4-10.1,31.4-31.2C400,126.5,400,79.1,400,31.7z M240,327.9c0,13-1.8,14.8-14.7,14.9c-38.1,0.1-76.2,0.4-114.3-0.2
      c-11.3-0.2-20.1,2.5-27,11.4c-4.3,5.6-8.8,10.9-13.2,16.4c-0.7-0.5-3.8,6.9-5.2,6.2c0-4.5,1-17.4,1.2-21.9
      c0.3-8.5-3.9-12.1-12.2-11.9c-8.1,0.2-16.3-0.1-24.4,0.1c-8.2,0.2-12.3-3.2-12.3-11.8c0.1-48.5,0.1-96.9,0-145.4
      c0-7.7,3.2-11.8,11.2-11.7c37.3,0,74.6,0,112.7,0C144,196.8,153,205,174.9,205c21.3,0,42.7,0,65.1,0c0,24.3,0,47.5,0,70.7
      C240,293.1,240.1,310.5,240,327.9z M382.3,173.4c0.1,9.9-3.6,14.5-13.7,13.9c-7-0.4-14.1,0.3-21.1-0.2
      c-10.6-0.7-15.2,3.8-14.3,14.3c0.3,3.6,0,7.2,0,12.3c-2.2-1.4-2.7-1.5-2.9-1.8c-16.4-23.2-39.4-26.9-66-25.2
      c-29.5,1.9-59.2,0.5-88.8,0.4c-14,0-15.6-1.5-15.6-15.1c0-46.3,0-92.5,0-138.8c0-13.2,1.7-15,14.5-15c64.4,0,128.8,0.1,193.1-0.2
      c10.3,0,14.7,3.4,14.6,14.2C382,79.4,382.1,126.4,382.3,173.4z"></path>
    <path class="st0" d="M319.5,67.2c-12.9,0.2-25.7,0.1-38.3,0.1c-3.3-8.1,3.2-21-9.3-21.6c-14.8-0.7-7,14-11.1,21.6
      c-12.9,0-25.8,0.1-38.7,0c-6.4-0.1-12.7,0.8-12.9,8.6c-0.2,8.6,6.5,9.4,13.3,9.3c7-0.1,14,0,20.1,0c5.5,12.7,10.5,24.4,16.7,38.6
      c-11.9,6.1-23.7,12.8-35.9,18.3c-5.8,2.6-11.9,4.6-9.6,12.1c2.5,8.1,9.2,7.7,15.5,4.6c14.4-7.1,28.6-14.6,41.6-21.4
      c14,7,28.3,14.4,42.7,21.5c6.1,3,12.3,2.5,14.6-4.7c2.4-7.5-3.4-9.6-9.3-12.3c-12.5-5.7-24.5-12.5-36.4-18.7
      c6.6-15,11.7-26.4,16.9-38.3c6.4,0,13-0.1,19.6,0c6.6,0.1,13.7-0.3,13.9-8.8C333.2,67.3,326.2,67.1,319.5,67.2z M270.8,106.5
      c-3.7-8.7-6-14.3-8.8-20.8c6.3,0,11.6,0,18.2,0C277.3,92.2,274.7,98,270.8,106.5z"></path>
    <path class="st0" d="M138.5,208.3c-6.1-11-13-10.7-19.3,0.5c-9.2,16.4-18.1,33-27.1,49.5c-7.8,14.3-17,27.9-22.9,43
      c-5.8,14.9,9.8,17.1,14.9,8.5c1.9-3.2,4.6-6.7,5.9-10.5c6.7-18.5,17.5-29.6,38.9-22c21.3-7.5,32.3,3.3,38.9,21.9
      c1.2,3.4,3.5,6.5,5.2,9.7c2.9,5.5,7,9.2,13.3,5.8c6.2-3.3,5.7-8.6,2.6-14.3C172.1,269.8,155.5,238.9,138.5,208.3z M112.7,258.1
      c5.3-9.8,10-18.7,16-29.8c5.8,10.4,10.8,19.4,16.6,29.8C133.6,258.1,124,258.1,112.7,258.1z"></path>
  </g>
</svg>
