<svg xmlns="http://www.w3.org/2000/svg" xmlns:xlink="http://www.w3.org/1999/xlink" id="Layer_1" x="0px" y="0px" viewBox="0 0 400 400" style="enable-background:new 0 0 400 400;" xml:space="preserve"><style type="text/css">	.st0{fill:#1D1A4E;}	.st1{fill:#1D1A4E;stroke:#000000;stroke-miterlimit:10;}	.st2{fill:#1D1A4E;stroke:#000000;stroke-width:2;stroke-miterlimit:10;}</style><path class="st0" d="M100.6,354c-12.9,0-19.5-6.6-19.5-19.7v-268c0-13.7,6.5-20.1,20.3-20.1c35.3,0,71.8,0,107.7-0.1 c0.2,0,0.3,0,0.4,0c3.2,0,5.6,1,8.2,3.2c32.5,28.4,65.6,57.1,97.6,84.9l0.4,0.4c2.1,1.9,3,3.8,3.1,6.5c-0.1,32.5-0.1,65.6-0.1,97.5 c0,32,0,65,0,97.6c0,10.6-7.4,17.7-18.3,17.7H100.6z M99.2,54.9c-6.5,0-9.5,3.3-9.5,10.4v269.5c0,7.3,3.1,10.4,10.3,10.4h199.5 c3.9,0,6.4-0.8,8.1-2.5c1.7-1.7,2.4-4.2,2.3-8.2V149.4c0-1.1-0.1-2-0.2-3.1l-0.2-2.6H303c-8.4,0-16.8,0-25.2,0c-8.4,0-16.8,0-25.1,0 c-8.4,0-16.8,0-25.2,0c-13-0.1-19.6-6.7-19.6-19.6V55.2l-1.8-0.2c-0.5,0-0.9-0.1-1.2-0.1c-0.5-0.1-0.8-0.1-1.2-0.1H99.2z  M216.9,64.6c0,0.7-0.1,1.3-0.1,1.8c-0.1,0.8-0.1,1.4-0.1,2c0,18.1,0,36.8,0.1,55.2c0,8.6,2.7,11.3,11.4,11.3h65.5 c0.7,0,1.3-0.1,2.2-0.2c0.4-0.1,0.8-0.1,1.3-0.2l4.4-0.6l-22.8-19.8c-19.1-16.6-38.8-33.8-58.5-50.9l-3.1-2.7L216.9,64.6z"></path><path class="st0" d="M275.8,267.7c-1.4-0.9-1.5-1.6-1-3.1c4.6-14.4,5.3-29,2.1-43.7c-8-36.9-39.1-63.8-76.9-66.6 c-19.1-1.4-37,2.9-52.7,13.9c-29.2,20.3-41.7,48.5-37,83.8c2.8,20.8,12.7,38.3,28.9,51.6c24,19.8,51.1,25,80.9,16.1 c1.1-0.3,1.7-0.2,2.4,0.8c5.5,8.5,13.3,13.5,23.4,14.8c18.4,2.4,35.6-12.4,35.9-31c0-2.8-1-3.9-3.8-3.9c-7.8,0-15.6,0-23.4,0 c-0.6,0-1.3,0-2.1,0c0-0.9,0-1.6,0-2.2c0-7.9,0-15.7,0-23.6c0-2.4-1.1-3.4-3.5-3.4c-0.8,0-1.6,0-2.7,0c6.5-10.9,9.6-22.5,9.1-35 c5.9,0,11.7,0,17.4,0c0.8,6.8-1.3,21.3-4,27.6c-3.2-0.5-6.3-1.1-9.4-1.3c-3-0.3-4,0.9-4,3.8c0,9.1,0,18.3,0,27.4 c0,2.9,1,3.8,3.8,3.8c9.1,0,18.3,0,27.4,0c2.9,0,4-1,3.8-3.8C290,282.6,285.1,273.9,275.8,267.7z M128.1,195.5 c4.2,4.2,8.4,8.4,12.5,12.5c-14.3,29.2-9.9,55.3,13.4,78.2c-3.9,3.9-8,8-12.1,12.1C113.7,274.6,105.1,229.5,128.1,195.5z  M185.1,317.5c-14.1-1.6-26.9-6.7-38.5-15.3c4.1-4,8-7.9,11.9-11.9c0.9-0.9,1.4-0.2,2,0.2c6.9,4.4,14.3,7.4,22.4,8.9 c11.5,2.1,22.7,1,33.5-3.2c0.5-0.2,1-0.4,1.9-0.7c-1.4,6.3-1.2,12.3,0.8,18.3C208,317.6,196.6,318.9,185.1,317.5z M249.9,307.3 c0.4-0.4,1.1-0.9,1.6-0.9c8-0.1,15.9,0,23.9,0c0.7,6.6-5.8,16.3-13.7,20.4c-9.1,4.8-21,3.6-28.5-2.9c3.3-3.3,6.5-6.5,9.6-9.6 C245.2,311.9,247.5,309.6,249.9,307.3z M246.5,277.2c0.1,0.7,0.1,1.1,0.1,1.6c0,7.4,0,14.7,0,22.1c0,0.7-0.3,1.6-0.8,2.1 c-5.3,5.4-10.7,10.8-16.1,16.2c-0.2,0.2-0.4,0.3-0.8,0.6c-6.1-8.5-7.5-17.4-3.4-26.9C229.4,283.8,236.6,278.8,246.5,277.2z  M238.4,272.3c-0.5,0.7-1.4,1.4-2.2,1.8c-5.6,2.7-10.2,6.6-13.6,11.8c-0.5,0.7-1.2,1.4-2,1.8c-33.7,18.5-75.7-2-81.8-39.9 c-4.9-30.4,16-59.4,46.4-64.1c2.9-0.4,5.8-0.6,7.3-0.7c29.4,0,53,20.8,56.6,48.7C251,246.7,247.3,260.3,238.4,272.3z M263.6,230.2 c-2.9,0-5.8,0-8.6,0c-5.6-26.8-20.9-44.6-47.7-51.2c-22.3-5.5-47.8,3-62.9,23.5c-4.1-4.1-8.2-8.3-12.3-12.4 c16-21.5,47.7-36.1,80.8-27.9c35.7,8.9,56.7,39.2,59.4,68C269.4,230.2,266.5,230.2,263.6,230.2z M261.4,291.5c0-7.6,0-15.2,0-22.9 c10.1,0.4,21.9,9.9,23,22.9C276.7,291.5,269.1,291.5,261.4,291.5z"></path><path class="st0" d="M164,209.7c-3.4,0-6.7,0-10.1,0c-3,0-3.9,0.9-3.9,3.9c0,8.9,0,17.8,0,26.7c0,9.1,0,18.2,0,27.3 c0,2.5,1,3.6,3.6,3.6c3.5,0,7,0,10.4,0c2.5,0,3.6-1.1,3.6-3.6c0-18.1,0-36.2,0-54.3C167.6,210.8,166.5,209.7,164,209.7z  M161.6,265.3c-1.9,0-3.7,0-5.6,0c0-16.6,0-33,0-49.6c1.9,0,3.7,0,5.6,0C161.6,232.1,161.6,248.6,161.6,265.3z"></path><path class="st0" d="M211,221.4c-3.5,0-7.1,0-10.6,0c-2.4,0-3.5,1.1-3.5,3.5c0,14.3,0,28.5,0,42.8c0,2.4,1.1,3.5,3.5,3.5 c3.4,0,6.8,0,10.2,0c2.9,0,3.8-1,3.8-3.8c0-7,0-14,0-21c0-7.1,0-14.3,0-21.4C214.4,222.5,213.3,221.4,211,221.4z M208.5,265.2 c-1.8,0-3.7,0-5.6,0c0-12.5,0-25.1,0-37.8c1.9,0,3.7,0,5.6,0C208.5,240,208.5,252.5,208.5,265.2z"></path><path class="st0" d="M234.3,230.2c-3.5,0-7,0-10.4,0c-2.5,0-3.6,1-3.6,3.6c0,11.3,0,22.6,0,33.8c0,2.5,1,3.6,3.6,3.6 c3.4,0,6.8,0,10.2,0c2.7,0,3.7-1,3.8-3.7c0-5.6,0-11.1,0-16.7c0-5.7,0-11.3,0-17C237.8,231.3,236.8,230.2,234.3,230.2z M231.9,265.2 c-1.8,0-3.6,0-5.6,0c0-9.7,0-19.3,0-29c1.9,0,3.7,0,5.6,0C231.9,245.8,231.9,255.4,231.9,265.2z"></path><path class="st0" d="M187.3,236.1c-3.4,0-6.7,0-10.1,0c-2.8,0-3.8,1-3.8,3.7c0,4.6,0,9.1,0,13.7c0,4.7,0,9.4,0,14.1 c0,2.5,1,3.6,3.5,3.6c3.5,0,7,0,10.4,0c2.5,0,3.6-1,3.6-3.5c0-9.3,0-18.7,0-28C191,237.1,190,236.1,187.3,236.1z M185,265.2 c-1.8,0-3.7,0-5.6,0c0-7.8,0-15.5,0-23.2c1.9,0,3.7,0,5.6,0C185,249.7,185,257.4,185,265.2z"></path></svg>