<svg xmlns="http://www.w3.org/2000/svg" xmlns:xlink="http://www.w3.org/1999/xlink" id="Layer_1" x="0px" y="0px" viewBox="0 0 400 400" style="enable-background:new 0 0 400 400;" xml:space="preserve"><style type="text/css">	.st0{fill:#041C51;}	.st1{fill-rule:evenodd;clip-rule:evenodd;fill:#041C51;}	.st2{fill:#FFFFFF;}</style><g>	<path class="st0" d="M400,290.7c-1,2.5-1.8,5.1-3.1,7.5c-5,8.7-12.7,12.7-22.6,12.7c-37.9,0-75.8,0-113.7,0c-1.5,0-3.1,0-5,0   c1.9,10.8,3.6,21.2,5.5,31.5c0.1,0.8,1.8,1.7,2.8,1.8c3.4,0.3,6.8,0,10.1,0.4c9,0.9,15.8,8.6,15.6,17.5c-0.1,9-7,16.4-16,17.2   c-1,0.1-2.1,0.1-3.1,0.1c-47,0-94,0-141,0c-10.4,0-17.3-5.6-18.9-15c-1.6-9.3,5.1-18.6,14.5-19.8c3.6-0.5,7.3-0.1,10.9-0.5   c1.1-0.1,2.7-1.2,2.9-2.1c1.9-10.2,3.6-20.4,5.5-31.2c-5.5,0-10.7,0-15.8,0c-6.4,0-12.8,0-19.1,0c-4.9,0-7.7-2.2-7.7-5.8   c0-3.6,2.8-5.9,7.6-5.9c42.4,0,84.9,0,127.3,0c44.9,0,89.8,0,134.8,0c13.4,0,18.2-5.4,16.6-19.3c-125.3,0-250.5,0-376.8,0   c0.7,4.3,0.7,8.5,2.1,12.2c2.1,5.2,6.9,7.1,12.4,7.1c17.2,0,34.4,0,51.6,0c1.3,0,2.6,0,3.9,0.1c3,0.4,4.7,2.1,5,5.1   c0.3,3.1-1.2,5.3-4.2,6.1c-1.2,0.3-2.6,0.3-3.9,0.3c-17.3,0-34.6,0-51.9,0C10.3,310.8,0,300.5,0,284.7c0-79.3,0-158.6,0-237.9   c0-15.7,10.1-25.9,25.9-25.9c81.5,0,163,0,244.5,0c1.2,0,2.4,0,3.5,0.2c3,0.5,4.7,2.5,4.8,5.3c0.1,3-1.5,5.3-4.6,5.9   c-1.8,0.3-3.6,0.3-5.4,0.3c-80.7,0-161.4,0-242.2,0c-7.8,0-12.7,3.2-14.3,9.5c-0.4,1.4-0.4,2.8-0.4,4.2c0,72.8,0,145.6,0,218.3   c0,0.9,0.1,1.8,0.2,3c125.4,0,250.7,0,376.4,0c0-1.5,0-2.9,0-4.3c0-71.9,0-143.7,0-215.6c0-10.5-4.6-15.1-15.3-15.1   c-23.2,0-46.3,0-69.5,0c-6.4,0-9.1-1.9-9-6.1c0.1-4.1,2.6-5.7,8.9-5.7c22,0,44,0.5,66-0.2c15.3-0.4,25.9,4.9,30.6,20   C400,124,400,207.4,400,290.7z M150.6,344.2c2.1,0,3.5,0,4.9,0c15.9,0,31.8,0,47.7,0c1.6,0,3.2,0,4.6,0.4c2.9,0.8,4.2,2.9,4.1,5.9   c-0.2,2.8-1.7,4.7-4.4,5.2c-1.5,0.3-3.1,0.2-4.7,0.2c-23.7,0-47.4,0-71.1,0c-1.4,0-2.9,0-4.3,0.2c-3.3,0.4-5.2,2.5-5.2,5.8   c0,3.2,2,5.3,5.3,5.7c1,0.1,2.1,0.1,3.1,0.1c46.2,0,92.4,0,138.7,0c1.3,0,2.6,0,3.9-0.2c3-0.6,4.6-2.6,4.6-5.5   c0.1-2.9-1.4-5-4.4-5.7c-1.5-0.3-3.1-0.3-4.7-0.3c-11.5,0-22.9,0-34.4,0c-4.1,0-6.6-2.2-6.7-5.5c-0.2-3.5,2.4-5.9,6.6-6.1   c1.7-0.1,3.4,0,5.1,0c3.2,0,6.4,0,10.1,0c-2-11.4-3.9-22.2-5.7-33.1c-29.3,0-58.3,0-87.4,0C154.4,322,152.5,332.8,150.6,344.2z"></path>	<path class="st0" d="M284.1,226.4c0.9-1.7,1.6-2.9,2.2-4.1c8.1-16,16.3-31.9,24.4-47.9c1.4-2.7,2.8-5.2,6.1-5.3   c3.6-0.1,5.1,2.5,6.5,5.3c4.8,9.5,9.7,19,14.4,28.5c1,2,2.2,2.8,4.5,2.7c5.2-0.2,10.4-0.1,15.6,0c4.6,0,7.2,2.1,7.3,5.8   c0.1,3.7-2.5,5.9-7.1,5.9c-7,0-14.1-0.1-21.1,0c-3.6,0.1-5.8-1.5-7.4-4.6c-4-8.1-8.2-16.2-12.6-24.8c-3.8,7.4-7.2,14.2-10.7,20.9   c-5.4,10.5-10.8,21.1-16.1,31.6c-1.3,2.6-2.8,4.8-6,4.9c-3.4,0.1-4.9-2.3-6.3-5c-6.7-13.2-13.4-26.4-20.1-39.6   c-0.6-1.2-1.3-2.4-2.3-4.2c-2.8,5.6-5.5,10.6-8,15.7c-1.7,3.6-4.2,5.3-8.3,5.1c-6.9-0.2-13.8,0-20.7-0.1c-4.3,0-6.8-2.2-6.9-5.8   c0-3.6,2.5-5.9,6.7-5.9c5.5-0.1,10.9,0.2,16.4-0.1c1.4-0.1,3.4-1.2,4.1-2.5c3.7-6.8,7.2-13.8,10.7-20.8c1.3-2.6,3.1-5.2,6.1-4.4   c2.2,0.5,4.7,2.5,5.7,4.5c7,13.2,13.7,26.6,20.4,39.9C282.5,223.4,283.1,224.6,284.1,226.4z"></path>	<path class="st0" d="M365.2,107.2c0,12.1,0,24.2,0,36.3c0,6.5-1.7,8.2-8.4,8.2c-8.8,0-17.7,0-26.5,0c-5.1,0-7.1-2-7.1-7.1   c0-24.8,0-49.7,0-74.5c0-5.3,2-7.3,7.4-7.3c9.1-0.1,18.2-0.1,27.3,0c5.3,0,7.3,2,7.4,7.3C365.2,82.5,365.2,94.8,365.2,107.2z    M335.1,74.5c0,22.1,0,43.7,0,65.2c6.2,0,12.1,0,18.3,0c0-5.7,0-11.2,0-16.6c0-15,0-29.9,0-44.9c0-1.5,0.7-3.7-2.1-3.7   C346.1,74.5,340.7,74.5,335.1,74.5z"></path>	<path class="st0" d="M211.7,114.9c0-9.6,0-19.2,0-28.9c0-5.9,1.9-7.8,7.6-7.8c9,0,17.9,0,26.9,0c5.5,0,7.6,2.1,7.6,7.5   c0,19.5,0,39,0,58.5c0,5.3-2.1,7.3-7.3,7.4c-9.2,0-18.5,0-27.7,0c-5,0-7.1-2.1-7.1-7.1C211.6,134.7,211.7,124.8,211.7,114.9z    M241.7,139.8c0-16.8,0-33.2,0-49.6c-6.3,0-12.2,0-18,0c0,16.7,0,33.1,0,49.6C229.8,139.8,235.7,139.8,241.7,139.8z"></path>	<path class="st0" d="M309.6,123.5c0,7,0.1,14.1,0,21.1c0,5.1-2.1,7-7.2,7.1c-9.2,0-18.5,0-27.7,0c-5,0-7.1-2-7.1-7.1   c-0.1-14.1-0.1-28.1,0-42.2c0-5.4,2-7.2,7.4-7.3c9.1-0.1,18.2-0.1,27.3,0c5.4,0,7.3,1.9,7.3,7.3   C309.7,109.4,309.6,116.5,309.6,123.5z M297.7,139.8c0-11.1,0-21.8,0-32.8c-6.1,0-12,0-18.1,0c0,11,0,21.9,0,32.8   C285.7,139.8,291.5,139.8,297.7,139.8z"></path>	<path class="st0" d="M106.9,140.8c-21.5,0-42.9,0-64.4-0.1c-2,0-4.4-0.4-5.7-1.6c-1.2-1.2-2.1-3.9-1.6-5.5c0.5-1.8,2.6-3.3,4.4-4.3   c1.1-0.6,2.8-0.3,4.2-0.3c42.2,0,84.3,0,126.5,0c1.2,0,2.4-0.1,3.5,0.1c3.4,0.4,5.5,2.9,5.3,6.1c-0.1,3.2-2.3,5.5-5.8,5.5   c-9.6,0.1-19.3,0-28.9,0C131.9,140.8,119.4,140.8,106.9,140.8z"></path>	<path class="st0" d="M107,202.6c-21.1,0-42.1,0-63.2,0c-1.3,0-2.6,0.1-3.9-0.1c-3.2-0.4-4.9-2.3-5.1-5.4c-0.2-2.9,1.3-5,4.2-5.8   c1.5-0.4,3.1-0.4,4.6-0.4c42.1,0,84.3,0,126.4,0c0.7,0,1.3,0,2,0c4.6,0.2,7.1,2.3,7.1,6c-0.1,3.7-2.5,5.7-7.3,5.7   C150.2,202.6,128.6,202.6,107,202.6z"></path>	<path class="st0" d="M106.6,74.5c-20.9,0-41.9,0-62.8,0c-1.4,0-3.2,0.4-4.2-0.3c-1.8-1.3-4-3,4.6-5c-0.9-2.7,0.9-5.1,3.7-6   c1.4-0.5,3.1-0.5,4.6-0.5c42.4,0,84.8,0,127.2,0c1.4,0,2.9,0,4.3,0.3c3,0.8,4.5,2.9,4.3,6.1c-0.2,3-2,4.7-4.9,5.1   c-1.4,0.2-2.9,0.1-4.3,0.1C148.8,74.5,127.7,74.5,106.6,74.5z"></path>	<path class="st0" d="M81.4,105.6c-13,0-26,0-39,0c-5,0-7.6-2-7.7-5.7c0-3.7,2.8-6,7.6-6c26.4,0,52.8,0,79.2,0   c5.6,0,8.8,4.1,6.6,8.5c-1.4,2.7-3.7,3.3-6.5,3.3C108.2,105.6,94.8,105.6,81.4,105.6z"></path>	<path class="st0" d="M132.1,172c-13.3,0-26.5,0-39.8,0c-5.4,0-8.7-4.3-6.2-8.3c1-1.7,3.7-3.3,5.6-3.3c27-0.2,54.1-0.2,81.2-0.1   c3.9,0,6.4,2.4,6.3,5.9c0,3.4-2.5,5.7-6.5,5.8C159.1,172,145.6,172,132.1,172z"></path>	<path class="st0" d="M71.6,233.7c-9.9,0-19.8,0-29.6,0c-4.5,0-7.2-2.2-7.3-5.8c0-3.6,2.7-5.9,7.2-5.9c19.9,0,39.8,0,59.7,0   c4.6,0,7.2,2.1,7.2,5.8c0,3.7-2.5,5.9-7.1,5.9C91.7,233.7,81.6,233.7,71.6,233.7z"></path>	<path class="st0" d="M52.2,172c-3.8,0-7.5,0.1-11.3,0c-3.7-0.1-6.1-2.4-6.2-5.7c-0.1-3.4,2.4-5.9,6.3-6c7.7-0.1,15.3-0.1,23,0   c3.6,0,6.1,2.5,6.2,5.7c0.1,3.3-2.5,5.9-6.3,6C60,172,56.1,172,52.2,172z"></path>	<path class="st0" d="M161.4,105.6c-3.8,0-7.5,0.1-11.3,0c-3.6-0.1-6.1-2.5-6.2-5.7c-0.1-3.2,2.4-5.9,6-5.9c7.8-0.2,15.6-0.2,23.4,0   c3.7,0.1,5.9,2.6,5.9,5.9c0,3.4-2.3,5.6-6.1,5.7C169.1,105.7,165.2,105.6,161.4,105.6z"></path></g></svg>