<svg xmlns="http://www.w3.org/2000/svg" xmlns:xlink="http://www.w3.org/1999/xlink" id="Layer_1" x="0px" y="0px" viewBox="0 0 400 400" style="enable-background:new 0 0 400 400;" xml:space="preserve">
  <style type="text/css">
    .st0{fill:#041C51;}
    .st1{fill-rule:evenodd;clip-rule:evenodd;fill:#041C51;}
    .st2{fill:#FFFFFF;}
  </style>
  <g>
    <path class="st0" d="M348.1,323.5c-10.6-12.6-21.8-24.9-32.9-37.3c-12.8-14-32.9-15-47.2-2.7c-3.9,3.4-8,7-11.9,10.4
      c-8.5,7.3-18.4,7.5-27.3,0.7c-34.8-26.9-63.6-59.3-86.1-97.3c-5.8-9.7-4.1-19.6,4.1-27.1c4.4-3.9,8.7-7.5,12.8-11.4
      c12.8-12.1,14.3-31.7,2.9-45.2c-11.1-13.3-22.7-26.4-34.6-39.2c-11.1-12.1-29.5-14.3-42.8-4.4c-16.9,12.6-30.2,28.3-36.5,48.9
      c-1.7,5.3-2.7,10.9-4.1,16.2c-0.2,5.6-0.7,10.9-1,16.5c0.2,3.6,0.7,7,1,10.4c2.4,22.5,9.4,43.5,19.6,63.4
      c28.5,55.9,68.5,101.9,119.3,138.4c18.9,13.5,39.2,24.4,61.7,30.7c6,1.7,11.9,2.7,17.9,4.1c5.3,0.2,10.6,0.7,15.5,1.2
      c4.4-0.5,8.7-0.7,13.1-1.5c21.3-3.1,38.7-13.8,54-28.3C359,357.4,360.4,337.8,348.1,323.5z M337.2,361
      c-12.3,11.6-26.1,20.8-43.1,24c-7.3,1.5-15,1.7-22.5,2.4c-20.1-2.2-38.2-9-55.6-18.9c-31.2-16.7-57.6-39.4-81.5-65.3
      c-23.5-25.2-43.5-53-58.8-84c-9-18.1-16-37.3-18.1-57.6c-3.4-30,5.3-55.6,28.5-76c4.6-3.9,8.7-8.2,15.2-9c7-0.7,13.1,1,17.7,6
      c11.6,12.8,23.2,25.6,34.4,39c7.3,8.5,6,20.6-2.2,28.1c-3.9,3.6-8,7-12.1,10.6c-13.3,11.9-15.7,28.3-6.8,43.5
      c23.5,39.2,53,72.6,89,100.6c13.8,10.6,30.7,10.2,43.8-1.5c3.9-3.4,7.7-6.8,11.6-10.2c9.4-8,21.8-7.3,30,1.9
      c10.9,12.1,21.5,24.2,32.2,36.3C346.9,340.5,346.1,352.8,337.2,361z"></path>
    <path class="st0" d="M140.7,17.1c1.3,0.2,2.6,0.2,3.9,0.3c20.6,1,38.3,8.6,53.1,22.9c16.2,15.6,24.5,34.8,25.3,57.3
      c0.1,1.9,0.2,3.9,0.8,5.7c1.3,3.8,5.5,6,9.4,5.2c4.4-0.9,7-4.3,7-9.1c0.5-43.4-29.8-83.7-71.7-95.3c-6.6-1.8-13.5-2.7-20.2-4
      c-3,0-6,0-9.1,0c-0.5,0.3-0.9,0.5-1.4,0.8c-3.6,1.9-5.5,5.4-5,9C133.4,13.8,136.3,16.5,140.7,17.1z"></path>
    <path class="st0" d="M140.7,51.8c21.4,0.7,39.7,14.3,45.8,34.6c1.5,4.9,1.8,10.1,2.4,15.2c0.5,4.9,3.8,8.4,8.5,8.4
      c4.7,0,8.3-3.4,8.6-8.3c0.1-1.2,0-2.4,0-4.3c-0.2-1.9-0.5-4.6-0.9-7.3c-4.5-30.9-33.2-55.6-64.5-55.4c-2.1,0-4.5,0.9-6.2,2
      c-3,2-3.8,5.9-2.6,9.3C133.2,49.8,136.1,51.7,140.7,51.8z"></path>
  </g>
</svg>
