<svg xmlns="http://www.w3.org/2000/svg" xmlns:xlink="http://www.w3.org/1999/xlink" id="Layer_1" x="0px" y="0px" viewBox="0 0 400 400" style="enable-background:new 0 0 400 400;" xml:space="preserve">
  <style type="text/css">
    .st0{fill:#041C51;}
    .st1{fill-rule:evenodd;clip-rule:evenodd;fill:#041C51;}
    .st2{fill:#FFFFFF;}
  </style>
  <g>
    <path class="st0" d="M379.6,40.6c-119.8,0.1-239.5,0-359.3,0C7.5,40.7,0,48.3,0,61.1c0,78,0,155.9,0,233.9c0,1.9,0.1,3.9,0.5,5.8
      c2,9.2,9.4,14.6,19.9,14.7c38.9,0,77.8,0,116.8,0c1.5,0,3,0,4.9,0c-2.8,9.8-5.5,19-7.9,28.3c-0.8,3.2-2.3,4-5.4,3.9
      c-7.4-0.2-14.8-0.1-22.3,0c-3.7,0.1-6.2,2.4-6.2,5.7c-0.1,3.2,2.4,5.6,6,6c1,0.1,2.1,0,3.1,0c12.9,0,25.8,0,38.7,0
      c47.6,0,95.3,0,142.9,0c5.9,0,8.8-2,8.8-6c0-3.9-2.9-5.8-8.9-5.8c-6.9,0-13.8-0.1-20.7,0.1c-2.4,0.1-3.4-0.7-4-3.1
      c-1.5-5.9-3.3-11.7-5-17.6c-1-3.7-2-7.4-3.1-11.5c2.1,0,3.6,0,5.2,0c38.7,0,77.3,0,116,0c7.1,0,13.1-2,17.3-7.9
      c1.5-2.1,2.3-4.6,3.5-6.9c0-81.8,0-163.5,0-245.3C396.6,45.9,390.2,40.6,379.6,40.6z M145.2,347.5c2.9-10.2,5.7-20.2,8.8-30.1
      c0.3-0.9,2.5-1.8,3.9-1.8c26.3-0.1,52.6-0.1,78.8-0.1c9,0,9,0,11.5,8.5c2.2,7.7,4.4,15.5,6.6,23.4
      C218.1,347.5,181.9,347.5,145.2,347.5z M388.3,293.3c0,8.7-1.8,10.5-10.6,10.5c-59.2,0-118.5,0-177.7,0s-118.5,0-177.7,0
      c-8.8,0-10.6-1.8-10.6-10.5c0-76.8,0-153.6,0-230.4c0-8.7,1.8-10.5,10.6-10.5c118.5,0,236.9,0,355.4,0c8.8,0,10.6,1.8,10.6,10.5
      C388.3,139.7,388.3,216.5,388.3,293.3z"></path>
    <path class="st0" d="M365.6,65.7c-55.1,0-110.1,0-165.2,0c-55.3,0-110.7,0-166,0c-7.8,0-9.4,1.6-9.4,9.4c0,68.7,0,137.5,0,206.2
      c0,7.5,1.7,9.2,9.2,9.2c110.5,0,221.1,0,331.6,0c7.5,0,9.2-1.7,9.2-9.2c0-68.7,0-137.5,0-206.2C375,67.3,373.4,65.7,365.6,65.7z
      M36.9,77.8c108.7,0,217.3,0,326.1,0c0,12.5,0,24.9,0,37.7c-108.6,0-217.2,0-326.1,0C36.9,102.8,36.9,90.4,36.9,77.8z M363,278.4
      c-108.6,0-217.2,0-326.1,0c0-50.4,0-100.3,0-150.6c108.7,0,217.3,0,326.1,0C363,178,363,228.1,363,278.4z"></path>
    <path class="st0" d="M99.3,192.1c3.6,3.6,7.3,7,11.3,10.9c-13.4,13.4-26.3,26.1-39,38.9c-3.3,3.3-3.5,6.6-0.8,9.2
      c2.5,2.4,5.9,2.2,9-0.9c14.1-14,28.2-28.1,42.2-42.2c3.4-3.4,3.3-6.4-0.1-9.9c-14-14.1-28.1-28.2-42.2-42.2c-3-3-6.5-3.2-9-0.7
      c-2.5,2.6-2.4,5.8,0.8,9C80.7,173.6,90,182.8,99.3,192.1z"></path>
    <path class="st0" d="M132,252.9c0.6,0,1.3,0,1.9,0c19,0,38,0,56.9,0c1.5,0,3.1-0.1,4.6-0.5c2.7-0.7,4-2.8,4-5.5
      c-0.1-3-1.6-4.9-4.6-5.4c-1.4-0.3-2.8-0.2-4.3-0.2c-9.4,0-18.7,0-28.1,0c-10.1,0-20.3-0.1-30.4,0c-4.1,0-6.6,2.2-6.7,5.5
      C125.2,250.2,127.7,252.6,132,252.9z"></path>
    <path class="st0" d="M308.3,91.4c-1-0.8-3-0.6-4.5-0.6c-60.8,0-121.6,0-182.4,0c-1.4,0-2.9,0.1-4.2,0.4c-2.9,0.7-4.4,2.9-4.3,5.7
      c0.2,3,1.9,5.1,5.1,5.4c1.4,0.2,2.9,0.1,4.3,0.1c29.9,0,59.9,0,89.8,0c30.3,0,60.7,0,91,0c1.4,0,2.9,0,4.3-0.2c3-0.4,5-2.6,4.7-5.3
      C311.8,95,309.9,92.9,308.3,91.4z"></path>
    <path class="st0" d="M345.4,91.2c-5.1-0.4-10.3-0.4-15.4,0c-3.1,0.3-4.5,2.9-4.2,6c0.3,2.9,2.1,4.7,5,5c2.2,0.2,4.4,0,6.6,0
      c0,0,0,0,0,0c2.3,0,4.7,0.1,7,0c3.2-0.2,5-2.2,5.3-5.2C350,94.2,348.5,91.5,345.4,91.2z"></path>
    <path class="st0" d="M56.1,90.9c-3.1-0.1-6,2.9-5.9,6c0.1,3.1,2.8,5.6,5.9,5.5c3.1,0,5.7-2.6,5.7-5.7
      C61.7,93.6,59.1,90.9,56.1,90.9z"></path>
    <path class="st0" d="M75,90.9c-3.1-0.2-6.1,2.7-6.1,5.8c0,3.1,2.6,5.7,5.7,5.7c3.2,0,5.7-2.4,5.8-5.6C80.6,93.7,78.2,91,75,90.9z"></path>
    <path class="st0" d="M93.6,90.9c-2.9-0.1-5.8,2.7-5.9,5.6c-0.1,3.2,2.6,6,5.9,5.9c3.2-0.1,5.6-2.6,5.6-5.7
      C99.3,93.5,96.7,90.9,93.6,90.9z"></path>
  </g>
</svg>
