<svg xmlns="http://www.w3.org/2000/svg" xmlns:xlink="http://www.w3.org/1999/xlink" id="Layer_1" x="0px" y="0px" viewBox="0 0 400 400" style="enable-background:new 0 0 400 400;" xml:space="preserve"><style type="text/css">	.st0{fill:#041C51;}	.st1{fill-rule:evenodd;clip-rule:evenodd;fill:#041C51;}	.st2{fill:#FFFFFF;}</style><g>	<path class="st0" d="M400,86.1c0-12.1-7.8-22.4-22.3-22.3C340.2,64.3,302.5,64,265,64c-1.6,0-3.1,0-4.4,0c-0.4-0.6-0.5-0.9-0.6-1.1   c-0.1-0.5-0.2-1-0.2-1.6c-2.1-13.5-9.7-22-22.5-26.2c-1.2-0.4-2.3-2.2-2.7-3.5c-4.2-16-18.1-26.9-34.6-26.9   c-16.4,0-30.3,10.9-34.4,27c-0.5,2.1-1.3,3.1-3.7,3.8c-10.9,3.4-17.9,10.8-20.9,21.7c-0.6,2.1-0.9,4.3-1.2,6.6c-1.8,0-3.3,0-4.9,0   c-37.9,0-75.7,0-113.6,0c-10.8,0-17,4.4-20.6,14.4c-0.1,0.5-0.5,1-0.6,1.3c0,76.1,0,152,0,228.1c5.3,12.7,9.9,15.8,24.1,15.8   c43.5,0,87.2,0,130.8,0c1.6,0,3.1,0,5.1,0c-2.7,9.4-5.1,18.3-7.8,27.3c-0.2,0.7-2,1.3-3.1,1.3c-4.4,0.1-8.8,0-13.3,0.1   c-16.5,0.4-30.1,12.5-32.4,28.7c-1.3,9.4,2.9,14.4,12.4,14.4c41.2,0,82.6-0.1,123.8-0.1c15.2,0,30.5,0,45.6-0.1   c7.1-0.1,11.5-4.5,11.3-11.1c-0.5-16.6-13.5-30.5-30.2-31.8c-5.1-0.4-10.4-0.4-15.7-0.2c-2.2,0-3.3-0.7-3.8-2.8   c-1-3.9-2.2-7.7-3.3-11.6c-1.3-4.5-2.6-9.1-4-13.9c2.2,0,3.8,0,5.3,0c44.3,0,88.6-0.2,132.7,0.1c14.2,0.1,22.4-9.9,22.4-22.3   C399.8,229.8,399.8,158,400,86.1z M235.4,47.6c6.6,1.1,12.2,8.2,12.4,16.1c-6.9,0-13.7,0-20.3,0C230.1,58.2,232.8,53,235.4,47.6z    M199.9,16.5c13.2,0,23.7,10.5,23.7,23.7S212.8,64.1,199.8,64c-13.2-0.1-23.6-10.9-23.5-24.1C176.4,26.9,186.8,16.5,199.9,16.5z    M164.4,47.5c2.7,5.4,5.3,10.8,8,16.4c-6.6,0-13.3,0-20.4,0C152.5,55.5,157.3,49.4,164.4,47.5z M242.9,363.9c6.7,0,13.6-0.1,20.3,0   c11.6,0.2,21,9.1,20.9,19.7c-56.3,0-112.5,0-168.7,0c0.2-10.2,9.2-19.1,19.8-19.3c12-0.2,24-0.1,36-0.1c1.3,0,2.6,0,3.9-0.2   c3.2-0.6,5-2.8,4.9-6.1s-2.2-5.3-5.5-5.4c-3.2-0.1-6.5,0-10.2,0c0.5-2,0.7-3.4,1.2-4.9c2-7,3.9-13.9,5.9-21   c0.5-1.8,1.1-2.9,3.3-2.9c16.8,0.1,33.5,0,50.4,0.1c1,0,2.6,1,2.8,1.8c2.6,8.6,5,17.1,7.6,26.3c-1.7,0.1-3.1,0.2-4.4,0.2   c-10.9,0.1-21.9,0-32.8,0.2c-4.5,0.1-7,3.1-6.1,7c0.7,3.5,3.4,4.6,6.7,4.6C213.6,364,228.3,363.9,242.9,363.9z M388.1,301.3   c0,8.4-2.3,10.8-10.5,10.8c-118.4,0-236.9,0-355.4,0c-8.3,0-10.5-2.3-10.5-10.8c0-71.4,0-143,0-214.4c0-8.9,2.1-11.1,10.9-11.1   c59.2,0,118.4,0,177.7,0c58.8,0,117.7,0,176.5,0c9.4,0,11.4,2,11.4,11.5C388.1,158.7,388.1,230,388.1,301.3z"></path>	<path class="st0" d="M354.9,89.5c-76.7,0.2-153.4,0.1-230,0.1c-1.2,0-2.3,0-3.5,0.1c-3.4,0.4-5.6,2.7-5.6,5.9   c0,3.2,2.2,5.4,5.7,5.7c1.3,0.1,2.6,0.1,3.9,0.1c21.2,0,42.4,0,63.6,0c1.5,0,3.1,0,4.8,0c0,29.5,0,58.6,0,88c-15.3,0-30.3,0-45.4,0   c-0.1-14.4-8.6-21.9-21-25.9c7.5-14.4,5.9-28.4-3.8-36.2c-7.6-6.2-19.8-6.1-27.5,0.1c-9.5,7.8-11,21.9-3.7,36.1   c-11.5,5-21.5,11.1-20.6,26.1c-11.6,0-22.9,0-34.3,0c-0.1-1.3-0.1-2.6-0.1-3.7c0-25.9,0-51.9,0-77.7c0-5.4,1.2-6.6,6.7-6.6   c15.8,0,31.6,0,47.2,0c2.4,0,4.9,0,7.5-0.1c3.4-0.2,5.1-2.3,5.1-5.7c0-3.4-1.7-5.4-5.1-5.7c-1-0.1-2.1-0.1-3.1-0.1   c-17.1,0-34.4,0-51.5,0c-12.1,0-18.5,6.4-18.5,18.6c0,57,0,114,0,171c0,12.5,6.1,18.7,18.6,18.7c103.7,0,207.5,0,311.2,0   c12.5,0,18.6-6.2,18.6-18.8c0-56.8-0.1-113.5,0.1-170.3C374.4,97.2,367.3,89.5,354.9,89.5z M106.2,134.9c6.6-2.4,15.2,1.7,14.4,12   c0,9.1-6.2,14.4-13.8,11.9c-4.6-1.6-7.2-5.5-7.3-11.1C99.1,140.9,101.3,136.6,106.2,134.9z M90,177.4c13.2-7.6,26.4-7.8,39.6-0.2   c4.6,2.7,7.2,6.5,6.9,12.4c-17.7,0-35.1,0-52.8,0C83.4,183.9,85.5,179.9,90,177.4z M83.5,286.1c-0.1-5.9,2.3-9.8,7.1-12.5   c13.1-7.2,25.9-7.2,39,0.1c4.8,2.7,7,6.7,7,12.4C118.9,286.1,101.4,286.1,83.5,286.1z M99.8,238.7c1.7-5.7,7.5-8.9,13.2-7.2   c5,1.5,7.5,5.5,7.5,12.2c0,8.9-6,14.2-13.5,12C100.6,253.9,97.5,246.6,99.8,238.7z M193.9,286.2c-15.3,0-30.1,0-45.3,0   c-0.2-6.4-1.3-12.6-6.1-16.9c-4.3-3.9-9.5-6.9-14.6-10.2c6.9-13.7,5.4-27.5-4.3-35.4c-7.6-6.1-19.7-6.1-27.2-0.1   c-9.8,7.8-11.4,21.5-4,36.3c-11.3,5-21,11.3-20.6,26.3c-4,0-8.1,0-12.1,0c-5.6,0-11.1,0-16.8,0c-4,0-5.6-1.5-5.6-5.4   c0-25.9,0-51.7,0-77.7c0-0.5,0.1-1,0.2-1.7c52,0,104,0,156.2,0C193.9,229.8,193.9,257.7,193.9,286.2z M205.7,185.6   c0-26.7,0-53.3-0.1-80.1c0-3.2,0.9-4.2,4.2-4.2c48.6,0.1,97.1,0.1,145.7,0.1c5.7,0,6.9,1.2,6.9,6.9c0,25.8,0,51.6,0,77.3   c0,1.1,0,2.3,0,3.8c-35.5,0-70.6,0-105.4,0c1.8-1.7,3.9-3.3,5.5-5.1c2.4-2.7,5-5.5,6.7-8.6c3.3-5.7,7.8-7.2,14.2-6.9   c8.9,0.6,18,0.2,26.9,0.1c14.1-0.1,23.2-9.2,23.5-23.1c0.1-4.2,0.1-8.3-0.1-12.5c-0.9-11.5-9.8-20.3-21.3-20.4   c-20.2-0.2-40.4-0.2-60.6,0c-12.1,0.1-21.3,9.8-21.5,21.8c-0.1,4-0.1,8.1,0,12.1c0.2,9.5,4.8,16.4,13.5,20.2   c2.3,1.1,3.2,2.2,2.9,4.6c-0.1,2.4-0.1,4.9-0.1,7.5c0,4.5,1.2,8.4,6,10.4c-15.4,0-30.8,0-46.6,0C206,188,205.7,186.8,205.7,185.6z    M250.3,156.8c-4.9-1.2-8-4.9-8.2-10c-0.1-3.4,0-6.7,0-10.2c0-8.2,4-12.1,12.4-12.1c15.9,0,31.8,0,47.6,0c2.4,0,4.9,0,7.5,0   c8.9,0,12.7,3.8,12.7,12.8c0,2.7,0,5.5,0,8.2c-0.2,7.6-4.2,11.5-11.7,11.6c-10.8,0.1-21.7,0.4-32.4-0.1c-6.5-0.4-11.4,1.3-14.7,7.1   c-1.1,2-2.8,3.7-4.9,6.2c-0.1-1.8-0.2-2.7-0.2-3.4C258.1,158.9,258,158.8,250.3,156.8z M268,286c-0.2-5.6,2.1-9.5,6.9-12.2   c13.1-7.3,26.2-7.3,39.3,0.1c4.6,2.6,6.9,6.6,6.7,12.2C303.4,286,285.9,286,268,286z M284.2,238.8c1.6-5.9,7.3-9.1,13.1-7.3   c5.1,1.5,7.7,5.6,7.7,12.5c-0.1,8.8-6.2,14.1-13.7,11.7C284.9,253.8,282,246.6,284.2,238.8z M362.4,210.2c0,23.1,0,46.4,0,69.5   c0,5.5-1.1,6.7-6.5,6.7c-7.2,0-14.3,0-21.5,0c-0.4,0-0.7-0.1-1.6-0.2c0-14.1-8.2-21.9-21.3-26.1c5.1-7.6,6.2-15.7,4-24.1   c-1.3-5.1-4-9.5-8.3-12.8c-8-5.9-19.9-5.3-27.2,1.1c-9.2,8.1-10.5,22-3.2,35.8c-12.2,4.2-20.8,11.6-20.8,25.9c-16.8,0-33.3,0-50,0   c0-28.3,0-56.3,0-84.5c52.1,0,104,0,156.5,0C362.4,204.6,362.4,207.5,362.4,210.2z"></path>	<path class="st0" d="M198.4,36.6c3.3,0.6,4.5,2,5.1,5.1c0.5,3.2,3.1,4.4,6.1,4.2c3.1-0.2,4.9-2.1,5.1-5.4   c0.6-7.6-6.5-15.2-14.7-15.3c-2.6,0.1-5.4,1.1-5.9,4.8C193.8,33.4,195.2,36.1,198.4,36.6z"></path></g></svg>