<svg xmlns="http://www.w3.org/2000/svg" width="44" height="44" viewBox="0 0 44 44" fill="none">
  <g>
    <path d="M37.5833 44H15.5833C13.057 44 11 41.9448 11 39.4167V11.9167C11 9.38851 13.057 7.33334 15.5833 7.33334H37.5833C40.1097 7.33334 42.1667 9.38851 42.1667 11.9167V39.4167C42.1667 41.9448 40.1097 44 37.5833 44ZM15.5833 9.16668C14.0672 9.16668 12.8333 10.4005 12.8333 11.9167V39.4167C12.8333 40.9328 14.0672 42.1667 15.5833 42.1667H37.5833C39.0995 42.1667 40.3333 40.9328 40.3333 39.4167V11.9167C40.3333 10.4005 39.0995 9.16668 37.5833 9.16668H15.5833Z" fill="#1e4ec4"></path>
    <path d="M8.25016 38.5H6.41683C3.8905 38.5 1.8335 36.4448 1.8335 33.9167V4.58333C1.8335 2.05517 3.8905 0 6.41683 0H28.4168C30.9432 0 33.0002 2.05517 33.0002 4.58333C33.0002 5.08933 32.5895 5.5 32.0835 5.5C31.5775 5.5 31.1668 5.08933 31.1668 4.58333C31.1668 3.06717 29.933 1.83333 28.4168 1.83333H6.41683C4.90066 1.83333 3.66683 3.06717 3.66683 4.58333V33.9167C3.66683 35.4328 4.90066 36.6667 6.41683 36.6667H8.25016C8.75616 36.6667 9.16683 37.0773 9.16683 37.5833C9.16683 38.0893 8.75616 38.5 8.25016 38.5Z" fill="#1e4ec4"></path>
    <path d="M33.9168 31.1666H19.2502C18.7442 31.1666 18.3335 30.756 18.3335 30.25C18.3335 29.744 18.7442 29.3333 19.2502 29.3333H33.9168C34.4228 29.3333 34.8335 29.744 34.8335 30.25C34.8335 30.756 34.4228 31.1666 33.9168 31.1666Z" fill="#1e4ec4"></path>
    <path d="M33.9168 38.5H19.2502C18.7442 38.5 18.3335 38.0893 18.3335 37.5833C18.3335 37.0773 18.7442 36.6667 19.2502 36.6667H33.9168C34.4228 36.6667 34.8335 37.0773 34.8335 37.5833C34.8335 38.0893 34.4228 38.5 33.9168 38.5Z" fill="#1e4ec4"></path>
    <path d="M33.9168 23.8333H19.2502C18.7442 23.8333 18.3335 23.4227 18.3335 22.9167C18.3335 22.4107 18.7442 22 19.2502 22H33.9168C34.4228 22 34.8335 22.4107 34.8335 22.9167C34.8335 23.4227 34.4228 23.8333 33.9168 23.8333Z" fill="#1e4ec4"></path>
    <path d="M33.9168 16.5H19.2502C18.7442 16.5 18.3335 16.0893 18.3335 15.5833C18.3335 15.0773 18.7442 14.6667 19.2502 14.6667H33.9168C34.4228 14.6667 34.8335 15.0773 34.8335 15.5833C34.8335 16.0893 34.4228 16.5 33.9168 16.5Z" fill="#1e4ec4"></path>
  </g>
  <defs>
    <rect width="44" height="44" fill="white"></rect>
  </defs>
</svg>
