<svg xmlns="http://www.w3.org/2000/svg" xmlns:xlink="http://www.w3.org/1999/xlink" id="Layer_1" x="0px" y="0px" viewBox="0 0 400 400" style="enable-background:new 0 0 400 400;" xml:space="preserve"><style type="text/css">	.st0{fill:#24224B;}</style><g>	<path class="st0" d="M349.7,288.4c-7.4-15.4-20.2-23.7-36.7-26.8c0-3.8,0-7,0-10.2c0-9.7-0.6-10.2-10.1-10.2c-30.4,0-60.8,0-91.1,0  c-2.1,0-4.1-0.2-6.2-0.3c0-9.9,0-19.1,0-29.4c2.4,2.8,4.1,4.7,6,6.9c2.8-2.2,5.3-4,7.9-6c-5.2-6.9-9.9-13.3-14.7-19.6  c-3-3.9-6.5-4-9.5,0c-4.9,6.4-9.7,12.9-14.7,19.7c2.9,2.2,5.4,4,7.9,5.9c2.2-2.3,3.9-4.2,6-6.5c0,10.2,0,19.6,0,29.4  c-2.7,0-5,0-7.3,0c-30.6,0-61.2,0.1-91.8-0.1c-5.4,0-8.7,1.4-8.4,7.6c0.2,4.2,0,8.5,0,12.6c-30.5,10.3-44.5,28.8-40.6,53.2  c3.6,22.5,22.3,39.2,44.6,39.6c22.9,0.5,42.3-15.4,46.6-37.9c4.8-25-8.3-43-40.1-55c0-2.9,0-5.9,0-9.3c32.8,0,64.9,0,97,0  c0,3.6,0,6.7,0,9.7c-28.8,8.3-43.6,27.6-40.3,52.1c3,22.6,22,39.9,44.5,40.4c23.3,0.6,43.2-15.9,47-39c4.2-24.8-9.9-43.5-40.2-53.7  c0-3.1,0-6.2,0-9.6c32.5,0,64.7,0,96.9,0c0,3.5,0,6.6,0,9.6c-29.1,9.1-43.2,27.1-40.5,51.4c2.4,22.1,20.6,39.6,42.5,41.1  c22.2,1.6,42.7-13,48.2-34.4C355.4,309,354.5,298.4,349.7,288.4z M128.1,308.1c0,19.8-16.1,35.8-36,35.8c-19.8,0-35.8-16.1-35.8-36  c0-19.8,16.2-35.9,36-35.8C112.2,272.1,128.2,288.2,128.1,308.1z M215.3,338.1c-0.1,1.2-1.7,3-2.9,3.4c-3.6,1.1-7.4,2.1-11.2,2.3  c-14.1,0.6-16.5-1.8-16.5-15.6c0-3-0.5-6.1,0.2-8.9c0.5-2.2,2.2-5.3,3.8-5.7c6.4-1.5,7.2-4.4,4.7-10.2c-1-2.3,0-6.6,1.8-8.4  c1.5-1.6,5.6-2.1,8-1.4c5.6,1.8,5.6,7.9,1.2,12c-1.6,1.5-1.8,4.5-2.6,6.8c2.4,0.6,5.2,2.4,7.1,1.7c4.7-1.7,6.3,0.8,6.5,4.2  C215.7,324.9,215.6,331.5,215.3,338.1z M225.2,282.3c13.8,13.6,14.5,35.3,1.1,49.6c-0.2-2-0.5-3.6-0.5-5.1  c-0.1-3.6,1.1-7.9-0.4-10.8c-4.6-8.4-6.9-17.7-11-26.2c-3.2-6.7-11.9-8.9-19.1-6.9c-7.6,2.1-12.4,8.4-13.3,16.3  c-0.4,3-2.4,5.8-3.5,8.7c-1.4,3.5-3.3,6.9-3.9,10.5c-0.7,4.1-0.2,8.4-0.2,14c-14-14.9-13.3-36.6,0.5-50.1  C189,268.6,211.3,268.6,225.2,282.3z M342.4,313.4c0.4,13.6-12.9,27.4-29,29.6c-0.2-2.9-0.4-5.7-0.7-8.9c-3.1,0-6.2,0-9.7,0  c-0.2,3-0.3,5.9-0.5,8.8c-15-1.1-28-14-29.6-29.4c2.9-0.2,5.8-0.4,8.9-0.6c0-3.4,0-6.4,0-9.8c-3-0.1-5.8-0.3-8.5-0.4  c-0.4-13.9,14-28.6,29.1-29.5c0.1,2.7,0.3,5.5,0.4,8.7c3.1,0,6.2,0,9.8,0c0.2-2.8,0.4-5.7,0.6-8.6c14.4,0.5,27.8,13.7,29.5,29.4  c-3.2,0.2-5.9,0.3-9,0.5c0,3.2,0,6.1,0,9.6C336.7,312.9,339.6,313.1,342.4,313.4z"></path>	<path class="st0" d="M144.9,94.9c-13.7,3.9-11.4,3.9-11.6,17.1c0,1.5,0,3,0,4.5c0,10.2,0,10.2,9.5,13.4c7.3,2.5,8.6,4.5,4.7,11.1  c-3.8,6.4-2.6,11.2,2.4,15.8c1.7,1.6,3.2,3.4,4.9,5c8,7.4,8,7.4,17.7,3c5.5-2.5,7.9-1.4,10,4.5c3.7,10.3,3.7,10.3,14.8,10.3  c1.5,0,3,0,4.5,0c13.5,0,11.9,0.8,15.7-10.8c1.8-5.3,5-6.4,9.8-4c2.6,1.3,5.4,2.5,9.7,4.5c5.4-5.5,11.2-11.1,16.6-16.9  c3.7-3.9,0.5-7.7-1.3-11.2c-2.2-4.4-3.2-9.2,2.6-10.2c11.4-2,13.1-9,11.8-18.5c-0.2-1.7-0.2-3.4,0-5.1c0.9-6.5-1.8-9.7-8.1-11.4  c-9.3-2.5-10-4.2-5.4-13.1c2.4-4.7,2.3-8.4-1.5-12.1c-2-1.9-3.8-4.1-5.6-6.1c-5.5-6.2-11.3-9.3-19.4-3.7c-4.2,2.9-7.6,0.9-9.2-4  C213.9,45.3,215.4,46,202,46c-2.4,0-4.7,0.3-7,0c-6.7-0.9-10.1,1.8-11.8,8.4c-2.4,9.1-4.2,9.8-12.6,5.3c-5.2-2.8-9.2-2.3-13.1,1.8  c-1.3,1.4-2.9,2.6-4.2,3.9c-9.4,9.2-9.4,9.3-4.5,21.2C150.4,90.8,149.3,93.6,144.9,94.9z M158,82.6c-2.4-4.5-0.7-6.9,2.2-9.9  c3-3.1,5.6-4.3,9.9-2c9.2,4.8,18.6,0.7,21.5-9.1c1.3-4.3,3.2-5.8,7.7-5.4c3.9,0.4,7.6-0.7,9.2,5.1c2.9,10.3,12.4,14.2,21.9,9.3  c4.6-2.4,7-0.5,9.9,2.4c2.8,2.8,4.2,5.2,2.1,9.4c-5,9.9-1.1,18.9,9.7,22.2c5.5,1.6,4.3,5.3,4.6,8.9c0.3,3.7-0.2,6.2-4.6,7.6  c-11,3.4-14.6,12.2-9.4,22.8c2.3,4.7-0.5,6.6-2.9,9.2c-2.4,2.6-4.6,4.3-8.8,2.2c-10.1-5.1-19-1.3-22.6,9c-1.8,5.1-1.8,5.1-9.1,5.1  c-4.5,1.3-6.5-1.4-7.9-6c-2.7-8.8-12.6-13.1-20.7-8.8c-4.4,2.3-7.1,1.8-10.5-1.7c-3.3-3.4-4.2-6-1.8-10.5c4.6-8.6,0.3-18.2-9.3-21  c-4.8-1.4-5.6-3.9-5.6-8.3c0-4.5,0.5-7.4,5.7-8.9C158.9,101.5,162.9,91.8,158,82.6z"></path>	<path class="st0" d="M266,172.8c-1,1.1-2.4,2.1-2.9,3.4c-0.6,1.8-1.2,4.4-0.4,5.8c0.8,1.4,3.7,2.8,5.2,2.4  c10.4-2.9,20.7-6.3,31.3-9.6c-1.4-3.7-2.4-6.6-3.5-9.6c-4.7,1.4-8.7,2.6-13.7,4.1c23.6-45.1,18.2-96.3-11.9-120.4  c-2.3,2.1-4.7,4.1-7,6.2c2,2.4,3.3,4,4.7,5.6C294.6,93.7,293.8,140.6,266,172.8z"></path>	<path class="st0" d="M120.4,59.3c-13.7,20.3-19.4,41.4-17.5,64.3c1.9,22.8,10.6,42.6,26.9,59.4c2.7-2.6,4.8-4.6,7.1-6.8  c-1.5-1.8-2.5-3.1-3.6-4.4c-18.6-22.9-24.6-48.8-17.8-77.6c3.4-14.4,10.6-26.9,20.4-38c1.4-1.6,2-4.6,1.6-6.7  c-0.2-1.2-3.4-2.8-5.1-2.6c-10.1,1.3-20.1,3.1-30.6,4.8c0.6,3.6,1,6.4,1.5,9.9C108.8,61,113.8,60.3,120.4,59.3z"></path>	<path class="st0" d="M297.9,303.1c0,3.5,0,6.4,0,9.1c16.3,5.2,17.5-9.1,24.7-16.7c-3.3-2.2-5.9-3.9-8.4-5.6  C308.8,295.1,308.1,304.9,297.9,303.1z"></path>	<path class="st0" d="M71.7,297.1c-0.3,8.1,5.9,15.1,14.4,15.9c3,0.3,6,0.1,9,0.1c3.8,0,7.6,1.1,6.9,5.4c-0.3,2-4.3,4.4-6.8,4.7  c-5.9,0.7-11.8,0.2-18,0.2c0,3.7,0,6.7,0,10.2c7.4,0,14.5,0.4,21.4-0.1c8-0.6,13.9-7.2,14.1-14.9c0.2-7.9-6-14.7-14.1-15.6  c-3-0.3-6-0.1-9-0.1c-3.7,0-7.4-0.6-7.4-5.1c-0.1-4.5,3.5-5.2,7.3-5.2c5.9,0,11.8,0,17.9,0c0-3.7,0-6.6,0-10.2  c-7.4,0-14-0.2-20.6,0.1C78.4,282.8,72,289.3,71.7,297.1z"></path>	<path class="st0" d="M199.9,146.2c18.5,0.1,33.5-14.9,33.5-33.4c0-18.5-15.1-33.4-33.5-33.3c-18.2,0.1-33,14.9-33.2,33.1  C166.6,131.1,181.4,146.1,199.9,146.2z M200.1,89.7c12.9,0.1,23,10.4,23,23.3c0,12.4-10.3,22.8-22.8,22.9  c-13,0.1-23.5-10.5-23.4-23.6C177.1,99.9,187.6,89.6,200.1,89.7z"></path></g></svg>