<svg xmlns="http://www.w3.org/2000/svg" xmlns:xlink="http://www.w3.org/1999/xlink" id="Layer_1" x="0px" y="0px" viewBox="0 0 400 400" style="enable-background:new 0 0 400 400;" xml:space="preserve"><style type="text/css">	.st0{fill:#24224B;}</style><path class="st0" d="M319.8,282.3c-14.6-10.9-29.6-21.4-44.8-31.4c-15-9.8-33.2-6.2-44.1,7.9c-3.6,4.6-6.8,9.5-10.1,14.1 c-27-14.1-82.3-69.3-96.7-96.6c5.2-3.8,10.2-7.1,14.8-10.8c13.1-10.7,16.7-28.3,7.6-42.5c-10.2-15.9-21.1-31.5-32.5-46.6 C104.7,64,89.7,61,75.3,67.2C55.6,75.7,44.7,91,40.7,111.7c-3.7,19.5-1.2,38.7,5.6,56.9c29.9,81.2,86.1,138.5,163.7,174.8 c16.5,7.7,35.3,11.5,53.5,13.9c30.5,4,56.2-11,66.4-35.6C336.2,306.5,332.9,292.1,319.8,282.3z M316.7,319 c-10.3,20.2-28.3,25.7-49.7,27.1c-13.6-3.2-27.8-4.7-40.6-10C148,303.8,92.6,248,60.4,169.5c-6.8-16.7-9.5-34.5-7.2-52.6 c2.2-16.8,10.1-29.7,25.9-37c10.4-4.9,19.2-3,26,6.3c9.9,13.6,19.5,27.4,28.9,41.4c7.4,11,5.2,21.2-5.6,29.3 c-3.1,2.3-6.3,4.4-9.5,6.7c-14,9.8-14.2,9.9-4.5,23.5c26.8,37.8,59.3,70.1,97.3,96.8c11.2,7.9,12.3,7.6,20-3.3 c19.3-27.4,23-28,50.9-8.5c9.2,6.4,18.5,12.7,27.6,19.3C320.2,298.7,322.4,307.9,316.7,319z"></path><path class="st0" d="M212.8,205.7c-1.6,0-2.8-0.5-3.8-1.5c-1.1-1.2-1.6-2.7-1.6-4.6V84.1c0-1.9,0.5-3.2,1.7-4.4 c1.2-1.2,2.6-1.7,4.4-1.7h45.5c5.6,0,10.9,1.7,16,5.1c5.3,3.5,9.6,8.3,12.8,14.2c3.2,5.9,4.9,12.5,4.9,19.6c0,6.9-1.6,13.5-4.9,19.5 c-3.2,6-7.5,10.8-12.8,14.3c-5.2,3.4-10.4,5.1-16,5.1h-40.7v43.7c0,2.7-0.9,4-1.6,4.7C216.1,204.9,215.1,205.7,212.8,205.7z  M218.4,145h40.7c4,0,7.8-1.6,11.4-4.7c3.1-2.7,5.6-6.2,7.5-10.4c1.9-4.2,2.8-8.6,2.8-13.1s-1-9-2.8-13.1c-1.9-4.2-4.5-7.7-7.6-10.3 c-3.6-3-7.4-4.5-11.3-4.5h-40.7V145z"></path></svg>