<svg xmlns="http://www.w3.org/2000/svg" xmlns:xlink="http://www.w3.org/1999/xlink" id="Layer_1" x="0px" y="0px" viewBox="0 0 400 400" style="enable-background:new 0 0 400 400;" xml:space="preserve"><style type="text/css">	.st0{fill:#24224B;}</style><path class="st0" d="M333.8,271.3c-14.6-10.9-29.6-21.4-44.8-31.4c-15-9.8-33.2-6.2-44.1,7.9c-3.6,4.6-6.8,9.5-10.1,14.1 c-27-14.1-82.3-69.3-96.7-96.6c5.2-3.8,10.2-7.1,14.8-10.8c13.1-10.7,16.7-28.3,7.6-42.5c-10.2-15.9-21.1-31.5-32.5-46.6 C118.7,53,103.7,50,89.3,56.2C69.6,64.7,58.7,80,54.7,100.7c-3.7,19.5-1.2,38.7,5.6,56.9c29.9,81.2,86.1,138.5,163.7,174.8 c16.5,7.7,35.3,11.5,53.5,13.9c30.5,4,56.2-11,66.4-35.6C350.2,295.5,346.9,281.1,333.8,271.3z M330.7,308 c-10.3,20.2-28.3,25.7-49.7,27.1c-13.6-3.2-27.8-4.7-40.6-10C162,292.8,106.6,237,74.4,158.5c-6.8-16.7-9.5-34.5-7.2-52.6 c2.2-16.8,10.1-29.7,25.9-37c10.4-4.9,19.2-3,26,6.3c9.9,13.6,19.5,27.4,28.9,41.4c7.4,11,5.2,21.2-5.6,29.3 c-3.1,2.3-6.3,4.4-9.5,6.7c-14,9.8-14.2,9.9-4.5,23.5c26.8,37.8,59.3,70.1,97.3,96.8c11.2,7.9,12.3,7.6,20-3.3 c19.3-27.4,23-28,50.9-8.5c9.2,6.4,18.5,12.7,27.6,19.3C334.2,287.7,336.4,296.9,330.7,308z"></path><path class="st0" d="M225.1,149.5l-18.3-11.2c25.7-14.6,63.7-22.7,105.8,13.2c0.4,0.4,0.9,0.5,1.5,0.5s1.3-0.3,1.7-0.8 c0.8-0.9,0.7-2.4-0.3-3.2c-20.7-17.6-42.5-26.6-64.8-26.6c-0.5,0-1,0-1.5,0c-15.4,0.3-30.7,4.8-45.5,13.3l-7-20.8 c-2.5,13.6-10.3,30.8-17.8,43.2C192.7,152.6,211.2,148.8,225.1,149.5z"></path><path class="st0" d="M185.4,183.4c-0.9-0.8-2.4-0.7-3.2,0.3c-0.8,0.9-0.7,2.4,0.3,3.2c20.7,17.6,42.5,26.6,64.8,26.6 c0.5,0,1,0,1.5,0c15.4-0.3,30.7-4.8,45.5-13.3l7,20.8c2.5-13.6,10.3-30.8,17.8-43.2c-13.7,4.5-32.2,8.2-46.1,7.6l18.3,11.2 C265.5,211.2,227.5,219.2,185.4,183.4z"></path></svg>