<svg xmlns="http://www.w3.org/2000/svg" xmlns:xlink="http://www.w3.org/1999/xlink" id="Layer_1" x="0px" y="0px" viewBox="0 0 400 400" style="enable-background:new 0 0 400 400;" xml:space="preserve"><style type="text/css">	.st0{fill:#24224B;}</style><g>	<path class="st0" d="M195.3,158.5c1.5,0.1,3,0,4.6,0s3.2,0.1,4.9,0c2.7-0.2,4.5-2.2,4.4-4.7c-0.1-2.4-1.9-4.3-4.4-4.4  c-3.1-0.1-6.3-0.1-9.4,0c-2.6,0.1-4.4,2-4.4,4.4C190.8,156.3,192.6,158.3,195.3,158.5z"></path>	<path class="st0" d="M199.9,75.9c2.4,0,4.6-2.1,4.6-4.5s-2.1-4.6-4.5-4.6s-4.6,2.1-4.6,4.5C195.4,73.7,197.5,75.8,199.9,75.9z"></path>	<path class="st0" d="M126.5,67.7c0-9-5.7-14.7-14.7-14.8c-14.5,0-29.1,0-43.6,0C58.6,52.9,53,58.5,53,68c0,29.8,0,59.5,0,89.3  c0,9.4,5.6,15,15,15c14.4,0,28.9,0,43.3,0c9.6,0,15.2-5.6,15.2-15.1c0-14.8,0-29.7,0-44.5C126.5,97.7,126.5,82.7,126.5,67.7z   M120.2,126c0,10.4,0,20.8,0,31.3c0,6.1-2.7,8.8-8.9,8.8c-7.6,0-15.1,0-22.7,0c-6.9,0-13.7,0-20.6,0c-5.8,0-8.7-2.9-8.7-8.7  c0-29.8,0-59.5,0-89.3c0-6,2.8-8.8,8.9-8.8H70c7.3,0,14.6,0,21.9,0c6.6,0,13.3,0,19.9,0c5.5,0,8.4,2.9,8.4,8.4  c0,10.6,0,21.3,0,31.9v13.2V126z"></path>	<path class="st0" d="M347,67.7c0-9-5.7-14.8-14.6-14.8c-14.7,0-29.5,0-44.2,0c-8.8,0-14.6,5.8-14.6,14.5c0,30.1,0,60.3,0,90.4  c0,8.7,5.8,14.5,14.6,14.5c14.6,0,29.3,0,43.9,0c9.3,0,14.9-5.7,14.9-15.1c0-14.8,0-29.7,0-44.5C347,97.8,347,82.8,347,67.7z   M340.7,126c0,10.4,0,20.8,0,31.3c0,6.1-2.7,8.8-8.9,8.8c-7.6,0-15.1,0-22.7,0c-6.9,0-13.7,0-20.6,0c-5.8,0-8.7-2.9-8.7-8.7  c0-29.8,0-59.5,0-89.3c0-6,2.8-8.8,8.9-8.8h1.8c7.3,0,14.6,0,21.9,0c6.6,0,13.3,0,19.9,0c5.5,0,8.4,2.9,8.4,8.4  c0,10.6,0,21.3,0,31.9v13.2L340.7,126z"></path>	<path class="st0" d="M178.2,172.4c14.4,0,28.9,0,43.3,0c9.6,0,15.2-5.6,15.2-15.1c0-14.8,0-29.7,0-44.5c0-14.9,0-29.9,0-44.8  c0-9.4-5.6-15-15-15.1c-14.4,0-28.9,0-43.3,0c-9.6,0-15.2,5.6-15.2,15.1c0,29.8,0,59.5,0,89.3C163.3,166.7,168.9,172.4,178.2,172.4  z M178.4,59.3h1.8c7.3,0,14.6,0,21.9,0c6.6,0,13.3,0,19.9,0c5.5,0,8.4,2.9,8.4,8.4c0,10.6,0,21.3,0,31.9v13.2V126  c0,10.4,0,20.8,0,31.3c0,6.1-2.7,8.8-8.9,8.8c-7.6,0-15.1,0-22.7,0c-6.9,0-13.7,0-20.6,0c-5.8,0-8.7-2.9-8.7-8.7  c0-29.8,0-59.5,0-89.3C169.6,62.1,172.4,59.3,178.4,59.3z"></path>	<path class="st0" d="M94.6,149.5c-1.5-0.1-3,0-4.6,0l0,0c-1.5,0-3.1,0-4.6,0c-0.2,0-0.4,0-0.6,0c-2.5,0.3-4.3,2.2-4.3,4.6  c0,2.4,1.7,4.4,4.3,4.5c3.2,0.2,6.5,0.2,9.7,0c2.6-0.1,4.3-2.1,4.3-4.5C98.9,151.6,97.2,149.7,94.6,149.5z"></path>	<path class="st0" d="M89.8,75.9c2.5-0.1,4.5-2.2,4.5-4.6c-0.1-2.4-2.2-4.5-4.6-4.5c-2.5,0-4.5,2.2-4.5,4.6  C85.3,73.9,87.4,75.9,89.8,75.9z"></path>	<path class="st0" d="M314.9,149.5c-1.5-0.1-3,0-4.6,0l0,0c-1.5,0-3.1-0.1-4.6,0c-2.8,0.2-4.6,2-4.6,4.5s1.8,4.5,4.5,4.6  c3.1,0.1,6.3,0.1,9.4,0c2.6-0.1,4.3-2.1,4.4-4.4C319.4,151.6,317.6,149.7,314.9,149.5z"></path>	<path class="st0" d="M310.3,75.9c2.5-0.1,4.5-2.2,4.5-4.7c-0.1-2.5-2.2-4.5-4.6-4.5c-2.5,0.1-4.5,2.2-4.5,4.6  C305.7,73.8,307.9,75.9,310.3,75.9z"></path>	<path class="st0" d="M220.6,221.8c-5.1-1.7-10.5-2.6-15.9-3.9c0-4.3,0-8.8,0-13.5c3.2,2.7,5.2,3,7.3,1.3s2.1-3.9,0.2-7.2  c-2.8-4.8-5.4-9.7-8.3-14.4c-2.1-3.4-6.1-3.5-8.1,0c-3.1,5.2-6.1,10.4-9,15.7c-1.4,2.6-0.7,5.2,1.6,6.5c2.6,1.5,4.7,0.1,6.8-1.9  c0,4.8,0,9.3,0,14c-1.1,0.2-2,0.3-2.8,0.4c-26,3.8-44.3,17.9-53,42.5c-8.7,24.7-3.4,47.3,14.7,66.3c18.3,19.2,47.3,24.7,70.9,14.3  c3.3-1.4,4.5-3.9,3.3-6.5c-1.1-2.5-3.6-3.3-6.8-2c-0.4,0.1-0.7,0.3-1.1,0.4c-22.3,8-42.5,4.4-59.3-12.3  c-16.8-16.7-20.7-37.1-12.3-59.2c10-26.2,39.2-40.4,65.9-32.7c27.7,8,44.6,35.3,39.3,63.3c-1.2,6.6-3.7,12.6-7,18.4  c-2,3.4-0.2,7.1,3.4,7.3c2.4,0.2,3.8-1.3,5-3.3C276.2,280.6,259,234.3,220.6,221.8z"></path>	<path class="st0" d="M120.8,278c-6.7,0-13.4,0-20.1,0c-4.7,0-6.3-1.7-6.3-6.4c0-17.6,0-35.2,0-52.8c0-4.7,0-9.3,0-14.6  c0.9,0.8,1.3,1.2,1.7,1.5c1.9,1.4,4,1.5,5.8-0.1c1.7-1.5,2.3-3.4,1.2-5.4c-3.1-5.6-6.2-11.2-9.5-16.7c-1.7-2.8-5.6-2.9-7.3-0.3  c-3.5,5.7-6.8,11.5-9.9,17.4c-1,1.9-0.3,4.1,1.6,5c1.4,0.7,3.4,0.5,5.1,0.3c0.7-0.1,1.3-0.9,2.2-1.7c0,1.4,0,2.4,0,3.5  c0,21.6,0,43.2,0,64.8c0,8.5,5.9,14.4,14.4,14.5c7.1,0.1,14.2,0,21.2,0c3.7,0,5.7-1.7,5.7-4.6C126.5,279.7,124.4,278,120.8,278z"></path>	<path class="st0" d="M314.3,184c-2-3.3-6-3.4-8-0.1c-3.2,5.3-6.2,10.7-9.3,16.2c-1.2,2.1-0.7,4.1,1.1,5.7c1.9,1.5,3.9,1.4,5.8,0  c0.4-0.3,0.8-0.7,1.7-1.5c0,1.2,0,1.9,0,2.6c0,21.6,0,43.2,0,64.8c0,4.7-1.7,6.4-6.4,6.4c-6.7,0-13.4,0-20.1,0  c-3.6,0-5.7,1.7-5.7,4.6s2,4.5,5.7,4.6c6.8,0,13.6,0,20.4,0c9.5,0,15.2-5.8,15.2-15.2c0-21.4,0-42.8,0-64.3c0-1,0-2,0-3.5  c0.8,0.7,1.2,1.1,1.6,1.4c1.9,1.5,3.9,1.6,5.8,0.1c2-1.6,2.4-3.7,1.1-5.9C320.4,194.6,317.4,189.2,314.3,184z"></path>	<path class="st0" d="M173.5,261.9c17.7,0,35.3,0,53,0c3.6,0,5.7-1.8,5.6-4.6c0-2.8-2.1-4.5-5.8-4.5c-8.7,0-17.4,0-26.1,0  c-8.9,0-17.8,0-26.7,0c-3.7,0-5.7,1.6-5.8,4.5C167.8,260.1,169.9,261.9,173.5,261.9z"></path>	<path class="st0" d="M226.8,271.2c-17.8,0-35.5,0-53.3,0c-3.6,0-5.7,1.8-5.6,4.7c0.1,2.9,2.1,4.5,5.8,4.5c8.8,0,17.6,0,26.4,0  c8.9,0,17.8,0,26.7,0c2.2,0,4-0.6,5-2.6C233.3,274.4,230.9,271.2,226.8,271.2z"></path>	<path class="st0" d="M226.4,289.5c-8.7,0-17.4,0-26.1,0c-9,0-18,0-26.9,0c-3.4,0-5.5,1.7-5.5,4.5c-0.1,2.9,2,4.7,5.6,4.7  c17.7,0,35.4,0,53,0c3.6,0,5.7-1.8,5.6-4.6C232.1,291.2,230,289.5,226.4,289.5z"></path>	<path class="st0" d="M226.7,307.9c-17.8,0-35.6,0-53.3,0c-3.4,0-5.4,1.7-5.5,4.5c0,2.9,2,4.6,5.6,4.7c8.8,0,17.6,0,26.4,0  c8.9,0,17.8,0,26.7,0c3.6,0,5.7-1.8,5.6-4.7C232.1,309.6,230.1,307.9,226.7,307.9z"></path></g></svg>