<svg xmlns="http://www.w3.org/2000/svg" xmlns:xlink="http://www.w3.org/1999/xlink" id="Layer_1" x="0px" y="0px" viewBox="0 0 400 400" style="enable-background:new 0 0 400 400;" xml:space="preserve"><style type="text/css">	.st0{fill:#24224B;}</style><g>	<path class="st0" d="M303.1,167.6c-20.2-32.5-49.7-52.7-87.2-60.8c-2.9-0.6-4.3-1.6-4.1-4.9c0.3-5.2,0.1-10.3,0.1-15.5  c0-4.3,0-8.7,0-13.3c2.2,0,3.7,0,5.1,0c1.5,0,3,0.1,4.4,0c4.7-0.4,6.5-4,3.7-7.7c-9.3-12.6-18.7-25.1-28.2-37.6  c-2.7-3.5-5.7-3.6-8.4-0.1c-9.4,12.4-18.7,24.8-27.8,37.3c-1,1.4-1.5,4.2-0.8,5.5c0.7,1.4,3.2,2.2,5.1,2.5c2.7,0.4,5.5,0.1,8.5,0.1  c0,10,0.1,19.5-0.1,28.9c0,1-1.6,2.3-2.7,2.9c-1.1,0.6-2.6,0.3-3.9,0.7c-9.8,2.4-19.6,4.9-29.6,7.3c0-3.1,0-6.6,0-10.7  c3.6,0,6.7,0.2,9.7,0c4.4-0.4,6.2-4,3.5-7.6c-9.4-12.7-18.9-25.3-28.4-37.9c-2.6-3.4-5.5-3.3-8.1,0c-9.5,12.5-18.9,25-28.2,37.6  c-2.9,4-1,7.6,3.9,7.9c2.9,0.2,5.8,0,9.1,0c0,9.8-0.3,19,0.1,28.3c0.2,5-1.4,8.3-4.9,11.9C59.5,177.6,46,219.8,56.5,268.2  C72,339.5,138,384.5,210,373.1C304.7,358.1,355.1,251.2,303.1,167.6z M173,63.8c6.7-9,13.1-17.5,19.8-26.5  c6.8,9,13.1,17.5,19.4,25.9c-0.5,0.4-0.7,0.8-0.9,0.8c-8.4,0.5-8.6,0.7-8.6,9.1c0,10.2,0,20.4,0,30.8c-6.6,0-12.9,0-19.9,0  c0-6.1,0-11.8,0-17.5c0-4.9,0-9.7,0-14.6c0-6.6-0.8-7.4-7.2-7.7C175.1,64.1,174.5,64,173,63.8z M98.5,92.9c6.7-9,13-17.4,19.8-26.4  c6.6,8.8,13,17.3,19.9,26.5c-2,0.1-3.1,0.3-4.1,0.2c-4.1-0.1-5.9,1.8-5.8,5.9c0.1,5.3,0.1,10.6,0,15.9c0,1.2-0.7,3-1.6,3.6  c-5.8,3.7-11.8,7.1-18.4,11c0-4.4,0-8.4,0-12.4c0-5.6,0-11.2,0-16.8c0-6.2-0.7-6.9-6.7-7.2C100.7,93.2,100,93.1,98.5,92.9z   M188.1,365.9c-69.5-0.3-126.1-57.2-126-126.6c0.5-74.4,62.4-127.8,129-126.3c67.6,1.6,123.6,56.5,123.7,126.6  C314.9,309.3,257.7,366.2,188.1,365.9z"></path>	<path class="st0" d="M290.8,130.9c-2.7,2-1.8,4.9,2.3,9.3c25.1,26.7,38.5,58.5,39.5,95.2c1.1,40.3-12.7,75.2-40.5,104.5  c-2.3,2.4-4.4,5-1.5,8c3,3,5.5,0.9,7.9-1.5c28.5-29.9,42.7-65.6,43.4-106.8c-0.6-40.7-14.4-76-42.2-105.7  C297.2,131.2,294.9,127.8,290.8,130.9z"></path>	<path class="st0" d="M264.9,99c12.7,0.1,25.4,0,38.1,0c12.8,0,25.7,0,38.5,0c3,0,5.4-0.9,5.5-4.3c0.1-3.4-2-4.7-5.1-4.7  c-25.8,0-51.6-0.1-77.5,0.1c-1.7,0-4.1,1.8-4.9,3.4C258.2,96.4,260.9,99,264.9,99z"></path>	<path class="st0" d="M343.4,107.7c-1.1-0.7-2.9-0.3-4.3-0.3c-23.9,0-47.8,0-71.7,0c-1.5,0-3.2-0.3-4.4,0.3  c-1.5,0.8-3.5,2.5-3.5,3.7c0,1.6,1.6,3.5,3,4.7c1,0.8,2.8,0.4,4.3,0.4c12.1,0,24.2,0,36.3,0c12.2,0,24.5,0,36.7,0  c1.3,0,3,0.3,3.9-0.4c1.4-1.2,3-3,3.1-4.6C346.8,110.3,344.9,108.6,343.4,107.7z"></path>	<path class="st0" d="M265.5,81.6c8.4,0,16.8,0,25.2,0c8.6,0,17.1,0,25.7,0c3.3,0,6.6-0.4,6.5-4.7c-0.1-3.8-3.2-4.5-6.4-4.5  c-17,0-33.9,0-50.9,0c-3.2,0-6.2,0.7-6.3,4.6C259.3,81,262.3,81.6,265.5,81.6z"></path>	<path class="st0" d="M307.4,234c-3.8-66.9-59.8-117.6-125.7-113.6c-66.3,4-117.6,61.6-111.8,129.4c5.3,61.7,58.2,111.3,123.2,108.8  C260.4,356,310.6,298.7,307.4,234z M297.9,244.3c-0.1,53.8-47.9,104-104.8,104.8c-0.3-3.5,0.3-7.8-4.6-7.8c-5-0.1-4.5,4.1-4.7,8.1  c-25.1-1.1-47.2-9.6-66.1-25.8c-24.3-20.6-37.1-47.1-39.2-79.1c3.5-1.1,8.6,0.3,8.2-5.5c-0.3-4.6-4.3-4-7.4-4.3  c-1.4-48.8,43.4-103.6,104.4-104.9c0.6,3.2-0.4,7.9,4.7,7.9c5,0,4.6-4.3,4.7-7.8c52.7,0,103.7,46.3,105,104.6  c-3.2,0.7-8.1-0.3-7.8,5.2C290.4,244.8,295,243.5,297.9,244.3z"></path>	<path class="st0" d="M207,251.7c-1.7-1.7-2.1-3-1.1-5.3c3.3-8.5,0.4-17.5-6.8-22.3c-1.9-1.3-4.1-2.2-6.1-3.3c0-1.8,0-3.4,0-5  c0-20.1,0-40.2,0-60.3c0-3.2-0.8-5.8-4.5-5.8c-3.6,0-4.6,2.6-4.5,5.8c0.1,3.4,0,6.8,0,10.2c0,18.5,0,36.9,0,55.4  c-1,0.5-1.8,0.8-2.6,1.2c-9.7,4.4-14.1,14.7-10.4,24.3c3.8,9.7,14.3,14.3,24.5,10.4c2.5-0.9,3.7-0.3,5.3,1.3  c8,8.1,16,16.2,24.1,24.2c3.1,3,6.4,2.8,8.1-0.3c1.5-2.9-0.3-4.7-2.1-6.6C222.9,267.5,215,259.5,207,251.7z M188.4,249  c-5.3-0.1-9.5-4.3-9.6-9.5c-0.1-5.4,4.2-9.6,9.8-9.6c5.5,0,9.5,4,9.6,9.4C198.3,244.7,193.8,249.1,188.4,249z"></path></g></svg>