<svg xmlns="http://www.w3.org/2000/svg" xmlns:xlink="http://www.w3.org/1999/xlink" id="Layer_1" x="0px" y="0px" viewBox="0 0 400 400" style="enable-background:new 0 0 400 400;" xml:space="preserve"><style type="text/css">	.st0{fill:#24224B;}</style><g>	<path class="st0" d="M198,351.2c-36.6,0-73.3,0-109.9,0c-25.2,0-38.5-13.3-38.5-38.5c-0.1-74.5-0.1-150.3,0-225.3  c0-25.2,13.3-38.5,38.5-38.5c36.9,0,73.8,0,110.6,0c37.5,0,75.1,0,112.7,0c25.4,0,38.9,13.5,38.9,39c0,26.3,0,53,0,78.9  c0,11.3,0,22.5,0,33.8c0,11.2,0,22.3,0,33.5c0,25.7,0,52.2,0,78.3c0,25.5-13.5,38.9-39,38.9C273.6,351.2,235.8,351.2,198,351.2z   M127,339.7c4.4,0,8.8,0,13.1,0c4.4,0,8.8,0,13.2,0c6.6,0,12.1,0,17.2-0.1c14.3-0.2,23.7-9.6,23.8-23.7c0.2-29.4,0.2-58.5,0-86.4  c-0.1-14.1-9.7-23.6-24-23.7c-13.8-0.1-28.1-0.1-42.5-0.1c-13.8,0-28.1,0-42.6,0.1c-14.8,0.1-24,9.4-24.1,24.3  c-0.2,29.3-0.2,58.1,0,85.5c0.1,15,8.9,23.8,24.2,24c4.8,0.1,9.9,0.1,16.1,0.1c4.5,0,9,0,13.5,0C118.9,339.7,123,339.7,127,339.7z   M130.5,194.2c7.7,0,15.4,0,23.1,0.1c4.8,0,9.7,0,14.5,0.1c23.5,0.1,37.5,14.2,37.6,37.9c0,4.5,0,8.9,0,13.4  c0.1,20.5,0.2,41.7-0.2,62.5c-0.1,6-0.9,12.1-1.8,18.5c-0.4,3.1-0.8,6.3-1.2,9.6l-0.4,3.3h3.3c10,0,20.2,0,30.4,0  c10.3,0,20.7,0,31.1,0c20,0,36.2-0.1,51.1-0.2c12.2-0.1,20.7-9.9,20.7-23.8c0.1-84.9,0.1-160.6,0-231.3c0-14.6-9.1-23.7-23.7-23.8  c-38.8-0.1-77.5-0.1-115.1-0.1c-38.7,0-77.4,0-115.1,0.1c-15,0-23.7,8.9-24,24.3c-0.2,9.9-0.1,19.9-0.1,29.5c0,4.1,0,8.3,0,12.4  l0,70.3l3.2-0.2c4.1-0.3,8.2-0.6,12.2-0.9c8.9-0.7,17.3-1.3,25.8-1.5C110.6,194.2,119.6,194.2,130.5,194.2z"></path>	<path class="st0" d="M228.7,176.1c-1.1,0-2.2-0.6-3.4-1.8c-1.4-1.4-2.1-2.7-2.1-4c0-1.8,1.4-4,4.1-6.7c12.4-11.9,24.9-24.2,37-36  l2.3-2.3c1.3-1.3,2.6-2.7,4.2-4.4c0.9-0.9,1.9-2,3.1-3.3l4.8-5.1h-6.9c-2.4,0-4.6,0-6.6,0c-1.8,0-3.5,0-5.1,0c-2.4,0-4.4,0-6.2-0.1  c-1.9-0.1-4.5-0.5-6-2c-0.9-1-1.3-2.4-1.2-4.3c0.1-2.7,1.1-5.2,7.2-5.2l0.1,0c6.3,0,12.7,0,19,0c6.1,0,12.2,0,18.3,0  c2.5,0,4.3,0.5,5.3,1.6c1.1,1.1,1.6,3,1.6,5.7c-0.1,11.1-0.1,23,0,37.5c0,7-3.7,7-5.4,7.1l-0.2,0c-1.7,0-5.7,0-5.8-7.5  c-0.1-3.5-0.1-7,0-11c0-1.9,0-3.9,0-6.1v-6.2l-4.9,3.9c-0.9,0.7-1.7,1.4-2.5,1.9c-1.5,1.1-2.6,2-3.7,3.1  c-12.3,12.3-26.6,26.6-40.5,40.7C233.4,173.9,230.9,176.1,228.7,176.1z"></path></g></svg>