<svg xmlns="http://www.w3.org/2000/svg" xmlns:xlink="http://www.w3.org/1999/xlink" id="Layer_1" x="0px" y="0px" viewBox="0 0 400 400" style="enable-background:new 0 0 400 400;" xml:space="preserve"><style type="text/css">	.st0{fill:#24224B;}</style><g>	<path class="st0" d="M338.4,210.7c0-10.4,0-20.6,0-30.7c-0.1-22-16.3-38.1-38.2-38.2c-9.1,0-18.2,0-27.2,0c-1.1,0-2.4,0-3.7,0  c0-10.8,0.1-21.1,0-31.4c0-2.7-0.3-5.6-1.1-8.2c-4.5-15.6-22.1-23.3-36.8-16.4c-3.3,1.6-6.4,3.1-10,4.8c0-5.8,0-11.2,0-16.5  c-0.1-11.8-5-20.9-16-25.8c-10.8-4.8-20.4-2.4-29.2,5.3c-32.7,28.7-65.4,57.4-98.2,86c-1.2,1.1-3.3,1.9-4.9,1.9  c-21.6,0.4-37.7,16.5-37.8,38c-0.1,45.6,0,91.3,0,136.9c0,3,0.3,6.2,1,9.2c4.1,17.4,18.8,28.6,37.1,28.6c75.6,0,151,0,226.6,0  c1,0,2,0,3-0.1c17-0.8,32.5-14,34.4-30.9c1.2-11.2,0.6-22.5,0.8-33.9c0-1.5,0-2.8,0-4.1c17.3-1.9,26.6-12.2,26.6-29.3  c0-5.4,0-10.9,0-16.3C365,222.9,355.7,212.5,338.4,210.7z M235.8,95.5c9.8-4.7,20.9,1.1,22.7,11.5c0.3,2,0.2,4.1,0.2,6.3  c0,9.1,0,18.2,0,27.2c0,0.2-0.1,0.4-0.2,0.9c-37.9,0-75.9,0-114.9,0c19.5-9.8,38.1-19.1,56.6-28.3  C212.1,107.3,223.9,101.2,235.8,95.5z M109.7,126.1c24.7-21.6,49.3-43.2,73.9-64.8c5.2-4.6,11-6.3,17.4-3.4c6.6,3,9.8,8.4,9.8,15.7  c0,6.5,0,13.1,0,19.6c0,1.9-0.4,2.9-2.2,3.8c-29.3,14.5-58.4,29-87.6,43.6c-0.9,0.4-1.9,0.9-2.8,0.9c-8.4,0.1-16.8,0-26.1,0  C98.5,136.1,104.1,131,109.7,126.1z M327.8,316.8c-0.1,15.1-11.7,26.8-26.8,26.8c-76,0.1-152.2,0.1-228.2,0  C57.7,343.6,46,332,46,316.8c-0.1-46-0.1-91.9,0-137.9c0-15.1,11.7-26.7,26.8-26.7c76,0,152.2,0,228.2,0  c14.9,0,26.6,11.5,26.7,26.5c0.1,10.2,0,20.4,0,30.6c0,0.3-0.1,0.7-0.2,1.3c-12,0-23.9,0-35.7,0c-5.8,0-11.8,0-17.6,0  c-11.8,0.1-20,5.7-23.4,16.9c-4.1,13.2-4.1,26.7-0.2,39.9c3.6,11.9,11.7,17.5,24,17.6c16.4,0.1,32.7,0,49.1,0c1.2,0,2.4,0,3.8,0  c0.1,0.9,0.2,1.7,0.2,2.5C327.8,297.4,327.9,307.1,327.8,316.8z M354.4,258.2c-0.1,9.6-6.8,16.4-16.6,16.5c-10.7,0-21.2,0-31.8,0  c-10.3,0-20.6,0-30.8,0c-8.4,0-12.8-3.3-14.7-11.4c-2.4-10.1-2.4-20.2,0-30.3c1.9-8.2,6.4-11.4,14.8-11.4c21,0,41.8,0,62.8,0  c9.8,0,16.5,6.7,16.6,16.5C354.5,244.6,354.5,251.4,354.4,258.2z"></path>	<path class="st0" d="M290.7,226.8c-11.5,0-21.2,9.4-21.3,21c-0.1,11.8,9.3,21.4,21.1,21.5c11.8,0.1,21.4-9.4,21.5-21.1  C311.9,236.4,302.3,226.8,290.7,226.8z M290.5,258.6c-5.7-0.1-10.5-4.9-10.5-10.7c0-5.8,4.8-10.5,10.5-10.5s10.7,4.7,10.7,10.5  C301.2,253.8,296.4,258.8,290.5,258.6z"></path>	<path class="st0" d="M216.3,235.6c-4.5-0.6-9.1-0.2-13.6-0.3c-0.7,0-1.3,0-2,0c0-0.8,0-1.5,0-2c0-19.2,0-38.2,0-57.4  c0-3.8-1.3-6.4-5-7.6c-30.6,0-61.2,0-91.9,0c-3.6,1.2-5,3.8-5,7.5c0.1,19.2,0,38.3,0,57.4c0,0.6,0,1.2,0,2c-4,0-8,0-11.9,0  c-2.1,0-4.3,0-6.3,0.4c-5.7,1.5-9.2,5.3-10.7,10.9c-0.1,0.3-0.2,0.7-0.3,1c0,1.3,0,2.7,0,4c0.9,4.6,3.8,7.8,7,11  c19.6,19.4,39.1,38.8,58.8,58.2c3.1,3.1,6.8,5.3,11.2,5.9c0.1,0,0.2,0.1,0.4,0.2c1.6,0,3.1,0,4.6,0c0.2-0.1,0.4-0.2,0.7-0.2  c3.8-0.7,7.2-2.4,9.9-5c1-1,2-2,2.9-2.9c5.5-5.6,11.1-11.1,16.6-16.7c1.6-1.6,2.5-3.4,2.2-5.5c-0.3-2.5-1.7-4.3-4.1-5.2  s-4.7-0.2-6.5,1.6c-6.4,6.4-12.8,12.9-19.3,19.3c-3,3-6.6,3.1-9.6,0.1c-20.4-20.2-40.8-40.5-61.3-60.7c-0.8-0.8-1.5-1.5-1-2.7  c0.4-1.2,1.5-1.3,2.7-1.3c6.4,0,12.7,0,19.1,0c4.8,0,7.2-2.4,7.2-7.2c0-19.3,0-38.6,0-57.9c0-0.6,0-1.2,0-1.8c25.8,0,51.4,0,77,0  c0,0.7,0,1.3,0,1.9c0,19.2,0,38.3,0,57.5c0,5,2.2,7.4,7.3,7.4c5.8,0,11.7,0,17.5,0c0.8,0,1.8,0.3,2.2,0.9c1,1.1,0.2,2.1-0.7,3  c-6.6,6.6-13.1,13.1-19.7,19.7c-2.5,2.6-2.6,6.3-0.1,8.7c2.4,2.5,6.2,2.6,8.6,0.2c7.1-7,14.2-14,21.1-21.2c3.8-3.9,4.6-9,2.8-14.1  C225.5,239.7,221.8,236.2,216.3,235.6z M221.6,256.3c-6.2,6.5-12.8,13-19.1,19.3l-1.9,1.9c-0.3,0.3-0.8,0.6-1.2,0.6  c-0.6,0-1.1-0.2-1.5-0.7c-0.8-0.9-0.8-2,0.1-3c6.5-6.6,13-13.1,19.6-19.7c4.3-4.3,1.5-8,0.9-8.7c-1.5-1.7-3.7-2.2-5.4-2.4  c-3.4,0-6.6,0-9.2,0c-1.3,0-8.4,0-8.4,0c-2.7,0-3.1-0.4-3.1-3.3v-63.7h-85.3v63.8c0,2.6-0.6,3-3.1,3h-9.6c-3.1,0-6.2,0-9.3,0h-0.1  c-4,0-5.7,2.1-6.5,3.9c-1.5,3.8,1.1,6.3,1.9,7.2l24.3,24.1c12.3,12.2,24.7,24.4,37,36.7c2.2,2.2,4.9,3.5,7.7,3.5  c2.8,0,5.5-1.2,7.8-3.6c3.3-3.3,6.4-6.4,9.6-9.6c3.3-3.3,6.4-6.4,9.6-9.6c0.8-0.8,1.2-0.8,1.5-0.8s0.4,0,0.8,0.1  c0.8,0.2,1.2,0.7,1.3,1.8c0,0.3,0.1,0.9-1,2.1c-3.9,3.9-7.8,7.8-11.7,11.8l-5.6,5.6c-0.8,0.8-1.5,1.5-2.2,2.1  c-2.2,2.1-4.7,3.4-7.7,3.9c-0.3,0-0.6,0.1-0.9,0.2h-2.8c-0.2-0.1-0.4-0.1-0.8-0.2c-3.3-0.4-6.1-2-9-4.8  c-17.3-17.2-37.7-37.5-58.8-58.2c-2.7-2.7-5-5.2-5.7-8.5v-2.7c0.1-0.2,0.1-0.4,0.2-0.7c1.1-4.4,3.6-6.8,7.6-8  c1.2-0.3,2.7-0.3,4.3-0.3c0.3,0,0.7,0,1,0c1.3,0,2.9,0,4.7,0c1.1,0,2.2,0,3.5,0s2.4,0,3.6,0h4.1v-6.1c0-4.9,0-10,0-14.9  c0-13.9,0-28.4,0-42.6c0-2.2,0.6-3,1.6-3.4h90.4c1,0.4,1.6,1.1,1.6,3.5c-0.1,14.1,0,28.6,0,42.5c0,4.9,0,10,0,14.9v6.2h4.1h1.3  c0.2,0,0.4,0,0.7,0c0.7,0,1.3,0,2.1,0c0.7,0,1.5,0,2.1,0s1.5,0,2.1,0c2.1,0,4.5,0,6.7,0.3c3.7,0.4,6.3,2.7,7.6,6.6  C224.9,250.1,224.2,253.5,221.6,256.3z"></path>	<path class="st0" d="M169.2,255.6c0.8-2.9,0.8-6.2,0.8-9.2c-0.1-7.6-5.5-14.6-12.9-16.1c-3.1-0.7-6.5-0.6-9.9-0.7  c-3-0.1-5.2-2.1-5.3-5.2c0-0.8,0-1.6,0-2.4c0.1-2.9,2-4.8,4.9-4.9c1.7-0.1,3.3,0,4.9,0c2.6,0,3.5,0.9,3.8,3.4  c0.3,3.4,3.3,5.8,6.6,5.6c3.1-0.2,5.7-2.9,5.7-6.2c0-3.8-1.3-7.2-3.9-10c-2.4-2.6-5.3-4.1-8.9-4.9c0-1.3,0-2.6,0-3.9  c-0.1-3.6-2.7-6.3-6.2-6.3c-3.5,0-6.2,2.7-6.2,6.2c0,1.3,0,2.8,0,4.1c-3.3,0.9-6.1,2.4-8.3,4.7c-4.3,4.4-5.3,9.8-4.9,15.6  c0.6,8.2,6.6,15,14.7,16.1c2.7,0.4,5.5,0.2,8.3,0.3c3,0.1,5,2.1,5,5.2c0,0.9,0,1.8,0,2.6c0,3.8-1.8,5.5-5.6,5.6c-2.7,0-5.5,0-8.2,0  c-2.5,0-3.3-0.8-3.6-3.3c-0.3-3.4-3.3-5.8-6.4-5.7c-3.4,0.2-5.9,2.9-5.9,6.3c0,6.1,3.7,11.5,9.3,13.8c1.8,0.7,3.6,1,5.5,1.6  c0,1,0,2.1,0,3.1c0.1,3.5,2.7,6.2,6.1,6.2c3.5,0,6.2-2.6,6.3-6.2c0-1.2,0-2.4,0-3.6C162.3,266.3,167.2,262.5,169.2,255.6z"></path></g></svg>