<svg xmlns="http://www.w3.org/2000/svg" xmlns:xlink="http://www.w3.org/1999/xlink" id="Layer_1" x="0px" y="0px" viewBox="0 0 400 400" style="enable-background:new 0 0 400 400;" xml:space="preserve"><style type="text/css">	.st0{fill:#24224B;}</style><g>	<path class="st0" d="M347,177.3c0-5.4-1.5-6.8-7-6.8c-31,0-62.1,0-93.1,0c-0.8,0-1.6-0.1-2.4,0.1c-2.7,0.4-4.2,2-4.3,4.7  c-0.1,2.6,1.8,4.6,4.4,5c1,0.1,2,0.1,3.1,0.1c28.6,0,57.2,0,85.7,0c1.2,0,2.4,0,3.6,0c0,32.8,0,65.3,0,97.8c-49,0-97.7,0-146.6,0  c0-32.6,0-65.1,0-97.9c1.6,0,3,0.1,4.4,0c2.8-0.2,4.6-2.1,4.6-4.8c0.1-2.7-1.8-4.8-4.7-5c-2.2-0.1-4.5,0-6.7,0  c-6.3,0-7.6,1.2-7.6,7.4c0,50.1,0,100.2,0,150.3c0,1.2,0,2.4,0,3.7c-13.4,0-26.5,0-39.7,0c0.9-12-4.2-19.2-13.6-19.5  c-4.2-0.1-7.8,1.2-10.9,4.1c-4.1,4-5.2,9-4.1,14.6c-8.3-2.5-11.3-9.4-10-23.5c4.4,0,8.7,0.1,13,0c9-0.2,16-7.2,16.2-16.2  c0.1-3.9,0.1-7.8,0-11.6c-0.2-9.1-7.2-16-16.2-16.2c-3.7-0.1-7.3,0-11,0c-4.4-0.1-7-2.7-7-7.1c0-14.8,0-29.6,0-44.4  c0-4.6,2.6-7.2,7.2-7.2c3.7-0.1,7.4,0.1,11,0c8.9-0.2,15.8-7.2,16-16.1c0.1-4,0.1-8,0-11.9c-0.2-8.9-7.2-15.8-16-16  c-4.2-0.1-8.4-0.1-12.6,0c-22.2,0.3-41.9,15.6-47.9,37c-2.5,8.9-1.8,18-1.8,27.1c0,2.7,2.4,4.5,4.9,4.5c2.7-0.1,4.7-2.1,4.8-5  c0.1-4.5,0-9,0.1-13.5c0.2-17.7,11.9-33.3,28.8-38.5c8-2.5,16.2-1.8,24.3-1.7c3.3,0.1,5.6,3,5.7,6.5c0.1,3.6,0.1,7.1,0,10.7  c-0.1,4.4-2.6,7-7.1,7.1c-3.7,0.1-7.3,0-11,0c-9.1,0.2-16.1,7.2-16.2,16.2c-0.1,15.3-0.1,30.6,0,45.9c0.1,9,7.1,16,16.2,16.2  c3.7,0.1,7.3,0,11,0c4.4,0.1,7,2.6,7.1,7.1c0.1,3.4,0.1,6.7,0,10.1c-0.1,4.6-2.6,7.2-7.2,7.3c-3.9,0.1-7.8,0.1-11.6,0  c-18.4-0.3-34.8-13.2-38.6-31.3c-1.4-6.9-1-14.2-1.3-21.3c-0.2-3.9-1.8-6.1-4.8-6.2c-3.1-0.1-5,2.2-5,6.3s-0.1,8.2,0,12.2  c0.4,13.6,5.3,25.2,14.9,34.9c6.7,6.8,14.9,11.2,24.3,13.6c0,3.3,0,6.5,0,9.6c0,16,10.3,26.2,26.2,26.2c19.5,0,39,0,58.5,0  c1.1,0,2.2,0,3.2,0c1.6,4.2,2.6,4.9,6.9,4.9c51,0,102.1,0,153.1,0c5.4,0,6.8-1.5,6.8-7C347,285.7,347,231.6,347,177.3z   M126.4,332.2c-2.6-0.1-4.8-2.3-4.8-4.9c0-2.8,2.4-5,5.1-4.9c2.6,0.1,4.7,2.4,4.6,5C131.3,330.1,129.1,332.2,126.4,332.2z   M327.6,288.2c3.1,0,6.2,0,9.4,0c0,3.1,0,6.2,0,9.5c-3.1,0-6.1,0-9.4,0C327.6,294.6,327.6,291.6,327.6,288.2z M308,288.2  c3.2,0,6.2,0,9.4,0c0,3.2,0,6.3,0,9.5c-3.1,0-6.2,0-9.4,0C308,294.7,308,291.6,308,288.2z M288.3,288.3c3.1,0,6.2,0,9.5,0  c0,3.1,0,6.2,0,9.4c-3.1,0-6.1,0-9.5,0C288.3,294.6,288.3,291.5,288.3,288.3z M297.8,307.9c0,3.1,0,6.2,0,9.4c-3.1,0-6.1,0-9.4,0  c0-3.1,0-6.1,0-9.4C291.5,307.9,294.6,307.9,297.8,307.9z M268.9,288.2c3.2,0,6.1,0,9.3,0c0,3.1,0,6.2,0,9.5c-3,0-6.1,0-9.3,0  C268.9,294.5,268.9,291.3,268.9,288.2z M268.8,307.8c3.2,0,6.2,0,9.4,0c0,3.1,0,6.2,0,9.5c-3.1,0-6.2,0-9.4,0  C268.8,314.2,268.8,311.2,268.8,307.8z M249.2,288.3c3,0,6.1,0,9.4,0c0,3,0,6.1,0,9.4c-3.2,0-6.3,0-9.4,0  C249.2,294.6,249.2,291.6,249.2,288.3z M258.6,307.9c0,3.1,0,6.2,0,9.5c-3.2,0-6.2,0-9.4,0c0-3.1,0-6.2,0-9.5  C252.3,307.9,255.3,307.9,258.6,307.9z M229.7,288.2c3.2,0,6.2,0,9.4,0c0,3.2,0,6.3,0,9.5c-3.1,0-6.1,0-9.4,0  C229.7,294.7,229.7,291.6,229.7,288.2z M199.8,337c-3.2,0-6.2,0-9.4,0c0-3.2,0-6.3,0-9.5c3.1,0,6.1,0,9.4,0  C199.8,330.5,199.8,333.6,199.8,337z M199.8,317.3c-3.1,0-6.1,0-9.4,0c0-3.1,0-6.1,0-9.5c3.1,0,6.2,0,9.4,0  C199.8,310.9,199.8,314,199.8,317.3z M199.8,297.7c-3.1,0-6.2,0-9.5,0c0-3.2,0-6.2,0-9.4c3.1,0,6.2,0,9.5,0  C199.8,291.3,199.8,294.4,199.8,297.7z M219.4,337c-3.2,0-6.2,0-9.4,0c0-3.2,0-6.3,0-9.5c3.1,0,6.1,0,9.4,0  C219.4,330.5,219.4,333.6,219.4,337z M219.4,317.3c-3.3,0-6.3,0-9.4,0c0-3.2,0-6.2,0-9.4c3.1,0,6.1,0,9.4,0  C219.4,311,219.4,314,219.4,317.3z M219.4,297.7c-3.1,0-6.2,0-9.5,0c0-3.2,0-6.2,0-9.5c3.2,0,6.2,0,9.5,0  C219.4,291.4,219.4,294.5,219.4,297.7z M229.6,307.9c3.1,0,6.1,0,9.5,0c0,3.2,0,6.2,0,9.4c-3.1,0-6.2,0-9.5,0  C229.6,314.2,229.6,311.1,229.6,307.9z M297.9,336.8c-22.7,0-45.4,0-68.3,0c0-3,0-6.1,0-9.4c22.7,0,45.4,0,68.3,0  C297.9,330.7,297.9,333.7,297.9,336.8z M317.4,337c-3.2,0-6.2,0-9.4,0c0-3.1,0-6.2,0-9.5c3,0,6.1,0,9.4,0  C317.4,330.6,317.4,333.7,317.4,337z M337,337c-3.2,0-6.2,0-9.4,0c0-3.1,0-6.2,0-9.5c3,0,6.1,0,9.4,0C337,330.6,337,333.7,337,337z   M337,317.2c-9.5,0-19.1,0-29.1,0c0-3.1,0-6.1,0-9.4c9.7,0,19.3,0,29.1,0C337,310.9,337,314,337,317.2z"></path>	<path class="st0" d="M136.6,138.9c1.4,7.2,7.3,12,14.8,12c16.1,0,32.2,0,48.5,0c0.4,1.1,0.9,2.1,1.3,3.2c4.4,12,8.9,24.1,13.3,36.1  c0.9,2.6,2.1,4.8,5.2,4.7c2.9,0,4.1-2.1,5.1-4.5c4.1-10.6,8.3-21.2,12.5-31.9c3-7.6,3-7.6,11.2-7.7c8.9-0.1,15.2-6.3,15.2-15.3  c0-7.6,0-15.1,0-22.7c0-3.9-1.8-6.1-4.9-6.1s-4.9,2.2-4.9,6.1c0,7.4,0,14.9,0,22.3c0,4-1.8,5.8-5.8,5.9c-3.3,0-6.5,0.1-9.8,0  c-3.3-0.2-5.3,1.3-6.5,4.4c-2.4,6.3-4.9,12.5-7.4,18.8c-1.5,3.7-3,7.5-4.8,11.8c-0.6-1.5-1-2.4-1.4-3.3c-3.2-8.8-6.5-17.6-9.7-26.4  c-1.7-4.6-2.6-5.2-7.4-5.2c-16.3,0-32.7,0-49,0c-4.4,0-6.1-1.7-6.1-6.1c0-22,0-44.1,0-66.1c0-4.4,1.7-6.1,6.1-6.1  c31.8,0,63.7,0,95.5,0c4.5,0,6.2,1.7,6.2,6.4c0,7.2,0,14.5,0,21.7c0,3.9,1.8,6.1,4.8,6.2c3,0,4.9-2.2,5-6c0-7.4,0-14.9,0-22.3  c0-9.6-6.2-15.7-15.7-15.7c-31.9,0-63.9,0-95.8,0c-9.8,0-15.8,6.1-15.8,15.9c0,22.1,0,44.3,0,66.4  C136.3,136.4,136.4,137.8,136.6,138.9z"></path>	<path class="st0" d="M148.6,264.7c-2.6,2.8-2.7,6.1-0.2,8c2.2,1.7,4.9,1.3,7.3-1.2c9.8-10.4,14.7-22.8,15-37.4  c-0.3-14.2-5.2-26.8-15.2-37.4c-2.4-2.5-5.2-2.7-7.3-0.8c-2.2,2-2.1,5,0.2,7.6c0.3,0.4,0.7,0.7,1.1,1.1c9.8,11.3,13.4,24.3,10.4,39  C158,251.8,154.2,258.6,148.6,264.7z"></path>	<path class="st0" d="M320.7,219.1c-3.1-5.7-8.2-8-14.5-7.7c-2.3,0.1-4.7,0-7,0c-4.2,0-6,1.7-6,5.9c0,12.3,0,24.7,0,37  c0,3.8,1.9,6.1,4.9,6c3,0,4.8-2.3,4.8-6.2c0-4.4,0-8.7,0-13.4c1.3,0,2.1,0,2.9,0c5.4,0,6.9,1.5,6.9,6.9c0,2.8-0.1,5.5,0.1,8.3  c0.2,2.7,2.4,4.6,4.9,4.4c2.7-0.2,4.7-1.7,4.7-4.4c0-6.9,1.7-14.2-3.6-20C322.8,230.6,323.8,224.9,320.7,219.1z M303.1,230.8  c0-3.1,0-6.1,0-9.4c6.6-0.7,9.5,0.8,9.5,4.6C312.7,229.8,309.9,231.2,303.1,230.8z"></path>	<path class="st0" d="M263.8,260.3c2.7,0,4.1-1.8,5-4.2c2.3-6.2,4.6-12.4,7-18.6c2.4-6.4,4.8-12.8,7.1-19.2c1.1-2.9-0.1-5.5-2.7-6.6  c-2.6-1-5.1,0.2-6.4,3c-0.3,0.7-0.6,1.5-0.9,2.3c-2.9,7.8-5.9,15.6-9.1,24.2c-0.7-1.6-1-2.4-1.3-3.2c-2.8-7.5-5.6-15.1-8.5-22.6  c-1.3-3.4-3.8-4.8-6.5-3.8c-2.9,1.1-3.9,3.8-2.6,7.3c4.6,12.4,9.3,24.8,13.9,37.2C259.6,258.6,261,260.3,263.8,260.3z"></path>	<path class="st0" d="M229.2,221.1c3.1-0.2,5.1-2.2,5.1-5c-0.1-2.7-2-4.7-5-4.8c-6.4-0.1-12.9-0.1-19.3,0c-3.1,0-5.1,2.1-5.1,4.9  c0,2.8,2.1,4.7,5.2,4.8c1.5,0.1,3,0,4.4,0c0,10,0,19.6,0,29.4c-1.7,0-3.2-0.1-4.7,0c-2.9,0.2-4.9,2.1-4.9,4.8s1.9,4.9,4.8,4.9  c6.6,0.1,13.3,0.1,19.9,0c2.7-0.1,4.6-2.2,4.7-4.7c0.1-2.7-1.9-4.7-4.8-5c-1.5-0.1-3,0-4.8,0c0-10,0-19.6,0-29.4  C226.4,221.1,227.8,221.2,229.2,221.1z"></path>	<path class="st0" d="M134.8,251.3c-2.5,2.9-2.6,5.5-0.5,7.5s5.3,1.5,7.8-1.1c6-6.6,9.1-14.4,9.1-23.3c0-8.9-3.3-17.1-9.4-23.6  c-2.5-2.7-5.3-3-7.5-1.1c-2.3,2-2.1,4.9,0.4,7.8C143.8,227.8,143.8,240.9,134.8,251.3z"></path>	<path class="st0" d="M120.6,244.9c1.9,1.6,4.7,1.5,6.6-0.5c2.8-2.8,4.1-6.2,4.2-10.3c-0.1-4-1.5-7.6-4.6-10.5c-2-1.9-4.7-2-6.6-0.3  s-2.4,4.5-0.6,6.6c2.5,2.9,2.6,5.4,0.2,8.4C118.1,240.4,118.6,243.2,120.6,244.9z"></path>	<path class="st0" d="M213.4,75.9c-3.4-6.9-12.3-10.1-19.5-6.7c-5.4,2.5-8.5,6.7-8.4,12.8c0,3,0,6.1,0,9.1c0,3.3,0,6.7,0,10  c0,2.1,0.5,4.1,1.6,5.9c3.3,5.8,10.4,8.6,17.1,6.8c5.4-1.4,10.7-6.5,10.5-13.6c-0.2-6.3,0-12.7,0-19.1  C214.6,79.3,214.2,77.6,213.4,75.9z M204.6,109.7c-5.2,2.4-11.6,0.3-14.3-4.5c-0.7-1.3-1.1-2.6-1-4c0-6.4,0.1-12.8,0-19.1  c-0.1-4.5,2.2-7.5,6.1-9.3c5.6-2.6,12.6-0.1,14.8,5.4c0.4,0.9,0.6,2,0.6,3c0.1,3.3,0,6.7,0,10c0,3-0.1,6.1,0,9.1  C210.9,104.9,208.6,107.9,204.6,109.7z"></path>	<path class="st0" d="M202.5,121.6c6.6-0.8,12-3.9,15.8-9.4c2.2-3.2,3.3-6.7,3.3-10.6c0-1.1-0.8-1.8-1.8-1.9c-1,0-1.8,0.7-1.9,1.7  c0,0.2,0,0.3,0,0.5c-0.1,4.2-1.8,7.7-4.7,10.6c-4.4,4.3-9.7,6.1-15.8,5.2c-6.8-1-11.8-4.7-14.3-11.3c-0.6-1.5-0.6-3.3-0.9-4.9  c-0.2-1.1-0.9-1.8-1.9-1.8s-1.9,0.8-1.8,1.9c0,1.1,0.1,2.2,0.3,3.2c1.7,8,6.7,13,14.3,15.7c1.6,0.6,3.4,0.8,5.1,1.2  c0,2.8,0,5.7,0,8.6c-0.4,0-0.7,0-1,0c-2.5,0-5,0-7.5,0c-1.5,0-2.4,1.2-2,2.5c0.2,0.9,1,1.3,2.1,1.3c6.8,0,13.7,0,20.5,0  c0.2,0,0.4,0,0.6,0c0.9-0.1,1.6-0.9,1.7-1.8c0-0.9-0.5-1.7-1.4-1.9c-0.3-0.1-0.7-0.1-1-0.1c-2.4,0-4.9,0-7.3,0c-0.3,0-0.6,0-0.9,0  c0-2.9,0-5.8,0-8.7C202.2,121.6,202.4,121.6,202.5,121.6z"></path></g></svg>