<svg xmlns="http://www.w3.org/2000/svg" xmlns:xlink="http://www.w3.org/1999/xlink" id="Layer_1" x="0px" y="0px" viewBox="0 0 400 400" style="enable-background:new 0 0 400 400;" xml:space="preserve"><style type="text/css">	.st0{fill:#24224B;}</style><g>	<path class="st0" d="M300.5,197.1c-1.9-0.9-2.4-1.9-2.4-3.9c0.1-18,0-36,0-54c0-21.8,0-43.6,0-65.5c0-8.4-3.4-14.8-10.9-18.7  c-1.7-0.9-3.7-1.4-5.6-2.1c-70.9,0-141.7,0-212.6,0c-3.1,1.6-6.4,2.9-9.2,4.9c-3.8,2.7-5.4,7-6.9,11.2c0,75.8,0,151.7,0,227.5  c3.9,13.1,12.8,16.4,24.2,16.3c41.2-0.3,82.3-0.1,123.5-0.2c2.4,0,3.8,0.8,5.1,2.7c20.5,28.2,58.9,39.3,91.3,26.5  c29.5-11.7,49.7-39.7,49.9-70.5C347.2,237,331.4,212.1,300.5,197.1z M62.9,71.9c0.2-4.9,4.2-8.7,9.1-9.1c1-0.1,1.9,0,2.9,0  c67.2,0,134.4,0,201.6,0c8.4,0,12,3.6,12,12.1c0,5.6,0,11.3,0,17.1c-75.2,0-150.2,0-225.5,0C62.8,85.1,62.7,78.5,62.9,71.9z   M194.8,302.9c-40.1,0-80.2,0-120.4,0c-8,0-11.6-3.6-11.6-11.5c0-62,0-124.1,0-186.1c0-1,0-1.9,0-3.1c75.1,0,150.1,0,225.3,0  c0,30,0,60.1,0,90.3c-3.8-0.6-7.7-1.3-11.5-1.8c-11-1.3-21.7,0-32.3,3.4c-1.8,0.6-3.7,0.9-5.6,0.9c-33.2,0.1-66.4,0-99.7,0  c-1.2,0-2.5,0-3.7,0.2c-2.5,0.5-3.8,2.1-3.8,4.7c0,2.5,1.3,4.2,3.8,4.7c1.2,0.3,2.5,0.2,3.7,0.2c26.5,0,53,0,79.6,0  c1.1,0,2.3,0,3.4,0c0.2,0.3,0.4,0.6,0.6,0.9c-0.6,0.3-1.2,0.5-1.7,0.9c-13.4,10.5-22.6,23.8-27.3,40.1c-0.5,1.9-1.4,2.3-3.2,2.3  c-17.2-0.1-34.5,0-51.7,0c-1.1,0-2.3,0-3.4,0.3c-2.5,0.6-3.9,2.6-3.7,5.1c0.2,2.5,1.7,4,4.2,4.4c1,0.1,2.1,0.1,3.2,0.1  c16.1,0,32.2,0,48.3,0c1.1,0,2.3,0,3.8,0c-1.9,15.6,0.5,30,7.3,44.1C196.8,302.9,195.8,302.9,194.8,302.9z M268.6,337.3  c-37.7,0-68.5-30.8-68.5-68.6c0-37.9,30.7-68.7,68.6-68.7c37.8,0,68.7,30.7,68.7,68.4C337.4,306.4,306.6,337.3,268.6,337.3z"></path>	<path class="st0" d="M134.7,150.6c1.1,0.4,2.4,0.4,3.7,0.4c42.8,0,85.6,0,128.4,0c1,0,2.1,0,3.1-0.3c2.4-0.6,3.7-2.3,3.7-4.8  c0-2.4-1.8-4.3-4.3-4.6c-1-0.1-2.1-0.1-3.2-0.1c-21.2,0-42.3,0-63.5,0c-21.3,0-42.5,0-63.8,0c-1.1,0-2.3-0.1-3.4,0.1  c-2.4,0.4-3.7,1.9-3.9,4.3C131.4,148,132.4,149.8,134.7,150.6z"></path>	<path class="st0" d="M113,136.1c-2.3-0.2-3.7-1.1-4.6-3.4c-1.5-3.9-4.5-6.2-8.8-6.2c-4.3,0-7.2,2.3-8.8,6.2c-0.8,2.1-2,3.1-4.4,3.3  c-4.2,0.4-7.2,2.6-8.4,6.7c-1.2,4-0.1,7.6,3.1,10.4c1.8,1.5,2.3,3.2,1.6,5.3c-0.2,0.7-0.3,1.5-0.3,1.8c-0.2,7.9,7.3,12.6,14,9.1  c2-1.1,3.7-1.8,6-0.3c3.4,2.3,7.1,2.2,10.5-0.3c3.5-2.5,4.6-6.1,3.7-10.1c-0.6-2.5-0.1-4.1,1.8-5.8c3.1-2.7,4-6.3,2.8-10.2  C120,138.7,117.1,136.5,113,136.1z M107.1,160.4c-4.8-3.5-9.5-4.4-14.5-0.2c1.8-6.2,0.4-10.9-5.3-14.2c6-0.3,10.7-2.1,12.3-8.7  c1.8,6.3,5.8,8.6,12.1,8.3C106.6,149.4,104.2,154,107.1,160.4z"></path>	<path class="st0" d="M118.1,207c3.3-2.8,4.3-6.5,3-10.6c-1.3-4-4.3-6.1-8.3-6.5c-2.5-0.2-3.6-1.4-4.5-3.5c-1.6-3.8-4.5-5.8-8.6-6  c-4.3,0.1-7.3,2.2-8.9,6.1c-0.8,2-1.9,3.2-4.3,3.4c-4.1,0.3-7.2,2.5-8.5,6.6c-1.2,4-0.2,7.6,3,10.4c1.7,1.5,2.3,3.1,1.7,5.3  c-1.1,4.2,0.1,7.8,3.6,10.4c3.5,2.6,7.2,2.4,10.7,0.2c1.7-1.1,3.2-1.2,5-0.1c3.5,2.2,7.3,2.4,10.8-0.1c3.6-2.6,4.7-6.2,3.7-10.4  C116,210.1,116.3,208.6,118.1,207z M107,214.3c-4.9-3.9-9.5-4-14.6-0.2c2.2-6.3,0.3-10.8-5.1-14.3c6.2-0.1,10.5-2.3,12.2-8.7  c1.7,6.3,5.8,8.7,12.1,8.5C106.4,203.4,104.3,208,107,214.3z"></path>	<path class="st0" d="M113,243.9c-2.6-0.2-3.8-1.4-4.7-3.7c-1.6-3.8-4.5-5.8-8.6-5.9c-4.6,0.1-7.4,2.5-9.1,6.4  c-0.8,1.9-1.8,2.8-3.9,3c-4.1,0.3-7.3,2.4-8.6,6.5c-1.3,4.1-0.3,7.8,3,10.6c1.7,1.5,2.2,3.1,1.6,5.3c-1.1,4.2,0.2,7.8,3.7,10.4  c3.5,2.5,7.2,2.3,10.8,0.1c1.8-1.1,3.2-1.1,5,0c3.6,2.2,7.3,2.3,10.7-0.2c3.5-2.5,4.6-6.1,3.7-10.1c-0.6-2.5,0-4.1,1.8-5.8  c3.1-2.7,4-6.3,2.8-10.2C120,246.5,117,244.2,113,243.9z M107,268.2c-5-3.5-9.6-4.5-14.6,0.1c2.2-6.4,0.4-11-5-14.5  c6.1-0.2,10.5-2.2,12.1-8.8c1.9,6.1,5.7,9,12.2,8.4C106.6,257.3,104.2,261.8,107,268.2z"></path>	<path class="st0" d="M242.3,248c2.4-2.5,2.5-5.3,0.4-7.4c-2-2-4.8-2-7.1,0.3c-8,7.9-16,15.9-23.9,23.9c-2.5,2.5-2.4,5,0.1,7.5  c7.9,7.9,15.8,15.9,23.7,23.7c2.3,2.3,5.2,2.3,7.2,0.4c2.1-2,2.1-4.9-0.3-7.4c-4.3-4.4-8.6-8.7-13-13c-2.5-2.5-5.1-4.9-8.2-7.8  c1.2-0.9,2.2-1.4,2.9-2.1C230.2,260.2,236.3,254.1,242.3,248z"></path>	<path class="st0" d="M324.9,264c-5.5-5.5-11-11-16.4-16.4c-2.3-2.3-4.4-4.8-7-6.8c-1.3-1-3.6-1.4-5.2-0.9c-1.3,0.4-2.8,2.4-2.9,3.8  c-0.1,1.5,0.9,3.5,2,4.7c6.6,6.8,13.4,13.4,20.5,20.5c-1.2,1-2.1,1.7-2.9,2.5c-6,6-12.1,11.9-18,18.1c-1.1,1.2-1.8,3.5-1.5,5.1  c0.3,1.4,2.3,3.1,3.7,3.3c1.6,0.2,3.7-0.8,5-2c7.7-7.4,15.2-15.1,22.8-22.7C328.4,269.7,328.4,267.5,324.9,264z"></path>	<path class="st0" d="M282.2,236.2c-1.3-0.9-3-1.6-4.6-1.6c-2.2,0-3.3,1.9-4,3.9c-3.6,11-7.3,21.9-10.9,32.9  c-2.7,8.2-5.5,16.5-8.2,24.7c-0.8,2.3-0.4,4.4,1.6,5.9c1.8,1.3,3.8,1.4,5.6,0.1c1-0.8,1.8-2,2.2-3.2c6.4-19.1,12.8-38.2,19.1-57.3  c0.2-0.7,0.4-1.5,0.7-2.5C283.2,238.1,283,236.7,282.2,236.2z"></path>	<path class="st0" d="M244.9,82.3c4.6,0,9.2,0,13.8,0c4.7,0,9.4,0,14,0c3.6,0,5.8-1.9,5.7-4.9c0-2.9-2.2-4.8-5.6-4.8  c-9.3,0-18.5,0-27.8,0c-3.5,0-5.8,2.1-5.8,5C239.3,80.4,241.5,82.3,244.9,82.3z"></path>	<path class="st0" d="M79.8,82.3c1,0,1.9,0.1,2.9,0c2.6-0.2,4.5-2.2,4.6-4.6c0.1-2.3-1.6-4.5-4-4.9c-1.1-0.2-2.3-0.2-3.4-0.2  c-4.9,0-7.3,1.6-7.3,4.9C72.6,80.7,75,82.3,79.8,82.3z"></path>	<path class="st0" d="M128.9,82.3c0.9,0,1.7,0,2.6,0c2.8-0.2,4.8-2,4.9-4.6c0.1-2.7-1.8-4.8-4.7-5.1c-0.9-0.1-1.7,0-2.6,0  c-4.9,0-7.3,1.5-7.3,4.9C121.6,80.7,123.9,82.3,128.9,82.3z"></path>	<path class="st0" d="M102.1,82.3c0.8,0,1.5,0,2.3,0c0,0,0,0,0,0c0.7,0,1.3,0,2,0c3.3-0.1,5.3-1.8,5.3-4.7c0.1-3-2-4.9-5.3-5.1  c-1.4-0.1-2.9-0.1-4.3,0c-3,0.2-4.9,2.2-4.9,4.9C97.2,80.2,99.1,82.1,102.1,82.3z"></path></g></svg>