<svg xmlns="http://www.w3.org/2000/svg" xmlns:xlink="http://www.w3.org/1999/xlink" id="Layer_1" x="0px" y="0px" viewBox="0 0 400 400" style="enable-background:new 0 0 400 400;" xml:space="preserve"><style type="text/css">	.st0{fill:#24224B;}</style><path class="st0" d="M317.9,136.4c-4.3-2-5.6-1.3-7.1,3.6c0.5,0.2,1,0.4,1.5,0.6c8.7,2.5,13.1,8.1,13.1,17.2c0,47.5,0,95,0,142.5 c0,10.8-6.6,17.4-17.3,17.4c-45.9,0-91.9,0-137.8,0c-1.2,0-2.5,0-3.2,0c-0.1-59.3,0.6-118.2-0.5-177.5c34.7,0,69.7,0,104.9,0 c-2.2-5.2-2.7-5.5-7.5-5.5c-33.9,0-67.7,0-101.6,0c-1.2,0-2.5,0-3.7,0c0.8,5.7,2.3,11,2.3,16.3c0.2,39,0.4,78,0.1,117 c-0.1,18.4,1.6,36.8-1.8,55.6c2.7,0,5.2,0,7.7,0c46.7,0,93.4,0,140.1,0c14,0,23.8-8.7,23.8-21.3c0.1-48.8,0.1-97.6,0-146.4 C330.9,146.7,326.1,140.2,317.9,136.4z"></path><path class="st0" d="M149.7,154.2c0-8.8-1.9-17.1-6.8-24.5c-3.9-6-9.1-9.8-16.9-9.3c-5.2,0.3-10.4-0.2-15.5,0.2 c-2.8,0.2-5.8,1.1-8.1,2.6c-6.3,4.1-9.5,10.5-11.2,17.5c-1.2,5.2-2,10.6-2,15.9c-0.1,49.9-0.1,99.7-0.1,149.6c0,9.1,2,17.7,7.1,25.4 c3.9,5.8,9,9.3,16.4,8.9c4.7-0.3,9.5-0.2,14.2,0c5.8,0.2,10.2-2.1,13.8-6.4c6.5-7.8,8.8-17.1,8.9-27c0.1-25.5,0-51.1,0-76.6 C149.8,205,149.8,179.6,149.7,154.2z M144.2,305.7c0,7-1.5,13.7-4.6,19.9c-3.1,6.2-7.6,10-15.1,9.4c-3.6-0.3-7.3-0.2-11,0 c-5.7,0.3-9.7-2.4-12.6-6.9c-4.4-6.8-6.1-14.5-6.1-22.4c-0.1-50.1-0.1-100.2,0-150.2c0-8.2,1.7-16.3,6.5-23.3 c2.9-4.2,6.6-6.6,11.9-6.3c4.1,0.2,8.2,0.3,12.3,0c5.8-0.4,9.7,2.3,12.6,6.9c4.3,6.7,6,14.3,6.1,22.1c0.1,25.3,0,50.6,0,75.9 C144.3,255.8,144.3,280.8,144.2,305.7z"></path><path class="st0" d="M79.2,142.5c0.3-2.5,1-5,1.6-7.8c-2,0-3.7,0-5.4,0c-13.1,0-22.3,9.3-22.3,22.4c0,28.1,0,56.2,0,84.3 c0,20.4-0.1,40.7,0.1,61.1c0.1,13.1,12.2,23.3,26.7,20.5c-0.1-0.7-0.1-1.4-0.2-2.2c-0.6-5.9-1.6-11.7-1.7-17.6 c-0.1-48.6-0.1-97.2,0-145.7C77.9,152.5,78.7,147.5,79.2,142.5z M72.2,317.2c-5.9-0.3-11.8-5.4-13-11.7c-0.3-1.7-0.5-3.4-0.5-5.1 c0-47.5,0-95,0-142.5c0-8.4,3.7-14.1,10.7-16.6c1.1-0.4,2.2-0.5,3-0.7C71.4,199.6,71.9,258.4,72.2,317.2z"></path><path class="st0" d="M293.9,90.5c-15.1-1.9-30.6,9.2-28.1,27.2c0.9,6,4,10.8,7.5,15.5c2.7,3.6,4.8,7.4,5,12c0.1,2.6,1.6,3.9,4.2,3.9 c2.9,0,5.8,0,8.7,0c0,0,0,0,0,0.1c2.9,0,5.9,0.3,8.7-0.1c1.4-0.2,3.5-1.7,3.6-2.7c0.4-6.2,3.5-10.9,7.1-15.6c3.3-4.3,5.8-9.1,6-14.7 C317.1,102.3,308.4,92.1,293.9,90.5z M308.2,129c-3.5,4.6-7,9.7-7.7,16.5c-0.3,0.3-0.8,0.6-1.1,0.6c-0.8,0.1-1.8,0.2-3,0.2 c0,0,0,0,0,0c-0.8,0-1.5,0-2.3,0v-0.1l-3-0.1h-8.7c-1.2,0-1.2-0.2-1.2-1c-0.3-5.9-3.1-10.4-5.6-13.7c-3.7-5-6.2-9.1-6.9-14.1 c-0.9-6.3,0.7-12,4.5-16.4c4.1-4.7,10.5-7.5,17.2-7.5c1,0,2,0.1,3,0.2c12.9,1.4,20.5,10,20.1,22.5 C313.4,120.2,311.7,124.4,308.2,129z"></path><path class="st0" d="M256.8,189.5c-0.2-12.9-0.1-25.8,0-38.7c0-2.9-0.8-3.8-3.8-3.8c-25.5,0.1-51.1,0.1-76.6,0.1c-1.1,0-2.1,0-3.7,0 c0,1.6,0,2.6,0,3.7c0,13,0.1,26-0.1,39.1c0,3.1,1.1,3.7,3.9,3.7c25.4-0.1,50.8-0.1,76.3,0C255.8,193.5,256.9,192.6,256.8,189.5z  M247.4,187.7c-11-0.1-22-0.1-33-0.1c-10.9,0-21.8-0.1-32.6,0.1c-2.7,0-3.8-0.5-3.7-3.5c0.2-9.4,0.2-18.7,0-28.1 c0-2.8,1-3.5,3.6-3.5c22,0.1,44,0.1,65.9,0c2.6,0,3.6,0.7,3.5,3.5c-0.2,9.4-0.2,18.7,0,28.1C251.2,187.2,250.2,187.7,247.4,187.7z"></path><path class="st0" d="M214.5,310.1c7.2,0.1,13-5.5,13-12.7c0.1-7.5-5.6-13.3-12.9-13.2c-7,0.1-12.7,5.8-12.8,12.8 C201.7,304.1,207.4,310,214.5,310.1z M214.7,290c4,0,7.2,3.2,7.2,7.1c0,3.8-3.4,7.2-7.2,7.1c-3.9,0-7.2-3.4-7.2-7.2 C207.4,293.3,210.8,290,214.7,290z"></path><path class="st0" d="M238.7,226.7c5.3,0,9.7-4.5,9.7-10c0-5.4-4.1-9.6-9.5-9.7c-5.6,0-9.8,4.1-9.8,9.7 C229,222.2,233.3,226.7,238.7,226.7z"></path><path class="st0" d="M214.5,207c-5.5,0-9.8,4.4-9.8,9.8c0,5.2,4.5,9.7,9.6,9.8c5.3,0.1,9.8-4.4,9.8-9.8 C224.2,211.3,220.1,207,214.5,207z"></path><path class="st0" d="M190.7,226.7c5.3-0.1,9.6-4.4,9.6-9.7c0.1-5.6-4.1-9.9-9.6-9.9s-9.6,4-9.7,9.4 C181,222.2,185.3,226.7,190.7,226.7z"></path><path class="st0" d="M214.5,230.9c-5.6,0-9.7,4.2-9.7,9.8c0.1,5.4,4.2,9.5,9.6,9.5c5.7,0,9.8-4.1,9.8-9.6 C224.2,235,220,230.9,214.5,230.9z"></path><path class="st0" d="M204.8,264.5c0.1,5.5,4.1,9.5,9.6,9.6c5.7,0,9.8-4.1,9.8-9.7c0-5.5-4.1-9.6-9.6-9.6 C208.9,254.7,204.7,258.9,204.8,264.5z"></path><path class="st0" d="M238.6,274c5.6,0.1,9.6-3.9,9.8-9.4c0.1-5.7-3.9-9.9-9.6-9.9c-5.5-0.1-9.7,4-9.8,9.4 C228.9,269.9,232.9,274,238.6,274z"></path><path class="st0" d="M238.7,250.2c5.7,0,9.8-4.1,9.7-9.8c-0.1-5.5-4.2-9.5-9.7-9.5c-5.6,0-9.7,4.2-9.7,9.8 C229.1,246.2,233.2,250.3,238.7,250.2z"></path><path class="st0" d="M190.6,230.9c-5.5,0-9.5,4-9.5,9.6c0,5.8,4,9.8,9.6,9.8c5.5-0.1,9.6-4.1,9.7-9.6 C200.4,235.1,196.2,230.9,190.6,230.9z"></path><path class="st0" d="M190.5,254.7c-5.7,0.1-9.5,4.1-9.4,10c0.1,5.5,4.1,9.4,9.8,9.3c5.5-0.1,9.6-4.2,9.5-9.7 C200.4,258.8,196.2,254.7,190.5,254.7z"></path><path class="st0" d="M271.4,177.4c-2.2,0.1-3.4,1.4-3.6,3.8c-0.5,7.3,0.2,8,7.5,8c0.6,0,1.3,0,1.9,0l0,0c1.9,0,3.9,0.1,5.8,0 c2.1-0.1,3.5-1.2,3.7-3.3c0.2-1.7,0.5-3.6-0.1-5.1c-0.5-1.4-2.1-3.1-3.3-3.2C279.4,177.1,275.4,177.2,271.4,177.4z"></path><path class="st0" d="M272.2,245.3c2.9,0.1,5.8,0,8.7,0c4.9,0,5.9-1.1,5.9-5.8c0-5.1-0.8-6-6-6c-1.2,0-2.4,0-3.6,0 c-1.8,0-3.7,0-5.5,0c-2.6,0-4,1.2-4,3.9c0,1.1,0,2.2,0,3.2C267.9,244,269,245.2,272.2,245.3z"></path><path class="st0" d="M299.7,245.3c3.5,0.1,7.1,0.2,10.6-0.1c1.2-0.1,3.3-1,3.4-1.8c0.4-2.7,0.7-5.6-0.1-8.1 c-0.3-1.1-3.4-1.4-5.3-1.8c-1-0.2-2.1,0-3.2,0c-1.9,0-3.9,0-5.8,0c-2.5,0-3.8,1.2-3.9,3.7c0,1.2,0,2.4,0,3.5 C295.3,243.8,296.9,245.2,299.7,245.3z"></path><path class="st0" d="M308.3,177.3c-1.1,0-2.2,0-3.2,0c-1.7,0-3.4,0-5.2,0c-2.9,0-4.4,1.3-4.4,4.3c0,1.2,0,2.4,0,3.6c0,2.7,1.4,4,4,4 c3.1,0.1,6.2,0,9.4,0c4.6,0,5.7-1.1,5.7-5.7C314.6,178.4,313.6,177.3,308.3,177.3z"></path><path class="st0" d="M272,273.3c1.7,0,3.4,0,5.2,0c1.7,0,3.4,0,5.2,0c3.2-0.1,4.4-1.2,4.5-4.5c0-1.2,0.1-2.4,0-3.5 c-0.2-2.1-1.3-3.4-3.5-3.5c-4-0.1-8-0.1-11.9,0c-2.4,0.1-3.7,1.4-3.6,4c0,1.1,0,2.2,0,3.2C267.7,271.8,269,273.4,272,273.3z"></path><path class="st0" d="M302.5,217.1c0.9,0,1.7,0,2.6,0l0,0c1.9,0,3.9,0.3,5.8-0.1c1.2-0.3,3-1.3,3.3-2.3c0.5-2.1,0.5-4.5,0-6.6 c-0.2-1-1.9-2.2-2.9-2.3c-4.2-0.3-8.4-0.3-12.5,0c-1.1,0.1-2.8,1.7-2.9,2.7C295.1,216.4,295.2,217.4,302.5,217.1z"></path><path class="st0" d="M299.3,301.3c3.8,0.1,7.5,0.2,11.3-0.1c1.3-0.1,3.1-1.3,3.6-2.5c2.3-5.5-0.2-9-6-9c-1.1,0-2.1,0-3.2,0 c-1.7,0-3.4,0.1-5.2,0c-3-0.1-4.4,1.3-4.3,4.3c0,1.1,0,2.1,0,3.2C295.4,299.9,296.8,301.3,299.3,301.3z"></path><path class="st0" d="M310.3,261.7c-3.3-0.1-6.7-0.1-10,0c-4.3,0.1-4.9,0.9-4.8,6.3c0,4.4,0.8,5.3,4.9,5.3c1.5,0,3,0,4.5,0 c1.7,0,3.4,0,5.2,0c3.4-0.1,4.4-1.3,4.5-5.2C314.7,263.2,313.8,261.8,310.3,261.7z"></path><path class="st0" d="M275.3,301.4c0.6,0,1.3,0,1.9,0l0,0c1.7,0,3.4,0,5.2,0c2.2,0,4.1-0.7,4.3-3c0.2-2.7,1.3-5.9-1.5-8.1 c-0.5-0.4-1.2-0.5-1.8-0.5c-4,0-8-0.1-11.9,0c-2.3,0-3.4,1.3-3.6,3.6C267.4,300.7,268,301.4,275.3,301.4z"></path><path class="st0" d="M286.8,209c-0.2-2.1-1.3-3.4-3.6-3.4c-4,0-8,0-11.9,0c-2.3,0-3.4,1.3-3.5,3.7c-0.3,7.2,0.1,7.7,7.2,7.7 c0.8,0,1.5,0,2.3,0c1.7,0,3.4-0.1,5.2,0c3,0.1,4.4-1.3,4.4-4.2C286.9,211.6,287,210.3,286.8,209z"></path><path class="st0" d="M343.7,111.6c-4.3-0.2-8.6-0.2-12.9,0c-2.2,0.1-3.6,1.4-3.4,3.8s1.7,3.3,3.9,3.3c1.9,0,3.9,0,5.8,0 c2,0,4.1,0,6.1,0c2.3,0,3.7-1.2,3.8-3.5C347.1,113.1,345.8,111.7,343.7,111.6z"></path><path class="st0" d="M239.3,118.7c3.9,0,7.8,0,11.6,0c2.3,0,3.8-1.1,3.9-3.4c0.2-2.5-1.5-3.7-3.8-3.8c-1.9-0.1-3.9,0-5.8,0 c-2,0-4.1-0.1-6.1,0c-2.2,0.1-3.8,1.2-3.7,3.6C235.4,117.7,236.9,118.7,239.3,118.7z"></path><path class="st0" d="M260.6,89.6c0.9,0.8,2.9,0.8,4.2,0.4c0.8-0.2,1.3-1.7,2-2.5c-0.4-1.1-0.5-2.1-1.1-2.7c-3.1-3.2-6.1-6.5-9.4-9.3 c-0.9-0.8-3.4-0.6-4.6,0.2c-1.8,1.1-1.7,3.3-0.3,4.8C254.4,83.7,257.4,86.8,260.6,89.6z"></path><path class="st0" d="M319.7,90.4c2.2,0,11.8-9.8,12-12.8c-0.3-0.5-0.8-1.9-1.8-2.4s-2.9-0.6-3.5,0c-3.5,3.1-6.9,6.5-10,10 c-0.7,0.7-0.5,2.8,0.1,3.8C316.9,89.9,318.5,90.4,319.7,90.4z"></path><path class="st0" d="M291.3,78.8c1.3-0.4,2.9-1.9,3.2-3.1c0.5-2,0.1-4.2,0.1-6.4c0-2.2,0.4-4.6-0.1-6.7c-0.3-1.3-2.1-3-3.2-3.1 s-3.3,1.7-3.4,2.8c-0.4,4.6-0.2,9.2-0.1,13.8C287.8,78.2,289.5,79.3,291.3,78.8z"></path><path class="st0" d="M282.2,158.1c3,0.3,6,0.1,9,0.1s6,0.2,9-0.1c1.2-0.1,2.2-1.4,3.3-2.2c-1.1-0.8-2.1-2.3-3.2-2.3 c-6-0.2-12-0.1-18.1-0.1c-1.7,0-3.6,0.4-3.2,2.5C279.2,156.9,281.1,158,282.2,158.1z"></path><path class="st0" d="M299.5,163.2c-5.6,0-10.9,0-16.5,0C287.8,168.8,295,168.7,299.5,163.2z"></path></svg>