<svg xmlns="http://www.w3.org/2000/svg" xmlns:xlink="http://www.w3.org/1999/xlink" id="Layer_1" x="0px" y="0px" viewBox="0 0 400 400" style="enable-background:new 0 0 400 400;" xml:space="preserve"><style type="text/css">	.st0{fill:#24224B;}</style><g>	<path class="st0" d="M346.9,116.3c0-8.9-5.8-16.5-16.4-16.4c-27.6,0.4-55.3,0.1-82.9,0.1c-1.2,0-2.2,0-3.2,0  c-0.3-0.4-0.4-0.6-0.4-0.8c-0.1-0.4-0.2-0.7-0.2-1.2c-1.5-9.9-7.1-16.2-16.5-19.2c-0.9-0.3-1.7-1.6-2-2.6  c-3.1-11.8-13.3-19.8-25.4-19.8c-12,0-22.3,8-25.3,19.9c-0.4,1.5-1,2.2-2.7,2.8c-8,2.5-13.1,7.9-15.4,15.9  c-0.4,1.5-0.6,3.1-0.9,4.9c-1.3,0-2.4,0-3.6,0c-27.9,0-55.7,0-83.5,0c-7.9,0-12.5,3.2-15.1,10.6c-0.1,0.4-0.4,0.7-0.4,1  c0,55.9,0,111.8,0,167.7c3.9,9.4,7.3,11.6,17.7,11.6c32,0,64.1,0,96.1,0c1.2,0,2.2,0,3.8,0c-2,6.9-3.8,13.5-5.8,20  c-0.2,0.5-1.4,1-2.2,1c-3.2,0.1-6.5,0-9.8,0.1c-12.1,0.3-22.1,9.2-23.8,21.1c-1,6.9,2.2,10.6,9.1,10.6c30.3,0,60.7-0.1,91-0.1  c11.1,0,22.4,0,33.5-0.1c5.2-0.1,8.5-3.3,8.3-8.2c-0.4-12.2-9.9-22.4-22.2-23.4c-3.8-0.3-7.6-0.3-11.5-0.2c-1.6,0-2.4-0.5-2.8-2.1  c-0.7-2.9-1.6-5.7-2.4-8.5c-1-3.3-1.9-6.7-3-10.2c1.6,0,2.8,0,3.9,0c32.5,0,65.1-0.2,97.6,0.1c10.4,0.1,16.5-7.3,16.5-16.4  C346.7,221.9,346.7,169.2,346.9,116.3z M225.9,88c4.9,0.8,9,6,9.1,11.9c-5,0-10.1,0-14.9,0C222,95.8,224,91.9,225.9,88z   M199.8,65.1c9.7,0,17.4,7.7,17.4,17.4s-7.9,17.5-17.5,17.4c-9.7-0.1-17.4-8-17.3-17.7C182.5,72.8,190.2,65.1,199.8,65.1z   M173.7,87.9c2,4,3.9,7.9,5.8,12c-4.9,0-9.8,0-15,0C165,93.8,168.5,89.3,173.7,87.9z M231.5,320.5c4.9,0,10-0.1,14.9,0  c8.5,0.2,15.5,6.7,15.4,14.5c-41.4,0-82.7,0-124,0c0.2-7.5,6.7-14,14.6-14.2c8.8-0.2,17.6-0.1,26.4-0.1c1,0,1.9,0,2.9-0.2  c2.3-0.4,3.7-2.1,3.6-4.5c-0.1-2.4-1.6-3.9-4-4c-2.3-0.1-4.8,0-7.5,0c0.4-1.4,0.5-2.5,0.9-3.6c1.4-5.1,2.9-10.2,4.3-15.5  c0.4-1.3,0.8-2.2,2.4-2.2c12.3,0.1,24.6,0,37,0.1c0.7,0,1.9,0.7,2.1,1.3c1.9,6.3,3.7,12.6,5.6,19.3c-1.3,0.1-2.2,0.2-3.2,0.2  c-8,0.1-16.1,0-24.1,0.2c-3.3,0.1-5.1,2.2-4.5,5.1c0.5,2.6,2.5,3.4,4.9,3.4C209.9,320.6,220.7,320.5,231.5,320.5z M338.2,274.4  c0,6.2-1.7,7.9-7.7,7.9c-87,0-174.2,0-261.2,0c-6.1,0-7.7-1.7-7.7-7.9c0-52.5,0-105.1,0-157.6c0-6.6,1.5-8.2,8-8.2  c43.5,0,87,0,130.6,0c43.2,0,86.5,0,129.7,0c6.9,0,8.4,1.4,8.4,8.5C338.2,169.6,338.2,222,338.2,274.4z"></path>	<path class="st0" d="M313.7,118.8c-56.4,0.2-112.7,0.1-169,0.1c-0.9,0-1.7,0-2.6,0.1c-2.5,0.3-4.1,2-4.1,4.3s1.6,4,4.2,4.2  c1,0.1,1.9,0.1,2.9,0.1c15.6,0,31.2,0,46.8,0c1.1,0,2.2,0,3.5,0c0,21.7,0,43.1,0,64.6c-11.2,0-22.3,0-33.4,0  c-0.1-10.6-6.3-16.1-15.5-19.1c5.5-10.6,4.3-20.9-2.8-26.6c-5.6-4.6-14.6-4.5-20.2,0.1c-7,5.8-8.1,16.1-2.7,26.5  c-8.5,3.7-15.8,8.2-15.1,19.2c-8.5,0-16.8,0-25.2,0c-0.1-1-0.1-1.9-0.1-2.7c0-19.1,0-38.1,0-57.1c0-4,0.9-4.9,4.9-4.9  c11.6,0,23.2,0,34.7,0c1.8,0,3.6,0,5.5-0.1c2.5-0.2,3.8-1.7,3.8-4.2s-1.3-4-3.8-4.2c-0.7-0.1-1.5-0.1-2.2-0.1  c-12.6,0-25.3,0-37.9,0c-8.9,0-13.6,4.7-13.6,13.7c0,41.9,0,83.8,0,125.7c0,9.2,4.5,13.8,13.7,13.8c76.2,0,152.5,0,228.7,0  c9.2,0,13.7-4.6,13.7-13.8c0-41.7-0.1-83.4,0.1-125.2C328.1,124.5,322.9,118.8,313.7,118.8z M130.9,152.2  c4.9-1.8,11.1,1.3,10.6,8.8c0,6.7-4.6,10.6-10.2,8.7c-3.4-1.2-5.3-4-5.4-8.2C125.7,156.6,127.3,153.4,130.9,152.2z M119.1,183.4  c9.7-5.6,19.4-5.8,29.1-0.2c3.4,2,5.3,4.8,5,9.1c-13,0-25.8,0-38.8,0C114.2,188.1,115.7,185.3,119.1,183.4z M114.3,263.3  c-0.1-4.3,1.7-7.2,5.2-9.2c9.6-5.3,19.1-5.3,28.7,0.1c3.5,2,5.1,4.9,5.1,9.1C140.3,263.3,127.4,263.3,114.3,263.3z M126.3,228.4  c1.3-4.2,5.5-6.6,9.7-5.3c3.7,1.1,5.5,4,5.5,9c0,6.6-4.4,10.4-9.9,8.8C126.8,239.6,124.6,234.3,126.3,228.4z M195.4,263.4  c-11.2,0-22.1,0-33.3,0c-0.2-4.7-1-9.3-4.5-12.4c-3.1-2.9-7-5-10.7-7.5c5-10.1,4-20.2-3.1-26c-5.6-4.5-14.5-4.5-20-0.1  c-7.2,5.8-8.4,15.8-3,26.7c-8.3,3.7-15.5,8.3-15.1,19.3c-3,0-5.9,0-8.9,0c-4.1,0-8.2,0-12.3,0c-3,0-4.1-1.1-4.1-4  c0-19.1,0-38,0-57.1c0-0.4,0.1-0.7,0.2-1.3c38.2,0,76.4,0,114.8,0C195.4,221.9,195.4,242.4,195.4,263.4z M204.1,189.4  c0-19.6,0-39.2-0.1-58.9c0-2.3,0.6-3.1,3.1-3.1c35.7,0.1,71.4,0.1,107.1,0.1c4.2,0,5,0.9,5,5c0,19,0,37.9,0,56.8c0,0.8,0,1.7,0,2.8  c-26.1,0-51.9,0-77.5,0c1.3-1.3,2.9-2.4,4-3.8c1.8-2,3.7-4,4.9-6.3c2.4-4.2,5.8-5.3,10.4-5c6.6,0.4,13.2,0.2,19.8,0.1  c10.3-0.1,17.1-6.7,17.3-17c0.1-3.1,0.1-6.1-0.1-9.2c-0.6-8.5-7.2-14.9-15.6-15c-14.8-0.2-29.7-0.2-44.5,0  c-8.9,0.1-15.6,7.2-15.8,16c-0.1,3-0.1,5.9,0,8.9c0.2,7,3.5,12,9.9,14.8c1.7,0.8,2.3,1.6,2.2,3.4c-0.1,1.8-0.1,3.6-0.1,5.5  c0,3.3,0.9,6.2,4.4,7.6c-11.3,0-22.7,0-34.3,0C204.3,191.2,204.1,190.3,204.1,189.4z M236.9,168.3c-3.6-0.9-5.8-3.6-6-7.4  c-0.1-2.5,0-4.9,0-7.5c0-6,3-8.9,9.1-8.9c11.7,0,23.4,0,35,0c1.8,0,3.6,0,5.5,0c6.6,0,9.4,2.8,9.4,9.4c0,2,0,4,0,6  c-0.2,5.6-3.1,8.5-8.6,8.5c-7.9,0.1-15.9,0.3-23.8-0.1c-4.8-0.3-8.4,1-10.8,5.2c-0.8,1.4-2.1,2.7-3.6,4.6c-0.1-1.3-0.2-2-0.2-2.5  C242.6,169.8,242.5,169.7,236.9,168.3z M249.9,263.2c-0.2-4.1,1.5-7,5-9c9.6-5.4,19.2-5.4,28.9,0.1c3.4,1.9,5,4.9,4.9,9  C275.9,263.2,263,263.2,249.9,263.2z M261.8,228.5c1.2-4.3,5.4-6.7,9.6-5.4c3.8,1.1,5.7,4.1,5.7,9.2c-0.1,6.5-4.6,10.3-10.1,8.6  C262.3,239.6,260.1,234.3,261.8,228.5z M319.3,207.5c0,17,0,34.1,0,51.1c0,4-0.8,4.9-4.8,4.9c-5.3,0-10.5,0-15.8,0  c-0.3,0-0.5-0.1-1.2-0.2c0-10.3-6-16.1-15.6-19.2c3.8-5.6,4.6-11.5,3-17.7c-1-3.8-3-7-6.1-9.4c-5.8-4.3-14.7-3.9-20,0.8  c-6.7,5.9-7.7,16.2-2.3,26.3c-9,3.1-15.3,8.5-15.3,19.1c-12.3,0-24.5,0-36.8,0c0-20.8,0-41.4,0-62.1c38.3,0,76.4,0,115,0  C319.3,203.4,319.3,205.5,319.3,207.5z"></path>	<path class="st0" d="M198.7,79.9c2.4,0.4,3.3,1.4,3.8,3.8c0.4,2.3,2.2,3.2,4.5,3.1c2.2-0.2,3.6-1.5,3.8-4  c0.4-5.6-4.8-11.1-10.8-11.2c-1.9,0.1-4,0.8-4.3,3.5C195.3,77.5,196.4,79.5,198.7,79.9z"></path></g></svg>