<svg xmlns="http://www.w3.org/2000/svg" xmlns:xlink="http://www.w3.org/1999/xlink" id="Layer_1" x="0px" y="0px" viewBox="0 0 400 400" style="enable-background:new 0 0 400 400;" xml:space="preserve"><style type="text/css">	.st0{fill:#24224B;}</style><path class="st0" d="M227.8,160.9c-19.1-13.1-47-10.2-62.4,6.4c-14.8,16-16.1,44.6-2.8,61.6c13.2,16.9,39,23.2,57.4,12.9 c-6.6-6.2-13.1-12-19.3-18.1c-7.8-7.8-8.2-16.2-1.5-23c7-7.2,15.3-6.8,23.5,1.3c6.4,6.3,12.5,12.8,19.3,19.9 C252.7,199.3,246.3,173.6,227.8,160.9z M230.5,194.1c-8.1-7.9-15.7-9.6-20.7-9.6c-4.7,0-11.8,1.5-18.7,8.5 c-10.9,11.2-10.3,26.8,1.6,38.7c1.3,1.3,2.6,2.6,4,3.9c-10-0.9-19.5-5.9-25.4-13.4c-9.9-12.7-8.9-35.2,2.2-47.1 c6.5-7,16.4-11.1,26.9-11.1c7.8,0,15,2.2,21,6.3c9.6,6.6,14.7,17.6,14.5,29.5C234.2,197.8,232.3,195.9,230.5,194.1z"></path><path class="st0" d="M137.7,245.9c-16.2-19.2-20.3-51.3-9.2-76.4c11.2-25.5,30.2-40.7,58-46.4c0.1,1.1,0.1,2.2,0.1,3.2 c0,1.5,0,2.9,0,4.4c-24.4,6.7-43.6,23.6-51.8,45.6c-7.8,21-4.6,44.4,8.7,64.6C141.5,242.6,139.6,244.3,137.7,245.9z"></path><path class="st0" d="M201.1,277.6c-16.8,0-32.9-4.7-43.1-12.5l6-5.8c12,7.1,24.2,10.7,36.3,10.7c10.3,0,20.7-2.6,31.1-7.6 c0,0,0.1,0,0.1,0c0.8,0,2.1,0.4,2.9,0.9c1.6,1,3.1,2.2,4.6,3.6C230.2,273.7,216.4,277.6,201.1,277.6 C201.1,277.6,201.1,277.6,201.1,277.6z"></path><path class="st0" d="M354.2,198.4c0-1.1,0-2.3,0-3.4c-0.6-22.6-15.6-25.9-24.4-25.9h-0.2c-13.2,0-19.5-5-22.4-18 c-0.4-1.8-1.1-3.2-1.5-4l-0.1-0.3c-1.2-2.7-1-4.2,0.7-6.4c0.8-1,1.7-2.1,2.6-3.1c3.1-3.6,6.6-7.7,8.7-13.1c2.2-5.6,4.7-18.1-2-25.3 c-1.6-1.7-3-3.3-4.4-4.8c-7.2-8.1-13.4-15-23.4-15c-8.1,0-15.6,4.9-24.3,12.2l-0.8,0.7c-0.8,0.6-1.9,1.6-2.3,1.8 c-1.1,0.5-3.5,1.5-4.3,1.6c-12.7-0.2-22.6-9-24.1-21.4c-2.6-21.8-9.7-28.1-31.6-28.1c-1.9,0-4,0-6.1,0.1 c-14.4,0.7-22.2,7.7-24.5,22.1c-0.5,3.1-0.9,5.8-1.2,8.1c-0.6,4.1-1.3,8.8-1.9,9.8c-1.1,1.3-7.5,3.8-14.4,6.6l-3.4,1.4 c-0.7,0.3-1.3,0.5-1.9,0.8c-1,0.4-1.8,0.7-2.5,0.7c-0.4,0-1.6,0-3.7-1.7c-4.9-3.8-9.3-7.2-14.1-10.5c-4.3-2.9-9.1-4.4-13.7-4.4 c-6.3,0-12.1,2.8-16.3,8c-0.9,1.1-2.5,2.4-4.1,3.8c-5.9,4.8-16.8,13.8-11.4,30.2c1.1,3.3,3,5.8,4.3,7.5c0.2,0.3,0.4,0.6,0.7,0.9 c1.1,1.6,2.3,3,3.4,4.3c1.5,1.8,3.1,3.7,3.6,4.9c2.4,5.8,1.9,7.9,1.9,7.9c-4.7,18.8-11.3,22.5-20.6,22.5c-0.9,0-1.8,0-2.8-0.1 l-0.6,0h-0.5c-1.5,0-2.7,0.3-3.4,0.4c-12.8,2.1-20.7,10.9-20.7,23c0,1.4-0.1,3.1-0.3,4.8c-0.7,8.2-1.9,22,12.6,30.6 c3.2,1.9,6.5,2.4,8.7,2.7l0.5,0.1c2.2,0.3,4.3,0.6,6.5,0.9c2.8,0.4,5.5,0.7,8.1,1.2c1.5,0.3,5.8,4,9.4,11.1c3.6,7.1,4,12.7,3.4,14.1 c-0.2,0.4-0.9,1.3-1.5,2c-0.4,0.5-0.7,0.9-1,1.4c-0.9,1.2-1.8,2.4-2.8,3.5c-2.5,3.1-5.4,6.7-7.5,11c-0.7,1.4-6.4,13.5-0.4,22.2 c4.7,6.9,10.7,12.9,17.4,17.4c4.5,3.1,9.5,4.7,14.6,4.7c6,0,11.8-2.3,16.7-6.6c1.6-1.4,3.5-2.8,5.5-4.2c1.5-1.1,3.1-2.2,4.7-3.5 c1.5-1.2,2.4-1.3,3.1-1.3c0.8,0,1.7,0.2,2.8,0.7c3.1,1.3,5.7,2.4,8.1,3.3c5.1,2.1,10.4,4.2,11.3,5.2c0.7,1.1,1.4,6.1,2.1,11 c0.3,2.3,0.7,4.8,1.1,7.6l0,0.3c1.4,12.1,9.6,20.1,22,21.4c2.3,0.2,4.7,0.3,7.6,0.3c1.6,0,3.3,0,4.9-0.1c17.8-0.4,26.9-9,26.9-25.3 c0.1-12.9,4.7-18.8,17.1-21.8c2.1-0.5,3.8-1.3,5.1-1.9c1.1-0.5,2.1-0.8,2.9-0.8c0.4,0,1.7,0,4,1.8c3.7,3,8.1,6.4,12.8,9.6 c2.5,1.7,4.9,2.7,7.1,3.6c0.7,0.3,1.4,0.6,2.2,0.9l4.5,2.1l4.6-1.9c0.4-0.2,1-0.3,1.6-0.6c2.3-0.7,5.7-1.9,8.6-4.7 c1.9-1.9,3.7-3.5,5.3-5.1c7.4-7,13.3-12.6,14.1-21.1c0.9-9.2-5-17.4-12.1-26.4c-2.2-2.8-3.2-4.7-3.6-5.6c2.3-9.7,5.3-17.1,9-22.5 c1.9-1,7.3-2,10-2.5l1.6-0.3c8.9-1.6,17.3-3,22.8-9.3C353.9,216.4,354.3,208.6,354.2,198.4z M323.9,220.8 c-6.5,1.1-15.3,2.3-18.4,6.7c-5.8,8.1-9.2,18.4-11.4,28.2c-0.9,4,2.9,9.9,6,13.8c16.1,20.3,11.1,20.6-6.4,37.7 c-1.6,1.5-4.2,1.9-6.7,3c-2.7-1.3-5.5-2.2-7.8-3.8c-4.2-2.8-8.1-5.9-12.1-9c-5.7-4.6-11.8-5.5-18.5-2.4c-1,0.4-1.9,0.9-3,1.1 c-17.2,4.1-25.6,14.4-25.7,32.6c0,10.8-5,13.9-16,14.2c-3.7,0.1-7.4,0.2-11.1-0.2c-6.9-0.7-11.2-4.3-12-11.5c0-0.3-0.1-0.5-0.1-0.8 c-4.4-28.3-0.8-23.7-29.4-35.7c-6.1-2.6-11.8-2-17.1,2.2c-3.5,2.8-7.4,5.2-10.7,8.1c-5.7,5.1-12.2,4.7-17.6,1.1 c-5.6-3.8-10.6-8.9-14.4-14.5c-1.6-2.3-0.4-7.7,1.2-10.9c2.3-4.7,6.1-8.6,9.2-12.9c1.2-1.7,2.7-3.3,3.6-5.2c5.6-11.8-8-38.7-20.8-41 c-4.9-0.9-9.9-1.4-14.9-2.2c-1.8-0.3-3.8-0.5-5.3-1.4c-10.7-6.3-6.8-16.8-6.8-25.8c0-7,4.7-10.9,11.5-12c0.5-0.1,1.1-0.3,1.6-0.2 c22.3,1.9,30.6-12.8,35.1-30.8c1.1-4.5-0.5-10.3-2.4-14.9c-1.7-4.3-5.5-7.7-8.3-11.5c-1.2-1.7-2.8-3.4-3.4-5.3 c-4.2-12.7,7.9-16.4,13.6-23.5c4-5,9.8-4.8,15-1.3c4.6,3.1,9,6.5,13.4,10c5.5,4.3,11.4,5.3,17.8,2.4c0.5-0.2,1-0.4,1.5-0.6 c27.2-11,23.5-8.4,27.7-34.5c1.5-9.3,4.8-12.3,14-12.7c1.8-0.1,3.7-0.1,5.6-0.1c16.3,0,18.5,1.9,20.5,18.2c2.2,18,16.6,31,35.1,31.2 c3,0,6.1-1.3,9-2.6c2.1-0.9,4-2.6,5.8-4.2c19.6-16.6,21.4-10,36.7,6.7c2.3,2.5,1.5,9.6-0.1,13.6c-2,5-6.3,9.1-9.7,13.4 c-4.4,5.6-5,11.5-2.1,17.8c0.3,0.7,0.7,1.4,0.9,2.2c4,17.9,14.6,26.8,33.5,26.7c9.8,0,13,4.9,13.3,15.1c0,1.1,0,2.1,0,3.2 C343.1,216.3,341.7,217.6,323.9,220.8z"></path><path class="st0" d="M260.9,234.2c9.5-17.3,12-33.7,7.4-50.3c-6.7-24.3-22.2-41.2-46.1-50.4l-0.6-0.2c-4.1-1.6-7.1-2.7-7.6-3.7 c-0.5-0.9-0.4-3.3-0.1-6.5c26.3,5.1,44.6,18.9,56.1,42.2c12.3,25.1,11.3,49.7-3.2,75L260.9,234.2z"></path></svg>