<svg xmlns="http://www.w3.org/2000/svg" xmlns:xlink="http://www.w3.org/1999/xlink" id="Layer_1" x="0px" y="0px" viewBox="0 0 400 400" style="enable-background:new 0 0 400 400;" xml:space="preserve"><style type="text/css">	.st0{fill:#24224B;}</style><g>	<path class="st0" d="M291.8,246.4c-0.1-11.2-0.1-22.5-0.1-33.5l0-1.4c0-3.8,0-7.5,0-11.3c0-3.8,0-12.7,0-12.7c0-11.3,0-23,0.1-34.6  c0-4.1-1.5-6.8-4.9-8.7c-24.4-14-50.4-29-82.1-47.3c-1.6-0.9-3.2-1.4-4.7-1.4c-1.5,0-3.1,0.5-4.7,1.4c-29.4,17-56.3,32.6-82.4,47.6  c-3.2,1.8-4.7,4.4-4.7,8.1c0,31.4,0,63.3,0,94.9c0,3.7,1.5,6.3,4.7,8.2c30.6,17.6,57.4,33.1,82.1,47.4c1.8,1,3.4,1.5,5,1.5  c1.7,0,3.4-0.5,5.3-1.6c24.1-14,52.5-30.4,80.9-46.6C290.2,254,291.9,251,291.8,246.4z M192.8,272.6l0,12.4L172,273  c-15.6-9-31.2-18-46.8-27c-0.3-0.2-0.5-0.3-0.7-0.4l-1.8-1.2l0-2.2c0.1-19.2,0.1-38.8,0.1-57.7v-20.7l14.7,8.5  c17.4,10,35.3,20.4,52.9,30.6l0.2,0.1c0.3,0.2,0.7,0.5,1,0.9l1.1,1.1l0,1.6C192.8,228.5,192.8,249.9,192.8,272.6z M202.3,190.4  c-0.1,0.1-0.3,0.2-0.4,0.2l-2,1.1l-1.9-1.1c-17-9.9-34.3-19.9-51-29.5l-16.9-9.8l7.3-4.2c5.1-3,10.2-5.9,15.2-8.8l8.1-4.7  c12.1-7,24.6-14.2,37.1-21.3l0.2-0.1l0.2-0.1c0.5-0.2,0.9-0.3,1.2-0.4l1.4-0.3l1.3,0.7c20.2,11.5,40.5,23.2,60.1,34.5l7.9,4.5  l-20.4,11.8C233.8,172.2,218,181.3,202.3,190.4z M277.2,241.8l0,0.4l-0.1,0.4c-0.1,0.6-0.4,1.2-0.5,1.5l-0.5,1.1l-1,0.6  c-19.1,11.2-38.6,22.4-57.5,33.3l-10.4,6l0-29.8c0-15.9,0-32.3,0.1-48.3l0-0.2l0-0.2c0-0.4,0.1-0.8,0.3-1.2l0.5-1.4l1.3-0.7  c19.6-11.5,39.6-23,58.9-34.1l9-5.2l0,12.7C277.3,198,277.3,220.1,277.2,241.8z"></path>	<path class="st0" d="M49.9,103.1l0,4h0l0,8.5c0,6.3,0,12.8,0,19.2c0,4.3,3,7.4,7.1,7.4H57c4,0,7-3,7.2-7.3c0-0.7,0-1.4,0-2.1l0-0.8  c0-4.5,0-9,0.1-13.6c0.1-10.2,0.2-20.8-0.2-31.2c-0.3-6.5,1.9-12.4,5.9-16.6c4.1-4.3,9.7-6.5,16.3-6.5c0.4,0,0.7,0,1.1,0  c5.5,0.2,11.4,0.3,18.5,0.3c5,0,10.1,0,15-0.1c4.4,0,8.8-0.1,13.1-0.1c4.9,0,8.1-2.8,8.2-7.1c0.1-1.9-0.6-3.7-1.9-5  c-1.4-1.5-3.6-2.3-6.1-2.3c-3.9,0-7.9,0-11.8,0l-0.6,0c-5.5,0-11,0-16.5,0c-8.6,0-15.7,0.1-22.3,0.2C65.4,50.3,50.5,65.1,50,83  c-0.2,5.7-0.1,11.5-0.1,17.1L49.9,103.1z"></path>	<path class="st0" d="M265.9,64.3c6.4,0,12.8,0,19.2,0l19.7,0l9.1,0c13.5,0,21.9,8.4,21.9,21.8c0,7.8,0,15.6,0,23.4  c0,8.1,0,16.1,0,24.2c0,5.2,2.7,8.5,7.1,8.6l0.2,0c4.3,0,7.1-3.3,7.1-8.4c0-6,0-12.1,0-18.1l0-8.3l-0.1,0l0.1-7.4  c0.1-5.9,0.1-12.1-0.1-18.1c-0.6-16.7-14.7-31.2-30.8-31.9c-7-0.3-14.6-0.4-23.9-0.4c-5.2,0-10.3,0-15.5,0.1l-0.4,0  c-4.9,0-9.7,0.1-14.6,0.1c-3.6,0-6.1,2.2-6.9,5.9c-0.4,2.1,0,4,1.3,5.6C260.7,63.3,263.1,64.3,265.9,64.3z"></path>	<path class="st0" d="M134,335.8c-5.7,0-11.3,0-17,0l-19.1,0c-4,0-8,0-11.9,0c-13.4,0-21.7-8.3-21.7-21.6c0-7.6,0-15.2,0-22.9  c0-8.4,0-16.7,0-25.1c0-5.1-2.8-8.4-7.2-8.4l-0.1,0c-4.3,0-7.1,3.3-7.1,8.2l0,10.6c0,12.7-0.1,25.8,0.1,38.8  c0.2,20,15,34.6,35.1,34.8c2.9,0,5.8,0,8.6,0c2.3,0,4.6,0,6.8,0l0.5,0c2.4,0,4.8,0,7.2,0l15.2,0c3.7,0,7.4,0,11.1,0  c4.4,0,7.2-2.3,7.8-6.2c0.3-2.1-0.2-4-1.5-5.5C139.2,336.7,136.8,335.8,134,335.8z"></path>	<path class="st0" d="M350.2,304.1c0-1.6,0-3.2,0-4.8l0-7.4c0-8.6,0-17.5,0-26.4c0-4.6-3-7.9-7-7.9c-0.4,0-0.8,0-1.2,0.1  c-3.9,0.7-6.1,3.7-6.2,8.2c0,8.1,0,16.1,0,24.2c0,7.9,0,15.9,0,23.8c0,13.3-8.3,21.7-21.7,21.7c-5,0-10,0-14.9,0l-19.5,0  c-4.4,0-8.8,0-13.2,0c-2.9,0-5.3,0.9-6.8,2.5c-1.2,1.3-1.9,3-1.8,4.9c0.1,4.3,3.4,7,8.6,7c3.5,0,6.9,0,10.4,0l15.2,0l3.5,0l4.2,0  c2.6,0,5.1,0,7.7,0c3.5,0,6.5,0,9.2-0.1c18.3-0.4,33-15,33.6-33.3C350.2,312.6,350.2,308.3,350.2,304.1z"></path></g></svg>