<svg xmlns="http://www.w3.org/2000/svg" xmlns:xlink="http://www.w3.org/1999/xlink" id="Layer_1" x="0px" y="0px" viewBox="0 0 400 400" style="enable-background:new 0 0 400 400;" xml:space="preserve"><style type="text/css">	.st0{fill:#24224B;}</style><g>	<path class="st0" d="M346.4,119.7c-1.6-4.3-5.7-7.3-10.5-7.5c-0.4,0-0.8,0-1.2,0c-57.6,0-115.3,0-172.9,0h-1.6  c-0.8-4-2-7.7-4.2-11.1c-5.7-9.1-14-14.3-24.6-15.9c-0.4-0.1-0.7-0.2-1.1-0.3h-6.5c-1.7,0.3-3.4,0.6-5,1c-13,3.6-21.3,11.8-24.6,25  c-0.1,0.3-0.1,0.6-0.2,0.9c0,0,0,0.1-0.2,0.3h-1.3c-8.5,0-16.9,0-25.4,0c-7.4,0-12.3,3.8-13.9,11.1c0,0.2-0.1,0.4-0.2,0.5v179.6  c0.1,0.4,0.2,0.7,0.3,1.1c1.2,4.9,4.2,8.2,8.9,9.8c0.4,0.1,0.7,0.2,1.1,0.5h273.5c0-0.1,0-0.1,0-0.2c0.4-0.1,0.9-0.3,1.3-0.4  c4.2-1.5,7-4.4,8.4-8.6c0.1-0.5,0.3-0.9,0.5-1.4V121.5C346.8,120.9,346.6,120.3,346.4,119.7z M104.1,183c0-21.8,0-43.5,0-65.3  c0-11.4,8.2-20.5,19.7-22.3c10.9-1.6,21.8,4.9,25.1,15.3c0.7,2.2,1.1,4.5,1.1,6.8c0.1,43.6,0.1,87.2,0,130.8  c0,12.3-10.2,22.2-22.8,22.3c-12.7,0.1-23.1-9.7-23.1-22.1C104,226.7,104.1,204.8,104.1,183C104.1,183,104.1,183,104.1,183z   M337,300.9c0,3-1,4-4,4c-88.6,0-177.2,0-265.8,0c-3,0-4-1-4-3.9V126.5c0-3.2,0.9-4.1,4.1-4.1h26.2v125.5c0,19.8,16,34.9,35.7,33.8  c16-0.9,29.6-14.1,31-30c0.1-1.6,0.2-3.2,0.2-4.8c0-40.8,0-81.6,0-122.4v-2.1h173.5c2.6,0,2.9,0.2,2.9,2.8V300.9z"></path>	<path class="st0" d="M298,136.3c-30,0.1-60,0.1-90,0.1c-7.7,0-13.1,5.5-13.1,13.2c0,14.7,0,29.4,0,44.1c0,8.5,5.2,13.7,13.8,13.7  c14.8,0,29.6,0,44.4,0c14.9,0,29.9,0,44.8,0c8.3,0,13.6-5.3,13.6-13.6c0-14.6-0.1-29.2,0.1-43.8C311.8,142,305.7,136.3,298,136.3z   M301.4,194c0,2.3-0.8,3.1-3.1,3.1c-15,0-30,0-45,0c-14.9,0-29.8,0-44.7,0c-2.8,0-3.5-0.7-3.5-3.6c0-14.5,0-29.1,0-43.6  c0-2.6,0.8-3.4,3.4-3.4c29.8,0,59.7,0,89.5,0c2.5,0,3.4,0.8,3.4,3.3C301.4,164.5,301.4,179.3,301.4,194z"></path>	<path class="st0" d="M262,271.2c-3.9-3-13.2-3.1-17.2-0.1c-3.4,2.5-4.2,6-4,10c0.2,4.8,3.4,8.8,8.1,9.6c1.4,0.2,2.9,0,4.4,0  c0,0,0,0.1,0,0.1c0.7,0,1.4,0,2.1,0c4.7,0,8.6-2.5,9.8-6.7C266.6,279.6,265.9,274.3,262,271.2z M259.7,281.4  c-0.2,1.9-1.7,3.3-3.8,3.4c-1.7,0.1-3.4,0.1-5.1,0c-2.3-0.1-3.7-1.6-3.8-3.8c0-0.6,0-1.2,0-1.8c0.1-2.4,1.6-3.9,4-3.9  c0.8,0,1.6,0,2.4,0c0.8,0,1.6,0,2.4,0c0.4,0,0.8,0,1.2,0.1C259.1,275.9,260,278,259.7,281.4z"></path>	<path class="st0" d="M293.5,269.4c-3-0.4-6.2-0.4-9.2,0c-4.1,0.6-6.7,3.4-7.5,7.5c-0.4,1.9-0.4,3.9-0.1,5.8c0.6,4.2,3.8,7.3,7.9,8  c1.4,0.2,2.9,0,4.4,0c0,0,0,0.1,0,0.1c0.9,0,1.9,0,2.8,0c4.4-0.1,8.3-3.1,9.3-7.4c0.3-1.5,0.3-3,0.3-4.5  C301.4,274.2,298.2,270,293.5,269.4z M295.3,281.2c-0.1,1.9-1.5,3.4-3.4,3.5c-2,0.1-4,0-6,0c-0.2,0-0.5-0.1-0.7-0.1  c-2.1-0.7-3-2.8-2.6-6.1c0.2-1.9,1.8-3.2,3.7-3.3c0.9,0,1.8,0,2.6,0c0,0,0,0,0,0c0.9,0,1.9,0,2.8,0c1.9,0.1,3.4,1.6,3.5,3.5  C295.4,279.6,295.4,280.4,295.3,281.2z"></path>	<path class="st0" d="M222.1,269.4c-2.3-0.4-4.8-0.3-7.2-0.2c-4.5,0-8.5,3.1-9.5,7.5c-0.4,1.7-0.4,3.6-0.2,5.4  c0.3,4.2,3.4,7.6,7.5,8.5c1.6,0.3,3.2,0.3,4.8,0.4c0,0,0-0.1,0-0.1c0.9,0,1.9,0,2.8,0c4.3-0.1,8.2-2.9,9.3-7  c0.5-1.8,0.5-3.8,0.4-5.7C229.8,273.7,226.5,270.1,222.1,269.4z M223.9,281.7c-0.3,1.8-1.7,2.9-3.5,3c-1.9,0.1-3.7,0.1-5.6,0  c-1.6-0.1-3.1-1-3.3-2.6c-0.2-1.4-0.2-2.9,0-4.3c0.3-1.5,1.7-2.5,3.3-2.6c1-0.1,2,0,2.9,0c0,0,0,0,0,0c0.3,0,0.7,0,1,0  C223.8,274.8,224.5,278.2,223.9,281.7z"></path>	<path class="st0" d="M221.2,213.5c-1.2-0.1-2.3,0-3.5,0c0,0,0,0,0,0c-1.1,0-2.2,0-3.2,0c-4.4,0.2-8.2,3.3-9.1,7.7  c-0.3,1.7-0.3,3.5-0.2,5.3c0.4,4.5,3.8,8.1,8.3,8.6c2.7,0.3,5.5,0.3,8.2,0c4.1-0.4,7.4-3.6,8.1-7.6c0.3-1.9,0.3-4,0.1-6  C229.3,217.2,225.5,213.8,221.2,213.5z M224,225.4c-0.2,2.1-1.7,3.6-3.8,3.7c-0.9,0-1.8,0-2.6,0c-0.3,0-0.7,0-1,0  c-4.9,0.3-5.7-2.7-5.2-6.4c0.2-1.8,1.7-3.1,3.6-3.2c1.8-0.1,3.5-0.1,5.3,0c2.2,0.1,3.7,1.6,3.8,3.9  C224.1,224,224.1,224.7,224,225.4z"></path>	<path class="st0" d="M221.7,241.4c-2.7-0.3-5.5-0.3-8.2,0c-3.2,0.3-5.6,2.2-7.2,5c-1.4,2.4-1.4,5.1-1.1,7.7  c0.4,4.1,3.2,7.5,7.3,8.5c1.6,0.4,3.4,0.4,5.1,0.5c0,0,0-0.1,0-0.1c1,0,2.1,0,3.1,0c4.3-0.2,8-3.1,9-7.3c0.4-1.7,0.4-3.6,0.3-5.4  C229.7,245.7,226.3,242,221.7,241.4z M223.9,253.8c-0.3,1.8-1.7,3-3.7,3.1c-0.9,0-1.8,0-2.6,0c0,0,0,0,0,0c-0.3,0-0.7,0-1,0  c-4.9,0.3-5.7-2.6-5.2-6.4c0.2-1.9,1.8-3.2,3.8-3.2c1.7,0,3.4,0,5.1,0c1.9,0.1,3.4,1.3,3.7,3.1  C224.1,251.6,224.1,252.7,223.9,253.8z"></path>	<path class="st0" d="M240.8,253.3c0.1,5.4,4.3,9.5,9.7,9.7c0.9,0,1.9,0,2.8,0c0,0,0,0,0,0c1.1,0,2.2,0.1,3.2,0  c4-0.2,7.7-2.9,8.7-6.8c0.5-2,0.7-4.3,0.4-6.4c-0.5-4.7-4.1-8.1-8.9-8.5c-2.3-0.2-4.6-0.2-6.9,0c-4.6,0.4-8,3.6-8.9,7.9  C240.8,250.6,240.8,252,240.8,253.3z M247,251c0.1-2,1.6-3.4,3.6-3.6c0.9-0.1,1.9,0,2.8,0c0.9,0,1.8,0,2.6,0  c2.1,0.1,3.6,1.7,3.7,3.8c0,0.6,0,1.2,0,1.8c0,2.4-1.5,4-3.9,4c-1.7,0.1-3.3,0.1-5,0c-2.3-0.1-3.8-1.6-3.8-3.9  C246.9,252.3,246.9,251.6,247,251z"></path>	<path class="st0" d="M293.2,241.5c-2.8-0.3-5.7-0.3-8.5,0c-3.9,0.4-7.3,3.6-7.9,7.4c-0.3,2-0.4,4.1-0.1,6.1  c0.7,4.2,3.4,6.8,7.5,7.7c1.5,0.4,3.1,0.2,4.7,0.3c0,0,0-0.1,0-0.1c1.1,0,2.3,0.1,3.4,0c4.2-0.3,7.9-3.3,8.8-7.4  c0.3-1.5,0.3-3.1,0.3-4.7C301.4,246.2,297.9,242,293.2,241.5z M295.2,254c-0.2,1.7-1.8,2.9-3.7,3c-1.7,0.1-3.4,0.1-5.1,0  c-2.3-0.1-3.8-1.7-3.8-4c0-0.6,0-1.2,0-1.8c0.1-2.2,1.6-3.7,3.8-3.8c0.9,0,1.8,0,2.6,0c0,0,0,0,0,0c0.3,0,0.6,0,0.9,0  C295.4,247,295.7,250.3,295.2,254z"></path>	<path class="st0" d="M249.1,235c2.7,0.3,5.4,0.3,8.1,0c3.8-0.4,6.4-2.6,7.9-6c1-2.4,1-4.9,0.6-7.4c-0.7-4-3.7-7.2-7.6-8  c-1.5-0.3-3.1-0.2-4.7-0.3c0,0,0,0.1,0,0.1c-0.9,0-1.9,0-2.8,0c-4.7,0.1-8.6,3.3-9.5,7.9c-0.3,1.4-0.2,2.9-0.2,4.4  C241,230.4,244.5,234.4,249.1,235z M247.1,222.4c0.2-1.6,1.7-2.8,3.4-2.9c1.8-0.1,3.7-0.1,5.6,0c2.1,0.1,3.6,1.7,3.6,3.9  c0,0.6,0,1.3,0,1.9c-0.1,2.1-1.6,3.7-3.7,3.8c-0.9,0-1.9,0-2.8,0c0,0,0,0,0,0c-0.3,0-0.6,0-0.9,0  C246.9,229.4,246.6,226.1,247.1,222.4z"></path>	<path class="st0" d="M293.6,213.6c-1.5-0.3-3-0.2-4.5-0.3c0,0,0,0.1,0,0.1c-1.1,0-2.2,0-3.2,0c-4.2,0.2-7.9,3.1-8.9,7.1  c-0.4,1.6-0.4,3.4-0.4,5.1c0.1,4.7,3.7,8.8,8.4,9.3c2.7,0.3,5.4,0.3,8.1,0c4.4-0.5,7.7-3.9,8.4-8.2c0.2-1.2,0.1-2.4,0.1-3.7  C301.4,218.5,298.1,214.5,293.6,213.6z M295.3,225.3c-0.1,2.1-1.6,3.6-3.7,3.8c-0.9,0-1.8,0-2.6,0c-0.9,0-1.8,0-2.6,0  c-2.1-0.1-3.6-1.6-3.7-3.8c0-0.6,0-1.3,0-1.9c0.1-2.2,1.5-3.8,3.7-3.9c1.8-0.1,3.5-0.1,5.3,0c2.2,0.1,3.7,1.7,3.7,3.9  C295.3,224.1,295.3,224.7,295.3,225.3z"></path></g></svg>