<svg xmlns="http://www.w3.org/2000/svg" xmlns:xlink="http://www.w3.org/1999/xlink" id="Layer_1" x="0px" y="0px" viewBox="0 0 400 400" style="enable-background:new 0 0 400 400;" xml:space="preserve"><style type="text/css">	.st0{fill:#24224B;}</style><g>	<path class="st0" d="M272.4,89.8c-3.5,0-6.3,2.8-6.3,6.3v44.1c0,3.5,2.8,6.3,6.3,6.3c3.5,0,6.3-2.8,6.3-6.3V96.1  C278.7,92.7,275.9,89.8,272.4,89.8z"></path>	<path class="st0" d="M305.5,89.8c-3.5,0-6.3,2.8-6.3,6.3v44.1c0,3.5,2.8,6.3,6.3,6.3s6.3-2.8,6.3-6.3V96.1  C311.8,92.7,309,89.8,305.5,89.8z"></path>	<path class="st0" d="M289.3,62l-0.5,0c-30.8,0.3-55.9,25.4-56,56c0,30.4,25.7,56.1,56.1,56.1l0.7,0c30.3-0.3,55.7-26.2,55.4-56.5  C344.7,87.5,319.2,62,289.3,62z M289.3,166c-0.5,0-1,0-1.6,0c-13.1-0.4-25.2-5.8-34-15.2c-8.6-9.3-13.1-21.4-12.6-34.2  c1-26,22-46.3,47.7-46.3c0.5,0,0.9,0,1.4,0c13,0.4,25,5.8,33.9,15.3c8.8,9.4,13.3,21.6,12.7,34.4C335.8,145.7,314.9,166,289.3,166z  "></path>	<path class="st0" d="M229,151.6c-12.5,3.1-24.9,6.3-37.4,9.5c-16.3,4.2-32.7,8.3-49.1,12.4l-2.5,0.6v-36.9l1.5-0.4  c13.4-3.4,26.7-6.8,40.1-10.2c12.9-3.2,25.7-6.5,38.6-9.8c0.1-3.8,0.5-7.7,1.2-11.6c-32.2,8.2-64.1,16.2-91.1,23  c-1.3,0.4-1.4,0.4-1.4,1.9c0.1,42.9,0.1,86.5,0.1,128.7v7.5l-3.2-2.6c-1.1-0.8-1.7-1.3-2.2-1.6l-0.1-0.1c-7.9-6-16.5-9-25.5-9  c-3,0-6,0.3-9.1,1c-22.4,4.8-36.4,24.8-33.4,47.6c2.7,20.7,21,36.4,42.4,36.4c0,0,0,0,0,0c8.7,0,17.1-2.7,24.2-7.9  c12-8.9,17.9-20.6,17.9-35.9c0-34.2,0-69.6-0.1-104.4c0-3.2,1.3-4.8,4.3-5.5c30.5-7.6,61.5-15.5,91.5-23.1  C233,157.9,230.8,154.8,229,151.6z M97.3,327.1C80,327,65.9,312.9,65.8,295.5c0-17.4,14.1-31.5,31.5-31.5l0.2,0  c17.3,0.1,31.4,14.2,31.4,31.5C128.9,313,114.7,327.1,97.3,327.1z"></path>	<path class="st0" d="M276,227.9h-1.9c-0.1,0-0.3,0-0.4,0c-0.5,0-0.9-0.2-1.3-0.4c-0.3-0.2-0.6-0.4-0.9-0.7  c-0.3-0.2-0.5-0.4-0.8-0.6l-0.1-0.1c-7.9-6-16.5-9-25.5-9c-3.3,0-6.6,0.4-10,1.2c-22.2,5.3-35.6,24.9-32.5,47.8  c2.7,20.2,21,36,41.5,36l0.5,0c23.6-0.3,42.1-18.8,42.2-42.2c0.1-24.3,0.1-49.1,0.1-73.1c-3.7-0.1-7.3-0.5-11-1.2V227.9z   M245,291.2c-0.3,0-0.5,0-0.8,0c-16.4,0-30.7-13.9-31.1-30.2c-0.3-8.7,2.8-16.9,8.6-23c5.8-6.1,13.8-9.6,22.4-9.8  c0.3,0,0.5,0,0.8,0c16.5,0,30.8,14,31.2,30.6C276.5,276.4,262.9,290.7,245,291.2z"></path></g></svg>