<svg xmlns="http://www.w3.org/2000/svg" xmlns:xlink="http://www.w3.org/1999/xlink" id="Layer_1" x="0px" y="0px" viewBox="0 0 400 400" style="enable-background:new 0 0 400 400;" xml:space="preserve"><style type="text/css">	.st0{fill:#24224B;}</style><g>	<path class="st0" d="M270.3,159.4c-0.8-1.8-1.2-3.8-1.4-5.7c-1-6.9-1.3-13.9-2.8-20.7C249.3,58.8,164.9,22.4,100,62.1  C60,86.6,42.6,123.6,46.6,170.2c1.8,20.4,9.6,38.8,22.2,55c6.1,7.8,9,16.5,8.9,26.5c-0.2,30-0.1,60.1-0.1,90.1  c0,8.3,4.1,12.4,12.5,12.4c30.6,0,61.2,0,91.8,0c8.3,0,12.4-4.1,12.4-12.5c0-13.1,0-26.2,0-39.2c0-5,1.8-6.8,6.8-6.8  c10,0,20,0.1,29.9,0c11.2-0.1,19.6-7,21.3-18c0.7-4.9,0.7-10,0.3-14.9c-0.4-5.4-4.9-9-10.4-9.3c-2.1-0.1-4.2,0-6.3-0.1  c-6.4-0.3-12.6-5.2-13.6-10.9c8,0,16,0,23.9,0c7.7,0,11.9-4.2,11.9-11.9c0-4.7,0-9.5,0-14.7c7,0,13.4,0,19.8,0  c9.7,0,14.5-7.5,10.5-16.2C282.4,186.2,276.3,172.9,270.3,159.4z M210.4,157.7c0,28.7-24,52.8-52.7,52.9  c-29.4,0.1-53.4-23.8-53.5-53.1c0-29.1,24.1-53.1,53.2-53C186.6,104.5,210.4,128.4,210.4,157.7z M134.1,253.2  c-2.4,2.2-3.3,4.7-3.3,7.9c0.1,26.2,0.1,52.3,0.1,78.5c0,1.3,0,2.6,0,4.1c-3.8,0-7.1,0-11,0c0-3.1,0-6.2,0-9.3c0-4-2.1-6.5-5.2-6.5  c-3.1,0-5.1,2.5-5.1,6.5c0,2.8,0,5.5-0.1,8.3c0,0.2-0.1,0.4-0.3,0.9c-6.8,0-13.8,0-21.3,0c0-1.2,0-2.4,0-3.7  c0-28.6-0.2-57.2,0.1-85.8c0.1-13.6-3.9-25.4-12-36.4c-44.8-60-10.6-146.5,63.1-160c4.1-0.8,8.3-1.1,12.8-1.6  c0.1,1.3,0.3,2.3,0.3,3.2c0,10.5-0.1,21.1,0.1,31.6c0,2.4-0.7,3.2-3.1,3.5c-28.5,3.4-51.3,26.2-54.9,54.9  c-4.4,35,20.2,67,54.9,71.1c2.4,0.3,2.9,1.2,3.2,3.5c1.1,7.9-1.2,14.1-7.7,19C140.7,246,137.7,249.9,134.1,253.2z M260.6,205.6  c-8.7,0-12.6,4-12.6,12.6c0,4.5,0,9,0,14c-3.5,0-6.6,0-9.8,0c-6.9,0-13.7,0-20.6,0c-5.3,0-7.4,2.6-6.6,7.8  c2.2,14.5,12.8,23.7,27.4,23.8c1.3,0,2.6,0,4.2,0c0,4.5,0.3,8.7-0.1,12.8c-0.5,5-5.3,8.8-10.5,8.8c-10.1,0.1-20.2,0-30.3,0  c-11.1,0-17.5,6.5-17.6,17.6c0,12.3,0,24.6,0,36.9c0,1.2,0,2.4,0,3.8c-7.2,0-14.1,0-21.6,0c0-3,0-6,0-9.1c0-4-1.9-6.5-5-6.6  c-3.2-0.1-5.2,2.5-5.3,6.7c0,2.9,0,5.8,0,9c-3.8,0-7.1,0-10.8,0c-0.1-1.2-0.2-2.2-0.2-3.3c0-25.6-0.1-51.2,0.1-76.8  c0-1.7,1-3.8,2.2-5.1c5.2-5.6,10.7-10.9,16.2-16.3c2.1-2,3-4.2,2.9-7.1c-0.1-3.9,0.1-7.8-0.1-11.6c-0.1-2,0.7-2.8,2.6-2.9  c25.3-2.5,49.4-22.4,55.1-51.8c6.4-33-16.8-67.4-49.8-73.6c-0.8-0.1-1.5-0.3-2.3-0.4c-5.6-1.1-5.6-1.1-5.6-6.9c0-9.2,0-18.4,0-27.6  c0-1.2,0-2.4,0-3.8c8.7,0.3,16.8,1.5,24.5,4.2c40.2,13.7,63.6,41.7,70.8,83.4c0.4,2.2,0.8,4.4,0.6,6.6c-0.6,6.3,1.8,11.6,4.3,17.1  c5.3,11.3,10.4,22.7,15.6,34.1c0.5,1.1,0.9,2.2,1.5,3.8C273.1,205.6,266.8,205.6,260.6,205.6z"></path>	<path class="st0" d="M348.5,242.9c-15.7-0.1-31.4-0.1-47.1,0.1c-1.6,0-3.7,1.2-4.6,2.6c-2.4,3.3,0.3,7.5,5,7.6  c7.6,0.1,15.3,0,22.9,0c7.9,0,15.7,0.1,23.6,0c3.4,0,5.8-2.2,5.8-5.1C354,245.2,351.7,242.9,348.5,242.9z"></path>	<path class="st0" d="M335.4,280.9c-7.6-4.6-15.4-9.1-23.2-13.5c-2.5-1.4-5.3-0.5-6.6,1.7c-1.4,2.3-0.7,5.3,1.7,7  c1.7,1.2,3.6,2.1,5.4,3.2c5.7,3.3,11.4,6.7,17.2,9.9c3.8,2.1,7.9,0,8.1-4.9C337.5,283.6,336.8,281.7,335.4,280.9z"></path>	<path class="st0" d="M312.7,228.2c7.6-4.3,15.2-8.6,22.6-13.1c1.3-0.8,2.1-2.6,2.7-3.3c0.1-4.9-4.1-7.3-7.8-5.2  c-7.5,4.2-14.9,8.5-22.4,12.9c-2.8,1.6-3.6,4.6-2.3,7.1C306.8,228.9,309.8,229.8,312.7,228.2z"></path>	<path class="st0" d="M147.2,181.8c3.5,3.4,6.5,3.4,9.6-0.3c10.3-11.9,20.5-23.9,30.7-35.8c2.5-2.9,2.4-6.2,0.1-8.3  c-2.4-2.2-5.8-1.7-8.4,1.3c-3.2,3.7-6.3,7.4-9.5,11.1c-5.9,6.9-11.8,13.7-18.1,21c-5.6-5.6-10.8-10.9-16-16.1  c-3.1-3.1-6.3-3.3-8.7-0.9c-2.3,2.4-2,5.5,0.9,8.5C134.2,168.8,140.7,175.3,147.2,181.8z"></path></g></svg>