<svg xmlns="http://www.w3.org/2000/svg" xmlns:xlink="http://www.w3.org/1999/xlink" id="Layer_1" x="0px" y="0px" viewBox="0 0 400 400" style="enable-background:new 0 0 400 400;" xml:space="preserve"><style type="text/css">	.st0{fill:#24224B;}</style><g>	<path class="st0" d="M344.8,185.6c-2.4-14.1-7.1-27.3-13.7-40c-0.7-1.4-0.7-3.2-0.8-4.8c-0.1-1.3,0.1-2.7,0.1-4  c0-21.8-0.2-43.6,0.1-65.5c0.1-9.1-2.9-15.3-11.6-18.4c-31.8,0-63.5,0-95.3,0c-5.7,2.1-10.1,5.5-11.3,11.8  c-0.4,2.4-0.3,4.9-0.4,7.6c-3.7,0.2-7.4,0.3-11.1,0.6c-33.5,2.4-62.4,15.3-86.6,38.6c-1.6,1.6-3.2,2.3-5.5,2.2  c-3.4-0.2-6.9-0.1-10.3,0c-4,0-5.9,1.4-5.9,4.2c0,2.9,2,4.4,6.1,4.4c17.8,0,35.6,0,53.4,0c10.2,0,10.9,0.7,10.9,10.8  c0,21.3,0,42.7,0,64c0,6.3-1.7,8-8,8c-2,0-4-0.1-6,0c-6.7,0.2-11.2,4.9-11.4,11.6c0,3,0,5.9,0,9.5c-1.1-0.8-2-1.3-2.8-1.8  c-7.2-5.2-14.5-10.3-21.6-15.6c-3.4-2.5-6.9-3.7-11.2-3.6c-11,0.1-22,0.1-33,0c-5.2,0-7.3-2.1-7.3-7.3c0-22.8,0-45.5,0-68.3  c0-5.1,2.1-7.2,7.1-7.2c2.5,0,5,0.1,7.5,0c2.9-0.1,4.6-1.9,4.6-4.4c-0.1-2.5-1.8-4-4.6-4.1c-2.7-0.1-5.4,0-8,0  c-7.3,0.1-12.2,3.6-14.6,10.6c-0.1,0.3-0.4,0.6-0.5,0.9c0,25.6,0,51.3,0,76.9c2,5.7,5.5,10.1,11.7,11.3c2.5,0.5,5.1,0.3,7.6,0.4  c0.8,6.6,1.3,13.1,2.4,19.5c9.4,54.7,51.2,98.4,105.3,110.2c6.2,1.4,12.6,1.9,19,2.9c0.7,0.1,1.5,0.3,2.2,0.5c5.7,0,11.5,0,17.2,0  c6.4-0.9,12.9-1.6,19.2-2.9c27.6-5.7,51.1-18.8,70.8-38.9c2.2-2.3,2.3-4.7,0.4-6.6c-1.8-1.8-4.4-1.6-6.6,0.6  c-8.7,9-18.5,16.6-29.4,22.7c-0.6,0.3-1.2,0.6-2,1.1c-6.3-8-12.6-16-19.4-24.8c2.3-0.4,3.6-0.8,4.9-0.8c11-0.1,22,0,33,0  c11,0,16.8-5.8,16.8-16.9c0-22.3,0.1-44.6-0.1-66.9c0-3.3,0.7-5.8,2.6-8.6c10.3-16,11.8-32.8,2.9-50c-0.2-0.5-0.4-1-0.6-1.4  c4.4-0.7,8.7-1.3,12.9-2c0.1-0.3,0.1-0.6,0.2-0.9c0.5,0.9,1,1.7,1.4,2.6c20,44,17.3,86.4-8.4,127.4c-0.7,1.1-1.5,2.2-2.1,3.4  c-1,2-0.5,3.8,1.1,5.1c1.7,1.4,3.6,1.2,5.3,0c0.7-0.6,1.3-1.4,1.8-2.2c13.6-19.9,21.4-41.9,23.4-66c0.1-0.9,0.3-1.8,0.5-2.8  c0-5.7,0-11.5,0-17.2C346.3,196,345.6,190.8,344.8,185.6z M152.7,113.8c-8.2,0.1-16.5,0-24.7,0c-0.9,0-1.8,0-3.6,0  c10.4-9.3,21.3-16.2,33.5-21.7c6.8,7.2,10.1,15.6,9.9,26.6C163.2,113.9,158,113.7,152.7,113.8z M262.7,326.8  c-52.4,25.4-128.7,10-165.1-54.4c4.9-4.1,9.9-8.3,16.3-10.1c3.9-1.1,7.4,0,9.7,3.3c8.9,12.3,31.5,14,43.3-2.5c1.4-1.9,2-4,0.3-5.7  c-1.1-1-3.1-1.6-4.5-1.4c-1.1,0.1-2.3,1.6-3.2,2.7c-5.6,6.9-13.1,9.5-21.4,6.7c-2.6-0.9-5.2-2.6-7-4.6c-6.6-7.5-14.3-9.6-23.4-5.3  c-5,2.3-9.5,5.6-14.2,8.5c-6-9.7-12.7-37-11.9-50.1c3,0,6.1,0.3,9-0.1c10.3-1.4,18.9,1.6,26.7,8.6c4.8,4.3,10.5,7.7,15.7,11.5  c2.8,2,5.7,2.7,8.8,1.1c3.2-1.6,4.3-4.4,4.2-7.8c-0.1-3,0-5.9,0-8.9c0-3.8,0.6-4.4,4.6-4.4c2.2,0,4.4,0,6.6,0  c7.9-0.2,14-6.2,14.2-14c0.1-5.2,0-10.3,0.1-15.5c0-0.9,0-1.8,0-2.5c5,1.6,9.7,3.6,14.6,4.4c19.4,3.3,38.1-10.6,40.8-30.1  c0.3-2.6,1.3-3.1,3.6-3c6.9,0.1,6.9,0,6.9,7c0,2.1,0,4.2,0,6.3c-0.1,3.4,1.1,6.2,4.2,7.9c3.2,1.6,6.1,0.9,8.9-1.1  c4.7-3.4,9.3-6.7,14-10.1c0.8-0.5,1.5-1,2.3-1.6c0.3,0.1,0.6,0.2,0.8,0.3c-1,3.3-1.5,6.7-3,9.8c-1.7,3.4-3.8,6.7-6.4,9.4  c-4.3,4.6-7.3,9.5-7.7,16.2c-1.1,0-2.2,0-3.2,0c-14.5,0-29.1,0-43.6,0c-9.7,0-15.3,5.2-16.2,14.8c-0.1,0.8-0.8,1.9-1.6,2.3  c-8.2,4-13.5,10.5-16.1,19.2c-0.6,2.1-1.4,4.2-1.9,6.3c-0.6,2.4,0.1,4.4,2.6,5.4c2.1,0.9,4.5-0.3,5.5-2.8c0.9-2.3,1.5-4.7,2.3-7.1  c1.7-5.3,4.8-9.3,9.1-11.7c0.1,1.1,0.1,2.1,0.1,3.1c0,18.1,0,36.2,0,54.3c0,10.5,5.9,16.4,16.3,16.5c1.9,0,3.8,0.1,5.7,0  c2.5-0.1,3.5,1.1,3.4,3.5c0,3.3,0,6.5,0,9.8c0,3.4,1.1,6.2,4.2,7.8c3.2,1.6,6.1,0.8,8.8-1.2c6.2-4.5,12.5-9,18.7-13.5  C250.8,311.6,256.8,319.2,262.7,326.8z M297.4,281c0,5.6-2.1,7.7-7.8,7.8c-11.2,0-22.4,0.1-33.6,0c-3.5,0-6.5,0.9-9.3,3  c-7.3,5.4-14.7,10.7-22.1,16c-0.8,0.6-1.7,1.1-3,2c0-3.3,0-6,0-8.8c-0.1-7.9-4.5-12.2-12.4-12.2c-2.2,0-4.4,0.1-6.6,0  c-4.1-0.2-6.4-2.4-6.5-6.5c-0.1-23.3-0.1-46.7,0-70c0-4,2.5-6.4,6.5-6.4c29.4,0,58.7,0,88.1,0c4.4,0,6.6,2.4,6.6,7.2  c0,11.8,0,23.5,0,35.3C297.4,259.2,297.4,270.1,297.4,281z M300.9,200.7c-3.4-2.7-7.2-3.6-11.4-3.5c-9,0.1-18,0-26.9,0  c-1,0-2.1,0-3.2,0c0-4.1,2-6.9,4.5-9.4c6.3-6.5,10.5-14,11.7-23.1c0.4-2.7,0.7-5.5,0.8-8.3c0-2.4,1.2-3.3,3.3-3.3  c6.2,0,12.4-0.1,18.6,0c0.7,0,1.6,0.5,2.2,1C310.8,165.3,311.1,188.6,300.9,200.7z M314.3,144.5c-11.1,0-22.2,0.1-33.3,0  c-3.8,0-7.1,1-10.1,3.3c-7.3,5.4-14.7,10.7-22.1,16c-0.8,0.5-1.5,1-2.8,1.9c0-3.7,0.1-6.9,0-10c-0.1-5.6-4-10.1-9.6-10.8  c-2.9-0.4-5.9-0.2-8.9-0.3c-4.7-0.1-6.8-2.2-6.9-6.9c0-4.7,0-9.4,0-14.1c0-3.4-1.6-5.3-4.3-5.3c-2.7,0-4.3,1.8-4.3,5.3  c0,4.9,0,9.8,0,14.6c0,4.8,1.8,8.7,5.4,11.8c0.7,0.6,1.3,1.7,1.2,2.5c-1.2,13.7-10.9,23.9-24.5,25.4c-8,0.9-15.1-1.7-21.4-6.5  c-0.7-0.5-1.2-1.7-1.2-2.6c-0.1-11.9-0.1-23.7,0-35.6c0-0.7,0.1-1.6,0.5-2.2c6.9-11,5.3-22.1,0.3-33.1c-1.4-3.2-3.6-6.1-5.4-9.2  c14.5-5.1,29.5-7.5,45.2-7.4c0,1.3,0,2.3,0,3.4c0,5.8,0,11.7,0,17.5c0,2.8,1.7,4.4,4.2,4.5c2.4,0,4.1-1.7,4.4-4.4  c0.1-0.8,0-1.5,0-2.3c0-10.4,0-20.9,0-31.3c0-4.9,2.2-7,7-7c29,0,58,0,87,0c5,0,7.2,2.1,7.2,7.2c0,22.8,0,45.6,0,68.3  C321.8,142.5,319.8,144.5,314.3,144.5z"></path>	<path class="st0" d="M90.1,193.6c2.3,1,4.7,0,5.8-2.6c1-2.4,1.9-4.8,2.7-7.2c0.6-1.8,1.4-2.6,3.4-2.5c6.8,0.2,13.6,0.1,20.4,0  c1.9,0,2.7,0.7,3.3,2.3c0.9,2.6,1.9,5.2,3,7.8c0.9,2.1,2.7,3,4.9,2.5c2.2-0.5,3.2-2,3.3-4.4c-0.1-0.4-0.2-1.1-0.5-1.7  c-6.4-16.8-12.8-33.6-19.2-50.3c-0.9-2.3-2.6-3.5-5-3.6c-2.6,0-4.4,1.2-5.3,3.6c-6.3,16.8-12.7,33.6-19,50.4  C87,190.3,88,192.7,90.1,193.6z M111.8,149c0.2,0,0.5,0,0.7-0.1c3,7.8,5.9,15.6,9,23.6c-6.3,0-12.1,0-18.5,0  C105.9,164.5,108.9,156.7,111.8,149z"></path>	<path class="st0" d="M297.8,81.7c-1.9-0.1-3.8,0-5.7,0c-5.4,0-10.8,0-16.6,0c0-2.5,0.1-4.7,0-6.9c-0.1-3-1.7-4.7-4.3-4.7  c-2.6,0-4.1,1.7-4.3,4.7c-0.1,2.2,0,4.3,0,6.9c-1.4,0-2.4,0-3.4,0c-6.1,0-12.2,0-18.4,0c-2.9,0-4.8,1.8-4.8,4.2  c0,2.4,1.9,4.2,4.7,4.4c2.2,0.1,4.4-0.1,6.6,0.1c0.8,0.1,2.1,0.9,2.3,1.7c2.3,8.3,6,15.9,11.4,22.9c-1,0.9-1.9,2-3,2.7  c-5.6,3.3-11.3,6.4-16.8,9.7c-1.4,0.9-3,2.2-3.5,3.7c-0.4,1.1,0.4,3.4,1.4,3.9c1.4,0.7,3.5,0.9,5,0.4c8.3-3.2,16.1-7.5,22.6-13.8  c0.6,0.4,0.9,0.7,1.3,1c6.3,5.8,13.7,9.7,21.5,12.9c2.9,1.2,5.4,0.4,6.4-1.9c1-2.3,0-4.6-2.9-5.9c-2.3-1.1-4.7-2.1-7-3.2  c-4.9-2.4-9.4-5.3-13.2-9.3c5.4-7,9.1-14.6,11.4-22.9c0.2-0.7,1.3-1.6,2.1-1.6c2.5-0.2,5,0,7.4-0.2c2.4-0.2,4.1-2.2,4.1-4.4  C302,83.5,300.3,81.8,297.8,81.7z M271.7,108.8c-4.6-5.9-7.3-11.7-9.2-18.3c5.8,0,11.4,0,18.1,0  C277.6,96.7,274.8,102.5,271.7,108.8z"></path>	<path class="st0" d="M279.5,221.3c-6.5-0.1-13-0.1-19.5,0c-2.7,0-4.4,1.8-4.5,4.2c0,2.4,1.7,4.2,4.4,4.3c1.8,0.1,3.6,0,5.5,0  c0,4.6,0,8.9,0,13.3c-5.5,0-10.9,0-16.7,0c0.2-0.7,0.3-1.2,0.4-1.6c3.1-10.9-3.9-20.3-15.1-20.3c-3.6,0-7.3,0-10.9,0  c-3.3,0-5.2,1.7-5.2,4.4c0.1,2.6,2,4.1,5.1,4.2c3.3,0,6.5,0,9.8,0c0.8,0,1.5,0,2.3,0c3.5,0.3,6.3,3.2,6.3,6.7  c0,3.4-2.4,6.4-5.9,6.6c-4.9,0.3-9.7,0.1-14.6,0.3c-2.6,0.1-4.2,1.7-4.2,4.1c0,2.4,1.4,4,4,4.3c0.8,0.1,1.7,0.1,2.6,0.1  c3.7,0,7.5-0.1,11.2,0c4.2,0.1,7.1,3,7,6.8c-0.1,3.8-3,6.6-7.2,6.6c-6.5,0-12.5-1.1-17.5-5.8c-1.9-1.7-4.3-1.4-5.9,0.3  c-1.5,1.7-1.5,4.1,0.2,6c0.3,0.3,0.5,0.5,0.8,0.8c7.5,6.6,16.5,8.3,26,6.9c6.6-1,10.7-5.5,11.8-12.1c0.5-3,0.1-6.1,0.1-9.3  c4.8,0,10.2,0,15.9,0c0,1.2,0,2.2,0,3.3c0,4.8-0.1,9.6,0,14.3c0.1,2.5,1.9,4.2,4.2,4.2c2.3,0,4.1-1.6,4.4-4.1c0.1-0.8,0-1.5,0-2.3  c0-11.6,0-23.1,0-34.7c0-1,0-2,0-3.1c2.1,0,3.7,0.1,5.3,0c2.9-0.1,4.6-1.8,4.6-4.4C283.9,223,282.2,221.3,279.5,221.3z"></path></g></svg>