<svg xmlns="http://www.w3.org/2000/svg" xmlns:xlink="http://www.w3.org/1999/xlink" id="Layer_1" x="0px" y="0px" viewBox="0 0 400 400" style="enable-background:new 0 0 400 400;" xml:space="preserve"><style type="text/css">	.st0{fill:#24224B;}</style><g>	<path class="st0" d="M324.5,68.2c-16.2,0.5-32.3,0.1-48.5,0.1c-4.6,0-6.5,1.2-6.6,4.2c-0.1,3.1,1.9,4.5,6.6,4.5c17,0,34.1,0,51.1,0  c7.8,0,11.2,3.4,11.2,11.1c0,52.8,0,105.6,0,158.5c0,1,0,2,0,3.2c-92.4,0-184.5,0-276.7,0c0-0.9-0.1-1.5-0.1-2.2  c0-53.5,0-107,0-160.5c0-1,0.1-2.1,0.3-3.1c1.2-4.6,4.8-7,10.5-7c59.3,0,118.7,0,178,0c1.3,0,2.7,0,4-0.2c2.3-0.4,3.5-2.1,3.4-4.3  c-0.1-2.1-1.3-3.6-3.5-3.9c-0.8-0.1-1.7-0.1-2.6-0.1c-59.9,0-119.8,0-179.7,0c-11.6,0-19,7.5-19,19.1c0,58.3,0,116.6,0,174.8  c0,11.7,7.5,19.2,19.2,19.2c12.7,0,25.5,0,38.2,0c0.9,0,1.9,0,2.8-0.3c2.2-0.6,3.3-2.2,3.1-4.5c-0.2-2.2-1.5-3.5-3.7-3.7  c-0.9-0.1-1.9-0.1-2.9-0.1c-12.6,0-25.3,0-37.9,0c-4.1,0-7.6-1.3-9.1-5.2c-1.1-2.7-1.1-5.8-1.6-9c92.8,0,184.9,0,276.9,0  c1.2,10.2-2.3,14.2-12.2,14.2c-33,0-66,0-99,0c-31.2,0-62.4,0-93.6,0c-3.6,0-5.6,1.6-5.6,4.3c0,2.7,2.1,4.3,5.7,4.3  c4.7,0,9.4,0,14.1,0c3.8,0,7.6,0,11.6,0c-1.4,7.9-2.6,15.4-4,22.9c-0.1,0.6-1.3,1.4-2.1,1.5c-2.7,0.3-5.4,0-8,0.4  c-6.9,0.9-11.8,7.7-10.7,14.5c1.2,6.9,6.3,11,13.9,11c34.5,0,69.1,0,103.6,0c0.8,0,1.5,0,2.3-0.1c6.6-0.6,11.7-6.1,11.8-12.7  c0.1-6.5-4.9-12.2-11.5-12.9c-2.5-0.3-5-0.1-7.4-0.3c-0.7-0.1-1.9-0.7-2-1.3c-1.4-7.6-2.7-15.2-4.1-23.2c1.4,0,2.5,0,3.7,0  c27.8,0,55.7,0,83.5,0c7.3,0,13-2.9,16.6-9.3c1-1.7,1.6-3.7,2.3-5.5c0-61.2,0-122.5,0-183.7C343.6,71.8,335.8,67.9,324.5,68.2z   M250.6,314.6c1.1,0,2.3,0,3.4,0.3c2.2,0.5,3.3,2.1,3.2,4.2c-0.1,2.1-1.2,3.6-3.4,4c-0.9,0.2-1.9,0.2-2.9,0.2c-34,0-67.9,0-101.9,0  c-0.8,0-1.5,0-2.3-0.1c-2.5-0.3-3.9-1.8-3.9-4.2c0-2.4,1.4-3.9,3.8-4.3c1-0.1,2.1-0.1,3.1-0.1c17.4,0,34.8,0,52.3,0  c1.1,0,2.3,0,3.4-0.2c2-0.4,3.1-1.8,3.3-3.8c0.1-2.2-0.9-3.7-3-4.3c-1.1-0.3-2.3-0.3-3.4-0.3c-11.7,0-23.4,0-35,0c-1,0-2.1,0-3.6,0  c1.4-8.4,2.8-16.3,4.2-24.3c21.4,0,42.7,0,64.2,0c1.4,8,2.8,15.9,4.2,24.3c-2.7,0-5,0-7.4,0c-1.2,0-2.5,0-3.7,0  c-3.1,0.2-5,1.9-4.9,4.5c0.1,2.4,1.9,4,4.9,4.1C233.7,314.6,242.1,314.6,250.6,314.6z"></path>	<path class="st0" d="M286.1,177.4c-2.2-0.5-3.5,1.4-4.5,3.3c-3.1,6.1-6.2,12.3-9.3,18.4c-3.4,6.6-6.8,13.2-10.4,20.4  c-0.7-1.3-1.2-2.1-1.6-3c-4.8-9.4-9.6-18.9-14.4-28.3c-1.1-2.1-2-4.5-4.9-4.6c-3.1,0-4,2.5-5.1,4.7c-2.3,4.5-4.7,9-6.8,13.6  c-0.9,1.9-2,2.4-3.9,2.4c-3.7-0.1-7.5-0.1-11.2,0c-3.3,0-5.2,1.7-5.2,4.4c0,2.6,1.9,4.2,5.1,4.2c5,0,10-0.1,14.9,0.1  c3.3,0.1,5.2-1.2,6.5-4.1c1.7-3.7,3.7-7.3,5.7-11.3c0.7,1.4,1.3,2.2,1.7,3.1c4.9,9.6,9.8,19.2,14.7,28.9c1,2,2.1,3.9,4.8,3.9  c2.5-0.1,3.5-1.9,4.5-3.9c6-11.8,11.9-23.5,17.9-35.2c0.5-0.9,1-1.8,1.6-3c3.2,6.3,6.3,12.2,9.2,18.2c1.2,2.3,2.8,3.4,5.4,3.4  c5.2-0.1,10.3,0,15.5,0c3.3,0,5.2-1.7,5.2-4.4c-0.1-2.6-1.9-4.2-5.1-4.2c-3.9,0-7.8-0.1-11.8,0c-1.7,0.1-2.5-0.6-3.3-2  c-3.6-7.2-7.1-14.4-11-21.4C289.4,179.2,287.6,177.8,286.1,177.4z"></path>	<path class="st0" d="M321.4,104.5c0-3.9-1.5-5.3-5.4-5.4c-6.7,0-13.4,0-20.1,0c-3.9,0-5.4,1.5-5.4,5.4c0,18.3,0,36.5,0,54.8  c0,3.7,1.5,5.2,5.3,5.2c6.6,0,13.2,0,19.8,0c4.5,0,5.8-1.3,5.8-5.8c0-8.9,0-17.8,0-26.7C321.4,122.9,321.4,113.7,321.4,104.5z   M312.6,155.8c-4.5,0-8.8,0-13.3,0c0-15.9,0-31.7,0-47.8c4.4,0,8.7,0,13.3,0C312.6,123.9,312.6,139.7,312.6,155.8z"></path>	<path class="st0" d="M208.6,159.4c0,3.5,1.5,5.1,5,5.1c6.9,0,13.8,0,20.6,0c3.7,0,5.3-1.6,5.3-5.2c0-14.5,0-29,0-43.6  c0-3.5-1.6-5.1-5.1-5.1c-6.9,0-13.8,0-20.6,0c-3.7,0-5.2,1.5-5.2,5.3c0,7.3,0,14.5,0,21.8C208.6,144.8,208.5,152.1,208.6,159.4z   M217.4,119.3c4.3,0,8.7,0,13.3,0c0,12,0,24.1,0,36.4c-4.5,0-8.8,0-13.3,0C217.4,143.7,217.4,131.6,217.4,119.3z"></path>	<path class="st0" d="M280.6,128.2c0-3.8-1.4-5.3-5.1-5.3c-6.9-0.1-13.8-0.1-20.7,0c-3.6,0-5.1,1.5-5.1,5.1  c-0.1,10.4-0.1,20.9,0,31.3c0,3.7,1.6,5.2,5.3,5.2c6.8,0,13.6,0,20.4,0c3.7,0,5.2-1.5,5.2-5.2c0-5.2,0-10.3,0-15.5  C280.6,138.6,280.6,133.4,280.6,128.2z M271.8,155.8c-4.6,0-8.8,0-13.3,0c0-8,0-16,0-24.1c4.5,0,8.8,0,13.3,0  C271.8,139.7,271.8,147.6,271.8,155.8z"></path>	<path class="st0" d="M178.1,147.9c-31,0-62,0-93,0c-1,0-2.3-0.3-3.1,0.2c-1.3,0.8-2.8,1.9-3.2,3.2c-0.4,1.2,0.3,3.2,1.2,4  c0.9,0.9,2.8,1.2,4.2,1.2c15.8,0.1,31.6,0,47.3,0c9.2,0,18.4,0,27.5,0c7.1,0,14.2,0,21.2,0c2.6,0,4.2-1.7,4.3-4.1  c0.1-2.3-1.5-4.1-3.9-4.5C179.8,147.8,179,147.9,178.1,147.9z"></path>	<path class="st0" d="M184.6,197.8c0-2.9-1.9-4.4-5.8-4.4c-0.3,0-0.6,0-0.9,0c-31,0-62,0-92.9,0c-1.1,0-2.3,0-3.4,0.3  c-2.1,0.5-3.2,2.1-3.1,4.2c0.1,2.3,1.4,3.7,3.8,4c0.9,0.1,1.9,0.1,2.9,0.1c15.4,0,30.8,0,46.2,0c15.9,0,31.7,0,47.6,0  C182.8,201.9,184.6,200.6,184.6,197.8z"></path>	<path class="st0" d="M182,99.6c-1.1-0.4-2.2-0.4-3.4-0.4c-31.4,0-62.7,0-94.1,0c-1,0-2.4-0.2-3,0.4c-1.2,1.1-2.6,2.6-2.8,4.1  c-0.3,2,1.2,3.6,3.4,3.9c1,0.2,2.1,0.1,3.1,0.1c15.4,0,30.8,0,46.2,0c15.6,0,31.2,0,46.8,0c1,0,2.1,0.1,3.1-0.1  c2-0.4,3.2-1.7,3.3-3.8C184.8,101.8,183.9,100.3,182,99.6z"></path>	<path class="st0" d="M84,130.6c9.7,0,19.3,0,29,0c9.7,0,19.5,0,29.2,0c3.4,0,5.4-1.5,5.5-4.1c0.1-2.7-2-4.5-5.5-4.5  c-19.4,0-38.8,0-58.2,0c-3.5,0-5.5,1.7-5.5,4.5C78.6,129.1,80.5,130.6,84,130.6z"></path>	<path class="st0" d="M180,170.8c-19.9,0-39.8-0.1-59.6,0.1c-1.4,0-3.3,1.2-4.1,2.4c-1.8,2.9,0.6,6.1,4.6,6.1c9.7,0,19.5,0,29.3,0  c9.9,0,19.9,0,29.8,0c2.9,0,4.7-1.7,4.7-4.2C184.7,172.6,182.9,170.8,180,170.8z"></path>	<path class="st0" d="M84,216.1c-3.4,0-5.4,1.5-5.4,4.2c-0.1,2.7,1.9,4.4,5.5,4.4c7.3,0,14.5,0,21.8,0c7.3,0,14.5,0,21.8,0  c3.5,0,5.3-1.5,5.4-4.2c0.1-2.8-1.8-4.4-5.4-4.4C113,216.1,98.5,216.1,84,216.1z"></path>	<path class="st0" d="M83.3,179.4c2.8,0.1,5.5,0,8.3,0c2.8,0,5.5,0.1,8.3,0c2.8-0.1,4.7-1.9,4.7-4.3c0-2.4-1.9-4.2-4.8-4.2  c-5.5-0.1-11.1-0.1-16.6,0c-2.8,0-4.7,1.9-4.7,4.3C78.6,177.6,80.4,179.3,83.3,179.4z"></path>	<path class="st0" d="M180.3,122.1c-5.7-0.1-11.4-0.1-17.2,0c-2.6,0.1-4.4,2-4.4,4.4c0,2.4,1.9,4.1,4.5,4.2c2.9,0.1,5.7,0,8.6,0  c2.8,0,5.5,0.1,8.3,0c2.7-0.1,4.4-1.7,4.5-4.2C184.7,124,183,122.1,180.3,122.1z"></path></g></svg>