<svg xmlns="http://www.w3.org/2000/svg" xmlns:xlink="http://www.w3.org/1999/xlink" id="Layer_1" x="0px" y="0px" viewBox="0 0 400 400" style="enable-background:new 0 0 400 400;" xml:space="preserve"><style type="text/css">	.st0{fill:#24224B;}</style><g>	<path class="st0" d="M347,160c-0.1-10.9-8.5-20.4-19.4-21.5c-6.8-0.7-13.8-0.4-20.6-0.4c-3.4,0-5.3,1.6-5.3,4.4  c0,2.7,1.9,4.2,5.3,4.2c5.7,0,11.5-0.1,17.2,0c8.2,0.2,14.1,6.2,14.2,14.3c0.1,13.8,0.1,27.6,0,41.4c0,5.7-2.7,10.1-7.8,12.4  c-2.6,1.2-5.7,1.6-8.6,1.6c-32.1,0.1-64.3,0.1-96.4,0c-5.2,0-8.4,2-10.5,6.8c-3.9,9-8,18-12.2,26.9c-0.6,1.2-1.9,2.1-2.9,3.2  c-0.9-1.1-2.2-2-2.8-3.3c-4.1-8.7-8.1-17.3-11.9-26.1c-2.2-5.3-5.7-7.5-11.5-7.5c-32.1,0.2-64.3,0.1-96.4,0.1  c-10,0-15.7-5.8-15.7-15.7c0-12.8,0-25.7,0-38.5c0-1.3,0-2.7,0.2-4c1.4-7.2,7.1-11.6,15.2-11.6c69.1,0,138.1,0,207.2,0  c1.2,0,2.5,0.1,3.7-0.1c2.7-0.4,4.3-3,3.4-5.5c-0.8-2.2-2.5-3-4.7-3c-4.6,0-9.2,0-13.8,0c-65.2,0-130.3,0-195.5,0  c-7.1,0-13.3,2.1-18.3,7.3c-3.3,3.4-4.8,7.7-6.1,12.1c0,16.1,0,32.2,0,48.3c0.1,0.2,0.3,0.3,0.3,0.5c3.5,12.7,11.3,18.9,24.2,18.9  c31.8,0,63.5,0,95.3-0.1c2.7,0,4,0.9,5,3.3c3.8,8.7,7.9,17.2,11.7,25.9c2,4.7,5.3,7.6,10.4,7.6c5.2,0,8.4-2.9,10.5-7.6  c3.9-8.8,8-17.6,11.9-26.4c1-2.2,2.2-2.8,4.5-2.8c31.5,0.1,62.9,0.1,94.4,0c1.8,0,3.6-0.1,5.4-0.2c11.2-1.1,20-10.5,20.2-21.8  C347.1,188.8,347.1,174.4,347,160z"></path>	<polygon class="st0" points="98.7,171.5 98.7,166.2 80.5,166.2 80.5,195 86.1,195 86.1,183.8 97.3,183.8 97.3,178.6 86.1,178.6   86.1,171.5  "></polygon>	<path class="st0" d="M101.4,180.6c0,9.3,7,15,14.8,15s14.8-5.7,14.8-15s-7-15-14.8-15S101.4,171.3,101.4,180.6z M125.2,180.5  c0,6.5-4.5,9.6-9,9.6c-4.4,0-9-3.1-9-9.6s4.5-9.6,9-9.6C120.6,171,125.2,174,125.2,180.5z"></path>	<polygon class="st0" points="135.9,166.2 135.9,195 154.3,195 154.3,189.6 141.5,189.6 141.5,166.2  "></polygon>	<polygon class="st0" points="158.6,166.2 158.6,195 177,195 177,189.6 164.2,189.6 164.2,166.2  "></polygon>	<path class="st0" d="M178.7,180.6c0,9.3,7,15,14.8,15s14.8-5.7,14.8-15s-7-15-14.8-15S178.7,171.3,178.7,180.6z M202.5,180.5  c0,6.5-4.5,9.6-9,9.6c-4.4,0-9-3.1-9-9.6s4.5-9.6,9-9.6C198,171,202.5,174,202.5,180.5z"></path>	<polygon class="st0" points="232.8,166.2 227,166.2 220.6,186 215.4,166.2 209.4,166.2 217.4,195 223.3,195 229.9,174.5 236.4,195   242.2,195 250.2,166.2 244.4,166.2 239.2,186.1  "></polygon>	<polygon class="st0" points="296.1,195 296.1,166.2 288.5,166.2 280,187 271.4,166.2 264,166.2 264,195 269.3,195 269.3,174.9   277.6,195 282.3,195 290.6,174.8 290.6,195  "></polygon>	<polygon class="st0" points="320.7,171.5 320.7,166.2 302.7,166.2 302.7,195 320.7,195 320.7,189.7 308.3,189.7 308.3,183   319.5,183 319.5,178 308.3,178 308.3,171.5  "></polygon></g></svg>