<svg xmlns="http://www.w3.org/2000/svg" xmlns:xlink="http://www.w3.org/1999/xlink" id="Layer_1" x="0px" y="0px" viewBox="0 0 400 400" style="enable-background:new 0 0 400 400;" xml:space="preserve"><style type="text/css">	.st0{fill:#24224B;}</style><g>	<path class="st0" d="M268.1,288.3c-11.2-8.5-22.6-16.7-34.3-24.5c-11.5-7.7-25.5-5-34,5.8c-2.8,3.5-5.3,7.3-7.9,10.8  c-20.7-11.1-62.9-54-73.7-75.1c4-2.9,7.9-5.4,11.5-8.2c10.2-8.1,13.1-21.7,6.2-32.7c-7.7-12.3-16-24.4-24.7-36.1  c-7.1-9.6-18.6-12-29.7-7.4c-15.2,6.4-23.7,18.1-27,34c-3,15-1.2,29.8,3.9,43.8c22.4,62.7,65.3,107.3,124.8,135.8  c12.6,6,27.1,9.1,41.1,11.1c23.5,3.3,43.4-8.1,51.4-26.9C280.5,307,278.1,295.9,268.1,288.3z M265.4,316.5  c-8.1,15.5-22,19.6-38.5,20.5c-10.4-2.6-21.4-3.8-31.2-8c-60.1-25.4-102.4-68.8-126.6-129.5c-5.1-12.9-7.1-26.6-5.2-40.6  c1.8-12.9,8-22.8,20.2-28.3c8-3.7,14.8-2.2,20,5c7.5,10.5,14.8,21.2,21.9,32.1c5.6,8.5,3.8,16.4-4.5,22.5c-2.4,1.7-4.9,3.3-7.4,5.1  c-10.9,7.4-11,7.5-3.6,18.1c20.4,29.3,45.1,54.4,74.2,75.2c8.6,6.2,9.4,5.9,15.4-2.4c15.1-21,17.9-21.4,39.3-6.2  c7,5,14.2,9.9,21.1,15.1C268.3,300.9,269.9,308,265.4,316.5z"></path>	<path class="st0" d="M346.6,165.7L346.6,165.7c-0.1-0.8-0.1-1.5-0.2-2.3c-0.2-1.8-0.3-3.7-0.5-5.5c-0.1-1.1-0.3-2.1-0.5-3.1  c-0.1-0.4-0.2-0.8-0.2-1.2c-5.6-31.5-20.9-56.8-45.4-75.2c-29.1-21.8-62.4-29.1-99-21.6c-3.7,0.8-7.3,1.9-10.8,3l-1.2,0.4  c-2.6,0.8-3.8,2.2-4.3,3.3c-0.7,1.3-0.7,2.8-0.2,4.4c1.1,3.2,4,4.5,7.9,3.4c0.5-0.1,1-0.3,1.5-0.5l0.1,0  c13.5-4.4,26.9-6.2,39.7-5.3c30.9,2.1,56.4,15.2,76,38.9c27.2,33,33.5,69.6,18.7,108.6c-9.3,24.6-26.3,43.7-50.4,56.7  c-3.8,2.1-5.1,5.2-3.5,8.4c1.1,2.1,3.1,3.1,5.5,2.9c1.1-0.1,2.2-0.5,3.4-1.1C325,257.9,350.5,212,346.6,165.7z"></path>	<path class="st0" d="M187.5,172c-0.2,0-0.4,0-0.6,0c-1.2,0.1-2.7,0.2-3.7,1.2c-0.6,0.7-2.6,3-2.3,5.3c0.2,1.4,1.4,2.7,3.8,4.1  c0.7,0.4,1.4,0.4,2.1,0.4c0.3,0,0.6-0.1,0.9-0.1c0.2,0,0.5-0.1,0.7-0.1c0,0,0,0,0,0c12.4-1.2,24.8-2.3,37.1-3.5  c5.6-0.5,7.1-2.4,6.6-7.9c-1.8-18.8-3.5-37.6-5.3-56.4c-0.1-0.9-0.2-1.9-0.5-2.9c-0.8-2.8-3.3-4.3-5.8-3.6c-2.2,0.7-3.8,3-4.3,3.7  c-0.7,1.1-0.5,2.4-0.3,3.6c0,0.3,0.1,0.5,0.1,0.7c1.2,13.2,2.5,26.5,3.7,39.7l1.2,12.5l-8.8,0.8C204,170.4,195.8,171.2,187.5,172z"></path>	<path class="st0" d="M124,126.7c0.5,0.2,1,0.5,1.4,0.7l1.2,0.8l1-1.1c0.4-0.5,0.8-0.9,1.2-1.3c0.8-0.9,1.7-1.7,2.3-2.6  c1.4-2,2.7-4.2,4-6.2c2.3-3.6,4.6-7.3,7.2-10.7c8.1-10.5,18.6-19.6,31.3-27c0.8-0.4,3.3-2.1,4.1-4.5c0.6-2-0.7-4.5-1.8-5.7  c-2.7-2.8-6.2-0.9-7.3-0.2c-14.8,8.4-27.1,19-36.5,31.7c-4.1,5.5-7.6,11.5-11,17.3c-1,1.8-0.8,4.5-0.1,6.3  C121.5,125.5,122.7,126.1,124,126.7z"></path>	<path class="st0" d="M183.9,103.9c-0.6-0.9-1.2-1.7-1.8-2.6c-1.7-2.6-3.6-5.2-5.6-7.6c-1.3-1.5-4.8-1.5-6.4-0.4c-1.5,1-3,4.3-2,6.1  c2,3.5,4.5,7.1,7.4,10.6c0.8,1,2.6,1.3,4,1.1c0.7-0.1,1.3-0.2,1.8-0.5c1.2-0.6,1.9-1.8,2.5-2.9c0.2-0.4,0.5-0.8,0.7-1.1l0.8-1.2  l-1.2-0.8C184.2,104.5,184.1,104.2,183.9,103.9z"></path>	<path class="st0" d="M270.3,86c-0.8-0.8-1.8-1.8-3-2.3c-2.5-0.9-5,0.2-6.2,2.8c-1.3,2.8-2.9,6.1-4.3,9.3c-1.3,3-0.2,6,2.6,7.3  c0.9,0.4,1.9,0.6,2.8,0.5c1.8-0.2,3.5-1.3,4.4-3.3c1.4-2.8,2.6-5.6,3.9-8.4l0.3-0.7c0.2-0.5,0.4-1.1,0.5-1.8  c0.1-0.4,0.2-0.8,0.3-1.3l0.2-0.8l-0.7-0.6C270.9,86.6,270.6,86.3,270.3,86z"></path>	<path class="st0" d="M156.5,137c-0.1-0.1-0.1-0.2-0.2-0.4c-0.4-0.7-1.1-1.7-2.1-2.2c-3.1-1.6-6.5-3.2-10-4.6  c-2.8-1.1-5.4-0.1-6.7,2.7c-1.4,2.8-0.5,5.6,2.1,7c3.8,2,7.2,3.5,10.6,4.8c0.7,0.3,1.4,0.4,2.1,0.3c0.9-0.1,1.7-0.4,2.4-1  c1.6-1.2,2.4-3.4,2.1-5.8l0-0.4L156.5,137z"></path>	<path class="st0" d="M305.4,114.8c-1.7-0.8-3.7-0.7-5.4,0.5c-2.9,1.9-5.6,3.9-8.1,5.8c-1.4,1-2.2,2.4-2.4,3.9  c-0.2,1.4,0.2,2.8,1.1,3.9c1.2,1.6,2.9,2.3,4.7,2.2c1-0.1,2-0.5,2.9-1.1c2.8-1.9,5.5-3.7,8.1-5.8c1-0.8,1.5-1.9,1.9-2.6  c0.1-0.2,0.2-0.3,0.2-0.5l0.3-0.4l0-0.5C308.4,117.7,307.3,115.7,305.4,114.8z"></path>	<path class="st0" d="M317,210.7c-0.1-0.1-0.2-0.2-0.3-0.4c-0.4-0.7-1.1-1.8-2.2-2.4c-2.8-1.5-5.9-2.9-9.8-4.6  c-1.4-0.6-2.9-0.6-4.3,0c-1.3,0.5-2.2,1.6-2.8,2.9c-1.1,2.9-0.2,5.5,2.4,6.8c2.7,1.4,6.4,3.2,10.1,4.6c0.8,0.3,1.6,0.4,2.3,0.3  c0.9-0.1,1.7-0.4,2.5-0.9c1.6-1.2,2.5-3.3,2.3-5.6l0-0.5L317,210.7z"></path>	<path class="st0" d="M270.8,244.6c1.7,2.6,3.8,5.6,6,8.4c0.8,1,1.9,1.5,2.7,1.9c0.2,0.1,0.4,0.2,0.5,0.2l0.4,0.3l0.5-0.1  c2.4-0.3,4.2-1.5,5.1-3.3c0.8-1.7,0.6-3.6-0.5-5.3c-1.6-2.5-3.4-5.1-5.9-8.4c-1.9-2.5-5.2-3-7.7-1.2  C269.5,239,269.1,242,270.8,244.6z"></path>	<path class="st0" d="M325.4,164.8c-0.1-3.2-2.1-5.2-4.9-5.1c-4.2,0.1-8.2,0.5-12.2,1.1c-1.3,0.2-2.3,0.8-3,1.8  c-0.8,1.1-1.1,2.6-0.8,4.2c0.5,2.8,2.5,4.6,5.4,4.5c0.7,0,1.4-0.1,2.1-0.1c0.6-0.1,1.2-0.1,1.7-0.2c0.5-0.1,1-0.1,1.6-0.2l0,0  c0.6-0.1,1.2-0.1,1.7-0.1c1.3-0.1,2.6-0.2,3.9-0.4C323.8,169.8,325.5,167.8,325.4,164.8z"></path>	<path class="st0" d="M219.7,96.3c0.1,0,0.1,0,0.2,0c3-0.4,4.8-2.4,4.7-5.5c0-1.3-0.2-2.6-0.3-3.8c-0.1-0.5-0.1-1.1-0.2-1.6l0,0  c-0.1-0.5-0.1-1.1-0.1-1.7c-0.1-1.2-0.2-2.5-0.4-3.8c-0.4-3-2.6-4.8-5.6-4.6c-3.1,0.2-5.2,2.3-5,5.3c0.2,3.9,0.5,7.8,1.1,11.3  C214.5,94.9,216.7,96.6,219.7,96.3z"></path></g></svg>