<svg xmlns="http://www.w3.org/2000/svg" xmlns:xlink="http://www.w3.org/1999/xlink" id="Layer_1" x="0px" y="0px" viewBox="0 0 400 400" style="enable-background:new 0 0 400 400;" xml:space="preserve"><style type="text/css">	.st0{fill:#24224B;}</style><g>	<path class="st0" d="M331.3,53c-61.4,0-122.8,0-184.2,0c-5.2,0-3.9,3.6-3.9,7.8c0,3.9,8.7,3.2,10,3.2c56.1,0.2,112.3,0.1,168.4,0.2  c2.2,0,4.4,0,6.5,0.1c4.6,0.2,7.3,2.5,7.3,7.4c0,13.7,0,27.4,0,41.6c-90.3,0-180.2,0-270.9,0c0-14.3-0.2-28.6,0.1-42.9  c0.1-4.6,3.8-6,7.8-6.1c7.4-0.1,14.8,0.3,22.2-0.2c2.6-0.2,5.8,0.1,6.6-1.9c0.7-1.7,1.3-9.1-2.6-9.1c-10,0-20,0-30.1,0  C60.8,53,53,59.5,53,68.7c0,87.5,0,175.1,0,262.6c2.6,7.8,7.5,13.4,15.7,15.7c87.5,0,175.1,0,262.6,0c8.1-2.3,13.1-7.8,15.7-15.7  c0-87.5,0-175.1,0-262.6C344.3,60.9,339.4,55.4,331.3,53z M335.5,131.9c0,64.2,0,128.4,0,192.7c0,9.8-1.4,11.2-11.5,11.2  c-82.7,0-165.4,0-248.2,0c-10.1,0-11.4-1.3-11.4-11.2c0-64.2,0-128.4,0-192.7c0-2.1,0-4.3,0-7c90.7,0,180.4,0,271,0  C335.5,127.4,335.5,129.6,335.5,131.9z"></path>	<path class="st0" d="M88.4,88.8c-0.1,5.7,4.4,5.7,8.4,5.7c13.3,0.1,26.6,0,39.8,0c13.5,0,27,0.1,40.5,0c6.4-0.1,10-4.4,6.9-8.1  c-1.7-1.9-5.2-2.9-8-3c-26.3-0.2-52.7-0.1-79-0.1C93,83.4,88.5,83.2,88.4,88.8z"></path>	<path class="st0" d="M244.5,83.5c-1.7,1.9-4.6,3.6-4.8,5.6c-0.2,1.9,2.6,4,5,7.3c2.5-3.4,5.3-5.6,5.1-7.5  C249.5,86.9,246.4,85.3,244.5,83.5z"></path>	<path class="st0" d="M314.2,89.3c-3.6-2.8-5.6-5.6-7.4-5.5c-2,0.2-5,3-5.1,4.8s2.7,4.9,4.7,5.3C308.1,94.3,310.4,91.7,314.2,89.3z"></path>	<path class="st0" d="M280.3,89.4c0.2-2.1-2.1-4.4-4.3-8.1c-2.7,3.5-5.7,5.6-5.5,7.5c0.1,1.9,2.9,4.6,5.1,5.2  C276.7,94.3,280.2,91.1,280.3,89.4z"></path>	<path class="st0" d="M95.8,184.3c20,0,39.9,0,59.9,0c3.8,0,7.8-1.2,7.1-5.4c-0.4-2.2-4.6-5.1-7.2-5.3c-9.7-0.6-19.5-0.2-29.3-0.2  c-10,0-20,0.1-29.9,0c-4.2-0.1-7.8,1-8,5.6C88.3,183.3,91.9,184.3,95.8,184.3z"></path>	<path class="st0" d="M95.1,152.4c10.2-0.1,20.4,0,30.6,0s20.4-0.1,30.6,0c3.9,0,7.1-1.6,6.4-5.3c-0.4-2.1-4.2-5-6.6-5  c-20.4-0.4-40.8-0.2-61.2-0.3c-3.8,0-6.6,1.3-6.6,5.4C88.5,151.2,91.4,152.4,95.1,152.4z"></path>	<path class="st0" d="M156.3,237.5c-20.4-0.4-40.8-0.2-61.2-0.3c-3.8,0-6.7,1.3-6.7,5.3c-0.1,4,2.8,5.3,6.6,5.3c10-0.1,20,0,30,0  c10.4,0,20.8-0.1,31.3,0c3.8,0,7.1-1.5,6.5-5.2C162.4,240.6,158.6,237.6,156.3,237.5z"></path>	<path class="st0" d="M95.6,216.2c9.8-0.1,19.5,0,29.3,0c10.4,0,20.8,0.3,31.2-0.2c2.4-0.1,4.7-3.3,7-5.1c-2.3-1.8-4.5-5.2-6.8-5.2  c-20.4-0.4-40.8-0.2-61.2-0.3c-3.7,0-6.9,1.2-6.8,5.3C88.4,214.9,91.5,216.3,95.6,216.2z"></path>	<path class="st0" d="M156.3,301.5c-20.4-0.4-40.8-0.2-61.2-0.3c-3.8,0-6.7,1.3-6.7,5.3c-0.1,4,2.8,5.3,6.6,5.3c10-0.1,20,0,30,0  c10.4,0,20.8-0.1,31.3,0c3.8,0,7.1-1.5,6.5-5.2C162.4,304.6,158.6,301.6,156.3,301.5z"></path>	<path class="st0" d="M95.6,280.3c9.8-0.1,19.5,0,29.3,0c10.4,0,20.8,0.3,31.2-0.2c2.4-0.1,4.7-3.3,7-5.1c-2.3-1.8-4.5-5.2-6.8-5.2  c-20.4-0.4-40.8-0.2-61.2-0.3c-3.7,0-6.9,1.2-6.8,5.3C88.4,278.9,91.5,280.3,95.6,280.3z"></path>	<path class="st0" d="M202.4,265.6c8.4-5.9,16.7-11.9,25.1-17.8c0.4-0.3,0.8-0.5,1.3-0.8c0.3,0.7,0.5,1.2,0.7,1.7  c6.7,18.2,13.5,36.3,20.2,54.5c1.6,4.2,4,5.4,8.3,4c8.7-2.9,17.3-5.8,26-8.7c4.2-1.4,5.5-4.2,3.9-8.4  c-6.7-18.1-13.4-36.1-20.1-54.2c-0.2-0.6-0.4-1.1-0.6-1.9c0.8,0,1.3,0,1.8,0c10.3-0.3,20.6-0.6,30.9-0.9c3.4-0.1,5.6-2.6,5.4-6  c-0.1-1.8-1.2-3-2.4-4.1c-26.3-24.6-52.6-49.2-79-73.7c-1.3-1.2-2.8-2.2-4.3-3.3c-0.9,0-1.9,0-2.8,0c-2.9,1.1-4,3.4-4.4,6.3  c-0.6,3.9-1.3,7.8-2,11.6c-2.6,14.7-5.2,29.4-7.8,44c-2.9,16.6-5.9,33.3-8.8,49.9c-0.3,1.6-0.6,3.4-0.3,5  C194.2,266.9,198.8,268.2,202.4,265.6z M221.7,162.3c21.6,20.2,42.9,40.1,64.6,60.3c-1.1,0.1-1.7,0.1-2.4,0.1  c-7.9,0.2-15.9,0.6-23.8,0.6c-3.9,0-7.3,3.5-5.5,8.2c7,18.7,13.9,37.4,20.8,56.1c0.2,0.6,0.4,1.2,0.7,1.9c-5.9,2-11.6,3.9-17.4,5.8  c-2.4-6.5-4.7-12.8-7.1-19.2c-4.8-13.1-9.7-26.2-14.5-39.3c-1.3-3.4-3.8-4.9-6.8-4c-1,0.3-1.9,0.9-2.7,1.5  c-6.5,4.6-13,9.3-19.6,13.9c-0.3,0.2-0.7,0.5-1.4,1C211.5,220.1,216.6,191.4,221.7,162.3z"></path>	<circle class="st0" cx="120.9" cy="58.2" r="5.2"></circle></g></svg>