<svg xmlns="http://www.w3.org/2000/svg" xmlns:xlink="http://www.w3.org/1999/xlink" id="Layer_1" x="0px" y="0px" viewBox="0 0 400 400" style="enable-background:new 0 0 400 400;" xml:space="preserve"><style type="text/css"> .st0{fill:#24224B;}</style><path class="st0" d="M346.7,169.1c-0.9-4.9-2.1-9.5-3.6-13.8c-3.4-9.7-9.9-16.3-19.3-19.7c-3.3-1.2-6.4-2.7-9.8-4.3l-1.6-0.8 c-1.2-0.6-2.5-1.2-3.7-1.9C320,114,321,90.1,310,74c-6.1-9-15.2-14.2-24.9-14.2c-9.4,0-18.2,4.9-24.4,13.5c-2.7,3.8-4.7,8-6.1,12.4 c-0.9-0.8-1.9-1.5-3.3-2.1c-17-7.6-34.3-11.4-51.4-11.4c-16.9,0-34,3.7-50.9,11.1c-1.6,0.7-2.8,1.5-3.7,2.4 c-1.6-5.2-4.1-10-7.5-14.2c-6-7.6-14.2-11.8-22.9-11.8c-8.3,0-16.2,3.8-22.2,10.7c-13.4,15.3-13.9,42-1.4,58.1 c-6,2.8-12.3,5.7-18.7,8.6c-5.9,2.7-10.2,6.7-12.8,12c-2,4.1-4,8.5-5.3,13.2c-1.7,6.2-2.7,11.2,0,15.5c2.7,4.3,7.7,5.5,13.9,6.7 c3.1,0.6,6.3,1.1,9.4,1.6l-0.1,2c0,0.6-0.1,1.2-0.1,1.8c-0.1,1.2-0.2,2.4-0.2,3.6c0.1,24.2,6.5,46.6,19,66.4 c10.9,17.2,25.5,31.1,43.3,41.3l0.1,0.1c0.8,0.5,2.1,1.2,3.8,1.4c-0.2,0.4-0.4,0.8-0.6,1.2c-1.5,3.5-2.8,7.2-3.7,10.8 c-1.3,5.4-2.6,10.5,0.1,14.7c2.7,4.3,8,5.3,13.1,6.3c15.5,3,31.3,4.6,47.1,4.6c10.8,0,21.9-0.7,32.8-2.2c5.6-0.7,11.5-1.8,19.1-3.5 c5.5-1.2,11.7-4.8,9.7-14.9c-0.7-3.7-1.4-6.7-2.3-9.5c-0.9-2.8-1.9-5.4-3.1-7.8c1-0.1,2.4-0.4,3.6-1.2c41-24.5,62.1-61.2,62.7-109.1 c0-1.4-0.2-2.5-0.4-3.5c-0.1-0.3-0.1-0.6-0.2-0.9l-0.2-1.5c4.8-0.7,9.9-1.7,16-3.2C345,181.2,348.1,176.5,346.7,169.1z M151.6,89 c32.5-14.2,64.9-14.2,97.4,0.2c2.3,1,2.8,2.1,2.7,4.6c-0.1,5.8,0.3,11.7,0.6,17.5c0.1,1.4,0.5,2.7,0.9,4.4 c-35.5-21.3-70.8-21.3-106.2-0.1c0.5-3,1.3-5.9,1.5-8.7c0.3-4.1,0.5-8.3,0-12.4C148.2,91.7,148.7,90.2,151.6,89z M60.6,164 c1.1-4.2,2.9-8.2,4.8-12.1c2.1-4.2,5.5-7.2,9.8-9.1c7.1-3.2,14.2-6.6,21.3-9.9c1.5-0.7,2.8-1.6,4.7-2.7c-1.6-1.7-2.9-3-4.1-4.4 C85.4,112.3,85.6,88,97.4,74.5c10.4-11.9,26-11.5,35.8,0.8c12.1,15.2,10.7,39.5-3,53.3c-0.4,0.4-0.8,1-1.4,1.8 c3.1,1.6,5.9,3.3,8.8,4.7c4.5,2.2,9,4.5,13.7,6.1c9.2,3.2,14.1,10.1,17,18.9c1.1,3.3,1.7,6.8,2.3,10.2c0.7,4.1-0.1,5.7-4.2,6.7 c-5.6,1.4-11.2,2.6-16.9,3.4c-26.6,3.5-53.2,3.2-79.6-1.8C58.5,176.5,57.6,175.1,60.6,164z M114.5,188.8c11.7,0,23.7-0.8,35.7-2.4 c5.2-0.7,10.8-1.8,17.6-3.5c7-1.8,10-6.4,8.7-13.7c-0.5-3.2-1.2-7.2-2.5-11c-3.8-11.8-10.6-19.2-20.8-22.8 c-3.5-1.2-6.9-2.9-10.5-4.6c-0.9-0.4-1.8-0.8-2.6-1.3c-0.6-0.3-1.2-0.6-1.9-0.9c0.2-0.3,0.5-0.6,0.7-1l11.2-6.7 c16.7-10,33.5-15,49.9-15c16.5,0,33.3,5.1,50,15.1l10.7,6.4c0.3,0.4,0.5,0.7,0.8,1.1c-0.4,0.2-0.9,0.4-1.3,0.6 c-5,2.4-10.1,4.9-15.2,7.1c-8.2,3.5-13.8,9-16.5,16.3c-1.8,4.8-3,9.7-4.2,14.5c-0.3,1-0.5,2-0.8,3c-1.4,5.4,1.5,10.5,6.9,12.4 c3.3,1.1,5.9,1.8,8.4,2.3c15,2.8,30.4,4.2,45.9,4.2c1.3,0,2.6,0,3.9,0l0,1.7c0.5,19.6-4.1,36.7-14.2,52.4 c-10.1,15.6-23.9,26.9-42.2,34.6l-7.4,3.1c-0.4-0.2-0.9-0.4-1.3-0.6c3.3-4.3,5.7-9.1,7.1-14.4c4.4-16.4,1.7-30.9-8.0-43 c-5.8-7.3-13.8-11.4-22.5-11.4c-8.5,0-16.5,3.9-22.5,11c-6,7.1-9.4,15.7-10.1,25.6c-0.9,12.4,2.2,23.2,9.0,32.1 c-0.4,0.2-0.9,0.4-1.3,0.6l-7.2-3c-18.5-7.7-32.4-19-42.6-34.8c-10.1-15.6-14.7-32.7-14.2-52.3l0-1.6 C112.4,188.8,113.4,188.8,114.5,188.8z M101.8,256.7c-12.2-19.2-18-40.4-18.1-63.1c0-1.5,0.2-3,0.3-5c7.3,0.6,14,1.1,21.2,1.7 c-0.6,20.2,4.2,38.9,15.1,55.8c10.9,17,26,29.1,45.4,37.1c-2.2,1.1-3.8,1.7-5.2,2.6c-4.7,3.3-9.5,6.5-13.9,10.1 c-1.6,1.3-2.4,0.7-3.6,0C126,286.2,112.2,273.2,101.8,256.7z M250.5,328.7c-6.2,1.3-12.4,2.5-18.6,3.4c-26.1,3.4-52.1,2.7-77.9-2.3 c-10.5-2-11.1-3-8.5-13.5c0.8-3.4,2-6.7,3.4-9.9c2.5-5.8,6.5-10.1,12.5-12.7c6.8-2.9,13.4-6.2,20.1-9.3c1.6-0.7,3-1.7,4.9-2.7 c-10-9.4-13.6-20.6-12.7-33.4c0.6-8.2,3.3-15.7,8.6-22.1c9.9-11.8,25.9-11.8,35.6,0.2c9,11.2,10.5,24,6.9,37.6 c-1.6,6.1-4.7,11.4-9.3,15.9c-0.4,0.4-0.8,0.8-1.1,1.2c-0.1,0.1-0.1,0.4-0.3,1.1c5.2,2.5,10.4,5,15.7,7.6c2.2,1,4.3,2.1,6.6,2.9 c9.5,3.2,14.4,10.4,17.1,19.5c0.9,2.9,1.6,5.9,2.1,8.9C256.5,325.6,255.3,327.6,250.5,328.7z M256.7,296.1c-0.7,0.4-2.4,0.5-2.7,0.1 c-4.6-6-11.2-9.2-17.9-12c-0.3-0.1-0.5-0.4-1.3-1c19-7.9,34.1-20,45-36.9c10.9-16.9,15.8-35.6,15.2-55.8c7.1-0.6,13.8-1.1,21-1.7 c0.2,1.2,0.5,2.4,0.5,3.5C315.8,237.9,296,272.6,256.7,296.1z M336.3,177.1c-5.6,1.4-11.2,2.6-16.9,3.3c-26.5,3.5-53,3.1-79.3-1.8 c-2.6-0.5-5.1-1.2-7.5-2.1c-2.3-0.8-3.7-2.6-3-5.1c1.5-5.7,2.8-11.4,4.8-16.8c2.3-6.2,7.1-10.2,13.2-12.8c7.1-3,14-6.5,21-9.8 c0.9-0.5,1.8-1.1,2.9-1.8c-1.6-1.7-3.1-3.1-4.4-4.8c-10.6-13.5-11.1-34.6-1.1-48.6c10.6-14.9,28.9-14.5,39.2,0.6 c10.2,14.9,8.7,39.3-4.8,51.4c-0.4,0.3-0.7,0.8-1.3,1.7c3.8,1.9,7.3,3.8,10.9,5.5c3.9,1.9,7.8,3.8,11.9,5.3 c7.8,2.9,12.9,8.3,15.6,16c1.5,4.2,2.6,8.5,3.4,12.9C341.5,174.5,340.5,176.1,336.3,177.1z"></path></svg>