<svg xmlns="http://www.w3.org/2000/svg" xmlns:xlink="http://www.w3.org/1999/xlink" id="Layer_1" x="0px" y="0px" viewBox="0 0 400 400" style="enable-background:new 0 0 400 400;" xml:space="preserve"><style type="text/css">	.st0{fill:#24224B;}</style><path class="st0" d="M199.7,329.1c-1.8,0-3.8-1.1-6-3.3c-1.4-1.4-2.9-2.8-4.3-4.3c-4.2-4.2-8.5-8.5-12.7-12.8 c-1.7-1.9-3.7-2.7-6.4-2.7H86.1c-14.2,0-25.2-7.4-29.6-19.7c-0.8-2.3-1.2-4.8-1.2-6.9c-0.1-30.3-0.1-61.2-0.1-91.1 c0-8.1,0-16.1,0-24.2c0.1-21.1,0.1-43-0.2-64.4c-0.2-12.5,9.3-23.4,18.2-26.4c4.2-1.5,7.9-2.2,11.1-2.2c42.9-0.1,87.1-0.2,135.2-0.2 c31.9,0,63.7,0,95.6,0.1c16.7,0,29.8,13.1,29.8,29.8c0.1,58.1,0.1,117.2,0,175.4c-0.1,17.3-13.3,29.8-31.3,29.8 c-13.9,0-28,0.1-41.9,0.1c-13.9,0-28,0-42-0.1c-3,0-5.1,0.9-7.2,3c-4.1,4.2-8.3,8.4-12.4,12.5c-1.4,1.4-2.8,2.8-4.2,4.2 C203.6,328,201.6,329.1,199.7,329.1z M174.5,292.6c3.6,0,6,1,8.2,3.4c3.8,3.9,7.5,7.7,11.5,11.6c1.3,1.3,5.5,5.4,5.5,5.4l1.4-1.4 c1.5-1.5,3-3,4.4-4.4c3.7-3.6,7.2-7.1,10.6-10.7c2.5-2.7,5.3-3.9,9.2-3.9c12.7,0.1,26.2,0.1,43.9,0.1c7.3,0,14.6,0,21.9,0 c7.3,0,14.6,0,21.9,0c12,0,18.6-6.6,18.6-18.7c0-56,0-114-0.1-171c0-12.3-6.5-18.8-18.8-18.8H85.1c-10.4,0.1-17.4,6.9-17.4,17 c0,57.2,0,116.3,0.1,174.5c0,2.8,0.9,6.1,2.5,9c3.1,5.4,8.3,7.9,16,7.9c14.7,0,29.6,0,44.1,0C144.9,292.6,159.8,292.6,174.5,292.6z"></path><path class="st0" d="M199.9,228.1c-20.1,0-40.4-0.1-60.5-0.2c-21.2-0.2-38.2-17.4-38.7-39.2c-0.4-20.6,16.2-38.4,37-39.7 c0.9-0.1,1.9-0.1,2.8-0.1c14.6,0,25.9,6.4,33.6,19c8,13.1,8,26.9,0,41L174,209l-0.3,0.6c-0.3,0.6-0.6,1.3-1,1.9l-1.8,3h57.5 l-1.4-2.9c-0.5-1-1-1.9-1.5-2.8c-0.9-1.7-1.8-3.4-2.5-5.1c-6.1-15.4-3.9-29.3,6.6-41.3c8-9.1,17.5-13.8,28.5-13.8 c4,0,8.1,0.6,12.4,1.9c15.6,4.6,25,15.2,27.8,31.6c2,11.2-1.2,22.8-8.6,31.7c-7.3,8.8-18,13.9-29.2,14 C240.3,228,220,228.1,199.9,228.1z M259,162.1c-14.1,0-26,12-26.1,26.2c-0.1,14.3,11.9,26.4,26.2,26.5l0.2,0 c14.3,0,26.1-11.7,26.3-26.2c0.1-6.9-2.6-13.5-7.6-18.5c-5-5.1-11.6-7.9-18.6-8L259,162.1z M140.2,162.1c-12,0-25,9.4-26.1,25.1 c-0.9,13.4,10,25.9,23.7,27.3c0.9,0.1,1.8,0.1,2.7,0.1c13.5,0,24.7-10.3,26-23.9c0.7-6.9-1.6-14-6.2-19.5 c-4.7-5.5-11.2-8.7-18.2-9.1C141.5,162.1,140.9,162.1,140.2,162.1z"></path></svg>