<svg xmlns="http://www.w3.org/2000/svg" xmlns:xlink="http://www.w3.org/1999/xlink" id="Layer_1" x="0px" y="0px" viewBox="0 0 400 400" style="enable-background:new 0 0 400 400;" xml:space="preserve"><style type="text/css">	.st0{fill:#24224B;}</style><g>	<path class="st0" d="M284.9,287.3c-12.1-9.1-24.4-17.6-37-25.9c-12.4-8.1-27.4-5.2-36.4,6.6c-3,3.8-5.6,7.9-8.4,11.6  c-22.3-11.6-67.9-57.3-79.8-79.7c4.3-3.1,8.4-5.8,12.3-8.9c10.8-8.7,13.8-23.4,6.3-35.1c-8.4-13.2-17.4-26-26.8-38.5  c-7.8-10.1-20.2-12.8-32.1-7.6c-16.2,6.9-25.3,19.6-28.6,36.8c-3.1,16.1-0.9,32,4.6,47c24.7,67.1,71.1,114.4,135.2,144.4  c13.5,6.4,29.2,9.5,44.2,11.4c25.2,3.3,46.4-9,54.8-29.4C298.5,307.4,295.7,295.5,284.9,287.3z M282.2,317.6  c-8.5,16.7-23.4,21.3-41,22.4c-11.3-2.6-23-3.8-33.5-8.3C142.9,305.1,97.1,259,70.6,194.1c-5.7-13.8-7.9-28.4-5.9-43.4  c1.8-13.9,8.4-24.5,21.4-30.6c8.6-4,15.9-2.4,21.5,5.2c8.2,11.3,16.2,22.6,23.8,34.2c6,9.1,4.2,17.5-4.6,24.2  c-2.5,2-5.2,3.8-7.9,5.5c-11.5,8.1-11.6,8.2-3.8,19.4c22.2,31.3,49,57.9,80.3,79.9c9.3,6.6,10.2,6.2,16.5-2.7  c15.9-22.6,19-23.1,42-7c7.6,5.3,15.4,10.5,22.8,15.9C285.1,300.9,287,308.5,282.2,317.6z"></path>	<path class="st0" d="M336.3,198.8c7.3-8,8-15.7,2.1-21.8c-5.2-5.4-13.8-5.8-19.4-0.9c-2.9,2.5-4.6,5.7-4.9,9.4  c-0.5,5.3,1.8,9.6,5.8,13c-8.1,4.4-11.4,11.1-11.2,19.9c0.1,3.3-0.1,6.7-0.1,10c0,4.9,1.4,6.4,6.2,6.5c8.6,0.1,17.1,0.1,25.7,0.3  c2.8,0.1,4.9-0.7,6.2-3.3c0.1-6.3,0.1-12.5,0.2-18.8C345.4,206.9,342.3,201.8,336.3,198.8z M328.2,181.8c2.9,0,5.2,2.4,5.1,5.2  c-0.1,2.7-2.4,4.9-5.1,4.9c-2.8,0-5.2-2.5-5.1-5.2C323.2,184,325.5,181.8,328.2,181.8z M337.8,225.9c-6.8-0.1-13.2-0.1-19.8-0.2  c0-3.9-0.2-7.6,0.2-11.3c0.6-5.2,5.3-8.7,10.6-8.3c5.1,0.4,9,4.4,9.2,9.6C337.9,218.9,337.8,222.3,337.8,225.9z"></path>	<path class="st0" d="M188.8,112.3c9.5,0.2,19,0.3,28.5,0.3c2.4,0,4.6-1.2,4.7-3.9c0.2-6.2,0.5-12.4,0-18.5  c-0.6-6.4-4.7-11-10.2-14.1c7.2-7.4,8-15.6,2-21.8c-5.4-5.5-14.3-5.7-19.9-0.4c-6.3,5.9-5.9,14.2,1.2,21.9  c-7.7,5.8-10.1,8.9-10.6,15.6c-0.5,5.3-0.4,10.7-0.3,16.1C184.1,110.5,185.8,112.2,188.8,112.3z M203.5,59.2c2.7,0,5,2.1,5.1,4.8  c0.1,2.8-2.1,5.3-5,5.3c-2.7,0.1-5.2-2.4-5.2-5.2C198.5,61.5,200.8,59.2,203.5,59.2z M193.6,91.5c0.7-5.3,5.4-8.5,10.8-8  c4.9,0.4,8.7,4.5,8.8,9.6c0.1,3.3,0,6.7-0.1,10.3c-6.8-0.1-13.2-0.1-19.7-0.2C193.4,99.1,193.1,95.2,193.6,91.5z"></path>	<path class="st0" d="M242.1,90.1c3.6,1.4,7.2,2.7,10.6,4.3c21.6,10.1,38.8,25.2,51.7,45.2c2.2,3.4,4.1,7.1,6.4,11.1  c-2.1-0.5-3.6-0.9-5-1.2c-1.5-0.4-2.9-0.8-4.4-1.1c-3.2-0.7-5.6,0.6-6.3,3.2c-0.6,2.4,0.9,4.8,3.9,5.6c5.9,1.6,11.9,3.2,17.8,4.6  c3.7,0.9,5.6-0.3,6.6-3.9c1.6-5.9,3.2-11.9,4.7-17.9c0.8-3-0.5-5.4-3-6c-2.6-0.7-4.8,0.7-5.7,3.6c-0.6,1.9-1,3.8-1.8,6.5  c-1.3-2.2-2.2-3.8-3.2-5.4c-16.2-27.3-39.3-46.1-69-57.1c-3.9-1.4-6.3-0.8-7.5,2C236.8,86.4,238.2,88.6,242.1,90.1z"></path>	<path class="st0" d="M250.7,209.5c0.5,3.3,2,5.3,4.7,5.2c2.8,0,4.5-2,4.4-5.4c-0.1-2.7-0.2-5.5-0.5-8.2  c-3.5-31.7-31.1-57.6-62.8-59c-1.2,0-2.4-0.1-3.6,0c-2.5,0.1-4,1.7-4.2,4c-0.2,2.4,0.9,4.1,3.4,4.7c1.3,0.3,2.6,0.4,3.9,0.5  c23,1.1,44.2,16.8,51.3,38.6C249.2,196.2,249.7,203,250.7,209.5z"></path>	<path class="st0" d="M129.6,107.5c4.4-2.9,8.6-6,13.2-8.5c5.5-3,11.3-5.5,16.9-8.2c-0.9,3.4-2.3,6.1-3.6,8.8  c-1.6,3.2-1,5.9,1.5,7.1c2.5,1.2,5,0.1,6.6-3c3-5.7,5.9-11.5,8.8-17.2c1.8-3.5,1.1-5.7-2.4-7.5c-5.8-3.1-11.6-6.1-17.5-9  c-3-1.5-5.6-1-6.9,1.4c-1.4,2.5-0.3,5,2.7,6.7c2.6,1.4,5.2,2.7,8.1,4.2c-1.2,0.5-1.9,1-2.7,1.3c-10.8,4.2-20.7,9.9-30.1,16.7  c-3.1,2.3-4,4.7-2.4,7.1C123.6,109.6,126.3,109.7,129.6,107.5z"></path>	<path class="st0" d="M320.1,270c-1.7,0.4-3.4,0.7-5.3,1.2c2.5-5.1,4.9-9.6,6.8-14.4c0.6-1.4,0.2-3.8-0.7-4.9  c-0.8-1-3.1-1.6-4.5-1.2c-1.3,0.3-2.5,1.9-3.2,3.2c-2.6,4.8-5,9.7-7.8,15.3c-1-4-1.7-7.2-2.5-10.2c-0.9-3.2-3.1-4.6-5.8-3.8  c-2.5,0.7-3.7,3-2.9,6.1c1.3,5.8,2.7,11.6,4.2,17.4c1,4.1,2.9,5.3,7.1,4.4c5.6-1.3,11.2-2.6,16.8-4c3.5-0.8,5.2-3,4.7-5.6  C326.3,270.5,323.8,269.2,320.1,270z"></path>	<path class="st0" d="M226.5,208.9c0.2,3.8,1.9,5.8,4.9,5.6c2.8-0.2,4.2-2.1,4.2-5.8c-0.1-22-18.4-41.1-41.1-42.2  c-0.2,0-1.1-0.1-2,0c-2.5,0.1-3.9,1.7-4.1,4c-0.2,2.3,1,4.1,3.4,4.6c0.9,0.2,1.8,0.3,2.7,0.4C212.7,177,225.7,190.5,226.5,208.9z"></path>	<path class="st0" d="M188,194.7c-0.3,2.5,1.4,4.4,4.6,5c6.6,1.3,8.6,3.4,9.7,10.1c0.5,3.1,2.3,4.7,5,4.5c2.5-0.3,4-2.1,4-5.1  c-0.1-9.5-8-17.8-17.5-18.3C190.4,190.6,188.3,192,188,194.7z"></path></g></svg>